<?xml version="1.0" encoding="utf-8"?>
<!-- Generator: Adobe Illustrator 27.8.0, SVG Export Plug-In . SVG Version: 6.00 Build 0)  -->
<svg version="1.1" id="Laag_1" xmlns="http://www.w3.org/2000/svg" xmlns:xlink="http://www.w3.org/1999/xlink" x="0px" y="0px"
	 viewBox="0 0 232.9 73.7" style="enable-background:new 0 0 232.9 73.7;" xml:space="preserve">
<style type="text/css">
	.st0{fill:#131F48;}
</style>
<path class="st0" d="M120.8,22.1c-1.7-1.8-4-2.5-6.5-2.5c0,0-3.4-0.1-4.3,1.3v-8.5h-4.5V38h4.5v-9c0-1.5,0.4-2.7,1.2-3.7
	c0.8-0.9,1.8-1.4,3-1.4s2.1,0.4,2.8,1.1c0.6,0.8,0.9,1.8,0.9,3.2V38h4.5V27.4C122.4,25,122,23.5,120.8,22.1z"/>
<path class="st0" d="M161.5,49.7c-1.7-1.8-4-2.5-6.5-2.5c0,0-3.4-0.1-4.4,1.3v-1.3h-4.5v17.9h4.5v-8.7c0-1.5,0.4-2.7,1.2-3.7
	c0.8-0.9,1.8-1.4,3-1.4s2.1,0.4,2.8,1.2c0.6,0.8,0.9,1.8,0.9,3.2v9.4h4.5V55C163.1,52.6,162.7,51,161.5,49.7L161.5,49.7z"/>
<path class="st0" d="M98.6,49.1v-1.8H94v17.9h4.5v-7.6c0-2.3,0.5-3.9,1.4-4.8c0.9-0.9,2.4-1.3,4.3-1v-4.3
	C101.6,47.2,98.5,47.5,98.6,49.1z"/>
<path class="st0" d="M187.3,47.3l-3.6,11.6l-3.6-11.6h-3.8l-3.6,11.6l-3.6-11.6h-4.7l6,17.8h4.2l3.6-11.4l3.6,11.4h4.2l6-17.8
	L187.3,47.3L187.3,47.3z"/>
<path class="st0" d="M230.4,49.4c-1.6-1.8-3.6-2.7-6.1-2.7c-1.6,0-3.9,0.2-5.6,1.7v-8.8h-4.5v25.6h4.5v-1.7c1.6,1.2,3.6,1.7,5.6,1.7
	c2.4-0.1,4.4-0.9,6.1-2.6c1.6-1.8,2.5-3.9,2.5-6.5S232,51.2,230.4,49.4z M227,59.7c-0.9,1-2.1,1.4-3.5,1.4l0,0
	c-1.4,0-2.6-0.5-3.5-1.5c-1-1-1.4-2.2-1.4-3.7s0.5-2.7,1.4-3.6s2.1-1.4,3.5-1.4s2.6,0.5,3.5,1.4c0.9,1,1.4,2.2,1.4,3.7
	S227.9,58.7,227,59.7z"/>
<path class="st0" d="M135.2,61.3c-1.5,0-2.7-0.3-3.5-1.1c-0.7-0.6-1.2-1.4-1.4-2.3h13.5v-2.2c0-0.6-0.1-1.1-0.1-1.7
	c-0.3-1.8-1.1-3.4-2.3-4.7c-1.6-1.7-3.8-2.5-6.6-2.5s-4.9,0.9-6.6,2.6c-1.7,1.7-2.5,3.9-2.5,6.6s0.9,5,2.6,6.6
	c1.7,1.7,4,2.5,6.8,2.5c0,0,7.1,0,8.7,0c0-1.7,0-3,0-3.8C143.8,61.3,135.2,61.3,135.2,61.3z M131.6,51.8c0.8-0.8,1.9-1.1,3.1-1.1
	s2.4,0.4,3.2,1.1c0.7,0.6,1.1,1.4,1.3,2.3h-9C130.4,53.2,130.8,52.4,131.6,51.8L131.6,51.8z"/>
<path class="st0" d="M202.2,61.3c-1.5,0-2.7-0.3-3.5-1.1c-0.7-0.6-1.2-1.4-1.4-2.3h13.5v-2.2c0-0.6,0-1.1-0.1-1.7
	c-0.3-1.8-1.1-3.4-2.3-4.7c-1.6-1.7-3.8-2.5-6.6-2.5s-4.9,0.9-6.6,2.6c-1.7,1.7-2.5,3.9-2.5,6.6s0.9,5,2.6,6.6
	c1.7,1.7,4,2.5,6.8,2.5c0,0,7,0,8.6,0c0-1.7,0-3,0-3.8L202.2,61.3L202.2,61.3z M198.6,51.8c0.8-0.8,1.9-1.1,3.1-1.1s2.4,0.4,3.2,1.1
	c0.7,0.6,1.1,1.4,1.3,2.3h-9C197.4,53.2,197.8,52.4,198.6,51.8L198.6,51.8z"/>
<path class="st0" d="M135.1,34.2c-1.5,0-2.7-0.3-3.5-1.1c-0.7-0.6-1.2-1.4-1.4-2.3h13.5v-2.2c0-0.6-0.1-1.1-0.1-1.7
	c-0.3-1.8-1.1-3.4-2.3-4.7c-1.6-1.7-3.8-2.5-6.6-2.5s-4.9,0.9-6.6,2.6c-1.7,1.7-2.5,3.9-2.5,6.6s0.9,5,2.6,6.6
	c1.7,1.7,4,2.5,6.8,2.5c0,0,7.1,0,8.7,0c0-1.7,0-3,0-3.8H135.1z M131.5,24.7c0.8-0.8,1.9-1.1,3.1-1.1s2.4,0.4,3.2,1.1
	c0.7,0.6,1.2,1.4,1.3,2.3h-9C130.3,26.1,130.7,25.3,131.5,24.7L131.5,24.7z"/>
<path class="st0" d="M114.8,61.3c-1.5,0-2.7-0.3-3.5-1.1c-0.7-0.6-1.2-1.4-1.4-2.3h13.5v-2.2c0-0.6-0.1-1.1-0.1-1.7
	c-0.3-1.8-1.1-3.4-2.3-4.7c-1.6-1.7-3.8-2.5-6.6-2.5s-4.9,0.9-6.6,2.6c-1.7,1.7-2.5,3.9-2.5,6.6s0.9,5,2.6,6.6
	c1.7,1.7,4,2.5,6.8,2.5c0,0,7.1,0,8.7,0c0-1.7,0-3,0-3.8C123.4,61.3,114.8,61.3,114.8,61.3z M111.2,51.8c0.8-0.8,1.9-1.1,3.1-1.1
	s2.4,0.4,3.2,1.1c0.7,0.6,1.2,1.4,1.3,2.3h-9C110,53.2,110.4,52.4,111.2,51.8z"/>
<path class="st0" d="M80.8,13.5v4.2h8.1V38h4.7V17.8h8.1v-4.2L80.8,13.5L80.8,13.5z"/>
<path class="st0" d="M78.6,51.4v4H86c-0.2,1.6-0.9,2.8-2.2,3.9S81,60.8,79,60.8c-2.6,0-4.6-0.8-6.1-2.4c-0.4-0.4-0.7-0.8-1-1.3
	c-0.8,1.4-1.7,2.8-2.7,4.1c0.1,0.1,0.2,0.2,0.3,0.3c2.4,2.4,5.5,3.6,9.2,3.6s6.5-1.1,8.8-3.2c2.2-2.1,3.4-4.9,3.4-8.2v-2.4
	L78.6,51.4L78.6,51.4z M85.8,42.3c-2-1.4-4.5-2.1-7.3-2.1c-0.4,0-0.8,0-1.2,0c-0.1,1.5-0.3,3-0.6,4.6c0.6-0.1,1.2-0.2,1.8-0.2
	c3.4,0,5.8,1.4,7.1,4.2l4.3-1.2C89.2,45.4,87.8,43.7,85.8,42.3z"/>
<path class="st0" d="M62.8,11C56,4.1,46.2,0,36.7,0C16.5,0,0,16.5,0,36.8c0,0.4,0,0.7,0,1.1c0,0.3,0,0.7,0,1
	C0,51,10.8,73.7,36.6,73.7c13.8,0,24.1-7.2,30.1-16c3.7-5.3,5.8-11.1,6.3-16.4c0.1-0.8,0.1-1.6,0.1-2.3C73.4,27.7,69.8,18.1,62.8,11
	z M69.4,36.8c0,0.6,0,1.1,0,1.6H38.7V31c2.1,1.8,4.6,2.7,7.4,2.7c6.3,0,11.4-5.1,11.4-11.4c0-5.5-4-10.3-9.4-11.3
	c0-1.1-0.2-3.5-1.5-5.6C60.1,9.8,69.4,22.5,69.4,36.8z M29.2,49.4c-1-2.5-2.6-5.2-4-7h8L29.2,49.4z M36.7,44.4l4,7
	c-1.3-0.2-2.7-0.3-4-0.3s-2.7,0.1-4,0.3L36.7,44.4z M30,56c4.3-1.3,9.1-1.3,13.4,0l3.7,6.5c-3.5-1.4-7-2.1-10.5-2.1s-7,0.7-10.4,2.1
	C26.2,62.5,30,56,30,56z M40.2,42.4h8.1c-1.3,1.8-3,4.2-4.1,6.9L40.2,42.4z M29.4,12.6c-0.1-0.4-0.1-0.8-0.1-1.2
	c0-4.1,3.3-7.4,7.4-7.4s7.4,3.3,7.4,7.4c0,0.4,0,0.8-0.1,1.2l-0.4,2.3h2.5c4.1,0,7.4,3.3,7.4,7.4s-3.3,7.4-7.4,7.4s-7.4-3.3-7.4-7.4
	v-2h-4v2c0,4.1-3.3,7.4-7.4,7.4s-7.4-3.3-7.4-7.4s3.3-7.4,7.4-7.4h2.5C29.8,14.9,29.4,12.6,29.4,12.6z M4,36.8
	C4,22.4,13.4,9.7,27,5.5c-1,1.7-1.6,3.6-1.7,5.6c-4.9,0.3-9.4,5.7-9.4,11.3c0,6.3,5.1,11.4,11.4,11.4c2.8,0,5.3-1,7.4-2.7v7.4H4
	C4,37.9,4,37.4,4,36.8z M4.4,42.4c9.2,4,14.7,12.4,14.6,22.1C9.7,58.8,5.3,48.4,4.4,42.4z M12.5,42.4h7.4c3.1,2.3,6.3,8.7,6.7,11.6
	l-3.8,6.5C22.1,56.3,20,47.8,12.5,42.4z M25,67.5c5.6-3.3,14.9-4.6,23.4,0C40.9,70.4,32.4,70.4,25,67.5z M46.9,54.1
	c0.8-3.3,2.5-8,6.7-11.6H61c-6.9,5.2-9.7,13.1-10.4,18.1C50.6,60.5,46.9,54.1,46.9,54.1z M66,51.4c-2.2,4.4-5.7,9.3-11.6,13.1
	c0.1-13.1,9.1-20,14.6-22.1c-0.2,0.8-0.4,1.8-0.7,2.9C67.8,47,67,49.2,66,51.4z"/>
</svg>
