<?xml version="1.0" encoding="UTF-8"?>
<svg id="Laag_1" data-name="Laag 1" xmlns="http://www.w3.org/2000/svg" viewBox="0 0 634.35 495.17">
  <defs>
    <style>
      .cls-1 {
        stroke-width: 0px;
      }
    </style>
  </defs>
  <path class="cls-1" d="m548.68,346.76c.41.07.73.23.91.14,2.36-1.18,3.95-.18,5.1,1.84.94,1.64,1.75,3.36,2.73,5.26,1.35-.12,2.82-.35,4.29-.36,3.14-.02,4.11.67,5.26,3.55.25.62.4,1.28.61,1.94.55.25,1.03.54,1.55.68,2.11.53,3.2,1.83,3.46,4.02.22,1.89.84,3.69,1.67,5.45.62,1.3.7,2.85,1.08,4.57,4.88-1.1,9.74-2.14,14.28-4.4,2.69-1.33,5.49-2.46,8.33-3.43,1.81-.62,3.76-.89,5.03,1.33.27.47,1.18.57,1.79.85,1.12.51,2.26.96,3.34,1.53,1.31.69,1.91,1.91,2.15,3.32.26,1.49-.16,2.74-1.46,3.56-1.03.64-2.14,1.18-3.06,1.68-.61.9-.09,1.43.28,1.98.8,1.19.36,2.43-.01,3.56-.64,1.97-.93,3.96-1.02,5.92,3.9,2.45,4.59,4.15,3.55,8.56-.09.4-.29.77-.39,1.16-.07.26-.07.53-.1.83.48.89,1.15.16,1.73.16,1.61-.01,2.65.71,2.94,2.21.13.66.09,1.36.11,2.04.02.68,0,1.36,0,2.28,2.14.85,4.27,1.71,6.4,2.54.51.2,1.07.26,1.58.46,2.32.87,2.95,1.84,2.79,4.36-.03.54-.2,1.07-.34,1.83.44.36.96.77,1.44,1.21,2.65,2.42,2.69,2.87.63,6.41.56.83,1.12,1.76,1.78,2.61,1.87,2.44,2.96,4.97.92,8.04,1.56,2.15,3.07,4.24,4.6,6.32.4.55.92,1.03,1.28,1.61.89,1.46.39,3.08-1.18,3.75-.88.37-1.81.7-2.74.83-2.7.38-5.42.63-8.13.97-2.74.35-5.39.33-8.11-.5-2.23-.68-4.62-.57-6.9.88.53.79,1.1,1.54,1.56,2.35,1.65,2.94,1.36,5.43-.87,7.89-1.1,1.22-2.1,2.53-3.28,3.66-.98.94-2.03,2.02-3.25,2.44-4.24,1.45-8.35,3.33-12.85,3.97-4.6.66-9.21,1.23-13.84,1.72-7.12.74-14.23.77-21.34.5-10.39-.4-20.8-.64-31.1-2.34-1.35-.22-2.7-.46-4.03-.76-6.31-1.43-12.73-1.64-19.15-2.09-6.01-.42-11.96-1.46-17.7-3.32-3.27-1.06-5.82-3.02-6.71-6.82h-7.79c-.93,1.08-1.83,2.29-2.9,3.33-2.09,2.04-4.54,3.53-7.4,4.24-3.7.92-7.39,1.94-11.13,2.67-3.69.72-7.37.28-10.84-1.18-1.35-.57-2.51-1.57-4.01-2.54-.54.76-1.12,1.47-1.57,2.25-2.55,4.36-6.58,6.88-11.1,8.62-2.04.78-4.31.58-6.5.16-2.41-.46-4.83-.88-7.34-1.33-.38.5-.82.87-1,1.34-1.13,2.91-3.51,4.59-6.13,5.77-6.41,2.89-12.76,2.67-18.8-1.13-2.41-1.51-4.72-3.16-7.21-4.83-.84,1.08-1.91,2.16-2.63,3.43-.77,1.37-1.8,2.41-3.09,3.22-4.32,2.73-8.79,4.94-14.15,4.67-2.74-.14-5.46-.08-8.12-.94-2.15-.7-3.93-1.71-5.26-3.64-1.46-2.13-3.18-4.08-4.96-6.34-.56.35-1.11.65-1.61,1.01-1.81,1.29-3.74,2.22-5.98,2.54-2.97.43-5.91,1.13-8.89,1.47-4.4.5-8.38-.57-11.85-3.5-2.52-2.13-4.88-4.37-6.29-7.27-2.05.42-3.79.71-5.49,1.16-.92.24-1.76.83-2.65-.04-.14-.13-.58-.18-.7-.07-1.83,1.78-3.69.27-5.41-.11-2.13-.46-4.01-1.66-5.59-3.25-1.44-1.45-2.98-2.81-4.67-4.38-.77.6-1.54,1.1-2.2,1.72-5.31,5.08-11.63,7.15-18.84,5.85-5.25-.95-9.48-3.63-11.41-8.89-.98-2.66-2.32-5.25-2.29-8.23,0-.78-.38-1.58-.67-2.33-.73-1.89-1.52-3.77-2.35-5.81-4.87,1.59-9.65,1.01-14.28-.97-3.47-1.48-6.49-3.61-8.1-7.19-1.21-2.7-3.71-3.4-6.14-4.24-.31-.11-.77.2-1.23.34.13.42.13.9.38,1.14,2.38,2.36,3.21,5.44,3.6,8.55.39,3.1.29,6.27.27,9.41-.02,3.67-1.44,6.91-3.29,10.02-2.05,3.44-5.07,5.32-9.01,5.68-2.18.2-4.38.17-6.57.23-4.34.12-8-1.55-11.27-4.27-1.05-.87-2.1-1.75-3.21-2.54-.23-.16-.76,0-1.1.14-.17.08-.36.53-.28.69,1.17,2.33.09,4.11-1.16,6.04-.79,1.21-1.2,2.77-1.43,4.22-.34,2.13-.7,4.1-3.35,4.62.44,1.66.82,2.95,1.11,4.26.63,2.83-.64,4.56-3.58,4.63-2.15.05-4.32-.2-6.74-.32-.63.54-1.43,1.68-2.46,1.96-1.24.34-2.7.02-4.04-.18-1.08-.16-2.13-.53-3.18-.84-2.15-.63-4.05-.42-5.53,1.49-.32.42-.79.73-1.15,1.04-1.56.21-2.72-.57-3.98-1.07-2.29-.89-4.6-1.75-6.93-2.52-1.43-.48-2.68-.21-3.53,1.23-1.12,1.89-2.88,1.95-4.65,1.28-1.22-.46-2.28-.63-3.55-.18-.71.26-1.59.1-2.39.01-.8-.09-1.61-.52-2.38-.43-1.46.16-2.69-.27-3.92-.93-.59-.32-1.38-.91-1.84-.74-2.31.88-3.21-.83-4.38-2.12-2.22-2.46-3.99-5.19-5.4-8.2-1.15-2.46-2.49-4.84-3.84-7.43-1.87.47-3.6.77-5.22,1.37-1.6.59-3.13.88-4.88.04-1.02,2.21-2.01,4.14-2.8,6.14-.79,2-2.27,3.67-2.53,5.94-.07.59-1.02,1.38-1.7,1.54-1.68.39-2.48,1.6-3.3,2.87-.81,1.26-1.57,2.56-2.45,3.77-2.11,2.91-2.91,3.13-6.75,1.99-.94,1.22-1.95,2.5-2.93,3.8-.94,1.25-2.19,1.62-3.64,1.19-1.71-.51-3.41-1.04-4.5-2.65-.37-.54-.9-.97-1.36-1.46-1.92,1.11-3.65,2.16-5.44,3.12-1.19.64-2.32.64-3.3-.54-2.12-2.57-4.96-2.71-7.82-1.84-1.94.59-3.78,1.59-5.56,2.57-2.12,1.17-4.29,1.53-6.71,1.32-2.37-.2-3.91-1.05-4.32-3.5-.09-.51-.26-1.01-.4-1.52-4.15,1.11-5.53.27-6.34-3.81-.16-.79-.15-1.61-.25-2.68-1.01.16-1.89.39-2.77.42-1.08.04-2.21.07-3.25-.17-1.71-.38-2.46-1.58-2.25-3.37.09-.81.32-1.61.56-2.39.24-.78.58-1.53.97-2.54-.53-.3-1.08-.6-1.62-.93-.92-.55-1.3-1.36-1.17-2.42.14-1.09.18-2.19.4-3.26.19-.91.57-1.78.95-2.9-1.71-1.37-3.39-2.75-5.11-4.06-1.79-1.37-2.01-2.95-.44-4.44,1.08-1.04,2.25-1.94,3.84-2.24,1.46-.27,2.86-.81,4.52-1.3-.08-.71-.09-1.35-.23-1.96-.45-1.9.36-3.25,1.93-4.12,1.18-.66,2.48-1.13,3.77-1.54,1.93-.61,3.9-1.1,5.84-1.64-.32-1.43-.59-2.58-.91-4.01-1.07-.19-2.39-.43-3.71-.67-2.93-.54-3.62-1.7-2.7-4.63.12-.38.41-.7.71-1.18-1.57-1-4.35.3-5-2.41.69-.86,2.52-.08,2.28-2-2.12-1.26-4.33-2.57-6.54-3.89-.89-.53-1.46-1.26-1.28-2.35.17-1.08,1.06-1.93,2.23-2.09.94-.12,1.89-.1,2.84-.15-.22-3.31.22-4.17,3.06-5.4,1.62-.7,3.33-1.19,5.15-1.82.1-1.24.21-2.44.3-3.64.13-1.87,1.21-3.03,2.88-3.61,1.02-.35,2.21-.8,3.18-.57,1.97.46,3.76-.46,5.58-.17.17-.37.32-.6.38-.84.79-3.17,2.34-4.42,5.41-4.22.81.05,1.62.28,2.4.52,2.04.63,4.1.36,6.11-.02,2.61-.49,4.19-2.43,4.46-5.12.11-1.08.14-2.2.43-3.24.41-1.52,1.5-2.37,3.04-2.25,4.42.34,8.71,1.32,12.4,3.86,1.4.96,2.45,2.55,3.42,4.01,4.34,6.52,9.11,12.64,15.16,17.71,3.03,2.55,5.87,5.31,7.94,8.76.19.32.55.53,1.1,1.05.26-.99.55-1.7.62-2.43.38-4.05,1.6-8.06.54-12.19-.66-2.57-1.84-4.63-3.69-6.67-3.56-3.94-6.81-8.24-7.54-13.81-.09-.67-.18-1.36-.14-2.03.1-1.47.75-2.62,2.23-3.14.77-.28,1.57-.5,2.33-.79,2.5-.95,4.54-2.4,5.76-4.91.58-1.2,1.44-2.28,2.22-3.38,1.08-1.52,2.45-2.46,4.45-2.41,1.95.04,3.23-1.09,4.2-2.77,1.02-1.76,2.18-3.47,3.44-5.07,1.67-2.12,3.01-1.94,4.28.42.25.47.46.97.85,1.83,1.07-1.55,1.96-2.86,2.88-4.15,1.76-2.44,2.92-2.45,5.13-.09.18.19.42.34.87.7.45-.29.96-.68,1.51-.99,3.05-1.7,4.12-1.56,6.87.88.12-.05.24-.09.36-.15,3.01-1.7,4.21-1.26,4.81,1.95.25,1.33.22,2.73.19,4.09-.07,3.14-.26,6.28-.33,9.42-.03,1.21.1,2.43.16,3.54.34.15.45.23.58.25.11.02.27,0,.34-.07,1.76-1.9,3.51-3.81,5.34-5.8-1.01-2.03-2.79-3.65-2.6-5.98.17-2.02.52-4.03.81-6.23-.94-.82-1.93-1.74-2.99-2.59-3.44-2.76-5.48-6.38-6.61-10.58-.48-1.79-.34-3.47.3-5.22,2.33-6.42,6.82-10.75,12.93-13.54.99-.45,2.01-.89,3.06-1.19,1.96-.56,3.87-1.33,6.02-.75.72.19,1.57-.1,2.61-.2-.39-1.11-.55-2.08-1.03-2.86-1.82-2.95-2.08-6.24-1.83-9.51.28-3.68,2.06-6.76,4.88-9.18,2.91-2.49,5.89-4.89,9.81-6.06-1.04-1.55-2.04-2.83-2.82-4.23-5.26-9.57-2.79-18.06,4.14-23.98,1.21-1.04,2.81-1.77,4.35-2.24,2.2-.67,4.53-.91,6.77-1.46,6.64-1.63,16.71,4.27,19.75,11.23.53,1.22.64,2.63.97,4.05,1.26.14,1.56-.92,1.82-1.71.46-1.42.68-2.92,1.02-4.38.7-3.06,1.33-6.15,2.16-9.17.48-1.76.28-3.07-1.05-4.45-6.06-6.32-12.02-12.74-17.99-19.11-1.17.28-2.07.64-2.98.68-1.71.07-2.85-1.27-2.53-2.95.15-.79.48-1.57.88-2.27.67-1.19,1.46-2.3,2.33-3.64-.26-1.97-1.54-3.59-2.82-5.16-1.2-1.48-2.45-2.95-3.84-4.26-2.24-2.13-3.38-4.97-5.04-7.47-.53-.8-.5-2.11-.42-3.16.12-1.58,1.76-2.31,3.04-1.48.34.22.64.52.95.78,2.6,2.23,4.92,4.74,6.85,7.55,1.78,2.59,3.32,5.34,4.99,8.01,1.22,1.94,1.84,4.01,1.12,6.25-.49,1.52,0,2.61,1.06,3.68,3.08,3.1,5.97,6.41,9.2,9.35,3.45,3.13,6.78,6.35,9.86,9.84.36.41.8.74,1.41,1.28,2.42,0,5.02.02,7.61,0,1.71-.02,3.14-.74,4.51-1.75,2.74-2.02,5.52-4,8.37-5.86.73-.48,1.79-.6,2.7-.63,1.07-.04,1.89.71,2.1,1.66.15.69-.08,1.69-.52,2.23-.74.89-1.79,1.52-3.08,2.56,6.83.56,12.32,2.88,16.24,7.96.41.12.67.27.92.26,5.27-.23,10.36.57,15.29,2.51,2.33.92,4.55.6,6.54-1.02.63-.51,1.29-1.04,2.03-1.36,2.58-1.12,4.87-.37,6.3,2.09.23.4.28,1.19.04,1.51-.36.48-1.02.86-1.61.99-.47.1-1.06-.19-1.55-.4-1.87-.82-3.13-.07-4.28,1.61,2.04,2.53,4.63,4.31,7.45,5.58,2.89,1.3,5.69,2.59,7.64,5.23,2.05-.38,3.76-1.11,5.64-2.11-1.1-1.18-2.04-2.14-2.93-3.16-.63-.72-1.25-1.47-1.76-2.27-1.14-1.8-.88-3.45.92-4.59,2.87-1.82,5.44-4.15,8.77-5.19.24-.07.43-.33.86-.68-1.58-1.95-3.46-3.91-2.31-6.54-4.32-4.49-3.89-4.82-1.58-9.68-.61-1.05-1.34-2.18-1.95-3.38-.63-1.26-.26-2.93.94-3.07,1.95-.22,2.39-2.09,3.66-2.73,3.82,1.05,7.48,2.06,10.89,3,.55-.29.92-.36.99-.54.54-1.32,1.21-2.5,2.81-2.67,1.56-.17,2.71.85,3.48,1.87,1.71,2.28,3.14,4.76,4.69,7.17.22.34.42.68.61,1,.31,0,.59.08.8-.01,2.59-1.08,3.6-.68,4.06,1.85.42,2.29.57,4.62,1.02,6.9.34,1.72.87,3.42,1.48,5.08,1.16,3.17,4.92,4.27,7.92,3.07,1.69-.68,3.38-1.37,5.32-2.16-.36-.52-.73-1.05-1.1-1.58.04-.26.03-.54.13-.78.63-1.51,1.73-2.97,1.85-4.51.26-3.26.03-6.56-.04-9.84-.02-.95-.2-1.91-.31-2.86-.41-3.31.77-6.22,2.38-8.96,1.31-2.22,2.88-2.17,4.8-.07.26.28.61.47,1.01.76,1.39-1.03,2.3-2.38,3.22-3.73.69-1.02,1.35-2.07,2.13-3.02,1.58-1.91,3.18-1.93,5.22-.18.3.26.61.52.95.81,1.65-.74,3.27-1.46,5.02-2.24.73.43,1.53.9,2.26,1.32,2.22-1.33,4.29-2.67,6.45-3.85,2.35-1.28,3.98-.4,4.32,2.28.12.94.02,1.9.02,3.18.39.35.91,1.03,1.59,1.41,1.79,1.02,1.9,2.59,1.49,4.27-.35,1.43-.94,2.8-1.4,4.15q3.89,2.75,3.18,7.32c1.21-.13,2.36-.26,3.45-.38.77-5.05.25-9.9-.11-14.78-.45-6-.54-12.03-.64-18.06-.08-4.92.07-9.81-.54-14.74-.57-4.59-.27-9.29-.34-13.94-.03-2.05.02-4.1-.03-6.15-.17-6.98-.73-13.97-.46-20.94.29-7.51,1.2-15.03,4.19-22.07.85-2,1.81-3.99,2.97-5.83,2.7-4.25,5.21-8.65,8.99-12.1,1.35-2.98,4.16-4.65,6.25-6.96,2.13-2.35,3.98-4.88,5.63-7.56,2.2-3.57,3.02-7.57,3.23-11.73.11-2.18.34-4.34.51-6.52.06-.82.24-1.65.16-2.45-.5-4.92.13-9.82.23-14.73.14-6.69.64-13.38.57-20.06-.09-8.89-.57-17.77-.89-26.66-.04-1.22-.14-2.44-.24-3.92-4.38-4.06-3.55-9.44-2.9-14.75.16-1.33.79-2.61.96-3.94.38-2.96,2.39-4.17,4.94-4.75,1.19-.27,2.46-.27,3.69-.22,6.04.24,12.01-.44,17.99-1.13.81-.09,1.63-.12,2.44-.12,1.77,0,3.53.04,5.3.05.96,0,1.97-.23,2.87,0,3.49.86,5.07,1.89,5.3,5.21.15,2.12.93,4.12,1.57,6.14.89,2.82.68,5.69-.2,8.41-.39,1.19-1.67,2.09-2.49,3.06.42,8.96.46,17.83.36,26.71-.04,3.95.43,7.91.45,11.87.03,5.87,1.01,11.72.02,17.63-.33,1.96.29,4.06.44,6.1.48,6.57,1.56,13.03,3.31,19.38,1.43,5.17,4.18,9.55,8.07,13.09,4.07,3.7,7.92,7.56,11.36,11.84,1.03,1.28,2.29,2.29,3.79,3.29.28-.45.57-.73.64-1.06.85-3.87,1.75-7.73,2.46-11.63.56-3.05,2.55-4.79,5.15-5.86,1.61-.66,3.46-.71,5.16-1.16,1.38-.37,1.89.75,2.91,1.53.33-.34.83-.63.96-1.04.29-.93.89-1.36,1.77-1.44,2.04-.18,4.1-.22,6.13-.47,4.19-.53,8.42-.54,12.62-1.09,3.36-.44,6.79-.36,10.19-.49,1.64-.07,3.28-.09,4.92-.17,3.82-.19,7.64-.45,11.46-.58,3.97-.14,7.94-.22,11.91-.22,7.95,0,15.82.8,23.62,2.33.67.13,1.38.3,2.03.21,2.59-.36,4.09,1.1,5.35,3.04,2.87,4.41,4.58,9.31,6,14.33.18.65.19,1.36.41,2,2.66,7.77,3.92,15.89,6.03,23.8.31,1.18.27,2.45.48,3.66,1.16,6.74,2.51,13.44,3.47,20.2.89,6.21,1.85,12.44,1.97,18.72.08,4.37-.16,8.75-.45,13.11-.22,3.27-.84,6.51-1.1,9.78-.43,5.37-2.05,10.4-3.64,15.5-1.89,6.04-4.78,11.61-7.46,17.26-1.57,3.29-3.95,6.22-6.17,9.17-1.89,2.51-4.04,4.82-6.13,7.17-6.14,6.91-13.76,11.56-22.4,14.66-.38.14-.81.12-1.21.21-.4.09-.78.23-1.54.46-.85,1.57-1.86,3.33-2.77,5.15-2.66,5.3-4.51,10.8-4.94,16.8-.39,5.46-1.24,10.88-1.77,16.33-.56,5.73-.45,11.48-.1,17.23.14,2.17.32,4.34.48,6.48Zm-261.97-39.99c.06-.3.12-.59.17-.89-.1.04-.28.09-.28.11.05.25.13.49.2.74.18,1.17.35,2.34.53,3.51,1.24.06,1.79-.54,1.89-1.71-.46-.6-.89-1.28-1.46-1.83-.17-.17-.71.04-1.05.07Zm-55.72,70.63c2.3.6,3.97,2.81,6.63,2.72.24-.66.48-1.16.59-1.68.08-.38-.02-.79-.05-1.42-1.93,0-3.82-.03-5.71.02-.52.02-1.03.3-1.55.45-1.57-1.8-3.83-1.99-6.1-2.9-.4,1.75-1.72,2.85-1.82,4.71,2.84-.68,5.42-1.29,8.01-1.92ZM419.66,88.89c0,1.62.08,2.99-.01,4.34-.33,4.73.8,9.63-1.56,14.14-.82,5.09-3.84,9.01-7.04,12.75-2.93,3.43-6.26,6.51-9.22,9.91-4.89,5.61-8.7,11.85-10.97,19.03-1.62,5.13-1.56,10.54-3.04,15.67-.07.24.03.53.05.8.13,2.03.29,4.06.37,6.09.16,3.96.26,7.92.41,11.88.05,1.36.2,2.71.26,4.07.24,6.14-.34,12.29.4,18.43.43,3.51.41,7.09.5,10.63.13,5.06.14,10.12.28,15.18.1,3.55.5,7.1.51,10.65.02,8.76-.13,17.52-.15,26.28,0,3.41.14,6.83.23,10.24.16,6.01.71,12.05.38,18.03-.23,4.24-.31,8.46-.3,12.7.02,8.21.08,16.41.16,24.62.03,2.87.23,5.74.24,8.61,0,3.83-.17,7.65-.16,11.48.04,9.67.14,19.35.22,29.14.35.3.77.64,1.18,1,1.44,1.3,2.84,1.25,4.45.18,3.02-2.03,6.55-2.65,10.05-3.3,5.32-.99,9.99.7,14.44,3.36,1.8,1.08,3.05,2.66,4.11,4.47,2.3,3.93,3.1,8.15,2.85,12.62-.11,2.01-.33,4.01-.5,6,1.15.54,2.08,1.19,3.11,1.42,1.58.35,2.74,1.28,3.78,2.33,2.89,2.92,4.7,6.34,4.54,10.6-.04,1.04.16,2.09.26,3.26,1.21,0,2.17.11,3.1-.02,4.74-.66,9.22.2,13.54,2.12,6.41,2.86,10.77,7.38,11.83,14.56.35,2.4.62,4.81.94,7.4.55-.04,1.09.04,1.56-.12,2.2-.74,4.35-1.61,6.56-2.32,4.26-1.36,7.11-3.94,7.79-8.54.16-1.08.48-2.15.58-3.23.6-6.53,1.2-13.07,1.72-19.61.17-2.17.04-4.36.11-6.54.27-8.05.01-16.1-.15-24.15-.06-2.87-.18-5.74-.33-8.6-.16-3.14-.4-6.28-.56-9.42-.13-2.45,0-4.93-.34-7.35-1.13-8.01-.69-16.09-1.11-24.13-.36-7.08-.71-14.21-.19-21.33.2-2.72.07-5.46.12-8.19.07-4.51.1-9.02.26-13.52.09-2.45.61-4.89.62-7.33.02-7.39-.07-14.78-.22-22.16-.08-3.73-.33-4.1-2.52-7.11-1.05-1.43-2.04-2.9-3.06-4.35-4.54-6.48-7.22-13.79-9.11-21.36-1.77-7.09-1.86-14.39-1.44-21.63.35-5.84.51-11.71,1.94-17.49,1.14-4.62,1.51-9.43,2.2-14.15.56-3.79.93-7.62,1.69-11.36,1.45-7.1,3.12-14.15,4.71-21.22.24-1.07.56-2.12.87-3.17.37-1.27.21-2.4-.63-3.47-3.91-4.93-8.08-9.64-13.04-13.54-3.37-2.64-6.53-5.49-8.55-9.24-4.14-7.68-6.55-15.89-6.72-24.69-.01-.77-.21-1.53-.33-2.39-1.45-.09-2.66-.21-3.88-.24-2.46-.06-4.92-.08-7.38-.11-3.66-.06-7.31.13-10.98-.52-3.18-.56-6.21.66-9.43,1.9Zm-236.12,343.75c-2.27-.54-4.18-1.17-4.91-3.39-.13-.4-.88-.6-1.32-.91-1.3-.92-2.59-1.86-4.4-3.15-.64,0-1.87.1-3.08-.03-.97-.1-1.83-.55-2.05-1.7-.12-.61.08-1.42-1.05-1.73-.73.14-1.7.55-2.58.42-1.02-.15-1.97-.79-2.92-1.2-.7.23-1.35.43-2,.65-.65.22-1.27.53-1.93.67-1.46.33-2.73-.3-3.02-1.4-.49-1.9.05-2.94,1.81-3.47.91-.27,2.14-.25,2.69-.85,1.88-2.07,4.39-3.09,6.61-4.14-.19-1.23-.61-2.21-.39-3.03.23-.84.99-1.6,1.67-2.23.59-.54,1.42-.82,2.1-1.27.89-.59,1.74-1.25,2.63-1.88-.65-1.59-.45-2.81.69-3.9.69-.66,1.3-1.43,1.8-2.24.4-.65.59-1.44.95-2.38-2.17-.21-4.09-.24-5.94-.61-2.04-.41-2.98-2.26-3.97-3.74-.69-.19-1.26-.24-1.74-.49-2.92-1.52-5.82-1.01-8.74-.04-.65.22-1.31.42-1.93.69-1.4.62-2.65.41-3.83-.54-.51-.41-1.07-.75-1.61-1.12-1.92.86-3.66,1.65-5.4,2.41-1.01.44-2.12.94-3.16.35-1.85-1.04-3.42-.36-5.04.5-.58.31-1.22.5-1.74.71-1.92-1.94-2.21-2.48-2.38-4.71-.08-1.09.14-2.22-.06-3.28-.95-5.05-.61-10.02.58-14.98.07-.31-.19-.69-.41-1.39-.77.68-1.37,1.18-1.93,1.72-1.08,1.05-2.11,1.1-3.15,0-.12-1.24-.24-2.43-.39-3.94-1.9,1.03-3.54,1.92-5.25,2.84-1.16-.66-2.2-1.26-3.39-1.94-.94,1.55-1.8,3.09-2.78,4.56-1.16,1.75-3,1.79-4.41.14-.5-.59-.89-1.27-1.59-2.27-2.37,4.24-4.69,8.06-9.75,7.69-1.95,1.39-2.91,3.2-3.94,4.97-1.19,2.05-2.66,3.76-5.08,4.51-1.27.39-2.43,1.14-3.6,1.71-.03.56-.13.98-.06,1.37.82,4.73,3.26,8.62,6.38,12.15.8.91,1.7,1.77,2.35,2.78,2.48,3.82,2.99,8.13,2.95,12.56,0,.62-.37,1.38.75,1.72.63-.62,1.29-1.27,1.96-1.93,2.46-2.43,3.12-5.35,2.28-8.64-.47-1.86-.86-3.75-1.52-5.54-1.92-5.17-.73-9.93,1.67-14.57.19-.36.52-.66.67-1.03.29-.74.45-1.54.78-2.25.12-.26.58-.36,1.38-.81-.35,1.5-.51,2.53-.85,3.49-.45,1.29-1.09,2.51-1.57,3.79-.32.85-.65,1.76.3,2.78.77-.66,1.46-1.28,2.19-1.86.71-.56,1.08-1.65,2.39-1.47.08.32.37.8.24,1.02-.63,1.03-1.38,2-2.08,2.98-.87,1.21-1.85,2.37-2.59,3.66-.38.66-.62,1.62-.45,2.33.72,2.85,1.62,5.65,2.55,8.76,1.38-1.17,2.19-2.41,2.94-3.69,2.73-4.62,4.92-9.42,5.73-14.81.56-3.71,2.32-6.97,4.57-9.95.46-.6,1-1.35,2.23-.66-.21.83-.32,1.76-.66,2.6-1.71,4.18-3.58,8.28-3.9,12.89-.07,1.06-.66,2.08-1,3.12-.34,1.02-.67,2.04-1.13,3.44,1.02-.09,1.83.02,2.48-.26,1.99-.83,3.86-1.98,6.56-1.96-.4.83-.52,1.56-.95,1.87-2.1,1.53-4.29,2.89-6.94,3.35-2.11.37-3.75,1.33-4.66,3.54-.66,1.62-1.75,3.11-2.85,4.49-2.22,2.77-4.36,5.62-7.21,7.84-1.73,1.35-3.09,3.31-3.75,4.84.25-.03.57.04.74-.09,3.41-2.64,7.35-4.15,11.38-5.54,3.1-1.07,6.05-2.47,8.68-4.54,2.9-2.29,5.94-4.4,8.92-6.59,1.21-.89,2.38-1.8,3.96-2.07.74-.13,1.44-.72,2.07-1.21,1.44-1.13,2.18-2.76,3.03-4.33.77-1.42,1.73-2.78,2.81-3.99.4-.45,1.19-1.28,2.3-.34-1.18,2.33-2.38,4.71-3.74,7.41,3.86-.14,7.19-.69,10.35-2.05,1.76-.76,3.51-1.53,5.28-2.27,1.37-.58,2.78-.99,4.26-.87.2,1.18-.61,1.41-1.13,1.68-5.49,2.81-11.05,5.43-17.16,6.7-5.01,1.04-9.67,2.96-13.71,6.17-.87.69-2.12,1.26-2.02,2.71,3.6,1.41,7.02-.96,10.52-.26-.12.48-.1.81-.25.96-2.82,2.78-6.2,3.4-9.84,2.19-2.42-.81-4.46-.58-6.59.83-2.98,1.96-6.34,3.17-9.69,4.39-2.57.93-5.08,2.01-7.59,3.09-.57.25-1.02.77-1.83,1.41,1.1.44,1.81.92,2.56.99,3.46.35,6.68,1.59,9.76,3,3.74,1.71,7.35,1.07,10.66-.47,4.71-2.2,9.42-2.52,14.36-1.47,5.5,1.17,10.57,3.65,15.96,5.16.3.08.49.56.83.97-2.34.42-4.48.44-6.65-.05-3.47-.78-6.94-1.59-10.44-2.18-3.1-.52-6.29-.74-9.39-.13-2.23.44-4.36,1.37-6.61,2.1.43,1.48,1.68,1.88,2.63,2.58,3.96,2.92,8.14,5.59,11.81,8.84,3.46,3.06,7.11,5.98,9.93,9.72.31.41.94.67.26,1.41-3.64-1.32-6.15-4.69-10.06-6.06-.23,2.44.99,4.24,1.37,6.22.4,2.1,1.95,3.87,1.94,6.3-3.7-3.52-5.2-7.81-5.97-12.44-.43-2.55-1.71-4.43-3.78-6.06-5.3-4.17-11.12-7.47-17.06-10.6-.66-.35-1.51-.35-2.47-.56-.09.76-.34,1.36-.18,1.79.49,1.26,1,2.55,1.75,3.67,2.86,4.23,5.24,8.64,6.24,13.71.66,3.34,1.37,6.68,2.03,10.02.03.13-.33.34-.71.71-1.3-1-2.08-2.42-2.54-3.96-.74-2.49-1.49-5-1.89-7.56-.62-4.01-2.13-7.65-4.47-10.86-1.56-2.14-2.98-4.18-3.29-6.9-.16-1.43-1.09-2.45-2.6-2.85-1.59-.42-3.12-1.06-4.72-1.42-2.88-.66-5.66-.65-7.94,1.68-.57.59-1.24,1.09-1.8,1.68-1.74,1.84-1.99,4.3-.98,6.73.67,1.62,1.2,3.34,1.51,5.07.25,1.44.14,2.98-1.44,4.03-.67-2.15-1.25-4.23-1.99-6.26-.24-.67-.47-1.67-1.71-1.45-1.1,2.66-3.14,4.74-5.06,6.83-1.91,2.08-4.19,3.83-6.19,5.61.71,2.56,1.38,4.78,1.94,7.03.81,3.26-.51,5.85-2.73,8.11-.13.13-.5.02-.99.02-.26-2.17.86-4.24.7-6.33-.16-2.11-.5-4.27-1.6-6.29-2.1.8-3.09,2.43-4.2,3.99-1.59,2.22-3.26,4.39-4.97,6.52-.38.47-1.04.73-2.04,1.4.15-1.45-.01-2.48.37-3.24,2.98-5.9,6.44-11.45,12.06-15.26,1.68-1.14,3.28-2.34,4.49-4.06-.32-.15-.53-.35-.73-.34-5.21.2-9.87,1.95-14.18,4.84-6.06,4.05-12.76,5.97-19.98,5.94-.6-.86-.3-1.47.19-1.96.9-.9,2.02-1.31,3.29-1.48,5.2-.7,10.13-2.18,14.63-5,1.73-1.09,3.64-1.91,5.51-2.73,2.5-1.1,5.04-2.07,7.88-2,2.65.06,5.14-.67,7.34-2,1.44-2.65,2.84-5.23,4.47-8.23-4.4-.43-8.37-1.06-11.82,2.21-.83.78-2.15,1.13-3.31,1.44-1.31.35-2.69.48-4.04.6-3.18.28-6.29-.28-9.37-.93-.89-.19-1.9-.67-1.22-2.25,1.38-.05,2.87-.15,4.36-.14,1.78.01,3.57.05,5.34.19,3,.23,5.69-.39,8.03-2.39,1.64-1.4,3.64-1.89,5.76-1.72,2.71.21,5.41.51,8.54.81.56-.53,1.33-1.25,2.3-2.16-.88-.57-1.28-.96-1.76-1.12-3.91-1.25-7.85-2.36-11.73-3.69-4.18-1.43-8.47-2.14-12.86-2.37-3.14-.16-6.29-.35-9.43-.34-2.17.01-4.5.14-6.21,1.58-1.84,1.54-4.22,2.31-5.64,4.53-.99,1.55-2.7,1.05-4.53-1.24,2.57-.43,3.8-2.41,5.55-4.26-.78-.2-1.42-.53-2.03-.5-3.28.17-6.55.44-9.83.66-1.91.13-3.82.29-5.74.36-.95.04-1.94-.04-2.34-1.53.97-.34,1.93-.8,2.95-1,2.14-.43,4.38-1.21,6.45-.94,2.26.3,4.25-.5,6.4-.53,6.29-.08,12.59-.37,18.88-.6.48-.02,1.15.12,1.33-.93-.57-.35-1.21-.77-1.88-1.13-1.93-1.03-3.98-1.87-5.77-3.09-1.37-.93-2.67-1.87-4.27-2.36-.77-.24-1.52-.64-2.19-1.09-.26-.17-.46-.73-.38-1.03.08-.33.48-.76.8-.83.65-.13,1.4-.2,2.01,0,1.94.66,3.84,1.36,5.37,2.89,1.04,1.04,2.31,1.96,3.65,2.57,2.52,1.15,4.86,2.48,6.38,4.79,2.22.19,4.27.29,6.3.55,2.03.26,4.05.65,6.07,1.02,1.9.35,3.61,1.85,6.12.96-.67-.84-1.16-1.44-1.64-2.06-1.09-1.4-2.2-2.79-3.26-4.21-.33-.45-.46-.98.28-1.47,5.03,1.67,7.73,5.64,9.53,10.27,1.61.44,2.92,1.23,4.58,1.06-.05-1.39-.68-2.27-1.47-3.02-2.19-2.05-4.35-4.16-6.68-6.05-2.15-1.74-4.08-3.66-5.75-5.83-3.59-4.65-7.11-9.35-10.68-14.02-.24-.32-.53-.64-.86-.85-2.85-1.77-5.95-2.48-9.3-2.44-.4,1.5-.63,2.84-1.11,4.09-.48,1.27-1.16,2.47-1.84,3.65-.72,1.28-1.86,1.95-3.35,2.05-1.91.12-3.85.14-5.72.48-1.76.32-3.23-.25-4.7-.95-.44-.21-.67-.9-1.55-.18,0,.31-.01.83,0,1.34.08,2.52-.95,4-3.26,4.32-1.2.17-2.45.01-3.68,0-1.5-.02-3.01-.13-4.51-.07-1.13.05-1.71.7-1.82,1.84-.07.68-.03,1.37-.02,2.05.04,1.93-1.01,3.08-2.73,3.65-1.15.38-2.36.59-3.44.84-.12.29-.21.41-.19.51.06.26.17.51.24.78.6,2.26.35,2.88-1.56,4-.64.38-1.69.11-1.91,1.11,1.1,1.77,2.16,3.49,3.3,5.32.78.2,1.79.29,2.61.73.92.51,1.8,1.23,2.46,2.06.7.88-.15,1.8-.31,2.71-.03.19.17.43.29.7,1.44.22,2.91.49,4.4.66,1.06.12,1.73.72,2.32,1.52.46.62.32,1.69,1.45,1.89,1.95-.35,3.96-.75,5.98-1.05.87-.13,1.79.66,2.13,1.64.25.72,0,1.31-.55,1.82-.79.74-1.51,1.55-2.33,2.25-.51.43-1.1.84-1.73,1.04-2.85.93-5.67,1.92-8.69,2.31-2.96.39-5.78,1.43-8.46,2.49-.07.5-.14.77-.12,1.03.01.27.14.53.17.8.26,2.42.08,2.95-2,3.89-1.74.79-3.61,1.28-5.39,1.96-.57.22-1.06.64-1.84,1.13,1.1.9,1.92,1.6,2.77,2.25.76.58,1.61,1.06,2.33,1.68,1.86,1.59,1.97,2.61.34,4.46-.65.74-1.39,1.31-.92,2.48.35.11.75.2,1.12.35,1.78.72,2.45,1.7,2.07,3.4-.23,1.05-.74,2.05-1.16,3.05-.35.84-.75,1.67-1.25,2.76.8.16,1.33.43,1.78.33.79-.18,1.51-.64,2.3-.87,2.95-.83,4.52.23,4.79,3.21.1,1.07.18,2.14.27,3.29,1.13-.22,2.05-.47,2.98-.57,1.66-.17,2.68.49,3.04,2.06.27,1.17.35,2.38.55,3.78,1.18.03,2.31.31,3.3.04,1.84-.5,3.76-1.04,5.33-2.05,2.7-1.75,5.53-2.11,8.62-1.96,1.48.07,2.64.56,3.7,1.46.6.51.91,1.39,2.34,1.39,1.2-.95,2.67-2.12,4.1-3.26q2.09.78,4.27-.09c.58.89,1.13,1.83,1.76,2.71,1.06,1.47,2.28,1.47,3.27.02.77-1.13,1.49-2.3,2.23-3.44,1.78-2.73,2.29-2.82,5.13-.89.2.14.47.17,1.01.34.83-1.1,1.77-2.25,2.6-3.48,1.15-1.7,2.11-3.53,4.16-4.4.45-.19.85-.72,1.05-1.2,1.23-2.89,2.33-5.83,3.59-8.7.59-1.36,1.31-2.7,2.21-3.87.42-.54,1.56-1.06,2.11-.86,2.45.89,4.58.06,6.72-.87,1.3-.56,2.62-.77,4.01-.52,1.03.18,1.9.67,1.94,1.78.05,1.35.89,2.26,1.51,3.3,1.13,1.87,2.46,3.65,3.42,5.6,1.34,2.75,3.09,5.14,5.43,7.38,2.75-.08,4.99,2.58,8.07,1.94,2.83,1.51,5.91-.6,8.66.86,2.35-2.92,5.29-3.16,8.37-2.4,2.76.68,5.46,1.63,8.42,2.53,3.5-3.16,7.75-1.85,11.77-1.22.29-.38.52-.56.6-.79,1.06-3.23,1.93-3.61,5.03-2.21.99.45,1.97,1.02,3.02,1.24.84.18,1.78-.1,2.59-.17.09-.44.17-.59.14-.71-.38-1.44-.7-2.91-1.21-4.31-.45-1.23-.6-2.35.15-3.51.72-1.12,1.82-1.03,2.91-1.11.23-.02.43-.28.88-.58.52-2.62,1.23-5.41,3.45-7.54-.27-.61-.52-1.08-.69-1.58-.62-1.74-.21-2.99,1.33-3.73.6-.29,1.35-.28,1.95-.57.95-.45,1.83-1.04,2.64-1.51.15-3.55-1.03-6.11-3.88-7.9-.66-.41-1.1-1.16-1.65-1.77.18-.63.47-1.15.45-1.66-.1-2.38,1.27-3.77,3.11-4.9.7-.43,1.43-.83,2.07-1.34,1.79-1.42,4.01-2.28,5.84-4.33Zm291.37-234.85c-.89,2.42-1.18,4.59-1.19,6.76-.02,5.61.14,11.22.16,16.82.01,3.88.76,7.62,1.95,11.27,3.31,10.16,8.52,19.18,16.02,26.86,1.91,1.95,3.5,4.23,5.49,6.07,4.02,3.73,8.4,7,13.34,9.46,1.1.55,2.22,1.05,3.33,1.59,4.18,2.06,8.5,3.8,13.1,4.53,7.75,1.23,15.56,1.1,23.34.24,1.85-.2,3.72-.14,5.6-.74,4.98-1.59,9.75-3.46,14.16-6.35,3.22-2.11,6.24-4.36,9.01-7.04,2.6-2.51,4.49-5.51,6.55-8.4,3.41-4.78,6.76-9.59,9.45-14.84,4.64-9.06,7.2-18.57,6.92-28.8-.04-1.5-.09-3.05.22-4.5.71-3.39.12-6.81.49-10.2.08-.73-.14-1.49-.24-2.44-9.38,3.01-18.8,3.55-28.24,3.5-6.71-.03-13.4.18-20.07.68-7.92.59-15.83.44-23.74.45-5.05.01-10.11-.25-15.15-.65-8.04-.63-16.1-.02-24.15-.82-5.47-.54-10.87-1.04-16.34-3.46Zm14.7-78.97c-.33.99-.72,1.85-.91,2.76-1.01,4.94-1.94,9.9-2.96,14.84-.28,1.34.22,2.32.87,3.43,2.8,4.78,4.37,10.05,5.11,15.47.59,4.32.57,8.74.6,13.11.04,5.87-.14,11.73-.18,17.6,0,.91.21,1.82.33,2.79,1.02.13,1.82.26,2.63.32,8.04.64,16.1.63,24.15.68,2.02.01,4.04.24,6.06.22,2.05-.02,4.11-.06,6.13-.35,7.09-1,14.21-.54,21.32-.7,7.52-.17,15.03.2,22.56-.53,8.03-.78,16.12-.6,24.2-.29.77.03,1.56-.18,2.42-.29-.09-1.02-.11-1.83-.24-2.64-.98-6.35-1.99-12.69-2.98-19.04-.49-3.11-.83-6.24-1.51-9.31-1.54-6.92-3.16-13.82-4.92-20.68-1.02-3.96-2.28-7.87-3.62-11.75-.97-2.82-2.24-5.54-4.28-7.77-5.06,1.83-10.19,2.57-15.38,2.91-3.41.23-6.83.26-10.25.39-4.5.18-9,.53-13.5.51-7.24-.03-14.48-.3-21.72-.46-2.05-.04-4.1.05-6.15-.05-2.13-.1-4.25-.12-6.38-.15-5.18-.08-10.4.35-15.56-.7-1.84-.37-3.78-.25-5.82-.35Zm62.4,277.59c3.28,2.83,6.9,4.61,10.73,5.31,6.22,1.15,11.83,3.21,16.46,7.63,2.14,2.05,4.66,2.64,7.6,1.8,1.68-.49,3.43-.88,5.26-.62,4.19.59,8.34,1.39,12.46,2.38,1.59.38,2.51,1.28,2.18,1.96-.55,1.1-1.65.93-2.53.84-3.52-.38-7.03-.85-10.53-1.36-2.54-.37-3.69-.34-6.49.54.93,1.29,2.39,1.82,3.44,2.82,1.63,1.55,3.51,1.92,5.69,1.29,1.3-.37,2.69-.6,4.04-.6,2.34,0,4.65.4,6.62,1.79.32.23.44.95.4,1.42-.02.27-.56.7-.87.7-1.63.02-3.27-.08-4.91-.1-.65,0-1.41-.06-1.51,1.05,4.29,2.42,7.45,6.27,11.12,9.52.5.45.94,1,1.3,1.57.9,1.41.49,2.25-1.72,3.42-2.48-2.2-5.37-4-7.7-6.58-2.27-2.52-5.26-4.13-8.83-5.91.31,1.07.39,1.56.59,2.01,1.29,2.86,2.63,5.69,3.89,8.56.36.81.31,1.63-1.07,1.9-3.18-3.53-5.12-7.87-6.53-12.4-.56-1.79-1.24-3.2-2.72-4.36-3.56-2.77-7-5.7-10.56-8.47-2.7-2.1-5.46-4.12-8.75-5.27-3.08-1.08-6.23-1.71-9.71-2.13.5,2.51,1.44,4.4,3.16,5.87,1.18,1.01,1.98,2.26,2.46,3.72.85,2.59,1.67,5.19,2.47,7.79.16.52.3,1.09.23,1.61-.07.48-.36,1.24-.69,1.32-.58.15-1.53.1-1.84-.27-.68-.81-1.12-1.85-1.53-2.84-.93-2.27-1.68-4.63-2.69-6.86-1.96-4.36-4.84-8.22-6.95-12.51-.84-1.71-2.86-2.98-5.07-3.62-.99,9.23,1.02,17.92,4.35,26.31,2.63.79,2.62.8,4.55,2.61,1.08,1.01,2.02,2.25,3.61,2.47,2.78-2.32,3.53-2.29,5.86.05,1.55,1.55,3.15,3.04,4.73,4.56,1.68,1.6,3.61,3.02,4.95,4.87,1.01,1.38,2.12,1.93,3.63,2.3,5.97,1.49,11.91,3.09,18.06,3.73,1.83.19,3.5.22,5.16-.73,3.92-2.24,8.11-2.19,12.37-1.31.8.16,1.63.46,2.41.37,3.59-.42,7.16-.97,10.83-1.99-1.4-3.88-4.51-6.37-6.41-9.76.45-.47.79-.89,1.19-1.22.48-.39,1.02-.71,1.45-.99-.51-2.32-2.13-3.5-3.39-4.9-2.49-2.79-2.54-2.77.35-5.5-.59-.39-1.1-.83-1.7-1.09-.75-.32-1.61-.4-2.34-.75-1.99-.97-2.06-2.59-.24-4.02.27-.21.51-.45.98-.85-.7-.35-1.14-.63-1.62-.81-2.31-.84-4.66-1.61-6.95-2.5-1.86-.72-2.24-1.4-2.08-3.45.05-.63.23-1.24.37-1.98-1.08-.17-1.91-.18-2.65-.45-2.15-.78-2.92-2.51-2.09-4.57.36-.89.89-1.7,1.26-2.58.64-1.53.55-2.23-.9-3.09-1.7-1.01-2.47-2.46-2.55-4.3-.08-1.77-.05-3.55.1-5.31.14-1.67.11-3.14-.87-4.69-1.51-2.37-.94-3.78,1.62-4.75,1.11-.42,2.34-.56,3.07-1.62-.29-1.28-1.5-1.13-2.24-1.65-.75-.52-1.48-1.07-2.36-1.71-.63.75-1.43,1.1-2.49.77-.75-.23-1.63-.46-2.35-.28-1.71.44-3.48.91-5.02,1.74-5.12,2.77-11.01,3.2-16.29,5.49-1.79.78-3.29-.36-3.48-2.29-.09-.95.02-1.91-.02-2.87-.02-.67.11-1.53-.24-1.99-1.62-2.14-1.93-4.76-2.73-7.31-.9-.1-1.7-.17-2.49-.27-1.8-.24-2.31-.78-2.63-2.56-.21-1.16.44-2.5-.71-3.51-1.66-.66-3.18.22-4.78.46-2.05.31-3.07-.24-3.87-2.13-.42-1.01-.65-2.09-1.07-3.1-.41-.98-.95-1.9-1.49-2.97-.73.35-1.25.52-1.67.81-.55.37-1.03.85-1.39,1.15-.98,11.4-.96,24.48.07,29.84,1.77-.86,2.64-2.37,3.29-3.99,1.03-2.56,3.08-4.14,5.21-5.64.62-.44,1.46-.89,2.36.29-.51.93-1.06,1.99-1.67,3.02-.7,1.17-1.57,2.26-2.16,3.48-1.56,3.23-3.26,6.33-6.17,8.57-.83.64-1.19,1.56-1.13,2.53.07,1.18-.23,2.48.72,3.53.4.05.83.21,1.21.14,3.08-.63,6.17-1.21,9.21-2.01,2.24-.59,4.47-1.35,6.33-2.83,4.62-3.69,10.26-4.25,15.78-5.14.67-.11,1.5.18,1.56.97.04.6-.2,1.4-.61,1.82-1.28,1.32-2.94,1.92-4.74,2.23-2.42.41-4.83.85-7.22,1.38-.72.16-1.38.64-2.54,1.21,2.7.86,4.87,1.52,7.01,2.23.64.21,1.34.4,1.84.81.35.29.54.93.54,1.41,0,.29-.44.73-.78.86-1.77.68-3.43.22-5.17-.39-4.12-1.45-8.25-2.87-12.73-1.05-1.61.65-3.48.65-5.21,1.03-.49.11-.91.5-1.66.95Zm-232.42-134.56q-3.2.04-4.55-2.81c-.35-.74-.67-1.49-.98-2.25-.69-1.68-1.83-2.99-3.1-4.15-3.16,1.48-4.19,1.55-7.12.35-1.77-.72-3.48-1.58-5.21-2.38-1.36.43-2.64.85-3.93,1.26,2.06,4.53,2.1,3.25-.44,7.93.7.7,1.4,1.53,2.23,2.19,1.08.87,1.44,1.95,1.3,3.26-.05.53-.11,1.06-.17,1.63.5.38.94.69,1.36,1.04,3.05,2.57,2.55,6.49-1.48,8.08-.13.05-.25.11-.39.14-2.75.69-4.59,2.8-7.03,4.28.48.72.78,1.33,1.23,1.8.55.58,1.23,1.05,1.86,1.58,1.57-.37,3.1-.53,4.47-1.08,3.47-1.38,6.97-1.03,10.52-.61,3.44.41,6.81,1,9.19,3.86,2.13,2.55,5.07,3.01,8.09,3.26.95.08,1.92.03,2.88-.01.19,0,.36-.27.57-.44-.7-.83-1.38-1.65-2.24-2.67-2.38.46-4.21-1-6.04-2.47-1.84-1.47-3.4-3.17-4.41-5.33-.81-1.73-1.63-3.46-2.5-5.32-1.67-.71-3.46-1.39-5.18-2.22-.96-.47-1.87-1.11-2.69-1.81-.47-.4-.89-1.06-.11-1.88,1.47.24,3.04.49,4.95.79-.57-1.06-1.04-1.73-1.27-2.47-.14-.44-.05-1.11.22-1.47.49-.68,1.31-.52,1.82-.05,1.1,1.01,2.29,2.02,3.06,3.27,1.13,1.85,2.11,3.84,2.83,5.88,1.15,3.23,3.28,5.67,5.8,7.8.8.68,1.85,1.23,2.87,1.44,1.6.33,2.7,1.22,3.71,2.37,1.05,1.19,2.13,2.37,4.05,2.8-.14-1.7-.26-3.14-.38-4.59,2.31.02,2.42.07,3,1.55.27.7-.07,1.73,1.47,1.97,2.7-2.72,5.55-5.6,8.54-8.61.18-2.22.53-4.53.53-6.84,0-4.1,1.6-7.74,2.99-11.44.29-.77,1.03-.77,1.85-.3.17,2.13-.28,4.24-.92,6.32-.48,1.56-1.12,3.1-.78,4.8.38,1.91.24,3.79-.28,5.68-.17.62-.03,1.32-.03,2.39.85-.57,1.52-.82,1.89-1.31.74-.98,1.24-2.13,1.96-3.12,2.86-3.91,4.8-8.21,5.96-12.91,1.07-4.35,4.1-7.69,6.22-11.49.29-.53.99-.83,1.46-1.21,1.19.75,1.18,1.64.7,2.58-.94,1.82-1.7,3.78-2.92,5.4-2.14,2.85-3.09,6.09-3.64,9.47-.36,2.23-1.07,4.21-2.38,6.04-1.03,1.44-1.95,2.97-2.85,4.5-.32.55-.44,1.23-.73,2.09,1.35.05,2.46.31,3.48.09,2.4-.51,4.87-.99,7.1-1.96,3.42-1.5,6.98-1.15,10.51-1.34.3-.02.77.34.89.64.12.3.03.94-.19,1.07-1.03.62-2.1,1.48-3.22,1.6-2.48.27-4.88.49-6.91,2.14-.3.24-.82.48-1.14.39-1.85-.53-3.24.89-4.92,1.05-.94.09-1.97.51-2.81.27-4.06-1.18-7.51.23-10.87,2.24-1.17.7-2.41,1.29-3.58,1.98-1.72,1.01-3.64,1.77-5.07,3.43,1.47,2.83,3.73,4.44,6.54,5.72,1.36-1.19,2.7-2.34,4.01-3.53,1.21-1.1,2.56-1.51,4.16-1.12,2.12.51,4.26.96,6.38,1.48.65.16,1.32.4,1.85.78.37.26.77.86.72,1.25-.06.44-.54,1.02-.97,1.17-.75.25-1.63.41-2.39.26-2.53-.47-5.02-1.1-7.54-1.66-.75.72-1.88,1.12-2.18,2.46,1.55,1.74,3.46,3.04,5.32,4.42,2.09,1.55,4.91,1.45,6.92,3.17.13.11.6.03.73-.12.85-.97,1.82-.55,2.64-.14,1.59.78,3.11,1.7,4.64,2.61,3.97,2.36,7.37,5.66,11.88,7.13.25.08.55.21.7.41.23.32.58.82.47,1.06-.2.43-.65.97-1.07,1.04-2.58.42-4.83-.52-6.95-1.88-.52-.33-.95-1.03-1.77-.43-.7,5.06,3.35,8.08,5.38,12.15-.62.72-1.23,1.41-1.97,2.25,3.62,2.7,6.01,6.28,7.21,10.57,2.12-.05,2.36-.18,2.46-1.39.06-.68.05-1.37.05-2.05-.03-5.06-.08-10.13-.11-15.19-.04-5.46-.07-10.93-.1-16.31-2.29-1.69-4.3-3.32-7.06-3.56-.65-.06-1.26-.54-1.91-.74-3.76-1.13-5.77-8.34-2.63-11.51,1.05-1.06,2.17-2.2,3.49-2.81,2.56-1.19,5.29-2.02,7.92-2.99,0-4.38-.02-8.73,0-13.08.01-2.05.12-4.1.18-6.16.03-1.25-.12-2.43-.98-3.46-.69-.83-1.45-1.22-2.5-.93-1.58.43-3.13.98-4.73,1.28-2.21.41-3.8-1.36-3.09-3.5.47-1.4,1.32-2.68,2.04-4.08-.22-.23-.44-.66-.78-.79-2.13-.84-2.37-2.51-1.89-4.39.33-1.29.9-2.51,1.35-3.72q-3.06-2.1-3.12-6.45c-2.02.43-3.2,2.01-4.63,3.26-1.65,1.45-2.5,1.2-3.73-.94-.17-.3-.44-.54-.85-1.03-1.23,1.12-2.3,2.16-3.44,3.11-1.01.85-1.94.8-2.92-.1-.56-.52-1.03-1.13-1.71-1.89-.66.85-1.17,1.46-1.64,2.11-1.04,1.44-1.98,2.97-3.09,4.34-1.41,1.74-2.82,1.75-4.52.23-.45-.41-.66-1.22-1.73-.88-.89,2.35-1.72,4.77-1.14,7.44.21.95.35,1.84-.16,2.78-.2.37.03,1,.12,1.5.11.66.4,1.3.41,1.96.08,5.25-1.6,10.01-4.65,14.17-3.39,4.62-12.4,6.35-16.03-2-.33-.75-.68-1.51-.9-2.3-.63-2.36-1.2-4.74-1.78-7.12Zm203.51,23.07c2.33,3.37,4.27,6.32,6.35,9.16,1.1,1.5,1.57,3.12,1.88,4.9.71,4.06.79,8.15.96,12.25.34,7.92,1.2,15.82,1.33,23.74.09,5.58.73,11.14.53,16.74-.18,4.9.32,9.83.54,14.75.17,3.79.66,7.6.49,11.37-.32,7.49-.24,15.01-1.37,22.44-.28,1.87.06,3.74-.38,5.6-.47,1.99-.7,4.04-1.13,6.04-.37,1.73-.9,3.43-1.28,5.15-.74,3.35-1.6,6.64-3.59,9.53-.54.78-.92,1.68-1.3,2.56-2.88,6.64-8.04,10.98-14.46,13.84-3.1,1.38-6.42,2.31-9.71,3.21-4.22,1.15-8.47,2.23-12.77,3.01-1.98.36-3.88.97-5.87,1.28-1.28.2-1.53,1.54-.61,2.53,1.28,1.39,2.99,1.91,4.73,2.27,1.87.39,3.77.64,5.66.89,7.18.96,14.36,1.94,21.55,2.83,3.93.48,7.8,1.37,11.79,1.47,6.02.15,12.03.52,18.04.81,4.64.22,9.28.48,13.92.66,5.19.21,10.35.32,15.56-.38,3.93-.53,7.78-1.4,11.7-1.9,3.58-.46,6.92-1.68,10.22-2.96,1.48-.58,2.83-1.65,4.05-2.72,1.34-1.18.9-3.04-.76-3.55-1.16-.35-2.4-.49-3.61-.64-1.49-.18-3.03-.11-4.49-.42-6.02-1.25-12.06-2.42-18-3.98-6.7-1.75-12.74-4.94-17.65-9.93-1.52-1.54-2.92-3.32-3.93-5.22-1.14-2.15-1.88-4.54-2.63-6.88-2.24-6.96-3.16-14.15-3.02-21.42.11-5.6-.31-11.17-.38-16.76-.07-6.7-.56-13.4-.38-20.09.21-7.93-.14-15.85-.16-23.77,0-1.21.04-2.52.51-3.58.38-.85.7-1.36-.08-2.07-.16-.15-.19-.51-.19-.77.01-4.64-.09-9.29.1-13.92.13-3.27.57-6.54,1.04-9.79.44-3.1.9-6.23,1.69-9.26,1.37-5.26,3-10.46,4.53-15.74-.29-.08-.68-.29-1.05-.27-.95.06-1.89.19-2.83.34-2.3.37-4.59.72-6.78-.43-.55-.29-.94-.22-1.48.07-.55.29-1.26.46-1.87.41-3.68-.3-7.35-.68-11.02-1.02-1.35-.13-2.7-.23-4.41-.38Zm-33.35,45.7c1.44.03,2.1-.55,2.14-1.67.02-.65-.16-1.33-.33-1.97-.68-2.55-.81-5.14-.37-7.73.3-1.74,1.99-2.61,3.39-1.73,3.46,2.17,6.86,4.43,10.33,6.68.4-.26.82-.62,1.31-.85,2.35-1.08,3.66-.73,4.7,1.5.63,1.35.94,2.84,1.34,4.28.32,1.15.55,2.32.87,3.7,1.04-.36,1.77-.7,2.53-.85,3.08-.62,4.17.29,4.4,3.51.09,1.18-.19,2.51,1.25,3.44,1.19-.35,2.47-.83,3.79-1.09,2.24-.44,4.13,1.28,3.94,3.51-.06.67-.44,1.3-.5,1.97-.08.9.49.69,1.25.37,0-2.23.07-4.55-.02-6.86-.09-2.32-.34-4.63-.52-6.95-.07-.96-.16-1.91-.22-2.87-.51-8.19-1.12-16.37-1.48-24.57-.19-4.43-2.08-8.13-4.19-11.8-1.59-2.78-4.05-4.84-6.54-6.7-3.61-2.69-7.39-5.18-11.27-7.46-3.7-2.17-7.03-4.71-9.93-7.84-1.37-1.48-2.93-2.72-4.87-3.91-.14.69-.28,1.05-.27,1.41.03,5.2.23,10.4.09,15.59-.19,7.09-.65,14.18-.95,21.27-.09,2.18-.03,4.37-.03,6.55-.01,6.7-.03,13.4-.03,20.1,0,.27.11.53.2.96ZM418.83,23.45c0,2.07-.07,3.57.01,5.06.37,7.1.77,14.19,1.19,21.29.35,5.88.24,11.76-.2,17.63-.19,2.57-.07,5.11.39,7.83,2.64-.61,5-1.26,7.39-1.7,3.49-.64,6.97-1.44,10.55-1.33,2.6.08,5.2.19,7.8.18,1.59,0,3.18-.21,4.93-.34.12-4.64-.25-8.99-.48-13.35-.17-3.28-.52-6.59-.28-9.84.6-7.9.1-15.81.46-23.71.11-2.53-.73-3.43-3.35-3.54-3.14-.13-6.26-.28-9.41.21-3.51.55-7.08.73-10.62,1.02-2.71.23-5.43.38-8.38.59Zm109.19,388.98c-.37-.25-.47-.38-.58-.39-1.35-.13-2.71-.19-4.06-.37-1.59-.22-2.96.17-4.25,1.11-1.1.8-2.25,1.56-3.43,2.25-.72.42-1.98.11-2.15-.57-.14-.57-.09-1.48.28-1.85,2.45-2.54,5.29-4.32,9.03-4.11,1.23.07,2.47.17,3.69.1,1.75-.1,2.47-.78,2.75-2.47.25-1.48.52-2.96.62-4.45.09-1.34.41-2.73-.45-4.21-2.34-.66-4.84-1.43-7.44-1.18-3.54.33-7.06.87-10.31,2.47-.86.42-1.74.82-2.64,1.14-.5.18-1.12.37-1.59.23-.58-.17-1.37-.59-1.51-1.07-.14-.48.24-1.42.68-1.7,1.03-.65,2.26-.97,3.35-1.54.66-.35,1.68-.43,1.61-1.73-.74-.43-1.58-.87-2.37-1.38-.9-.59-1.14-1.38-.66-2.05.56-.77,1.28-.9,2.16-.53,1.51.64,3.01,1.34,4.57,1.81,1.69.51,3.48,1.23,5.16,1.08,2.56-.23,4.87.32,7.24,1.02.84.25,1.75.24,2.88.38.5-6.73.21-13.15.33-19.55.01-.62-.23-1.24-.37-1.94-2.09.29-1.73,2.61-3.38,3.24-1.22-.19-2.64-.41-4.2-.65.16,1.71,1.35,2.35,2.1,3.26.99,1.21,1.72,2.51,1.68,4.08-.01.56-.46,1.11-.8,1.86-3.32-1.84-5.18-4.86-7.9-6.97-1.89.34-3.76.76-5.67.1-3.18-1.11-6.43-.87-9.89-.48-1.03,3.23-3.38,5.5-5.87,7.8.48.69.91,1.21,1.23,1.78.87,1.54,1.72,3.09,2.54,4.66.58,1.11.31,2.12-.51,3.01-.43.47-.89.91-1.39,1.43.87,1.35,1.62,2.49,2.35,3.64.66,1.04,1.36,2.06,1.9,3.16.28.58.51,1.4.31,1.95-.82,2.31-1.64,4.7-4.51,5.32-.23.05-.42.31-.58.44-.42,1.04-.82,2.03-1.12,2.77,1.22,2.02,2.32,3.85,3.42,5.67.13.05.28.16.38.13,1.17-.36,2.34-.72,3.5-1.11,2.63-.88,3.45-.54,4.4,1.96.29.76.41,1.59.69,2.35.22.59.59,1.12.92,1.74.85-.33,1.49-.57,2.11-.83.76-.31,1.49-.69,2.27-.95,1.7-.57,2.46-.1,3.13,1.59.49,1.23.07,2.78,1.21,3.69,1.98.37,3.22-.46,4.24-1.95,2.76-4.04,3.96-8.61,4.92-13.17Zm-30.87-55.51c1.28-4.15,2.83-7.78,3.29-11.73.19-1.62.43-3.25.79-4.84.09-.41.7-.88,1.14-.97.44-.09,1.21.13,1.42.47.55.91,1.02,1.92,1.24,2.95.45,2.05.05,4.05-.62,6.03-1.18,3.47-2.26,6.98-3.44,10.68,1.82,1.69,4,3.05,6.16,4.46,1.51.98,2.98,1.35,4.89,1.35,3.9,0,6.52-1.44,8.11-4.91.29-.62.46-1.34.89-1.84,1.4-1.62,2.56-3.6,5.09-3.69,1.27-.05,2.04.34,2.28,1.27.23.89-.02,1.71-.8,2.13-2.18,1.18-3.45,3.05-4.28,5.3-.44,1.21-1.23,2.16-2.36,2.74-1.75.91-3.55,1.71-5.45,2.61,1.92,2.48,3.95,4.49,7.51,3.56.88-.23,1.88-.03,2.66-.03,1.83-1.99,3.48-3.78,5.25-5.71-1.17-2.73-.39-5.58-.75-8.39-.38-2.94.02-5.97-.71-9.1-.89.31-1.61.64-2.38.81-2.01.46-3.15-.44-3.23-2.53-.02-.68.11-1.36.17-2.04.09-.93.18-1.86.29-3.06-1.24.2-2.28.34-3.3.55-2.67.56-3.86-.2-4.35-2.78-.24-1.28.1-2.68-.69-3.96-.5.2-.89.29-1.2.49-.45.3-.82.73-1.27,1.03-1.34.88-2.8.52-3.3-.98-.48-1.41-.78-2.9-.92-4.38-.17-1.75-.55-3.41-1.28-5.48-1.04,1.14-1.79,2.05-2.64,2.85-.73.69-1.98.57-2.56-.22-.4-.54-.64-1.19-.99-1.77-.49-.82-.82-1.88-1.54-2.37-2.01-1.35-3.92-2.93-6.35-3.8-.94,2.72.82,4.85,1.2,7.31-1.74,2.39-3.51,4.8-5.43,7.43.28,5.2.3,10.64.69,16,2.25,1.51,4.28,2.88,6.78,4.56Zm-266.14,44.88c0,.73-.07,1.56.01,2.37.66,6.3,3.06,11.32,9.78,13.12.26.07.51.2.75.32,2.61,1.21,5.48,1.22,8.02.43,4.5-1.41,8.92-3.02,12.59-6.41,2.47-2.28,4.25-4.97,6.01-7.67,1.49-2.29,2.14-5.01.76-7.79-.46-.93-1.01-1.6-2.04-1.8-4.58-.89-8.41-3.08-11.56-6.53-.43-.47-1.1-.78-1.72-.99-2.39-.81-4.91-.87-7.29-.32-5.05,1.16-9.2,3.9-12.64,7.8-1.9,2.16-3.09,4.46-2.66,7.48Zm185.42,14.1c4.43-2.35,5.67-6.27,6.3-10.39.37-2.41.03-4.92.25-7.36.31-3.38-2.01-5.54-3.45-8.11-.96-1.72-2.81-2.09-4.39-2.81-.98-.45-2.09-.65-3.16-.84-3.89-.67-7.71-.1-11.18,1.6-2.28,1.12-4.47,2.65-6.01,4.82-2.21,3.1-4.4,6.22-6.32,8.94,0,3.91.55,7.28-.78,10.53,2.13.38,3.98.88,5.86,1,2.57.17,4.3,1.47,5.72,3.46.85,1.19,1.82,2.29,2.84,3.57,1.35-.91,2.42-1.74,3.6-2.4.94-.52,1.96-1.05,3-1.2,2.56-.38,5.15-.56,7.73-.81Zm-50.45,42.89c.74-3.47-.6-6.15-3.07-8.42-.5-.46-.94-1-1.38-1.51-1.24-1.45-2.8-2.03-4.71-1.99-2.89.06-5.66.77-8.46,1.36-3.38.71-5.96,2.58-8.2,5.06-.09.1-.21.18-.3.28-3.24,3.19-4.48,7.15-4.07,11.56.29,3.15,1.45,6.12,2.97,8.88,1.34,2.44,3.21,4.16,6.17,4.85,5.65,1.31,10.81.45,15.71-2.52,2.25-1.37,4.24-3,5.48-5.36.89-1.7,1.73-3.65.88-5.45-1.04-2.22-1.32-4.4-1.02-6.72Zm65.87-.81c.72.46,1.26.87,1.85,1.17,3.18,1.59,6.4,2.78,10.13,2.36,4.54-.51,8.82-1.87,12.88-3.75,4.55-2.11,7.6-6.59,6.47-11.97-.25-1.2-.45-2.44-.4-3.65.13-3.25-2.64-4.91-3.85-7.41-.6-1.24-1.75-1.12-2.64-1.55-2.08-1-4.22-2.23-6.44-2.51-5.3-.65-10.63-.63-15.36,2.98-.31,2.27.08,4.87-1.69,6.88-1.54,1.76-1.4,3.77-.85,5.79.77,2.83.73,5.63.09,8.48-.23,1.03-.14,2.12-.2,3.18Zm-96.56-7.26c-1.93-2.48-3.99-4.41-6.83-5.78-3.07-1.47-6.04-2.39-9.41-1.92-.54.07-1.09.1-1.63.07-4.5-.21-8.23,1.31-11.08,4.87-.51.64-1.22,1.11-1.7,1.76-.96,1.31-1.98,2.62-2.72,4.06-2.53,4.93-.47,12.76,3.91,16.37,3.1,2.55,6.64,3.65,10.57,3.36,2.03-.15,4.06-.55,6.04-1.03,1.84-.45,3.76-.65,5.41-1.78,1.79-1.22,3-2.53,2.79-4.99-.32-3.74.68-7.3,2.24-10.69.68-1.47,1.57-2.83,2.41-4.31Zm-166.88-61.74c1.66-.71,2.97-1.14,4.15-1.8,2.71-1.54,5.67-2.86,6.25-6.51.12-.74.79-1.4,1.22-2.09.35-.57.92-1.1,1.04-1.71.89-4.4.84-8.71-1.77-12.62-.28-.41-.75-.82-1.22-.96-2.99-.93-5.28-2.78-7.16-5.21-.81-1.05-1.8-1.6-3.17-1.55-.81.03-1.63-.2-2.44-.27-3.68-.31-7.11.16-9.68,3.23-.34.41-.93.6-1.31.98-2.53,2.6-4.7,5.46-4.71,9.28-.01,4.16.61,8.2,3.38,11.59.34.42.7.88.85,1.38.85,2.82,3,3.44,5.61,3.93,3.01.57,6.25.39,8.97,2.34Zm95.15,27.18c-3.82,2.84-7.74,4.31-11.71,5.73-1.74.62-3.98.11-5.2,2-1.03,1.6-2.03,3.21-2.93,4.88-.52.95-.76,2.05-1.24,3.03-1.76,3.58-1.8,7.38-1.47,11.22.07.8.23,1.63.53,2.37,3.53,8.79,14.98,10.33,20.29,6.16,1.82-1.43,3.55-2.97,5.31-4.49,3.18-2.75,4.71-6.52,6.53-10.09-8.41-6.54-10.32-10.38-10.1-20.8Zm65-43.08c-.18,2.02-.37,3.78-.49,5.55-.29,4.05-1.98,7.32-5.22,9.81-1.38,1.06-2.63,2.29-4.04,3.54.4.72.63,1.39,1.06,1.87,1.63,1.83,3.37,3.57,5,5.41,2.92,3.29,6.57,4.8,10.94,4.61,2.46-.1,4.93-.12,7.38-.35,3.9-.37,6.7-2.4,7.93-6.13.85-2.59,1.36-5.29,1.88-7.98.2-1.05.26-2.23-.01-3.25-1.38-5.16-3.92-9.55-8.5-12.62-2.16-1.45-4.61-1.98-6.99-1.93-2.96.07-5.9.93-8.95,1.47Zm-153.44,28.75c2.42,3.41,5.12,6.5,8.25,9.09,1.62,1.34,3.85,1.99,6.16,1.65,1.74-.26,3.49-.49,5.25-.63,2.75-.23,5.46-.66,7.69-2.4,2.66-2.08,4-5.13,5.58-7.99.12-.22.14-.53.14-.8-.06-2.46-.02-4.94-1.16-7.21-1.03-2.06-2.17-4.06-3.24-6.06-2.28-.2-4.1-1.08-5.77-2.32-2.32-1.72-4.85-2.91-7.66-3.66-2.19-.58-4.27-.83-6.54.1-.69.85-1.51,1.76-2.21,2.75-2.37,3.33-5.45,5.68-9.35,6.95-.11.04-.12.42-.22.83,1.09.2,2.14.4,3.19.59,2.41.44,3.51,2.21,2.56,4.43-.64,1.49-1.59,2.84-2.65,4.68Zm130.1.27c.05-4.3-1.49-9.34-4.09-12.61-1.53-1.93-3.36-3.59-5.87-4.24-.92-.24-1.83-.56-2.74-.81-4.82-1.35-5.12-1.4-9.17,1.31-2.59,1.74-5.11,3.63-6.7,6.47-2.07,3.68-2.23,7.52-1.18,11.5,1.39,5.26,3.98,9.59,9.35,11.6,4.48,1.67,8.96,2.61,13.22-.72,4.09-3.2,7.57-6.72,7.18-12.49Zm-107.54-108.73c-3.4.02-9.99,1.76-13.3,3.33-1.49.71-2.8,1.49-3.91,2.82-4.94,5.9-4.18,14.08.17,20.06.24.33.5.67.82.91,1.53,1.14,2.98,2.49,4.67,3.31,2.97,1.43,6.04,2.53,9.33.54,1.5-.91,3.24-1.44,4.83-2.21,4.7-2.28,7.13-6.11,7.57-11.27.42-4.95-1.15-9.38-3.53-13.59-1.52-2.69-3.62-4.42-6.64-3.89Zm149.9,49.34c.78,2.33,1.44,4.26,2.07,6.21,1.23,3.83,3.58,6.66,7.23,8.48,9.13,4.56,18.2-.06,20.1-9.59.61-3.06.63-6.23.88-8.98-1.73-3.05-3.64-5.18-6.49-6.6-1.61-.8-3.3-1.9-4.03-3.92-.55-1.52-2.13-2.29-3.53-2.57-2.12-.42-4.39-.62-6.51-.31-2.31.35-4.15,1.59-5.23,4.08-1.87,4.29-3.17,8.74-4.49,13.21Zm25.88,105.84c-.39.8-.98,1.74-1.32,2.77-1.52,4.62-2.47,9.25-.24,13.97,1.75,3.7,4.2,6.48,8.01,8.39,3.46,1.73,6.88,2.62,10.64,2.25,3.57-.36,6.54-1.67,8.05-5.34.69-1.67,1.25-3.31,1.46-5.09.91-7.8-2.07-14.15-7.42-19.54-1.27-1.27-3.05-2.17-4.81-2.01-3.37.29-6.83.48-9.85,2.43-1.23.8-2.65,1.3-4.5,2.18Zm-191.31-121.24c-.68.35-1.13.67-1.64.84-4.22,1.41-7.08,4.42-9.49,7.98-1.1,1.63-1.53,3.38-1.52,5.39.02,5,1.86,9.32,4.63,13.3,1.26,1.81,3.05,3.18,5.1,4,7.78,3.12,16.97-2.15,18.81-9.03.73-2.72,1.73-5.51.64-8.42-1.16-3.11-1.55-6.33-1.48-9.64.01-.6-.31-1.21-.55-2.06-5.27,1.63-9.93.57-14.51-2.37Zm145.58,41.39c1.54-.32,3.09-.39,4.41-.99,2.07-.93,4.17-1.26,6.38-1.06,2.34.21,3.85-.86,4.99-2.8,2.14-3.66,3.07-7.43,2.29-11.74-.7-3.85-2.82-6.76-5.19-9.57-1.62-1.91-4.25-1.58-6.39-2.38-.25-.09-.54-.07-.81-.14-5.77-1.5-11.02-.23-15.95,2.93-4.96,3.18-6.59,6.91-5.45,12.76,6.98,2.15,11.96,6.77,15.72,12.99Zm-136.9-5.82c-.89,5.9.89,10.91,5.15,15.13,3.77,3.73,8.54,5.13,13.58,5.99,2.1.36,3.92-.31,5.24-1.72,2.54-2.71,4.49-5.92,4.91-9.65.57-5.08.13-10.07-2.47-14.69-1.2-2.12-2.68-3.69-5.08-4.43-3-.92-5.91-2.09-8.27-4.3-.27-.25-.75-.26-1.16-.39-.7,1.53-1.41,3-2.05,4.5-1.55,3.63-3.83,6.56-7.57,8.18-.74.32-1.4.84-2.26,1.37Zm10.63-35.51c0,2.62-.2,4.96.04,7.24.57,5.3,3.21,9.5,7.53,12.59,3.07,2.19,6.65,2.2,10.23,2.18,1.85,0,3.46-.59,5.01-1.54,2.67-1.63,4.22-4.09,5.8-6.71,3.13-5.17,2.45-10.13-.97-14.5-3.65-4.65-8.55-7.55-14.85-7.16-1.07.07-2.16,0-3.17,0-2.83,3.07-5.65,6.01-9.62,7.88Zm203.32,140.13c2.07.98,4.18,1.36,6.38.85,2.13-.49,4.24-1.04,6.34-1.62,3.31-.9,5.86-2.65,7.48-5.86,1.07-2.13,1.48-4.36,2.13-6.59.76-2.65.57-5.18-.26-7.65-1.07-3.17-2.74-6.05-6.05-7.39-6.41-2.6-13.01-3.05-19.72-1.28-.51.13-1.07.35-1.42.71-1.21,1.23-2.62,2.29-3.62,3.72.44.63.68,1.16,1.08,1.51,2.1,1.82,3.61,4.11,4.96,6.47,1.84,3.23,3.25,6.58,2.74,10.51-.27,2.14-.05,4.34-.05,6.63Zm-112.18-152.97c-1.69,1.09-3.23,1.78-4.38,2.89-1.86,1.79-3.36,3.94-5.19,5.77-2.04,2.03-2.28,4.62-2.33,7.16-.05,2.57.29,5.17.63,7.73.24,1.75.7,3.54,2.03,4.81,2.09,1.99,4.43,3.61,7.32,4.31,3.44.84,6.82.45,10.09-.59,2.7-.86,4.57-2.78,5.82-5.41.98-2.06,1.15-4.18,1.31-6.36.43-5.91-1.04-11.05-6.01-14.75-.54-.4-1.13-.74-1.71-1.1-1.5-.93-2.98-1.88-4.5-2.78-.92-.55-1.88-1.04-3.08-1.69Zm14.02,2.59c1.59-2.45,4.09-3.76,6.71-5.01,1.82-.86,3.56-2.14,4.95-3.6,2.39-2.53,4.37-5.48,3-9.2-.8-2.15-1.73-4.53-3.32-6.05-1.93-1.83-4.01-3.62-6.23-5.17-.43-.3-1.01-.4-1.54-.53-4.6-1.16-9.21-1.24-13.81-.08-1.47.37-2.93.86-3.54,2.46-.53,1.41-1.63,2.11-2.95,2.63-.64.25-1.18.72-1.93,1.19,1.93.46,3.52.82,5.1,1.22.39.1.8.23,1.14.43.74.45,1.23,1.07,1.13,2.01-.09.91-.54,1.66-1.44,1.74-1.42.13-2.85.03-4.48.03,1.53,3.95,2.94,7.59,4.44,11.46,3.59,2.76,8.52,3.52,12.78,6.44Zm-31.28,14.78c-3.16,1.18-5.89,1.13-8.36-.31-1.9-1.11-3.65-.84-5.46-.12-4.66,1.85-8.06,5.27-10.08,9.65-3.21,6.93-.64,13.89,5.05,17.14,1.8,1.03,3.35,1.1,5.38.27,4.78-1.96,9.74-2.63,14.68-.25.56.27,1.19.38,2.12.67-.35-4.26,2.15-7.07,4.3-10.24-5.98-3.93-6.99-10-7.61-16.82Zm-96.85,114.53c2.01,3.24,2.53,6.74,2.72,10.15,2.55,2.46,3.63,3.3,5.9,3.92,4.2,1.15,8.41.84,12.57-.32.39-.11.8-.28,1.09-.54,2.62-2.32,4.8-4.94,4.89-8.65.07-2.59.07-5.21-.19-7.79-.43-4.25-2.16-7.9-5.78-10.42-2.53-1.76-5.4-2.63-8.44-2.88-1.43-.12-2.92-.44-4.24.18-.04.53-.14.83-.06,1.06.7,1.98.05,3.46-1.65,4.56-.91.59-1.85,1.14-2.77,1.72-.92.58-1.83,1.17-2.7,1.72q.87,3.1-1.33,7.29Zm21.37-30.92c1.79,3.91,4.27,7.06,7.35,9.87,3.28,2.99,6.97,4.11,11.3,3.57,2.65-.33,4.89-1.58,7.11-2.9,2.21-1.31,3.59-3.33,4.5-5.67.39-1.01.57-2.09.9-3.35-.55-.95-1.18-2-1.77-3.07-1.93-3.47-3.7-6.98-3.59-11.11.02-.92-.08-1.85-.11-2.61-4.34-2.83-8.6-4.73-13.62-2.8-.24,8.62-4.57,14.39-12.06,18.08Zm107.32-26.03c.89,0,1.73.15,2.5-.03,2.95-.66,5.7-1.91,8.25-3.47,2.35-1.43,4.55-3.27,4.97-6.21.34-2.42.32-4.89.29-7.34,0-.92-.3-1.93-.76-2.73-1.94-3.37-4.62-5.98-8.07-7.91-1.93-1.08-3.97-.8-5.93-1.33-4.4-1.19-9.24.69-11.85,4.41-2.69,3.82-2.92,7.96-1.07,12.05.95,2.09,1.97,4.37,4.71,5.22,1.94.61,3.37,2.28,4.6,3.97.79,1.1,1.56,2.21,2.37,3.37Zm53.24,49.6c-1.59-4.63-3.86-8.94-3.16-13.74-1.18-.95-2.24-1.62-3.08-2.5-1.88-1.99-4.3-2.96-6.84-3.43-4.11-.76-8.21-.86-11.65,2.22-.3.27-.63.56-1.01.7-3.03,1.15-3.86,3.67-4.07,6.54-.12,1.62-.21,3.26-.11,4.88.32,5.57,3.92,9.13,7.84,12.44.65.54,1.51.58,2.33.18.74-.36,1.49-.67,2.22-1.05,4.99-2.57,10.29-3.34,16.04-2.66.49-1.18,1-2.42,1.49-3.58Zm-100.57-138.29c-1.91-6.03-5.09-10.03-11.5-11.15-3.63-.63-6.85-.05-9.89,1.59-5.5,2.96-8.1,8.15-7.03,13.12.92,4.26,2.95,7.92,5.92,11.03.7.73,1.86,1.25,2.88,1.42,3.25.54,6.48.64,9.75-.33,2.97-.87,4.66-2.43,5.03-5.6.18-1.58.88-3.14,1.6-4.59.9-1.82,2.06-3.52,3.23-5.49Zm11.93,88.64c.55-.37.82-.48.99-.68,2.53-2.89,5.13-5.67,8.58-7.54,1.63-.88,2.02-2.71,2.04-4.26.04-2.71-.23-5.45-.67-8.14-.47-2.86-1.92-5.06-5.04-5.75-1.47-.32-2.87-.93-4.35-1.19-3.91-.68-7.62-.19-10.83,2.36-1.18.93-2.2,2.05-3.37,3-2.58,2.1-3.36,4.89-3.1,8.04.16,1.9.5,3.79.87,5.66.16.78.49,1.6.98,2.23,2.88,3.71,6.29,6.45,11.39,6.05.8-.06,1.62.15,2.5.24Zm112.06,49.99c.78-1.06,1.56-2.57,2.73-3.66,4.16-3.87,2.91-8.51,1.8-12.96-.46-1.87-1.88-3.5-3.56-4.86-2.83-2.29-5.94-2.62-9.25-1.99-4.4.83-7.94,3.54-11.67,5.77-.32.19-.58.59-.74.95-.99,2.29-1.57,4.66-1.02,7.17.68,3.1,1.93,5.96,3.92,8.45.59.73,1.27,1.47,2.07,1.93,2.1,1.23,4.29,2.3,6.05,3.24,3.41-1.43,6.42-2.68,9.67-4.04Zm-237.68-76.59c.36-.53.78-1.06,1.12-1.64,2.25-3.81,5.77-6.08,9.61-8.02,2.41-1.21,4.84-1.84,7.52-1.24.85.19,1.62.06,2.31-.9-1.99-3.41-1.69-7.44-2.13-11-2.61-.98-4.89-1.84-7.19-2.68-.51-.19-1.04-.36-1.58-.4-8.99-.72-16.41,1.99-21.56,9.77-.96,1.44-1.32,2.96-1.29,4.65.03,2.03,1.13,3.53,2.11,5.21,2.41,4.13,5.6,6.65,11.07,6.24Zm236.47,48.17c1.34-1.19,1.44-2.27,1.49-3.38.26-5.61-2.25-10.29-4.92-14.94-1.79-3.1-4.38-4.35-7.92-3.56-.67.15-1.35.22-2.03.28-3.12.29-5.8,1.68-8.1,3.66-3.5,3.01-5.41,6.81-5.02,11.56.34,4.23,2.07,7.9,4.56,11.24.46.62,1.18,1.04,1.8,1.57,5.8-5.51,12.42-7.93,20.15-6.45Zm-157.26-40.34c3.52,2.11,6.68,2.5,10.05,2.44,3.88-.06,6.44-1.91,8.33-5,.63-1.04,1.17-2.19,1.46-3.36.65-2.64,1.15-5.32,1.66-7.99.1-.52.08-1.1-.06-1.61-.53-1.97-1.09-3.94-1.72-5.88-.21-.63-.58-1.27-1.04-1.74-2.66-2.68-5.49-4.99-9.73-3.88-1.3,1.69-2.6,3.44-3.96,5.13-1.48,1.83-3.18,3.33-5.58,3.94-1.27.32-2.46.99-3.91,1.6,3.29,5.23,4.06,10.88,4.51,16.36Zm251.01-177.33c-.02,1.83,1.07,2.31,2.02,2.69,1.39.56,2.86.91,4.31,1.29,4.02,1.06,8.17.88,12.26.93,7.11.08,14.2.08,21.32.55,6.81.45,13.69.15,20.53.04,4.1-.06,8.2-.43,12.3-.58,1.63-.06,3.27.18,4.89.09,4.92-.29,9.83-.86,14.75-.97,7.39-.17,14.77-.43,22.12-1.24,2.56-.28,5.07-.95,7.59-1.5.69-.15,1.23-.59.83-1.64-.44-.08-.95-.16-1.46-.28-3-.67-5.98.2-8.98.12-4.37-.11-8.75-.13-13.12.03-10.65.37-21.29.92-31.94.49-.68-.03-1.37-.01-2.05.02-7.37.32-14.72,1.35-22.13.66-.4-.04-.82.09-1.23.08-4.52-.09-9.03-.14-13.55-.31-5.74-.22-11.48-.65-17.22-.78-3.67-.08-7.36-.28-11.24.31Zm-192.45,121.27c-.28-2.3-.57-4.6-.82-6.91-.25-2.23-1.52-3.84-3.3-4.96-2.74-1.72-5.74-2.45-9.01-1.72-5.38,1.2-8.85,4.5-10.98,9.52-1.53,3.62-1.19,6.96.87,10.15,1.9,2.92,4.47,5.13,7.67,6.59,1.84.84,3.75.72,5.65.46,1.12-.16,2.01-.72,2.3-2.01.52-2.32,1.82-4.23,3.38-6,1.35-1.53,2.61-3.14,4.25-5.11Zm55.3,9.9c-1.24-.86-2.45-1.37-3.15-2.27-1.43-1.84-3.43-2.6-5.41-3.52-3.03-1.41-6.28-1.76-9.51-2.24-2.06-.31-4.07-.26-6.01.67-.73.35-1.54.53-2.32.8-2.52.85-3.31,2.16-2.62,4.63.48,1.7,1.31,3.31,1.71,5.02.42,1.82.44,3.74.76,5.59.27,1.5.48,2.95-.02,4.45-.15.46-.02,1.01-.02,1.84.86-.18,1.53-.19,2.07-.45,1.71-.83,3.3-1.95,5.07-2.6,4.68-1.71,9.47-2.64,14.43-1.15,1.04.31,2.13.52,3.21.64.92.1,1.85.02,2.87.02.2-.87.6-1.68.52-2.44-.21-2.15-.15-4.39-1.38-6.34-.54-.85-.82-1.74-.21-2.64Zm179.69,108.04c-1.21-.85-2.35-1.38-3.09-2.24-.86-.99-1.37-2.28-2.02-3.43-1.35.48-2.49.95-3.67,1.28-1.21.33-2.19-.07-2.79-1.15-.53-.95-.87-1.99-1.31-2.99-.32-.72-.66-1.42-1.09-2.36-1.57.54-2.94,1.05-4.34,1.48-1.73.53-3.29-.22-4-1.9-.21-.5-.31-1.05-.46-1.57-.57-1.97-1.95-3.08-3.82-3.92-.32,2.44-.76,4.6-.86,6.76-.37,7.91-1.22,15.73-3.72,23.49,1.74.54,3.27-.39,4.82-.61,2.14-.3,4.25-.97,6.3-1.68,2.83-.97,5.63-2.09,8.4-3.22,2.14-.88,4.32-1.72,6.31-2.88,2.11-1.23,4.21-2.59,5.35-5.06Zm-210.74,7.65c.76-1.47.85-2.8.65-4.18-.58-3.87-2.12-7.36-4.41-10.48-1.61-2.19-3.86-3.46-6.69-3.35-1.5.06-3.02.11-4.5.35-.91.15-1.97.44-2.61,1.05-1.79,1.68-3.68,3.36-5,5.39-1.67,2.56-2.41,5.56-1.13,8.6,1.41,3.33,3.58,6.1,6.58,8.2,3.49,2.45,8.28,2.12,11.13-1.05,1.76-1.96,3.57-3.76,5.98-4.52Zm-80.8-145.19c.35-.31.75-.66,1.14-1.02,1.91-1.74,3.74-3.59,5.76-5.2,2.56-2.05,5.26-3.88,8.54-4.71,1.37-.35,1.77-1.24,1.41-2.52-.48-1.7-1.05-3.39-1.7-5.04-.66-1.7-1.78-3.15-3.34-4.06-3.71-2.17-7.58-3.82-12.07-3.06-1.2.2-2.42.23-3.68.34-1.08,1.5-2.22,2.88-3.13,4.38-2.84,4.65-3.27,9.41-.58,14.34,1.71,3.14,4.03,5.46,7.64,6.56Zm-34.93-6.01c.41-2.48-.37-4.43-1.81-5.91-3.92-4.02-8.68-6.09-14.4-5.29-1.48.21-3,.48-4.37,1.04-2.96,1.23-5.58,3.15-7.07,5.97-1.7,3.2-2.02,6.82-1.08,10.35,1.15,4.34,4.19,7.14,7.94,9.23,1.6-1.18,1.85-2.88,2.53-4.34,1.6-3.47,3.94-6.14,7.54-7.75,3.38-1.52,6.86-2.6,10.73-3.3Zm117.5,137.78c.79-.98,1.22-1.35,1.46-1.82,1.77-3.42,4.87-5.52,7.87-7.6,1.85-1.28,3.99-2.24,6.41-2.5,3.83-.4,4.3-1.07,4.27-4.9,0-.67-.24-1.33-.27-1.53-2.82-2.12-5.49-3.8-7.75-5.93-2.25-2.12-4.07-4.69-6.14-7.13-1.97-.28-3.63.72-5.1,1.94-.53.44-1.05,1.54-.86,2.1.94,2.74-.04,5.38-.33,8-.18,1.67-1.1,3.4-2.12,4.79-1.57,2.13-3.51,3.98-5.44,6.12,3.33,1.99,5.91,4.7,8,8.47Zm-138.2-118.32c-2.66-.52-4.95-.36-6.85.64-3.51,1.85-6.55,4.45-8.94,7.66-.69.94-1.25,2.27-1.2,3.39.08,2.15.41,4.36,1.05,6.42,1.37,4.4,5.46,7.69,10.12,8.43.74-1.08,1.45-2.25,2.29-3.31.92-1.16,1.87-2.34,2.98-3.31,1.02-.88,2.4-1.35,3.41-2.24,1.14-1,2.93-.32,4.17-1.72-5.02-4.21-6.11-9.97-7.03-15.98Zm315.59-119.61c.16-1.41.37-2.48.39-3.56.09-5.07.07-10.13.19-15.2.18-8.12-.8-16.06-3.42-23.77-.05-.15-.41-.2-.82-.38-1.89,3.28-1.91,7.05-2.76,10.57-.87,3.58-1.51,7.22-2.14,10.86-.65,3.76-1.24,7.53-1.75,11.3-.48,3.59-1.68,7.1-1.37,11.07,3.91-.3,7.55-.58,11.7-.89Zm-260.5,111.15c-5.84-4.43-10.67-4.65-15.46-.91.42,2.83,1.04,5.66,1.21,8.51.17,2.8-.12,5.62-.22,8.65,8.05-.66,15.07,1.11,20.39,7.24,1.59-1.05,1.92-2.52,2.45-4-2.75-2.93-4.74-6.28-6.44-9.89-1.14-2.43-1.99-4.76-1.81-7.45.05-.67-.08-1.36-.13-2.15ZM416.3,20.6c1.77-.13,3.26-.19,4.75-.36,2.86-.32,5.7-.74,8.56-1.03,1.34-.13,2.72.03,4.07-.07,4.36-.33,8.72-.77,13.09-1.06,1.35-.09,2.72.2,4.08.28.63.04,1.27,0,2.16,0,.3-3.31,1.36-6.38-.69-8.99-12.29.5-24.29.99-36.5,1.5-1.24,3.09-1.21,6.2.5,9.73Zm-137.64,417.5c-.57.65-1.01.99-1.23,1.44-1.58,3.21-2.36,6.66-2.72,10.19-.3,2.97.69,5.61,2.39,8.04,1.52,2.17,3.52,3.78,5.66,5.25,3.66,2.52,7.46,1.88,11.25.34,1.27-.51,1.89-1.46,1.84-2.87-.04-1.22-.05-2.45.07-3.67.13-1.33.44-2.63.69-4.1-1.47-.27-2.83-.35-4.06-.79-4.37-1.55-7.87-4.27-10.39-8.19-1.15-1.8-2.25-3.63-3.5-5.65Zm82.6-130.53c-2.43-.9-4.77-1.41-6.72-2.57-4.44-2.64-9.15-4.88-13.22-8.14-.34-.27-.74-.91-1.33-.27,0,.28-.1.59.01.8,1.29,2.4,2.6,4.78,3.93,7.16.2.35.46.68.74.97.28.3.63.52.93.8,2.99,2.82,5.74,5.84,7.6,9.56.61,1.21,1.35,2.35,2.1,3.63,5.64-.4,10.38,1.75,14.65,5.2.53.43,1.08.84,1.68,1.17.57.31,1.22.68,1.93-.22-.99-1.69-2.24-3.36-3-5.22-.81-1.99-1.17-4.16-1.74-6.31-1.16-.72-2.26-1.55-3.48-2.15-2.04-1.01-3.71-2.28-4.08-4.41Zm67.25,131.17c.43-1.6.84-2.48.88-3.37.06-1.62.17-3.33-.24-4.87-.6-2.2-1.48-4.27-3.42-5.89-5.02-4.19-10.69-4.57-16.58-2.94-2.52.7-4.47,2.67-5.15,5.39-.39,1.55-.44,3.19-.71,5.29,4.52-.17,8.84-.91,13.12.32,4.2,1.21,8.17,2.78,12.1,6.06Zm-145.43-142.84c-.94-1.1-1.84-1.93-2.47-2.94-1.15-1.84-2.78-2.86-4.74-3.66-1.62-.65-3.29-1.46-4.6-2.59-2.75-2.38-6.13-3.48-9.17-5.15-2.95.83-3.83,3.4-5.32,5.63,1.74,1.62,2.93,3.34,3.39,5.82.36,1.95,1.48,3.98,2.94,5.63.84-.28,1.5-.43,2.11-.71,3.65-1.64,7.36-1.76,11.15-.51,1.03.34,2.08.72,3.14.86.58.08,1.31-.18,1.82-.52.55-.36.93-.98,1.74-1.88Zm74.36,86.23c4.37-1.54,5.52-5.51,7.16-9.05,1.36-2.93.74-5.83-.35-8.76-2.36-.45-4.71-.64-6.86-1.39-2.26-.79-4.34-2.12-6.66-3.31-1.1,3.26-2,6.41-4.18,8.92,2.1,2.06,4.32,3.89,6.08,6.08,1.77,2.2,3.08,4.76,4.81,7.52Zm-35.19-70.59c5.7.52,10.98,1.76,15.42,5.28,4.42,3.51,6.71,8.35,8.17,13.7,1.86-3.04,3.63-5.92,5.42-8.84-1.49-3.92-2.93-5.84-6.1-8.34-.63-.49-1.24-1.12-1.6-1.82-.82-1.61-2.11-2.48-3.81-2.82-1.46-.3-2.99-.4-4.4-.86-3.61-1.17-7.04-.07-10.49.63-1.26.25-2.23,1.04-2.61,3.07Zm-86.93,108.47c-1.13,2.03-1.99,3.9-3.15,5.55-1.01,1.43-2.14,3.05-3.62,3.82-3.33,1.74-6.5,4.11-10.56,4.01-.17,0-.34.35-.59.63,1.61,2.74,4.14,4.23,7.18,4.72,3.24.52,6.54.51,9.78-.21.62-.14,1.17-.61,1.69-.89.36-2.76,1.35-5.15,2.11-7.62.84-2.74,3.06-4.47,4.22-7.07-2.45-1.02-4.77-1.99-7.06-2.95Zm91.29,18.64c-1.32-6.45-.27-12.51,2.56-18.4-2.92-.99-5.45-.28-7.57,1.15-3.15,2.13-6.02,4.65-8.49,7.6-1.08,1.28-1.38,2.48-.72,4.11.6,1.48.81,3.13,1.24,4.87,4.14.21,8.31.43,12.99.67Zm-54.75-28.74c-4.02,4.68-3.78,9.74-2.57,14.69,1.12,4.59,4.84,7.01,8.98,8.83.98-2.33,1.65-4.58,2.83-6.52,1.25-2.06,2.97-3.82,4.41-5.61-2.57-1.38-5.11-2.7-7.6-4.09-2.75-1.53-3.79-4.56-6.04-7.3Zm-97.99-3.31c-1.58.94-3.19,1.9-4.83,2.87.11.54.16.93.28,1.3.66,1.98.13,3.43-1.78,4.39-.93.47-1.77,1.13-2.86,1.84.51.6.77,1.2,1.17,1.31.62.17,1.34.04,2.01-.01,2.05-.17,3.39.69,4.06,2.64.07.21.37.35.57.52.27.05.53.12.8.14,2.14.09,3.69.8,5.09,2.73,1.24,1.71,3.45,2.75,5.58,4.03.36-1.22.91-2.14.83-3.01-.21-2.29-.5-4.61-1.13-6.81-.55-1.91-1.43-3.66-3.39-4.83-1.31-.78-2.78-1.92-3.04-3.68-.29-1.94-1.69-2.63-3.34-3.43Zm131.03-51.79c-1.33-3.39-1.46-3.49-4.3-3.19-1.49.16-2.97.45-4.46.62-2.33.26-4.59.07-6.69-1.16-1.17-.68-2.18-.53-2.84.4-.94,1.34-1.88,2.69-2.66,4.12-1.4,2.58-1.67,5.14.33,7.64,1.46,1.82,2.66,3.76,3.01,6.19.23,1.61.96,2.2,1.61,1.9.97-.46.7-1.36.8-2.13.52-3.79,2.07-6.93,5.1-9.46,2.99-2.5,6.13-4.49,10.1-4.94Zm208.27,108.27c2.7,1.04,5.53,1.24,8.34,1.54,7.07.77,14.13,1.61,21.21,2.18,3.67.3,7.39.08,11.09.11,3.8.03,7.59.4,11.41.06,4.36-.39,8.76-.43,13.1-.92,3.8-.43,7.57-1.17,11.3-2.01,2.93-.66,5.72-1.91,8.66-2.49,4.02-.8,5.98-3.51,7.28-6.98.21-.55.35-1.34-.6-1.58-1.03,1.45-1.9,2.99-3.08,4.26-1.73,1.87-4.16,2.56-6.55,3.2-9.79,2.66-19.69,4.54-29.89,4.69-7.8.11-15.59.07-23.36-.56-3.13-.25-6.26-.6-9.39-.8-4.23-.26-8.46-.44-12.7-.63-2.27-.1-4.53-.62-6.83-.08Zm-61.75-385c-6.3-1.91-24.86-.72-31.94,1.94-.11,1.39-.43,2.85.44,4.43,1.18-.3,2.34-.63,3.53-.9,3.17-.73,6.32-1.53,9.65-.96,1.31.23,2.72,0,4.08-.11,1.49-.13,2.92-.21,4.43.16,1.42.35,2.98.2,4.48.19,1.59-.01,3.22.17,4.89-.37.16-1.51.29-2.83.45-4.39Zm-71.41,291.92c-1.74,2.16-3.26,3.91-4.61,5.78-.79,1.1-1.47,2.33-1.91,3.6-.58,1.67-.67,3.43.31,5.18,1.16.06,2.54.57,3.25.09,2.63-1.77,5.7-1.66,8.58-2.38.28-.83.79-1.59.76-2.34-.1-2.54-.39-5.08-.62-7.69-1.84-.72-3.71-1.45-5.75-2.24Zm-166.79-86.27c0-1.69-.13-3.06.04-4.4.16-1.34.67-2.63.93-3.96.25-1.28,1.52-2.18,1.5-3.68-1.42,0-2.64.12-3.83-.03-1.23-.16-2.42-.51-3.73.74-1.29,5.34-2.66,10.98-4.05,16.73q.78,1.28,2.41,2.37c1.45-3.17,3.83-5.55,6.73-7.77Zm47.12,43.85c-1.56-1.94-2.57-3.19-3.58-4.45-1.07-1.34-1.08-3.34-2.5-4.4-2.57,1.05-4.93,2.01-7.4,3.01-1.29,2.72-.85,5.54.18,8.21.57,1.48,1.92,2.55,3.6,2.92,2.83-2.26,5.09-5.18,9.7-5.29Zm-24.38,57.39c-4.75-3.24-6.43-3.83-11.61-.44-1.92,1.26-2.71,3.33-3.78,5.17-.47.81-.72,1.8.15,2.8.88.3,1.92.6,2.91,1,1.08.44,2.13.99,2.9,1.36,3.28-3.45,6.35-6.66,9.43-9.9Zm33.57,67.24c-.69.46-1.03.66-1.33.91-.42.35-.78.77-1.2,1.11-5.45,4.44-11.48,5.77-18.26,3.59-1.06-.34-2.23-.99-3.73-.19.66.96,1.1,2.03,1.89,2.65,1.49,1.17,3.09,2.26,4.81,3.02,1.18.53,2.66.69,3.97.58,1.89-.16,3.8-.54,5.59-1.15,2.18-.74,4.31-1.73,6.02-3.36,1.94-1.86,3.41-3.92,2.25-7.15Zm116.35-85.57c.16-1.1.38-1.89.37-2.67-.08-6-.19-12-.32-18-.01-.52-.25-1.03-.42-1.69-.99.12-1.89.23-3.15.39.74,4.97-1.4,8.9-3.84,12.45.17,4.84,2.43,7.88,7.36,9.52Zm106.37,19.65c0,2.85.03,5.69,0,8.52-.05,4.51-.16,9.02-.21,13.53-.01,1.16-.19,2.41,1.18,3.49,1.76-2.76,4.47-4.49,6.11-7.32-1.2-2.82-2.89-5.28-4.64-7.7-1.11-1.53-1-2.31.42-3.49.49-.41,1.08-.7,1.59-1.02-1.83-4.56-2.43-5.35-4.46-6Zm-240.39-5.19c-.88-3.16-1.33-6.22-.89-9.35.44-3.18,2.15-5.72,4.17-8.21-1.37-1.02-2.23-2.35-4.05-2.12-.44,5.2-2.64,9.39-6.63,12.62-.11.09-.22.17-.31.27-1.7,1.78-1.81,3.36-.37,5.42.38.55.81,1.07,1.23,1.63,2.23.39,4.35.2,6.86-.26Zm116.96-17.43c0,1.69-.35,3.4.07,4.9.83,2.9.12,5.39-1.19,7.87-.83,1.57-1.64,3.15-2.55,4.67-1.28,2.15-2.83,4.04-5.33,4.87-.39.13-.78.28-1.13.48-.77.43-.73,1.08.24,2.31,2.42-2.89,5.97-3.5,9.38-4.42.08-.74.23-1.29.17-1.81-.38-3.46.86-6.4,2.65-9.26,1.46-2.33,3.53-4.03,5.6-5.7-1.05-2.04-1.97-3.82-2.86-5.56-1.64.54-3.06,1-5.05,1.64Zm203.03-249.16c-1.02-.59-1.34-.92-1.69-.96-2.58-.24-5.17-.56-7.76-.58-3.96-.04-7.93,0-11.88.28-2.58.19-5.12-.19-7.71.07-7.06.72-14.14,1.2-21.22,1.77-.7.06-1.4.15-2.09.22,17.22.97,34.38.18,52.35-.81Zm-181.41,325.25c.97-.19,1.58-.13,1.91-.41,1.34-1.14,2.65-2.32,3.85-3.6,1.24-1.33,1.87-2.92,1.81-4.83-.05-1.48.15-2.98.39-4.45.49-3-1.81-7.56-4.63-8.77-.67-.29-1.54-.11-2.74-.17,3.94,7.58,5.06,14.81-.59,22.22ZM451.23,5.09c-.94-.48-1.49-.96-2.09-1.03-1.22-.15-2.46-.15-3.69-.09-6.15.28-12.29.64-18.44.9-2.73.12-5.47.06-8.21.12-1.12.02-1.77.58-1.68,1.34.1.88.8,1.01,1.46,1.13.53.1,1.09.14,1.63.12,3.97-.17,7.93-.35,11.9-.55,3-.16,6-.37,9.01-.54,3.25-.19,6.52-.22,10.11-1.38Zm-24.66,407.09c-.92,1.03-1.81,1.87-2.49,2.85-.41.59-.5,1.4-.61,1.73,2.14,1.62,3.86,3.14,5.79,4.32,2.06,1.25,2.66,3.53,4.22,5.59,1.48-3.03,1.84-5.62.27-8.38-1.68-2.95-4.31-4.64-7.18-6.11Zm-75.77-6.16c-1.19.53-2.28,1.06-3.4,1.5-3.46,1.35-4.06,2.04-5.01,6.12.66.11,1.31.34,1.95.3,3.24-.21,6.14.93,9.04,2.14.46.19.89.7,1.42.14-1.32-3.37-2.63-6.73-3.99-10.19Zm141.47-24.84c2.62.85,3.75-1.13,5.08-2.56.85-.91,1.06-2.09.89-3.41-.39-3.04-2.37-4.76-4.79-6.16-.57-.33-1.25-.58-1.96.21.35,3.89-.27,7.95.78,11.92Zm-106.59-83.24c.56-6.19.49-7.75-.56-10.55-2.29,1.52-4.94,2.27-6.92,4.21-1.64,1.61-1.14,3.76.97,4.59.25.1.51.2.77.27,1.82.47,3.64.94,5.74,1.48Zm-149.13,40.28c3.38,1.29,6.22,2.38,9.15,3.5.72-1.75,1.42-3.46,1.91-4.66-1.28-1.42-2.26-2.5-3.15-3.47-2.48.69-4.93,1.38-7.5,2.09-.14.83-.28,1.73-.42,2.54Zm90.6-35.11c.59.03,1.01.14,1.39.07,3.22-.62,6.42-.93,9.67-.17.35.08.82-.41,1.04-.52-1.37-3.08-2.62-5.9-3.86-8.72-.12.04-.26.04-.34.11-.2.18-.41.36-.54.58-1.87,3.14-3.68,6.33-7.24,7.93-.06.03-.05.24-.12.72Zm151.59,151.13c0,1.4-.13,1.85.02,2.16.91,1.78,2.28,3.02,4.31,3.47,7.22,1.59,14.45,2.97,21.89,3,1.48,0,2.96.32,4.44.44.67.05.96-.32.74-1.24-6.88-.29-13.76-1.22-20.56-2.71-3.73-.82-7.55-1.38-10.83-5.12Zm-242.4-123.82c1.13-.09,2.23-.06,3.26-.3,1.94-.45,2.71-1.4,2.84-3.47.1-1.61.02-3.23.02-4.85-2.38-.23-2.39-.24-2.93.39-1.49,1.72-2.98,3.45-4.63,5.36.41.81.88,1.76,1.43,2.87Zm149.9,65.87c1.57-2.45,3.43-4.43,4.45-7.27-3.17-1.43-6.23-2.01-9.47-.72,0,.13-.07.31-.02.4,1.62,2.47,3.26,4.93,5.03,7.59Zm-248.25-10.33c1.03.71,1.87,1.28,2.61,1.79,1.55-.81,2.81-1.64,4.19-2.14,1.47-.54,3.05-.77,4.99-1.23-1.44-1.59-1.93-3.33-3.22-4.35-3.98.47-5.86,3.48-8.57,5.93Zm368.41-17.82c-2.88-2.13-5.33-3.99-8.13-5.3-1.53.54-2.97,1.05-4.73,1.68,1.59,1.23,2.93,2.15,4.14,3.22,2.67,2.36,5.4,1.54,8.72.41Zm-180.91-68.68c2.71-1.38,4.74-3.14,5.96-5.99-2.95-.32-5.56-1.24-8.51-.75.85,2.23,1.64,4.34,2.55,6.74Zm-123.32,126.22c-3.25-2.87-4.08-6.22-5.38-9.28-1.33-.05-2.52-.17-3.44.79,2.26,6.33,4.22,8.41,8.82,8.49Zm299.56-53.89c.02,1.15.14,1.87.97,1.93,3.88.28,7.76.49,11.84.74-1.26-1.95-3.16-2.89-4.54-3.66-3.02.36-5.53.65-8.27.98Zm-163.44,36.99c-1.79-.17-3.23-.49-4.74-.07.09,2.66.18,5.15.27,7.82,1.51-.24,2.56-.71,3.21-1.64.41-1.99.79-3.83,1.26-6.11Zm-193.28-32.71c-.15-2.71-.29-5.49-.45-8.44-1.21.24-2.11.42-2.89.58-1.09,3.63-1,4.64.6,6.72.63.82,1.18,1.98,2.75,1.14Zm417.17,60.54c4.03,2.76,5.39,3.26,9.05,3.23-2.23-2.29-4.27-4.38-6.39-6.56-.84,1.06-1.65,2.08-2.66,3.34Zm-375.67-72.2c-1.81-.41-1.86.44-1.71,1.32.58,3.23,1.01,6.45.5,9.73-.03.21.2.47.32.74,1.09.24,2.19.9,3.57.12-1.98-3.76-2.89-7.68-2.69-11.91Zm27.8-77.21c-3.3,2.63-4.24,4.06-4.42,6.83,1.93-1.43,3.96-2.31,6.55-2-.32-1.96-1.04-3.46-2.13-4.83Zm36.55-9.48c-1.04.05-1.68.08-2.45.11,0,2.51,0,4.8,0,7.09,0,1.26.43,1.52,2.24,1.3.55-2.65.35-5.35.21-8.5Zm-36.34,110.74c-2.1.21-3.77.38-5.66.56.57,1.43.95,2.6,1.5,3.69.33.65,1.02.89,1.76.59.5-.2.97-.44,1.46-.67.29-1.27.55-2.46.94-4.18Zm-26.5,28.12c.21,2.91.36,5.01.52,7.12.06.75.44,1.26,1.18,1.44.84.2,1.62.21,1.97-1.04-2.11-1.73-1.31-4.98-3.67-7.52Zm175.01,26.36c-.07.69-.27,1.23-.11,1.39,1.45,1.39,2.94,2.74,4.47,4.03.17.14.83-.03,1.04-.26.32-.35.45-.88.65-1.32-2.06-1.3-3.95-2.5-6.06-3.84Zm-74.96-64.89c1.04.54,2.09,1.08,3.46.23-.35-.66-.54-1.36-.99-1.76-.34-.3-1.02-.32-1.53-.28-1.15.09-1.2.86-.93,1.81Zm227.76-261.81c0-.07,0-.14,0-.21h-4.37c0,.07,0,.14,0,.21h4.37Zm43.6,318.64c-.35-1.72-.82-2.15-1.92-2.03.52.55.93.99,1.92,2.03Zm-67.97-76.69c-.7,1.07-.69,1.78-.17,2.25.62.56,1.23.01,1.75-.37.15-.11.13-.42.22-.75-.54-.34-1.09-.68-1.8-1.13Zm-206.42-56.59c-.56.58-.27.96.18,1.3.09.07.34.12.34.1.08-.18.23-.43.16-.55-.17-.31-.44-.56-.68-.85Zm231.36,124.57c-.02-.13-.05-.37-.07-.37-.21,0-.43.04-.63.11-.03.01,0,.21,0,.33.24-.02.48-.04.71-.06Zm-259.55-147.14c-.19-.12-.38-.23-.56-.34-.09.2-.2.39-.26.6-.01.04.22.22.25.2.2-.13.38-.29.58-.46Zm-146.61,93.61l-.28.12.28.12v-.24Z"/>
  <path class="cls-1" d="m433.41,324.37c.47,1.94.9,3.09,1,4.26.33,3.94.51,7.9.8,11.85.67,8.99,1.39,17.98,2.07,26.98.11,1.49-.05,3.02.23,4.47.47,2.35-.37,4.99,1.46,7.05.39,2.98.7,5.98,1.18,8.94.94,5.81,2.33,11.52,4.96,16.83.72,1.46,1.72,2.79,2.72,4.09,2.05,2.68,4.68,3.28,8,2.56,2.56-.55,4.07-1.88,5.34-3.98,2.54-4.22,3.46-8.86,3.8-13.65.2-2.85-.02-5.74.3-8.58.62-5.46.43-10.93.51-16.4.02-1.51,0-3.03.22-4.51.67-4.63.55-9.29.54-13.93-.03-10.93.4-21.84.89-32.76.23-5.04-.03-10.09-.06-15.14,0-1.36,0-2.71,0-4.04.96-.35,1,.34,1.04.81.45,5.58,1.13,11.13.74,16.77-.23,3.39.15,6.82.18,10.23.04,4.1.03,8.2-.02,12.29-.04,2.73-.25,5.46-.27,8.2-.09,10.52-.12,21.04-.19,31.56-.04,6.56.4,13.16-.97,19.64-.57,2.67-1.37,5.29-2,7.95-.45,1.93-1.55,3.5-2.67,5.05-2.97,4.11-7.22,5.16-11.96,4.59-2.67-.32-4.96-1.75-6.58-3.84-1.83-2.36-3.57-4.81-4.67-7.67-1.62-4.24-2.93-8.53-3.32-13.08-.07-.8-.3-1.6-.45-2.39-.18-.94-.33-1.88-.53-2.82-.98-4.52-.68-9.16-1.7-13.73-1.01-4.48-.95-9.23-1.1-13.87-.23-6.7-.26-13.41-.3-20.11-.02-3.95-.48-7.92.19-11.86.04-.26.17-.5.62-1.76Z"/>
  <path class="cls-1" d="m407.88,136.24c-.52,2.27-1.19,3.86-2.09,5.37-2.63,4.41-4.16,9.2-4.94,14.25-1.54,10.02-2.15,20.1-1.8,30.25.19,5.46-.06,10.94-.08,16.41,0,1.77.07,3.54.13,5.31.21,6.28.4,12.55.65,18.83.15,3.69.46,7.36.6,11.05.19,5.05.47,10.11.4,15.16-.14,9.85.01,19.69.48,29.54.32,6.69.05,13.41.19,20.12.2,9.45.03,18.87-.66,28.31-.42,5.72-.13,11.5-.18,17.25,0,.95-.07,1.91-.24,2.83-.05.29-.57.67-.88.67-.31,0-.81-.36-.9-.66-.23-.77-.38-1.6-.39-2.4,0-3.56.07-7.12.08-10.68.02-4.09-.02-8.18.02-12.27.03-3.55.16-7.1.19-10.65.03-3.14-.02-6.29-.03-9.44-.02-6.7-.03-13.4-.07-20.09-.06-9.57-.15-19.15-.21-28.72-.02-3.29.07-6.57,0-9.86-.06-2.59-.28-5.18-.44-7.77-.11-1.78-.28-3.55-.33-5.33-.21-7.11-.37-14.22-.57-21.33-.18-6.43-.55-12.85-.57-19.28-.03-7.79,0-15.59.41-23.37.3-5.44,1.2-10.86,2.04-16.26.29-1.86,1.08-3.67,1.81-5.43,1.63-3.9,3.61-7.63,5.98-11.14.12-.18.45-.23,1.37-.67Z"/>
  <path class="cls-1" d="m479.26,211.71c.51.38,1.02.56,1.09.85.15.62.11,1.3.07,1.95-.03.5-.46,1.23-.27,1.43,1.12,1.18.66,2.59.73,3.91.24,4.8,1.04,9.5,2.75,13.98,1.35,3.56,2.84,7.11,4.64,10.46,2.32,4.32,5.21,8.29,8.78,11.72.39.37.74.83.93,1.32.12.3.04.84-.17,1.07-.22.26-.83.51-1.05.38-1.64-.94-3.31-1.87-4.81-3.01-1.06-.8-2.33-1.66-2.44-3.15-.13-1.69-1.99-1.5-2.62-2.81-2.67-5.53-5.69-10.87-7.35-16.86-.82-2.95-1.02-5.92-1.22-8.89-.23-3.53-.12-7.08-.05-10.62.01-.55.61-1.09,1-1.73Z"/>
  <path class="cls-1" d="m507.66,266.3c-.41.23-.94.8-1.48.79-1.96-.01-3.19-1.26-4.14-2.82-.39-.65.24-1.74,1.02-1.88,1.74-.29,4.23,1.44,4.6,3.2.03.13,0,.27,0,.71Z"/>
  <path class="cls-1" d="m540.18,451.46c-5.1-.21-10.14-.53-15.04-1.89-1.54-.43-3.13-1.08-4.4-2.03-2.45-1.84-2.13-4.67.44-6.33,1.64-1.06,3.41-1.73,5.3-2.08,6.49-1.2,13.02-1.26,19.56-.46,2.3.28,4.63.47,6.87.99,1.84.42,3.67,1.1,5.34,1.98,2.06,1.08,2.27,3.55.6,5.15-2.04,1.96-4.6,3-7.31,3.42-3.76.58-7.57.85-11.36,1.26Zm15.03-6.74c-1.56-.61-2.94-1.56-4.6-1.63-6.53-.27-13.03-1.25-19.58-.87-1.89.11-3.8.47-5.64.93-.78.2-1.94.42-1.91,1.85,1.25,1.22,2.72,2,4.62,2.08,1.49.06,2.96.45,4.45.63,6.27.75,12.52.54,18.7-.79,1.42-.31,2.86-.68,3.96-2.21Z"/>
  <path class="cls-1" d="m547.42,293.18c-.53,4.34-1.31,8.47-3.33,12.27-.19.35-.33.76-.37,1.16-.55,6.8-1.41,13.54-1.31,20.42.11,7.5.74,14.97.65,22.47-.01.95.01,1.93.23,2.85.67,2.89.18,5.71-.41,8.52-.07.32-.47.56-.92,1.06-.84-1-.91-2.07-.95-3.09-.2-4.5-.05-9.04-.58-13.5-1.25-10.51-.31-21.03-.54-31.53-.09-4.26.98-8.4,2.28-12.46.5-1.56,1.07-3.13,1.26-4.73.35-3.05-2.13-5.24-5.16-4.63-1.69.34-3.42.57-4.59,2.26-.69.99-2.13.39-2.5-.86-.54-1.81.54-4.15,2.5-4.52,4.7-.88,9.3-.8,12.94,3.02.37.38.58.91.81,1.29Z"/>
  <path class="cls-1" d="m567.7,449.63c-4.05,3.11-8.65,4.21-13.47,4.6-1.06.09-1.09,0-1.82-1.54.21-.15.42-.43.62-.43,4.13.08,7.79-1.42,11.1-3.65,2.15-1.45,4.21-1.79,6.58-.95,2.18.78,4.46,1.34,6.56,2.31,2.62,1.21,5.23,2.31,8.13,2.62.42.04,1.03.56,1.12.96.08.37-.31,1.1-.68,1.27-2.09.99-4.17,2.17-6.39,2.7-4.39,1.05-8.84,1.92-13.31,2.48-2.96.37-6.01.1-9.02.07-.36,0-.72-.28-1.04-.41-.31-1.01.3-1.35.99-1.46.94-.14,1.91-.11,2.86-.2,6.13-.57,12.28-.95,18.2-2.84.63-.2,1.24-.46,2.18-.81-3.84-2.98-8.26-3.37-12.62-4.72Z"/>
  <path class="cls-1" d="m491.13,451.95c2.29-1.66,4.72-1.54,6.87-2.18,3.51-1.06,7.15-1.7,10.74-2.47,1.73-.37,3.22-.56,4.83,1,1.26,1.22,3.38,1.64,5.18,2.21,2.07.65,4.22,1.04,6.31,1.62.87.24,1.4.83,1.02,2-5.88,1.45-10.79-.85-15.24-4.3-3.79.83-7.36,1.62-11.32,2.49,2.19,1.29,4.18,1.34,6.16,1.46,1.74.11,3.54.07,4.93,1.33-.22,1.33-1.2,1-1.94,1.03-7.65.27-12.98-.95-17.54-4.17Z"/>
  <path class="cls-1" d="m541.64,430.81q-3.73-.68-6.48.11c-.65,1.33-1.24,2.69-1.99,3.95-.18.31-.92.42-1.37.37-.24-.03-.58-.62-.58-.95,0-2.07.43-4.03,1.66-5.76.97-1.38,2.42-1.76,3.94-1.73,1.62.03,3.26.23,4.85.54,1.36.27,2.49.99,2.96,2.48.37,1.16.92,2.27,1.26,3.44.25.86-.06,1.6-1.04,1.9-1.96-.68-1.87-2.87-3.19-4.34Z"/>
  <path class="cls-1" d="m533.51,415.58c3.15.87,3.16,4.54,5.97,5.83.6-.6,1.36-1.16,1.84-1.91.5-.78.71-1.75,1.1-2.6.33-.71.64-1.71,1.67-1.35.97.33.71,1.38.62,2.12-.34,2.81-1.37,5.18-4.12,6.54-1.56.77-2.98.52-4.18-.43-2.08-1.66-3.29-3.95-3.76-6.55-.09-.48.56-1.1.85-1.64Z"/>
</svg>