<?xml version="1.0" encoding="UTF-8"?>
<svg id="Laag_1" data-name="Laag 1" xmlns="http://www.w3.org/2000/svg" viewBox="0 0 850.39 850.39">
  <defs>
    <style>
      .cls-1 {
        fill: #131f48;
      }

      .cls-1, .cls-2 {
        stroke-width: 0px;
      }

      .cls-2 {
        fill: #a5d6af;
      }
    </style>
  </defs>
  <path class="cls-2" d="m464.84,244.55c-7.21-.1-14.27,2.03-20.35,5.89-21.19,13.44-79.56,52.8-36.6,52.8,30.89,0,49.35-9.42,59.21-17.03,7.01-5.41,12.07-13.04,13.9-21.7s.62-19.72-16.16-19.95Z"/>
  <path class="cls-2" d="m323.58,331.12c-66.27,11.05-218.39,125.5-99.52,209.31,118.87,83.81,156.53-53.58,381.97,25.32,51.31,17.96,148.84-29.25,143.7-107.93s-12.33-259.31-176.82-169.31c-106.4,58.22-175.6,30.32-249.34,42.6Z"/>
  <g>
    <path class="cls-1" d="m417.05,395.44c1.81-.65,2.92-1.06,4.04-1.44,2.66-.9,5.33-1.1,8.07-.28,3.03.9,5.98,1.94,8.62,3.76,1.63,1.13,2.84,2.58,3.54,4.41.15.4-.05,1.14-.36,1.45-.32.31-1.05.51-1.46.36-.88-.32-1.67-.89-2.51-1.36-1.91-1.06-3.81-2.13-5.74-3.17-2.94-1.59-6.03-1.56-9.2-.82-5.56,1.3-10.53,3.87-15.1,7.2-8.97,6.52-15.57,14.99-19.76,25.21-2.24,5.47-5.04,10.63-7.8,15.82-1.66,3.14-3.52,6.18-5.26,9.29-1.73,3.11-3.4,6.25-5.14,9.36-1,1.79-2.02,3.58-3.12,5.31-3.08,4.87-5.82,9.93-7.84,15.33-.71,1.9-1.07,3.96-1.39,5.97-.41,2.57.57,4.84,1.87,6.99.14.23.32.45.5.65,1.84,1.95,8.29,3.26,10.8,2.13,2.12-.96,4.13-2.09,5.89-3.69,2.84-2.58,5.76-5.07,8.76-7.45,2.14-1.7,4.54-3.06,6.68-4.76,2.36-1.87,4.6-3.88,6.81-5.93,2.22-2.06,3.91-4.56,5.5-7.13,1.94-3.14,4.04-6.2,5.93-9.37,1.82-3.05,3.51-6.18,5.17-9.32,1.29-2.42,2.47-4.88,3.67-7.35.54-1.11,1.14-2.22,1.43-3.4,1.28-5.17,2.76-10.32,2.39-15.75-.08-1.23-.09-2.47-.07-3.7.05-2.92-.46-5.71-1.64-8.39-.43-.98-.74-2.07-.8-3.13-.03-.51.54-1.33,1.03-1.53.48-.19,1.25.16,1.81.43.31.16.51.63.67,1,2.13,4.74,4.4,9.43,6.3,14.26,1.67,4.24,2.08,8.71,1.63,13.31-.46,4.77-.76,9.54-1.75,14.25-.41,1.97-.1,4.09-.08,6.14,0,.68.26,1.38.15,2.03-.08.46-.51,1.07-.91,1.2-.41.13-1.13-.09-1.45-.42-.56-.57-1.15-1.28-1.31-2.02-.36-1.72-.6-3.49-.65-5.25-.03-1.21.22-2.46.53-3.65,1.2-4.67,1.58-9.43,1.79-14.22.11-2.34,0-4.61-.64-7.64-.42,1.49-.7,2.3-.87,3.14-.68,3.21-1.21,6.46-2.03,9.63-.51,1.97-1.39,3.85-2.2,5.73-.87,2.01-1.95,3.93-2.76,5.96-2.35,5.9-6.02,11.05-9.34,16.38-2.09,3.36-4.11,6.75-6.77,9.76-3.84,4.34-8.19,8.02-12.9,11.35-3.46,2.45-6.84,5.01-10.23,7.57-.64.48-1.15,1.14-1.81,1.81.81,1.09,1.85.72,2.66.53,3.33-.8,6.65-1.63,9.94-2.6,8.87-2.6,17.07-6.65,24.9-11.51,3.75-2.33,7.09-5.19,10.08-8.39,3.18-3.39,6.21-6.95,8.99-10.68,2.11-2.84,3.71-6.05,5.55-9.09.47-.77.7-1.84,2.14-1.74,0,.52.15,1.1-.02,1.54-3.3,8.42-8.33,15.65-14.88,21.87-1.18,1.12-2.18,2.44-3.34,3.59-4.72,4.67-10.28,8.16-16.12,11.22-5.22,2.74-10.59,5.13-16.21,6.95-5.37,1.73-10.87,2.86-16.46,3.38-4.38.4-8.74-.41-13.03-1.33-.13-.03-.27-.06-.4-.11-5.94-2.14-8.57-5.34-8.53-12.03.02-2.69.82-5.39,1.45-8.04.41-1.72,1.16-3.35,1.83-5.22-.53-.53-1.02-1.2-1.66-1.63-4.81-3.23-7.48-7.78-8.78-13.36-.95-4.08-1.32-8.07-.2-12.17,1.22-4.49,2.29-9.02,4.17-13.3.37-.85.56-1.79.93-3.01-1.01-.09-1.8-.33-2.51-.19-5.67,1.13-10.83-.27-15.81-2.92-3.66-1.95-6.91-4.37-9.8-7.36-1.99-2.06-4.25-3.87-6.32-5.85-5.91-5.64-10.85-11.95-13.48-19.83-.69-2.08-1.5-4.12-2.11-6.22-2.35-7.97-3.59-16-1.58-24.29.67-2.78.85-5.68,1.11-8.55.31-3.4.48-6.82.7-10.23.29-4.43,1.92-8.51,3.31-12.65.31-.91.67-1.8.98-2.7,1.5-4.52,4.43-7.45,9.32-8.26,2.41-4.57,6.09-8.07,9.85-11.46,3.67-3.31,8.26-4.75,12.94-5.9.26-.07.55-.11.81-.09,1.47.14,3.03.69,4.38.36,1.52-.37,2.95-.39,4.45-.32,6.37.28,11.65,3.03,15.99,7.47,4.11,4.2,8.02,8.62,11.76,13.16,1.72,2.08,2.84,4.66,4.2,7.02,1.09,1.9,2.02,3.9,3.24,5.71,2.9,4.29,4.5,9.07,5.51,14.06.6,2.93.92,5.91,1.4,9.15.59-.21,1.23-.33,1.75-.63,3.58-2.1,7.47-3.4,11.43-4.51,4.45-1.25,8.97-.85,13.45-.14,8.36,1.32,15.41,5.39,21.98,10.51,4.76,3.71,8.15,8.49,10.86,13.76,2.25,4.38,4.34,8.86,6.27,13.38,1.78,4.17,3.05,8.51,3.02,13.12,0,.67.07,1.34.1,1.97,1.06.45,1.35-.38,1.67-.88,2.74-4.17,6.21-7.66,10.14-10.67,5.98-4.57,11.86-9.32,18.55-12.84,3.99-2.1,8.12-3.95,12.23-5.81,6.48-2.93,13.09-5.6,19.49-8.69,6.23-3.01,12.73-4.12,19.53-3.7,1.88.12,3.78.64,5.58,1.23,4.03,1.33,7.99,2.86,12.01,4.21.71.24,1.6.08,2.38-.03,1.49-.2,2.97-.5,4.46-.74,4.18-.67,7.21,1.04,9.24,4.61,5.25,9.25,6.72,18.92,3.59,29.27-2.91,9.63-6.76,18.81-12.21,27.26-3.86,5.98-8.17,11.65-12.91,16.98-6.15,6.92-13.35,12.55-20.96,17.72-3.35,2.28-7.21,3.29-10.94,4.61-3.09,1.09-6.27,1.96-9.4,2.92-.91.28-1.89.45-2.72.88-9.35,4.82-19.17,6.31-29.49,4.27-5.36-1.06-10.87-1.49-16.01-3.55-1.65-.66-3.29-1.35-4.88-2.14-5.07-2.51-8.32-6.54-9.89-11.97-1.03-3.55-2.17-7.06-3.21-10.61-1.11-3.77-1.01-7.52-.02-11.35,1.77-6.82,4.67-13.15,7.9-19.35.57-1.09,1.24-2.13,1.78-3.24.3-.6.56-1.27.61-1.92.16-1.89.11-3.81.31-5.7.53-5.08-.88-9.77-2.72-14.38-.51-1.27-1.11-2.51-1.78-3.7-.32-.57-.8-1.26-1.36-1.44-2.85-.96-4.8-3.13-6.94-5.02-2.51-2.22-5.37-3.75-8.52-4.81-2.18-.74-4.29-.75-6.3.58-.91.6-1.89,1.11-2.85,1.64-1.08.59-1.95,1.25-2.67,2.39-1.13,1.78-2.72,3.26-4.64,5.47Zm-103.69-63.89c-2.39,1.29-3.57,2.86-4.29,4.88-2.56,7.11-4.73,14.27-4.6,21.97.05,3.27-.22,6.6-.86,9.8-.87,4.33-1.14,8.57-.8,13.01.61,7.8,3.43,14.9,6.07,22.09.14.38.37.74.58,1.08,3.29,5.23,6.84,10.24,11.67,14.21,1.37,1.13,2.75,2.3,3.9,3.64,3.36,3.93,7.63,6.63,12.07,9.11,2.06,1.15,4.3,1.79,6.67,1.82,1.78.03,3.56.04,5.34-.03,3.07-.12,3.03-.17,4.11-2.95,1.04-2.68,2.13-5.34,3.29-7.97,1.15-2.63,2.42-5.21,3.61-7.82.57-1.24.98-2.57,1.61-3.77,2.27-4.36,4.74-8.61,6.57-13.2,1.26-3.17,2.79-6.24,4.14-9.38,1.14-2.65,2.42-5.21,4.21-7.5,1.86-2.37,3.6-4.83,5.44-7.22,1.12-1.45,1.82-3.04,2-4.86.65-6.55-.36-12.84-3.26-18.75-1.32-2.7-3.11-5.18-4.34-7.91-1.93-4.28-4.35-8.21-7.25-11.87-3.23-4.09-6.66-8-10.48-11.55-2.05-1.9-4.55-3.04-7.13-3.97-.89-.32-1.88-.42-2.83-.5-.33-.03-.95.29-.97.49-.05.47.09,1.03.34,1.45.19.31.66.46,1.01.66,1.38.77,2.44,1.79,2.57,3.47.08,1.05.71,1.72,1.4,2.42.77.77,1.67,1.52,2.13,2.47,1.91,3.99,3,8.25,2.89,12.67-.04,1.89.19,3.28,1.49,4.81,4.07,4.81,4.11,12.94-.61,16.76-.52.42-.87,1.04-1.49,1.81.68,1.45.78,3.01.17,4.65-.61,1.64.02,3.24.69,4.76.66,1.5,1.43,2.96,2.04,4.48.76,1.91.53,2.54-1.18,3.8-.54.39-1.13.72-1.39.88-.26,1.97-.21,3.66-.74,5.16-.67,1.92-.72,3.65-.11,5.59.8,2.53.4,2.91-2.42,3.21-.25.03-.49.21-.94.42.26,1.97-.98,3.09-2.89,3.69,4.06,3.56,6.9,8.1,7.13,12.7.1,2-.78,3.5-2.63,3.25-1.68-.22-2.74.67-4.04,1.47-.61-.88-1.22-1.47-1.5-2.2-.62-1.57-.07-2.57,1.6-3.12.74-.25,1.52-.4,2.13-.56.42-1.4.29-2.45-.43-3.38-1.15-1.49-1.42-3.58-3.35-4.55-2.41-1.22-3.91-3.39-5.39-5.54-.62-.89-.35-1.86.61-2.44.89-.53,2.1-.5,2.38-1.94.4-2,1.84-2.54,3.73-2.23.5.08,1.03.01,1.67.01.58-3.37,1.69-6.49,1.02-9.84-.29-1.47.15-2.68,1.42-3.58.41-.29.66-.79,1.09-1.32-2.42-3.85-2.6-8.05-2.46-12.34.07-2.15.56-4.04,2.1-5.6.58-.58,1.14-1.19,1.7-1.78.78-.83,1.17-1.81,1.26-2.95.25-3.02-.44-5.74-2.66-7.89-1.47-1.42-2.46-3.08-2.23-5.08.36-2.97-.6-5.7-1.12-8.51-.46-2.46-1.43-4.71-3.52-6.32-.53-.4-1.09-.95-1.29-1.55-.57-1.75-1.87-2.6-3.39-3.34-1.3-.64-2.16-1.64-2.25-3.19-.03-.53-.22-1.04-.38-1.74-.97-.11-1.94-.44-2.82-.28-4.91.89-9.54,2.45-13.13,6.18-1.9,1.97-3.78,3.96-5.66,5.95-1.03,1.08-2.13,2.1-2.83,3.63,1.04,1.12,2.05,2.21,3.04,3.28.65.04,1.2.07,1.74.11,2.7.17,2.94.39,3.81,2.83.85,2.38,1.08,4.83.74,7.28-.36,2.58.19,4.87,1.53,7.06.78,1.28,1.39,2.68,2.22,3.92,2.9,4.29,4.49,9.06,5.23,14.14.45,3.13,1.2,6.16,2.33,9.12.82,2.16,1.44,4.43,1.86,6.71.78,4.18,1.06,8.41.96,12.67-.03,1.34.12,2.77.57,4.02,1.83,5.01,3.65,10.04,6.98,14.33.75.97,1.42,2.02,2.03,3.09.47.82.83,1.72,1.17,2.61.28.71.1,1.49-.55,1.78-.53.23-1.35.21-1.89-.04-1.67-.78-2.7-2.25-3.63-3.81-1.32-2.21-2.48-4.54-4.31-6.36-2.48-.32-4.42.43-5.92,2.29-1.54,1.92-1.39,4.01-.73,6.23.83,2.77,1.63,5.51,3.87,7.56.42.39.41.98-.32,1.49-.39-.12-.95-.19-1.39-.46-3.06-1.82-6.54-8.94-6.08-12.42.07-.54.2-1.09.4-1.59.42-1.01.95-1.97,1.36-2.99.3-.74.71-1.55.65-2.3-.2-3.02-.98-5.94-2.21-8.71-.52-1.17-1.43-2.03-2.92-1.66-1.24,1.02-1.03,2.46-1.19,3.8-.18,1.55-.69,2.98-1.98,3.91-.49.36-1.35.6-1.88.41-.52-.18-1.06-.93-1.16-1.5-.15-.92-.03-1.91.12-2.85.48-2.84,1.18-5.62,2.46-8.23.89-1.81.68-3.77.36-5.65-.26-1.52-1.35-2.57-2.55-3.41-1.07.71-1.95,1.36-2.9,1.89-.72.4-1.71-.03-2.08-.79-.83-1.7-.89-3.44-.07-5.15.91-1.89,1.15-3.91,1.4-5.96.43-3.52.55-7.11,1.99-10.45.24-.55.09-1.27.13-2.29-.97.4-1.55.71-2.16.87-2.53.68-4.01-.2-4.56-2.66-.09-.4-.18-.81-.18-1.22-.05-3.28-.1-6.57-.07-9.85,0-.4.52-.8.78-1.18,1.41.62,1.64,1.73,1.78,2.81.28,2.17.42,4.36.65,6.54.07.66.04,1.39,1.08,1.84.65-.42,1.42-.92,2.19-1.43,1.89-1.26,3.52-.74,4,1.45.26,1.18.25,2.45.16,3.67-.24,3.17-.04,6.29.76,9.37,1.07,4.11,2.03,8.24,3.18,12.32.81,2.9,1.8,5.75,3.5,8.29,2.16,3.23,3.49,6.79,4.25,10.6.24,1.18.69,2.32,1.02,3.39,2.38,0,2.67-.24,2.62-1.72-.03-1.01-.47-1.8-.98-2.63-1.24-2.04-1.8-4.33-1.58-6.7.61-6.54-.54-12.79-2.61-18.96-1-2.97-1.63-6.07-2.38-9.12-.69-2.79-1.15-5.63-2.43-8.25-.4-.82-.24-2.09-.82-2.61-2.14-1.89-2.99-4.58-4.42-6.87-1.44-2.29-2.29-4.96-1.78-7.84.36-2.03.24-4.05-.64-6.09-2.33.04-3.9-1.12-5.31-2.77-.95-1.12-2.19-1.99-3.45-3.11Zm147.02,127.61c-4.34.13-6.89,2.47-8.6,6.04-.51,1.07-.48,2.04.02,3.14,1.36,3,3.53,5.2,6.36,6.76,3.02,1.66,6.22,2.9,9.62,3.49,5.26.91,10.55,1.65,15.81,2.57,5.15.9,10.1,0,14.95-1.58,3.12-1.02,6.13-2.37,9.25-3.4,5.07-1.67,10.15-3.34,15.29-4.75,2.85-.79,5.37-2.15,7.69-3.8,4.02-2.86,7.83-5.99,11.73-9.02,1.07-.83,2.05-1.82,3.21-2.49,1.43-.82,1.51-2.46,2.56-3.55,2.56-2.66,4.87-5.56,7.24-8.4,4.22-5.08,7.71-10.66,10.75-16.49,3.1-5.96,5.5-12.24,7.49-18.66.72-2.33,1.03-4.8,1.44-7.22.1-.57.33-1.39-.71-1.78-1.49,1.18-2.45,2.83-3.51,4.4-2.39,3.56-5.22,6.58-8.96,8.87-4.2,2.58-6.92,6.41-8.13,11.34-.62,2.56-1.13,5.05-.88,7.69.1,1.07-.05,2.19-.22,3.26-.1.61-.26,1.36-1.39,1.38-2.96-3.61-1.08-8.06-1.75-12.1-2.54-.95-4.61-.35-6.38,1.5-1.8,1.88-3.6,3.76-5.39,5.64-1.47,1.55-3.11,2.2-5.13,1-.32-.19-.74-.23-1.17-.35-.21.43-.5.77-.53,1.14-.26,2.71-1.63,4.57-4.09,5.71-1.78.83-3.27,2.09-4.27,3.76-1.73,2.91-3.92,4.43-7.47,3.41-1.78-.51-3.2.38-4.16,1.93-.58.93-1.11,1.89-1.7,2.81-1.11,1.74-2.58,2.8-4.79,2.47-.5-.07-1.04.05-1.5.09-2.24,3.72.4,7.27.15,10.79-.51.03-.86.17-1.01.05-2.77-2.15-2.69-5.81-4.31-8.58q-3.09,1.61-7.07.1c-.29.41-.68.81-.89,1.29-.8,1.76-2.23,2.26-4.02,2.23-1.21-.02-2.43.09-3.62.14-.61.94-1.11,1.75-1.66,2.52-.94,1.32-2.17,2.13-3.86,1.76-1.78-.4-3.17.07-4.44,1.4-.98,1.03-2.2.96-3.32.04-.5-.41-1.02-.79-1.49-1.14-.31.25-.44.32-.52.43-1.78,2.3-2.78,2.24-3.97-.26-.47-.99-.81-2.04-1.28-3.03-.4-.85-.89-1.66-1.37-2.55Zm114.79-64.33c-.78-5.29-2.72-9.76-5.32-13.97-.86-1.39-2.36-1.81-3.93-1.84-3.24-.06-6.23.81-8.92,2.61-3.98,2.66-8.02,5.25-11.9,8.06-3.66,2.64-7.09,5.59-10.73,8.26-3.53,2.59-7,5.23-10.11,8.33-3.2,3.19-6.51,6.26-9.74,9.42-1.45,1.41-2.82,2.9-4.43,4.56.91.37,1.58.5,2.06.88.37.29.74.91.69,1.32-.05.41-.58,1-1,1.1-1.99.47-4.02.79-5.73,1.11-1.7,1.62-3.22,2.99-4.67,4.44-1.45,1.45-2.85,2.96-4.23,4.48-1.35,1.49-2.9,2.83-3.71,4.62.6.75,1.04,1.27,1.44,1.82.47.63.9,1.29,1.5,2.16-.78.45-1.3.97-1.87,1.04-1.22.14-2.46.03-3.69.04-1.71,0-3.18.53-4.36,1.87-1.36,1.54-2.88,2.94-4.24,4.47-2.21,2.48-4.87,4.41-7.53,6.33-1.76,1.28-3.67,2.33-6,2.43-1.48.07-2.94.57-4.4.92-.21.05-.36.37-.71.75.3.47.64.99.85,1.31,1.37-.09,2.49-.4,3.48-.16,1,.24,1.87,1.02,2.69,1.5q3.98-1.68,7.26-.9c1.22-1.38,1.57-3.68,3.57-4.26,1.78-.52,3.7-.59,5.51-.85.23-.25.44-.43.6-.65,2.53-3.52,2.7-3.57,6.62-1.76.11.05.27,0,.69-.04.61-.6,1.41-1.32,2.14-2.11,1.21-1.29,2.67-1.85,4.42-1.72.68.05,1.42-.01,2.03.22,2.17.82,3.37-.27,4.3-2.01.32-.6.58-1.26.99-1.79,1.48-1.94,3.3-3.28,5.91-3.06.41.03.83-.02,1.23.04,1.8.26,3.12-.33,4.24-1.83,1.06-1.41,2.36-2.66,3.65-3.88,2.57-2.44,2.69-3.94.34-6.53-.55-.6-1.22-1.09-1.88-1.58-.54-.41-1.24-.66-1.68-1.15-.3-.33-.28-.95-.4-1.44.49-.1,1.05-.4,1.47-.27,1.43.45,2.82,1.04,4.22,1.6,1.22.49,2.22.52,3.4-.41,1.6-1.27,2.03-1.11,3.6.02.74.53,1.49,1.04,2.39,1.68,1.81-1.78,3.54-3.33,5.1-5.03,2.33-2.53,4.95-4.3,8.57-4.06,1.5.1,2.62-.67,3.5-1.81.58-.76,1.14-1.54,1.66-2.35,1.79-2.81,3.95-5.22,6.86-6.93,3.01-1.76,5.31-4.22,7.18-7.18,1.82-2.88,3.74-5.74,7-7.85Zm-35.41-9.52c1.01-2.07,2.02-4,2.89-5.98.62-1.41.26-2.69-.93-3.18-2.53-1.05-5.12-2.11-7.94-1.65-4.05.66-8.02,1.6-11.8,3.36-8.31,3.86-16.7,7.52-25.02,11.35-2.97,1.37-6,2.73-8.71,4.54-5.68,3.8-11.26,7.78-16.71,11.9-3.84,2.9-7.05,6.51-9.57,10.62-4.15,6.76-8.07,13.65-11.32,20.91-1.75,3.91-2.66,8.05-3.52,12.19-.75,3.6.43,7.05,1.62,10.42.21.6.26,1.37,1.36,1.41.99-1.13,2.05-2.34,3.18-3.63-1.68-3.68-.63-6.45,2.68-8.45.23-.14.41-.36.61-.54,1.53-1.36,3.06-2.65,3.54-4.87.32-1.51,1.6-2.5,2.96-3.26,1.3-.74,2.59-1.5,3.98-2.3-.1-3.9,2.43-5.59,5.64-6.61,1.43-.45,2.94-.66,4.36-1.14.72-.24,1.65-.71,1.92-1.32.84-1.93,2.52-2.8,4.12-3.85,1.13-.74,2.25-1.55,3.25-2.46,1.31-1.2,2.55-2.47,3.7-3.82.5-.58.94-1.4.98-2.13.11-2.47,1.52-3.64,3.69-4.32,1.93-.6,3.82-1.33,5.52-1.93.44-.95-.2-1.25-.39-1.72-.6-1.4-.45-2.13.75-2.71,1.71-.83,3.4-1.99,5.39-1.77,2.9.32,4.62-1.24,6.1-3.36,1.41-2.02,2.78-4.07,4.21-6.07,4.64-6.48,10.95-9.7,18.94-9.63,1.49.01,2.98,0,4.54,0Zm-131.99,3.01c-.25-1.25-.26-1.81-.47-2.29-2.36-5.63-.51-10.71,2-15.7.12-.24.29-.51.51-.63.45-.25,1.01-.65,1.42-.56.43.1,1.05.72,1.04,1.1-.04,1.48-.04,3.04-.51,4.41-1.63,4.7-1.71,9.35-.13,14.05.09.26.03.56.14.8.24.54.54,1.04,1.13,2.14,1.17-3.46,2.15-6.28,3.06-9.11.77-2.39,2.03-4.49,3.67-6.35.71-.8,1.57-1.68,2.53-2.01,2.69-.93,5.3-2.31,8.31-2.01.47.05,1.12.1,1.18-.82-5.92-4.68-12.75-7.12-20.28-7.65-6.83-.49-12.84,2.12-18.74,5.15-3.39,1.74-5.64,4.72-8.15,7.41-4.23,4.55-7.76,9.55-9.87,15.46-.32.9-.68,1.79-1.05,2.68-3.29,7.81-7.31,15.27-10.58,23.1-2.58,6.18-5.4,12.25-7.59,18.6-2,5.8-4.53,11.41-5.67,17.49-.58,3.08-1,6.11-.18,9.56,1.16-.76,1.96-1.51,2.91-1.84,1.12-.39,2.37-.41,3.7-.61-.07-4.41,4.38-6.11,5.5-9.77.13-.41.81-.87,1.29-.93,2.27-.3,2.92-2.03,3.92-3.73,1.15-1.97,1.65-3.99,1.98-6.17.24-1.59.49-3.42,1.42-4.6,1.04-1.32,1.29-2.62,1.41-4.1.06-.82-.06-1.65.03-2.46.28-2.27.15-4.73,2.8-5.95.38-.17.58-.88.73-1.39.27-.92.49-1.85.63-2.8.35-2.29,1.24-4.22,3.47-5.22,1.14-.51,1.56-1.45,1.86-2.54.14-.53.38-1.04.44-1.58.42-4.11,2.74-7.7,3.21-11.79.04-.39.21-.86.48-1.11.47-.43,1.08-1,1.62-.99.53,0,1.31.57,1.51,1.08.53,1.39.81,2.87,1.15,4.17,2.15-.59,4.21-1.2,6.28-1.71,1.27-.31,2.27-.9,2.89-2.08.51-.97,1.1-1.9,1.56-2.89.78-1.66,1.88-2.67,3.85-2.3.21.04.47-.17.96-.37-.84-.94-1.63-1.83-2.42-2.71-.57-.63-1.07-1.29-.57-2.18.41-.72,1.43-.81,2.58-.19.83.45,1.6,1.01,3.03,1.93Zm48.7,67.3c1.95,0,3.58-.07,5.2.01,4.67.25,8.85-.85,12.7-3.68,4.9-3.6,9.01-8.03,12.98-12.49,10.28-11.56,20.83-22.84,31.96-33.57,3.74-3.6,7.6-7.09,11.92-10.03,2.37-1.61,4.68-3.32,7-5.01.43-.32.8-.74,1.14-1.17.51-.64.05-1.79-.77-1.94-.67-.12-1.38-.28-2.03-.18-2.42.37-4.87.69-7.24,1.3-3.97,1.03-7.19,3.31-9.64,6.59-1.39,1.86-2.57,3.87-3.9,5.78-.93,1.35-1.9,2.67-2.93,3.95-1.25,1.56-2.91,2.46-4.89,2.75-.76.11-1.54.16-2.56.26,1.07,1.88.63,3.19-.96,4.01-1.69.88-3.43,1.67-5.19,2.4-1.5.63-3.05,1.12-4.81,1.76.57,2.54-.81,3.96-2.58,5.21-.77.54-1.45,1.26-2.08,1.97-1.55,1.76-3.25,3.29-5.33,4.44-.94.52-1.94,1.21-2.49,2.09-1.04,1.67-2.54,2.32-4.3,2.85-2.47.75-5.01,1.41-7.12,3.05-.12.42-.35.82-.33,1.19.14,1.89-.83,3.09-2.34,4.01-.47.28-.94.57-1.4.86-1.88,1.19-3.38,2.61-4.35,4.74-.71,1.56-2.1,2.83-3.25,4.17-.62.72-1.41,1.29-2.06,1.99-.71.77-.86,1.67-.35,2.68Zm-103.63,8.21c-.69,2.89-2.08,5.24-.2,7.81,1.45,1.99,2.85,3.94,5.78,4.29.98-1.72,1.89-3.38,2.86-5.01,1.81-3.06,3.72-6.06,5.45-9.15,3.14-5.6,6.17-11.26,9.26-16.89,2.82-5.15,5.48-10.38,7.82-15.78,1.63-3.75,3.41-7.48,5.59-10.93,4.14-6.52,9.48-11.98,15.76-16.52.99-.71,1.9-1.57,2.71-2.49.39-.44.45-1.17.72-1.95-1.2-.21-2.13-.31-3.02-.54-.88-.23-1.73-.58-2.44-.82-.34.26-.47.33-.56.43-.26.32-.57.62-.74.98-1.38,2.98-3.63,4.63-6.96,5.02-1.13.13-2.2.97-3.22,1.62-.9.57-1.68,1.31-2.43,1.91-1.23-.37-2.22-.67-3.34-1.01-.28.73-.55,1.2-.65,1.71-.31,1.61-.59,3.22-.83,4.84-.38,2.58-1.27,4.77-4.05,5.62-.24.07-.41.34-.87.73-.73,2.5-1.31,5.28-1.32,8.18,0,.82.09,1.65-.03,2.45-.14.89-.72,1.45-1.71,1.4-.5-.02-1.01-.07-1.7-.13,0,1.86.03,3.5-.01,5.13-.03,1.1-.09,2.33-1.12,2.95-1.54.93-1.67,2.45-1.88,3.91-.32,2.2-.89,4.26-2.25,6.08-.48.64-.78,1.44-1.04,2.21-.47,1.42-1.31,2.4-2.84,2.62-1.21.17-2.14.8-2.42,1.93-.54,2.17-2.14,3.36-3.77,4.37-.17,1.16-.24,2.12-.45,3.05-.39,1.73-1.14,2.26-2.89,2.18-.93-.04-1.86-.12-3.22-.22Zm92.87-76.58c-2.88-5.1-5.31-9.5-9.73-12.49-2.43.58-4.8,1.22-7.2,1.71-6.95,1.43-7.05,3.26-9.29,8.03-.23.49-.42,1.02-.49,1.56-.07.53-.81,1.16.18,1.71,1.9-1.98,4-3.64,6.44-4.96,3.1-1.68,6.12-1.75,9.48-.87,3.66.97,6.68,3.03,10.62,5.31Zm98.38-.98c4.08-2.69,7.96-4.82,11.67-8.01-3.21-1-6.06-1.56-8.9-2.03-.4,1.69-.64,3.29-1.17,4.79-.53,1.51-1.68,2.79-1.61,5.25Z"/>
    <path class="cls-1" d="m548.59,475.84c.51-7.3,5.49-10.3,11.24-12.37,6.22-2.24,12.78-3.12,19.32-3.72,3.68-.34,7.43.33,10.94,1.53,6.86,2.34,13.88,4.13,20.84,6.14,5.03,1.46,9.65,3.84,14.32,6.13,6.53,3.19,12.97,6.53,18.8,10.9,2.62,1.97,5.3,3.92,7.65,6.19,4.77,4.6,7.51,10.37,8.89,16.81.75,3.48,1.38,6.98,2.18,10.45,1.55,6.73,1.03,13.31-1.13,19.82-2.55,7.68-6.97,14.24-12.36,20.15-2.85,3.13-6.05,5.88-9.67,8.2-2.87,1.84-5.67,3.78-8.6,5.56-3.49,2.12-7.27,3.3-11.14,3.98-5.11.9-10.33,1.17-15.5,1.79-4.19.5-8.19-.4-12.16-1.5-5.82-1.61-11.31-4.09-16.73-6.72-3.07-1.49-6.17-2.91-9.33-4.22-6.08-2.52-11.7-5.9-16.52-10.51-4.05-3.88-8.22-7.64-12.45-11.32-2.71-2.36-5.04-5-6.97-8.02-2.28-3.56-4.48-7.16-6.47-10.91-1.27-2.4-2.7-4.71-3.51-7.32-1.31-4.21-2.02-8.57-1.91-12.94.07-2.83,1.09-5.63,1.52-8.47.37-2.49,1.3-4.75,2.45-6.93,2.14-4.03,5.07-7.11,9.83-7.98,1.2-.22,2.36-.69,3.51-1.12,3.34-1.25,6.66-2.52,10.26-2.84.8-.07,1.57-.43,2.68-.76Zm28.98,69.1c.76-.24,1.16-.33,1.54-.49,3.32-1.39,6.67-1.44,10.02-.16,3.46,1.32,6.95,1.36,10.47.36,4.91-1.4,9.85-2.15,14.99-1.41,3.24.47,5.78,1.73,7.08,4.81,1.4,3.3,2.29,6.75,2.2,10.37-.03,1.06.17,2.28-1.18,2.78-.74.27-1.28-.48-1.67-2.3-.51-2.41-.89-4.85-1.57-7.21-.84-2.92-2.79-4.54-5.98-4.69-4.03-.19-7.95.38-11.74,1.58-4.47,1.42-8.84,1.57-13.25-.11-2.39-.91-4.79-1.02-7.23-.14-2.71.98-5.36.92-7.92-.55-.59-.34-1.26-.54-1.9-.77-3.42-1.25-6.47-2.95-8.04-6.48-.04-.08-.22-.1-.51-.21-.55.86-1.04,1.8-1.69,2.62-.79.99-2.86,1.51-3.92-.02-.93-1.34-1.88-2.67-2.78-4.03-.82-1.25-1.51-2.63-3.08-3.02-.21.01-.37-.02-.48.04-3.17,1.96-4.29,1.66-5.56-1.49-.65-1.63-1.08-3.38-2.31-4.66-.52-.09-.95-.27-1.32-.2-2.64.52-4.15-1.01-5.28-3.01-.94-1.66-1.61-3.47-2.46-5.18-.78-1.57-1.64-3.11-2.47-4.66-2.14-.1-4.02-.19-6.26-.29.47,1.3.7,2.37,1.2,3.29,3.05,5.67,6.43,11.14,10.29,16.3.65.87,1.48,1.61,2.28,2.34,4.14,3.79,8.31,7.55,12.43,11.35,4.05,3.74,8.37,7.05,13.4,9.41,4.46,2.09,8.85,4.32,13.31,6.39,3.72,1.73,7.46,3.44,11.27,4.95,5.14,2.04,10.44,3.26,16.05,2.67,3.13-.33,6.27-.7,9.41-.82,5.75-.23,11.03-1.9,15.95-4.79,4.6-2.7,9.08-5.57,12.98-9.28,6.43-6.12,11.76-12.97,14.52-21.55,2-6.23,3.02-12.49.83-18.92-.44-1.29-.62-2.66-.9-4-.57-2.67-1.02-5.38-1.74-8.02-1.33-4.86-3.88-9-7.6-12.45-6.38-5.9-13.6-10.58-21.23-14.67-2.05-1.1-4.21-2.01-6.23-3.15-4.44-2.51-9.14-4.25-14.08-5.54-4.76-1.25-9.59-2.29-14.18-4.17-3.32-1.36-6.85-1.8-10.44-2.05-4.98-.34-9.87.31-14.7,1.23-3.61.69-7.2,1.73-10.5,3.48-.57.3-1.27.58-.99,1.69,3.55,1.35,6.68,3.9,10.64,5,1.8-1.52,3.5-2.9,5.13-4.35,2.18-1.95,4.75-2.61,7.58-2.41.34.02.85.33.94.62.15.47.2,1.14-.04,1.52-.69,1.1-1.8,1.57-3.1,1.74-1.97.27-3.48,1.31-4.76,3.01,1.82,2.27,3.02,4.69,3.55,7.42.11.57.23,1.4,1.11,1.41.94-.86,1.78-1.77,2.76-2.48,1.33-.95,2.55-.85,3.7.33.94.98,1.68,2.15,2.53,3.22.73.91,1.64,1.56,2.85,1.17,3.03-.99,4.64.77,5.99,3.01.49.82.87,1.71,1.26,2.58.63,1.44,1.69,2.08,3.27,1.88.41-.05.82-.04,1.23-.05,2.15-.03,3.69,1.01,4.64,2.84.69,1.33,1.2,2.75,1.71,4.17.38,1.07.85,2.01,2.13,2.61.5-.1,1.19-.14,1.82-.37,2.4-.9,4.28-.13,5.87,1.69.63.72,1.19,1.5,1.82,2.22,1.27,1.42,2.48,2.92,3.89,4.2,1.54,1.4,3.29,2.27,5.58,2.04,2.58-.26,4.82.81,6.66,2.64.39.39.78.77,1.16,1.17,1.4,1.48,3.09,2.16,5.15,2.08,1.08-.04,2.19.08,3.24.31.43.09,1.06.69,1.05,1.04-.01.58-.32,1.43-.77,1.67-1.3.69-2.74,1.14-4.15,1.69-1.99,3.09-2.68,6.4-1.37,9.81,1.09,2.83.55,5.37-.68,7.89-.9,1.84-1.84,3.68-2.99,5.37-1.36,2-2.3,4.06-2.02,6.51.46,3.88-1.13,7.24-2.67,10.6-.38.84-1.05,1.62-1.78,2.18-.45.35-1.39.48-1.87.23-.47-.23-.96-1.1-.89-1.62.13-1.05.48-2.14,1.02-3.05,1.03-1.72,1.21-3.37-.03-4.97-2.18-2.81-2.16-5.86-.99-8.95,1.14-3,1.15-6.17,1.73-9.25.33-1.78.16-3.61-.74-5.2-2.08-3.65-4.54-6.89-9.19-7.37-1.8-.19-3.36-.87-4.92-1.83-2.2-1.35-4.52-2.61-7.25-2.65-2.98-.05-5.55-1.27-7.96-2.93-2.14-1.47-4.33-2.88-6.54-4.24-2.6-1.59-4.99-3.35-6.55-6.08-.61-1.06-1.41-2.03-2.23-2.95-.72-.8-1.48-1.7-2.41-2.16-3.8-1.86-6.73-4.72-9.18-8.04-1.69-2.28-3.66-3.62-6.53-3.48-.41.02-.82-.01-1.23-.04-2.94-.18-5.22-1.52-6.86-3.94-.92-1.36-1.88-2.71-2.68-4.14-1.13-2-2.91-2.87-5.07-2.97-1.21-.06-2.49,0-3.64.35-4.72,1.39-9.41,2.9-14.1,4.38-1.63.51-2.82,1.58-3.84,2.94-3.74,4.98-4.59,10.77-4.54,16.72.03,3.72,3.81,7.41,7.28,6.79,2.1-.38,3.77.66,4.87,2.38,1.17,1.84,2.18,3.79,3.18,5.73.87,1.69,1.63,3.43,2.4,5.08,1.62.19,2.97.35,4.19.5,1.14,1.17,2.17,2.23,3.22,3.3.5-.36.79-.64,1.14-.82,1.63-.83,3.05-.53,3.88.86.35.58.54,1.25.8,1.88,1.09,2.58,1.68,3.26,4.81,5.54.43-1.02.73-2.06,1.26-2.97,1.01-1.74,3.18-1.96,4.53-.5.45.49.81,1.1,1.11,1.71.66,1.35,1.4,2.69,1.86,4.12.55,1.71,1.63,2.85,3.19,3.55,2.24,1.01,4.52,1.92,6.88,2.92Zm35.95-38.93c-1.04.27-1.82.48-2.59.69-2.62.7-4.18.21-5.61-2.02-.65-1.01-1.01-2.22-1.46-3.35-.59-1.49-.66-3.26-2.2-4.19-.34-.04-.62-.12-.88-.09-4.46.57-5.85-.18-7.73-4.15-.52-1.09-1.09-2.16-1.53-3.05-.57-.15-.86-.32-1.09-.27-3.13.77-5.29-.46-6.88-3.13-.45-.76-.93-1.74-2.33-1.58-.61.74-1.25,1.62-1.98,2.42-1.87,2.06-4.2,1.62-5-1.01-.44-1.43-.59-2.95-.88-4.43-.34-1.75-.76-3.47-2.38-4.6-.46.09-.9.08-1.23.26-2.62,1.41-4.98.77-7.34-.72-2.31-1.47-4.69-2.82-7.08-4.16-.67-.37-1.46-.53-2.12-.76-1.44,2.01-1.45,2.01-1.45,4.56,2.95,1.17,4.91,3.59,6.56,6.32.42.7.89,1.38,1.38,2.04,1.28,1.74,2.81,2.84,5.16,2.72,3.69-.2,6.62,1.38,8.87,4.28.34.43.72.83,1.07,1.24,2.16,2.49,4.43,4.82,7.32,6.52,2.13,1.25,3.84,3.02,5.35,5.04,1.38,1.85,2.82,3.82,4.67,5.11,3.35,2.34,7,4.28,10.6,6.24,1.16.63,2.57.87,3.89,1.17,3.47.77,6.94,1.38,9.89,3.7,1.41,1.11,3.31,1.4,5.48,1.35-1.69-2.79-3.84-4.45-6.42-5.48-2.54-1.01-5.19-1.73-7.76-2.67-1.4-.51-2.9-1.01-4.07-1.89-2.04-1.55-4.29-2.45-6.77-2.71-2.17-.22-3.88-1.3-5.43-2.66-.82-.72-1.52-1.59-2.15-2.48-1.35-1.91-3.02-3.5-4.66-5.15-2-2.02-3.57-4.47-5.2-6.82-.28-.4-.14-1.46.21-1.8.36-.35,1.38-.45,1.82-.18,1.02.63,2.07,1.4,2.74,2.37,1.19,1.71,2.53,3.19,4.12,4.53,1.13.95,1.99,2.25,2.91,3.44.76.97,1.39,2.04,2.17,2.99,1.25,1.52,2.72,2.6,4.84,2.73,2.66.16,5.03,1.14,7.06,2.97.69.62,1.58,1.12,2.46,1.43,2.31.82,4.65,1.55,7,2.23,4.68,1.35,7.93,4.3,9.55,8.84.58,1.64,1.45,2.87,2.67,4.01,1.09,1.02,2.17,2.12,2.97,3.36,2.37,3.68,3.66,7.61,2.35,12.05-.23.78-.31,1.62-.33,2.44-.02.86-.61,1.73.04,2.93,1.19-1.81,2.26-3.37,3.27-4.97,1.51-2.42,2.22-4.94,1.16-7.79-1-2.69-.59-5.39.31-8.05.3-.88.55-1.78.85-2.75-1.53-1.36-3.04-2.54-4.36-3.91-1.32-1.37-2.73-2.03-4.69-2.04-5.04-.04-8.81-2.51-11.66-6.57-1.09-1.55-2.3-3.01-3.48-4.55Z"/>
    <path class="cls-1" d="m252.44,405.12c.3.66.81,1.63,1.19,2.65,1.27,3.37,1.85,6.77,1.27,10.44-.67,4.19-1.2,8.36-2.56,12.42-2.35,7-7.18,11.09-14.18,12.94-5.82,1.54-11.54,1.68-17.4-.1-5.94-1.8-11.49-4.36-16.95-7.21-3.52-1.84-7.09-3.61-10.17-6.16-2.84-2.35-5.75-4.65-8.41-7.19-4.04-3.87-7.88-7.95-11.83-11.92-7.67-7.71-13.09-16.83-16.69-27.01-1.68-4.76-2.53-9.77-2.81-14.85-.3-5.46-.52-10.93-1.03-16.38-.33-3.52.34-6.85,1.42-10.08,2.21-6.6,5.85-12.32,11.08-16.99,6.25-5.58,13.33-9.47,21.62-11.14,6.53-1.32,12.81-.53,18.91,1.91,5.6,2.24,11,4.87,15.24,9.35,3.9,1.71,6.43,5.05,9.17,8.04,7.76,8.44,13.95,17.91,18.01,28.68,1.83,4.86,3.68,9.73,5.15,14.71,1.61,5.43,2.01,11.02.72,16.63-.24,1.06-.32,2.16-.49,3.25-.4,2.56-.82,5.12-1.28,8Zm-56.42-54.09c.12.33.25.66.08.21.3.38.09.11-.13-.16-.44-.82-.46-1.69.4-2.13.52-.26,1.38-.26,1.91-.01.7.34,1.29.98,1.82,1.6.62.72,1.11,1.56,1.68,2.33.82,1.13,1.74,2.09,3.26,2.25,1.3.14,2.23.96,3.03,1.94,1.04,1.27,2.14,2.49,3.13,3.8,1,1.32,1.96,2.61,3.62,3.21,1.34.48,2.21,1.55,2.96,2.73.95,1.5,1.98,2.87,3.51,3.94.92.64,1.56,1.9,1.98,3.01.79,2.05,1.93,3.44,4.19,4.09,2.32.66,3.39,2.85,3.26,5.78-2.34-.9-3.06-4.66-6.48-3.65.6.67,1.22,1.23,1.66,1.91,1.47,2.3,3.56,3.56,6.13,4.42,6.71,2.24,11.95,6.51,16.11,12.19.51.7.75,1.83,1.99,1.83.95-.97.78-2.02.09-2.96-2.17-2.97-4.03-6.17-6.56-8.89-2.7-2.9-5.24-5.95-7.83-8.96-1.19-1.38-2.45-2.51-4.4-2.75-.76-.09-1.55-.56-2.16-1.06-2.41-1.97-5.39-3.34-6.81-6.4-.22-.47-.78-.76-1.14-1.17-1.45-1.64-2.89-3.29-4.31-4.95-2.14-2.49-4.09-5.17-6.43-7.44-2.47-2.4-5.03-4.63-5.7-8.03-2.09-.8-3.76-2.31-5.96-.99-.35.21-1.05-.11-1.57-.26-2.8-.78-5.5-1.74-7.01-4.2-2.43-.36-4.59-.69-6.75-1.01.31-.73.85-1.4.18-2.26-.37-.47-.53-1.11-.86-1.85,2.6-1.01,5.5-.87,6.85-3.26-.18-2.64-.4-5.08-.49-7.53-.03-.79.2-1.61.46-2.37.1-.29.62-.6.94-.59.33,0,.85.34.93.63.25.92.27,1.89.5,2.82.69,2.78,1.34,5.5,4.13,7.22,1.17.72,1.84,2.3,2.65,3.55.15.23,0,.85-.22,1.09-.21.22-.75.3-1.06.19-.62-.22-1.48-1.03-1.71-.86-1.98,1.45-3.61.06-5.31-.63-1.01.56-1.93,1.06-3.62,1.99,1.55,0,2.2.02,2.85,0,1.9-.07,3.34.2,4.14,2.42.63,1.76,2.86,2.13,4.45.93,1.48-1.12,2.69-1.11,4.02.04.52.44,1.02.91,1.57,1.3.55.38,1.57-.08,1.56-.75-.03-1.91-.03-3.83-.3-5.71-.31-2.13-.9-4.22-1.37-6.31,1.12-.92,2.04-.39,2.47.45.6,1.19,1.05,2.54,1.2,3.87.23,2.03.09,4.1.21,6.15.12,2.04.42,4.06.55,6.1.13,1.96,1.22,3.26,2.64,4.44,1.47,1.22,2.88,2.52,4.35,3.75.49.41,1.09.7,1.71,1.09,1.91-1.74,3.37-3.42,2.95-6.1-.09-.61.21-1.33.47-1.93.31-.71,1.68-.79,2.12-.15.3.44.58.94.71,1.45.41,1.7.06,3.27-1.01,4.65-1.16,1.48-2.37,2.93-3.55,4.37,1.07,2.03,2,3.69,4.49,3.98,1.76.21,2.86,1.52,2.83,3.47,0,.41-.08.83,0,1.22.19.87.71,1.51,1.65,1.56.78.04,1.57-.06,2.53-.11.07-.87.18-1.53.15-2.18-.03-.82-.21-1.63-.26-2.45-.05-.68-.06-1.36.01-2.04.09-.92.95-1.74,1.61-1.45.53.23,1.16.82,1.26,1.35.33,1.6.42,3.25.61,4.88.41,3.5,1.81,6.48,4.18,9.16,2.99,3.37,5.67,7.01,8.56,10.48,1.37,1.65,2.71,3.37,4.66,4.96.3-1.1.7-1.87.69-2.63-.04-2.86.01-5.75-.4-8.57-.67-4.62-2.53-8.92-4.05-13.31-4.37-12.6-11.04-23.75-20.31-33.38-7.17-7.46-15.58-12.87-25.49-15.87-5.1-1.55-10.27-1.47-15.43-.37-7.77,1.66-14.12,5.81-19.55,11.44-2.66,2.76-5.09,5.73-6.74,9.25-.57,1.21-1.36,2.35-1.11,4,2.19.03,3.91-1.43,5.9-1.62,1.9-.18,3.83-.23,5.74-.16,2.01.07,4.01.36,6.01.55.05-.51.18-.81.09-1.02-.7-1.63-1.45-3.24-2.15-4.86-.38-.87-.86-1.75-.98-2.67-.07-.52.37-1.4.82-1.62.46-.22,1.46-.05,1.8.33.8.9,1.61,1.95,1.95,3.08.95,3.12,3.43,4.69,5.89,6.34.14.37.16.89.43,1.1,3.58,2.81,7.18,5.59,10.8,8.35.3.23.75.26,1.14.38Zm-3.66,41.14c-.12,1.44-.42,2.42-.24,3.3.74,3.76,2.58,6.87,5.96,8.86,1.64.96,2.86,2.11,2.87,4.15,0,1.36.67,2.36,1.82,3.02,1.96,1.12,3.29,2.87,4.61,4.62,1.07,1.41,2.12,2.81,2.02,4.8-.07,1.4.98,2.06,2.3,2.47,4.47,1.38,6.52-.6,7.54-3.97.12-.39.28-.77.38-1.17.88-3.49,2.62-6.61,4.23-9.78.37-.72.84-1.43,1.41-2,.33-.33,1.03-.61,1.41-.47.33.12.66.88.61,1.3-.12.94-.45,1.86-.77,2.76-.88,2.45-1.94,4.84-2.68,7.33-.94,3.14-1.74,6.3-4.28,8.82,2.27,1.59,4.36,2.79,7.02,3.3.69-1.09,1.26-2.16,2-3.11.34-.44,1-.64,1.54-.97,1.31,2.19-.55,3.92-.22,6.13,1.7,1.4,3.47,3.15,5.51,4.48,4.07,2.67,9.94,1.91,12.46-3.5.52-1.11,1.06-2.26,1.31-3.44.78-3.74,1.39-7.52,2.15-11.27.66-3.24-.04-6.24-1.39-9.15-.1-.21-.42-.32-.63-.47-1.01.15-2.03.3-3.5.51.87-1.57,1.48-2.69,2.04-3.7-4.49-8.05-10.46-13.12-16.59-14.32-.69.63-1.33,1.2-2.16,1.96-.48-.91-.8-1.49-1.09-2.1-1.58-3.36-3.45-6.69-6.12-9.16-3.94-3.64-7.34-7.74-11.14-11.49-6.24-6.17-12.49-12.32-19.27-17.9-2.19-1.8-4.42-3.54-7.47-5.37.69,2.22,1.2,3.74,1.63,5.29.47,1.71.97,3.43,1.24,5.17.18,1.19.1,2.47-.08,3.67-.12.82-.66,1.53-1.95,1.18-1.04-2.79-.54-6.09-1.91-8.88-2.67.27-3.27-.07-3.68-2.03-.08-.4-.14-.81-.19-1.22q-.39-3.79-4.14-4.56c-.4-.08-.79-.26-1.2-.3-4.24-.36-8.51-.8-12.54,1.01-4.72,2.12-4.57,1.63-4.52,6.58.06,5.34.51,10.67.73,16,.35,8.39,3.06,16.1,6.82,23.47,3.26,6.39,7.57,12.05,12.54,17.21,3.14,3.25,6.36,6.43,9.52,9.65,10.12,10.31,22.32,17.1,36.09,21.14,4.42,1.3,9,1.62,13.65.17-2.31-1.78-4.45-3.44-6.6-5.09-1.09-.84-2.17-1.67-3.72-1.37-.33.06-.91-.14-1.09-.42-1.64-2.46-4.54-2.95-6.8-4.42-2.13-1.38-4.34-1.3-6.69-.44-1.79.66-3.68,1.03-5.53,1.49-.39.1-.87.18-1.21.03-.46-.19-1.03-.53-1.19-.94-.16-.41-.03-1.13.26-1.48.51-.61,1.23-1.06,1.89-1.54.63-.46,1.3-.87,1.82-1.22-.52-1.53-1.21-2.78-1.31-4.08-.12-1.51-.78-2.6-1.76-3.57-.97-.96-1.94-1.95-3.05-2.74-1.89-1.33-3.26-2.94-3.47-5.31-.11-1.26-.89-1.93-1.9-2.47-.72-.39-1.49-.73-2.15-1.21-1.57-1.16-2.86-2.46-3.06-4.62-.13-1.34-.66-2.65-1.13-3.94-.65-1.8-1.28-3.62-3.26-4.51-.44-.2-.87-.73-1.04-1.2-.72-2.06-1.61-4.2-1.04-6.38.44-1.64.13-2.88-.7-4.25-.56-.92-.87-2-1.22-3.04-2.29-6.75-2.01-13.76-2.02-20.74,0-.52.26-1.05.49-1.54.08-.18.44-.22.93-.44.17.66.44,1.27.47,1.88.12,2.87.06,5.76.28,8.62.4,5.35,1.15,10.63,4.23,15.24.72,1.08,1.22,2.33.76,3.49-.87,2.18-.1,3.99.65,5.8,1.56.82,3,1.57,4.55,2.38Zm27.86-16.9c-.11-.88-.01-1.4-.21-1.57-2.36-2.05-4.19-4.54-6.07-7-.57-.75-1.5-.71-2.77-.53,3.15,3.05,5.51,6.3,9.05,9.1Zm-12.03-12.41c.17-.19.34-.37.52-.56-.35-.56-.63-1.17-1.05-1.66-1.86-2.15-4.12-3.32-4.04-2.4.14,1.67,1.86,2.08,2.82,3.11.52.56,1.16,1,1.75,1.5Z"/>
    <path class="cls-1" d="m325.44,571.2c-.03,3.53-.09,3.79-2.47,5.85-8.25,7.11-17.7,11.85-28.39,13.99-4.6.92-9.27.78-13.91.18-3.53-.46-7.08-.86-10.53-1.66-3.18-.74-6.31-1.81-9.34-3.05-6.62-2.71-12.77-6.22-18-11.21-2.51-2.4-4.49-5.16-6.09-8.2-2.28-4.34-4.56-8.69-6.65-13.13-3.61-7.7-6.48-15.7-7.69-24.14-.52-3.61-.46-7.4-.03-11.04.97-8.32,3.12-16.37,6.9-23.92.86-1.71,1.54-3.51,2.46-5.18,1.97-3.54,4.85-6.28,8.11-8.58,2.34-1.65,4.77-3.22,7.31-4.55,4.72-2.47,9.85-3.1,15.12-2.94,8.38.26,13.34,5.54,17.52,11.93.52.79.9,1.66,1.43,2.64.84,0,1.65.08,2.44-.01,3.92-.48,7.64.25,11.19,1.86,4.13,1.87,8.01,4.14,11.49,7.09,6.29,5.33,12.23,10.95,16.61,18.04,5.74,9.28,10.09,19.11,12,29.91,1.04,5.88.69,11.74-1.25,17.42-1.72,5.05-3.23,6.55-8.24,8.72Zm-71.68-31.63c.17.35.22.68.41.81,2.63,1.75,5.16,3.62,7.14,6.12.25.31.56.66.92.78,2.41.83,3.73,2.61,4.62,4.9.63,1.63,1.97,2.58,3.66,3.02,1.72.45,3.46.86,5.14,1.43,1.42.48,2.81,1.09,4.13,1.8,1.12.6,1.84,1.64,2.07,2.93.13.69.07,1.47-.69,1.73-.42.14-1.14,0-1.45-.31-1.32-1.27-2.86-2.11-4.57-2.66-1.82-.59-3.62-1.29-5.48-1.74-2.58-.63-4.5-2.08-5.69-4.36-.98-1.87-1.89-3.6-4.18-4.15-.56-.13-1.04-.87-1.41-1.43-2.56-3.79-6.16-6.12-10.41-7.61-1.14-.4-2.21-1.01-3.37-1.55v-2.86c-1.35-1.22-2.53-2.37-3.81-3.4-1.44-1.16-2.46-2.48-2.81-4.37-.17-.89-.83-1.68-1.3-2.51-.8-1.43-1.67-2.82-2.42-4.28-1.46-2.85-2.01-5.93-2.33-9.1-.24-2.44-.51-2.57-3.46-2.85-.18.34-.44.68-.55,1.06-1.44,5.04-1.69,10.23-2.07,15.41-.05.68.01,1.37.12,2.05,1.39,8.99,4.16,17.55,8.19,25.71,1.39,2.82,2.87,5.6,4.36,8.36,2.49,4.59,5.13,9.08,9.44,12.27,1.98,1.47,3.94,2.98,6.03,4.29,5.61,3.51,11.54,6.26,18.15,7.32,2.03.32,4.02.84,6.05,1.14,4.06.61,8.13,1.43,12.26.89,11.3-1.49,21.32-5.89,29.9-13.43.45-.39.7-1,1.04-1.52-1.42-1.27-3-1.27-4.42-1.65-2.65-.7-5.33-1.25-7.98-1.93-.66-.17-1.21-.65-.68-1.7.55-.05,1.22-.16,1.88-.15,2.47.04,4.93.17,7.4.16,2.05,0,4.12-.04,6.15-.26,2.62-.28,4.54-1.62,5.72-4.1,2.5-5.23,3.26-10.79,2.6-16.41-.6-5.02-2.2-9.88-4.12-14.58-2.55-6.23-5.97-11.99-9.66-17.61-4.28-6.51-10.22-11.35-16.19-16.12-2.21-1.77-4.92-3-7.54-4.15-2.33-1.03-4.76-2.01-7.36-2.11-.86,2.63-.93,3.2-.37,5.28.97,3.56,1.99,7.11,2.98,10.66.67,2.39,1.49,4.92.75,7.27-.76,2.4-.06,4.23.87,6.24.69,1.48,1.52,3,1.72,4.58.3,2.32.76,4.54,1.5,6.77.77,2.34.81,4.94-.39,7.16-1.04,1.91-1.07,3.61-.21,5.46.9,1.92,1.1,3.97.94,6.03-.43,5.8.01,11.47,1.77,17.05.44,1.38.45,2.97.35,4.44-.17,2.45-.55,4.89-.94,7.31-.1.59-.58,1.12-1.03,1.96-.53-.68-1.02-1.04-1.12-1.49-.2-.93-.17-1.9-.28-2.85-.54-4.33-.41-8.72-1.72-12.99-1.08-3.51-2.89-6.19-6.37-7.49-2.98-1.11-5.11-3.16-6.59-5.87-1.02-1.87-2.44-3.26-4.16-4.45-1.58-1.09-3.1-2.25-4.58-3.46-.51-.41-.85-1.05-1.18-1.63-.09-.16.03-.55.18-.72.15-.17.55-.33.7-.25,1.32.71,2.58,1.54,3.91,2.22.65.33,1.21,1.25,2.37.38-.36-1.33-.78-2.75-1.11-4.19-.53-2.27-1.82-3.94-3.84-5.07-.84-.47-1.67-.94-2.49-1.43-.7-.42-1.43-.82-2.06-1.33-.26-.21-.48-.74-.39-1.03.08-.28.61-.65.89-.61,1.21.19,2.39.54,3.59.79.61.13,1.23.18,2.44.35-1.31-2.41-2.34-4.31-3.25-5.97-2.59-.72-4.84-1.32-7.07-1.97-1.37-.4-2.5-1.17-3.09-2.5-.17-.39.02-.95.07-1.83,2.18,1.01,4.02,1.87,5.86,2.71.61.28,1.24.58,1.86-.3-.81-2.29-2.71-3.57-4.71-4.78-1.52-.92-3.04-1.84-4.47-2.88-.67-.48-1.07-1.29-.54-2.16.49-.81,1.29-.96,2.15-.85.4.05.8.17,1.18.33,2.93,1.23,5.61,2.8,7.9,5.07,3.28,3.24,5.61,7.08,7.34,11.28.61,1.49.98,3.16,1.08,4.77.3,4.83,1.87,9.39,2.86,14.06.14.66.48,1.28.78,1.9.68,1.4,1.62,2.43,3.21,2.95,1.93.64,3.86,1.4,5.29,2.99.2.22.71.15,1.2.24.46-2.86.64-5.56-.52-8.17-1-2.23-1.05-4.48-.4-6.82.55-1.95.26-3.82-1.07-5.41-1.39-1.66-1.96-3.54-1.91-5.69.02-.75-.3-1.5-.59-2.88-.88,1.62-1.44,2.65-1.65,3.05.13,1.64.24,2.56.28,3.48.04.94-.21,1.95.04,2.81.76,2.62,1.67,5.2,2.59,7.77.66,1.83,1.01,3.69.82,5.62-.09.85-.42,1.62-1.74,1.49-.22-.33-.56-.75-.79-1.22-2.6-5.49-4.01-11.35-5.3-17.23-.2-.91-.31-2.01,0-2.84,1.02-2.71.07-4.82-1.72-6.74-2.11-2.25-3.19-5.09-4.43-7.82-1.12-2.47-.88-5.1-.17-7.63.17-.6,1.06-.99,1.64-1.48,1.05,1.3.71,2.59.82,3.79.17,1.92.42,3.84,1.62,5.44,2.19,2.94,4.42,5.86,7.06,9.33-.17-1.34-.19-2.08-.36-2.78-.67-2.92-1.86-5.81-1.96-8.74-.11-3.13-.81-5.97-2.1-8.69-1.77-3.76-2.95-7.58-3.27-11.77-.48-6.33-4.91-10.12-9.69-13.5-.54-.38-1.26-.54-1.92-.69-6.27-1.44-12.33-.55-17.94,2.34-3.26,1.67-6.38,3.75-9.03,6.39-1.07,1.06-2.21,2.1-3.02,3.34-3.03,4.62-4.91,9.77-6.59,14.99-.34,1.05-.45,2.17.64,3.09.31,0,.71,0,1.1,0,2.3-.06,2.7.23,3.07,2.27.12.67.28,1.36.24,2.04-.15,2.4.64,4.58,1.39,6.79,1.02,3,1.91,6.04,5.44,7.18.36.12.62,1.15.58,1.74-.04.62-.5,1.21-.77,1.82,2.48,3.33,5.43,5.48,9.62,5.67,1.62.07,3.24.51,4.82.93.4.11.87.75.91,1.19.04.42-.32,1.08-.69,1.3-.67.4-1.49.56-2.26.82Z"/>
    <path class="cls-1" d="m652.54,403.33c.59-1.01-.45-1.78-.16-2.9-4.07-.81-5.6-3.75-6.41-7.23-.29-1.26-.91-2.19-1.71-3.18-3.01-3.75-5.44-7.88-7.63-12.15-.42-.81-.55-1.8-.67-2.72-.04-.28.34-.77.64-.9.31-.13.87-.08,1.13.13.52.42.97.96,1.35,1.51,1.64,2.36,3.21,4.77,4.89,7.1,1.27,1.77,2.7,3.42,3.95,5.2.61.87,1.15,1.87,1.39,2.89.31,1.34.56,2.66,1.47,3.69.31,0,.61.09.81-.01,2.79-1.51,3.61-1.18,4.15,1.78.2,1.07.2,2.18.35,3.26.32,2.38,1.2,4.43,3.15,6.02,1.47,1.21,2.73,2.68,4.1,4.02.49.48.96.98,1.5,1.4.99.76,2.12.74,2.97-.13.94-.96,1.75-2.04,2.52-2.95-.73-2.29-1.91-3.79-3.81-4.88-1.27-.73-2.23-1.98-3.34-2.98-.39-.35-.8-.94-1.21-.95-2.08-.08-2.71-1.47-3.29-3.12-.25-.73-.8-1.49-1.44-1.92-1.5-1.01-2.12-2.43-2.43-4.11-.17-.93-.51-1.82-.82-2.87-3.85-.66-4.8-3.64-5.42-6.84-.2-1.06-.25-2.14-.41-3.6-.69.85-1.13,1.5-1.68,2.05-1.04,1.03-2.35.83-3.06-.45-.33-.59-.6-1.24-.77-1.9-.34-1.32-.59-2.67-.89-4-.69-3.07-1.26-6.18-3.27-8.77-.31-.4-.37-1-.57-1.58,2.24-3.35,4.82-6.35,7.99-8.77,4.12-3.15,8.22-6.36,12.57-9.16,5.36-3.46,11.3-5.27,17.75-5.79,5.46-.44,10.63.6,15.81,1.87,1.31.32,2.55.99,3.76,1.61,4.18,2.13,7.83,5,11.15,8.3.48.48,1.12,1,1.25,1.59.33,1.47,1.59,1.98,2.45,2.93,3.2,3.54,6.6,6.94,8.8,11.29,2.25,4.44,3.74,9.08,4.38,14.02.76,5.85,1.21,11.72,1.16,17.61-.1,10.47-3.9,19.47-11.28,26.94-6.09,6.17-12.95,11.37-20.28,15.98-7.56,4.76-15.57,8.58-24.04,11.42-4.96,1.67-10.1,2.65-15.3,2.62-7.03-.05-13.86-1.4-20.25-4.52-.49-.24-.98-.48-1.49-.7-6.93-2.91-12.21-7.82-16.3-13.96-4.1-6.15-6.24-13.01-6.53-20.45-.27-6.93.77-13.66,2.79-20.24.72-2.34,1.81-4.6,3.02-6.73,1.09-1.92,1.95-3.89,2.7-5.95,1.65-4.54,3.88-8.74,7.46-12.13,1.93-1.83,4.24-3,6.63-4.03,1.28-.55,2.44.29,2.55,1.76.05.68,0,1.37-.03,2.05-.19,5.16.59,10.09,3.45,14.52,3.19,4.94,6.37,9.9,9.62,14.81,1.36,2.05,2.28,2.72,4.82,4.22Zm-29.97,34.26c1.35,2.56,2.94,3.83,4.59,5.02,5.54,3.97,11.77,6.33,18.38,7.82,7.96,1.8,15.73,1.21,23.44-1.45,8.86-3.06,17.15-7.22,24.94-12.41,8.48-5.65,16.32-11.99,22.16-20.5,3.25-4.73,5.2-9.93,5.49-15.67.34-6.57.26-13.11-.79-19.65-.78-4.83-2.3-9.37-4.81-13.42-2.73-4.4-6.1-8.41-9.31-12.49-.87-1.11-1.91-2.22-4.01-3.14,1.77,4.47,2.13,8.53,2.12,12.62,0,4.38.02,8.76-.22,13.13-.19,3.43-1.09,6.76-2.39,9.95-.94,2.3-2.24,4.39-4.03,6.14-.4.39-.88.69-1.41.16-.03-.13-.11-.27-.08-.37.2-.5.37-1.03.65-1.48,3.09-4.9,4.32-10.32,4.41-16.03.05-3.15.2-6.31,0-9.45-.35-5.46-1.05-10.84-3.09-16.04-1.33-3.4-3.52-5.41-6.86-6.46-5.82-1.82-11.69-2.71-17.8-1.61-5.08.92-9.81,2.55-13.85,5.84-4.25,3.45-8.51,6.89-12.67,10.44-1.95,1.67-3.67,3.62-5.56,5.51.59,1.57,1.14,2.96,1.63,4.36.51,1.44.5,3.12,1.87,4.49.47-.88.76-1.49,1.11-2.07.42-.7.83-1.43,1.36-2.04,1.14-1.3,3.07-.96,3.62.67.26.76.33,1.6.35,2.41.04,1.92-.04,3.84,0,5.75.03,1.23.11,2.47.38,3.66.21.94.73,1.89,1.9,1.85,1.94-.07,2.62,1.13,3,2.73.13.53.35,1.04.48,1.57.89,3.58.96,3.68,4.55,5.94.89-3.88,1.71-7.76,2.72-11.59.37-1.42,1.15-2.75,1.89-4.04.34-.6,1.13-.92,1.79-.51.39.24.75.85.76,1.3.02.95-.17,1.9-.33,2.84-.72,4.18-1.48,8.35-2.17,12.54-.18,1.07-.15,2.18-.18,3.28-.03,1.07.48,1.94,1.43,2.3,2.39.91,4.57,2.54,7.41,2.24.62-.45,1.27-.96,1.96-1.4,2.08-1.33,3.66-1.25,5.68.12,1.34.91,1.93,2.25,2.43,3.69.73,2.12,2.17,3.43,4.41,3.83.67.12,1.34.46,1.99.43,3.44-.19,5.66,1.84,7.54,4.25,1.33,1.71,2.33,3.7,3.4,5.6.24.42.27,1.07-.68,1.3-.4-.4-.92-.83-1.34-1.34-.78-.95-1.48-1.97-2.25-2.93-1.85-2.3-3.92-4.12-7.2-4.05-1.31.03-2.66-.57-3.96-1-2.05-.68-3.54-2.04-4.43-4.03-.39-.87-.69-1.8-1.16-2.63-.24-.43-.75-.71-1.19-1.11-2.25.92-3.74,2.48-4.77,4.45-1.28,2.46-3.05,4.54-4.8,6.64-1.96,2.36-4.44,2.96-7.36,2.1-2.01-.59-3.76-1.59-5.41-2.85-2.28-1.74-4.61-3.43-6.99-5.03-3.11-2.09-5.8-4.59-7.87-7.71-2.04-3.08-3.94-6.25-6.01-9.31-3.58-5.29-6.19-10.94-6.9-17.37-.08-.72-.02-1.7-1.08-1.96-3.54,2.48-5.43,4.98-7.15,9.21-1.24,3.03-2.35,6.16-3.95,9-4.22,7.52-5.47,15.69-5.78,24.11-.03.82-.02,1.65.09,2.46.53,3.95,1.46,7.8,2.9,11.52.54,1.4,1.25,2.74,1.97,4.05.69,1.26,1.73,2.08,3.23,2.26.95.11,1.9.3,2.83.5,4.23.91,8.46.08,12.68-.1,1.28-.05,2.54-.86,3.8-1.32,6.05-2.23,11.99-4.69,17.32-8.38.55-.38,1.19-.65,1.82-.89.19-.07.6.07.71.24.2.31.44.78.33,1.07-.23.62-.54,1.32-1.04,1.71-1.95,1.49-3.83,3.19-6.02,4.22-4.08,1.91-8.3,3.59-12.57,5.02-2.56.85-5.33,1.26-8.04,1.48-3.12.25-6.27.06-10.05.06Z"/>
    <path class="cls-1" d="m119.38,438.28c-.06-13.38,7.22-20.24,17.35-22.96.78-.21,1.64-.21,2.45-.14,3.79.33,7.58.72,11.37,1.1.82.08,1.63.28,2.44.3,4.78.11,8.68,2.25,12.21,5.21,4.24,3.56,7.61,7.82,10.33,12.64,2.21,3.93,4.57,7.78,6.8,11.7.87,1.54,1.76,3.12,2.3,4.79,1.93,5.94.08,13.93-4.37,18.77-4.32,4.7-9.58,8.13-15.46,10.61-2.66,1.12-5.33,1.2-7.95-.13-5.86-2.97-12.12-5.13-17.64-8.77-8.81-5.81-15.8-13.15-18.5-23.68-.91-3.55-1.05-7.29-1.34-9.43Zm44.58,7.29c.05.18.11.36.13.43-.03-.06-.1-.22-.17-.39-.95-2.68-1.86-5.38-2.86-8.05-.43-1.14-.99-2.26-2.68-2.26-.14,1.62-.67,3.42.32,4.74,1.52,2.01,2.91,4.25,5.25,5.52Zm-40.42-9.71c-.06-.11-.13-.22-.19-.32.08.1.15.19.23.29-.35,6.13.52,12.04,3.54,17.47,2.89,5.2,6.7,9.62,11.41,13.3,5.89,4.61,12.72,7.46,19.4,10.61.12.06.24.13.37.17,3.24.99,5.57.03,6.95-3.14,1.01-2.33,2.47-4.3,4.36-5.88,1.67-1.4,1.83-2.92,1.03-4.74-.33-.75-.68-1.49-1.03-2.24-.61-1.28-.91-2.64-.5-3.99.96-3.15-.33-5.6-2.26-7.89-.14-.17-.46-.18-.7-.26-.32.5-.64,1-1.1,1.73-1.17-1.01-2.06-1.84-3.02-2.59-.87-.68-1.38-1.86-2.83-2.35.69,3.02,1.3,5.67,1.95,8.52,1.25.67,2.58,1.36,3.88,2.09,1.49.84,2.67,1.97,2.92,3.74.06.45-.24,1.05-.57,1.41-.19.21-.85.25-1.13.09-1.17-.7-2.27-1.51-3.95-2.65.77,1.31,1.24,2.08,1.66,2.86,1.02,1.89,1.09,3.93.86,6-.1.91-.98,1.13-1.83.45-.38-.31-.46-1.04-1.25-.81,0,1.76.01,3.53,0,5.3,0,.82-.01,1.64-.12,2.45-.11.8-1.39,1.24-1.97.68-.48-.47-.92-1.01-1.23-1.6-1.21-2.25-1.25-4.72-1.29-7.2-.02-1.46.56-3-.49-4.49-.59-.14-1.25-.4-1.91-.42-5.1-.15-9.56-2.21-13.91-4.59-2.44-1.33-4.54-3.12-6.12-5.39-3.74-5.37-8.31-10.19-10.85-16.35-.04-.11-.22-.16-.33-.24Zm21.8-13.92c-1.42-.89-2.59-1.6-3.72-2.35-1.34-.89-2.82-1.12-4.32-.76-4.09.98-7.56,3.02-10.36,6.19-.88.99-1.15,2.03-.96,3.38.3,2.2,1.05,4.22,1.96,6.22,2.72,6.03,6.86,11.15,10.58,16.54.91,1.31,2.23,2.42,3.56,3.35,3.83,2.7,8.09,4.55,12.65,5.66.61.15,1.29.02,1.8.02.25-.52.44-.75.48-1,.07-.54.14-1.1.08-1.63-.78-6.4-1.87-12.66-5.53-18.24-2.25-3.43-3.6-7.32-4.33-11.42-.38-2.11-1.27-4.14-1.86-5.96Zm29.65,44.55c2.37.85,3.74.05,4.85-1.93,1.18-2.1,1.46-4.4,1.88-6.66.62-3.34.03-6.47-1.99-9.34-1.64-2.34-3.09-4.82-4.58-7.26-1.78-2.91-3.4-5.92-5.28-8.76-2.42-3.66-5.43-6.84-8.88-9.57-1.38-1.09-2.78-2.14-4.51-2.38-.31.39-.56.57-.62.8-.1.39-.13.81-.12,1.21.14,3.92,2.26,7.07,4.66,9.77,2.34,2.63,4.01,5.51,5.18,8.7,1,2.73,2.24,5.2,4.07,7.48,1.98,2.48,3.33,5.31,2.75,8.71-.16.91-.06,1.94.22,2.82.71,2.19,1.59,4.33,2.36,6.39Zm-19.44-36.36c-2.08-3.08-2.73-5.8-2.71-8.71,0-1.07-.59-1.75-1.54-2.2-1.26-.59-2.53-.82-4-.21.84,1.68,1.93,3.16,2.32,4.8.66,2.76,2.31,4.49,4.67,5.75.12.06.24.11,1.26.56Zm-1.08,7.11c.11-3.74.07-3.8-2.45-5.11.87,1.82,1.66,3.46,2.45,5.11Zm17.28,34.89c.76-.48,1.54-.94,2.28-1.46.19-.13.24-.45.45-.86-1.79-.48-2.25.9-2.73,2.32Z"/>
    <path class="cls-1" d="m422.41,544.95c5.54-.04,9.85.73,14.14,1.68,2.93.65,5.89,1.21,8.83,1.83,1.34.28,2.72.47,3.99.94.85.31,1.95.9,2.22,1.63.62,1.67,1.93,2.61,3.05,3.77,2.03,2.11,3.02,4.6,2.29,7.5-1.52,6-3.33,11.93-7.82,16.48-3.87,3.91-8.2,7.27-13.47,9.17-6.19,2.23-12.53,4.07-19.03,4.98-7.75,1.08-15.54.9-23.18-1.19-.66-.18-1.33-.35-2.01-.41-5.62-.53-8.74-4.23-10.87-8.89-2.4-5.26-1.56-10.17,2.45-14.41,1.59-1.68,3.35-3.2,4.99-4.84.46-.46,1-1.05,1.1-1.65.73-4.25,3.8-6.6,7.16-8.46,2.97-1.64,6.2-2.85,9.39-4.07,2.55-.98,5.23-1.62,7.81-2.52,3.28-1.15,6.64-1.63,8.97-1.53Zm-32.65,41.73c.49.21.95.5,1.44.59,3.62.71,7.23,1.51,10.88,2.05,6.55.97,13.05.81,19.47-1.1,3.67-1.09,7.43-1.88,11.08-3.03,6.73-2.11,12.1-6.28,16.67-11.54.71-.81,1.29-1.8,1.71-2.79,1.01-2.39,2-4.81,2.78-7.28,1.33-4.2.47-6.25-3.5-9.04-1.54.38-3.12.8-4.71,1.16-7.9,1.75-15.95,2.47-23.96,3.51-1.35.18-2.74.15-4.1.06-.38-.03-.83-.59-1.02-1-.08-.18.34-.83.63-.91,2.09-.59,4.19-1.22,6.33-1.61,5.93-1.07,11.87-2.03,17.81-3.03.54-.09,1.1-.11,1.62-.25.55-.15,1.36.24,1.65-.73-4.16-.98-8.22-2.2-12.38-2.83-4.03-.61-8.08-1.3-12.25-.57-7.47,1.32-14.57,3.71-21.41,6.91-1.57.74-2.93,2-4.26,3.17-.54.47-.76,1.3-1.23,2.17,1.04.34,1.79.68,2.58.82,3.1.57,6.19,1.16,9.31,1.58,4.07.55,8.02,1.7,12.17,1.82,7.17.2,14.22-.38,21.16-2.27,1.05-.29,2.13-.51,3.21-.68.82-.13,1.84.5,1.95,1.17.16.92-.29,1.68-1.08,2.01-.99.42-2.07.71-3.14.87-3.52.54-7.03,1.2-10.58,1.43-5.87.38-11.74.66-17.62-.35-5.53-.95-11.11-1.59-16.66-2.45-1.46-.22-2.67-.06-3.77,1-1.47,1.43-3.13,2.67-4.54,4.16-4.17,4.41-3.63,8.24-1.4,12.36.57,1.05,1.43,1.65,2.65,1.61.82-.02,1.64-.08,2.46-.17,6.67-.72,13.33-1.54,20.01-2.15,6.3-.57,12.46-1.81,18.57-3.34,2.95-.74,5.69-1.98,8.19-3.71,2.71-1.87,5.35-3.83,8.05-5.7,1.35-.93,2.74-1.82,4.17-2.62.57-.32,1.29-.44,1.95-.47.32-.02.79.31.96.61.17.3.21.86.03,1.13-.44.68-.98,1.31-1.57,1.86-3.61,3.4-7.75,6.06-11.95,8.66-2.7,1.67-5.59,2.89-8.67,3.65-6.65,1.65-13.42,2.66-20.23,3.26-5.72.5-11.48.69-17.21,1.04-.79.05-1.68-.12-2.25.96Z"/>
    <path class="cls-1" d="m412.12,315.04c-1.54.09-3.31.22-5.09.29-1.08.04-2.17-.02-3.26,0-1.21.03-2.47-.08-3.62.22-2.4.61-4-.38-5.23-2.24-1.46-2.22-2.11-4.77-2.39-7.36-.21-1.89-.24-3.87.1-5.73,2.33-12.6,7.23-24.04,15.36-34.08,3.6-4.46,7.62-8.29,12.98-10.4,2.26-.89,4.72-1.47,7.13-1.74,3.39-.37,6.85-.18,10.25-.48,3.66-.32,6.42.85,8.36,3.99.42.69.97,1.32,1.55,1.89.85.82,1.08,1.78,1.22,2.93.18,1.47.48,3,1.11,4.32,1.67,3.53,1.7,7.15,1,10.85-1.27,6.68-4.2,12.7-7.66,18.47-2.18,3.64-4.41,7.2-7.59,10.15-2.07,1.92-4.29,3.32-6.88,4.3-1.92.72-3.9,1.37-5.68,2.37-3.59,2.02-7.31,3.06-11.67,2.24Zm-8.55-3c.89.16,1.54.39,2.18.39,3.15-.03,6.3-.04,9.44-.25,1.33-.09,2.69-.49,3.93-1,3.55-1.45,7.06-2.99,10.54-4.6,1.09-.5,2.1-1.25,3.02-2.04,3.04-2.61,5.38-5.76,7.42-9.22,2.87-4.85,5.44-9.82,7.25-15.16.94-2.76,1.26-5.61,1.07-8.51-.15-2.29-.5-2.88-2.39-4.47-1.46,2-2.43,4.24-3.41,6.48-2.49,5.65-5.44,11.06-9.13,16.01-4.78,6.4-10.97,11.47-16.63,17.04-.75.74-1.76,1.42-2.77,1.68-4.17,1.11-6.68.31-6.32-4.93.16-2.29.9-4.55,1.5-6.8,1.27-4.76,2.62-9.49,3.91-14.25.61-2.25,1.09-4.53,1.74-6.76.4-1.39.74-2.89,2.49-3.98,0,.96.11,1.63-.02,2.24-.94,4.56-1.84,9.12-2.93,13.65-.96,3.99-2.18,7.92-3.2,11.89-.5,1.96-1.07,3.97-.08,5.9,1.67.72,2.78-.09,3.79-1.06,3.34-3.24,6.6-6.57,9.99-9.75,4.44-4.17,8.09-8.96,10.96-14.28,2.66-4.94,4.93-10.08,7.3-15.17.51-1.1.85-2.33.99-3.54.34-2.86-1.3-4.71-4.22-4.81-1.91-.06-3.84.02-5.75.14-1.63.11-3.27.62-4.88.54-5.15-.28-9.3,1.8-13.09,4.99-5.87,4.95-9.87,11.33-13.56,17.92-3.52,6.3-5.16,13.24-6.45,20.25-.6,3.27-.37,6.57,1.21,9.61.28.54.8.96,1.39,1.64.47-.7.87-1.09,1.04-1.56,1.1-3.09,2.28-6.15,3.19-9.3,1.49-5.12,2.76-10.31,4.2-15.45.33-1.16.93-2.25,1.51-3.32.13-.24.74-.38,1.07-.3.33.08.74.43.85.75.18.49.24,1.08.17,1.6-.33,2.3-.5,4.65-1.14,6.87-1.77,6.18-3.75,12.3-5.64,18.45-.23.74-.34,1.52-.55,2.46Z"/>
    <path class="cls-1" d="m689.54,472.02c-1.27-1.02-2.54-2.04-3.81-3.06-1.74-1.4-2.16-2.59-1.29-4.67,2.32-5.57,5.91-10.18,11.12-13.31,4.09-2.45,8.37-1.84,12,.78,4.29,3.09,8.69,6.13,11.65,10.8,2.55,4.03,4.2,8.3,4.71,12.97.3,2.75-.39,5.46-1.68,7.92-2.87,5.46-6.98,9.94-12.37,12.8-4.78,2.54-9.99,3.66-15.28.68-2.26-1.28-4.53-2.4-6.49-4.21-3.6-3.33-5.31-7.58-6.4-12.15-.68-2.88-.51-5.69,1.53-8.15,1-1.2,2.09-1.68,3.59-1.21.91.28,1.84.51,2.77.76.54.28,1.08.56,1.62.84.58.26,1.16.52,1.74.77.51.87,1.23,1.2,2.39.89-.69-.95-1.61-.76-2.44-.84-.58-.26-1.16-.52-1.74-.78-.54-.28-1.07-.57-1.61-.85Zm26-8.71c.3,1.31.66,2.62.88,3.95.23,1.34.38,2.7.44,4.06.04.91-.48,1.56-1.42,1.71-.79.13-1.37-.31-1.59-1-.54-1.69-1.09-3.38-1.42-5.12-.7-3.69-2.14-7.06-4.17-10.17-2.39-3.66-7.81-4.86-11.23-2.32-3.89,2.88-6.9,6.55-8.76,11.17,2.11,2.18,4.61,3.59,7.17,4.85,3.55,1.74,7.25,3.13,10.59,5.31.8.53,2.08.35,3.14.45.94.09,1.92-.02,2.82.19,1.17.28,1.82,1.47,1.4,2.57-2,5.19-3.58,10.62-7.84,14.62.26.16.39.31.48.29.4-.08.81-.14,1.17-.32,4.9-2.42,8.87-5.89,11.64-10.61,1.64-2.79,2.33-5.89,1.71-9.1-.75-3.9-2.16-7.55-5.04-10.54Zm-13.51,31.24c-1.07-2.93.9-4.59,2.36-6.54,1.22-1.63,2.26-3.4,3.31-5.15.32-.54.39-1.22.6-1.95-3.95-1.51-7.86-1.97-11.78-2.27-2.52-.19-4.81-.85-6.86-2.34-.77-.56-1.58-1.09-2.42-1.52-.89-.45-2.04-.08-2.43.87-.34.85-.57,1.81-.55,2.72.02.93.27,1.9.62,2.78.96,2.39,1.52,5.03,3.4,6.91,3.14,3.15,7.15,4.89,11.22,6.44.58.22,1.31.03,2.53.03Z"/>
    <path class="cls-1" d="m502.07,330.51c.37.39.68.87,1.13,1.14,3.52,2.11,7.13,4.07,10.58,6.28,5.55,3.56,10.65,7.69,15.02,12.65.9,1.02,1.66,2.18,2.35,3.36.98,1.68.34,3.21-1.55,3.86-1.03.35-2.15.5-3.13.94-2.99,1.34-6,1.67-9.18.78-9.11-2.54-17.43-6.62-24.11-13.39-5.29-5.37-7.5-12.01-6.28-19.56,1.18-7.28,7.65-11.12,14.7-8.72,2.06.7,4.02,1.7,6,2.6,7.93,3.6,14.9,8.58,21.29,14.47,2.23,2.05,4.42,4.08,5.99,6.69.28.47.59.92.86,1.4,2.03,3.56,1.6,4.99-2.3,7.22-.51-.26-1.16-.5-1.7-.89-3.76-2.73-7.4-5.65-11.28-8.21-4.91-3.23-9.99-6.2-15.03-9.21-1.04-.62-2.27-.9-3.41-1.34-.06-.11-.1-.25-.19-.33-.06-.05-.19-.03-.28-.05.18.1.35.21.53.31Zm24.92,23.82c-.59-.98-.94-1.9-1.57-2.54-3.66-3.69-7.52-7.18-11.92-10-5.53-3.54-11.1-7.02-16.62-10.57-1.02-.65-1.98-1.47-2.77-2.38-.91-1.06-.33-2.59,1.07-2.83,1.18-.2,2.45-.22,3.63-.02,3.42.6,6.45,2.24,9.41,3.97,7.21,4.21,14.25,8.67,20.97,13.63.47.35.87,1.13,1.8.6-.97-1.99-2.12-3.81-3.67-5.38-6.77-6.87-14.23-12.81-23.04-16.89-1.24-.57-2.43-1.33-3.74-1.68-5.65-1.49-8.79.57-10.43,5.15-.23.63-.27,1.34-.34,2.01-.69,6.71,1.39,12.47,6.31,17.04,6.46,6,14.32,9.45,22.68,11.88,3.03.88,5.56-.31,8.23-1.99Z"/>
    <path class="cls-1" d="m157.49,549.67c-2.34-4.85-6-8.06-9.75-11.04.46-1.5,1.52-1.54,2.36-1.12,1.7.83,3.54,1.65,4.87,2.94,2.04,1.98,3.74,4.33,5.5,6.59.49.63.78,1.45,1,2.23.49,1.76-.33,3.29-2.08,3.9-1.72.6-3.54.78-5.25.22-2.32-.77-4.74-1.51-6.8-2.77-5.83-3.56-7.79-9.21-7.83-15.74-.02-2.72,5.14-6.95,8.19-5.84,1.41.51,2.91.93,4.13,1.75,3.61,2.45,7.22,4.93,10.6,7.68,2.65,2.15,4.83,4.83,6.4,7.93.31.61.73,1.22.79,1.87.05.6-.16,1.34-.51,1.83-.41.57-1.51.33-2.16-.39-1.1-1.22-2.21-2.44-3.21-3.73-2.29-2.96-5.14-5.26-8.22-7.34-2.26-1.53-4.39-3.26-6.66-4.77-1.55-1.03-2.66-.8-4.08.42-.78.67-1.22,1.49-1.07,2.52.72,5.13,2.66,9.48,7.76,11.69,1.25.54,2.54,1.02,3.85,1.37.56.15,1.23-.09,2.19-.19Z"/>
    <path class="cls-1" d="m278.5,429.11c-1.22,1-1.9,1.62-2.63,2.15-4.58,3.36-8.38,7.49-11.48,12.21-1.26,1.91-2.06,4.15-2.92,6.29-.46,1.15.3,2.27,1.53,2.34,1.35.07,2.75.07,4.08-.17,8.14-1.47,14.34-5.86,18.87-12.7,1.3-1.97,1.35-3.41.33-7.21-.63.3-1.28.49-1.81.87-3.23,2.3-6.51,4.55-9.62,7.01-1.7,1.34-3.06,3.09-4.63,4.61-.2.2-.75.14-1.1.05-.18-.05-.39-.45-.37-.67.08-.67.14-1.38.44-1.96,1.43-2.87,3.43-5.25,6.1-7.08,2.03-1.39,3.98-2.9,6.03-4.26,1.25-.83,2.55-1.66,3.95-2.15,2.63-.92,4.8.31,5.17,3.03.52,3.87.1,7.58-2.28,10.96-5.19,7.35-12.39,11.4-21.05,13.13-1.2.24-2.46.25-3.69.19-4.07-.2-6.13-3.26-4.76-7.14.45-1.28,1.11-2.51,1.81-3.68,3.25-5.46,7.18-10.34,12.45-14.01,1.12-.78,2.32-1.44,3.55-2.03.35-.17.9.09,2.04.23Z"/>
    <path class="cls-1" d="m470.33,449.49c-1.34.19-2.47-.09-3.45-.88.28-1.51,1.37-2.2,2.39-2.82,3.43-2.08,6.43-4.63,8.94-7.75.43-.53.98-.96,1.44-1.47,1.91-2.1,4.34-2.71,7.06-2.39.34.04.78.35.91.64.13.3.05.91-.17,1.09-1.27,1.02-2.49,2.29-3.97,2.82-2.05.74-3.55,1.97-4.86,3.56-1.71,2.07-4.11,3.16-6.32,4.5-1.08.66-1.85,1.42-1.97,2.69Z"/>
    <path class="cls-1" d="m636.59,560.23c-.94-.95-.58-1.97-.11-2.97,1.68-3.57,3.24-7.2,5.1-10.67,2.62-4.92,3.9-10.14,4.08-15.67.03-.81.03-1.65.23-2.43.11-.44.53-1.01.93-1.14.82-.25,1.14.49,1.4,1.11.16.37.26.78.33,1.18.55,3.1.84,6.22.45,9.35-.18,1.47-.44,3.01-1.05,4.34-2.45,5.33-5.39,10.39-8.76,15.2-.62.88-1.24,1.84-2.59,1.7Z"/>
  </g>
</svg>