<?xml version="1.0" encoding="UTF-8"?>
<svg id="Laag_1" data-name="Laag 1" xmlns="http://www.w3.org/2000/svg" viewBox="0 0 850.39 850.39">
  <defs>
    <style>
      .cls-1 {
        fill: #131f48;
      }

      .cls-1, .cls-2 {
        stroke-width: 0px;
      }

      .cls-2 {
        fill: #a5d6af;
      }
    </style>
  </defs>
  <path class="cls-2" d="m332.86,590.42c69.77,13.49,8.14,99.87,112.81,104.9,104.67,5.03,232.49,27.17,223.44-99.64-9.06-126.82-14.62-252.83-80.04-287.05-65.42-34.22-62.32-39.9-72.6-101.81-13.61-81.99-167.05-81.24-190.13-3.09-51.84,175.49-36.11,378.45,6.53,386.7Z"/>
  <g>
    <path class="cls-1" d="m579.59,614.94c.92,4.98,1.83,9.95,2.78,14.92,1.26,6.58,2.52,13.16,3.18,19.84.36,3.67.73,7.34,1.2,11,.31,2.47.25,4.91-.09,7.37-.25,1.76-.47,3.53-.62,5.3-.3,3.69-.45,4.08-3.01,6.54.22.12.46.35.67.33.99-.13,2.13-.25,2.28.99.08.63-.56,1.46-1.07,2.03-.92,1.03-2.19,1.18-3.4.65-.99-.43-1.88-1.09-2.77-1.72-.98-.7-1.91-1.47-3.01-2.33-1.92,1.38-3.66,2.64-5.43,3.91-.96-2.33-.56-3.33,2.81-7.28-.24-.71-.86-.54-1.35-.52-4.53.16-8.92.89-13.28,2.28-3.34,1.07-6.98,1.25-10.49,1.78-2.16.33-4.34.53-6.5.9-6.48,1.12-12.99,1.96-19.56,2.4-1.9.13-3.83.42-5.66.94-2.15.62-4.32.73-6.51.72-5.75-.02-11.5-.06-17.25-.13-.95-.01-1.9-.2-2.84-.35-3.24-.51-6.47-1.04-9.71-1.55-.25-.04-.52-.01-.78.01-3.39.35-6.78.7-10.17,1.06-5.64.61-11.19.05-16.73-1.08-3.88-.79-7.81-1.41-11.74-1.89-4.52-.55-8.84-1.71-13.03-3.46-2.03-.85-4.1-1.43-6.3-1.76-3.1-.47-6.28-.97-9.2-2.05-5.53-2.05-10.87-4.61-14.67-9.38-1.43-1.8-2.75-3.82-3.57-5.95-1.18-3.04-2.12-6.23-2.67-9.44-.62-3.63-.65-7.36-1-11.03-.12-1.2-.43-2.38-.66-3.57-4.19-1.21-7.98-.17-12.21,1.17-.28.43-.86,1.33-1.53,2.35-1.19-.14-2.36-.27-3.55-.41,1.09-3.9,1.14-3.91.36-8.51-.71-4.18-1.58-8.34-2.32-12.52-.28-1.61-.67-3.26-.56-4.87.49-7.73-.67-15.32-2.01-22.86-1.57-8.81-2.21-17.66-2.11-26.58.01-1.23,0-2.46,0-4.43-1.44,3.61-1.86,6.71-1.96,9.78-.19,5.74-.33,11.51-.02,17.24.24,4.36,1.2,8.67,1.84,13,.16,1.08.38,2.16.46,3.25.36,5.03,1.36,9.95,2.23,14.9.98,5.52,1.71,11.08,2.53,16.62.06.4.1.91-.1,1.2-.35.52-.82,1.08-1.37,1.28-.3.11-1.12-.39-1.26-.77-.5-1.41-.94-2.86-1.16-4.33-.47-3.25-.76-6.52-1.19-9.78-1.12-8.54-2.18-17.1-3.47-25.62-.64-4.2-1.97-8.25-3.8-12.11-.2-.42-.55-.76-1.28-1.72.18,1.13.17,1.53.31,1.86,3.62,8.2,4.58,16.85,4.32,25.68-.13,4.67-.11,9.29.79,13.91.47,2.41.58,4.9.82,7.35.07.68.06,1.37,0,2.05-.11,1.11-1.03,1.88-1.97,1.43-1.36-.65-2.57-.57-3.96-.18-1.03.29-2.18.14-3.25.32-1.58.26-3.15.65-5.09,1.06.14-.71.11-1.24.34-1.6.86-1.32,2.06-2.12,3.69-2.31,1.89-.22,3.75-.58,5.65-.88.13-.47.36-.86.32-1.23-.34-3.67-.72-7.33-1.12-11.23-1.31,1.87-1.29,1.87-1.44,3.35-.12,1.22-.21,2.45-.49,3.63-.1.4-.7.85-1.15.96-.75.18-1.34-.32-1.54-1.03-.59-2.13-1.03-4.29-.08-6.43.8-1.81.9-3.7.87-5.64-.02-1.51-.04-3.02.05-4.52.26-4.2-.78-8.04-2.39-11.94-1.79-4.34-5.04-6.27-9.17-7.36-2.13-.56-4.28-.84-6.51-.44-1.15.21-2.34.15-4.03.24,4.53,2.49,8.62,4.66,12.61,6.99,1.51.88,2.96,2.01,4.14,3.29,1.62,1.76,2.22,4.02,2.33,6.44.12,2.59.56,5.17.58,7.76.02,3.38.37,6.78-.95,10.11-.74,1.87-.82,4-1.23,6.01-.22,1.08-.52,2.13-1.59,2.72-1.35.21-1.12-1.45-2.03-1.7-.79-.21-1.64-.2-2.41-.46-1.61-.54-2.86-1.6-3.68-3.1-.33-.59-.46-1.29-.76-1.9-1.01-2.08-1.84-4.27-4.04-5.53-.67-.38-1.08-1.2-1.77-2.01-.54.45-1.21.76-1.48,1.28-1.53,3-4.01,4.72-7.18,5.59-1.58.44-3.13,1-4.72,1.4-1.29.33-2.62.87-4.15-.04.46-3.09,3.93-2.91,5.51-4.72-.77-1.12-1.79-.85-2.69-.89-3.55-.18-7.11-.31-10.66-.54-.8-.05-1.59-.4-2.39-.58-1.73-.39-3.48-.75-5.21-1.13-1.2-.27-2.42-.48-3.59-.85-2.08-.66-4.2-1.28-6.19-2.18-1.73-.78-3.32-1.88-4.9-2.94-1.27-.86-2.5-1.43-4.12-1.57-2.85-.24-5.68-.8-8.35-1.97-1.52-.67-2.95-1.36-4.18-2.52-.77-.73-1.75-1.42-2.75-1.69-5.98-1.6-11.93-1.19-17.83.52-.63.18-1.19.61-1.66.85-.48,1.27.05,2.1.79,2.71,1.15.96,2.42,1.79,3.66,2.64,1.24.85,2.54,1.61,3.74,2.52.35.26.43.88.78,1.64-.98.05-1.72.31-2.25.08-2.38-1.04-4.79-2.06-7-3.4-1.1-.67-1.93-1.93-2.64-3.07-.93-1.48-1.62-3.1-2.48-4.79-1.72-.18-3.08.84-4.46,1.64-2.52,1.46-5.18,2.37-8.04,2.95-2.67.54-5.23,1.57-7.87,2.26-4.69,1.22-4.99,1.13-8.63-1.57-1.37.29-2.13,2.36-4.17,1.24.1-.43.07-1.02.35-1.37,1.1-1.38,2.16-2.86,3.5-3.98,1.7-1.41,3.34-.81,4.15,1.25.15.38.15.81.3,1.19.09.23.34.41.67.78,2.18-.11,4.42-.42,6.53-1.77.53-3.71.59-7.38.11-11.05-1.27-9.63-2.56-19.26-3.84-28.9-.09-.67-.17-1.36-.08-2.02.04-.32.45-.73.78-.83.32-.1.91.02,1.1.26.49.63.91,1.34,1.19,2.09,1.05,2.82,2.01,5.68,3.03,8.51.27.75.64,1.46,1,2.27.29-.28.59-.44.59-.59-.23-10.01,1.09-19.96,1.39-29.94.23-7.52.73-15.04.15-22.58-.22-2.86-.05-5.75-.02-8.63,0-.53.12-1.1.36-1.56.16-.32.64-.69.95-.66.49.04,1.2.26,1.38.63.35.7.5,1.54.56,2.34.22,3.14.24,6.3.58,9.43,1.03,9.39,2.17,18.76,3.37,28.97.74-6.19,1.38-11.52.92-16.99-.64-7.64-1.38-15.32-1.22-22.97.22-11.14-2.28-21.67-5.55-32.14-.65-2.08-1.51-4.11-1.44-6.25.81-.94,1.54-.77,2.16-.04.43.52.74,1.14,1.08,1.73.96,1.66,1.88,3.34,2.86,4.99,1.81,3.06,3.73,6.06,4.51,9.66,1.18-.39.61-1.14.62-1.67.17-7.11.31-14.22.45-21.33.03-1.78-.02-3.56.04-5.34.04-1.08.22-1.18,2.27-2.04,1.71,3.42,1.11,7.24,1.81,10.82.68,3.44.8,7,1.79,10.84.17-.36.41-.7.5-1.07,1.23-5.19,2.48-10.38,3.63-15.59.53-2.4.82-4.86,1.28-7.28.17-.92.35-1.94,1.56-2.15.85-.14,1.37.68,1.39,2.5.06,6.84.07,13.69.09,20.53.01,4.1,0,8.21,0,12.25,1.02.33,1.08-.33,1.22-.81.94-3.15,1.86-6.3,2.8-9.44.19-.65.21-1.53.65-1.91,1.6-1.4,1.31-3.18,1.25-4.94-.09-2.46-.16-4.93-.35-7.38-.53-6.96-1.12-13.91-1.66-20.86-.13-1.64-.14-3.28-.19-4.93-.27-9.43-1.12-18.83-1.68-28.25-.2-3.4-.7-6.78-1.04-10.18-.2-2.04-.43-4.09-.53-6.13-.23-4.64-.49-9.28-.57-13.93-.12-6.98-.13-13.96-.1-20.93.02-3.97.31-7.93.3-11.89,0-2.32-.26-4.64-.58-6.94-.54-3.82-.76-7.6-.1-11.44.65-3.77,1.02-7.6,1.51-11.4.46-3.56,2.15-6.53,4.73-8.88,4.68-4.26,8.71-9.09,12.82-13.87,2.94-3.42,6.12-6.64,9.19-9.95.37-.4.75-.8,1.12-1.2,3.39-3.59,4.82-7.71,4.24-12.74-.49-4.19-1.21-8.4-.91-12.67.03-.39-.01-.91-.24-1.18-2.61-2.96-2.17-6.66-2.38-10.14-.25-4.1-.18-8.21-.26-12.32-.03-1.48-.09-2.96-.14-4.59-1.13-.27-2.04-.46-2.93-.72-1.61-.46-3.11-1.05-3.77-2.83-.17-.47-.65-.83-1.01-1.22-3.3-3.53-3.72-8.68-.73-12.35,1.23-1.52,2.12-3.03,2.82-4.87,1.06-2.78,2.7-5.33,4.25-8.27-.39-1.57-1.03-3.51-1.33-5.5-.52-3.4.77-6.14,3.49-8.24,3.42-2.63,7.44-4.04,11.36-5.67,5.47-2.28,11.23-3.49,16.98-4.75,3.61-.79,7.19-1.75,10.83-2.37,5.53-.95,11.08-1.84,16.66-2.45,2.75-.3,4.65-1.31,5.83-3.8.76-1.6,1.85-3.08,2.47-4.73,1.41-3.77,4.18-6.41,7.22-8.75,1.74-1.34,3.93-1.9,6.19-1.89,3.42.01,6.84.08,10.26.02,1.63-.03,3.28-.22,4.89-.5,5.45-.95,9.97.62,13.7,4.7,1.57,1.71,3.35,3.22,5.02,4.84,1.28,1.24,2.71,2.37,3.77,3.77,2.05,2.71,4.86,3.99,8.02,4.56,3.77.68,7.59,1.11,11.39,1.64,1.35.19,2.72.31,4.07.54,3.1.54,6.23,1,9.29,1.72,3.46.82,6.95,1.65,10.25,2.91,5.21,2,8.99,5.68,11.05,10.94,1.32,3.35,1.57,6.65-.89,9.7-.67.83-1.22,1.76-1.9,2.76.48.48.84.87,1.24,1.22,1.34,1.19,1.95,2.7,1.53,4.43-.4,1.63.07,2.86.96,4.2.81,1.22,1.23,2.71,1.77,3.95,3.62,2.38,7.13,4.77,10.71,7.04,7.95,5.03,13.2,12.21,16.8,20.73,1.44,3.4,2.7,6.88,4.23,10.24,2.11,4.64,2.3,9.53,2.31,14.48,0,1.08-.09,2.16-.15,3.48,2.09.37,4.07.8,6.08,1.05,2.11.27,4,1.08,5.63,2.33,4.67,3.56,8.25,7.98,10.23,13.58,1.01,2.85,2.34,5.53,4.21,7.95,1.21,1.56,2.64,2.79,4.43,3.56,4.52,1.95,9.08,3.78,14.1,4.01,1.22.06,2.42.43,3.63.63,2.29.37,4.59.71,6.88,1.08.94.15,1.91.27,2.81.56,5.21,1.64,10.56,2.83,15.65,4.94,3.4,1.41,7.01,2.34,10.49,3.58,2.18.78,4.39,1.54,6.16,3.19,2.49,2.31,2.59,5.39.14,7.85-.29.29-.67.49-.95.78-.18.19-.28.46-.56.94,1.23,2.95,2.83,6.08,1.24,9.64,3.13,3.25,6.28,6.43,5.56,11.24,1.42,1.36,2.6,2.69,3.97,3.77,2.13,1.68,2.78,3.99,3.14,6.47.1.67.05,1.37.12,2.05.2,2.05.66,4.19-.6,6-1.64,2.35-3.38,4.67-6.18,5.85-2.38,1-4.72,2.08-7.39,3.27,0,.5-.02,1.28,0,2.05.11,2.87.21,5.75.35,8.62.21,4.27-.79,8.15-3.82,11.31.27,1.85.67,3.59.75,5.34.1,2.1,1.1,3.42,2.67,4.78,5.45,4.76,11.25,9.14,16.05,14.62.45.52.98.97,1.36,1.54.71,1.06,1.18,2.26.33,3.43-.74,1.01-.6,2.02-.48,3.13.16,1.49.18,3.01.23,4.51.35,11.49.7,22.99,1.02,34.48.35,12.58.68,25.16.98,37.74.08,3.14-.05,6.29.03,9.44.05,1.77.38,3.53.49,5.3.57,9.7,1.37,19.4.72,29.11-.33,4.93-.59,9.83-.32,14.76.16,3,.42,5.99.65,9.17.43-.09.77-.11,1.09-.23,2.11-.78,2.91-.37,3.02,1.61.31,5.83-.51,11.49-2.72,16.89-1.5,3.66-2.4,7.5-3.82,11.07,1.2.84,1.83.1,2.43-.35,3.81-2.89,7.58-5.82,11.37-8.73.54-.42,1.07-.88,1.68-1.18,2.77-1.36,4.88-3.49,6.87-5.77.71-.81,1.51-1.59,2.39-2.21.33-.24,1.14-.18,1.48.08.35.26.53.94.52,1.43-.02.51-.29,1.05-.56,1.52-3.15,5.44-6.05,11.03-10.68,15.48-3.48,3.35-6.16,7.32-8.32,11.64-.73,1.46-1.27,2.96-1.61,5.31,2.11-2.77,3.67-5,5.44-7.06,1.78-2.07,3.73-4,5.68-5.91.56-.55,1.37-.89,2.11-1.21.75-.32,1.79.34,1.78,1.18-.01,1.08.06,2.28-.37,3.2-2.48,5.3-5.05,10.56-8.39,15.4-.46.67-.95,1.39-1.14,2.15-.6,2.51-1.06,5.06-1.72,8.28,3.07-3.54,4.92-7.42,9.08-9.46.35.91.84,1.61.85,2.31.02,2.49-.67,4.84-1.59,7.17-1.74,4.41-2.58,8.7-2.71,12.71,3.15-.67,4.36-.06,4.93,2.9.55,2.82,1,5.68,1.08,8.54.06,1.94.85,3.12,2.38,3.95,1.31.71,2.74,1.23,4.06,1.92.25.13.36.67.37,1.03,0,.17-.34.38-.55.54-.1.08-.25.15-.38.14-1.35-.1-2.8.05-4.03-.4-3.53-1.29-6.37-3.21-5.54-7.75.19-1.04-.1-2.18-.22-3.27-.02-.24-.23-.46-.36-.71-.89-.13-.76.61-.84,1.06-.5,2.96-1.07,5.92-1.39,8.91-.29,2.66.15,3.03,2.51,3.96,3.21,1.26,6.38,1.35,9.7-.17.24.68.58,1.19.53,1.64-.06.47-.4,1.05-.8,1.31-2.37,1.53-4.9,2.39-7.79,1.62-1.84-.49-3.74-.79-5.59-1.28-1.2-.32-2.11.03-3.03.75-.94.73-1.65,1.88-3.34,1.86-.04-.78-.35-1.67-.07-2.27.65-1.38.31-2.59.01-3.94-.38-1.72-.45-3.5-.7-5.25-.31-2.16-.7-4.32-1.02-6.48-1-6.63-1.96-13.27-1.77-20.01.09-3.29-.03-6.57-.8-9.79-1.5-6.25.06-11.95,3.4-17.22,2.27-3.59,4.83-6.99,7.97-9.89.64-.59,1.11-1.37,1.75-2.17-1.46-.56-2.11.38-2.7.97-2.44,2.45-5.28,4.38-8.19,6.15-3.27,1.98-4.6,4.9-5.13,8.42-1.16,7.78-.98,15.57.11,23.34.91,6.52,1.65,13.04,1.69,19.64.03,4.22.47,8.44.72,12.57.4.19.62.32.87.41,1.56.59,2.09,1.5,1.28,2.64-.86,1.21-1.94,2.28-2.99,3.34-.37.37-.93.57-1.42.81-1.11.54-2.33.91-3.32,1.61-.95.68-1.65,1.69-2.37,2.46-1.42-.1-1.86-1-2-1.95-.22-1.48-.35-3-.34-4.5.05-5.22-.3-10.39-1.35-15.51-.11-.53-.14-1.09-.16-1.63-.24-5.88-.46-11.76-.72-17.64-.05-1.09-.2-2.19-.42-3.25-.8-3.74-1.53-7.51-2.54-11.2-.94-3.42-2.17-6.76-3.35-10.11-.21-.6-.75-1.09-1.14-1.63.08-.93-.12-1.75-.87-2.37.01-.02.03-.03.04-.05l.86,2.4Zm-2.49-249.94c-1.83-.27-2.84.81-3.49,2.26-2.02,4.53-5.1,8.35-7.97,12.33-3.35,4.65-6.55,9.41-9.76,14.16-.32.48-.27,1.21-.42,1.96,5.61.84,10.86.45,16.05-.94,2.02-.54,3.43-1.65,3.91-3.75.27-1.19.63-2.38.74-3.58.23-2.58.39-5.16.44-7.75.04-1.96-.2-3.86-2.6-4.49-.18-.05-.27-.44-.46-.76.52-1.13,1.66-1.21,2.7-1.39,3.02-.53,5.78-1.67,8.25-3.47,2.83-2.07,5.45-4.3,4.39-8.42-.03-.12.01-.27.04-.41.62-2.87-.86-4.97-2.48-7.07-1.68-2.18-3.85-3.4-6.51-3.83-1.35-.22-2.72-.31-4.07-.48-.82-.1-1.66-.24-2.01-1.15-.24-.64.69-1.76,1.73-1.97.79-.16,1.62-.12,2.44-.2.63-.06,1.41.23,1.73-.71-.26-1.49-1.58-2.15-2.57-3.02-1.21-1.06-2.42-1.06-3.73-.12-1.6,1.15-2.73,2.66-3.36,4.54-1.22,3.66-1.81,7.43-1.9,11.27-.02.78.16,1.56.28,2.58,1.39.13,2.58.25,3.78.35,2.84.23,5.72-.3,8.54.48.18.05.46-.23.82-.42.03-1.5-.5-2.81-1.51-3.93-.5-.08-.91-.25-1.3-.2-1.86.22-3.72.5-5.83.79.41-1.89,1.78-2.49,3.15-2.98,4.75-1.7,6.41-1.75,9.04,3.76,1.95,4.08-1.26,9.23-5.6,9.21-.75,0-1.67-.31-2.2-.81-.38-.36-.22-1.27-.3-1.93.12,0,.26.02.37-.02.09-.03.15-.14.22-.21l-.54.3Zm16.27,61.24c-.54-.64-.95-1.17-1.4-1.67-4.73-5.17-10.38-9.32-15.52-14.04-1.82-1.67-3.71-1.86-6.04-1.49-3.78.59-7.61.91-11.43,1.17-4.91.33-9.84.5-14.76.72-1.15.05-2.06.51-2.95,1.23-2.34,1.89-4.66,3.84-7.16,5.51-3.89,2.6-7.46,5.56-10.99,8.6-3.63,3.13-7.5,5.98-11.05,9.2-6.4,5.79-11.93,12.42-17.82,18.8,0,2.21-.01,4.39,0,6.58.02,3.95.07,7.8-1.54,11.63-1.71,4.07-4.83,6.58-9.13,5.51-4.08-1.01-8.28-1.73-12.11-3.73-3.37-1.76-7.12-2.14-10.82-1.56-3.91.61-7.79,1.53-11.6,2.6-3.17.89-6.32,1.66-9.59,2.15-4.93.74-9.87.82-14.74.08-5.68-.87-11.3-2.13-16.92-3.36-1.99-.44-3.88-1.31-5.83-1.95-2.99-.98-6-1.9-8.99-2.88-2.17-.72-4.34-1.45-7.02-1.81.34,1.8.55,3.26.91,4.68,1.6,6.42,2.35,12.92,2.17,19.53-.06,2.19-.03,4.38,0,6.57.15,8.61.37,17.22.47,25.84.11,9.3-.11,18.6.7,27.9.86,9.95,1.88,19.9,2.05,29.9.12,7.38.54,14.76.79,22.14.27,7.93-.26,15.87.44,23.79.59,6.68,1.02,13.38,1.55,20.07.29,3.59,1.61,6.91,2.93,10.21,1.05,2.6,2.76,4.79,4.99,6.42,4,2.93,8.38,5.18,13.33,6.09,5.39,1,10.72,2.13,15.82,4.28,2.88,1.22,5.95,1.96,9.1,2.39,3.52.48,7,1.3,10.52,1.85,4.73.74,9.45,1.22,14.29.9,5.87-.38,11.78-.23,17.67-.31.41,0,.83,0,1.23.09,6.34,1.27,12.74,1.65,19.19,1.58,4.39-.05,8.74-.38,13.05-1.35,2.53-.57,5.14-.82,7.72-1.13,2.17-.26,4.36-.36,6.54-.57,5.71-.55,11.29-1.98,17.06-2.28,3.23-.16,6.49-1.03,9.6-2.01,3.81-1.21,7.65-2.08,11.62-2.43,1.08-.09,2.17-.3,3.22-.59.85-.23,1.37-.89,1.41-1.82.02-.55.03-1.1-.04-1.64-1.17-9.29-3.99-17.85-10.86-24.64-1.85-1.82-3.56-3.79-5.22-5.78-.36-.43-.52-1.32-.34-1.86.3-.91,1.34-1.09,2.08-.81,1.51.58,2.95,1.37,4.37,2.16,1.07.59,2.03,1.37,3.1,1.95,1.44.78,2.93,1.45,4.41,2.16.47.22.96.6,1.52-.2-1.77-4.35-3.82-8.69-6.79-12.46-2.49-3.15-4.36-6.63-6.14-10.17-.92-1.83-1.63-3.77-2.33-5.69-.36-1.01-.72-2.16.43-2.98.89-.63,2-.25,3.09,1.18,2.41,3.18,5.2,5.98,8.11,8.7,3.61,3.38,6.83,7.12,8.63,11.86.13.34.49.58,1.1,1.29,0-1.08.11-1.72-.02-2.32-1.62-7.35-3.13-14.72-5.37-21.92-.24-.79-.5-1.57-.67-2.37-.26-1.26.23-2.34,1.17-2.8.88-.43,1.93-.04,2.85,1.05.09.1.17.22.24.33,2.08,3.06,4.05,6.17,5.39,9.64.87,2.26,1.78,4.5,3,7.59.3-5.74.26-10.6-.36-15.45-.47-3.65-1.14-7.3-1.34-10.97-.27-5.06-.52-10.1-1.35-15.1-.16-.94-.25-1.91-.18-2.85.04-.42.51-.9.92-1.14.2-.12.86.15,1.02.42.69,1.16,1.38,2.35,1.89,3.6,1.74,4.31,3.07,8.79,5.36,12.87.31.55.33,1.35,1.45,1.26.98-2.61,2.03-5.27,2.98-7.97.22-.62.32-1.38.17-2.01-.89-3.78-.37-7.62-.54-11.43-.32-7.38-.37-14.77-.2-22.17.21-8.76-.63-17.49-1.18-26.23-.26-4.09-.24-8.21-.33-12.31-.04-1.78.01-3.55,0-5.33-.04-5.75-.09-11.5-.14-17.25-.06-6.43-.02-12.87-.21-19.3-.18-5.87-.72-11.74-.37-17.62.04-.68-.06-1.37-.08-2.05-.16-5.34-.28-10.68.49-15.99.17-1.15-.02-2.35-.05-3.89-1.22.47-2.15.73-2.96,1.17-2.42,1.31-4.92,2.39-7.65,2.89-.67.12-1.34.33-1.96.61-2.87,1.32-5.9,2.14-8.97,2.84-3.87.89-7.7,2.09-11.62,2.53-6.8.77-13.64,1.07-20.47,1.55-6.58.46-13.14.14-19.68-.64-.77-.09-1.68.1-2.16-.83-.3-.59.62-1.25,2.11-1.31,3-.13,6.01-.11,9.01-.25,5.6-.26,11.2-.42,16.79-1.05,6.66-.75,13.35-1.16,19.92-2.65,3.46-.78,6.98-1.36,10.42-2.24,2.78-.71,5.49-1.7,8.23-2.59,2.99-.98,5.83-2.23,8.38-4.42Zm-209.74,41.3c-4.64-.93-6.26-.76-9.19,1.76-2.53,2.17-5.12,2.31-8.03,1.27-2.46-.88-4.81-2-6.91-3.56-1.77-1.31-3.34-2.83-4.2-4.95-2.64-6.46-2.98-13.01-.85-19.67.94-2.92,2.41-5.44,4.8-7.47,1.01-.85,1.87-2.02,2.44-3.21,1.43-2.96,2.85-5.94,3.9-9.04,1.45-4.27,2.57-8.65,2.09-13.27-.21-2.03-.33-4.08-.21-6.11.13-2.17.38-4.38.93-6.48,1.15-4.37,2.92-8.56,5.15-12.46,4.28-7.49,8.81-14.83,15.34-20.67,1.1-.99,1.63-2.21,1.16-3.68-.93-2.93-.13-5.66.82-8.41,1.33-3.83,3.62-7.02,6.42-9.88-.02-1.38-1.51-2.47-.8-3.9.66-1.32,1.49-2.55,2.22-3.79q-2.13-3.29-1.45-7.31c.09-.54.23-1.09.2-1.62-.18-2.69,1.14-4.67,2.81-6.6,1.64-1.9,3.46-3.49,5.79-4.47,1.39-.59,2.73-1.27,3.36-3-1.64-1.02-3.5-1.44-5.35-1.7-5.45-.78-10.91-.85-16.36.11-1.76.31-3.32.83-4.75,2.15-2.52,2.31-5.02,2.23-7.82.21-2.3-1.66-3.72-3.96-4.64-6.61-1.08-3.13-1.82-6.33-1.77-9.65.04-2.56-1.16-4.04-3.41-5.03-3.38-1.49-6.72-3.06-10.04-4.68-1.35-.66-2.63-1.47-3.87-2.3-1.14-.76-2.16-1.69-3.29-2.45-6-4.07-12.03-8.11-18.04-12.17-.79-.54-1.53-1.15-2.29-1.74-3.77-2.95-7.54-5.91-11.31-8.86-2.26-1.77-4.53-3.52-6.8-5.27-.62-.48-1.26-.95-1.89-1.42-1.95,1.6-3.78,3.03-5.52,4.56-2.5,2.21-5.3,3.26-8.68,2.83-1.32-.17-2.73-.43-4.09.53-.91,2.17-.39,4.5-.25,6.79.14,2.32.46,4.63.71,6.95.24,2.28-.16,4.63.56,6.89,2.72,1.38,5.51,2.06,8.38,2.25,3.41.23,6.84.27,10.27.3,4.11.04,8.22-.04,12.33-.03.63,0,1.26.22,1.87.33-.1,1.31-.92,1.47-1.76,1.53-4.5.32-9.01.58-13.51.94-5.21.41-10.39.47-15.53-.64-.66-.14-1.37-.07-2.05-.15-1.5-.17-2.67.39-3.59,1.55-1.36,1.72-2.68,3.46-4.09,5.14-2.21,2.62-4.69,5.03-6.67,7.8-3.04,4.26-6.55,8.08-10.11,11.87-.51.54-.83,1.25-1.34,2.02.86.49,1.41.9,2.02,1.14.76.29,1.56.55,2.36.62,2.59.26,5.18.51,7.77.6,3.7.13,7.4.03,11.1.17,2.73.1,5.45.51,8.18.61,9.35.36,18.58-1.05,27.85-1.92,1.09-.1,2.17-.38,3.26-.38,1.14,0,2.2-1.04,3.87-.19-1.11.46-1.82.84-2.57,1.06-4.36,1.24-8.84,1.85-13.35,2.21-6.82.54-13.62,1.4-20.5,1.19-6.3-.19-12.6-.08-18.9-.02-4.13.04-8.21-.1-12.22-1.25-.76-.22-1.61-.16-2.64-.26-.41.86-.94,1.65-1.18,2.52-.3,1.05-.35,2.16-.52,3.24-1.12,7.33-1.99,14.67-.48,22.06.19.93.23,1.91.23,2.86-.02,5.89-.01,11.78-.12,17.67-.18,9.71-.14,19.4.7,29.09.47,5.45.84,10.91,1.17,16.37.55,9.02,1.01,18.04,1.55,27.05.29,4.78.67,9.56,1,14.34.48,6.83.97,13.65,1.41,20.48.35,5.46.72,10.93.92,16.39.25,6.83.42,13.67.48,20.5.05,4.92-.34,9.85-.15,14.77.34,9.16.17,18.34.8,27.49.41,6.01,1.03,12,1.75,17.98.26,2.17.5,4.37,1.03,6.48,1.61,6.36,3.35,12.69,5.07,19.02.55,2.03,1.55,3.73,3.46,4.9,1.5.93,2.78,2.2,4.2,3.28,3.8,2.9,7.48,5.85,12.26,7.25,7.55,2.22,15.19,3.51,23.03,3.31,2.76-.07,5.51,0,8.13.63,2.21.53,3.35-.1,4.32-1.92.44-.82,1.12-1.56,1.83-2.18,1.17-1.01,2.63-.88,3.67.22.38.4.87.81.99,1.3.73,2.93,3.19,4.28,5.14,6.02,1.91-.14,3.65-.26,5.23-.37.21-.36.34-.48.34-.6.22-4.23.51-8.45.6-12.69.06-2.64-1.16-4.75-3.44-6.17-.81-.51-1.63-1.02-2.46-1.48-4.2-2.31-8.4-4.6-12.6-6.92-1.2-.66-2.41-1.32-3.52-2.1-.86-.61-1.95-1.16-1.89-2.48.03-.79,1.26-1.07,3.23-.9,2.72.24,5.46.64,8.18.53,2.78-.11,5.46.29,8.15.8.9.17,1.78.5,2.88.81-.07-.7-.02-1.1-.16-1.43-2.41-5.66-4.84-11.32-7.26-16.97-.22-.5-.52-1.01-.56-1.54-.05-.63-.1-1.58.26-1.86.57-.43,1.63-.75,2.21-.49,1.21.54,2.45,1.3,3.3,2.3,2.93,3.43,6.02,6.76,8.01,10.89.26.54.71.98,1.54,2.11-.64-3.04-.72-5.31-1.82-7.42-.61-1.17-.76-2.62-.95-3.97-.06-.41.32-1.1.69-1.31.39-.22,1.2-.23,1.51.03.81.68,1.45,1.57,2.42,2.67,0-1.89.05-3.25-.01-4.61-.16-3.28-.37-6.56-.56-9.84-.24-4.23-.49-8.46-.7-12.69-.08-1.5-.18-3.02-.04-4.51.07-.73.59-1.48,1.05-2.11.4-.55,1.48-.34,1.73.27.16.37.32.76.38,1.15,1.24,7.83,2.46,15.66,3.72,23.48.03.18.39.32.8.63.55-2.03.84-4,1.22-5.96.6-3.08,1.36-6.13,2.15-9.17.1-.39.84-.93,1.2-.87.58.09,1.45.55,1.54.99.33,1.58.6,3.24.5,4.84-.53,8.62-.2,17.25-.09,25.87.02,1.56.3,3.09.94,5.23.49-2.28.88-3.86,1.17-5.47.97-5.41,2.69-10.59,4.55-15.74.88-2.42,1.52-4.97,1.91-7.52.66-4.31,1.02-8.66,1.58-12.99.06-.43.58-1.08.95-1.13.59-.08,1.49.07,1.8.48.55.72.97,1.68,1.09,2.59.57,4.34,1.09,8.68,1.47,13.04.25,2.88-.13,5.73-.87,8.54-.62,2.38-1.04,4.81-1.49,7.23-.12.66-.02,1.36-.02,2.51,1.53-4.11,2.91-7.66,4.17-11.27.4-1.14.62-2.38.66-3.59.06-1.5-.08-3.01-.26-4.51-.75-6.4-1.02-12.81-.87-19.26.19-7.94.3-15.88.41-23.82.07-4.92.08-9.84.09-14.76,0-3.28.17-6.58-.1-9.84-.52-6.26-1.3-12.51-2-18.94Zm3.4-32.92c1.2-.06,1.91.06,2.51-.15,4.56-1.6,9.3-1.97,14.08-2.1,2.33-.06,4.65-.22,6.98-.26,4.94-.08,9.85-.05,14.68,1.31,2.1.6,4.3.81,6.44,1.29,7.35,1.62,14.76,3.04,21.83,5.67,3.22,1.2,6.47,2.19,9.8,2.95,3.4.78,6.45.14,9.26-1.98,1.4-1.06,2.97-1.97,4.57-2.69,4.73-2.1,12.89,1.35,13.87,6.25.28,1.39.97,2.48,2.18,3.49.64-.52,1.19-.9,1.66-1.36,1.38-1.33,2.77-2.64,4.08-4.04,3.63-3.91,7.17-7.91,11.31-11.31,1.69-1.39,3.39-2.76,5.1-4.12,5.89-4.68,11.42-9.81,17.8-13.87.69-.44,1.31-.99,1.91-1.56.45-.43,1.16-.83.5-1.78-4.55-.28-9.18-.57-13.82-.87-1.62-.11-2.84-.66-4.92-2.22,1.02-.17,1.75-.41,2.48-.39,5.61.12,11.25-.01,16.83.54,4.1.41,6.83-1.2,9.22-4.11.26-.32.52-.64.8-.94,2.61-2.77,3.99-5.75,2.33-9.63-.97-2.27-.39-4.49.92-6.64,2.48-4.1,4.4-8.52,5.49-13.17.77-3.33,1.84-6.55,2.74-9.83,1.08-3.98,2.9-7.31,6.2-9.75.03-3.22,1.81-6.08,1.35-9.6-2.98.41-5.59,1.19-8.23,1.77-4.41.96-8.78,2.2-13.22,2.93-5.8.96-11.61,1.91-17.5,2.23-7.79.42-15.54,1.52-23.38,1.25-2.6-.09-5.2-.1-7.81-.07-9.33.09-18.61-.8-27.92-1.13-.27,0-.54-.08-.82-.1-4.5-.37-9-.74-13.5-1.1-6.55-.51-13.1-1.06-19.65-1.48-3.96-.26-7.94-.45-11.91-.42-4.38.03-8.76.27-13.08-.7-.63-.14-1.29-.13-2.11-.21,0,5.81-.04,11.39.02,16.98.02,1.91.18,3.83.43,5.73.85,6.53,1.37,13.07,1.3,19.66-.05,4.1-.02,8.2-.02,12.3,0,.41-.02.83.04,1.23.42,2.89,2.67,5.47,5.13,5.6,5.46.27,10.93.57,16.4.56,4.92,0,9.84-.41,14.76-.62.81-.03,1.64,0,2.43.14.33.06.88.53.84.71-.1.46-.38.98-.75,1.26-.42.31-1,.47-1.53.55-2.3.35-4.6.87-6.91.93-9.45.21-18.9.4-28.34.3-2.78-.03-5.14.53-7.28,2.14-1.31.98-2.53,2.09-3.71,3.22-3.54,3.41-7,6.91-10.57,10.29-.87.82-1.4,1.72-1.47,2.82-.07,1.2.11,2.41.22,4.09Zm58.93-222.17c-1.48,0-2.7-.05-3.91.01-2.05.1-4.1.34-6.15.4-11.09.31-22.18.61-33.28.86-4.52.1-9.05.24-13.56.04-10.93-.49-21.86-1.01-32.81-.79-5.34.11-10.69-.03-16.01.33-7.94.55-15.88.42-23.79.05-5.75-.27-11.5-.19-17.25-.41-.76-.03-1.53.08-2.72.15.72,1.29,1.24,2.21,1.75,3.14.79,1.43,1.58,2.87,2.38,4.3.86,1.55,1.67,3.13,2.6,4.64,4.07,6.67,7.07,13.62,5.85,21.71-.06.39.03.81.06,1.39,2.44,2.64,5.2,5.06,8.17,7.26,3.08,2.28,6.08,4.66,9.12,7,1.52,1.17,3,2.38,4.56,3.49,4.23,3.01,8.52,5.95,12.75,8.96,6.13,4.37,12.33,8.62,19.27,11.65,1.74.76,3.47,1.55,5.56,1.72.43-.73.89-1.39,1.22-2.12.86-1.86,1.58-3.78,2.49-5.62,1.37-2.77,3.41-3.68,6.42-3,.53.12,1.03.38,1.56.5,5.33,1.18,10.64,2.31,16.2,2.09,4.06-.16,7.76-1.45,11.58-2.47.13-.03.16-.44.3-.83-1.47-.58-2.95-.11-4.38,0-4.23.3-8.46.7-12.69,1.03-.81.06-1.66.08-2.43-.11-.42-.1-.98-.68-.99-1.07-.02-.39.49-1.1.87-1.17,2.01-.4,4.04-.8,6.08-.93,6.28-.42,12.58-.69,18.86-1.09,3.41-.22,6.82-.51,10.22-.9,2.35-.27,4.62-.26,6.92.37,1.03.28,2.21.5,3.21.27,3.39-.77,6.81-.58,10.23-.75.79-.04,1.57-.24,2.28-.36.38-2.35.77-4.49,1.07-6.64.11-.81.12-1.64.05-2.46-.74-8.87-.61-17.76-.66-26.65-.03-6.02-.02-12.04,0-18.07,0-1.93-.14-3.82-1-5.92Zm59.4,125.12c0,.07,0,.13,0,.2,7.66-.31,15.32-.62,22.98-.96,1.37-.06,2.73-.25,4.08-.43,5.16-.68,10.32-1.33,15.46-2.11,2.83-.43,5.67-.95,8.44-1.69,4.09-1.09,8.11-2.44,12.18-3.63,3.6-1.05,6.94-2.55,9.6-5.28,1.2-1.23,1.12-2.62-.37-3.37-1.95-.99-3.97-1.87-6.01-2.63-3.33-1.25-6.68-2.42-10.06-3.52-4.29-1.41-8.52-3.13-12.92-3.98-7.38-1.43-14.84-2.7-22.33-3.26-6.7-.5-13.21-2.27-19.92-2.5-2.87-.1-5.75-.53-8.6-.4-7.66.35-15.35.18-22.98,1.14-3.25.41-6.54.53-9.81.79-.68.06-1.37.11-2.04.27-6.7,1.64-13.6,1.56-20.4,2.25-5.18.53-10.31,1.26-15.44,2.07-4.89.78-9.19,3.61-14.19,3.95-2.59,1.52-5.47,2.71-7.69,4.66-2.35,2.06-3.7,5.06-4.48,8.17-.21.85.11,1.65.88,2.13.57.36,1.19.72,1.83.89,3.44.89,6.86,1.94,10.36,2.49,3.64.58,7.36.68,11.04.95,10.24.77,20.47,1.6,30.71,2.25,6.83.44,13.68.6,20.51.9.82.04,1.64.15,2.46.2,2.59.16,5.19.4,7.79.43,6.3.06,12.61.02,18.91.02Zm-59.4-135.65c1.64-1.93,3.1-3.56,4.47-5.27,1.08-1.35,1.39-2.83.92-4.61-.8-3.02-2.36-5.49-4.66-7.55-2.4-2.16-5.31-3.28-8.33-4.25-3.93-1.26-8-1.8-12-2.71-3.75-.86-7.5-1.44-11.38-1.23-2.87.15-5.73-.11-8.51-1.08-1.41-.49-2.95-.58-4.41-.92-3.76-.87-7.6-.4-11.39-.69-7.76-.59-15.57-.69-23.36-.89-1.76-.05-3.66-.04-5.26.55-3.14,1.17-6.34,1.63-9.63,1.85-1.77.12-3.51.55-5.28.79-2.44.33-4.89.9-7.33.85-4.83-.09-9.57.49-14.27,1.44-5.77,1.17-11.5,2.51-17.29,3.58-6.12,1.13-11.78,3.41-17.27,6.24-1.22.63-2.48,1.18-3.62,1.93-3.66,2.43-4.53,5.61-2.73,9.61.49,1.09,1.28,1.81,2.52,1.75,2.19-.1,4.41-.07,6.55-.45,4.38-.79,8.73-.46,13.11-.1,1.36.11,2.73.19,4.09.14,2.6-.1,5.19-.32,7.78-.47,3.56-.2,7.11-.5,10.67-.51,4.51,0,9.02.27,13.53.35,2.05.04,4.11-.06,6.16-.17,2.46-.13,4.91-.51,7.37-.49,9.18.07,18.32-.89,27.51-.64,8.75.24,17.51.28,26.26.44,2.46.05,4.93.15,7.39.34,5.59.42,11.18.91,16.76,1.34,3.81.29,7.63.53,11.64.8Zm19.88,267.13c-2.53-1.7-3.39-3.49-3.44-5.62-.03-1.19-.43-2.57,1.04-3.23,1.11-.5,2.2.16,3.01,2.04,1.22,2.85,3.35,5,5.45,7.12,1.32,1.33,3.01,2.28,5.03,2.56,2.02.28,3.99.92,6,1.35,3.4.72,6.65-.41,6.48-5.85-.25,0-.52-.07-.74,0-4.55,1.56-7.5.56-10.28-3.21-1.74-2.35-1.88-5.1-2.39-7.75-.98-5.13,1.23-9.92,6.32-11.36.52-.15,1.42-.13,1.3-1.32-2.81-1.17-5.34-1.09-7.91,1-2.51,2.03-3.83,4.57-4.39,7.63-.25,1.34-.42,2.7-.75,4.02-.16.65-.62,1.41-1.41,1.14-.55-.19-1.19-.8-1.33-1.34-.27-1.04-.17-2.16-.31-3.24-.16-1.29.31-2.73-.78-3.96-2.16.33-3.19,2.06-4.49,3.36-1.3,1.31-1.72,3.38-3.74,4.49-.42-.73-.92-1.24-1.01-1.81-.27-1.7.4-3.23,1.16-4.7.61-1.18,1.28-2.32,1.94-3.52-.57-.32-.91-.58-1.29-.71-3.77-1.22-7.54-2.42-11.32-3.63-.65-.21-1.29-.47-1.96-.62-6.13-1.41-12.23-2.98-18.41-4.13-4.56-.85-9.21-1.45-13.83-1.59-4.77-.14-9.57.37-14.35.67-1.9.12-3.86.23-5.67.74-4.4,1.26-8.88,1.9-13.39,1.45-3.24-.33-5.5.8-7.64,2.96-1.41,1.42-2.35,3-2.79,4.91-.37,1.6-.62,3.23-.98,4.83-.12.51-.37,1.01-.65,1.46-.48.74-1.69.73-2.06-.04-.35-.72-.65-1.5-.78-2.29-.55-3.31.72-6.18,2.34-8.93.41-.7,1.04-1.28,1.44-1.99.75-1.33,0-2.9-1.49-3.1-1.2-.16-2.43-.15-3.29-.2-1.74,1.69-3.27,3.05-4.63,4.54-.72.79-1.35,1.76-1.7,2.77-1.13,3.26-1.86,6.65-1.36,10.09.69,4.73,2.12,9.1,7.15,11.13,1.91.77,3.87,1.16,5.92,1.44,1.58-1.85,2.26-3.7,1.71-6.11-.39-1.7-.29-3.53-.23-5.3.03-.85.66-1.49,1.6-1.6.89-.1,1.71.21,2.07,1,.39.85.63,1.8.74,2.73.22,1.8,1.2,3.18,2.66,3.93,2.3,1.17,4.7,2.33,7.19,2.89,6.82,1.54,13.32,4.08,20.05,5.9,2.24.6,4.45,1.3,6.7,1.84,2.79.67,5.62,1.15,8.41,1.84,2.66.66,5.32,1.25,8.08,1.31,5.79.14,11.43-.86,17-2.34,6.19-1.64,12.41-3.18,19.99-3.63Zm-60.54-172.75c-1.3-1.88-1.08-4.2-1.9-6.16-.84-2.01-1.74-3.98-2.95-5.33-5.24-.71-10.07-1.36-14.97-2.02,0,.38-.1.79.02,1.13,1.4,4.19,1.88,8.53,2.32,12.89.23,2.23.1,4.35-.78,6.43-.29.69-.34,1.48-.51,2.29,4.12.65,6.59-2.01,9.39-3.8.41-.26.7-.88.81-1.39.4-1.72.76-3.45,1.01-5.2.14-.94-.03-1.91.05-2.86.03-.34.33-.92.56-.94.47-.05,1.12.03,1.45.33,1.34,1.23,1.32,2.93,1.3,4.58-.02,1.36-.25,2.74-.11,4.09.09.89.46,2,1.1,2.52,1.13.92,2.5,1.77,3.89,2.09,4.03.92,7.88,2.13,11.1,4.87,1.81-.6,3.48-1.17,5.16-1.71.91-.29,1.82-.63,2.76-.76,4.74-.66,9.48-1.28,14.22-1.88,3.39-.43,6.82-.62,10.17-1.25,7.3-1.37,12.51-6.66,13.8-13.85.39-2.19,1.03-4.23,2.19-6.14.62-1.03,1.12-2.14,1.73-3.32-3.26-2.22-6.51-3.77-10.37-3.83-3.28-.05-6.57-.17-9.84-.38-3.58-.24-7.09.29-10.61.82-1.22.19-2.45.52-3.65.45-2.38-.14-4.61.48-6.89.92-1.6.31-3.21.57-4.82.85-2.69.48-5.39.9-8.06,1.48-1.32.29-2.6.82-3.86,1.33-1.4.57-2.08,1.61-2.05,3.2.05,2.59-.02,5.19-.08,7.79-.03,1.07-.13,2.15-1.59,2.75Zm-22.22,138.25c.52-2.45.85-4.6,1.46-6.68.33-1.13.9-2.35,1.72-3.17,4.63-4.65,9.33-9.23,14.08-13.75,1.14-1.08,1.93-2.24,2.33-3.76.98-3.73,1.37-7.54,1.5-11.37.28-7.94-.18-15.86-.86-23.76-.12-1.33-.21-2.68-1.41-3.8-4.21,2.32-7.4.6-10.08-2.53-.42.15-.72.18-.91.34-.52.43-1.03.89-1.49,1.4-7.12,7.75-12.55,16.51-16.29,26.36-1.35,3.54-1.83,7.12-1.69,10.84.05,1.23.08,2.46.14,3.7.33,7.39-1.01,14.41-4.48,20.99-.28.53-.24,1.23-.36,1.93,2.44.8,4.71,1.36,6.82,2.27,3.02,1.29,6.08,1.4,9.54,1Zm87.18-157.79c.59-.24.88-.29,1.09-.46,3.94-3.1,8.5-4.26,13.41-4.39.63-.02,1.25-.31,1.77-.45.17-2.01.34-3.77.47-5.54.07-.95.27-1.97.05-2.86-1.07-4.23-1.44-8.64-3.26-12.67-.85-1.87-1.74-3.72-2.49-5.63-2.09-5.31-5.92-9.5-9.1-14.1-.53-.77-1.33-1.39-2.09-1.97-2.93-2.25-5.86-4.52-8.87-6.65-1.52-1.08-3.07-2.25-5.18-2.54-1.19,2.45-2.82,4.41-5.23,5.62-.05,1.1-.09,2.05-.14,3-.35,7.39.21,14.76.53,22.14.17,3.96.29,7.93.6,11.88.14,1.79.23,3.52-.07,5.3-.25,1.45-.71,2.94.13,4.97,6.36.08,12.66,1.69,18.39,4.33Zm-186.22-69.96c5.54,2.29,11.87,3.51,18.3,3.44,10.27-.12,20.53.63,30.81.18,6.55-.29,13.13-.11,19.69-.22,4.24-.07,8.48-.39,12.73-.37,5.2.03,10.4.29,15.6.46,1.51.05,3.01.14,4.52.19,4.38.17,8.75.52,13.13.46,13.01-.17,26.02-.46,39.03-.8,3-.08,6.01-.41,8.97-.87,1.3-.2,2.53-.98,3.74-1.59.67-.34.63-1.78-.05-2.12-.59-.3-1.26-.57-1.91-.6-6.02-.34-12.04-.64-18.06-.94-2.05-.1-4.12-.07-6.16-.28-7.08-.71-14.16-1.46-21.3-1.38-3.01.04-6.03.1-9.04.05-14.11-.25-28.22-.17-42.31.64-3.14.18-6.31.42-9.43.18-3.13-.24-6.23-.13-9.34-.08-3.15.05-6.3.07-9.45.19-3.42.13-6.84.32-10.25.55-2.02.14-4.08-.15-5.99.4-.78,1.43-.5,3.23-2.12,3.99-.25-.08-.57-.09-.75-.25-1.23-1.06-.09-2.63-.76-3.79-.28-.14-.51-.32-.77-.36-5.66-.82-11.15.85-16.73,1.19-.6.04-1.15.92-2.08,1.72Zm291.29,123.17c-5.47,1.77-10.66,3.48-15.86,5.14-1.56.5-3.14,1-4.74,1.3-3.63.67-7.28,1.26-10.93,1.81-5.14.77-10.28,1.66-15.45,2.14-11.06,1.03-22.16,1.02-33.25,1.05-8.2.02-16.41-.41-24.61-.82-11.08-.54-22.14-1.25-33.22-1.89-.68-.04-1.36-.11-2.04-.17-4.76-.43-9.52-.91-14.29-1.27-4.5-.34-9.01-.55-13.52-.83-.54-.03-1.13-.09-1.6-.32-1.58-.77-2.95-.05-4.31.56-1.36.61-1.38,2.02-.03,2.83,3.44,2.07,7.12,3.56,11.16,3.87,8.46.65,16.93,1.23,25.4,1.81,5.88.41,11.79.49,17.63,1.22,10.77,1.34,21.6,1.38,32.4,1.75,9.14.32,18.33.45,27.49-.52,7.61-.81,15.26-1.1,22.85-2.38,10.13-1.71,20.25-3.31,29.79-7.35.37-.16.79-.27,1.19-.29,2.66-.13,4.9-1.56,7.37-2.17.65-2.14.43-3.89-1.41-5.44Zm-343.22,208.34c-.23.63-.35.83-.36,1.04-.45,9.98-.88,19.97-1.33,29.95-.19,4.24-.22,8.5-.7,12.7-.24,2.12-.1,4.06.48,6.04.93,3.15,1.69,6.32,1.9,9.64.1,1.52.15,3.26,1.35,4.77,2.79-1.38,5.44-2.7,7.9-3.92,0-3.87-.02-7.42,0-10.97.02-3.83.1-7.66.12-11.49.02-3.56-.12-7.12.02-10.67.53-12.71,1.06-25.42,2.88-38.03.18-1.28.02-2.6.02-3.9-2.01,5.03-3.73,10.09-4.28,15.41-.77,7.34-1.34,14.71-1.86,22.08-.55,7.64-.95,15.29-1.41,22.94-.03.55-.1,1.12.02,1.64.82,3.52-.07,7.1.35,10.64.06.54-.43,1.14-.87,2.22-.6-1.02-1.03-1.52-1.22-2.1-1.33-4.12-1.36-8.32-.87-12.58.26-2.3.39-4.64.36-6.95-.04-3.83-.3-7.65-.36-11.47-.13-8.9-1.23-17.71-2.15-26.97Zm25.09,36.73c.86-1.69,1.44-2.88,2.08-4.04.24-.43,1.25-.35,1.42.1.24.62.42,1.28.51,1.93.25,1.76.34,3.54.68,5.28,1.26,6.6,3.36,12.96,5.57,19.3.74,2.11,2.01,3.49,3.82,4.57,1.39.83,2.92,1.25,4.6,1.84-.16-.57-.16-.92-.31-1.01-2.96-1.75-4.13-4.56-4.9-7.73-.77-3.19-1.62-6.38-2.75-9.45-1.65-4.53-2.95-9.15-3.5-13.91-.78-6.65-2.13-13.25-1.84-20,.05-1.09-.15-2.18-.23-3.27-.15-2.18-.38-4.36-.42-6.54-.12-7.25-.16-14.5-.24-22.15-.55.72-.92,1.09-1.15,1.53-1.96,3.68-3.11,7.63-3.46,11.75-.33,3.94-.55,7.93-.31,11.87.34,5.62-.07,11.22-.03,16.83.02,4.19.29,8.38.46,13.1Zm29.05-342.18c-.15,2.45.69,20.24.98,21.33.17.64.5,1.23.79,1.93,2.71-.21,5.29-.37,7.86-.64.65-.07,1.37-.32,1.88-.71,1.84-1.41,3.66-2.87,5.38-4.43.54-.49.73-1.35,1.13-2.13-5.72-6.05-10.2-12.74-14.09-19.84-.31-.57-.88-.99-1.28-1.41-.59,0-.99,0-1.4,0-.41.01-.82.09-1.23.06-3.9-.31-6.15-3.21-5.44-7.09.27-1.48.71-2.92,1.76-4.1.41-.46.64-1.08,1.06-1.82-.7-.09-1.16-.3-1.45-.16-1.74.87-3.05,2.2-4.04,3.89-2.63,4.48.63,11.9,6.61,12.39,1.35.11,2.71.24,3.99.35.89,1.46,1.7,2.72,2.43,4.02.52.92.34,1.98-.38,2.09-.57.1-1.39-.07-1.8-.44-.87-.79-1.54-1.79-2.77-3.3Zm-31.9,351.38c.05,0,.1.01.15.02,0-5.18.01-10.35,0-15.53-.04-13.13-.08-26.26-.14-39.39-.01-2.6-.08-5.19-.15-7.79-.01-.48.12-1.14-.74-1.05-.14.24-.33.45-.39.69-1.91,8.25-3.74,16.51-5.71,24.75-1.24,5.18-1.37,10.57-3.14,15.65-.13.38-.16.81-.16,1.22-.01,3.56,0,7.11,0,10.67,0,.61,0,1.22,0,1.84.78-.67,1.08-1.39,1.27-2.14.6-2.38,1.15-4.78,1.74-7.16.49-2,1.15-3.94,2.4-5.62.61-.81,1.31-.89,1.95-.2.98,8.08,1.95,16.07,2.92,24.05Zm346.56-.88c-2.04,2.91-2.57,5.49-3.39,7.93-1.65,4.93-3.53,9.81-4.65,14.86-2.17,9.76-3.23,19.68-2.83,29.72.09,2.19.04,4.38.14,6.56.29,6.15.51,12.3,1,18.43.36,4.49,1.14,8.95,1.02,13.48-.01.48.32.96.53,1.54,1.89-.13,3.25-.93,4.77-2.15-.11-1.1-.19-2.3-.34-3.5-.39-3.12-.86-6.23-1.21-9.36-.49-4.35-.94-8.7-1.34-13.06-.45-5.04-.97-10.08-1.2-15.13-.32-7.11.1-14.22.6-21.32.22-3.16.49-6.28,1.43-9.3,1.09-3.52,2.27-7.02,3.5-10.5.86-2.42,1.3-4.91,1.97-8.23Zm-344.65,14.47c-2,.4-2.91-.38-3.21-1.72-.42-1.86-.79-3.76-.91-5.65-.42-6.81-.74-13.62-1.08-20.43-.05-.96.01-.97-1.73-2.66-1.22,6.87-3.66,13.3-3.5,20.22.02.67.02,1.42-.24,2.01-.88,1.95-.71,3.99-.84,6.03-.13,2.06.33,3.78,2.12,4.99.39,0,.83.1,1.19-.01,4.9-1.53,9.89-1.96,14.99-1.44.6.06,1.22-.2,1.85-.31-2.39-9.91-4.1-15.37-5.62-17.8-.98,1.78-1.53,3.62-1.64,5.44-.12,1.91-.49,3.7-.96,5.54-.46,1.8-.3,3.75-.43,5.8Zm228.13-318.75c-4.14-2.14-7.72-1.32-10.93,1.23-3.43,2.73-5.54,6.45-6.35,10.69-.7,3.66-2.36,6.64-4.91,9.24-.73.74-1.38,1.56-2.13,2.42.52.22.76.42.97.4,3.12-.34,6.25-.64,9.35-1.09,1.79-.26,3.31-1.14,4.64-2.43,1.92-1.86,3.17-4.02,3.78-6.65,1.75-7.6,1.8-7.59,5.57-13.82Zm-239.58,263.38c.19,0,.37.02.56.03.2-.64.48-1.28.6-1.93,1.86-9.66,4.15-19.22,6.82-28.69.87-3.11,1.2-6.16.65-9.29-.63-3.52-.72-7.06-.72-10.62,0-7.43,0-14.85,0-22.28-2.06,5.54-3.8,11.12-5.45,16.73-.26.87-.2,1.88-.12,2.81.34,3.94.73,7.88,1.15,11.82.08.78.25,1.66.69,2.26.83,1.13.85,2.24.51,3.48-.25.92-.45,1.86-.63,2.79-1.67,8.45-2.53,17.01-3.31,25.58-.22,2.44-.51,4.87-.76,7.31Zm270.98-241.22c-4.01-4.7-6.47-9.68-8.89-14.7-3.07-6.35-8.38-9.43-15.32-9.85-.33-.02-.67.3-1.26.58.79.95,1.46,1.75,2.13,2.56,1.64,2,3.27,3.99,4.18,6.49,1.41,3.86,3.69,7.24,6.09,10.57,1.78,2.45,4.12,3.43,6.95,3.66.95.08,1.91.02,2.86.12.89.09,1.76.3,3.26.56Zm57.03,64.43c-7.03-.97-6.14.16-9.81-5.37-.9,1.93-1.9,3.71-2.58,5.6-2.31,6.42-4.49,12.88-7.6,18.98-.93,1.83-1.24,3.92-.8,5.99.09.43.58.86.99,1.08.18.1.81-.27.96-.56,1.78-3.42,4.19-6.38,6.53-9.4,3.85-4.97,7.65-9.97,11.46-14.96.3-.4.53-.85.84-1.37Zm-93.7-65.03c7.04-.02,13.62.27,20.41-1.17-2.81-4.6-5.5-8.86-7.5-13.49-.6-1.38-1.61-2.52-2.99-3.11-2.71.25-3.93,2.07-4.72,4.16-.67,1.78-1.14,3.66-1.46,5.54-.4,2.36-1.37,4.42-2.68,6.37-.28.42-.53.86-1.06,1.71Zm-98.56,254.38c-.14-.02-.27-.03-.41-.05-.15.34-.32.68-.44,1.04-1.63,4.78-3.27,9.55-4.86,14.35-.39,1.16-.65,2.37-.89,3.58-.43,2.15-.93,4.29-1.17,6.46-.5,4.61-1.22,9.19-.75,13.88.45,4.49.77,9.02.72,13.52-.03,2.91.19,5.73.86,8.53.73,3.05,1.48,6.1,2.41,9.9,0-1.28.08-1.8-.01-2.29-1.38-7.31-1.47-14.68-1.35-22.08.06-3.89.76-7.6,1.86-11.29.74-2.48,1.35-4.99.83-7.65-.18-.92-.09-1.92.05-2.86.83-5.68,1.21-11.42,2.55-17.03.41-1.71.43-3.52.57-5.29.07-.9.01-1.81.01-2.71Zm-94.23-344.55c-.59,2.43.51,3.95,1.46,5.32,1.74,2.5,2.85,5.26,3.96,8.03.76,1.89,1.25,3.93,2.26,5.67,2.89,4.94,5.92,9.82,9.95,13.95.3.31.83.41,1.58.75.04-2.71-.03-4.97-.67-7.25-.97-3.46-2.75-6.49-4.53-9.56-2.85-4.91-5.96-9.7-7.83-15.36-1.87-.48-3.83-.97-6.17-1.57Zm97.7,420.49c-.08-1-.09-1.4-.14-1.8-.75-5.27-1.69-10.52-2.23-15.81-.7-6.82-.9-13.66,1.14-20.34.44-1.44.99-2.85,1.34-4.3,1.19-5.04,2.33-10.09,3.45-15.15.1-.44-.07-.94-.2-2.24-.58,1.25-.82,1.7-1.01,2.18-1.3,3.3-2.72,6.57-3.87,9.92-2.33,6.84-4.49,13.68-4.51,21.1-.02,7.4.44,14.75,1.12,22.1.13,1.47.55,2.91.89,4.63,1.4-.1,2.55-.18,4.02-.29Zm-10.81-474.52c-.13.25-.26.5-.4.74,2.17,1.87,3.9,4.09,5.37,6.49,2.55,4.17,6.46,6.13,11.11,6.79,2.02.29,4.08.27,6.13.32.63.02,1.39.13,1.88-.81-.36-1.24-1.35-2.2-2.25-3.17-2.23-2.39-4.51-4.73-6.79-7.08-2-2.06-4.56-3.03-7.32-3.25-2.56-.21-5.15-.04-7.72-.04Zm3.73,123.64c-1.51,1.61-1.38,3.14-.34,4.91.83,1.39,1.45,2.95,1.89,4.52.74,2.61.09,5.15-.83,7.61-.74,1.97-2.37,2.91-4.29,3.5-.2.06-.31.41-.46.64.76,3.6,3.23,5.84,6.16,7.93,3.11-2.95,4.87-6.45,5.29-10.49.44-4.26-.36-8.47-1.49-12.57-.84-3.04-2.62-5.37-5.93-6.05Zm-28.03-109.07c.46.24.69.47.91.45,3-.25,5.99-.55,8.99-.81,1.16-.1,2-.7,2.8-1.52,2.85-2.93,5.76-5.8,8.64-8.71.26-.26.4-.65.67-1.11-3.73-3.17-7.9-2.51-12.08-1.78-.25.04-.5.24-.7.41-1.46,1.24-3.14,2.29-4.3,3.77-2.18,2.79-3.17,6.25-4.91,9.3Zm199.03,235.69c8.54-.17,16.56.05,24.49-2.17.24-1.65.46-3.23-.73-4.74-6.13,0-12.23-.01-18.34.03-.49,0-1.16.26-1.43.63-1.34,1.83-2.97,3.5-3.99,6.25Zm-158.73,223.74c-.2-12.59-.4-24.69-.6-36.78-.01-.82-.1-1.63-.22-2.44-.03-.18-.34-.32-.71-.65-.35.78-.77,1.47-.97,2.21-1.11,4.09-2.12,8.21-1.93,12.48.25,5.59.64,11.16.94,16.75.14,2.71.41,5.39.94,8.18.8.08,1.44.14,2.56.24Zm-133.3-107.19l.86.02c.53-1.97,1.11-3.92,1.57-5.91.47-2.02,1.1-3.98,2.48-5.54.8-.9,1.06-1.84,1.06-2.97-.01-3.27-.06-6.55.01-9.82.07-3.44-.62-6.77-1.29-10.11-.06-.32-.39-.59-.75-1.12-1.31,3.84-2.56,7.43-3.77,11.03-.44,1.32-.68,2.75.03,3.98,1.27,2.19.96,4.41.58,6.71-.76,4.55-.57,9.15-.79,13.72Zm320,124.73c-1.76-1.5-3.02-2.52-4.23-3.6-1.48-1.33-1.51-1.37-4.1-1.47.65.9,1.17,1.67,1.75,2.4,1.95,2.49,3.71,5.14,4.68,8.13,1.26,3.89,2.4,7.84,3.17,11.84.61,3.19.59,6.51.84,9.77.05.68.06,1.38,1.21,1.61.24-.52.67-1.07.73-1.67.17-1.63.41-3.29.23-4.9-.83-7.59-1.77-15.18-4.28-22.12Zm-10.21-27.08c.79,1.25,1.43,2.63,2.39,3.73,3.59,4.07,5.93,8.87,7.95,13.8,2.86,6.97,4.57,14.3,6.07,21.67.24,1.16-.01,2.5,1.28,3.57.15-1.79.04-3.36-.31-4.95-.68-3.07-1.46-6.14-1.8-9.25-.32-3.03-1.04-5.94-2.03-8.76-1.23-3.47-2.61-6.9-4.17-10.23-1.96-4.15-4.87-7.54-9.37-9.57Zm-207.84-7.78c.22-1.61.37-3.21.68-4.78.35-1.78.29-3.5-.19-5.26-.51-1.84-.85-3.72-1.26-5.59-1-4.55-2.47-8.93-4.78-13.01-1.33-2.36-2.75-4.68-3.95-7.1-.86-1.72-2.19-2.89-3.77-3.96,1.07,3.98,2.58,7.72,4.56,11.29,2.04,3.7,4.01,7.44,5.87,11.24,1.65,3.37,2.18,7.04,1.97,10.75-.12,2.22.07,4.33.87,6.42Zm7.46-443.53c5.39.68,12.13.66,15.05,0-.92-.93-1.81-1.71-2.55-2.62-.77-.94-1.33-2.05-2.1-2.99-1.17-1.42-2.12-1.6-3.5-.48-2.2,1.8-4.28,3.75-6.9,6.08Zm28.94,190.11c1.8-.39,2.4-1.34,2.47-2.95.16-3.74,1.54-6.9,4.98-8.92-.06-1.02,0-1.99-.2-2.9-.23-1.05-1.85-1.54-2.71-.92-.33.24-.64.52-.89.84-2.41,3.23-4.14,6.77-4.72,10.79-.19,1.35-.21,2.75,1.05,4.05Zm217.44,277.78c-1.78,2.58-3.14,5.35-4.07,8.3-.36,1.16-.54,2.4-.68,3.61-.67,6.01-.22,12.02.11,18.02.03.61.5,1.19,1.03,2.36.37-6.04.74-11.34,1-16.65.26-5.31,1.33-10.47,2.6-15.64Zm-368.47-153.93c-.03,1.3-.11,2.59-.08,3.89.16,8.73.34,17.45.5,25.72q1.67-3.49,1.75-7.31c.04-1.78.15-3.55.11-5.33-.13-5.72-.67-11.39-2.28-16.98Zm-3.65,43.42c.47-1.54.98-3.06,1.37-4.62.16-.64.17-1.36.05-2.01-.82-4.44-1.41-8.87-.73-13.4.14-.92-.08-1.9-.22-2.84-.44-2.83-.91-5.65-1.39-8.48-.28-1.68-.44-1.95-2.01-3.61,2.64,11.62,2.73,23.19,2.93,34.96Zm246.51-62.53c.52-1.98,1.02-3.89,1.5-5.72-.33-.21-.43-.33-.54-.34-4.08-.4-4.22-.6-2.92-4.45-.66-.08-1.5-.46-1.84-.19-1.41,1.11-2.59,2.49-2.07,4.51.37,1.44.8,2.88,1.37,4.24.81,1.94,2.42,2.32,4.5,1.95Zm-258.93,139.47c.46.04.99.1,1.52.11.27,0,.55-.05.81-.12.91-.25,1.39-1.18.75-1.88-1.35-1.47-1.41-3.15-1.35-4.98.14-4.43-1.58-8.47-2.82-12.63-.21,1.61-.17,3.19-.04,4.76.13,1.64.4,3.26.52,4.9.12,1.63.07,3.28.2,4.92.12,1.6-.71,3.27.42,4.92Zm362.33,3.11c1.75-5.19,1.81-5.52,1.43-7.22-.89-3.96-2.06-6.61-3.61-8.17-.04,4.78.81,11.1,2.18,15.4Zm-229.78-27.93c.38-.17.75-.24.76-.34.11-1.36.21-2.71.24-4.07.05-2.61-1.64-11.86-2.56-14.24-.09.08-.27.16-.27.23.22,5.3.41,10.6.73,15.89.05.87.72,1.69,1.1,2.54Zm14.3-292.48q-1.57,1.87-.57,3.32c1.02,1.48.95,1.81-.61,2.83-.33.22-.68.41-1.19.72.1.99.2,1.99.32,3.23,2.33-1,2.86-2.89,3.23-4.68.38-1.87.03-3.73-1.19-5.41Zm27.88,77.9c.13-.27.26-.55.39-.82-1.43-.85-2.86-1.7-4.44-2.64-.85.82-1.58,1.52-2.46,2.36,2.16,2.19,4.39,1.23,6.51,1.11Zm48.99-145.09c1.38.02,2.16-1.06,1.87-2.01-.58-1.88.93-4.8-2.4-5.5-1.31,1.49.82,2.38.61,3.59-.22,1.31-.76,2.57-.08,3.92Zm-107.85,401.91c.18.55.28,1.23.61,1.76.8,1.28,2.24,1.91,3,1.35.92-.69.6-1.68.39-2.58-.06-.24-.27-.45-.43-.7-1.13-.42-2.27-.83-3.57.17Zm57.52-265.08c2.14-.57,2.37-1.49,1.29-5.19-1.45,1.6-1.86,3.24-1.29,5.19Zm80.85,93.59c1.49.19,2.35.34,3.22.4,1,.07,1.89,1.02,3.39.47-.6-.71-.91-1.41-1.42-1.6-1.57-.59-3.14-.44-5.2.73Zm-197.16-227.62c.68,2.04,1.83,2.49,3.57,2.08q-.79-2.23-3.57-2.08Zm324.29,399.1c-1.24,1.89-2.72,3.37-2.79,6.58,1.3-2.37,2.34-3.88,3.09-5.57.07-.17-.13-.46-.3-1.01Zm-4,10.99c.06,0,.12,0,.18,0v-1.77c-.06,0-.12,0-.18,0v1.77ZM285.61,218.02c-.42-.16-.81-.36-1.23-.44-.08-.02-.25.39-.38.6.39.23.79.46,1.18.69.11-.21.21-.42.43-.85Zm-3.27-7.69c-.11-.2-.22-.4-.33-.59-.21.12-.54.19-.61.37-.11.3-.06.67-.08,1.01.22-.04.49-.02.65-.15.18-.14.25-.41.36-.63Zm94.63,420.22c-.03-.11-.07-.22-.1-.33-.08.14-.19.27-.23.43-.03.1.05.22.08.33.08-.14.16-.28.25-.42Z"/>
    <path class="cls-1" d="m385.84,657.14c-1.35,1.5-2.63,2.92-3.9,4.35-.94,1.06-2.08,1.81-3.49,1.99-2.3.3-4.62.53-6.93.73-.36.03-.74-.26-1.37-.5.34-.64.49-1.47.94-1.68,1.22-.58,2.53-1.11,3.86-1.27,3.38-.39,6.01-1.68,7.35-5.03.43-1.07,1.38-1.73,2.49-1.97,2.07-.46,4.1-.19,5.95.84.37.21.73.92.66,1.32-.07.39-.68.91-1.1.96-1.48.18-2.99.18-4.45.24Z"/>
    <path class="cls-1" d="m627.86,682.33c1.09-.66,1.72-1.34,2.14-1.23,3.02.8,6.01,1.73,8.97,2.73.34.11.64.89.64,1.36-.01.76-.65,1.25-1.36,1.27-.94.03-1.93-.02-2.84-.26-2.53-.66-4.77-1.93-7.54-3.87Z"/>
    <path class="cls-1" d="m238.19,614.56c.34-1.4,1.05-2.03,2.05-2.16.78-.1,1.61,0,2.38.18.5.11,1.01.44,1.39.81,1.79,1.68,3.65,3.2,6.19,3.62.26.04.59.6.59.91,0,.34-.28.8-.58.98-1.56.96-3.15.66-4.6-.22-.79-.48-1.46-1.2-2.11-1.88-2.08-2.15-2.07-2.16-5.31-2.24Z"/>
    <path class="cls-1" d="m561.15,687.39c.57,1.55-.12,2.5-1.09,3-2.11,1.09-4.42,1.39-6.77.97-.37-.07-.71-.38-1.02-.63-.49-.39-.54-1.59-.02-1.8,2.88-1.18,5.81-2.15,8.9-1.54Z"/>
    <path class="cls-1" d="m359.91,673.04c.66-.4,1.09-.87,1.54-.89,2.71-.17,5.42-.26,8.14-.31.5,0,1.07.24,1.47.55.21.16.29.88.12,1.06-.45.47-1.02.96-1.63,1.13-2.81.8-5.63.97-8.36-.32-.43-.2-.73-.69-1.27-1.22Z"/>
    <path class="cls-1" d="m372.32,641.68c-.57.49-.99,1.16-1.47,1.21-2.16.21-4.34.31-6.51.32-1.62.01-3.25-.13-4.87-.29-.23-.02-.47-.58-.56-.93-.04-.15.25-.53.44-.58,3.87-.9,7.77-1.39,11.72-.55.36.08.66.42,1.24.82Z"/>
    <path class="cls-1" d="m321.2,635.59c2.94-2.53,6.14-3.75,9.98-2.45.27.09.45.62.53.97.04.17-.23.49-.43.6-.35.18-.76.27-1.15.37-1.97.47-3.94.96-5.92,1.39-1.04.22-2.15.54-3.01-.87Z"/>
    <path class="cls-1" d="m395.81,676.97c.9-1.95,2.72-1.39,4.18-1.37,1.83.02,3.74.19,4.73,2.05-.61,1.26-1.51.96-2.27.88-3.23-.33-3.77.43-6.64-1.56Z"/>
    <path class="cls-1" d="m266.08,613.74c.3-1.14,1.03-1.42,1.91-1.29,2.61.41,4.79,1.63,6.56,3.45-.24,1.09-.93,1.17-1.61,1.03-2.55-.54-4.75-1.8-6.86-3.19Z"/>
    <path class="cls-1" d="m385.99,670.37c.08-1.15.96-1.59,1.84-1.98,2.09-.92,2.94-1.04,5.01-.77-1.17,3.42-2.99,4.15-6.85,2.75Z"/>
    <path class="cls-1" d="m287.73,622.74c-2.87.94-3.61.21-4.01-3.58.56.17,1.14.18,1.42.47.84.87,1.56,1.85,2.59,3.11Z"/>
    <path class="cls-1" d="m423.62,622.75c-.52-1.16-1.11-1.95-1.23-2.81-.38-2.71-.73-5.43-.85-8.16-.54-12.03-1.1-24.06-1.04-36.11.02-4.24-.34-8.47-.42-12.71-.19-9.58-.33-19.16-.46-28.74-.06-4.37.05-8.75-.08-13.12-.21-7.51-.64-15.02-.79-22.53-.09-4.37.17-8.75.3-13.12.01-.39.2-.79.39-1.13.12-.21.44-.47.62-.44.34.07.74.26.94.53.24.31.36.74.41,1.14.12.95.25,1.9.25,2.86-.02,3.01.18,5.99.58,8.99.4,2.96.1,6.01.22,9.01.25,6.56.65,13.11.82,19.67.15,5.75.02,11.5.07,17.25.09,9.86.22,19.71.35,29.57.08,6.01.09,12.03.33,18.04.22,5.59.73,11.16,1.07,16.74.21,3.54.38,7.09.49,10.64.03.94-.09,1.93-.39,2.81-.18.54-.85.91-1.58,1.64Z"/>
    <path class="cls-1" d="m292.6,334.74c1.6.37,1.65,1.26,1.7,2.05.22,3.41.46,6.83.55,10.24.24,9.03.42,18.05.61,27.08.41,19.57.75,39.14,1.25,58.7.22,8.77,1.46,17.45,2.72,26.12.26,1.76.51,3.53.66,5.3.07.8.03,1.69-.28,2.4-.22.52-.94,1.1-1.46,1.13-.51.02-1.34-.51-1.53-1-.54-1.39-.98-2.86-1.19-4.33-1.65-11.53-2.47-23.13-2.62-34.79-.06-4.51-.29-9.03-.34-13.54-.21-16.98-.43-33.95-.55-50.93-.06-8.35.08-16.69.16-25.04.01-1.07.19-2.13.31-3.4Z"/>
    <path class="cls-1" d="m335.26,289.35c0,.77.15,1.46-.03,2.05-1.24,4.04-2.52,8.06-3.85,12.06-.3.89-.82,1.72-1.35,2.5-.66.97-1.8,1.32-2.44.84-.81-.6-.68-1.43-.38-2.21.73-1.91,1.48-3.81,2.27-5.69,1.11-2.64,2.26-5.26,3.42-7.87.31-.69.68-.91,2.36-1.67Z"/>
    <path class="cls-1" d="m305.54,290.98c0,1.13.21,1.98-.04,2.66-.68,1.78-1.51,3.52-2.37,5.22-1.6,3.17-3.26,6.31-4.92,9.45-.25.47-.61.9-.99,1.28-.16.16-.56.24-.75.15-.33-.15-.83-.49-.81-.72.09-1.2.01-2.55.55-3.54,2.48-4.55,5.13-9.01,7.77-13.48.23-.39.83-.56,1.56-1.01Z"/>
    <path class="cls-1" d="m309.84,270.19c-.11,1.4-.19,2.89-.38,4.36-.04.31-.55.82-.78.78-.46-.07-1.05-.35-1.26-.73-.32-.56-.46-1.28-.5-1.94-.29-4.6-.56-9.2-.75-13.81-.02-.41.51-.85.79-1.28.39.3.96.52,1.15.92.4.85.76,1.77.87,2.69.35,2.96.58,5.93.87,9Z"/>
    <path class="cls-1" d="m459.4,401.17c-.26-.58-.65-1.13-.77-1.74-1.94-10.1-3.22-20.28-3.13-30.59.02-2.17.42-4.35.72-6.51.04-.28.54-.66.85-.68.3-.02.83.31.91.59.3,1.04.58,2.11.63,3.18.39,7.66.7,15.32,1.08,22.98.18,3.54.47,7.07.68,10.61.04.65-.1,1.3-.15,1.95-.27.07-.55.14-.82.21Z"/>
    <path class="cls-1" d="m428.43,358.12c.4.36.68.51.78.73.21.5.42,1.02.47,1.55,1.22,12.19,2.42,24.38,3.6,36.58.05.51-.14,1.04-.2,1.47-.99.48-1.47-.02-1.71-.67-.32-.89-.57-1.82-.7-2.76-.31-2.3-.57-4.6-.77-6.91-.41-4.75-.72-9.51-1.17-14.26-.27-2.84-.76-5.67-1.04-8.51-.19-1.89-.28-3.8-.25-5.7,0-.5.63-.99.99-1.52Z"/>
    <path class="cls-1" d="m458.05,418.85c0,.64.11,1.3-.02,1.92-.83,4.01-2,7.91-3.93,11.54-.25.48-.57.93-.92,1.34-.51.58-1.16.64-1.85.34-.72-.31-.98-.92-.92-1.65.03-.4.16-.8.32-1.17,1.55-3.33,3.08-6.67,4.69-9.97.46-.94,1.18-1.75,1.78-2.62.28.09.56.17.83.26Z"/>
    <path class="cls-1" d="m421.43,426.94c.46-2.7,1.79-5.5,4.13-7.74.37-.36,1.29-.44,1.84-.26.72.23.83.99.57,1.72-.94,2.56-1.85,5.14-2.84,7.69-.5,1.28-1.21,1.74-2.08,1.59-1.01-.17-1.67-1.18-1.61-3Z"/>
    <path class="cls-1" d="m339.22,236.58c0-4.75-.01-10.49.02-16.23,0-.79.2-1.6.38-2.38.04-.18.41-.38.64-.4.23-.02.62.1.69.26.36.87.8,1.76.9,2.68.29,2.72.57,5.45.62,8.17.2,9.83.33,19.67.42,29.5.01,1.34-.24,2.7-.53,4.01-.07.31-.81.61-1.26.65-.26.02-.73-.43-.81-.75-.21-.78-.29-1.61-.37-2.42-.81-7.35-.82-14.74-.7-23.11Z"/>
    <path class="cls-1" d="m458.1,325.97c-.12.5-.25,1.3-.5,2.06-.25.75-1.5.93-2.05.34-.97-1.06-1.45-2.27-1.1-3.72.23-.94,1.29-1.72,2.11-1.52.88.21,1.37.82,1.47,1.72.03.27.03.54.06,1.12Z"/>
    <path class="cls-1" d="m424.53,327.94c0,.39.12.84-.04,1.15-.14.28-.59.54-.91.55-.87,0-1.53-.48-1.81-1.3-.17-.49-.22-1.04-.21-1.57.02-1.45.78-2.45,1.67-2.23,1.16.3,1.27,1.21,1.19,2.21-.03.39,0,.79,0,1.19.04,0,.08,0,.12,0Z"/>
    <path class="cls-1" d="m307.15,196.85c-2.22-1.17-1.76-2.89-1.64-4.36.12-1.38.66-2.62,2.7-2.61.16,2.4-.84,4.46-1.06,6.98Z"/>
    <path class="cls-1" d="m340.55,189.62c.22,2.51,1.03,4.6-.83,6.59-1.6-1.68-1.77-3.48-.99-5.36.19-.47.98-.69,1.82-1.23Z"/>
    <path class="cls-1" d="m342.18,205.1c-.04.53-.04.8-.09,1.06-.17.95-.94,1.64-1.54,1.41-.64-.24-1.1-1.22-.92-1.99.06-.25.15-.57.33-.7.4-.28.91-.67,1.32-.62.38.05.68.62.9.84Z"/>
    <path class="cls-1" d="m425.5,341.28c-.02,1.3-.48,2.08-1.32,2.21-.98.16-1.9-.86-1.91-2.13-.02-1.63.78-2.81,1.8-2.63.99.18,1.45.99,1.43,2.54Z"/>
    <path class="cls-1" d="m457.35,343.82c-.25.27-.6.95-1.13,1.14-.9.33-1.83-.91-1.75-2.21.04-.71.68-1.36,1.3-1.3.95.08,1.61.92,1.58,2.38Z"/>
  </g>
</svg>