<?xml version="1.0" encoding="UTF-8"?>
<svg id="Laag_1" data-name="Laag 1" xmlns="http://www.w3.org/2000/svg" viewBox="0 0 850.39 850.39">
  <defs>
    <style>
      .cls-1 {
        fill: #131f48;
      }

      .cls-1, .cls-2 {
        stroke-width: 0px;
      }

      .cls-2 {
        fill: #a5d6af;
      }
    </style>
  </defs>
  <path class="cls-2" d="m310.29,704.88s50.06-114.8,16.57-241.46c-52.22-197.47-82.23-257.45,42.7-310.93,82.27-35.22,118.35,47.37,163.43,139.89,24.84,50.99-66.68,98.06,22.23,171.27,88.9,73.21-122.9,148.18-95.24,202.26,70.4,137.67-188.12,129.66-149.68,38.97Z"/>
  <g>
    <path class="cls-1" d="m485.43,431.82c-.09.72-.24,1.25-.21,1.76.28,4.53-1.13,8.6-3.26,12.52-1.23,2.27-2.25,4.65-3.34,6.91.25,1.04,1.07.87,1.68.91,3.83.27,7.04,2.22,10.29,3.93,1.52.8,2.8,2.11,4.12,3.26,3.62,3.14,7.23,6.28,10.79,9.48,1.84,1.65,3.77,3.11,6.05,4.12,1.11.49,2.12,1.25,3.06,2.04,3.55,3,6.89,6.26,11.01,8.54.7.39,1.39.97,1.81,1.64,1.43,2.26,3.58,3.73,5.54,5.44,3.5,3.06,6.9,6.23,10.27,9.44,1.48,1.41,2.91,2.9,4.12,4.53,6,8.06,9.22,17.03,8.48,27.2-.07.95-.06,1.96-.4,2.82-1.87,4.69-3.84,9.34-5.79,14-.81,1.94-2.11,3.52-3.67,4.89-4.33,3.84-9,7.27-14.43,9.31-5.66,2.12-11.59,3.04-17.7,2.92-4.32-.08-8.43-.92-12.43-2.43-5.24-1.99-10.55-3.83-15.7-6.06-5.3-2.3-10.96-3.39-16.4-5.55-.79.95-1.51,1.76-2.15,2.61-2.32,3.09-4.91,5.86-8.33,7.78-1.05.59-1.94,1.46-2.82,2.13,1.12,6.02.82,11.86.89,17.68.04,2.98-.02,5.97.12,8.94.5,10.66,1.22,21.3,1.56,31.96.24,7.65-.06,15.31-.04,22.96.02,6.15.46,12.29,1.4,18.37.69,4.47,1.34,8.91,1.42,13.46.07,4.08.68,8.15.98,12.23.3,4.09.58,8.18.72,12.28.05,1.33-.32,2.68-.6,4-.06.3-.59.73-.86.71-.48-.05-.99-.32-1.36-.65-.28-.25-.43-.71-.5-1.1-.56-2.96-1.27-5.91-1.6-8.89-1.1-9.92-2.08-19.85-3.04-29.79-.28-2.86-.24-5.75-.52-8.61-.49-5.05-.41-10.12-.72-15.17-.6-9.84-.09-19.67-.15-29.51-.03-4.92-.22-9.86-.74-14.75-.75-7.11-.69-14.21-.47-21.32.08-2.46.16-4.93.2-7.39,0-.37-.21-.74-.39-1.33-5.11,3.2-9.67,6.56-11.85,12.46-.96,2.6-2.44,5.04-4.14,7.38-3.86,5.32-9.03,8.65-14.96,11.09-2.14.88-4.32,1.71-6.04,3.4-.56.56-1.36,1-2.13,1.2-5.06,1.31-10.02,1.85-15.37.73-6.93-1.46-12.82-4.76-18.47-8.6-3.71-2.52-6.89-5.81-9.77-9.3-.26-.32-.43-.75-.76-.96-3.96-2.52-5.39-6.8-7.36-10.66-1.24-2.43-2.17-5.02-3.25-7.53-1.86-4.3-2.9-8.71-3.21-13.46-.46-7,.34-13.93.4-20.9.02-1.9.35-3.8,1.42-5.5.87-1.39,1.98-2.31,3.63-2.32,2.59-.01,5.2-.03,7.78.16,2.43.17,4.85.47,7.58.28-.61-2.04-1.27-3.82-1.66-5.66-1.13-5.34-2.38-10.68-3.15-16.08-.72-5.04-2.12-9.87-3.74-14.64-.79-2.31-2.13-4.44-3.14-6.68-1.46-3.23-2.85-6.5-4.35-9.94-3.02-.39-6.07-.79-9.14-1.19-1.06,2.39-.37,4.56-.27,6.71.02.54.24,1.07.39,1.59,1.45,4.88,2.01,9.9,2.3,14.96.13,2.18.08,4.36.09,6.55.01,3,0,5.99,0,8.99-.85.63-1.33-.03-1.58-.59-1.13-2.5-2.12-5.08-2.1-7.85.02-4.64-.84-9.24-.54-13.9.07-1.07-.06-2.27-.49-3.22-1.59-3.5-1.56-7.16-1.48-10.86.02-.94,0-1.88,0-2.96-5.52-1.57-10.94-2.87-16.72-3.29-.15.57-.45,1.08-.39,1.55.34,2.42.57,4.89,1.23,7.24,1.5,5.4,2.2,10.94,3.02,16.45.1.68.21,1.37.16,2.05-.5,7.64,0,15.31-.73,22.95-.2,2.12.44,4.32.67,6.48.05.48,0,.98,0,2.1-.68-.92-1.06-1.29-1.27-1.75-1.34-2.89-2.15-5.91-2.29-9.1-.27-6.01-.65-12.02-.19-18.04.27-3.58-.52-7.07-1.05-10.57-.42-2.83-1.25-5.59-1.8-8.4-.24-1.2-.25-2.44-.35-3.67-.2-2.58-.38-5.16-.58-7.9-5.99-1.51-11.9-2.13-18.21-3.01.45,3.11.54,5.58,1.39,8.08,1.18,3.47,1.78,7.13,2.64,10.71,1.27,5.28,2.11,10.72,3.92,15.81,2.96,8.35,3.88,17.02,4.77,25.68.77,7.49,1.89,14.91,3.24,22.3.66,3.6,2.11,7.04,3.1,10.58.84,3.03,1.57,6.09,2.3,9.15.82,3.45,1.59,6.92,2.38,10.38.06.27.18.52.22.79.35,2.45,2.34,4.27,2.45,6.88.11,2.44.56,4.89,1.06,7.29.73,3.47,1.66,6.9,2.47,10.36,1.69,7.2,4.3,14.12,6.53,21.15,1.61,5.08,3.37,10.12,5.12,15.15.44,1.28,1.14,2.48,1.61,3.76,2.31,6.32,3.89,12.84,4.54,19.53.64,6.52.98,13.07,1.37,19.61.13,2.18.09,4.37.01,6.55-.31,8.51.38,16.96,1.39,25.39.14,1.19.56,2.38-.11,3.63-1.33-.29-1.63-1.36-1.86-2.42-.93-4.28-2.07-8.53-2.67-12.85-.74-5.41-1.21-10.87-1.31-16.36-.11-5.87-.37-11.77-1.15-17.57-.66-5-.5-10.12-2.03-15.01-1.19-3.77-2.08-7.64-3.84-11.23-.89-1.83-1.57-3.78-2.16-5.73-1.24-4.05-2.32-8.15-3.53-12.21-.5-1.7-1.15-3.36-1.73-5.04-.87-2.57-1.74-5.14-2.69-7.98-.97.98-1.02,2.04-1.09,3.04-.33,4.63-.59,9.27-.93,13.91-.41,5.6-.87,11.19-1.9,16.72-1.06,5.66-1.39,11.4-1.4,17.16-.01,7.25-.25,14.49-.23,21.74.02,7.96,1.29,15.8,2.72,23.6.17.94.48,1.88.45,2.82-.02.59-.47,1.23-.87,1.74-.44.56-1.45.51-1.79-.07-.41-.69-.88-1.43-1.01-2.2-.71-4.18-1.39-8.37-1.97-12.57-.5-3.65-.94-7.31-1.27-10.97-.34-3.68-.64-7.37-.74-11.06-.23-8.47-.17-16.96.57-25.4.34-3.94.67-7.89,1.09-11.82.16-1.5.2-3,.34-4.5.39-4.08.86-8.15,1.19-12.24.46-5.74.1-11.49-.09-17.23-.06-1.91-.14-3.83-.06-5.74.11-2.65-.41-5.2-1.14-7.69-1.18-4.09-1.59-8.32-2.41-12.47-.58-2.93-1.12-5.87-2.16-8.71-.75-2.04-1.45-4.23-1.47-6.35-.01-2.35-.46-4.59-.77-6.87-.44-3.25-.71-6.53-1.23-9.76-.29-1.8.25-3.62-.55-5.45-.7-1.59-.94-3.41-1.18-5.16-.44-3.23-.74-6.49-1.09-9.73-.94-8.67-1.99-17.3-4.46-25.74-1.96-6.66-4.16-13.35-4.77-20.29-.47-5.37-2.2-10.42-2.84-15.8-.98-.45-1.81-.88-2.69-1.23-3.04-1.22-6.11-2.37-9.12-3.64-.99-.42-1.91-1.05-2.78-1.69-1.31-.97-2.55-2.03-3.72-2.96-1.09.3-1.33.9-.95,1.61,1.74,3.19,1.73,6.84,2.79,10.2-.49,1.96,1.06,3.65.79,5.51-.28,1.96.7,3.67.74,5.57.04,1.9.48,3.79.71,5.69.46,3.8.69,7.63,1.75,11.34,2.09,7.28,2.57,14.79,3.31,22.28.7,6.96.45,13.92.38,20.88-.03,3.55-.08,7.11.05,10.65.07,1.9.54,3.79.75,5.69.81,7.62,1.55,15.25,2.41,22.86.49,4.35,1.19,8.68,1.72,13.02.29,2.37,1.81,3.97,3.36,5.47,2.91,2.82,5.03,6.09,6.6,9.8,2.57,6.04,3.63,12.31,2.97,18.83-.34,3.4-.99,6.76-1.49,10.15-.69,4.6-1.37,9.2-2.06,13.8-.55,3.65-1.35,7.28-1.6,10.95-.4,6-.46,12.02-.62,18.03-.07,2.74-.13,5.48-.02,8.21.25,6.28.81,12.54,2.14,18.7.2.94.44,1.88.49,2.83.39,8.44,1.15,16.88.94,25.34,0,.26-.15.52-.33,1.08-.57-.37-1.28-.58-1.51-1.04-.55-1.09-1.05-2.27-1.24-3.46-.61-3.77-1.47-7.56-1.51-11.35-.06-6.16-.79-12.25-1.27-18.37-.04-.54-.12-1.09-.25-1.62-1.82-7.37-2.06-14.9-1.97-22.43.06-5.74.3-11.49.62-17.22.12-2.17.69-4.32,1.05-6.48.76-4.58,1.51-9.17,2.29-13.75.55-3.24,1.1-6.48,1.73-9.7,1.38-7.1.26-13.89-2.5-20.46-.41-.99-1.11-1.87-1.76-2.73-.74-.98-1.51-1.95-2.38-2.82-4.48-4.51-5.77-10.11-5.44-16.18.21-3.89-.46-7.65-1.46-11.33-1.4-5.19-2.09-10.46-2.4-15.8-.03-.55.01-1.11-.11-1.64-1.6-6.6-1.16-13.32-1-20,.06-2.45-.05-4.86-.08-7.3-.02-2.04.13-4.08.29-6.11.27-3.57-.8-7.01-.91-10.55-.24-7.28-1.88-14.35-3.21-21.48-.48-2.54-.46-5.17-.76-7.75-.5-4.35-1.06-8.69-1.63-13.04-.37-2.84-.82-5.67-1.21-8.51-.06-.4-.14-.9.03-1.21,1.52-2.78-1.13-5-1.04-7.62.03-.69-1.07-1.5-1.76-2.13-1.81-1.65-3.94-2.99-4.77-5.5-.11-.33-.57-.55-.87-.81-1.79-1.57-2.9-3.55-3.66-5.79-1.5-4.42-2.5-8.92-3.06-13.58-.45-3.68-.63-7.35-.82-11.04-.12-2.33.12-4.61.86-6.86,1.29-3.91,2.45-7.82,5.49-10.86,2.39-2.4,2.91-5.37,2.37-8.71-.5-3.1-.7-6.25-.93-9.38-.1-1.35.08-2.73.13-4.09.03-.82.23-1.67.07-2.45-1.21-6.25-.46-12.56-.6-18.83-.08-3.55.05-7.11-.07-10.66-.09-2.73-.56-5.45-.59-8.18-.09-8.76-.27-17.52.46-26.27.21-2.57-.04-5.18-.06-7.77,0-.39.14-.79.21-1.15,1.01-.39,1.35.38,1.46.95.39,1.87.81,3.76.9,5.66.3,6.28.5,12.57.66,18.86.05,1.77-.19,3.55-.2,5.32-.02,4.51.05,9.01.52,13.51.33,3.24,0,6.55-.02,9.84-.02,4.64-.04,9.28-.01,13.92,0,.95.23,1.9.31,2.85.14,1.49.46,3,.34,4.47-.39,4.94-.01,9.84.48,14.71.84.57,1.3-.08,1.75-.5,2.11-1.95,4.17-3.94,6.27-5.9,2.4-2.23,4.82-4.44,7.31-6.72.05-.95.12-1.89.13-2.83.02-2.19.02-4.38,0-6.57-.02-4.65-.44-9.27-.77-13.91-.46-6.54-.26-13.12-.33-19.69-.01-.96.07-1.92.01-2.87-.43-7.36.28-14.74-.05-22.06-.34-7.67.61-15.3-.04-22.94-.82-9.69-.51-19.41-.66-29.12-.05-3.42.18-6.84.39-10.26.14-2.3.24-2.32,1.56-4.54.93.04,1.01.76,1.03,1.41.13,3.97.3,7.94.33,11.91.02,3.69.23,7.35.72,11.01.34,2.56.27,5.2.21,7.79-.07,3.02.07,6,.44,9.01.33,2.71.34,5.46.38,8.2.1,6.16.18,12.32.18,18.48,0,6.28-.12,12.56-.17,18.84-.04,4.79.01,9.58-.12,14.37-.1,3.53-.77,7.05-.37,10.58.69,6.14.44,12.29.3,18.45,0,.35.21.71.42,1.35,2.84-1.38,4.9-3.67,7.5-5.08,2.52-1.37,5.08-2.69,7.65-3.98,2.67-1.34,5.38-2.63,8.33-4.06-.08-.79-.07-1.73-.28-2.61-.6-2.46-.42-4.82.15-7.29,1.01-4.45,2.8-8.55,4.78-12.61.86-1.77,1.17-3.52,1.08-5.53-.14-3.14-.37-6.26-.61-9.39-.58-7.65-.51-15.33,1.66-22.8.45-1.55,1.37-2.97,2.05-4.46,1.47-3.25,3.1-6.39,5.82-8.82.2-.18.43-.37.56-.6,1.96-3.35,4.74-5.98,7.43-8.7,4.34-4.38,6.8-9.87,8.78-15.59,1.12-3.22,1.97-6.54,3.01-9.79,1.76-5.49,2.89-11.15,3.42-16.85.59-6.39.65-12.84.69-19.27.03-4.37-.53-8.75-.52-13.13.01-7.65-1.17-15.27-.45-22.96.26-2.82-.14-5.75-.59-8.57-1.45-9.11-1.35-18.26-.87-27.42.06-1.2.3-2.4.45-3.57,1.08-.08,1.41.58,1.52,1.23.24,1.34.45,2.71.47,4.07.07,3.56.12,7.12,0,10.68-.12,3.72.38,7.37,1.02,10.99.95,5.4,1.68,10.79,1.67,16.3,0,7.38.24,14.75,1.32,22.08.28,1.88,0,3.83.1,5.74.4,8.07.24,16.16-.74,24.15-1,8.13-2.44,16.21-5.1,24.05-1.64,4.82-3.55,9.46-5.96,13.93-1.71,3.17-3.96,5.86-6.52,8.38-4.97,4.91-9.67,10.07-13.06,16.26-.46.83-.95,1.7-1.15,2.62-.83,3.73-2.1,7.38-2.09,11.27.01,4.51-.36,9.02.36,13.52.3,1.86.05,3.81.05,5.55.96.71,1.48.24,1.97-.25,2.43-2.4,4.76-4.91,7.32-7.17,2.44-2.17,5.05-4.17,7.7-6.07,3.55-2.55,7.21-4.93,10.67-7.28,0-3.18.06-6.19-.02-9.19-.08-2.92.47-5.72,1.3-8.48.67-2.22,1.44-4.42,2.2-6.61.54-1.55.98-3.17,1.76-4.59,1.86-3.38,3.14-6.95,4.16-10.66.47-1.71,1.28-3.31,1.88-4.99,2.58-7.19,4.86-14.47,6.65-21.9.76-3.17,1.89-6.26,2.79-9.4,2-7.01,2.39-14.26,3.18-21.46.92-8.45,1.1-16.91,1.18-25.4.04-4.23.53-8.46.66-12.7.16-5.34.84-10.63,1.42-15.94.25-2.29.91-4.55,1.48-6.79.1-.39.69-.66,1.41-1.3.12.97.27,1.48.23,1.97-.62,7.8-.5,15.58.12,23.37.18,2.3-.23,4.64-.29,6.97-.15,5.86-.2,11.72-.4,17.58-.11,3.13-.4,6.25-.69,9.37-.5,5.3-1.03,10.61-1.63,15.9-.15,1.34-.65,2.63-.94,3.96-1.36,6.12-2.94,12.19-4.76,18.19-.32,1.05-.59,2.11-.86,3.17-.79,3.03-1.3,6.14-2.97,8.91-.62,1.02-.78,2.33-1.13,3.51-1.79,6.04-3.72,12.07-6.63,17.65-1.54,2.94-2.78,5.89-3.63,9.07-.21.79-.53,1.58-.97,2.26-1.57,2.39-1.93,5.07-2.01,7.84-.07,2.42-.15,4.85-.23,7.7.94-.39,1.58-.54,2.08-.89,4.14-2.9,8.3-5.78,12.37-8.79,2.63-1.94,5.22-3.97,7.62-6.19,1.05-.97,1.85-2.41,2.29-3.79,1.49-4.69,2.66-9.45,2.49-14.46-.11-3.13.29-6.28.23-9.42-.08-3.83-.45-7.64-.62-11.47-.1-2.32-.14-4.64-.09-6.95.08-4.57,1.12-8.98,3.07-13.08,2.12-4.45,4.85-8.57,8.4-12.06,2.61-2.57,5.96-2.44,8.17.42,1.92,2.48,3.9,4.99,5.3,7.76,1.83,3.65,3.31,7.52,3.32,11.73,0,2.73.66,5.39.72,8.15.13,6.41.85,12.82,1.29,19.23.09,1.23-.02,2.47.05,3.7.12,1.89.33,3.78.52,5.91,5.83-1.23,11.51-1.82,16.82-4.43-.15-2.11-.28-4.27-.46-6.42-.19-2.17-.44-4.34-.65-6.51-.06-.68-.12-1.37-.08-2.05.3-5.45,0-10.9-.15-16.34-.22-7.85-2.02-15.45-3.95-23-.47-1.83-1.33-3.61-2.3-5.24-1.15-1.93-1.91-3.98-2.27-6.12-.5-2.95-.78-5.94-1-8.93-.69-9.54-.21-19.14-1.34-28.66-.66-5.55-1.34-11.11-1.8-16.68-.39-4.63-.49-9.29-.71-13.93-.14-2.98-.04-5.95-.36-8.96-.47-4.46-.11-9.02-.06-13.53,0-.48.32-.95.47-1.35,1.15,0,1.33.68,1.41,1.34.37,2.98.81,5.97,1.02,8.96.38,5.32.48,10.67.93,15.98.53,6.4,1.31,12.79,1.96,19.18.48,4.76.88,9.53,1.41,14.28.66,5.86.52,11.75.81,17.61.21,4.23.7,8.46,1.33,12.64.28,1.85.9,3.85,1.97,5.35,1.88,2.64,2.59,5.68,3.47,8.61,1.37,4.56,2.24,9.26,3.02,13.99.96,5.87.79,11.72.89,17.6.06,3.27.3,6.55.36,9.82.06,3.68.01,7.35.01,11.2.45.17.96.55,1.42.5,6.1-.73,12.21-1.37,18.37-1.03.39.02.78-.14,1.46-.27-.13-1.47-.2-2.92-.41-4.36-.8-5.55-1.68-11.09-2.44-16.65-.24-1.75-.11-3.54-.29-5.29-.63-5.98-1.57-11.94-1.9-17.93-.27-4.9-1.12-9.73-.94-14.72.26-7.23-.4-14.48-.58-21.73-.14-5.34-.43-10.69-.12-16.01.23-3.96.65-7.89.47-11.87-.03-.67.09-1.37.26-2.03.21-.85.78-1.64,1.66-1.52.7.09,1.48.64,1.94,1.21.38.47.43,1.28.48,1.94.27,3.55.64,7.09.71,10.64.09,4.79-.15,9.58-.07,14.37.08,4.37.39,8.74.63,13.11.08,1.5.37,2.99.39,4.49.08,4.92.08,9.85.13,14.77.01,1.23.09,2.46.14,3.69.09,1.9.15,3.81.3,5.71.27,3.4.13,6.8.7,10.22.76,4.57.67,9.28,1.28,13.88.7,5.28,1.22,10.59,2.61,15.76.35,1.32.54,2.68.85,4.27.77.27,1.63.59,2.51.88,2.07.69,4.12,1.47,6.24,2,1.44.36,2.99.32,4.47.56,1.2.19,2.67.18,3.5.87,1.72,1.44,3.71,1.73,5.72,1.94,4.81.51,9.3,2.11,13.85,3.61,3.66,1.2,7.06,2.81,10.41,4.65,5.41,2.97,10.52,6.37,15.47,10.04,1.86,1.38,3.78,2.69,5.68,4.02,4.91,3.46,9.88,6.85,14.73,10.39,3.97,2.9,7.93,5.85,11.68,9.03,2.49,2.11,4.62,4.65,6.89,7.01.57.59,1.02,1.29,1.57,1.89,3.96,4.31,6.57,9.39,8.48,14.87.63,1.8,1.35,3.57,1.93,5.39,1.33,4.11,1.28,8.36.84,12.58-.43,4.06-1.05,8.11-1.7,12.14-.44,2.7-1.08,5.36-1.62,8.05-.52,2.59-1.46,4.98-3.16,7.04-.35.42-.72.85-.96,1.33-2.2,4.43-5,8.44-8,12.35-2.1,2.74-4.5,5.14-7.11,7.35-1.88,1.59-3.77,3.17-5.77,4.61-1.09.79-2.39,1.32-3.62,1.9-1.23.58-2.54,1.02-3.75,1.64-1.88.96-3.71,1.62-5.87.72-.82-.34-1.9-.23-2.83-.09-7.57,1.15-15.16,2.19-22.36,5.03-1.01.4-2.08.79-3.15.9-4,.4-7.64,2.05-11.41,3.18-1.86.56-3.68.93-5.61,1.05-2.97.18-5.92.57-9,.88Zm-181.8-4.87c3.79-.52,7.56-1.06,11.42-.99,3.27.06,6.53-.31,9.79-.76,3.07-.43,6.26-.02,9.4.04.26,0,.58.08.77.23.29.24.68.58.68.88,0,.3-.41.85-.66.87-1.62.12-3.25.04-4.87.17-3.54.27-7.08.55-10.61.97-5.42.64-10.92.85-16.21,2.42-2.48.74-5.03,1.31-7.08,3.29.13,1.17-.09,2.42,1.4,3.23.9-.53,1.86-1.04,2.77-1.64,1.87-1.23,3.99-1.79,6.14-2.18.41-.07.89.28,1.65.54-1.1,1.4-2.19,2.13-3.41,2.74-1.35.68-2.69,1.36-3.98,2.15-.64.39-1.13,1.01-1.8,1.63,1.23,1.54,1.68,3.34,3.36,4.46,2.54-1.49,4.67-3.41,6.8-5.3,3.53-3.14,7.68-5.18,12.02-6.81,5.16-1.94,10.62-2.6,16.11-2.82,1.5-.06,3.02.03,4.5.25.76.11,1.56.6.89,1.87-.6,0-1.31.14-1.93-.03-1.94-.52-3.79-.15-5.66.3-1.33.32-2.71.45-4.02.84-2.88.85-5.82,1.59-8.57,2.76-3.51,1.5-6.93,3.24-10.24,5.15-2.91,1.68-5.69,3.64-7.71,6.75,1.21.76,2.21,1.45,3.26,2.05,1.15.65,2.35,1.22,3.33,1.72,1.44-1.6,2.65-3.08,4-4.42,4.27-4.22,9.34-7.13,15.06-8.86,2.35-.71,4.77-1.22,7.17-1.74.56-.12,1.41-.24,1.48,1-.8.38-1.64.81-2.5,1.19-3.75,1.66-7.51,3.31-11.27,4.94-4.26,1.85-7.44,4.91-10.16,8.73,2.63,1.92,5.51,2.75,8.36,3.64.72.23,1.58.03,2.41.03,3.32-5.55,7.01-10.59,13.67-12.27l-.1-.08c-.92,1.71-2.26,3.03-3.79,4.22-2.51,1.95-4.58,4.31-6.02,7.17-.34.68-.45,1.48-.68,2.29,2.32,1.04,4.49,1.68,6.8,1.41,1.81-6.22,4.24-9.46,8.35-11.02-.07,2.47-2.24,3.72-3.02,5.69-.78,1.99-2.05,3.78-1.83,6.02q3.65,1.56,7.36,1.23c.66-4.13.69-8.6,4.4-12.25.18,4.88-2.28,8.89-2.01,13.56,2.64.66,5.18,1.37,7.98,1.16-.04-1.97-.29-3.61-1.2-5.3-.96,1.14-.24,2.79-1.69,3.37-1.03-.8-.96-1.93-.88-3,.07-.95.17-1.97.58-2.8,1.02-2.07.45-3.98-.31-5.91-.3-.76-.64-1.51-.95-2.27-.96-2.41-2.04-4.78-2.82-7.25-1.14-3.58-.31-6.7,2.67-9.26,1.03.4,2,.78,2.82,1.09.34-.23.47-.29.57-.38q3.43-3.19,6.72.06c.96.95,1.73,1.11,2.96.58.37-.16.72-.4,1.06-.63,1.76-1.18,3.37-.74,4.9.46.74.58,1.48,1.15,2.29,1.78,1.61-.74,3.17-1.14,4.83-.49,1.75.69,5.15,1.21,6.9,1.11.55-.03,1.1-.08,1.64-.06,1.14.04,2.25.35,2.81,1.39,1,1.85,2.47,2.4,4.43,1.98,1.64-.35,2.94.31,4.1,1.36.5.45.89,1.15,1.46,1.38,2.94,1.15,2.91,3.93,3.98,6.35-1.07.49-1.91.87-2.87,1.31-.26,1.12-.57,2.3-.8,3.5-.39,2.03-.04,3.76,1.84,5.03.77.52,1.34,1.36,1.94,2.1.77.93.77,1.96.19,2.97-.81-1.25-1.58-2.53-2.46-3.74-.35-.48-.93-.8-1.74-1.46-.33,4.45.33,8.29,1.48,12.06.28.93.94,1.73,2.04,1.73,1.03,0,2.05.93,3.24,0,.05-1.44-.35-2.82-.94-4.2-.63-1.47-1.13-2.98-1.68-4.48.62-.7,1.33-.48,1.69.14,1.1,1.88,2.08,3.81,3.07,5.75.35.68.57,1.42.89,2.26,2.38-.91,4.67-1.29,6.66-2.9-.44-.86-.73-1.61-1.16-2.28-2.22-3.44-4.48-6.85-6.73-10.27-.39-.59-.72-1.16.08-1.89,1.87.95,2.98,2.67,4.16,4.32,1.12,1.55,2.34,3.04,3.34,4.66,1.06,1.73,1.92,3.58,2.82,5.29,7.5-.36,8.38-.51,11.04-1.9-1.32-2.95-3.46-5.15-6.16-6.86-1.04-.66-2.15-1.22-3.13-1.96-.51-.39-.88-1.03-1.15-1.64-.09-.19.28-.78.55-.88.32-.12.79.02,1.16.16,4.34,1.66,7.83,4.44,10.7,8.05.75.94,1.56,1.82,2.41,2.81,1.88-.95,3.55-1.8,5.41-2.74-.51-.59-.8-1.04-1.19-1.37-2.09-1.74-4.14-3.53-6.52-4.92-2.11-1.23-3.73-3.18-6.05-4.19-3.63-1.58-7.2-3.3-10.8-4.96-.51-.23-.97-.46-.66-1.31,2.07-.46,3.99.37,5.83,1.19,7.91,3.52,15.12,8.14,21.77,14.05,2.44-2.39,5.18-4.58,7.06-8.01-.52-.38-.94-.74-1.41-1.01-3.83-2.14-7.72-4.19-12.21-4.48-2.95-.19-5.65-1.04-8.19-2.45-.38-.21-.61-.71-1.59-1.89,4.81.95,8.68,1.59,12.53,2.29,4.77.87,8.96,3.21,12.75,5.89.66-.32,1.05-.47,1.39-.68,1.87-1.18,2.17-2.37.97-4-.4-.54-.85-1.11-1.41-1.47-2.06-1.32-4-2.87-6.58-3.18-1.76-.21-3.48-.71-5.21-1.07-1.87-.39-3.72-.91-5.6-1.12-3.4-.36-6.83-.83-10.22-.69-3.39.15-6.75,1.01-10.12,1.55-.81.13-1.62.27-2.43.32-.19.01-.48-.26-.57-.47-.09-.21-.07-.6.06-.73.38-.37.81-.78,1.29-.93,4.72-1.46,9.52-2.39,14.49-1.93,2.39.22,4.77.44,7.32.3-.27-.47-.34-.8-.51-.87-3.27-1.39-6.53-2.81-9.85-4.09-2.08-.8-4.29-.87-6.49-.45-4.52.86-9.15,1.26-13.33,3.51-.09-.46-.27-.81-.17-.93,2.74-3.14,6.69-3.84,10.59-4.93-1.33-1.79-3.23-1.15-4.7-1.75-.83-.34-1.91-.4-2.8-.21-4,.85-8.11,1.44-11.44,4.15-.39.32-.72.91-1.5.29.78-2.1,2.2-3.61,4.21-4.66.5-.26.89-.76,1.59-1.38-3.45-1.05-6.55-1.42-9.54-1.65-2.75,2.15-2.73,2.16-3.83,4.32-.23.46.09,1.48-1.25,1.23.14-2.11.28-4.2.43-6.41-1.83-.29-3.56-1.31-5.53-.74-.57,1.14-1.09,2.19-1.64,3.3-1.8-1.31-.18-2.83-.55-4.28-1.26-.32-2.59-.61-3.89-.99-1.4-.41-2.75-1.11-4.43-.59.28,2.15.61,4.17.79,6.2.1,1.11-.17,2.17-1.62,2.49-3.4-2.66-1.91-6.89-3.32-10.38-1.77.08-3.39.52-5.06,1.37.36,1.24.68,2.27.93,3.31.04.16-.25.39-.44.69-.78-1.28-1.54-2.54-2.28-3.76-2.33-.25-4.5-1.14-6.88-.3.67,1.81,2.78,2.75,2,5.12-.48-.14-1.09-.13-1.37-.43-.74-.8-1.36-1.71-1.99-2.6-1.59-2.24-3.73-3.12-6.43-2.64-1.34.24-2.69.45-4.03.74-.28.06-.5.42-.81.69,5.3,2.63,5.38,2.7,6.3,5.2-1.06.88-2.07.3-3.07-.11-2.28-.93-4.57-1.82-6.81-2.83-3.93-1.79-7.95-1.69-12.07-.89-3.62.71-7.26,1.53-10.93,1.74-3.34.19-5.88,1.97-8.71,3.24-.14.06-.13.48-.21.71-.27.07-.55.13-.82.2.25-.08.5-.17.75-.25Zm214.58,83.59c1.41.8,2.82,1.6,4.22,2.39,2.03-2.85,2.04-2.87,5.11-1.19.9.49,1.76.74,2.87.21.33-.75.65-1.65,1.11-2.48.36-.64,1-.88,1.75-.68.5.13,1.01.22,1.2.26,1.42-1.47,2.6-2.7,3.78-3.93-1.27-1.43-2.64-2.61-3.52-4.09-.81-1.36-1.88-2.32-3.08-3.22-2.83-2.13-5.69-4.21-7.8-7.15-.62-.87-1.58-1.51-2.44-2.18-3.02-2.35-6.12-4.6-9.09-7.02-1.6-1.3-3.2-2.49-5.08-3.39-1.7-.82-3.38-1.89-4.7-3.22-4.94-4.95-10.27-9.4-16.06-13.31-3.04-2.05-6.36-3.17-10.06-2.92-1.23.08-2.46.26-3.65.54-4,.94-7.92,2.1-11.84,3.37-2.57.83-4.28,2.27-5.65,4.38-.31.48-.47.99.26,1.43.79-.39,1.6-.94,2.49-1.18.58-.15,1.39-.02,1.9.31.79.5.74,1.41.43,2.22-.22.59-.55,1.15-.85,1.78,1.2.25,2.16.32,3.01.66.84.34,1.57.95,2.16,1.32,1.67-.73,3.03-1.36,4.42-1.92.18-.07.61.1.7.28.18.32.37.82.24,1.09-1.22,2.59-4.56,4.09-7.21,3.08-1.07-.41-2.08-.56-3.17-.51-1.73.07-3.2-.27-4.18-1.98-.44-.76-1.33-1.45-2.16-1.73-1.86-.62-2.63-1.8-2.68-3.66-.02-.64-.2-1.27-.36-2.18-1.84.3-3.49.39-5.02.86-2.88.89-5.77,1.6-8.73,2.19-5.77,1.16-11.53,2.32-17.38,3-1.21.14-2.44.46-3.55.95-6.76,2.97-13.34,6.31-19.74,10-2.92,1.68-3.92,4.26-4.36,7.52,1.46.48,3.25.58,2.77,2.79-.17.8.57,1.26,1.28,1.29.8.04,1.61-.14,2.41-.26,1.07-.16,1.85.37,2.57,1.03.16.14.21.51.16.73-.05.22-.31.54-.48.55-1.48.06-2.96.04-4.44.09-1.33.04-2.34-.48-3.23-1.47-1.46-1.62-2.52-2.27-4.8-3.17-2.9,6.28-3.71,12.77-1.94,19.5,1.34,5.1,3.55,9.8,7.52,13.39,2.7,2.44,5.43,5,9.24,5.74.52.1.98.49,1.5.66,3.09,1.03,6.01,2.45,9.39,2.71,3.11.24,6.2,1.06,9.25,1.84,3.44.89,6.82,1.99,10.21,3.07,3.52,1.12,6.95,2.65,10.54,3.38,3.88.79,7.69,1.82,11.57,2.59,5.77,1.15,11.43,2.73,17.03,4.52,6.11,1.96,12.19,4.05,18.26,6.15,3.62,1.25,7.28,2.44,10.75,4.03,4.18,1.92,8.45,3.09,13.04,3.02,2.19-.03,4.39-.12,6.56-.36,4.37-.48,8.59-1.49,12.49-3.67,3.48-1.94,6.66-4.27,9.63-6.89.99-.87,1.79-2.09,2.36-3.29,1.65-3.45,3.25-6.93,4.66-10.48.54-1.35.51-2.92.69-4.4.01-.12-.37-.29-.82-.61-.35,1.2-.53,2.39-1.05,3.4-.61,1.19-1.57,2.19-2.29,3.33-1.43,2.28-2.25,2.58-4.66,1.51-.49-.22-.93-.54-1.5-.88-.74.4-1.41.94-2.16,1.12-.74.18-1.68.24-2.34-.05-1.92-.85-3.52-3.99-3.27-6.19.04-.33.41-.76.72-.88.3-.11.87,0,1.07.24.87,1.02,1.66,2.12,2.38,3.07.38,0,.55.05.65,0,.34-.21.65-.46.98-.68,1.71-1.14,2.13-1.12,3.52.19.47.44.9.94,1.33,1.39,2.06-1.52,3.81-2.97,4.1-5.56.13-1.2,1.17-1.78,2.18-2.28,1.28-.63,1.74-1.67,1.53-3.04-.06-.4-.04-.82-.11-1.22-1.22-7.18-4.28-13.5-9.02-19.01-.23-.27-.71-.33-1.05-.48-1.48.64-2.7,1.41-3.14,3.06-.3,1.11-1.15,1.79-2.17,2.34-.69.37-1.39.91-1.82,1.55-1.18,1.73-2.82,2.07-4.69,1.74-1.06-.19-2.08-.55-3.02-.81-4.05,1.97-5.38,1.54-8.64-2.81.36-.47.76-.99,1.16-1.51l-.08.09Zm-6.16-196.96c1.15.23,2.31.66,3.45.63,1.52-.04,1.29-1.96,2.34-2.62.22-.14.49-.21.87-.36,2.06,1.16,4.19,2.47,6.82,1.83.21-.21.44-.37.58-.6,1.25-2.05,1.26-2.08,3.09-1.61,1.43.37,2.84.86,4.57.28-.23-1.4-.43-2.71-.66-4.14-2.29-1.53-4.72-2.84-6.77-4.6-4.18-3.59-9.15-5.98-13.53-9.26-.32-.24-.76-.31-1.1-.54-5.58-3.74-12.32-4.44-18.35-6.98-.49-.21-1.08-.24-1.62-.25-3.97-.08-7.69-1.83-11.69-1.79-.91,0-1.87-.42-2.74-.79-3.89-1.66-7.67-3.61-11.98-4.06-.53-.06-1.06-.27-1.57-.48-2.86-1.18-5.86-1.37-8.89-1.2-2.86.16-5.71.6-8.58.7-3.72.13-7.39.66-10.82,1.98-2.85,1.1-5.81,1.52-8.73,2.19-.67.15-1.38.14-2.01.38-5.39,2.04-11.32,2.13-16.57,4.66-4.24.29-7.8,2.46-11.49,4.23-2.34,1.12-4.7,2.29-6.81,3.78-4.92,3.45-9.81,6.98-14.52,10.72-4.62,3.68-9.43,7.02-14.59,9.87-1.66.91-1.83,2.15-1.28,3.71,1.62.24,2.85-.2,3.92-1.16.71-.64,1.34-1.4,2.14-1.89.51-.32,1.3-.44,1.9-.32.79.15.85.92.83,1.65-.02.61-.57,1.34.6,1.91.68-1.94,2.29-.27,3.49-.87,2.06-1.02,2.03,1.74,3.2,2.05,2.71-1.03,4.23-2.77,4.42-5.37,2.81-.4,3.7.43,3.07,2.61-.11.38-.2.82-.44,1.11-.97,1.15-1.9,2.36-3.02,3.34-1.5,1.31-3.37,2.01-5.34,1.57-2.27-.51-4.63-.59-6.81-1.14-2.04-.52-3.72-.36-5.5.38-1.17.48-2.31.67-3.59.44-1.97-.35-2.95-1.69-3.64-3.49-4.23,1.75-7.56,4.44-10.66,7.27-3.73,3.4-7.19,7.15-10.44,11.02-1.54,1.83-2.44,4.25-3.45,6.48-.29.65-.11,1.62.1,2.37.42,1.54,1.8,1.93,3.23.96.54-.37.98-.88,1.36-1.24.49.12.77.14,1.01.25,2.76,1.2,3.52,1.14,5.17-1.03.84-1.1,1.83-1.66,3.11-1.62.6.02,1.41.32,1.72.76.55.78.07,1.54-.65,2.09-.54.42-1.14.79-1.58,1.3-1.45,1.71-3.38,2.28-5.48,2.39-1.08.06-2.18-.14-3.27-.15-1.23,0-2.46.19-3.68.07-1.01-.1-1.99-.52-3.22-.86.04,3.12-1.77,5.96.14,9.1.78-.2,1.58-.28,2.29-.6,4.8-2.14,10.03-2.63,15.02-4.02.51-.14,1.09-.09,1.64-.09,3.56,0,7.12.08,10.68-.02,4.11-.12,8.21-.35,12.31-.62,3.55-.23,7.09-.53,10.63-.9,1.89-.2,3.81-.42,5.63-.95,4.05-1.18,8.03-2.6,12.06-3.86,1.82-.57,3.67-1.08,5.55-1.42,1.6-.29,3.25-.44,4.88-.41,3.27.08,6.5.79,9.81.55,2.84-.2,5.69-.2,8.54-.13,2.45.05,4.9.2,7.33.52,4.32.57,8.61,1.4,12.93,1.95,2.78.35,5.58,1.2,8.43.34.38-.12.82-.08,1.23-.06,5.63.32,14.42.4,21.03,2.26,4.05,1.14,8.28,1.62,12.22,3.21.5.2,1.07.25,1.61.32,4.34.58,8.67,1.19,13.01,1.7,5.19.61,10.19,1.85,14.98,4,3.12,1.4,6.31,2.68,9.55,3.74,1.72.56,3.21,1.3,4.65,2.87.32-.49.52-1.12.76-1.14,4.54-.31,8.84.97,12.35,3.56,3.96,2.93,6.17,7.21,6.26,12.38.1,5.54-1.72,10.47-4.51,15.11-1.13,1.86-2.36,3.72-3.83,5.31-4.54,4.92-10.13,8.33-16.37,10.67-5.77,2.16-11.64,4-17.6,5.56-2.38.63-4.81,1.24-7.03,2.27-2.19,1.01-4.43,1.34-6.75,1.53-1.49.12-2.97.28-4.46.43-1.77.18-3.53.36-5.29.55-.54.06-1.1.08-1.62.24-.77.24-.99.88-.91,1.62.11,1.06.89,1.68,2.01,1.54,2.98-.38,5.96-.79,8.93-1.22.53-.08,1.06-.26,1.56-.47,3.68-1.49,7.42-2.74,11.4-3.22,1.61-.19,3.17-.82,4.73-1.33,2.21-.72,4.36-1.64,6.6-2.27,6.09-1.69,12.4-2.11,18.6-3.11,2.96-.48,5.94-.87,8.88-1.45.9-.18,1.75-.77,2.54-1.29,6.13-4.09,11.03-9.38,14.97-15.56,2.06-3.22,4.12-6.46,5.87-9.85,1.48-2.87,2.66-5.93,2.71-9.35-.8-.43-1.63-.69-2.2-1.22-.67-.63-1.41-1.43-1.58-2.27-.32-1.62-.46-3.1-2.02-4.23-1.02-.74-.84-2.23-.48-3.47.28-.97.74-1.76,2.22-1.8.8,2.56,3.39,4.32,3.55,7.38.01.23.59.59.93.62.65.07.93-.46,1-1.02.17-1.49.27-2.99.46-4.48.27-2.16.76-4.31.85-6.47.19-4.68-.81-9.13-3.05-13.54-.63.43-1.09.68-1.48,1.02-3.26,2.79-5.59,3.05-9.25,1.08-.58-.31-1.29-.71-1.87-.61-2.8.48-4.76-.74-6.02-2.65-1.55-.3-2.91-.23-3.88-.81-2.42-1.45-2.9-5.81-1.09-8.05.43-.53,1.52-.37,1.69.3.22.91.21,1.87.43,2.78.17.73.53,1.42.86,2.28.97-.46,1.67-.86,2.42-1.14,1.05-.39,1.84,0,2.26,1.08.1.25.09.54.18.8.8,2.33,1.02,2.44,3.56,1.86.52-.12,1.05-.19,1.41-.25.42.24.7.32.88.51.73.75,1.03,1.98,2.42,1.96,1.27-.02,2.42-.27,3.41-1.16.88-.8,1.85-1.5,2.98-2.39-.56-1.31-1.01-2.76-1.77-4.02-1.13-1.86-2.48-3.58-3.74-5.35-2.97-4.15-6.85-7.42-10.62-10.77-2.42-2.15-4.98-4.16-7.49-6.22-2.93-2.4-6.08-4.44-9.4-6.21-2.33,3.38-2.48,3.47-6.37,3.6-.68.02-1.37,0-2.04-.1-.85-.12-1.59-.03-2.33.47-2.38,1.63-4.9,1.4-7.44.41-.75-.29-1.49-.63-2.07-.88-1.21.55-2.16,1.11-3.18,1.43-1.37.42-2.35,0-3.15-1.24-.36-.56-.5-1.26-.74-1.9l-.09.07Zm-237.86,96.18c-.5,3.26-.58,5.83-.33,8.43.36,3.67.82,7.33,1.3,10.99.57,4.43,1.67,8.51,3.86,12.4,1.1,1.97,2.46,3.6,4.09,5.06,1.94,1.73,3.83,3.56,5.96,5.01,3.82,2.59,7.37,5.7,12.09,6.78,1.69.39,3.16,1.66,5.08,1.23.34-.08.82.14,1.14.36,2.23,1.57,4.82,1.82,7.41,2.09.95.1,1.92.17,2.85.36,3.22.63,6.43,1.36,9.65,1.96,3.19.6,6.44.93,9.6,1.67,5.97,1.41,12.04,2.44,17.85,4.51,1.11.4,2.29.98,3.75,0-.36-1.34-.74-2.73-1.15-4.23-2.36-.12-4.57-.03-6.71-.37-7.96-1.28-15.9-2.71-23.84-4.09-.53-.09-1.08-.24-1.57-.46-3.73-1.69-7.91-2.25-11.41-4.52-.43-.28-1.06-.24-1.58-.41-9.44-3.05-15.44-7.39-18.18-16.9-.09-.3-.56-.47-.81-.73-.37-.39-.78-.77-1.02-1.23-2.72-5.28-.2-11.73,5.34-13.94,2.28-.91,4.54-1.92,6.71-3.06,2.46-1.29,5.02-2.12,7.79-2.4,2.04-.21,4.05-.65,6.09-.94,4.6-.64,9.04-2.26,13.74-2.28.53,0,1.09-.15,1.6-.36,1.7-.68,3.41-.92,5.22-.55.52.11,1.1.08,1.62-.04,3.66-.81,7.38-.74,11.04-.42,4.42.39,8.73.22,13.06-.62.78-.15,1.66-.15,2.43.03,3.06.74,6.09,1.58,9.14,2.37,1.72.45,3.44.88,5.16,1.31,1.59.4,3.19.78,4.79,1.17,1.06.25,2.11.55,3.18.73,5.25.87,10.55,1.49,15.75,2.6,11.43,2.45,22.23,6.76,32.8,11.69,2.23,1.04,4.48,2.06,6.61,3.28,3.08,1.77,6.11,3.64,9.05,5.63,1.22.83,2.31,1.96,3.16,3.17,1.88,2.67,1.23,6.57-1.47,8.33-2.63,1.71-3.82,4.38-5.75,7.15,2.58-.05,4.44-.89,6.36-1.55,3.23-1.1,6.48-2.1,9.72-3.17,1.82-.6,3.61-1.28,5.44-1.82.99-.29,1.64-.88,2.23-1.68,2.78-3.78,4.76-7.98,6.37-12.35.47-1.26.77-2.67.75-4.01-.04-4.78-.21-9.57-.43-14.35-.04-.9-.51-1.77-.76-2.56-1.15-.14-2.15-.05-2.95-.41-.82-.37-1.44-1.17-2.11-1.75-.54.2-.91.38-1.3.47-2.79.65-3.6.25-4.82-2.32-.4-.84-.97-1.61-1.27-2.48-.27-.77-.28-1.63.78-2.07,1.31.43,1.46,1.82,2.21,2.73.48.58,1.11,1.04,1.68,1.55.53-.39.86-.63,1.18-.86,1.78-1.31,2.12-1.17,2.92,1.15,1,.02,2.09,1,3.07-.39-.38-3.28-2.07-6.06-4.04-8.7-.98-1.32-2.11-2.53-3.04-3.88-3.74-5.45-8.31-10.14-13.15-14.6-3.6-3.31-7.74-6.01-10.89-9.84-.5-.61-1.27-1.02-1.95-1.47-2.16-1.43-4.37-2.8-6.51-4.27-5.31-3.64-10.7-7.05-17.05-8.69-2.21-.57-4.42-1.2-6.59-1.87-3.3-1.01-6.62-1.71-10.03-1.96-2.72-.2-5.47.02-8.2-.15-3.82-.24-7.62-.68-11.44-1-4.65-.39-9.28-.09-13.92.4-5.03.53-10.08,1.15-15.16.8-4.36-.3-8.7.61-13.07.2-.24-.02-.5.21-.75.29-4.27,1.4-8.48,3.02-12.83,4.12-4.42,1.12-8.55,2.8-12.6,4.83-5.64,2.83-11.15,5.8-15.79,10.17-2.98,2.81-6.06,5.52-9.08,8.29-.9.83-1.73,1.74-2.63,2.57-2.61,2.41-5.22,4.82-7.87,7.18-2.44,2.18-3.57,5.13-4.76,8.03-.23.56-.03,1.29-.03,2.26,1.1-.81,1.92-1.41,2.81-2.06.74,1.04,1.32,1.85,1.85,2.59,1.6-.35,2.24-2.16,3.87-1.66,2.43.75,4.26-.17,5.82-1.98.23-.27.68-.36,1.14-.58.2.43.52.79.49,1.1-.28,2.82-1.87,4.23-4.56,4.1-.68-.03-1.37-.09-2.04-.24-1-.23-1.92-.12-2.71.53-1.04.85-2.1,1.19-3.4.58-.29-.14-.87-.04-1.12.18-1.48,1.3-3.03.72-4.95-.17Zm85.97,121.55c-.24,1.93-.56,3.41-.59,4.9-.13,6.56-.14,13.13-.28,19.69-.09,4.21,1.09,8.09,2.76,11.88.83,1.87,1.42,3.87,2.38,5.66,1.6,2.99,3.1,6.12,5.23,8.72,2.74,3.36,5.95,6.37,9.15,9.32,6.15,5.68,13.28,9.46,21.65,10.81,4.66.75,8.97-.28,13.12-2.19,2.72-1.25,5.27-2.89,7.94-4.24,6.46-3.26,11.26-8.01,14.14-14.76,1.11-2.61,2.85-4.96,4.36-7.39,1.17-1.9,2.88-3.25,4.67-4.56,1.76-1.29,3.37-2.77,5.06-4.15,1.37-1.12,2.74-2.23,4.13-3.31,2.85-2.22,6.4-3.62,8.27-7.01.19-.34.64-.53.87-.86.35-.52.61-1.09.95-1.73-4.53-1.4-8.86-2.48-13.32-3.1-3.23-.45-6.5-1.08-9.56-2.19-7.19-2.62-14.39-5.13-21.94-6.59-2.27,1.11-4.58,2.25-6.9,3.38-1.72.83-3.49,1.56-5.15,2.49-3.69,2.06-7.71,1.47-11.64,1.56-.65.01-1.32-.32-1.97-.49-3.6-.96-6.3-3.17-8.48-6.11-2.2-2.96-4.43-5.91-6.59-8.9-.71-.99-1.52-1.37-2.76-1.32-4.1.15-8.2.17-12.3.26-.93.02-1.85.14-3.19.25Zm153.58-117.84c3.52-.33,6.41-1.44,9.49-2.78-1.14-3.49-2.85-6.56-4.68-9.55-1.92-3.15-4.16-6.07-6.5-8.93-2.19-2.68-4.58-5.24-6.48-8.12.87-.77,1.56-.51,2.12-.17.93.57,1.82,1.22,2.63,1.94,1.11,1,2.14,2.1,3.19,3.16,1.06,1.07,2.19,2.08,3.15,3.23,1.04,1.24,1.93,2.6,2.88,3.91-.54,2.26,2.17,1.5,2.72,2.97.81,2.16,2.25,4.1,2.31,6.5.04,1.47.77,2.54,1.5,3.66,3.63-.73,8.13-3.2,10.54-5.82-.13-.34-.23-.74-.42-1.08-3.12-5.61-7.94-9.69-12.6-13.92-1.1-1-2.1-2.16-3.35-2.92-1.25-.76-.04-2.42-1.16-2.82-1.08-.39-2.26-.26-3.26-1.2-1.59-1.5-3.5-2.58-5.62-3.28-1.14-.38-2.26-.94-2.83-2.18,1.09-.58,1.8.43,2.67.54,4.14.52,7.33,2.83,10.45,5.29,3.86,3.05,7.67,6.17,11.55,9.21,2.63,2.06,4.72,4.54,6.31,7.47.37.69.87,1.31,1.46,2.17,3.65-3.55,6.45-7.29,7.66-12.22-.93-1.34-1.83-2.7-2.79-4.02-1.05-1.43-2.17-2.81-3.23-4.24-.94-1.27-2.53-2.05-3.07-3.99,3.99-.38,6.08,2.9,9.28,4.33,0-.87.15-1.56-.02-2.15-1.32-4.43-4.86-6.22-8.97-6.64-5.11-.52-9.91-1.87-14.61-3.8-3.41-1.4-6.77-2.97-10.29-4-6.17-1.82-12.58-2.42-18.97-2.98-.14-.01-.28,0-.41.02-3.61.7-7.23,1.42-10.85,2.1-.59.11-1.21.02-1.88.02.39-2.29,3.42-2.05,3.61-4.53-1.68-.41-3.43-.7-5.09-1.26-2.79-.94-4.91.09-7.15,1.9.82.87,1.35,1.72,2.12,2.21,1.39.88,2.05,2.01,2.29,3.64.23,1.55.32,2.97-.54,4.34-.58.93-1.13,1.87-1.68,2.81-1.18,2.01-2.17,4.05-2.38,6.47-.37,4.22-.95,8.42-1.52,12.62-.18,1.29-.08,2.44.76,3.48,2.05,2.54,4.09,5.09,6.22,7.74.71-1.89-.99-2.9-1.18-4.33-.2-1.57-1.8-2.72-1.46-4.67,5.76,6.23,8.17,8.56,12.49,26.31,2.11.78,3.84-.71,5.85-.94.22-2.16-.79-3.9-1-5.77-.3-2.65-1.55-4.96-2.79-7.22-2.89-5.26-5.94-10.42-8.91-15.64-.24-.43-.3-.97-.45-1.48.33-.05.49-.13.55-.08,5.23,4.22,8,10.24,11.39,15.78,2.16,3.53,3.02,7.6,3.97,11.59.58,2.43,1,2.76,3.31,2.05,1.27-.39,2.74-.5,3.57-1.91-.26-5.4-2.81-10.13-4.78-14.96.38-.92,1.13-1.13,1.61-.52.92,1.17,1.73,2.47,2.36,3.82,1.61,3.46,3.07,6.98,3.24,11.21,1.95-.53,3.61-.99,5.29-1.45-.91-2.99-1.54-5.78-2.59-8.4-2.1-5.21-4.45-10.35-8.38-14.48-4.89-5.13-9.73-10.35-15.73-14.27-.19-.13-.25-.46-.49-.92,1.82-.15,3.21.62,4.53,1.51,3.54,2.39,6.49,5.43,9.23,8.68,2.99,3.55,5.83,7.24,8.99,10.64,2.11,2.27,3.69,4.74,4.55,7.67.81,2.74,1.47,5.52,2.3,8.67Zm-102.85,125.55c-3.08-1.1-5.66-1.99-8.2-2.94-2.17-.81-4.42-1.5-6.43-2.6-5.94-3.25-10.27-8.09-13.14-14.2-.81-1.72-1.33-3.59-1.8-5.44-1.71-6.59-2.25-13.18.02-19.79,2.56-7.45,7.28-13,14.29-16.62,1.3-.67,2.73-1.24,3.61-2.86-.74-1.4-1.69-2.77-2.2-4.29-.55-1.66-.75-3.45-.99-5.2-.76-5.6-.82-11.17.77-16.67.45-1.56.73-3.16,1.06-4.63-1.68-1.86-3.41-2.88-5.9-2.39-1.7.34-3.24-.27-4.26-1.83-.92-1.41-2.35-1.56-3.62-.89-2.53,1.36-4.43.56-6.24-1.27-.37-.37-.91-.56-1.45-.89-.52.23-1.02.42-1.5.66-1.89.94-3.41.5-4.69-1.14-.49-.63-1.11-1.15-1.78-1.83-1.57.73-3.03,1.41-4.78,2.22-.78-.44-1.78-.87-2.62-1.52-.81-.64-1.45-1.5-2.18-2.28q-2.43,2.8-5.82,3.84c.11.63.15,1.31.36,1.92.85,2.45,1.73,4.9,2.64,7.33,1.68,4.47,3.24,8.98,4.35,13.63.83,3.45,1.38,6.97,2.25,10.41.57,2.24,1.35,4.45,2.29,6.56,1.39,3.1,2.96,6.11,4.53,9.13,3.38,6.52,4.86,13.58,6.21,20.71.75,3.97.72,8.08,2.09,11.94,1.32,3.73,2.62,7.46,3.95,11.18.18.51.43,1.02.77,1.44,2.44,3.12,4.9,6.24,7.38,9.33,1.51,1.88,3.48,3.2,5.84,3.55,5.56.82,10.46-.83,15.18-4.56Zm-6.89-314.17c-.98,1.15-1.81,2.2-2.72,3.19-5.34,5.81-7.43,12.96-8.11,20.54-.39,4.34-.05,8.74,0,13.12.02,1.36.25,2.72.23,4.08-.05,3.14-.23,6.27-.31,9.41-.07,2.88-.23,5.73-1.33,8.44-.25.62-.42,1.31-.47,1.98-.05.75-.93,1.46.07,2.48,7.86-3.75,16.22-6.47,24.56-9.09.08-.59.28-1.04.17-1.39-.88-2.79-.57-5.68-.74-8.53-.1-1.64-.13-3.28-.28-4.91-.43-4.61-.92-9.22-1.36-13.83-.31-3.26-.41-6.54-.89-9.77-.78-5.25-3.24-9.81-6.4-13.99-.53-.7-1.49-1.09-2.42-1.73Zm28.52,133.45c.2,3.13,1.42,4.87,3.74,5.94,1.11.51,2.2,1.1,3.19,1.81,1.99,1.43,3.94,2.84,6.14,3.98,2.27,1.17,4.42,2.7,6.03,4.83.65.86,1.55,1.53,2.36,2.26,4.12,3.76,8.25,7.52,12.4,11.26.26.23.68.3,1.34.57-.27-8.85,3.37-16.52,6.16-24.29-1.94-2.15-4.06-3.13-6.72-2.81-.53.06-1.1.02-1.63-.11-1.76-.43-3.45-.58-5.09.48-.39.25-1.13.28-1.55.08-1.06-.5-1.77.02-2.64.47-2.36,1.22-2.36,2.3-5.53-.79-.09-.08-.26-.08-.35-.11-1.36.13-2.82.64-3.98.27-1.15-.37-2.01-1.64-3.09-2.6-3.7,2.21-7.05,1-10.75-1.25Zm20.78-2.63c-.88-1.48-2.56-.92-4.01-1.12-1.63-.22-3.27-.3-4.9-.56-1.46-.23-2.85-.92-4.3-.77-.56.7-1.02,1.28-1.67,2.1-1.34-1.82-2.93-2.46-4.92-2.84-4.91-.94-9.82-.65-14.74-.53-2.03.05-3.46,1.26-4.92,2.7,1.62,1.52,3.41,2.04,5.03,2.38,1.95-.27,3.03-2.56,5.3-1.32-.08.81-.17,1.68-.28,2.76,1.14.3,2.28.59,3.35.87,1.14-1.55.93-3.89,3.28-4.1,1.76-.16,3.52-.39,5.23.47,1.43.72,2.96,1.25,4.52,1.89,2.87-1.92,5.39-1.29,7.44,1.3,2.45-.76,4.42.04,6.01,1.33,3.03-.84,5.77-1.64,8.53-2.35.64-.16,1.44-.23,2.01.02,2.51,1.12,5.1.47,7.48.66.87-.8,1.56-1.44,1.35-2.76-.9-.16-1.8-.43-2.71-.47-4.64-.24-9.29-.49-13.93-.58-1.01-.02-2.04.58-3.18.94Zm-52.57-1.96c6.09,1.29,8.27.91,10.84-1.69-5.14-1.1-6.03-.97-10.84,1.69Zm-1.93.13l-.03.24.33-.09-.3-.15Zm18.11-88.07c-.09-.21-.17-.41-.26-.62-.16.11-.43.21-.44.35-.02.19.14.4.22.6.16-.11.32-.22.48-.33Z"/>
    <path class="cls-1" d="m310.84,170.53c1.6,1.29,1.66,2.55,1.87,3.76,1.86,10.92,3.24,21.9,4.38,32.92.42,4.07,1.07,8.12,1.51,12.19.3,2.85.45,5.71.61,8.58.31,5.58.49,11.17,1.17,16.73.31,2.56.18,5.18.54,7.73.5,3.51,1.22,6.99,1.96,10.46.19.88.8,1.66,1.24,2.54,3.21-.26,5.43-1.88,6.55-4.48,1.67-3.88,3.54-7.68,4.74-11.78,1.24-4.25,1.75-8.59,1.34-12.91-.25-2.65-1.47-5.23-2.39-7.78-.55-1.53-1.38-2.97-2.09-4.44-2.84-5.95-3.54-12.25-3.36-18.76.16-5.88.1-11.77,0-17.65-.07-4.23-.39-8.46-.53-12.69-.07-2.18.01-4.37.05-6.55.01-.82.21-1.66.08-2.45-1-6.12-.38-12.27-.39-18.41,0-5.47-.02-10.94-.11-16.41-.04-2.39.45-4.62,1.48-6.74.28-.58.83-1.02,1.46-1.77.38.68.83,1.11.83,1.54.08,10.67.08,21.34.19,32,.03,2.85.47,5.69.63,8.54.18,3.14.15,6.29.39,9.42.79,10.38.14,20.76.2,31.14.04,6.49.8,12.77,3.71,18.68.96,1.95,1.5,4.11,2.4,6.1,1.28,2.83,1.66,5.77,1.33,8.82-.48,4.47-.52,9.05-2.41,13.25-1.34,2.99-2.9,5.87-4.42,8.77-.75,1.44-1.47,2.95-2.5,4.19-.94,1.13-2.2,2.03-3.44,2.86-1.57,1.05-3.33,1.05-5.14.57-1.15-.31-1.96-.91-2.43-1.99-1.36-3.16-2.53-6.41-2.82-9.83-.75-8.72-1.61-17.44-1.86-26.17-.17-5.9-.92-11.72-1.57-17.54-.72-6.38-1.21-12.78-1.76-19.17-.32-3.68-.44-7.37-.75-11.05-.28-3.26-.73-6.51-1.04-9.78-.06-.62.18-1.26.35-2.41Z"/>
    <path class="cls-1" d="m344.51,539.25c.15.44.39.86.43,1.31.34,4.36.53,8.74.99,13.09.42,3.94,1.09,7.85,1.71,11.76.32,2.01.39,2-.66,4.2.56.5,1.5.93,1.62,1.52.59,2.74,2.06,5.04,3.36,7.44,4.82,8.9,9.49,17.9,12.91,27.44,2.02,5.64,3.62,11.41,4.15,17.48.49,5.56,1.75,11.04,2.51,16.58.78,5.67,1.31,11.38,2.06,17.06.73,5.53,1.1,11.1,1.88,16.64.83,5.81,1.3,11.68,1.75,17.54.68,8.86,1.2,17.73,1.78,26.6.04.66,0,1.33,0,2.22-.65-.22-1.2-.24-1.29-.46-1.43-3.52-2.93-7.03-2.47-10.99.05-.46-.26-.95-.37-1.44-.27-1.18-.82-2.39-.75-3.55.35-5.09-.49-10.11-.82-15.15-.37-5.57-1.04-11.12-1.66-16.68-.94-8.29-2.11-16.55-2.85-24.85-.26-2.88-.92-5.64-1.33-8.47-.94-6.49-1.76-13.01-2.95-19.46-1.17-6.32-3.02-12.46-5.29-18.5-2.21-5.9-5.39-11.36-7.68-17.21-.69-1.77-1.86-3.34-2.8-5.02-.38-.68-1.06-1.33-.26-2.18.06-.06-.14-.56-.26-.58-1.45-.26-1.51-1.53-1.69-2.52-1.15-6.15-3.14-12.14-2.81-18.56.17-3.23-.87-6.48-.48-9.78.21-1.75.31-3.51.45-5.27.27-.07.53-.14.8-.21Z"/>
    <path class="cls-1" d="m393.02,729.29c-.23-.43-.58-.85-.66-1.31-.42-2.42-.81-4.85-1.13-7.29-1.05-7.86-2.06-15.73-3.1-23.59-.09-.67-.29-1.33-.41-2-.45-2.41-.7-4.81-.71-7.3-.03-5.05-.49-10.09-.84-15.13-.14-2.05-.56-4.08-.64-6.12-.31-8.79-2.04-17.37-3.88-25.93-.63-2.94-1.69-5.81-2.03-8.77-.49-4.33-.51-8.72.57-13.02.17-.65.51-1.27.84-1.87,1.3-2.3,2.49-3.05,5.04-2.5,2.52.54,5.07,1.24,7.4,2.33,4.2,1.97,8.5,2.96,13.12,2.56.82-.07,1.65-.1,2.46-.05,6.55.43,11.98-2.29,17.01-6.08.75-.57,1.39-1.31,2.02-2.02,1.1-1.22,2.08-2.55,3.23-3.72,3.62-3.64,6.27-7.85,7.61-12.78,1.1-.05.81.72.85,1.13.29,3.49-1.31,6.45-3.11,9.15-2.12,3.16-4.51,6.2-7.15,8.94-5.25,5.44-11.67,8.46-19.39,8.33-1.1-.02-2.2-.13-3.28-.01-5.65.61-10.78-1.16-15.86-3.29-1.5-.63-3.09-1.11-4.67-1.49-1.35-.32-2.46.36-2.93,1.65-.28.77-.53,1.58-.57,2.39-.16,3.4-.5,6.76.25,10.18,1.69,7.75,3.41,15.51,4.59,23.34,1.09,7.27,1.39,14.65,2.24,21.96.49,4.23.41,8.45.57,12.67.11,2.85.84,5.67,1.18,8.52.78,6.65,1.63,13.31,2.18,19.98.3,3.64.05,7.33.05,10.99-.29.04-.57.09-.86.13Z"/>
    <path class="cls-1" d="m411.39,664.01c-.21-1.05-.37-1.83-.52-2.56-.54.07-.93.11-1.29.16-.17-.29-.4-.5-.42-.73-.16-2.44-.31-4.87-.86-7.29-.42-1.85-.26-3.74.12-5.67.58-2.91.84-5.9,1-8.88.15-2.82,1.35-4.49,4.09-5.37,1.37-.44,2.61-1.46,3.76-2.4,1.58-1.29,3.04-2.66,5.11-3.28.93-.28,1.57-1.42,2.41-2.07.73-.56,1.55-1.19,2.61-.13-.59,1.45-1.88,2.31-3.09,3.09-3.55,2.29-6.6,5.3-10.53,7.02-1.18.51-1.81,1.49-1.93,2.9-.3,3.54-.82,7.05-1.13,10.59-.13,1.46-.13,2.89.73,4.31.65,1.07.94,2.47,1.03,3.75.16,2.46,1.01,4.75,1.37,7.15.14.93.24,1.9.16,2.83-.16,1.78,0,3.4.57,5.17.64,2.01.46,4.3.5,6.47.07,4.35.1,8.7.05,13.05-.05,3.8.32,7.62-.25,11.41-.06.4-.11.87.05,1.21.96,2.07.8,4.26.84,6.44.1,5.31,1.46,10.56.81,15.92-.06.51.23,1.05.36,1.58.19.8.44,1.58.56,2.39.19,1.25-.26,2.13-1.1,2.35-.85.22-1.67-.46-1.87-1.71-.23-1.48-.38-2.97-.53-4.47-.34-3.4-.77-6.79-.95-10.2-.32-5.99-.8-11.98-1.21-17.96-.24-3.39-.12-6.82.03-10.23.14-3.16-.39-6.25-.71-9.36-.29-2.79-1.55-5.57.11-8.33l-1.05-2.66c-.95-1.31-1.04-2.73-.33-4.14.11-.23.74-.19,1.5-.36Zm1.09,10.56c-.1-.04-.2-.09-.3-.13-.02.17-.04.34-.07.51.11-.02.25,0,.31-.06.06-.06.04-.21.05-.32Z"/>
    <path class="cls-1" d="m437.31,718.88c-1.41-2.1-1.82-3.55-1.96-5.03-.44-4.75-.8-9.52-1.17-14.28-.19-2.44-.46-4.89-.5-7.34-.02-1.72.74-3.55.35-5.14-.38-1.54-1-3.01-1.23-4.66-.31-2.26-1.16-4.45-1.62-6.7-1.12-5.49-1.84-11-1.66-16.65.15-4.61,1.63-8.83,3.13-13.06.72-2.05,1.92-3.92,2.82-5.91.73-1.61,1.37-3.26,2.01-4.9.2-.51.19-1.11.45-1.57,2.43-4.33,3.74-9.08,5.28-13.74.08-.24.32-.43.69-.89.29.47.7.83.73,1.21.35,5.07-1.34,9.71-3.29,14.24-1.73,4.02-3.65,7.96-5.58,11.88-2.39,4.87-3.52,10.03-3.65,15.4-.05,2.16.36,4.34.64,6.49.45,3.47,1.38,6.86,1.47,10.41.04,1.54,1.1,3.02,1.46,4.59.43,1.86.74,3.77.88,5.67.33,4.62.55,9.26.78,13.89.23,4.49.46,8.97.63,13.46.02.6-.29,1.2-.66,2.62Z"/>
    <path class="cls-1" d="m460.06,288.94c-1.17-.94-1.88-1.51-2.55-2.06.04-.99.62-1.29,1.36-1.09,2.08.55,3.22,1.82,3.09,3.28-.11,1.26-1.35,2.35-3.18,2.78-.4.09-.85.26-1.2.16-2.11-.61-3.88-.27-5.73,1.07-1.5,1.1-3.42.65-5.11-.11-.61-.28-1.15-.7-1.63-1-1.45.25-2.76.56-4.09.69-1.49.14-1.69-1.63-2.45-1.95-1.97.15-3.6.49-5.17.33-2.8-.27-3.91-2.48-2.74-5.03,1.03-2.22,2.76-3.71,4.99-4.6.45-.18,1.15-.12,1.56.13.39.24.54.86.77,1.28-1.24,1.3-2.36,2.46-3.44,3.65-.13.14-.02.5-.02.76,1.03.71,1.82,0,2.67-.39,1.11-.51,2.17-1.18,3.33-1.5,1.58-.43,2.19.16,2.61,2.13.06.26.14.51.3,1.06.8-.66,1.47-1.27,2.21-1.8.79-.56,1.72-.24,1.94.67.13.51.04,1.07.12,1.6.18,1.2,1.14,2.02,2.23,1.83.66-.11,1.37-.31,1.9-.68,1.01-.71,2.02-.81,3.09-.34,1.69.73,3.16.18,5.15-.88Z"/>
    <path class="cls-1" d="m409.79,300.82c.9-.72,1.61-1.35,2.38-1.89,1.42-.99,2.01-.84,3.32.75.25.31.54.58.78.83,2.73-.16,3.65-2.11,4.13-5.04.91,1.15,1.44,1.58,1.65,2.13.47,1.23.03,2.44-.49,3.56-.64,1.35-2.02,1.75-3.27,2.31-1.86.83-3.46,0-5.26-.92-2.81,1.29-5.67,1.73-7.58-1.67-1.63.22-3.1.43-4.57.62-1.17.15-2.23-.16-2.92-1.1-.37-.5-.69-1.25-.63-1.84.24-2.53,2.18-4.06,3.82-5.63,1.38-1.32,3.11-2.3,5.22-1.55.11.04.2.15.48.38-.18.41-.26.99-.6,1.31-.69.65-1.5,1.18-2.29,1.71-1.16.77-2.14,1.67-2.5,3.06.48.83,1.15.62,1.75.35,1.12-.5,2.19-1.13,3.32-1.62,1.57-.68,2.65.06,2.7,1.82.02.64-.06,1.29-.06,1.93,0,.09.2.17.63.53Z"/>
    <path class="cls-1" d="m501.11,329.76c.7.29,1.47.39,1.89.83,1.39,1.44,2.89,1.2,4.51.59.74-.28,1.66-.83,2.25-.6,2.57.97,4.86-.3,7.18-.82,1.33-.29,2.44-1.53,3.75-2.4,1.09,1.33.88,2.64-.04,3.71-.68.79-1.66,1.49-2.65,1.81-1.81.58-3.7.99-5.59,1.18-1.75.18-3.5.19-5.2.79-.74.26-1.64.33-2.42.2-2.01-.32-3.87-.69-5.96.23-1.84.81-4.15-.54-5.18-2.32-1.31-2.27-1.42-4.65-.62-7.09.1-.3.55-.49.8-.7.92.31.88,1.05,1.01,1.7.2,1.07.25,2.2.63,3.2.86,2.26,2.51,2.55,4.4.89.39-.35.75-.73,1.22-1.19Z"/>
    <path class="cls-1" d="m474.31,306.39c.81-1.29,1.32-2.1,1.7-2.7.84,0,1.28-.12,1.62.02,1.35.55,2.59.58,3.87-.26.89-.58,1.89-1.07,3.01-.73.84,1.11.21,2.02-.53,2.47-1.14.69-2.45,1.18-3.75,1.51-1.31.34-2.56.55-3.61,1.61-.91.92-2.24.95-3.47.51-.89-.31-1.74-.74-2.8-1.19-2.28,1.13-4.82,2.83-7.31.33-1.57-1.57-3.18-3.31-2.09-6.13,1.65.6,2.01,2.04,2.83,3.05,1.32,1.63,2.67,1.67,4.01.04.17-.21.25-.48.41-.7,1.53-2.1,1.95-2.11,3.56-.26.6.69,1.32,1.27,2.54,2.42Z"/>
    <path class="cls-1" d="m487.63,293.5c.58-.77,1.2-1.64,1.87-2.47.68-.84,1.64-.94,2.5-.25.52.42.9,1.05,1.47,1.35.98.52,2.16.91,3.09.08,2.5-2.22,5.17-.88,7.77-.45.47.08.98.9,1.15,1.47.2.67-.73,1.65-1.48,1.66-.81.01-1.62-.22-2.43-.21-.79.01-1.76-.06-2.32.36-1.89,1.41-3.89.99-5.9.65-.79-.13-1.54-.5-2.42-.8-1.67,1.14-3.33,2.54-5.51,1.04-1.54-1.06-2.56-2.32-2.43-4.25,2.04-.63,2.48,1.65,4.64,1.82Z"/>
    <path class="cls-1" d="m447.63,315.15c1.72-.06,2.71.74,3.48,2.01-.05,2.12-1.24,3.53-2.96,4.55-1.63.97-3.27,2.12-5.27.83-1.79.22-3.54-.69-5.45.47-1.66,1-3.74.27-5.43-.8-1.28-.82-1.68-2.14-1.54-3.56.08-.78.48-1.52.71-2.19,1.34-.38,1.65.35,1.7,1.25.11,1.9,1.29,2.57,3.29,2.75.66-.49,1.5-1.16,2.38-1.76,1.33-.92,1.91-.75,2.91.78.21.33.39.68.66,1.13,1.1-.2,2.18-.3,3.2-.61,1.84-.56,2.04-1.01,2.02-3.27,0-.49.19-.99.31-1.56Z"/>
    <path class="cls-1" d="m512.14,313.5c-.07-.22-.16-.43-.21-.65,0-.04.11-.11.17-.17,0,.29-.01.58-.03.88,0,0,.08-.07.08-.07Z"/>
    <path class="cls-1" d="m397.9,399c-.75-2.39-.83-4.32.35-6.61,1.08,1.54.02,3.27,1.38,4.57.78-.05,1.81-.11,2.92-.18.54.79,1.06,1.56,1.54,2.28.38-.05.77.02.88-.13,1.51-1.94,3.23-2.32,5.27-.82.2.15.5.16.87.26,2.37-1.06,2.88-2.94,2.22-5.35-.18-.66-.32-1.33-.55-1.97-.47-1.3-.09-2.39.65-3.45,1.18-1.69,2.45-1.75,3.98-.15.46.48.89.99,1.44,1.6.69-.31,1.29-.56,1.87-.84.46-.22.91-.48,1.39-.73.99,2.58.8,3.31-.94,4.04-1.51.64-1.77.66-4.94.4.09.82.22,1.59.26,2.37.1,1.82-.23,3.48-1.47,4.95-1.89,2.23-3.23,2.69-6.09,1.75-.37-.12-.71-.35-1.02-.5-.94.42-1.77.92-2.68,1.14-.61.15-1.71.11-1.9-.22-1.18-2.13-3.34-2.02-5.43-2.41Z"/>
    <path class="cls-1" d="m397.43,368.47c-.45.61-.66.8-.77,1.04-1.36,3.02-1.58,3.25-4.48,2.66-1.18-.24-2.17-.27-3.03.55-1.16,1.12-2.25.73-3.29-.08-2.05-1.6-3.11-3.75-3.3-6.32-.02-.22.21-.61.38-.65.35-.08.84-.11,1.08.08.41.33.66.84.98,1.28.72.97,1.43,1.95,2.24,3.05.94-.6,1.71-1.09,2.69-1.71.95.39,2.03.84,3.07,1.26.27-.42.57-.67.53-.85-.29-1.17-.65-2.32-.95-3.37.48-.89,1.11-1.73,1.96-1.21,3.37,2.04,6.87.99,10.49.84.24-1,.46-1.88.68-2.76,2.04.11,3.18,1.08,3.06,2.72-.04.49-.35,1.04-.71,1.4-.99,1.01-2.31,1.43-3.68,1.64-1.21.18-2.43.34-3.66.42-1.08.07-2.17.01-3.28.01Z"/>
    <path class="cls-1" d="m329.45,380.78c-.36.34-.66.81-1.09,1.01-1.59.75-3.21,1.41-4.82,2.1-1.91.82-3.08-.32-4.04-1.61-2.71.27-5.25.61-7.8.76-2.8.16-4.01-1.45-3.27-4.15.14-.52.26-1.14.61-1.5,2.39-2.43,4.72-5.01,8.62-4.65.11,0,.2.14.47.33-1.06,2.94-4.73,3.52-6.21,6.64,1.05-.13,1.81-.11,2.49-.33,1.3-.43,2.45-.71,3.94-.39,1.64.35,3.46-.13,5.57-.27.56.3,1.45.96,2.45,1.24.87.24,1.86.05,2.8.05.1.26.19.51.29.77Z"/>
    <path class="cls-1" d="m438.69,391.34c-2.97,1.7-3.17,1.7-5.28.05-2.22-1.73-3.37-4.08-4.29-7.18,2.97,1.2,3.84,4.01,6.18,5.27.27-.15.68-.26.93-.53,1.02-1.08,2.14-1.02,3.36-.42.73.36,1.46.79,2.24,1,.61.16,1.3.03,1.99.03.64-1.76-1.88-3.94,1.41-4.68-.85-1.13-1.5-1.82-1.92-2.63-.2-.38-.12-1.09.12-1.49.42-.69,1.23-.69,1.8-.25,1.62,1.26,3.18,2.62,4.05,4.54.26.58.49,1.4.29,1.94-1.27,3.35-3.88,6.45-7.96,5.31-.92-.26-1.81-.6-2.91-.96Z"/>
    <path class="cls-1" d="m365.43,376.45c-.69,2.32-1.17,3.94-1.65,5.54.46.21.77.47.92.4,1.77-.83,3.51-1.12,5.38-.22.7.34,1.6.45,2.38.37,2.05-.2,3.78.33,4.81,1.83,2.21,0,1.94-2.02,3.01-2.77,1.43,1.48,1.66,2.99.65,4.13-1.35,1.53-3.32,1.84-5.15.82-2.56-1.43-7.34-2.1-10.19-1.33-1.47.39-2.9.7-4.42.18-.81-1.46-1.07-2.88-.34-4.35.9-1.81,1.69-3.75,4.58-4.61Z"/>
    <path class="cls-1" d="m336.57,391.47c.83,3.3.95,6.09-1.85,8.31-1.14.91-2.17,1.57-3.69.75-.52-.28-1.36-.31-1.93-.12-2.65.92-3.91-1-4.9-2.66-.7-1.17-.61-2.85-.7-4.31-.02-.34.64-.72.99-1.1,1.86.94,1.21,3.16,2.85,4.34,1.61-.59,3.55-2.39,5.01.36,1.94-1.7.89-4.86,4.21-5.58Z"/>
    <path class="cls-1" d="m349.51,367.57c-1.52.24-3.38.63-5.26.77-.5.04-1.33-.56-1.52-1.06-.19-.51.18-1.25.37-1.87.07-.23.35-.41.56-.59.2-.18.41-.37.65-.49,1.52-.83,3.01-1.73,4.6-2.42.47-.2,1.28.12,1.79.43.18.11-.09.93-.19,1.64,1.5,1.58,3.44,2.37,5.9,2.14,2.16-.21,4.33-.06,6.27.92.42,1.05.15,1.83-.86,1.91-1.06.09-2.15-.14-3.22-.27-2.94-.35-5.87-.73-9.09-1.13Z"/>
    <path class="cls-1" d="m435.58,405.29c1.58,1.56.77,3.62,1.58,5.61,1.37.58,3.02,1.14,4.16,2.58.72.91,1.88,1.08,3.02.67,1.28-.47,2.54-1.01,3.84-1.43.31-.1.94.06,1.06.29.22.43.38,1.09.19,1.48-.28.58-.79,1.2-1.35,1.46-2.59,1.21-5.25,1.56-7.76-.16-1.01-.69-1.83-1.47-3.22-1.52-1.35-.05-2.01-1.13-2.29-2.49-.45-2.23.36-4.29.78-6.48Z"/>
    <path class="cls-1" d="m368.02,402.84c-1.78-.93-3.44-1.8-5.16-2.7-.7-.95-.67-2.15-1.09-3.21,2.03.87,3.85,1.65,5.57,2.38,2.39-.85,4.65-1.66,7.15-2.55.75.95.8,2.06.13,3.17-.53.87-1.32,1.33-2.41.99-1.04-.33-1.81.11-2.55.81-.47.45-1.09.74-1.64,1.11Z"/>
    <path class="cls-1" d="m413.75,516.85c-.52.34-1.07.74-1.66,1.06-3.03,1.67-5.94.29-6.29-3.11-.2-1.87-.04-3.78-.04-5.77-.8-.54-1.73-1.09-2.56-1.77-.39-.33-.86-.94-.81-1.36.11-.91.49-1.8.84-2.67.39-.96,1.09-1.56,2.2-1.41,1.66.85-.32,2.67,1.24,3.79.79-.72,1.62-1.48,2.97-2.72-.1,1.14-.08,1.61-.2,2.04-.75,2.76-1.7,5.47-1.61,8.39.02.54,0,1.1.09,1.63.19,1.17,1.46,1.75,2.53,1.21,1.53-.79,2.38-2.2,3.35-3.53.67-.92,1.82-.68,2.19.41.13.38.04.84.19,1.21.14.36.45.65.87,1.21.89-.58,1.73-1.13,2.74-1.8,2.64,1.57,5.38,1.98,8.01-.31.92,1.08,1.36,2.24.76,3.64-.57,1.34-1.54,2.05-2.9,1.43-1.46-.67-2.69.21-3.99.02-1.2-.17-2.24-.55-3.55,0-1.53.66-1.64.42-4.4-1.59Z"/>
    <path class="cls-1" d="m478.46,526.02c-.46,2.31-.99,4.02-.28,5.77,1.29.72,2-.54,2.96-.86,1.66-.56,2.65-.37,3.51,1.06.77,1.27,1.42,2.6,2.29,4.21.93-.76,1.64-1.31,2.3-1.91,1.45-1.32,2.99-1.88,4.85-.81.31.18.79.07,1.04.08,2.14-.95,1.35-3.28,2.36-4.55,1.95-.93,3.6.3,5.35.34,1.63.04,3.25.18,4.7.26.62,1.1.13,1.63-.53,1.84-.9.29-1.86.44-2.8.51-1.21.08-2.44.02-3.49.02-3.94,5.76-5.33,5.2-8.89,3.99-.82.77-1.67,1.64-2.6,2.41-1.57,1.3-2.95,1.17-4.25-.44-.59-.73-.95-1.65-1.42-2.48-.4-.7-.81-1.38-1.34-2.27-.82.5-1.48.93-2.16,1.32-1.93,1.13-3.83.44-4.44-1.74-.48-1.73-.57-3.52.2-5.23.16-.37.38-.79.7-.98.42-.25.96-.29,1.93-.54Z"/>
    <path class="cls-1" d="m490.66,492.97c1.13-.89,1.85-1.46,2.45-1.93,2.2.12,2.75,2.28,4.48,3.35.43-.83.69-1.41,1.02-1.94,1.02-1.62,1.51-1.71,3.3-.7.35.2.69.42,1.27.78.58-.88,1.13-1.73,1.71-2.6.67-.06,1.33-.11,2.26-.19.15-1.26.31-2.55.48-4.04,2.63.35,2.18,2.5,2.8,3.98-.59,1.3-1.17,2.49-2.56,3.08-.37.15-.69.43-1,.7-.82.7-1.51,1.7-2.45,2.05-.95.36-2.13.08-3.18.08-2.56,2.27-2.59,2.34-5.37,1.2-1.06-.44-1.88-.75-3.04-.18-1.34.65-2.8.19-3.82-.75-2.33-2.14-3.64-4.77-2.87-8.06.07-.32.48-.72.79-.77.3-.05.8.23.96.51.48.82.81,1.72,1.24,2.58.42.84.89,1.65,1.54,2.86Z"/>
    <path class="cls-1" d="m425.88,474.42c-.76,1.52-2.13,1.93-3.22,2.7-.65.46-1.27,1.02-1.78,1.63-.19.23-.18.85,0,1.11.18.27.74.53,1.04.45,1-.26,1.96-.68,3.19-1.13.4,1.22.72,2.19,1.12,3.44.97-.29,1.84-.54,2.69-.81,1.72-.55,2.34-.18,2.81,1.72.1.39.16.78.26,1.31,1.05.17,2.11.33,3.36.53.59.92,1.25,1.93,2.02,3.13,1.36-.2,2.79-.4,4.2-.61.14.34.36.6.31.79-.3,1.17-1.23,1.77-2.23,2.23-1.32.6-2.66.62-3.84-.38-.41-.35-.73-.81-1.06-1.24-.33-.42-.61-.88-1-1.43-2.3.31-3.9-.81-4.95-2.82-2.18.1-4.18.06-5.9-1.41-.54-.46-1.59-.26-2.35-.52-1.97-.69-3.24-2.05-3.33-4.2-.03-.76.11-1.76.58-2.28,1.88-2.11,4.15-3.52,7.18-2.87.22.05.4.3.87.67Z"/>
    <path class="cls-1" d="m466.98,504.97c.79,1.27,1.31,2.23,1.95,3.11,1,1.35,1.9,1.61,3.51.83.9-.44,1.74-.92,2.7-.45,1.74.86,3.41.73,5.13-.05.28-.12.74.16,1.14.26-1.77,3.33-2.61,3.77-5.88,3.27-.64-.1-1.39-.16-1.94.09-2.88,1.32-5.02.29-6.86-1.94-.26-.31-.53-.61-.91-1.04-.57-.04-1.24-.11-1.92-.14-1.63-.07-2.87-.57-3.45-2.32-.65-1.96-.68-3.74.74-5.36.15-.18.56-.34.72-.26.33.17.75.49.8.79.19,1.2.24,2.41.37,3.83,1.35-.22,2.51-.41,3.91-.63Z"/>
    <path class="cls-1" d="m485.23,467.29c.33,1.13.57,1.95.81,2.75,2.18-.31,2.21-.37,4.09.71.94.54,1.82.32,2.76.31.44,0,1.08.31,1.28.67.39.7-.1,1.27-.69,1.7-.95.7-2.07.93-3.11.57-1.33-.46-2.65-.49-4.01-.56-1.31-.06-2.03-.78-2.09-2.08-.05-1.27-.44-2.67.95-4.07Z"/>
    <path class="cls-1" d="m518.29,510.45c-.24.05-.49.15-.71.11-.12-.02-.19-.3-.28-.47.12-.01.27-.07.35-.02.2.13.37.32.55.47,0,0,.08-.09.08-.09Z"/>
    <path class="cls-1" d="m339.42,443.97c.17-.08.35-.16.52-.24-.08.05-.16.13-.25.15-.11.03-.24.01-.36.01,0,0,.09.08.09.08Z"/>
    <path class="cls-1" d="m539.37,387.23c-2.33.22-3.68-1.01-4.84-2.2-3.98-4.09-8.86-6.76-13.82-9.39-5.21-2.76-10.62-4.96-16.32-6.42-4.38-1.12-8.87-1.55-13.39-1.72-1.89-.07-3.78-.36-5.67-.59-.16-.02-.38-.4-.38-.61,0-.22.2-.6.36-.63,2.27-.35,4.54-.92,6.81-.9,5.05.05,10.1.36,14.97,1.98,2.59.86,5.2,1.67,7.82,2.43,5.32,1.55,9.95,4.48,14.61,7.31,1.37.83,2.51,2.1,3.59,3.32,2.15,2.42,4.18,4.94,6.27,7.42Z"/>
  </g>
</svg>