<?xml version="1.0" encoding="UTF-8"?>
<svg id="Laag_1" data-name="Laag 1" xmlns="http://www.w3.org/2000/svg" viewBox="0 0 850.39 850.39">
  <defs>
    <style>
      .cls-1 {
        fill: #131f48;
      }

      .cls-1, .cls-2 {
        stroke-width: 0px;
      }

      .cls-2 {
        fill: #a5d6af;
      }
    </style>
  </defs>
  <path class="cls-2" d="m555.6,629c-39.1-21.32-82.18-34.25-126.65-36.67-95.14-5.18-231.24-36.63-200.78-177.75,45.93-212.79,259.65-193.1,382.45-133.11,122.8,59.99,20.62,127.48,85.3,236.22,54.07,90.9-61.52,154.28-140.32,111.31Z"/>
  <g>
    <path class="cls-1" d="m596.89,355.98c1.31,5.9,3.8,11.62,1.22,17.88,1.99.49,3.81.97,5.65,1.4,6.66,1.54,13.33,3.05,19.98,4.59,4.31,1,8.21,2.9,11.95,5.24,1.96,1.23,4.04,2.32,6.18,3.19,4.55,1.85,9.13,3.67,13.8,5.23,5.74,1.92,11.23,4.27,16.31,7.57,1.03.67,2.12,1.25,3.19,1.85,1.94,1.07,3.6,2.45,5.05,4.14,2.96,3.43,5.39,7.24,7.85,11.02,1.68,2.58,1.89,5.68,2.61,8.59.23.92.28,1.89.48,2.82.24,1.09.66,2.15,1.66,2.74,2.05,1.2,2.58,3.26,2.61,5.29.08,5.32.64,10.64-.47,15.96-.75,3.6-.61,7.39-1.44,10.97-1.02,4.43-.71,8.95-1.45,13.38-.13.79-.02,1.63-.02,2.47,2.22,2.06,3.17,4.47,2.09,7.41-.46,1.26-.35,2.5.49,3.49,1.02,1.2,1.01,2.54.7,3.88-.93,4.08-.44,8.17-.25,12.26.14,3,.35,6,.36,9,.01,3.89-1.24,7.51-2.6,11.1-2.5,6.56-6.71,12.21-9.85,18.43-.18.36-.45.69-.72,1-4.08,4.63-7.44,9.78-10.84,14.9-1.13,1.71-2.47,3.28-3.75,4.88-2.42,3.01-3.92,6.56-5.71,9.93-1.96,3.71-4.69,6.58-7.87,9.3-4.05,3.48-9.02,5.72-12.63,9.77-.98,1.1-2.36,1.86-3.62,2.69-1.36.9-2.85,1.16-4.19.02-3.63-3.08-8.13-4.38-12.34-6.31-5.68-2.62-11.63-4.75-16.66-8.68-1.7-1.33-3.73-2.31-5.75-3.12-3.97-1.6-7.39-4.12-11.03-6.26-2.24-1.32-4.26-2.91-6.16-4.69-1.38-1.3-3.03-2.38-4.69-3.3-4.07-2.24-8.24-4.32-12.34-6.51-2.17-1.16-4.28-2.43-6.44-3.6-4.81-2.62-9.62-5.24-14.46-7.79-3.01-1.59-6.15-2.94-9.14-4.58-5.06-2.77-10.55-4.48-15.9-6.52-1.4-.53-2.78-1.1-4.15-1.7-2-.87-3.96-1.83-5.97-2.68-1.93-.82-3.59-1.97-4.9-3.62-1.13-1.43-2.5-2.42-4.39-2.78-1.16-.22-2.22-.97-3.57-1.59-.85,1.5-1.85,3.08-2.65,4.76-.32.68-.4,1.61-.23,2.35.24,1.05.56,2.28,1.29,2.98,2.56,2.43,3.26,5.62,4.02,8.82.03.13.14.23.36.6,4.29.56,5.73,4.28,7.37,7.7.43.9.31,2.16.17,3.22-.16,1.2.17,2.09.88,3.02,1.92,2.5,2.78,5.3,2.12,8.47-.32,1.52-.2,3.02.49,4.41,1.56,3.15.56,6.14-.51,9.13-.39,1.11-1.16,1.8-2.34,2.09-.79.19-1.65.36-2.29.81-5.44,3.81-11.83,4.99-18.08,6.39-4.03.9-7.88,2.19-11.74,3.55-3.1,1.09-6.17,2.09-9.47,2.5-3.38.42-6.73,1.27-10.02,2.21-4.35,1.25-8.78,2-13.23,2.69-7.04,1.1-14.07,2.21-21.11,3.26-1.34.2-2.71.19-4.07.27-.68.04-1.37,0-2.04.09-4.74.65-9.46,1.43-14.21,1.95-2.58.28-5.2.22-7.8.19-6.97-.08-13.95-.11-20.92-.38-5.6-.22-11.18-.77-16.77-1.14-1.5-.1-3-.13-4.5-.15-4.79-.09-9.59-.03-14.38-.29-7.51-.4-14.98-1.17-22.41-2.5-7.82-1.4-15.6-2.96-23.3-4.87-5.97-1.48-12.01-2.84-17.76-4.96-6.27-2.31-12.55-4.69-18.36-8.14-4.46-2.65-9.17-4.89-13.73-7.37-5.43-2.96-10.31-6.72-15.23-10.43-1.64-1.23-3.31-2.42-4.89-3.72-4.14-3.37-8.19-6.82-11.79-10.8-5.5-6.09-11.11-12.09-16.71-18.1-4.36-4.68-7.18-10.3-9.63-16.09-2.13-5.03-3.77-10.24-5.16-15.55-1.36-5.19-2.13-10.41-2.58-15.71-.27-3.12-.26-6.26-.5-9.39-.32-4.24-1.46-8.35-2.74-12.35-.93-2.91-1.1-5.69-.22-8.43.79-2.48.75-4.88.12-7.22-.78-2.93-1.37-5.85-1.67-8.86-.09-.95-.34-1.88-.56-2.81-.37-1.54-1.13-2.74-2.76-3.3-1.03-.35-2.06-.81-2.95-1.42-3.32-2.3-6.25-4.91-6.87-9.25-.13-.93-.59-1.82-.85-2.74-.77-2.66-1.19-5.31-.44-8.08.35-1.31.49-2.69.54-4.05.17-3.93,2.08-6.69,5.49-8.5,1.81-.96,3.62-1.86,5.09-3.39,1.19-1.23,2-2.55,2.51-4.16.78-2.47,1.65-4.92,2.55-7.59-2.57-4.73-3.12-9.56,1.18-13.94.23-1.34-.23-2.45-.72-3.6-.53-1.24-.93-2.55-1.24-3.86-.94-4.03.39-7.24,3.66-9.7.98-.74,1.9-1.59,2.94-2.24,1.32-.82,2.45-1.81,3.09-3.2,1.48-3.2,4.1-5.51,6.62-7.7,2.64-2.3,3.72-5.33,5.23-8.19.21-.39-.09-1.02-.08-1.54.01-4.43.67-8.63,3.16-12.5,2.4-3.73,5.55-6.42,9.68-7.83,3.34-1.13,6.02-2.91,8.28-5.69,3.32-4.08,7.69-6.5,13.12-6.5,1.84,0,3.14-.73,4.07-2.26.99-1.63,2.13-3.13,2.78-5,1.82-5.28,5.9-8.06,11.14-9.18,1.3-.28,2.23-.7,3.15-1.59,4.83-4.59,10.55-7.81,16.66-10.33,1.99-.82,4.25-.97,6.37-1.48,1.44-.35,2.92-.67,4.29-1.22,3.17-1.28,6.29-2.67,9.4-4.08.99-.45,1.91-1.07,2.8-1.7,1.56-1.11,3.2-1.38,5.06-.87,2.78.76,5.31.06,7.92-1.11,2.84-1.27,5.88-2.12,8.91-2.97,3.99-1.12,8.13-.94,12.1-1.99,3.42-.91,6.84-2,10.47-1.82.38.02.83-.14,1.16-.35,4.13-2.64,8.87-2.77,13.49-2.96,2.24-.09,4.21-1,6.37-1.16,3.22-2.1,6.9-1.89,10.37-1.44,4.37.57,8.71.4,13.07.45,1.42.02,2.72.12,3.64,1.35.84-.51,1.47-1.07,2.2-1.3,2.08-.65,4.24-1.06,6.3-1.76,3.08-1.05,6.19-.84,9.33-.52,1.09.11,2.19.36,3.26.28,3.71-.29,7.36.13,11.04.52,2.13.22,3.99.7,5.62,2.03,1.17-.29,2.24-.51,3.28-.83,4.59-1.43,9.15-1.24,13.74.01,2.9.79,5.85,1.42,8.75,2.21,3.4.92,6.28,2.62,8.26,5.67,1.05,1.61,2.65,2.36,4.55,2.22,2.58-.19,5.16-.51,7.73-.77.54-.05,1.14-.22,1.63-.06,2.97.95,6.13.93,9.01,2.58,2.68,1.53,5.86,2.22,8.87,3.09,3.3.95,6.67,1.64,9.41,4.27.73-.35,1.43-.71,2.16-1.02,1.55-.67,3.16-.82,4.83-.57,3.24.48,6.55.67,9.72,1.43,6.29,1.51,12.37,3.61,16.91,8.62.96,1.06,1.99,1.76,3.55,1.64,1.93-.14,3.77.4,5.59,1.11,1.9.73,3.86,1.38,5.85,1.8,1.83.39,3.32,1.15,4.55,2.54,2.21,2.51,4.92,4.31,8.05,5.48.5.19,1,.47,1.41.81,3.45,2.81,7.57,4.42,11.56,6.18,3.54,1.56,6.82,3.34,9.62,6.09,1.52,1.5,3.37,2.71,5.32,3.78,4.4,2.42,7.63,6.07,9.81,10.66,1.97,4.15,3.09,8.46,3.18,13.06.02,1.23.16,2.46.2,3.69.1,2.98,1.18,5.51,3,7.89,4.17,5.43,4.15,9.75.22,15.35-.39.55-.73,1.13-1.09,1.68Zm68.98,135.56c-1.08,1.03-2.27,1.97-3.21,3.11-1.83,2.21-4.17,2.95-6.89,2.75-1.28-.1-2.47.03-3.46.87-.39.33-.86.86-.85,1.29.02,1.21.26,2.42.42,3.63.16,1.13-.24,2.37.48,3.49,1.84-.66,2.73-2.05,3.79-3.26,2.31-2.63,4.09-5.72,7.25-7.62,1.08-.65,1.71-2.07,2.46-3.2.17-.26-.04-.76-.07-1.14.88.32,1.89.12,2.04-.7.38-1.97,1.81-3.26,2.68-4.89,1-1.86,2.36-3.68,1.81-6.04.35-.19.83-.3,1.02-.6,1.3-2.07,2.69-4.1,3.77-6.29,2.05-4.14,3.96-8.35,5.83-12.58.49-1.12,1.15-2.32.77-3.92-.62.53-1.06.85-1.43,1.23-1.68,1.76-3.05,3.79-5.18,5.15-1.44.92-1.73,2.67-2.06,4.31-.84,4.27-1.75,8.52-2.61,12.8-2.9,3.46-4.5,7.66-6.56,11.59Zm-11.25,47.18c-.35.14-.8.2-1.03.45-1.32,1.39-2.51,2.9-4.37,3.67-.47.19-.88.67-1.18,1.11-1.69,2.48-3.52,4.9-4.97,7.53-1.55,2.81-3.81,4.55-6.63,5.85-2.43,1.12-6.55.71-8.13-1.91-2.03-3.36-5.95-4.81-8.14-8.02-.26-.38-.96-.46-1.44-.69-.73-.35-1.57-.58-2.16-1.08-2.32-1.97-4.31-4.33-5.41-7.12-1.52-3.85-4.38-6.42-7.2-9.32-1.17.6-2.09,1.15-3.07,1.58-2.6,1.12-4.08.83-5.58-1.62-1.81-2.96-4.17-4.95-7.57-5.78-2.37-.57-4.65-1.59-7.04-1.99-1.61-.27-2.8-.85-3.89-1.97-.85-.86-1.74-1.91-2.81-2.27-2.32-.78-4.07-2.18-5.6-3.98-1.63-1.93-3.42-3.51-6.18-3.54-1.17-.01-2.18-.72-2.54-1.82-.91-2.76-2.96-4.46-5.17-6.07-.22-.16-.46-.34-.59-.57-1.22-2.19-3.19-3.26-5.57-3.73-1.57-.31-2.73-1.18-3.64-2.47-.55-.78-1.13-1.56-1.79-2.25-.53-.55-1.21-.96-1.86-1.47-.62.42-1.03.77-1.51,1.01-3.4,1.72-5.4,1.4-8.12-1.28-.58-.58-1.08-1.28-1.76-1.72-.65-.43-1.52-.91-2.21-.81-3.18.45-5.2-1.13-6.88-3.51-.64-.91-1.38-1.8-2.56-1.88-1.63-.11-2.68-1.18-3.98-1.92-1.37-.78-3.07-.99-4.6-1.5-.37-.12-.74-.39-1.01-.69-1.02-1.08-2.26-1.44-3.71-1.4-1.5.04-2.68-.58-3.28-2.01-.35-.85-.94-1.29-1.8-1.49-1.97-.46-3.35-1.77-4.62-3.24-.88-1.02-1.69-2.16-3.22-2.63-.9,1.32-2.04,2.57-2.68,4.03-.58,1.32-.98,2.94-.78,4.33.26,1.85.89,3.68,1.97,5.35,1.77,2.75,3.3,5.67,4.95,8.5.33.57.79,1.06,1.11,1.49,3.99-.17,4.02-.21,6.82,2.28,1.89,1.67,3.86,2.98,6.5,3.18,1.19.09,2.47.5,3.48,1.13,1.71,1.06,3.09,2.77,4.89,3.53,2.02.85,4.12,1.45,5.83,2.9.21.18.41.37.65.5,1.41.82,2.79,1.7,4.25,2.41,3.55,1.74,7.16,3.36,10.7,5.12.96.48,1.83,1.2,2.6,1.96.91.9,1.92,1.62,3.17,1.77,2.65.32,4.53,1.68,5.98,3.86.93,1.4,2.21,2.31,4,2.61,4.72.79,7.94,4.71,12.4,6.09.46.14.74.79,1.15,1.15.51.45,1.02,1.06,1.62,1.22,1.68.42,2.76,1.7,4.13,2.52,3.03,1.82,5.74,4.18,9.16,5.36.99.34,2.05.96,2.66,1.77,1.5,1.99,3.4,3.02,5.81,3.46,1.6.29,3.11,1.07,4.7,1.48,2.03.51,3.91,1.17,5.34,2.83.42.49,1.12.76,1.73,1.06,1.83.91,3.64,1.9,5.54,2.64,2,.78,4.18,1.14,5.74,2.8,2.68.51,4.13,2.64,5.56,4.57,1.33,1.8,2.47,2.72,4.74,1.62,1.43-.69,2.94-.33,4.16.87,2.13,2.1,4.9,3.51,6.63,6.07.29.42.84.67,1.36,1.07,1.58-.95,2.88-2.04,3.9-3.57,1.06-1.59,2.26-3.12,3.61-4.46,1.16-1.14,1.81-2.38,1.91-3.94.15-2.41,1.05-4.48,2.55-6.37,1.02-1.28,1.92-2.67,2.74-4.09.53-.93.96-1.97,1.19-3.01.42-1.85.66-3.75.97-5.64,3.22-4.19,7.43-7.17,12.11-9.72.13-3.06,1.71-5.46,3.46-7.73,1-1.29,2.28-2.35,3.39-3.56,1.94-2.11,4.1-4.08,5.69-6.43,1.41-2.09,2.18-4.62,3.19-6.97.07-.17-.17-.47-.27-.73-2.25.51-3.46,1.97-3.86,4.19-.12.67-.26,1.34-.43,2.01-.49,1.93-1.36,3.56-3.36,4.37-.62.25-1.32.63-1.66,1.16-2.04,3.24-4.41,6.18-7.31,8.7-.29.25-.34.75-.59,1.07-1.6,2.03-3.17,4.14-5.42,5.48-3.17,1.9-5.05,4.45-4.85,8.27Zm-479.46-87.8c.15-.19.36-.36.41-.57.04-.17-.11-.38-.17-.58-.12.14-.32.27-.33.42-.02.23.09.47.15.7.88,2.57,1.78,5.14,2.64,7.72.82,2.46,1.52,4.97,2.43,7.4,1.4,3.71,2.85,7.4,4.47,11.02,1.67,3.72,3.53,7.35,5.37,10.99.86,1.7,1.6,3.55,2.84,4.94,2.29,2.58,4.19,5.37,5.84,8.38.58,1.06,1.36,2.11,2.29,2.86,5.52,4.48,11.1,8.9,16.7,13.3,2.04,1.61,4.04,3.22,5.9,5.08,3.31,3.3,7.01,6.1,11.59,7.58,1.39.45,2.68,1.31,3.9,2.16,2.04,1.43,4.11,2.62,6.6,3.17,1.71.38,3.3,1.27,4.94,1.94,2.39.98,4.78,1.97,7.17,2.97,4.29,1.78,8.92,2.63,13.08,4.82,1.42.75,3.07,1.3,4.66,1.46,4.58.46,8.78,1.84,12.75,4.15,3.13,1.82,6.53,2.73,10.24,2.31,2.76-.31,5.43.24,8.08,1.1,2.06.67,4.22,1.08,6.36,1.51,1.87.38,3.85.41,5.64.99,2.42.79,4.83.86,7.31.71,2.48-.15,4.89.12,7.33.67,2.79.64,5.67.92,8.52,1.31,2.85.39,5.7.74,8.56,1.06,1.76.19,3.53.41,5.29.39,4.11-.06,8.21-.24,12.26.72.66.16,1.37.26,2.04.18,3.71-.44,7.37-.04,11.05.43,3.02.39,5.93.17,8.78-1.32,1.51-.79,3.44-1.1,5.16-1.06,1.98.05,3.84-.31,5.65-.88,1.88-.59,3.72-.78,5.66-.75,4,.07,7.91-.39,11.69-1.9,1.5-.6,3.2-.68,4.79-1.08.75-.19,1.65-.4,2.14-.92,1.62-1.72,3.63-2.38,5.86-2.59,5.5-.51,10.37-3.46,15.85-4.05.37-.04.72-.37,1.07-.59,1.78-1.12,3.75-1.61,5.79-1.97,1.89-.33,3.75-.82,5.62-1.21,1.61-.34,3.21-.83,4.83-.93,3.29-.2,6.58-.18,9.65-1.62.47-.22,1.08-.27,1.61-.25,1.91.09,3.39-.75,4.81-1.94,2.56-2.14,5.28-3.38,8.64-1.53,1.09.6,2.16-.39,1.96-1.7-.16-1.05-.33-2.23-.91-3.06-1.6-2.29-1.06-4.38.21-6.5.41-.69.88-1.33,1.23-1.86-.33-1.86-.56-3.49-.9-5.09-.35-1.63-1.56-2.63-3.2-2.61-.95.01-1.9.25-2.85.35-1.08.12-2.26.52-3.22.22-1.43-.45-2.71-.12-4.04.05-3.39.43-6.75,1.06-10.21.69-1.06-.11-2.18.1-3.25.3-2.82.54-5.6,1.5-8.44,1.69-6.65.45-12.9,2.35-19.07,4.63-3.08,1.14-6.09,2.45-9.18,3.53-2.72.94-5.26,2.21-7.75,3.63-2.72,1.56-5.42,3.36-8.37,4.26-4.58,1.4-9.02,3.19-13.61,4.53-3.67,1.08-7.39,2.09-11.16,2.72-3.76.63-7.62.66-11.42,1.11-7.11.84-14.22.63-21.33.03-3.55-.3-7.08-.87-10.64-.97-5.22-.15-10.32-1.11-15.4-2.07-6.99-1.33-13.87-3.15-20.83-4.67-1.81-.4-3.32-1-3.97-3.27-1.35,1.48-2.68,1.54-4.25,1.12-5.42-1.42-10.89-2.6-16.31-4.03-3.7-.98-7.36-2.1-10.97-3.37-5.03-1.77-10.05-3.55-14.73-6.16-2.98-1.66-6.24-2.85-9.14-4.63-6.65-4.08-13.24-8.26-19.69-12.63-7.46-5.06-15.13-9.83-22.2-15.44-2.46-1.95-4.9-4.01-6.96-6.36-4.33-4.92-8.41-10.05-11.9-15.63-2.9-4.63-5.95-9.17-8.95-13.74-.51-.78-.95-1.7-2.05-1.78Zm317.45,46.62c.24-.97.6-1.73.57-2.47-.03-.79-.31-1.63-.68-2.34-1.07-2.05-2.22-4.07-3.37-6.08-1.36-2.38-2.8-4.7-3.4-7.43-.73-3.31-.67-6.41,1.13-9.5,2.14-3.67,1.55-5.95-1.73-8.58-.85-.68-1.79-1.26-2.74-1.81-2.85-1.64-5.73-3.22-8.58-4.84-4.23-2.41-7.77-5.67-10.58-9.58-3.76-5.23-6.77-10.91-8.81-17.06-.51-1.55-1.2-3.05-1.95-4.51-2.06-4.02-4.28-7.95-7.45-11.25-.37-.39-.71-.84-.96-1.32-2.51-4.78-6.4-8.5-9.66-12.7-2.43-3.13-5.29-5.86-7.56-9.16-3.41-4.94-7.28-9.57-11.02-14.28-.84-1.06-2-1.87-2.92-2.88-1-1.1-2.35-2.18-2.73-3.5-.52-1.83-2.18-1.37-3.09-2.23-.1-.09-.16-.22-.24-.33-1.24-1.64-2.55-3.23-3.67-4.94-.36-.55-.22-1.42-.31-2.17-1.87.08-3.06-1.35-3.94-2.83-1.41-2.37-3.28-4.36-4.89-6.56-.56-.77-1-1.63-1.54-2.41-1.46-2.15-1.78-4.84-3.34-6.98-.44-.6-.42-2.12.04-2.68,1.64-1.98,2.75-4.45,5.01-5.87.67-.42,1.47-.73,2.26-.87,3.66-.68,7.31-.84,10.99.1,2.75.7,5.36.3,7.9-1.17,3.3-1.91,6.89-2.44,10.71-1.73,3.36.62,6.7,1.3,10.04,1.99,4,.82,8.14,1.19,12.23,1.3,6.65.18,12.92,2.34,19.41,3.29.53.08,1.01.4,1.53.6,4.79,1.8,8.94,4.72,13.16,7.49,2.12,1.39,4,3.15,5.91,4.68-.28,1.12-.89,1.33-1.61,1.03-1.64-.68-3.29-1.35-4.86-2.18-4.11-2.19-8.16-4.48-12.26-6.68-.95-.51-1.99-1.04-3.03-1.15-7.07-.73-13.94-2.95-21.13-2.73-.67.02-1.34-.26-2.01-.35-4.34-.6-8.62-1.42-12.82-2.72-5.16-1.59-10.34-2.2-15.61.06-2.77,1.19-5.85,1.46-8.89.75-1.51-.35-3-.27-4.45.25-2.58.93-5.09,2.03-7.3,3.69-.59.45-.93,1.22-1.41,1.87.94,1.29,1.82,2.34,2.53,3.5.8,1.29,1.81,1.8,3.37,1.85,3.14.11,6.31.26,9.39.82,3.35.6,6.62,1.69,9.93,2.55,1.46.38,2.91.81,4.39,1.04,3.79.58,7.6,1.01,11.38,1.61,2.97.47,5.93,1.05,8.88,1.68,3.61.77,7.16,1.96,10.8,2.41,6.92.85,13.61,2.68,20.37,4.23,6.79,1.55,13.57,3.16,20.37,4.67,1.04.23,2.22.33,3.24.09,3.67-.86,7.35-.48,11.04-.45,2.96.02,5.86.53,8.88.36,3.38-.19,6.81.22,10.21-.37.65-.11,1.35.14,2.03.21,1.09.11,2.18.3,3.27.28,3.74-.08,7.31.58,10.86,1.78,4.79,1.62,9.63,3.06,14.49,4.47,1.14.33,2.44.46,3.61.29,1.96-.29,3.8-.03,5.68.41,1.19.28,2.42.39,3.63.59,1.61.27,3.31.31,4.81.87,5.89,2.2,12.07,1.8,17.93,2.52,1.94-1.82,2.08-3.88,1.62-5.92-.59-2.67-1.14-5.43-2.31-7.86-1.7-3.57-1.5-6.51,1.38-9.29,1.49-1.43,1.81-3.25,1.45-5.31-.26-1.52-.66-2.94-1.59-4.17-2.67-3.53-3.75-7.57-3.87-11.91-.13-4.74-1.6-9.15-3.28-13.5-1.44-3.73-3.99-6.64-7.57-8.29-2.68-1.24-4.85-2.99-6.88-5.01-1.86-1.85-3.87-3.48-6.25-4.6-1.85-.87-3.7-1.77-5.63-2.46-5.33-1.93-9.85-5.36-14.83-7.94-.71-.37-1.37-.93-1.89-1.54-2.04-2.39-4.66-3.72-7.67-4.43-1.46-.34-2.87-.92-4.34-1.25-.87-.2-1.8-.12-2.82-.16-.12.8-.31,1.33-.27,1.84.2,2.28-.74,4.01-2.54,5.29-3.12,2.22-6.33,4.25-10.28,4.73-1.9.23-3.79.62-5.66,1.04-5.73,1.3-11.42,1.17-17.07-.44-.92-.26-1.93-.43-2.7-.94-2.84-1.89-5.7-3.77-8.34-5.93-1.45-1.18-2.56-2.83-3.61-4.41-.49-.73-.8-1.87-.61-2.7.86-3.8,2.24-7.34,5.86-9.48.91-.54,2.05-.83,2.39-2.16-2.12-.6-4.25-1.12-6.33-1.8-2.85-.94-5.9-1.62-8.43-3.13-2.85-1.7-5.91-2.1-8.96-2.48-3.35-.42-6.77-.27-10.13-.36-.16.29-.37.51-.4.76-.58,5.08-3.62,7.76-8.45,8.68-.94.18-1.88.37-2.82.46-4.66.46-9.26.12-13.92-.38-3.54-.38-6.54-1.66-9.56-3.29-2.19-1.18-3.6-2.94-4.6-5.07-1.23-2.63-2.08-5.36-1.5-8.34.12-.63.02-1.3.02-1.88-3.37-1.17-6.49-1.85-9.86-1.41-2.43.31-4.96.36-7.38.02-3.23-.46-6.3.08-9.34.87-2.66.69-5.29,1.31-8.24.76.04.88.08,1.53.11,2.19.11,2.19-.7,4.07-2.22,5.55-1.16,1.14-2.44,2.35-3.9,2.95-4.4,1.82-8.73,3.71-13.57,4.44-3.59.54-6.44-.51-9.35-2.08-2.24-1.21-3.39-3.1-3.36-5.69.01-1.34.13-2.72-.6-4.08-3.35.08-6.56.49-9.47,2.23-1.34.8-2.75,1.2-4.32.95-.54-.08-1.11-.15-1.63-.05-4.7.9-9.36,2.08-14.2,1.95-5.2,1.54-10.63,2.19-15.65,4.5-1.86.85-4.12,1.46-6.37.42-.77-.36-1.95-.32-2.76,0-2.03.78-4.02,1.7-5.88,2.81-1.07.64-2.28,1.33-3.01,2.55.93.77,1.73,1.31,2.39,1.99,3.1,3.16,3.28,6.74.78,10.37-1.86,2.7-4.34,4.57-7.3,5.78-4.15,1.7-8.05,4.12-12.67,4.54-.8.07-1.59.44-2.33.78-2.29,1.03-4.73,1.32-7.18,1.49-1.33.1-2.68-.11-4.02-.11-3.31.01-6.17-1.87-7.29-4.9-.27-.73-.42-1.5-.68-2.46-2.15.83-3.63,2.16-4.3,4.18-.93,2.79-2.77,5.02-4.31,7.44-1.3,2.03-3.08,3.48-5.66,3.6-.82.04-1.62.32-2.44.36-4.39.2-7.9,2.11-10.48,5.6-1.1,1.48-2.37,2.65-4.01,3.42-1.61.75-3.24,1.46-4.9,2.08-5.44,2.04-8.72,5.95-10.05,11.53-.51,2.13-.94,4.28-1.23,6.45-.59,4.46-2.77,7.85-6.39,10.51-2.33,1.71-4.29,3.85-4.53,7.01-.21,2.7-1.75,4.49-3.93,5.92-1.37.9-2.66,1.93-3.9,3.02-1.54,1.36-2.33,2.99-1.41,5.09.49,1.13.72,2.38,1.32,3.44,1.77,3.15,1.59,5.97-1.03,8.58-1.14,1.13-1.61,2.51-.99,4.55,2.93.64,3.19,3.12,3.51,5.89.32,2.81.84,5.63,1.58,8.42.88,3.35,1.59,6.78.92,10.46-.49,2.69-1.95,4.17-3.92,5.24-2.1,1.14-3.89,2.33-4.46,4.3.15,1.91.32,3.4.34,4.9,0,.41-.44.82-.72,1.28-2.07-1.23-1.86-3.25-2.27-4.87-.53-2.05-.09-4.14,1.49-5.71,1.15-1.14,2.43-2.19,3.78-3.08,1.26-.84,1.97-1.89,2-3.36.03-1.22,0-2.45-.09-3.68-.23-3.29-1.44-6.29-2.61-9.39-1.25.68-1.92,1.6-2.24,2.88-.29,1.19-.7,2.35-1.14,3.49-1.03,2.64-2.61,4.79-5.35,5.93-.75.31-1.54.71-2.09,1.29-1.2,1.25-2.69,2.33-2.82,4.34-.3,4.82.22,9.52,1.57,14.19,1.17,4.05,3.94,6.15,7.71,7.13,2.37.62,4.84,1.11,7.27,1.17,3.44.09,5.84,1.7,7.18,4.59,1.49,3.2,2.8,6.56,3.65,9.98,1.27,5.12,3.51,9.75,5.97,14.42,3.99.66,6.86,3.17,9.48,5.81,3.44-2.05,3.72-2.11,5.88-1.38,2.51.85,3.66,1.61,4.96,3.4-.62.08-1.12.24-1.6.19-1.36-.15-2.7-.47-4.05-.55-.41-.02-1.07.43-1.21.81-.14.38.09,1.1.41,1.42,1.76,1.72,3.56,3.4,5.41,5.02,1.02.9,2.18,1.52,3.58,1.88,2.23.57,4.43,1.35,6.51,2.33,6.37,2.98,11.52,7.77,17.12,11.89.98.72,1.58,1.97,2.59,2.61,2.75,1.77,4.49,4.27,6.11,7.04,1.15,1.97,2.66,3.86,4.39,5.35,3.44,2.95,7.63,4.78,11.62,6.87,1.05.55,2.35.77,3.55.88,2.88.27,5.69.05,8.54-.69,5.97-1.55,11.89-1.25,17.75.91,3.45,1.27,7.02,2.24,10.56,3.22,1.02.28,2.2.36,3.23.15,3.56-.7,6.76-.04,9.83,1.86,2.77,1.71,5.84,2.22,9.08,1.67,1.21-.2,2.48-.36,3.67-.2,1.41.19,2.65.02,3.88-.63,1.47-.78,2.99-1.4,4.7-1.21,2.6.28,4.23-1.03,4.96-3.35.66-2.1,1.94-3.71,3.7-4.77,2.8-1.69,4.86-3.91,6.34-6.8.3-.6,1.15-.92,1.71-1.35,1.18,1.02,1.24,2.08.94,3.19-.97,3.58-2.14,7.03-5.09,9.61-1.77,1.55-1.57,2.29.33,3.88,3.42,2.87,7.29,2.73,11.28,1.75.62-.15,1.34-.58,1.68-1.1,1.54-2.35,3.75-2.95,6.36-2.73.12.01.25-.11.28-.12.83-1.3,1.4-2.77,2.44-3.71,1.71-1.53,2.81-3.3,3.46-5.46.35-1.16,1.01-2.05,1.99-2.95,3.03-2.78,6.35-3.51,10.22-2.49.76.2,1.65.27,2.41.09,4.37-1.04,8.56-2.44,12.46-4.87,4.72-2.93,9.84-4.87,15.61-3.32,2.44-.34,4.86,1,7.3.13,3.78-1.34,7.8-1.4,11.69-2.19,1.99-.4,4.03-.57,7.02-.97-1.57.98-2.31,1.47-3.08,1.9-.59.33-1.22.61-1.86.83-3.37,1.13-6.82,2.04-10.09,3.4-3.84,1.59-7.67,1.61-11.64.92-1.6-.28-3.25-.24-4.88-.29-3.32-.09-6.1,1.57-8.77,3.15-3.58,2.13-7.4,3.53-11.35,4.65-1.16.33-2.42.44-3.63.4-1.21-.04-2.42-.37-3.62-.63-3.23-.68-4.9.15-6.29,3.05-.65,1.35-1.36,2.68-2.14,3.95-.7,1.15-1.57,2.2-2.29,3.34-.18.29-.25.98-.09,1.1.38.28,1.06.59,1.41.43,1.74-.78,3.41-1.65,4.89-2.94,3.01-2.61,6.58-3.73,10.61-3.45,1.63.11,3.27-.01,4.91-.04,1.36-.02,2.73-.12,4.09-.07,3.15.12,6.29.36,9.43.45,4.24.12,8.45-.69,12.71-.4,1.05.07,2.23-.18,3.2-.62,3.88-1.76,7.95-1.94,12.09-1.67,4.81.32,9.56.05,14.21-1.33,2.21-.66,4.39-1.57,6.66-1.9,2.33-.34,4.14-1.38,5.74-2.92,1.08-1.04,2.03-2.22,2.93-3.42,1.6-2.13,3.76-3.3,6.33-3.25,2.99.06,6.05.24,8.94.94,2.53.61,5.08.74,7.79,1.41Zm-16.28-117.44c5.41,3.06,10.7,5.66,15.57,8.9,4.75,3.16,9.89,5.22,15.21,7.03.77.26,1.57.53,2.24.96,3.79,2.45,7.6,4.88,11.3,7.47,1.78,1.25,3.34,2.81,4.97,4.27.71.64,1.27,1.45,2.02,2.03,3.25,2.49,6.51,4.97,9.82,7.37,2.63,1.91,5.31,3.75,8.03,5.53,3.21,2.1,6.41,4.19,8.97,7.09,2.45,2.76,4.84,5.56,7.25,8.35,1.52,1.76,2.79,3.82,4.58,5.22,1.76,1.38,3.16,2.99,4.54,4.67,3.92,4.74,7.65,9.64,12.51,13.52.84.67,1.47,1.61,2.11,2.49,3.19,4.31,7.09,7.97,10.85,11.74,3.38,3.39,6.99,6.57,10.32,10.01,4.65,4.82,8.89,10.01,13.44,14.93,2.77,3,5.21,6.32,8.03,9.31,2.63,2.78,5.1,5.72,8.38,7.81,1.98,1.27,3.18,1.18,4.49-.81,1.05-1.58,1.84-3.35,2.61-5.1.89-2,1.48-4.14,2.48-6.07.83-1.61.76-3.15.4-4.77-.24-1.06-.54-2.1-.82-3.15-.5-1.87.35-3.2,1.77-4.24.66-.48,1.38-.97,2.15-1.18,1.83-.51,3.69-.96,5.57-1.24,1.82-.27,3.19-.99,4.62-2.27,3.84-3.47,5.71-7.91,7.11-12.68.27-.92.46-1.88.86-2.73,1.02-2.13,1.61-4.35,1.83-6.69.09-.95.31-1.9.55-2.82,1.09-4.17,2.47-8.11,6.85-10.15,1.18-.55,2.51-1.55,3.01-2.68,1.4-3.19,4.04-5.96,3.53-9.88-.11-.89.28-1.88.59-2.78.58-1.68,1.35-3.29,1.9-4.98.37-1.14.8-2.41.64-3.55-.33-2.43-.94-4.82-1.58-7.19-1.11-4.16-3.69-7.57-5.95-11.13-2.18-3.44-5.02-6.08-8.95-7.43-.64-.22-1.18-.7-1.81-.94-.59-.23-1.23-.31-1.64-.41-.7,3.01-1.31,5.8-2.01,8.57-.69,2.75-.78,5.46.77,7.94,2.74,4.38,3.88,9.32,5.26,14.19.69,2.41.73,4.85.46,7.31-.53,4.87-2.61,9.15-5.05,13.29-.18.3-.62.44-.89.62-1.22-.44-1.53-1.37-1.34-2.34.29-1.47.78-2.89,1.23-4.33.57-1.83,1.31-3.61,1.74-5.47,1.23-5.23,1.13-10.3-2.32-14.82-.83-1.09-1.73-2.14-2.38-3.34-.7-1.3-1.66-2.76-1.6-4.11.15-3.4-.37-6.83.42-10.22.52-2.26.79-4.59.92-6.91.12-2.03-.64-3.95-2.69-4.65-5.97-2.02-11.81-4.36-17.53-6.99-2.6-1.2-5.37-2.23-7.63-3.92-3.84-2.88-8.14-4.52-12.69-5.55-6.66-1.52-13.38-2.78-20.09-4.08-2.27-.44-4.56-.94-6.92-.39-.62.15-1.33-.15-2.01-.23-1.22-.14-2.45-.39-3.67-.36-4.85.13-9.53-.57-14.1-2.26-2.75-1.02-5.44-1.04-8.56-.36,1.03.74,1.87,1.37,2.72,1.97,1.51,1.04,2.64,2.4,3.29,4.1,1.65,4.29,1.87,8.5-.58,12.64-2.65,4.47-2.11,8.85.56,13.14.62,1,1.06,2.11,1.59,3.2-.87.52-1.56.53-2.13.08-1.84-1.47-3.53-3.1-4.19-5.44-1.38-4.94-1.87-9.91-.17-14.9.4-1.16.86-2.34,1.03-3.54.54-3.67-1.37-6.34-3.99-8.5-2.42-2-5.08-3.64-8.21-4.49-4.09-1.11-8.16-2.31-12.13-3.78-4.17-1.55-8.42-2.43-12.82-2.34-7.94.17-15.86,0-23.79-.41-5.79-.3-11.48.51-17.03,2.18-.19.06-.3.39-.56.75.64.58,1.53.29,2.21.56,4.95,1.97,9.89,3.95,14.81,5.96.62.25,1.15.74,1.73,1.1,2.67,1.66,5.32,3.34,8.01,4.95,5.15,3.1,10.49,5.92,15.44,9.3,6.78,4.62,12.64,10.41,18.73,15.89,3.27,2.94,6.11,6.2,8.64,9.83,3.85,5.51,8.34,10.49,13.35,15,1.42,1.28,2.71,2.72,3.96,4.17.26.3.3,1.15.07,1.39-.29.3-.96.29-1.47.31-.24,0-.49-.23-.73-.34-4.27-2.04-7.79-5.14-10.97-8.5-3.66-3.86-6.83-8.17-9.69-12.7-1.45-2.29-3.26-4.43-5.24-6.29-2.89-2.72-5.97-5.25-9.14-7.63-5.13-3.86-10.43-7.49-15.6-11.3-4.4-3.25-8.87-6.34-13.82-8.73-5.16-2.49-10.2-5.22-15.47-7.53-4.38-1.92-8.72-2.06-13.18-.69-2.47.76-4.36,2.2-4.95,5.18Zm142.64,161.87c1.43,1.03,2.74,1.61,3.53,2.61,2.61,3.34,6.24,5.7,8.66,9.2.08.11.18.2.28.3.1.1.19.25.3.27.64.09,1.34.31,1.9.14.37-.12.79-.85.77-1.28-.15-2.77.16-5.41,1.38-7.95.32-.68.25-1.62.17-2.41-.39-3.68-.8-7.35-1.29-11.01-.22-1.61-.83-3.18-.92-4.79-.17-3.04-1.57-5.55-3.38-7.76-2.16-2.63-4.67-4.97-7-7.46-4.01-4.29-8-8.6-11.99-12.91-.28-.3-.46-.68-.73-.99-3.1-3.45-6.22-6.89-9.31-10.35-2.64-2.96-6.02-5.1-8.6-8.15-2.82-3.33-5.98-6.37-8.97-9.56-1.49-1.59-2.91-3.25-4.4-4.84-2.71-2.9-5.43-5.78-8.17-8.64-3.57-3.74-6.52-8.02-10.25-11.65-3.32-3.23-6.17-6.94-9.23-10.42-.36-.41-.8-.75-1.19-1.13-4.01-3.99-8.97-6.69-13.48-10.02-4.71-3.48-9.6-6.77-14-10.61-4.03-3.52-8.43-6.48-12.73-9.6-2.99-2.16-6.26-3.86-9.94-4.67-2.43-.54-4.55-1.81-6.56-3.29-2.2-1.63-4.44-3.21-6.74-4.69-2.53-1.63-5.13-3.13-7.73-4.63-.27-.16-.76.06-1.33.12-.14.93-.27,1.83-.42,2.86,2.31,1.05,3.91,2.66,5.08,4.73.74,1.32.65,2.6.09,3.94-.41.97-1.19,1.46-2.1,1.83-1.17.47-2.28.99-2.61,2.59.23.31.49.79.87,1.14,1.38,1.24,1.32,2.67.44,4.07-.57.89-1.38,1.65-2.15,2.39-.46.44-1.05.74-1.64,1.14.41.5.62.87.94,1.11,1.69,1.29,1.78,2.94,1.2,4.79-.32,1.02-.59,2.05-.82,2.86.98,1.34,1.89,2.38,2.56,3.55,2.1,3.66,4.05,7.4,6.18,11.04.8,1.36.98,2.78,1.24,4.27.49,2.85-1.09,5.29-1.36,8-.13,1.35-1.34,2.59-2.08,3.9.28,1.09.65,2.13.79,3.2.23,1.76,1.15,2.95,2.55,3.98,1.08.8,2.08,1.83,2.83,2.94.91,1.34,1.3,3.1,2.36,4.28,1.14,1.27,3.11,1.84,4.16,3.16,2.32,2.92,6.28,3.32,8.64,6.07.3.35,1.01.42,1.54.46,1.85.14,3.47.68,4.7,2.16.24.29.68.58,1.04.6,2.04.08,3.46,1.59,5.2,2.21,2.72.96,4.75,2.56,6.53,4.72.69.83,1.65,1.37,2.9,1.22,2.56-.31,4.45,1.01,6.16,2.7.86.85,1.75,1.67,2.74,2.61,1.32-.75,2.48-1.42,3.65-2.08,1.62-.9,3.18-.85,4.52.48,1.16,1.15,2.28,2.36,3.27,3.65.77,1.01,1.65,2.13,2.84,2.12,2.55-.02,3.94,1.64,5.52,3.13,1.08,1.02,2.01,2.29,3.26,3.01,1.29.74,2.09,1.67,2.71,2.93.42.85.96,1.63,1.51,2.53,3.24.23,5.51,2.02,7.55,4.4,1.12,1.31,2.74,2.19,4.14,3.27,2.69-.13,4.12,1.83,5.38,3.18,2.91.8,5.38,1.55,7.88,2.14,3.61.85,6.47,2.78,8.86,5.58.76.89,1.21,2.19,2.78,2.46.48-.3,1.05-.67,1.63-1.02,2.04-1.22,3.96-.96,5.65.62,1.3,1.21,2.5,2.52,3.68,3.85.72.81,1.2,1.85,1.98,2.58,1.15,1.09,1.42,2.64,2.24,3.83.89,1.3,2.46,2.11,3.57,3.29.52.55.66,1.46.78,1.75Zm-439.66-47.63c.21.9.38,1.81.63,2.69,1.6,5.65,3.33,11.24,5.29,16.79,2.52,7.14,6.37,13.24,11.53,18.65,1.7,1.78,3.49,3.52,4.94,5.49,4.49,6.09,10.15,11.07,15.35,16.49.38.39.83.71,1.27,1.04,6.11,4.62,12.17,9.3,18.34,13.83,2.2,1.61,4.63,2.93,7.01,4.27,3.1,1.74,6.32,3.27,9.37,5.08,5.32,3.17,11.15,5.2,16.82,7.54,3.53,1.46,7.25,2.44,10.92,3.55,3.4,1.03,6.81,2.07,10.28,2.86,5.72,1.31,11.47,2.51,17.24,3.6,6.03,1.13,12.03,2.51,18.2,2.81,5.19.25,10.37.64,15.56.91,6.43.34,12.86.65,19.29.96,1.37.07,2.74.1,4.1.14,5.88.18,11.76.41,17.64.52,4.09.07,8.2.1,12.28-.1,5.05-.25,10.1-.66,15.13-1.18,7.62-.79,15.23-1.69,22.83-2.64,2.3-.29,4.55-.99,6.85-1.32,8.55-1.22,16.91-3.29,25.22-5.59,1.84-.51,3.71-.99,5.48-1.71,4.96-2.01,10.11-3.33,15.32-4.53,3.59-.83,7.16-1.82,10.65-3.01,2.44-.84,4.71-2.16,7.07-3.23,2.58-1.17,3.49-3.04,2.19-5.58-1.14-2.22-1.36-4.36-.83-6.74.44-1.97.02-3.89-1.24-5.43-1.49-1.82-2.05-3.81-1.92-6.1.08-1.4-.41-2.61-1.3-3.76-.55.28-.99.37-1.23.63-2.39,2.61-5.19,4.39-8.84,4.63-.78.05-1.53.55-2.3.84-5.22,2.01-10.36,4.3-16.17,4.01-.94-.05-1.89.31-2.84.44-2.57.34-5.16.61-7.72,1-4.33.67-8.67,1.42-12.56,3.59-2.87,1.6-5.95,1.92-9.12,1.9-1.37,0-2.74-.1-4.1-.24-1.4-.15-2.68-.05-3.94.72-.92.56-2,.88-3.02,1.25-2.7.99-5.25,2.26-7.64,3.89-3.59,2.45-7.65,3.53-11.96,3.63-1.64.04-3.31.09-4.92-.12-3.13-.42-5.95.48-8.76,1.63-1.26.52-2.51,1.13-3.83,1.44-4.41,1.04-8.87,1.75-13.43.97-2.29-.39-4.62-.61-6.9-1.05-4.02-.78-8.01-1.53-12.17-1.27-3.12.2-6.3-.07-9.37-.97-3.01-.89-5.98-2-9.05-2.59-5.33-1.02-10.58-2.19-16.2-1.35-6.33.95-12.5-.73-18.37-3.25-.85-.36-1.69-.83-2.38-1.43-1.05-.91-2.03.47-3.01-.05-.12-.06-.28-.03-.4-.1-1.55-.9-3.17-.56-4.8-.28-.8.14-1.64.12-2.45.09-6.49-.2-12.28-2.5-17.65-5.96-4.54-2.92-9.33-5.1-14.75-5.75-1.91-.23-3.66-.88-5.34-1.94-2.42-1.52-5.02-2.77-7.61-3.99-5.2-2.46-10.74-4.06-16.19-5.82-5.23-1.69-9.71-4.34-13.25-8.55-1.43-1.7-3.1-3.05-5.26-3.75-2.24-.73-4.09-2.1-5.86-3.66-2.17-1.91-4.13-3.91-5.6-6.47-2.16-3.78-5.76-6.22-9.18-8.68-5.16-3.71-8.31-8.59-9.86-14.65-.51-1.98-1.3-3.83-3.46-5.06Zm92.75,31.4c2.55-1.11,2.54-1.07,5.26-.24,3.53,1.07,7.06,2.17,10.63,3.06,6.5,1.62,13.04,3.1,19.57,4.61,4.4,1.02,8.79,2.03,13.21,2.94,4.02.83,8.1,1.36,12.08,2.33,2.68.65,5.31.91,8.02.72.54-.04,1.1-.07,1.63-.01,5.85.68,11.72,1.1,17.6,1.26,2.32.07,4.66.47,6.96.34,5.46-.33,10.91-.87,16.36-1.38,1.76-.17,3.56-.35,5.25-.84,5.25-1.54,10.48-3.15,15.67-4.88,2.7-.9,5.34-2.02,7.93-3.23,2.22-1.04,4.27-2.41,6.45-3.53,7.81-4.02,16.04-6.92,24.52-9.17,2.66-.71,5.32-1.31,8.08-1.29,1.46,0,2.94.21,4.39.06,1.62-.17,3.23-.55,4.8-1.01,2.82-.84,5.65-.81,8.54-.63,2.6.16,5.2,0,7.75-.68,3.17-.85,6.38-1.56,9.55-2.4,1.51-.4,2.96-.42,4.42.16,1.53.61,3.12.89,4.91.89.4-.91.85-1.75,1.13-2.63.59-1.84-.13-3.3-1.94-3.84-1.15-.34-2.37-.46-3.51-.68-.74-1.47-1.39-2.78-1.91-3.81-1.99-.14-3.61-.22-5.23-.37-1.5-.14-2.99-.35-4.48-.51-2.17-.23-4.12.46-5.64,1.9-1.91,1.81-4.3,2.91-6.3,4.53-2.79,2.25-6.16,3-9.43,3.7-3.89.84-7.67,1.96-11.46,3.11-2.2.67-4.54,1-6.85,1.2-3.11.27-6.3-.43-9.35.7-.24.09-.56.08-.81,0-2.15-.64-4.32-.33-6.5-.18-3.76.26-7.62-.87-11.29.79-.23.1-.54.08-.81.06-2.04-.2-4.12-.24-6.11-.67-2.99-.65-5.95-.58-8.97-.56-2.51.02-4.45,1.11-6.49,2.22-2.28,1.23-4.5,2.61-6.88,3.6-1.61.67-3.44.87-5.2,1.08-1.41.17-2.71-.34-3.7-1.43-.54-.6-1.03-1.25-1.52-1.85-2.08-.37-3.59-.02-4.22,2.23-.16.57-.76,1.23-1.32,1.44-1.79.67-3.63,1.55-5.48,1.62-4.88.19-9.56-.62-13.17-4.42-.35-.37-.81-.64-1.23-.96-.46.32-.87.48-1.12.78-1.55,1.82-3.5,2.48-5.87,2.29-.93-.08-1.95,0-2.81.33-4.3,1.61-8.75,1.84-13.27,1.75-3.08-.07-6.03-.63-8.52-2.5-1.83-1.37-3.83-1.54-5.86-1.07-3.9.9-7.65.17-11.33-.89-2.78-.8-5.56-1.48-8.42-1.69-1.76-.13-3.38-.88-5.24-.7-4.35.42-8.75.52-12.99,1.68-1.41.38-2.73.3-4.01-.23-2.02-.84-4.02-1.72-5.97-2.69-3.66-1.8-7.31-3.54-10.67-5.98-2.07-1.5-3.83-3.09-4.99-5.24-1.77-3.3-4.21-5.94-6.75-8.65-2.53-2.7-5.62-4.41-8.59-6.19-4.3-2.57-9.16-4.19-13.61-6.53-2.63-1.38-5.2-3.1-7.33-5.16-2.94-2.85-5.88-5.68-9.08-8.24-.64-.51-1.44-.9-1.91-1.54-1.11-1.51-2.53-2.35-4.34-2.85-2.32-.64-4.14-2.08-5.37-4.2-1.84-3.19-3.99-6.21-4.9-9.86-.4-1.59-.81-3.19-1.27-4.76-1.22-4.2-3.99-7.07-7.87-8.92-.43-.21-.98-.15-1.68-.25-.11,1.89,1.07,3,1.66,4.28,1.43,3.1,2.91,6.2,4.67,9.12,2.11,3.5,4.54,6.81,6.83,10.21,3.9,5.79,7.72,11.64,12.62,16.67.94.97,1.59,2.25,2.61,3.1,3.03,2.54,6.16,4.96,9.29,7.39.64.5,1.39.86,2.1,1.27,1.06.62,2.18,1.16,3.19,1.86,7.33,5.04,14.56,10.21,21.97,15.12,4.67,3.1,9.47,6.06,14.44,8.63,4.84,2.51,9.98,4.45,14.99,6.63q2.81,1.22,4.48,3.71Zm221.21-23.71c.87.18,1.66.27,2.4.52,4.7,1.56,6.36,5.74,4.1,10.15-.83,1.61-1.88,2.99-3.43,3.99-.54.35-.98.84-1.84,1.59,2.19,1.22,3.16,3.44,5.45,3.94,2.68.58,4.67,2.22,6.62,3.93,1.26,1.11,2.6,1.99,4.16,2.56,4.23,1.56,8.1,3.89,12.33,5.51,5.45,2.09,10.76,4.6,16.01,7.17,6.26,3.07,12.41,6.35,18.57,9.62,4.35,2.3,8.63,4.73,12.94,7.09,1.55.85,3.14,1.64,4.69,2.5,2.62,1.46,5.29,2.86,7.82,4.47,3.22,2.05,6.3,4.3,9.47,6.43,1.93,1.29,3.8,2.78,5.9,3.69,4.29,1.87,8.2,4.33,12.14,6.8,1.71,1.08,3.7,1.71,5.56,2.56.87.4,1.83.71,2.54,1.3,1.84,1.53,4.06,2.2,6.24,2.97,1.03.36,2.09.66,3.12,1.02,1.09.39,1.92,1.51,3.54,1.27.2-1.68.38-3.28.59-4.88.19-1.49.12-3.1.69-4.43.96-2.24.7-4.49.78-6.78.09-2.42-.91-4.19-2.67-5.67-1.81-1.53-3.63-2.92-6.27-2.19-.61.17-1.44.13-2-.16-2.19-1.11-4.45-2.16-5.68-4.52-.43-.84-.97-1.61-1.53-2.53-1.8.13-3.02-.82-4.39-1.83-2.17-1.6-4.61-2.93-7.1-3.96-2.35-.97-5.15-.96-6.68-3.49-.06-.09-.24-.11-.37-.15-2.83-.96-5.46-2.58-8.57-2.65-1.32-.03-2.41-.63-3.14-1.69-1.2-1.75-2.67-3.05-4.77-3.64-.63-.18-1.17-.7-1.71-1.11-2.6-1.99-5.87-2.98-8.18-5.43-.26-.27-.73-.44-1.11-.48-1.67-.16-2.6-1.26-3.62-2.42-.68-.77-1.72-1.48-2.7-1.69-2.1-.45-3.88-1.42-5.38-2.84-.97-.91-1.96-1.39-3.26-1.42-2.36-.05-4.15-1.21-5.59-3-.69-.85-1.35-1.73-2.14-2.49-.47-.45-1.15-1.01-1.71-.99-2.61.1-4.2-1.71-6.15-2.93-3.34-2.08-6.8-3.96-10.24-5.89-.46-.26-1.07-.26-1.58-.45-.64-.24-1.37-.42-1.85-.86-3.24-2.97-7.19-4.88-10.78-7.32-2.2-1.49-4.29-2.81-6.98-3.11-2.96-.33-5.52-1.54-7.31-4.05-.16-.22-.34-.43-.54-.61-1.11-1.01-2.56-.77-2.85.68-.42,2.03-1.45,3.47-3.12,4.59-.25.17-.25.71-.43,1.3Zm.41,39.2c-2.09.83-4.17,1.37-6.07.43-2.17-1.08-3.83-.62-5.65.72-1.42,1.05-12.42,4.05-14.86,4.35-1.9.24-3.82.4-5.7.78-2,.4-3.95,1.01-5.92,1.55-1.83.51-3.71.94-5.47,1.63-2.18.84-4.33,1.6-6.68,1.91-1.75.23-3.55.62-5.14,1.36-2.28,1.06-4.6,1.71-7.08,1.87-1.43.09-2.65.5-3.49,1.79-.73,1.12-1.87,1.56-3.2,1.47-1.82-.13-3.52.37-5.18,1.02-4.25,1.66-8.64,2.57-13.22,2.56-1.48,0-3.03.18-4.44.61-2,.61-4,.95-6.06.81-1.55-.11-2.99.13-4.34.93-2.83,1.69-5.9,1.94-9.12,1.66-3.67-.32-7.36-.41-11.05-.63-1.23-.07-2.49-.05-3.68-.34-3.76-.9-7.57-.79-11.38-.78-1.36,0-2.74-.08-4.09-.27-3.51-.49-7.01-1.06-10.51-1.61-3.11-.49-6.23-.89-9.32-1.5-2.01-.4-3.94-1.04-6.04-.36-.73.24-1.65.11-2.44-.05-5.76-1.16-11.55-2.24-17.25-3.64-2.56-.63-5.03-1.08-7.67-1-4.3.14-8.54-.39-12.19-2.9-3.4-2.33-7.21-3.24-11.2-3.55-2.09-.16-3.99-.82-5.86-1.71-1.6-.76-3.21-1.55-4.88-2.14-3.74-1.31-7.57-2.38-11.28-3.77-3.69-1.38-7.04-3.63-11.01-4.35-.26-.05-.51-.19-.74-.34-1.83-1.19-3.55-2.57-5.49-3.54-2.06-1.03-4.56-1.32-6.44-2.57-3.06-2.03-5.79-4.57-8.62-6.93-1.04-.86-1.94-1.9-3.01-2.72-4.99-3.82-10.31-7.23-14.88-11.59-.59-.56-1.22-1.14-1.93-1.53-3.02-1.64-4.91-4.24-6.55-7.16-1.06-1.9-2.2-3.89-3.77-5.33-2.3-2.11-3.91-4.59-5.05-7.36-2.91-7.07-5.66-14.21-8.49-21.32-.18-.45-.49-.86-.74-1.28-.52.87-.74,1.69-.48,2.31.88,2.14.99,4.49,2.04,6.58.55,1.1.81,2.33.29,3.57-.14.34-.42.89-.28,1.05,1.26,1.49.71,3.44,1.4,5.07.69,1.63,1.02,3.51,2.07,4.86,2.64,3.42,4.39,7.17,5.61,11.3.89,3.02,2.69,5.68,5.12,7.78,1.76,1.52,3.59,2.96,5.48,4.31,3.28,2.35,5.89,5.24,7.93,8.74,1.97,3.39,4.8,6.09,8.48,7.44,2.97,1.09,5.23,2.8,7.21,5.17,2.68,3.21,5.95,5.64,10.09,6.7,1.59.41,3.16.85,4.74,1.3,2.62.76,5.34,1.3,7.83,2.36,4.25,1.83,8.43,3.88,12.51,6.07,2.07,1.11,4.13,2.04,6.42,2.61,5.74,1.43,11.1,3.72,15.98,7.16,1.98,1.4,4.28,2.5,6.59,3.24,3.11.99,6.42,2.06,9.66,1.34,2.84-.63,5.42-.31,8.07.4,1.98.53,3.95,1.13,5.88,1.83,5.23,1.9,10.59,2.8,16.11,1.95,4.28-.66,8.47-.12,12.61.69,4.16.81,8.24,2.04,12.35,3.11,3.99,1.03,7.98,1.82,12.16,1.36,1.73-.19,3.54.14,5.3.36,4.62.58,9.22,1.27,13.83,1.86,4.21.54,8.21-.49,11.92-2.28,3.57-1.72,7.2-2.5,11.12-2.15,1.49.14,3.01.25,4.5.17,4.45-.23,8.63-1.32,12.2-4.18.85-.68,1.76-1.34,2.73-1.83q7.19-3.64,15.69-3.62c.27,0,.55-.03.82,0,2.26.31,4.36-.27,6.34-1.28,4.2-2.12,8.68-3.19,13.31-3.77,3.8-.48,7.58-1.19,11.4-1.45,5.79-.39,11.36-1.43,16.57-4.1.83-.43,1.81-.73,2.73-.8,2.63-.19,4.18-1.74,5.41-3.87-.53-1.02-1.11-1.96-1.5-2.97-.43-1.12-.68-2.31-1.06-3.63Zm-94.14-193.42c.05.83-.12,1.61.17,2.12,1.09,1.89,2.16,3.82,3.55,5.48,3.15,3.76,6.52,7.33,9.73,11.03,2.6,2.99,5.18,6,7.74,9.01,2.94,3.44,5.75,6.93,8.31,10.64,1.54,2.24,3.37,4.29,5.12,6.37.96,1.14,2.12,2.13,3.05,3.29,3.49,4.37,7.61,8.26,10.11,13.37.12.24.36.41.55.6,2.56,2.54,4.42,5.6,6.01,8.76,1.01,2,2.43,2.83,4.44,3.06,4.76.53,9.51,1.05,14.27,1.53.47.05.97-.23,1.5-.37-.59-1.85-1.11-3.47-1.63-5.11-.64.16-1.03.26-1.42.34-.53.12-1.06.3-1.6.32-1.84.06-2.66-.85-2.55-2.8.02-.38.24-.74.45-1.33h3.85c0-2-.22-3.8.06-5.51.31-1.91,2.48-2.31,3.8-3.38-.39-.69-.68-1.14-.91-1.61-.98-2.05-.63-3.75.68-5.7,1.06-1.58,2.8-2.08,3.88-3.23-.04-.37,0-.55-.07-.61-.49-.45-.98-.9-1.52-1.29-2.81-2.03-3.42-3.74-2.46-7.07.19-.65.5-1.26.83-2.06-.78-.93-1.53-1.88-2.33-2.79-1.36-1.57-1.57-2.66-.63-4.43.44-.84.94-1.71,1.61-2.37,2.6-2.59,4.94-5.49,8.59-6.81,1.01-.37,2.28-.72,2.87-1.93-5.63-1.26-11.09-2.5-16.56-3.7-3.07-.67-6.16-1.29-9.24-1.92-6.43-1.3-12.9-2.42-19.28-3.93-5.46-1.29-10.95-2.28-16.5-2.98-3.02-.38-5.93-.98-8.78-2.01-1.8-.65-3.62-1.26-5.48-1.72-3.29-.82-6.62-1.53-10.24-1.26Zm292.36,145.59c-.71.7-1.21,1.08-1.57,1.57-1.74,2.37-2.23,5.23-3.24,7.9-.99,2.64-3.04,4.9-3.49,7.79-.33,2.15-1.36,3.83-2.77,5.36-2.41,2.6-4.8,5.22-7.28,7.76-1.11,1.14-1.81,2.36-1.89,3.96-.15,2.87-1.7,4.75-4.15,6.15-1.89,1.08-3.62,2.44-5.44,3.65-1.7,1.12-2.61,2.62-2.98,4.67-.77,4.24-2.7,8.01-5.27,11.44-1.1,1.47-1.83,3.01-1.93,4.87-.11,1.96-.78,3.71-2.14,5.2-2.67,2.92-5.31,5.87-7.89,8.87-.86,1-1.88,1.53-3.13,1.79-.64.13-1.26.31-2.01.51,0,1.65-.21,3.17.04,4.61.61,3.55.55,7.04-.22,10.55-.25,1.15-.24,2.37.58,3.64.59-.4,1.05-.65,1.43-.99,1.54-1.34,3.03-2.76,4.61-4.05,3.27-2.69,6.66-5.24,9.87-8,1.33-1.14,2.56-2.52,3.44-4.02,1.51-2.58,2.68-5.36,4.06-8.03.43-.84,1.05-1.58,1.6-2.35,3.61-4.94,7.48-9.69,10.68-14.93.99-1.62,2.3-3.04,3.46-4.56,1.16-1.52,2.41-2.97,3.43-4.58,1.46-2.31,2.52-4.89,4.15-7.05,2.26-3,3.77-6.32,5.25-9.7,1.45-3.32,1.97-6.82,1.94-10.37-.06-7.07.02-14.12.85-21.61Zm-53.5,59.11c.67-.83,1.05-1.22,1.32-1.67,1.82-3.03,3.64-6.06,5.42-9.11.65-1.11,1.59-1.82,2.69-2.44,1.6-.91,2.77-2.3,3.23-4.08.9-3.52,3.13-5.96,5.93-8.08,1.51-1.14,3.12-2.35,4.13-3.89,1.38-2.11,3.05-3.83,4.97-5.39.84-.68,1.76-1.42,2.23-2.35.89-1.75,2.06-3.23,3.55-4.45,1.13-.93,1.71-2.1,2-3.47.17-.8.29-1.62.54-2.39.65-2.01,1.61-3.82,3.83-4.45,1.83-.52,2.53-2.02,3.12-3.55.49-1.26.86-2.61,1.05-3.95.5-3.5,2.06-6.57,4.17-9.26,1.53-1.95,2.13-4.06,2.57-6.35.57-2.97.53-5.98.73-8.98.28-4.22,1-8.4,1.52-12.6.07-.54.14-1.09.11-1.64-.03-.45.33-1.1-.78-1.34-.74,1.66-1.52,3.37-2.28,5.08-1.43,3.24-2.71,6.56-4.32,9.72-2.22,4.38-4.77,8.59-7.03,12.95-2.9,5.61-6.66,10.65-10.18,15.85-.53.79-1.24,1.46-1.81,2.23-2.05,2.72-4.09,5.45-6.12,8.18-1.3,1.75-2.45,3.64-3.92,5.24-2.39,2.62-4.88,5.18-7.55,7.51-1.22,1.07-2.64,1.87-3.56,3.29-.78,1.2-1.99,1.83-3.45,1.95-.79.06-1.56.21-2.29.31-.89,1.72-.89,3.37-.77,4.99.27,3.54.51,7.09.99,10.61.28,2.08.38,4.03-.55,5.99-.81,1.7-.61,3.43.5,5.52Zm-135.83-262.92c2.32-.28,4.09-.42,5.84-.72,2.67-.45,5.41-.75,7.97-1.58,2.43-.79,4.69-2.12,6.99-3.31.9-.47,1.45-1.36,1.13-2.4-.67-2.23-1.57-4.42-3.38-5.98-3.59-3.08-8.06-4.48-12.44-5.84-2.42-.75-5.11-.68-7.68-.87-1.76-.13-3.51-.11-5.19.72-1.22.6-2.61.92-3.98.45-.9-.31-1.6,0-2.32.4-2.57,1.43-4.59,3.41-5.92,6.04-1.09,2.13-.97,2.99.71,4.77,2.65,2.81,6.08,4.59,9.16,6.84.31.23.76.33,1.15.39,2.83.4,5.66.77,7.97,1.09Zm-59.22-24.51c.78-.49,1.58-.97,2.36-1.47,2.47-1.59,3.12-4.26,1.48-6.72-1.39-2.07-3.11-3.8-5.66-4.48-3.57-.96-7.1-2.04-10.68-2.98-2.28-.6-4.62-.64-6.91-.03-1.85.49-3.68,1.09-5.48,1.74-2.21.81-2.66,1.7-2.26,4.11.69,4.11,4.74,8.06,9.28,8.66,4.74.63,9.5,1.33,14.32.99,1.19-.08,2.4.11,3.54.17Zm-189.6,25.54c8.52,0,16.1-2.88,23.24-7.15,1.79-1.07,3.1-2.7,4.14-4.49,1.03-1.76.6-3.61-1.1-4.64-1.04-.63-2.18-1.27-3.35-1.46-3.55-.58-7.21-.58-10.54.73-6.27,2.47-12.1,5.78-16.95,10.57-.76.75-1.38,1.7-1.85,2.66-.66,1.37-.24,2.53,1.2,2.93,1.68.46,3.46.58,5.2.85Zm222.9,136.34c-3.45-.41-6.83-.77-10.19-1.24-2.16-.31-4.29-.85-6.44-1.18-.86-.13-1.76,0-2.78.02.76,3.83,2.57,6.9,4.1,10,5.98,1.1,17.93,1.91,21.04,1.46-.95-3.66-3.4-6.38-5.73-9.05Zm-110.25-167.63c.21.19.42.38.63.57,1.39-.84,2.81-1.62,4.14-2.53.66-.45,1.24-1.07,1.7-1.72.89-1.26.62-2.77-.74-3.47-1.05-.55-2.26-.93-3.44-1.09-2.57-.33-5.17-.35-7.73-.72-1.97-.28-3.82.14-5.67.52-1.89.39-3.54,1.29-4.58,3.12-.74,1.29-1.78,2.41-2.66,3.62-.85,1.16-.66,1.96.47,2.73,3.39,2.28,7.14,2.51,11.01,1.85.54-.09,1-.68,1.84-1.28-.87-.4-1.31-.66-1.8-.81-1.42-.45-2.89-.77-4.27-1.3-1.87-.73-2.27-2.25-1.23-3.95,1.04-1.7,2.71-2.19,4.51-2.41.8-.1,1.48.83,1.22,1.66-.22.72-1.07,1.32-.26,2.32,1.14.06,2.34.95,3.6.32.07-.36.15-.52.11-.62-.51-1.11-2.54-1.9-1.24-3.36.91-1.02,2.29.07,3.44.37.39.1.78.27,1.13.47,1.44.84,1.89,2.35,1.1,3.83-.36.67-.85,1.26-1.28,1.89Zm113.47,193.76c-.09-2.78-.49-5.01.72-7.02-.51-2.3,1.11-3.98,2.02-6.14-6.4-.51-12.5-1-18.76-1.51,1.12,4.17,4.69,6.32,7.23,9.24,2.19,2.52,5.29,3.71,8.79,5.42Zm211.24,31.04c-2.61,2.62-4.47,7.02-3.95,9.89,1.41-2.5,3.08-4.44,3.97-6.87.36-.98.82-2.01-.02-3.02Zm.07-47.72q-1.15,1.13,0,2.44v-2.44Zm-35.34,109.63l-.24-.04.08.3.16-.26Zm-136.63-11.92c-.24-.07-.38-.12-.52-.16.02.09.04.18.07.28.11-.03.22-.06.45-.12Zm-133.81-286.23c-.03-.09-.05-.18-.08-.27l-.44.23c.08.06.16.18.24.18.09,0,.19-.09.28-.14Z"/>
    <path class="cls-1" d="m316.44,411.67c-5.54.84-10.01-.19-14.33-2.09-1.5-.66-3-1.36-4.4-2.21-3.79-2.28-7.35-1.29-10.87.63-.12.06-.23.15-.33.24-3.2,3-7.08,2.83-10.83,1.84-2.02-.53-3.98-1.86-5.6-3.25-2.06-1.77-3.84-3.89-5.58-6-.94-1.14-1.59-2.53-2.31-3.84-.86-1.54-1.41-3.32-2.52-4.64-2.84-3.39-3.6-7.32-3.45-11.51.15-4.09.44-8.17,2.03-12.05.5-1.22.47-2.65.73-3.97.63-3.21,1.1-6.47,1.98-9.61,1.33-4.73,3.32-9.22,5.33-13.71,3.24-7.23,6.56-14.43,9.21-21.91,1-2.82,2.56-5.37,4.4-7.73,1.75,1.1,2.3,2.06,1.8,3.61-1.02,3.25-2.12,6.47-3.29,9.67-1.03,2.81-2.19,5.57-3.29,8.33.94.79,1.36-.08,1.91-.27.64-.23,1.27-.52,1.87-.84,3.57-1.93,7.34-2.73,11.43-2.7,4.26.03,8.45.22,12.66.94,3.41.59,6.81-.38,10.16-.93,3.3-.54,6.53-.5,9.81-.13,3.3.37,6.43,1.23,9.35,2.84,1.43.79,2.99,1.35,4.42,2.14.64.35,1.1,1.02,1.88,1.78-.73.42-1.16.87-1.6.87-1.49.02-3,0-4.47-.23-1.21-.18-2.37-.66-3.54-1.04-5.25-1.74-10.58-2.49-16.11-1.75-2.57.35-5.18.42-7.77.55-.95.05-1.91,0-2.86-.11-3.39-.38-6.76-.98-10.16-1.17-6.35-.35-12.2,1.44-17.33,5.14-1.96,1.42-3.57,3.4-4.58,5.71-2.7,6.15-4.91,12.49-6.29,19.04-.64,3.06-1.48,6.08-2.08,9.15-.77,3.91-.81,7.88-.62,11.85.09,2,1.25,3.58,2.18,5.25.93,1.66,1.89,3.31,2.77,4.99,1.99,3.78,4.29,7.23,7.89,9.79,3.14,2.24,6.17,2.62,9.56.88,1.33-.68,2.76-1.17,4.09-1.84,3.89-1.97,7.8-1.53,11.44.36,4.04,2.1,8.34,3.39,12.57,4.93,1.16.42,2.32.83,3.43,1.36.39.19.61.74,1.3,1.62Z"/>
    <path class="cls-1" d="m398.76,280.09c-.39.25-.93.84-1.54.94-2.29.38-4.7,1.11-6.91.76-3.84-.62-7.64-.24-11.46-.44-2.75-.14-5.47-.36-8.13-1.03-7.09-1.8-13.84-.37-20.48,2.1-4.48,1.67-8.89,3.5-13.38,5.14-2.97,1.08-5.99,1.49-9.24,1.29-4.06-.25-8.19-.14-12.21,1.02-2.22.64-4.56.85-6.8,1.41-3.84.97-5.99,3.73-6.93,7.37-.8,3.06-1.18,6.21.61,9.16.12.19.02.52.02.96-.36,0-.77.12-1.04-.02-1.11-.6-1.91-1.47-2.41-2.68-1.38-3.34-1.19-6.67-.09-10,.65-1.95,1.56-3.75,2.99-5.31,1.63-1.79,3.49-3.03,5.88-3.49,6.42-1.25,12.82-2.99,19.42-2.44,4.99.41,9.36-.99,13.74-3.08,3.95-1.88,7.99-3.68,12.16-4.95,6.08-1.85,12.33-2.29,18.63-.69,2.65.67,5.37,1.25,8.09,1.38,5.32.26,10.65.95,15.99.16,1.34-.2,2.73-.12,4.09-.09,3.27.06,6.54.32,9.82.2,2.16-.08,4.34.51,6.52.7,7.52.64,14.75,2.75,22.09,4.29,1.2.25,2.32.83,3.5,1.18,1.43.43,2.87.93,4.34,1.14,5.73.82,9.87,3.99,12.63,8.84,1.64,2.89,3.65,4.55,7,4.85,5.89.52,11.41,2.81,17.18,3.93,3.14.61,5.99,1.83,8.66,3.57,1.02.66,2.22,1.02,3.31,1.58.57.29,1.29.55,1.1,1.72-2.19.74-4.44.81-6.51-.52-2.15-1.38-4.55-1.81-6.96-2.33-2.67-.58-5.36-1.15-7.94-2.02-3.4-1.14-6.85-2.09-10.43-2.08-4.11.01-6.54-2.28-8.51-5.44-.21-.34-.31-.76-.49-1.13-1.92-3.79-5.07-6.18-9.14-6.99-5.1-1.02-9.95-2.95-15.08-3.83-1.48-.25-2.95-.54-4.44-.77-.67-.11-1.39-.02-2.04-.2-6.25-1.73-12.63-2.31-19.09-2.35-1.36,0-2.75-.19-4.07-.52-.85-.21-1.61-.81-2.47-1.28Z"/>
    <path class="cls-1" d="m408.07,463.69c-2.92.41-5.99-.22-9.08-.89-5-1.09-9.03-3.87-12.44-7.44-1.55-1.62-2.65-3.86-3.42-6.01-3.19-8.96-2.66-17.9,1.81-26.21,3.38-6.28,8.43-11.08,15.83-12.61.4-.08.8-.2,1.21-.22,1.64-.09,3.33-.44,4.91-.15,3.77.71,7.67.09,11.35,1.16,4.25,1.24,7.9,3.46,10.78,7,2.08,2.55,4,5.14,5.43,8.11,2.18,4.51,2.02,9.27,1.86,14.06-.04,1.09-.22,2.18-.3,3.27-.36,5.2-2.97,9.37-6.49,12.88-2.6,2.59-5.77,4.42-9.5,5.34-3.87.96-7.67,1.98-11.95,1.72Zm-4.08-49.47c-2.36.96-4.47,1.62-6.38,2.65-4.07,2.19-7.09,5.47-9.08,9.66-2.29,4.83-2.68,9.92-2.35,15.18.49,7.58,4.79,12.33,11.31,15.27,5.69,2.56,11.71,2.21,17.7,1.07,1.2-.23,2.33-.82,3.53-.99,5.98-.86,12.25-7.3,12.47-13.94.03-.95.19-1.9.29-2.85.75-7.2-1.2-13.5-6.3-18.74-.76-.78-1.55-1.54-2.32-2.32-2.77-2.82-6.17-3.85-10.04-3.61-1.23.08-2.47-.03-3.68.15-1.88.28-3.52-.14-5.15-1.53Z"/>
    <path class="cls-1" d="m273.5,451.88c-.18-7.97,2.34-15.15,6.19-21.89,1.48-2.59,3.49-4.88,6.55-5.94.99-.35,1.87-1.11,2.68-1.83,2.76-2.45,6.14-3.8,9.61-4.28,3.14-.43,6.45-.05,9.65.6,3.52.71,6.76,2.24,9.97,3.68,2.3,1.03,4.34,2.84,6.19,4.62,2.47,2.37,3.43,5.57,3.55,8.92.15,4.11-.19,8.18-1.53,12.12-.44,1.29-.65,2.66-1,3.98-.83,3.21-2.11,6.23-4.4,8.68-1.57,1.68-2.44,3.89-4.51,5.24-3.12,2.04-6.22,3.95-10,4.47-.94.13-1.85.54-2.79.66-1.34.16-2.81.51-4.03.13-1.17-.36-2-.52-2.88.34-3.65-.38-7.77,1.09-10.61-2.62-.13-.17-.55-.32-.7-.24-1.98,1.04-3.07-.49-4.24-1.52-3-2.64-5.86-5.44-6.84-9.5-.44-1.83-.58-3.74-.85-5.61Zm10.5-22.32c-4.33,7.44-6.21,15.31-6.32,23.64-.03,2.1.7,4.02,1.67,5.85,2.74,5.21,7.26,7.79,12.94,8,4.86.18,9.73.37,14.53-1.47,6.09-2.33,10.5-6,12.97-12.13,1.34-3.33,2.09-6.77,2.72-10.25.41-2.26.52-4.61.53-6.91.02-3.21-1.42-5.74-3.99-7.69-3.74-2.85-7.94-4.87-12.46-5.78-6-1.21-11.71-.33-16.27,4.38-.56.58-1.29,1-1.95,1.47q-1.7,1.22-4.38.89Z"/>
    <path class="cls-1" d="m196.25,403.95c-.11-4.16,1.09-8.07,2.78-11.84.84-1.87,1.85-3.66,2.84-5.46,2.35-4.29,6.17-7.25,9.67-10.48.67-.62,1.63-1,2.52-1.3,6.73-2.32,12.54-4.75,19.36-3.65,5.6.91,10.4,3.21,13.71,8.06,1.28,1.88,1.95,3.91,1.68,6.19-.11.95-.14,1.93-.39,2.84-1.2,4.35-2.34,8.74-5.26,12.35-1.28,1.58-2.45,3.33-4.01,4.6-4.1,3.36-7.88,7.2-13.18,8.83-1.94.59-3.74,1.62-5.6,2.46-4.13,1.86-8.37,2.28-12.81,1.3-2.89-.64-5.42-1.93-7.6-3.84-2.37-2.07-3.26-4.96-3.69-7.99-.09-.66-.01-1.35-.01-2.07Zm13,10.58c2.1-.32,4.14-.52,6.13-.96,4.46-.98,8.35-3.35,12.42-5.28.85-.4,1.63-1.01,2.38-1.59,1.62-1.26,3.29-2.47,4.79-3.86,3.46-3.18,6.37-6.75,7.69-11.38.53-1.83,1.11-3.65,1.59-5.5.13-.49-.02-1.05-.06-1.58-.11-1.93-1.16-3.39-2.61-4.48-2.74-2.05-5.59-3.86-9.19-4.17-3.75-.32-7.34-.02-10.76,1.67-1.1.54-2.31.85-3.4,1.41-1.8.91-4.11.32-5.65,1.91-1.43,1.48-2.82,2.99-4.16,4.54-.53.61-.94,1.35-1.31,2.07-1.05,2.06-1.84,4.27-3.11,6.18-2.23,3.37-2.85,7.16-2.81,10.96.04,3.3,1.14,6.44,4.67,7.97,1.1.48,2.07,1.27,3.36,2.08Z"/>
    <path class="cls-1" d="m397.36,314.18c.09,5.55-1.21,9.73-4.28,13.62-4.09,5.18-9.37,7.63-15.67,8.66-5.39.88-10.6.29-15.83-1-4.33-1.07-7.67-3.55-10.2-7.09-2.4-3.36-3.17-7.24-2.74-11.3.58-5.39,2.53-10.33,5.4-14.9.28-.45.67-.87,1.08-1.21,2.67-2.18,5.67-3.76,8.99-4.75,1.82-.54,3.74-1.02,5.35-1.96,3.37-1.96,7.1-1.81,10.73-2.3.39-.05.87-.03,1.21.14,3.52,1.77,7.36,2.98,9.91,6.32,2.52,3.29,4.68,6.76,5.6,10.83.41,1.84.35,3.78.45,4.94Zm-26.22,17.92c5.34-.24,9.97-.96,14.24-3.53,3.4-2.05,5.53-5.01,6.56-8.58,1.95-6.81.22-13.11-4.29-18.36-3.24-3.77-7.54-5.85-12.81-4.45-.92.24-1.84.48-2.75.75-1.18.35-2.36.68-3.51,1.1-2.05.73-4.15,1.38-6.1,2.32-1.85.89-3.49,2.17-4.69,3.88-2.84,4.03-4.15,8.6-4.31,13.45-.14,4.24,1.67,7.59,5.33,9.96,3.95,2.55,8.3,3.35,12.35,3.46Z"/>
    <path class="cls-1" d="m391.57,467.86c-1.7.57-2.52.68-3.24,1.68-.71.99-2.24,1.54-3.52,1.93-3.52,1.09-6.23,3.42-8.94,5.67-1.9,1.58-3.81,3.1-5.94,4.35-5.9,3.46-11.73,7.11-18.47,8.75-4.25,1.03-8.54,1.92-12.83,2.76-3.63.71-7.19,1.49-10.72,2.71-5.41,1.88-11.02,3.26-16.83,3.34-1.07.01-2.18-.17-3.22-.45-4.98-1.38-9.7-1.01-14.24,1.62-1.15.66-2.56,1.06-3.88,1.19-4.8.48-9.6.08-14.3-.83-2.24-.43-4.41-1.51-6.44-2.63-2.46-1.35-5.17-1.78-7.78-2.57-1.85-.56-3.39.54-5.21,1.46.52,1.48,1.01,2.84,1.49,4.21-.5.97-1.27.92-2.03.43-.68-.44-1.32-.99-1.88-1.58-1.68-1.77-1.71-4.22.07-5.83,3.02-2.73,6.47-3.93,10.59-2.75,3.16.9,6.35,1.67,9.18,3.41,3.17,1.95,6.77,2.03,10.3,2.36,1.61.15,3.27-.16,4.9-.27,1.66-.12,3.18-.67,4.68-1.4,3.12-1.52,6.49-2.11,9.95-2.14.95,0,1.95,0,2.85.28,4.64,1.41,9.22.82,13.78-.28,3.04-.73,6.25-.96,8.96-2.79.22-.15.51-.2.78-.24,4.34-.58,8.67-1.45,13.02-1.63,3.23-.14,6.35-.75,9.15-1.96,8.16-3.52,16.2-7.34,23.19-12.99,1.17-.94,2.43-1.79,3.7-2.59,1.36-.86,2.66-1.88,4.45-1.81,1.57.06,2.11-1.86,3.75-2,1.37-.11,2.65-.3,4.68.6Z"/>
    <path class="cls-1" d="m554.82,328.53c2.36-1.09,4.42-.11,6.27,1.87,2.72,2.91,5.53,5.84,6.27,9.88.65,3.56,1.54,7.11.28,10.86-1.37,4.07-4.08,6.75-7.68,8.61-3.2,1.66-6.76,2.06-10.34,2.18-3.3.11-6.54-.47-9.68-1.21-2.34-.55-4.62-1.75-6.66-3.08-4.01-2.61-7.88-5.42-10.15-9.9-1.32-2.61-2.25-5.32-2.5-8.19-.5-5.75,1.97-10.32,6.11-14.11.5-.45,1.12-.8,1.73-1.1.61-.29,1.27-.54,1.93-.64,2.52-.41,4.98-1.12,7.51-1.45,1.47-.19,3.01.06,4.5.23.65.08,1.28.44,1.89.74,3.42,1.7,6.83,3.42,10.54,5.28Zm-17.93-1.62c-1.76.66-3.02,1.13-4.28,1.59-.89.33-1.86.52-2.66.99-2.96,1.78-5.51,7.82-4.33,11.59,1.86,5.96,5.8,10.12,11.03,13.15,5.21,3.03,10.98,3.1,16.74,2.54,3.07-.3,5.65-1.97,7.88-4.07.47-.45.87-1.09,1.05-1.71,1.2-4.03,1.42-8.04-.49-11.97-.55-1.14-1.3-1.97-2.41-2.66-3.58-2.25-7.2-4.41-11.06-6.18-2.98-1.37-5.87-2.9-9.3-2.79-.79.03-1.59-.35-2.19-.5Z"/>
    <path class="cls-1" d="m310.86,399.45c-2.59-.82-4.06-2.38-5.03-4.29-1.43-2.81-2.32-5.79-2.37-9.02-.06-4.57,2.67-8.1,7.16-9.06,3.59-.76,7.17-.31,10.58.57,3.59.93,7.25,1.31,10.83,2.14,1.05.24,2.13.53,3.08,1.01,3.3,1.67,6.42,3.59,9.03,6.3,2.36,2.46,4.93,4.73,7.41,7.07,1.1,1.04,2.28,1.91,3.75,2.43,1.93.68,3.75,1.66,5.67,2.38,2.22.83,4.55.84,6.88.53.81-.11,1.63-.56,2.41-.48,3.88.39,6.42-1.89,8.83-4.34,3.51-3.57,7.51-4.74,12.32-3.02,1.25.45,2.66.47,4.01.62,1.49.18,3,.18,4.47.45,3.09.55,6.17,1.22,9.25,1.85,1.79.37,2.05.55,3.81,2.41-.63.32-1.16.75-1.76.88-3.52.8-7.05.26-10.57-.12-2.17-.24-4.33-.58-6.49-.93-1.62-.27-3.31-.4-4.8-1-2.56-1.04-4.52-.09-6.4,1.41-1.28,1.02-2.56,2.07-3.7,3.23-2.18,2.22-4.9,2.81-7.84,2.92-.81.03-1.63.03-2.44.15-.51.07-1,.34-1.76.62,1.17,1.72,2.3,3.23,3.26,4.84.96,1.62,1.75,3.33,2.6,4.99-.39,1.03-1.18,1.26-1.96.74-.88-.58-1.84-1.28-2.35-2.17-1.37-2.37-3.08-4.49-4.6-6.75-1.18-1.75-2.63-2.63-4.58-3.07-4.5-1.02-8.45-3.02-11.69-6.39-2.55-2.65-5.16-5.27-7.86-7.78-3.04-2.83-6.4-5.04-10.7-5.66-3.51-.51-6.95-1.47-10.45-2.1-2.13-.39-4.26-.72-6.5-.48-1.76.19-3.09.97-4.44,1.91-.98.68-1.4,1.63-1.44,2.8-.16,4.75.4,9.29,3.77,13.03.22.25.28.64.59,1.37Z"/>
    <path class="cls-1" d="m202.89,352.89c-1.38-.14-2.35-.13-3.27-.36-5.03-1.24-7.88-6.36-6.2-11.47.9-2.72,2.2-5.29,4.25-7.42,1.8-1.87,3.41-3.91,5.22-5.77,1.14-1.17,2.4-2.27,3.75-3.18,4.75-3.18,9.29-6.73,14.83-8.57,3.13-1.04,6.12-1,9.17.35,1.88.84,3.7,1.65,5.26,3.06,2.16,1.94,2.84,4.24,2.22,7-1.06,4.7-3.29,8.63-7.4,11.38-3.74,2.5-7.26,5.29-11.64,6.8-1.98.68-3.57,2.44-5.42,3.59-2.08,1.29-4.18,2.61-6.41,3.6-1.45.65-3.15.73-4.37.98Zm-.26-4.12c.94-.28,2.89-.58,4.55-1.43,2.42-1.24,4.63-2.89,6.93-4.36,1.27-.81,2.44-1.85,3.81-2.39,3.5-1.39,6.39-3.71,9.41-5.8,3.01-2.09,4.96-4.99,5.78-8.64.39-1.71-.07-3.01-1.45-3.92-1.25-.82-2.62-1.47-3.97-2.14-2.38-1.18-4.78,1.32-7.2.03-.26-.14-.78.16-1.16.3-.38.15-.75.34-1.1.56-1.6,1.03-3.13,2.19-4.8,3.09-4.03,2.17-7.39,5.05-10.09,8.74-.64.87-1.52,1.56-2.33,2.31-2.18,2.03-3.38,4.66-4.15,7.42-1.03,3.67,1.05,6.2,5.77,6.24Z"/>
    <path class="cls-1" d="m573.67,314.01c.38-1.3.53-2.41,1.03-3.35.97-1.83,3.09-2.08,4.41-.47,1.55,1.9,3.02,3.88,3.76,6.29.88,2.87,1.78,5.74,2.74,8.58.38,1.12.94,2.18,1.57,3.61-.81,0-1.36.14-1.79-.02-2.65-.98-4.15-3.05-4.96-5.63-.49-1.56-.73-3.19-1.16-4.77-.24-.89-.63-1.75-.92-2.55-1.49-.34-1.46,1.21-2.35,1.46-.77.21-1.53.47-2.46.76-.06,2.28.6,4.32,1.35,6.34.82,2.17,1.6,4.36,2.55,6.48,1.54,3.42,3.62,6.47,7.06,8.25,2.91,1.51,3.91,4,4.06,7.06.09,1.8-.51,3.2-2.13,4.1-.45.25-.85.59-1.46,1.03.57.93.97,1.77,1.53,2.48,3.1,3.87,4.01,8.28,3.16,13.08-.47,2.62-3,4.1-5.53,3.32-2.48-.76-4.99-1.53-6.74-3.65-.32-.39-.52-.88-.97-1.65.85,0,1.39-.15,1.79.02,2.26.96,4.48,2,6.96,3.13.54-.81,1.29-1.5,1.49-2.33.32-1.31.44-2.74-.32-3.99-.99-1.62-2.05-3.2-3.09-4.79-.82-1.25-1.83-2.4-2.48-3.73-1.32-2.66-.7-4.52,1.88-6.27.55-.37,1.12-.71,1.61-1.02-.04-1.4-.59-2.36-1.69-2.78-4.75-1.84-7.09-5.93-9.12-10.09-1.97-4.04-3.51-8.31-4.07-12.84-.02-.14-.05-.27-.07-.4-.6-4.1.03-4.94,4.37-5.66Z"/>
    <path class="cls-1" d="m238.24,473.85c.4.97-.09,1.64-.85,2.02-4.72,2.37-8.76.02-9.87-3.91-.48-1.7-.63-3.49-.96-5.23-.25-1.34-.39-2.72-.86-3.99-.89-2.42-2.96-3.57-5.55-3.17-1.62.25-3.2.72-4.8,1.06-3.35.7-6.25-.4-8.73-2.51-3.02-2.56-4.88-5.85-5.39-9.84-.29-2.3-.62-4.6-.98-6.9-.15-.94-.42-1.87-.62-2.8-.87-4-3.78-6.22-7.14-7.94-2.06-1.05-4.28-1.8-6.42-2.69-4.85-2.01-6.8-5.08-6.73-10.49.01-.81-.2-1.63-.14-2.43.19-2.55.99-4.83,3.35-6.18.37-.21,1.16-.15,1.48.12.32.27.37.95.36,1.45,0,.38-.24.78-.42,1.14-1.54,3.13-.51,6.15.45,9.13.57,1.78,1.97,3.01,3.7,3.61,4.58,1.57,7.83,4.93,11.12,8.18,2.17,2.14,3.49,4.94,4.31,7.84.78,2.75,1.33,5.58,1.68,8.42.67,5.5,5.86,9.28,11.17,7.93.93-.23,1.83-.57,2.73-.88,2.21-.76,4.22-.39,6.33.6,2.8,1.31,4.08,3.5,4.45,6.38.31,2.44.63,4.88.81,7.32.12,1.6.86,2.61,2.37,2.93,1.7.36,3.43.54,5.14.8Z"/>
    <path class="cls-1" d="m234.34,350.23c1.81,2.35,3.96,2.44,6.33,1.49,1.97-.78,3.22-2.49,4.83-3.72,2.3-1.76,3.03-4.07,3.35-6.71.46-3.8.83-7.58.56-11.44-.41-5.92,1.77-10.91,6.01-15.09,2.58-2.54,5.65-4.24,8.85-5.77,2.99-1.42,5.61-3.3,7.73-5.89.84-1.03,1.98-1.83,3.05-2.65.17-.13.74.14,1.05.34.18.12.36.53.29.7-.53,1.26-1.01,2.56-1.71,3.72-2.23,3.67-5.1,6.71-9.11,8.5-.37.17-.78.27-1.15.43-7.38,3.26-11.03,8.95-11.12,16.98-.04,4.23-.05,8.45-.9,12.65-.37,1.82-1.02,3.48-2.08,4.84-2.39,3.05-5.43,5.41-9.04,6.9-2.36.98-6.02-.13-7.41-2.09-.7-.99-.82-1.99.48-3.19Z"/>
    <path class="cls-1" d="m477.05,471.64c1.11,2.44,2.17,4.66,3.12,6.93.58,1.37,1.12,2.79,1.43,4.24.78,3.66-1.32,7.23-4.97,8.22-1.68.45-3.5.4-5.27.51-.53.03-1.08-.17-1.61-.29-3.84-.89-7.69-1.71-11.69-1.09,0,.49.17,1.16-.05,1.67-.24.55-.84.95-1.43,1.57-.41-.73-.88-1.17-.9-1.64-.1-2.67,1.87-5.26,4.46-5.57,1.73-.21,3.54-.08,5.28.16,2.02.28,3.98,1.05,6.01,1.25,6.44.65,7.66-2.19,5.4-7.52-.85-2.01-1.89-3.95-2.98-5.84-.88-1.52-1.35-3-.5-4.63,1.17-2.24.23-3.26-1.6-4.31-1.54-.89-3.14-1.68-4.75-2.43-2.8-1.3-5.09-3.14-6.77-5.76-.96-1.5-2.15-2.85-3.05-4.37-1.12-1.89-2.08-3.89-1.77-6.19.08-.6.5-1.15,1-2.23,1.28,2.36,2.43,4.19,3.3,6.14,1.26,2.82,3.5,4.86,5.37,7.18.57.71,1.54,1.12,2.37,1.57,2.28,1.25,4.61,2.38,6.86,3.67,3.69,2.11,4.18,3.5,2.99,7.77-.07.26-.14.52-.26.98Z"/>
    <path class="cls-1" d="m451.84,322.44c2.41-.29,4.76-.02,7.13.74,8.32,2.66,16.65,5.28,25,7.86,3.04.94,5.75,2.22,7.99,4.68,3.89,4.3,8.64,7.53,14.02,9.73,3.28,1.34,6.28,3.25,9.78,4.16,2.38.62,4.28,2.38,5.79,4.38.3.4.36.98.63,1.8-1.01,0-1.88.25-2.48-.04-3.08-1.52-6.45-2.26-9.54-3.6-4.98-2.15-10.13-4.19-14.35-7.74-2.7-2.27-5.17-4.83-7.66-7.35-.79-.8-1.57-1.39-2.68-1.73-9.93-3.05-19.55-6.94-29.18-10.8-1.45-.58-3.04-.83-4.56-1.23.04-.29.07-.57.11-.86Z"/>
    <path class="cls-1" d="m409.82,473.23c-.3,1.22-1.11,1.46-1.87,1.71-2.46.8-4.93,1.57-7.39,2.36-2.37.76-4.53,1.88-6.39,3.55-.51.46-1.02.95-1.62,1.25-2.87,1.45-4.79,3.53-4.82,6.93-3,4.94-4.6,8.33-11.5,7.58-.95-.1-1.91-.11-2.86-.25-2.11-.3-4.03.13-5.91,1.14-1.15.62-2.16,1.79-3.73,1.4-.83-.85-.54-1.75-.02-2.6,1.9-3.09,4.78-4.34,8.31-4.24,1.36.04,2.72.25,4.08.35,3.62.26,5.94-1.49,7.29-4.73.57-1.37,1.22-2.71,1.7-4.11.61-1.81,1.81-2.84,3.51-3.7,2.16-1.09,4.32-2.38,6.08-4.02,1.72-1.61,3.72-2.31,5.83-2.69,2.53-.46,5.14-.54,7.72-.67.53-.03,1.1.51,1.59.75Z"/>
    <path class="cls-1" d="m317.51,510.19c-1.47.3-2.94.6-4.4.91-2.82.61-3.19.43-5.05-2.43-.21-.32-.65-.48-.92-.77-.27-.28-.46-.64-.74-1.04.94-2.42,2.43-3.98,5.01-4.94,5.74-2.14,11.59-2.77,17.67-2.55,5.31.19,10.6.12,15.52-2.64,3.05-1.7,5.16-1.79,8.56-1.48-.36.65-.53,1.4-.99,1.7-5.42,3.53-11.01,6.51-17.79,6.46-4.63-.03-9.27.38-13.91.54-3.35.12-6.39,1.37-9.46,2.48-.29.11-.67.69-.6.93.13.45.53,1.13.86,1.16,1.48.13,2.98.05,4.42.05.64.59,1.24,1.13,1.84,1.68,0,0-.03-.08-.03-.08Z"/>
    <path class="cls-1" d="m436.45,322.1c-.83.28-1.57.79-2.23.71-1.89-.23-3.75-.7-5.62-1.09-2.26-.47-4.42-1.53-6.82-1.22-.94.12-1.88.27-2.81.45-2.27.45-4.51,1.03-6.8,1.36-2.66.39-6.41-1.66-7.43-4.16-.43-1.07-.67-2.58-.25-3.57,1.56-3.7.43-6.94-1.2-10.2-.3-.6-.61-1.24-.66-1.89-.03-.46.24-1.17.61-1.37.33-.19,1.01.07,1.44.3.33.17.52.61.76.95,2.42,3.53,3.56,7.34,2.56,11.62-.09.4-.23.79-.28,1.2-.29,2.29,1.29,4.1,3.59,3.83,2.3-.27,4.59-.72,6.82-1.32,5.24-1.4,10.25-1.01,15.07,1.54,1.2.64,2.41,1.29,3.24,2.84Z"/>
    <path class="cls-1" d="m317.54,510.27c-.06-.37-.16-.73-.16-1.1,0-.11.31-.21.47-.32.03.11.11.24.08.32-.13.33-.31.65-.45.99.02.02.05.1.05.1Z"/>
    <path class="cls-1" d="m637.6,424.68c-.95.22-1.73.4-2.47.57-.07.34-.25.68-.15.82.75,1.04.82,1.98-.25,2.85-.64.52-1.33,1-1.86,1.61-3.21,3.74-7.57,5.29-12.19,6.03-3.37.54-6.8.11-10.11-.89-1.96-.59-3.94-1.1-5.87-1.77-1.15-.4-2.31-.91-3.31-1.58-2.72-1.83-5.62-3.49-7.97-5.73-4.2-4.02-7.58-8.63-7.22-14.94.14-2.46.37-4.9,1.31-7.22,1.54-3.8,4.31-6.73,7.53-8.97,2.03-1.41,4.79-1.96,7.31-2.44,4.95-.94,10.01-.73,15.03-.92,4.29-.16,7.46,1.86,9.99,4.74,4.14,4.71,7.41,10.05,9.64,15.97,1.79,4.76,1.9,6.23.58,11.86Zm-17.77-27.3c-.18-.01-.72-.1-1.27-.09-5.05.12-10.1.31-15.15.34-1.12,0-2.11.16-3.15.51-2.39.81-4.27,2.18-5.96,4.08-3.15,3.54-4.51,10.34-2.31,14.55,1.19,2.26,2.13,4.85,4.36,6.36,3.93,2.66,7.55,5.93,12.46,6.81,3.34,2.13,7.11,1.67,10.77,1.74,1.07.02,2.21-.16,3.21-.54,3.23-1.24,5.93-3.34,8.5-5.61.39-.35.63-.88.93-1.32,1.84-2.74,1.8-5.64.69-8.62-1.58-4.25-3.74-8.16-6.51-11.77-1.83-2.37-3.37-4.98-6.56-6.44Z"/>
    <path class="cls-1" d="m616.72,479.5c1.17.87,2.09,1.2,2.32,1.8.51,1.29,1.47,2.07,2.35,3.04,1.93,2.11,3.69,4.37,4.33,7.33.48,2.26,1.11,4.52,1.99,6.65,1.33,3.2,3.53,5.78,6.52,7.89,1.28-1,1.63-2.3,1.56-3.64-.16-3.27-.43-6.54-.73-9.8-.54-5.79-.12-11.46,1.94-16.94,1.51-4.02,4.37-6.19,8.68-6.33,1.91-.06,3.82.03,5.74.05,2.4.03,4.41-.44,6.21-2.43,1.49-1.65,3.74-2.62,5.69-3.83.24-.15.91-.01,1.09.22.29.39.59,1.05.44,1.43-.28.73-.78,1.44-1.36,1.97-2.19,2.05-4.49,3.98-6.67,6.04-.95.9-2.03,1.45-3.27,1.55-1.62.14-3.26.12-4.89.1-1.09-.01-2.18-.22-3.27-.2-1.75.04-3.21.71-4.02,2.36-.84,1.7-1.65,3.32-2.04,5.29-1.05,5.37-.43,10.62.26,15.91.25,1.9.54,3.8.72,5.7.2,1.99-.42,3.77-1.64,5.36-.95,1.25-2.16,1.63-3.62,1.17-.65-.2-1.31-.44-1.88-.81-4.54-2.9-7.93-6.7-9.18-12.08-.78-3.34-1.96-6.46-3.97-9.29-1.65-2.33-2.67-4.97-3.31-8.52Z"/>
    <path class="cls-1" d="m545.96,441.2c.86,1.02,1.55,1.54,1.82,2.22.72,1.82,1.96,2.85,3.87,3.14.26.04.62.06.76.24.31.39.73.87.7,1.3-.03.44-.43,1.1-.82,1.25-3.83,1.51-8.01-1.34-7.71-5.97.02-.25.19-.5.33-.73.22-.34.47-.65,1.05-1.45Z"/>
    <path class="cls-1" d="m501.19,449.58c-1.1,1.1-1.53,1.86-2.15,2.09-2.44.89-5.44-.54-6.42-2.9-.61-1.46.39-3.7,2.03-4.4.27-.12.75.12,1.07.3.21.12.43.43.43.65,0,2.75,1.9,3.64,5.04,4.26Z"/>
    <path class="cls-1" d="m612.65,519.82c.76-.18,1.03-.34,1.26-.29,1.85.4,2.66,1.05,2.62,2.03-.04.97-1.29,1.49-3.02,1.27-3.3-.42-4.95-3.65-3.42-6.69.45-.9,1.66-1.07,2.41-.36,1.18,1.13.94,2.37.15,4.02Z"/>
    <path class="cls-1" d="m510.57,422.9c.89,3.26,2.26,5.81,5.46,6.55-.25,1.62-1.22,1.89-2.15,1.83-3.1-.2-5.6-3.51-5.08-6.64.06-.37.34-.72.58-1.03.15-.19.44-.27,1.18-.7Z"/>
    <path class="cls-1" d="m553.24,486.74c-2.8.09-4.64-2.48-3.75-4.78.29-.74,1.46-1.1,2.05-.59,1,.86,1.56,2.26,3.2,2.33.33.01.87.73.88,1.13,0,.44-.39,1.02-.79,1.29-.54.37-1.24.49-1.6.62Z"/>
    <path class="cls-1" d="m594.01,492.55c-2.82.75-4.43.05-5.63-1.58-1.01-1.39-1.26-2.96-.5-4.59.25-.54,1.39-.71,1.75-.25.25.31.58.65.64,1.01.32,2.12,1.6,3.62,3.74,5.41Z"/>
    <path class="cls-1" d="m567.44,469.84c.94,1.49,1.49,2.41,2.08,3.3.59.88,1.23,1.72,2,2.81-.64.33-1.06.72-1.52.75-1.32.09-2.41-.57-3.19-1.54-.78-.96-1.33-2.14-.96-3.41.16-.55.78-.97,1.58-1.91Z"/>
    <path class="cls-1" d="m577.97,502.93c2.15.72,4.14,1.39,6.25,2.1-.21,1.65-1.48,2.03-2.8,2.24-1.81.28-3.03-.29-3.74-1.68-.53-1.03-.72-2.06.29-2.65Z"/>
    <path class="cls-1" d="m518.56,454.38c-2.13.31-3.08-1.02-3.69-2.6-.55-1.42-.73-2.92.87-4.12.46.3,1.1.49,1.29.89.75,1.56,1.39,3.18,1.98,4.82.09.26-.29.69-.45,1.01Z"/>
    <path class="cls-1" d="m495.51,416.37c-2.72.67-3.86.22-4.96-1.74-1.02-1.82-.78-3.14.99-4.92,1.21.91.75,2.55,1.52,3.6.69.94,1.46,1.83,2.44,3.05Z"/>
    <path class="cls-1" d="m537.32,456.32c.31.16.75.25.99.53.87,1.01.88,2.48,2.09,3.41.9.69.15,2.21-1.03,2.39-1.3.19-2.77-.65-3.24-1.97-.49-1.35-.35-2.68.46-3.89.13-.2.43-.28.73-.46Z"/>
    <path class="cls-1" d="m521.77,467.77c1.24.94,2.52,1.91,4.06,3.07-.57.52-.95,1.05-1.46,1.31-.78.4-1.64.23-2.28-.35-1.04-.96-1.58-2.16-1.08-3.6.06-.18.44-.26.76-.43Z"/>
    <path class="cls-1" d="m491.79,577.31c-.46-.16-1.63-.47-2.74-.96-.95-.42-1.35-1.31-1.47-2.32-.12-.99.67-2.09,1.64-1.92,2.21.38,4.31.29,6.42-.5.79-.29,1.67.64,1.55,1.43-.4,2.6-2.22,4.28-5.4,4.26Z"/>
    <path class="cls-1" d="m262.17,572.19c-.48,1.36-.53,1.95-.84,2.3-2.2,2.5-6.7,2.39-8.61-.21-.31-.41-.45-.98-.57-1.5-.2-.87.62-1.64,1.45-1.39.13.04.29.03.39.1,2.27,1.46,4.72,1.92,8.17.7Z"/>
    <path class="cls-1" d="m410.69,583.31c-.4,2.21-1.46,3.5-3.47,3.77-1.98.27-3.83-.11-5.24-1.63-.32-.35-.57-1.02-.46-1.44.12-.42.81-1.07,1.1-1,2.55.62,5.06.01,7.58-.1.1,0,.21.16.49.4Z"/>
    <path class="cls-1" d="m375.79,593.85c2.42-.42,4.9,1.62,7.32-.14,1.03,1.35.38,2.28-.42,2.94-2.14,1.78-5.82.77-7.1-1.88-.09-.18.1-.49.2-.92Z"/>
    <path class="cls-1" d="m220.05,545.65c.82,1.02,1.46,1.67,1.93,2.44.84,1.37,1.23,3,2.54,4.1.2.17.22.82.06,1.1-.16.27-.68.55-.99.5-1.87-.3-3.17-1.46-4.03-3.08-.81-1.51-1.01-3.04.5-5.06Z"/>
    <path class="cls-1" d="m464.84,567.46c1.84.25,3.7.47,5.54.78.32.05.71.46.81.78.1.32-.02.85-.26,1.08-1.38,1.37-3.68,1.71-5.28.86-1.15-.62-1.37-1.48-.81-3.5Z"/>
    <path class="cls-1" d="m249.67,555.76c-.12.57-.04,1.39-.4,1.72-1.37,1.24-3.93,1.14-5.22-.12-.36-.36-.6-.9-.77-1.39-.35-1.03.53-2.01,1.53-1.72,1.55.45,3.08.96,4.86,1.52Z"/>
    <path class="cls-1" d="m293.05,586.84c2.49-.92,4.32-.28,6.16.06.83.15,2.26-.23,2.07,1.19-.13.97-1.36,1.16-2.33,1.25-1.67.15-3.25-.15-4.69-.98-.39-.23-.61-.76-1.2-1.52Z"/>
    <path class="cls-1" d="m439.98,589.64c-.13,2.45-.41,4.22-2.21,4.68-1.81.46-3.84.41-5.07-2.03,1.26-.23,2.43-.31,3.5-.69,1.11-.39,2.12-1.08,3.78-1.96Z"/>
    <path class="cls-1" d="m290.63,573.4c-.46,2.24-2.03,2.18-3.27,2.49-1.02.25-1.92-.31-2.48-1.1-.44-.61-.93-1.51-.79-2.14.23-1.01,1.29-.74,2.06-.54,1.44.37,2.87.82,4.47,1.29Z"/>
    <path class="cls-1" d="m343.07,596.18c-1.67.08-2.96-.67-4.07-1.73-.23-.22-.34-.8-.22-1.1.12-.28.64-.59.94-.55,2.01.29,4.01.65,6.01,1.04.2.04.48.4.46.6-.03.35-.17.9-.41.99-.87.33-1.8.52-2.7.75Z"/>
    <path class="cls-1" d="m462.25,584.64c1-1.91,2.79-2.34,4.68-2.51.46-.04,1.16.13,1.38.45.51.74-.23.96-.71,1.45-2.1,2.11-2.82,2.27-5.35.61Z"/>
    <path class="cls-1" d="m355.24,582.69c-.55,1.53-1.46,2.24-2.72,2.45-1.1.19-2.2.04-3.02-.77-.33-.32-.58-1-.47-1.4.1-.35.76-.78,1.16-.77,1.55.06,3.1.28,5.05.48Z"/>
    <path class="cls-1" d="m495.24,558.32c.23.06.77.16,1.25.36.63.27,1.3.7,1.03,1.48-.2.57-.69,1.13-1.2,1.46-.4.25-1.04.21-1.56.16-1.44-.15-2.44-.83-2.53-1.62-.1-.98,1.15-1.83,3.01-1.84Z"/>
    <path class="cls-1" d="m327.72,583.65c-2.82.27-3.42.02-4.21-1.72-.44-.97-.36-1.84,1.07-2.22.78.81,1.62,1.65,2.4,2.54.25.28.37.69.73,1.4Z"/>
    <path class="cls-1" d="m439.51,573.84c-.25,1.76-1.17,2.03-2.09,2.16-1.14.16-2.05-.4-2.79-1.22-.14-.15-.19-.5-.12-.7.07-.22.33-.56.49-.55,1.43.06,2.86.2,4.51.32Z"/>
    <path class="cls-1" d="m195.27,523.52c-2.3.34-2.89-1.02-3.44-2.4.64-.88,1.29-.58,1.71-.1.66.76,1.16,1.65,1.73,2.49Z"/>
    <path class="cls-1" d="m472.87,530.68c2.2-1.11,4.66-.71,7.19-1.08.17.64.55,1.24.39,1.61-.36.83-.82,1.81-1.54,2.27-2.27,1.46-4.75.64-6.16-1.86-.1-.18.05-.52.11-.93Z"/>
    <path class="cls-1" d="m437.46,542.71c1.54.1,2.73.24,3.91.25,1.2,0,2.4-.13,3.58-.21.74,1.06.35,1.86-.48,2.46-1.75,1.25-4.82,1.1-6.43-.39-.38-.35-.34-1.15-.58-2.1Z"/>
    <path class="cls-1" d="m458.81,523.8c-2.03,2.56-3.94,3.29-6.17,3.31-1.24.01-2.46-.09-2.93-1.73.21-.25.39-.67.69-.8,2.45-1.04,5.02-.59,8.4-.78Z"/>
    <path class="cls-1" d="m404.73,548.58c-2.07.1-3.72-.6-4.66-2.52-.15-.3-.11-.84.07-1.12.19-.28.66-.52,1.01-.53.51,0,1.05.16,1.54.35,1.11.45,2.2.96,3.3,1.44.61.27,1.45.55,1.12,1.33-.2.46-1.01.69-1.57.96-.23.11-.53.06-.8.08Z"/>
    <path class="cls-1" d="m191.93,479.61c-.87,1.25-1.77,1.28-2.71.79-1.79-.92-2.47-2.3-2.11-4.42.08-.46.5-1.07.9-1.19.37-.11,1.1.19,1.34.54.91,1.34,1.68,2.76,2.58,4.28Z"/>
    <path class="cls-1" d="m296.33,543.26c1.69,1.48,3.21,2.79,4.69,4.13.16.14.27.56.17.71-.2.31-.52.73-.83.77-2.38.26-4.88-1.93-4.87-4.29,0-.41.5-.81.83-1.32Z"/>
    <path class="cls-1" d="m247.93,533.9c-.65-.27-1.61-.49-2.3-1.04-.4-.32-.6-1.2-.5-1.76.13-.76.88-.95,1.6-.75.91.25,1.83.51,2.67.92.4.19.88.75.87,1.12-.02.41-.51.87-.91,1.16-.29.22-.76.2-1.42.35Z"/>
    <path class="cls-1" d="m247.28,519.97c-.6.7-.73.96-.95,1.08-2.19,1.19-3.58.7-4.33-1.58-.1-.3.09-.85.34-1.07.24-.21.79-.31,1.09-.18.6.27,1.09.79,1.68,1.08.57.28,1.22.39,2.17.67Z"/>
    <path class="cls-1" d="m364.9,554.1c-2.73,2.59-3.69,2.84-5.24,1.55-.35-.29-.64-1-.52-1.39.11-.37.8-.82,1.21-.79,1.34.08,2.66.35,4.55.63Z"/>
    <path class="cls-1" d="m276.7,540.89c0,1.97-1.04,2.31-2.16,2.27-1.32-.04-2.27-.7-2.36-2.36,1.67-.82,3.02.48,4.52.1Z"/>
    <path class="cls-1" d="m217.38,503.02c2.35.94,2.34.96,3.39,2.69-1.57.89-2.28.91-3.37-.09-.79-.71-.97-1.57-.02-2.6Z"/>
    <path class="cls-1" d="m326.01,549.91c-1.96-.15-3.24-.41-4.12-1.54-.36-.46-.41-1.17-.76-2.24,2.35.62,3.46,1.89,4.88,3.78Z"/>
    <path class="cls-1" d="m205.82,498.13c1.77.72,2.12,1.86,2.48,2.96.06.18-.12.52-.3.67-.17.15-.6.28-.68.19-.63-.64-1.29-1.28-1.74-2.05-.19-.33.11-.95.24-1.77Z"/>
    <path class="cls-1" d="m223.26,516.24c1.31-.09,2.19-.16,2.94-.21.66,1.14.35,1.81-.53,2.11-1.29.44-1.96-.25-2.41-1.9Z"/>
    <path class="cls-1" d="m263.74,531.95c-2.18,1.02-2.8.95-3.17-.2-.1-.31,0-.84.21-1.06.2-.2.75-.28,1.02-.15.57.29,1.05.74,1.94,1.41Z"/>
    <path class="cls-1" d="m347.27,531.78c.08,1.7-1.27,1.9-2.42,2.09-2.05.34-3.97-1.04-4.12-2.9-.04-.48.16-1.16.51-1.45.31-.26,1.05-.31,1.45-.12,1.55.72,3.04,1.57,4.59,2.38Z"/>
    <path class="cls-1" d="m476.13,506.93c.2-.33.32-.79.61-.98,1.55-.98,3.31-.96,5.06-.87.53.03,1,1.21.68,1.64-.8,1.08-2.02,1.24-3.21,1.44-1.37.22-1.54.13-3.14-1.23Z"/>
    <path class="cls-1" d="m219.3,486.65c1.92,1.37,3.52,2.51,5.33,3.8-.45.44-.77,1.02-1.12,1.05-.9.06-1.91.08-2.71-.27-1.74-.77-2.22-2.2-1.5-4.58Z"/>
    <path class="cls-1" d="m400.99,519.61c2.66-1.12,4.61.31,6.59.39.31,1.34-.22,1.72-.91,1.85-2.16.42-4.29.64-5.67-2.24Z"/>
    <path class="cls-1" d="m379.07,534.66c1.89-.77,3.26.15,4.46,1.41.16.17-.12,1.15-.39,1.26-.56.23-1.37.34-1.88.1-1.06-.51-2.06-1.24-2.18-2.77Z"/>
    <path class="cls-1" d="m286.14,519.73c.84.99,1.58,1.87,2.43,2.87-1.38.81-2.42.46-3.19-.58-.49-.66-.58-1.48.76-2.29Z"/>
    <path class="cls-1" d="m584.94,550.13c1.06,2.16,1.65,4.25,3.59,5.41-.82,1.35-1.95,1.26-2.95,1.07-.75-.14-1.65-.5-2.06-1.08-.5-.71-.69-1.72-.79-2.62-.13-1.25.87-1.83,2.21-2.79Z"/>
    <path class="cls-1" d="m558.85,539.85c1.25.54,2.3.86,3.18,1.43.47.3.94,1.04.93,1.56-.02.55-.5,1.26-.98,1.6-1.22.85-2.97.52-4.04-.6-.9-.95-.7-2,.91-3.99Z"/>
    <path class="cls-1" d="m612.54,574.19c-.7,2.1-1.84,2.97-3.45,2.76-1.37-.17-2.64-1.25-2.75-2.6-.05-.58.3-1.33.72-1.75.27-.27,1.05-.23,1.5-.07.75.27,1.39.81,2.13,1.13.58.25,1.22.35,1.85.52Z"/>
    <path class="cls-1" d="m534.95,526.89c.04-.2.01-.69.24-.97.39-.49.94-1.16,1.43-1.18.49-.02,1.21.6,1.45,1.11.39.84.56,1.82.66,2.76.05.46-.1,1.18-.42,1.39-.37.24-1.08.2-1.54.01-1.33-.54-1.78-1.35-1.83-3.11Z"/>
    <path class="cls-1" d="m511.76,517.47c-1.99.52-3.33-.08-4.57-.93-.82-.56-.97-1.82-.47-2.99.27-.64,1.26-.8,1.71-.25,1,1.23,1.99,2.48,3.33,4.17Z"/>
    <path class="cls-1" d="m601.31,559.01q2.06-.08,3.97,3.05c-.26,1.03-1.12,1.21-1.88.94-.69-.25-1.48-.78-1.78-1.4-.35-.74-.23-1.71-.32-2.59Z"/>
    <path class="cls-1" d="m521.58,526.93c1.63.9,2.86,1.58,4.21,2.32-2.07,1.44-3.62,1.39-4.59-.02-.14-.2-.19-.52-.15-.76.07-.38.25-.74.54-1.54Z"/>
    <path class="cls-1" d="m416.47,358.15c1.13,1.07,1.91,1.99,2.87,2.65.83.56,2.21.18,2.67,1.54-.49,1.34-1.69,1.56-2.91,1.72-1.15.14-2.12-.34-2.98-1.04-1.38-1.12-1.34-2.36.36-4.86Z"/>
    <path class="cls-1" d="m443.76,385.17c-.44.67-.66,1.39-1.02,1.47-1.17.25-2.41.47-3.58.32-1.51-.19-2.48-1.44-2.39-2.85.02-.35.62-.78,1.05-.95.33-.13.81.04,1.19.18,1.52.56,3.02,1.16,4.75,1.83Z"/>
    <path class="cls-1" d="m445.01,369.01c-.37.55-.56,1.12-.95,1.36-1.14.69-2.44.59-3.54.03-.63-.32-1.05-1.17-1.41-1.87-.28-.54.08-1.02,1.47-2.48.72.5,1.46,1.03,2.22,1.54.67.45,1.35.87,2.21,1.42Z"/>
    <path class="cls-1" d="m459.99,368.06c1.59,1.54,2.94,2.81,4.22,4.15.21.22.22.82.07,1.11-.14.28-.6.52-.95.56-1.43.16-2.64-.36-3.65-1.38-1.27-1.28-1.25-2.16.3-4.44Z"/>
    <path class="cls-1" d="m466.32,389.34c-2.69.7-3.26.52-4.31-1.36-.79-1.43-.82-1.61-.43-3.73.26-.02.65-.16.76-.03,1.37,1.43,2.72,2.89,4.03,4.38.12.13-.03.49-.06.75Z"/>
    <path class="cls-1" d="m453.71,398.2c1.86.78,3.2,1.34,4.76,1.99-.4.63-.57,1.22-.95,1.44-1,.58-2.12.49-3.07-.11-.52-.33-.99-.91-1.21-1.48-.14-.37.22-.93.47-1.85Z"/>
    <path class="cls-1" d="m508.95,279c-2.29-1.44-5.12-1.72-7.29-3.03-.03-1.21.64-1.49,1.29-1.64,4.04-.9,7.55.26,10.55,2.96,1.34,1.2,1.62,2.88,1.09,4.52-.5,1.55-1.83,2.48-3.4,2.57-3.21.2-6.5.91-9.54-.93-.43-.26-1.04-.26-1.57-.31-1.64-.14-2.95-.75-3.31-2.5-.26-1.25-1.37-1.61-2.13-2.35-.92-.89-1.52-1.98-1.06-3.31.45-1.29,1.48-1.92,2.8-2.06,1.33-.14,2.71-.37,3.72,1.13-.52.68-.99,1.3-1.45,1.91.69.82,1.63,1.52,2.02,2.45.79,1.89,2.48,2.01,4.02,2.33,1.7.35,3.27.02,4.26-1.77Z"/>
    <path class="cls-1" d="m426.87,252.63c1.29-.09,2.64-.21,3.99-.26.67-.03,1.46-.13,2.01.16,2.18,1.15,4.46,1.91,6.83,2.54,1.55.41,2.16,1.96,1.88,3.63-.47,2.75-1.61,3.68-4.4,3.61-.95-.02-1.9-.02-2.85,0-1.55.03-2.89-.25-3.98-1.58-.55-.67-1.57-.97-2.39-1.41-3.51-1.88-3.78-3.44-1.08-6.68Zm5.94,3.81c.24,2.1,1.18,2.33,2.34,2.18.28-.04.53-.21,1.14-.46-1.27-.63-2.16-1.07-3.47-1.72Zm-2.51-.14c-.94-1.19-1.62-.79-2.27.14.69-.04,1.38-.09,2.27-.14Z"/>
    <path class="cls-1" d="m258.74,287.78c-1.93,0-2.77-.9-2.59-2.56.06-.54.37-1.09.3-1.6-.38-2.74,1.38-4.09,3.47-4.85,1.72-.63,3.18-1.51,4.58-2.61,1.47-1.15,3.16-1.59,5.02-1.16,1.46.33,2.95.56,4.39.98,1.02.3,1.59,1.29,1.27,2.27-.37,1.15-.74,2.47-1.56,3.26-1.56,1.5-3.27,3.05-5.22,3.91-3.11,1.37-6.48,2.1-9.67,2.36Zm13.91-8.93c-4.62-1.23-7.64,1.23-10.87,2.89-.96.49-.96,1.53-.32,2.64,1.3-.24,2.63-.73,3.92-.66,1.23.07,2.13-.36,3.04-.93,1.15-.74,2.27-1.54,3.33-2.4.37-.3.52-.86.9-1.54Z"/>
    <path class="cls-1" d="m472.74,443.58c1.46.2,2.92.39,4.38.61.6.09,1.08,1.01.9,1.61-.45,1.48-1.72,2.25-3.11,1.89-1.55-.4-2.74-1.17-3.16-2.84-.18-.72.31-1.45.99-1.27Z"/>
    <path class="cls-1" d="m411.46,449.44c-.42.53-.72.98-1.08,1.37-2.94,3.19-7.29,2.24-8.59-1.89-.32-1.01-.39-2.1-.61-3.33-.86-.13-1.65-.24-2.43-.37-3.31-.56-5.19-3.06-4.61-6.37.23-1.31.89-2.56,1.37-3.82.23-.61.5-1.21.82-1.96-.77-.56-1.4-1.02-2.04-1.49-2.38-1.76-2.24-4.66.41-5.79,1.81-.77,3.4-1.6,4.39-3.41.36-.65,1.16-1.29,1.87-1.47,2.75-.7,5.58-1.62,8.25.2,1,.68,1.92.67,3.06.55,2.85-.31,5.11.66,6.12,3.6.31.91.59,1.78,1.59,2.25,2.21,1.05,2.95,3.13,3.34,5.31.38,2.13-.19,4.27-1.67,5.69-1.5,1.44-1.61,2.91-1.56,4.72.03,1.19-.18,2.47-.62,3.58-.83,2.09-2.46,3.24-4.81,3.07-.95-.07-1.88-.24-3.2-.42Zm-4.1-25.01c-1.88.2-3.34.36-4.76.52-.69.86-1.22,1.87-2.06,2.48-.79.58-1.89.74-3.03,1.14.43.74.65,1.24.97,1.65,1.22,1.57,1.31,3.22.57,5.01-.36.88-.67,1.79-.91,2.7-.31,1.17-.72,2.37.5,3.74.99,0,2.21-.07,3.42.02,1.45.11,2.17.82,2.45,2.29.18.94.19,1.91.41,2.83.24,1.02.86,1.69,2.24,1.42.27-.5.54-1.12.91-1.67,1.22-1.8,2.03-2.1,4.17-1.57.66.16,1.28.49,1.95.61,1.7.31,3.22-1.53,2.58-3.14-.24-.62-.73-1.14-1.07-1.73-1.02-1.75-.81-2.59.92-3.71.68-.44,1.5-.72,2.08-1.26,1.42-1.32.81-3.89-1.09-4.09-1.97-.21-2.58-1.12-2.68-2.87-.06-1.02.15-2.23-1.37-2.86-.47.58-.88,1.26-1.46,1.77-1.18,1.04-2.72.79-3.47-.54-.46-.82-.79-1.71-1.26-2.74Z"/>
    <path class="cls-1" d="m310.02,453.28c-.46.89-.82,1.62-1.22,2.33-1.75,3.12-3.49,4.02-7.03,3.45-1-.16-1.78-.02-2.72.35-3.74,1.51-7.99-.81-8.81-4.72-.19-.92-.22-1.88-.33-2.94-.7-.44-1.42-.82-2.07-1.29-2.43-1.78-2.74-4.22-.85-6.7.65-.85,1.33-1.68,2-2.53-.94-.63-1.78-1.09-2.49-1.71-1.25-1.1-1.3-2.35-.21-3.6,1.11-1.28,2.57-1.97,4.16-2.5.87-.29,1.81-.67,2.47-1.28,1.93-1.8,4.09-2.91,6.62-3.81,2.34-.83,4.45-1.06,6.75-.59,1.78.36,3.4,1,4.27,2.82.28.59.79,1.12,1.31,1.54,2.08,1.72,2.42,3.83,1.53,6.26-.14.38-.27.76-.48,1.37,1.23,1.44,3.11,2.64,3.35,4.8.23,2.04.25,4.09-1.11,5.88-1.32,1.74-3.19,2.49-5.14,2.85Zm1.02-17.35c-1.14-.85-2.1-1.39-2.81-2.15-1.65-1.77-3.35-2.47-5.78-1.4-1.88.83-4.43-.53-5.99,1.69-.31.44-.69.85-1.08,1.22-.49.46-1.04.87-1.39,1.17-1.38.42-2.93-1.26-3.85.93.44.39.92.84,1.42,1.27,1.23,1.07,1.17,2.4.66,3.74-.24.62-.72,1.15-1.1,1.72-.66.99-1.33,1.97-2.1,3.1.64.43,1.03.81,1.5,1,1.97.81,3.15,2.11,2.95,4.36-.15,1.69.76,2.83,1.96,3.8,1.24.2,2.08-.34,2.81-1.28,1.08-1.4,2.3-1.62,3.9-.59,1.3.84,2.01.61,2.75-.51.6-.91,1.11-1.88,1.52-2.88.42-1.01,1.14-1.5,2.16-1.6.4-.04.82.05,1.23.02,1.71-.13,2.71-1.15,3.23-2.69.52-1.53.52-2.95-.96-4.03-.55-.4-1.04-.87-1.55-1.31-1.53-1.32-1.62-1.74-.72-3.42.32-.59.68-1.16,1.26-2.15Z"/>
    <path class="cls-1" d="m211.44,399.1c-.98-.34-2.02-.62-2.97-1.06-1.92-.88-2.44-2.61-1.31-4.38.44-.68,1.02-1.29,1.6-1.86.58-.57,1.26-1.04,1.9-1.55.49-4.16,3.16-6.15,6.94-7.06,1.18-.29,2.33-.72,3.51-1.02,1.05-.27,2.11-.48,3.17-.67,1.06-.19,2.12-.32,3.18-.5.4-.07.78-.28,1.18-.35,3.17-.57,6.82,1.62,7.59,4.74.24.99.13,2.21-.23,3.18-.52,1.41-1.26,2.67-.86,4.29.28,1.13-.3,2.13-1.11,2.95-.29.29-.58.58-.88.86-2.08,1.89-4.58,3.25-6.21,5.72-1.07,1.62-2.98,2.44-5.07,2.03-1.73-.34-3.17.15-4.6,1.09-1.92,1.27-4.05,1.52-6.27.83-1.45-.45-2.25-1.75-1.68-3.19.55-1.38,1.38-2.64,2.14-4.04Zm12.17-12.85c-1.54.79-2.84,1.42-4.47,1.08-1.86-.39-3.11.71-3.97,2.25-.33.59-.53,1.25-.77,1.89-.52,1.38-1.39,2.29-2.95,2.47-.42.05-.8.48-1.61,1,1.61.53,2.77.81,3.84,1.29,1.26.56,1.78,1.75,1.35,3.06-.37,1.13-.95,2.19-1.45,3.32,1.2.7,2.2.22,3-.52,1.23-1.13,2.58-1.94,4.12-2.4.79.41,1.5.78,2.12,1.1,1.73-.51,2.5-1.78,3.2-3.14.57-1.12,1.32-1.85,2.7-2.22,1.91-.53,3.35-1.75,3.09-4.17-.08-.75.33-1.56.59-2.33.9-2.72.48-3.36-2.8-3.96-.34.5-.69,1.07-1.08,1.61-1.28,1.75-1.62,1.79-3.66.51-.34-.21-.67-.44-1.24-.83Z"/>
    <path class="cls-1" d="m361.74,312.73c-3.45-4.46-2.88-6.99,1.69-8.94,1.98-.85,3.97-1.6,6.24-1.69,2.11-.09,4.35-.18,6.29-1.49.61-.41,1.58-.37,2.38-.38,1.81-.03,2.87.72,3.26,2.44.45,1.98.41,4.05,1.27,5.96.2.43.08,1.11-.11,1.6-.41,1.08-.43,2.11-.05,3.19.64,1.83,0,3.55-.72,5.14-.42.93-1.22,2.03-2.11,2.34-1.65.59-2.71,1.73-3.86,2.87-1.48,1.47-3.26,1.98-5.24,1.22-.73-.28-1.68-.73-1.94-1.35-.65-1.51-1.67-2.38-3.16-2.9-.49-.17-.86-.65-1.29-.99-2.25-1.83-3.86-3.92-2.65-7.02Zm2.32-4.88c.67,1.42,1.56,2.57,1.7,3.81.15,1.26-.43,2.61-.62,3.56,1.12,2.48,3.3,2.78,5.02,3.43.67,1.04,1.22,1.9,1.68,2.62,2.13-.11,2-2.01,2.98-2.85,1.1-.94,2.32-1.75,3.26-2.44-.06-1.91-.42-3.59-.09-5.12.42-1.92.08-3.46-1.11-5.16-4.27.26-8.78-.37-12.82,2.15Z"/>
    <path class="cls-1" d="m544.25,350.84c-1.45-1.14-2.54-2.18-3.81-2.95-2.16-1.33-3.34-3.21-3.56-5.66-.1-1.15-.45-1.99-1.25-2.87-2.35-2.59-1.02-6.41,2.4-7.19,1.59-.36,3.23-.53,4.78-.99.89-.26,1.67-.2,2.34.24,2.47,1.63,4.88,3.36,7.58,4.62.46.21.95.67,1.13,1.14.79,2.02,1.6,3.96,1.39,6.3-.32,3.53-3.83,7.17-7.65,7.37-1.22.06-2.45,0-3.37,0Zm-6.57-14.14c1.72.78,2.67,1.98,2.71,3.58.06,2.36,1,3.88,3.37,4.42.23.05.47.31.6.53.81,1.39,2.03,1.66,3.51,1.43,1.49-.24,2.43-1.18,3.15-2.38.26-.44.51-1.16.32-1.55-.69-1.42-.91-3.15-2.56-4-.7-.36-1.48-.84-1.86-1.47-.55-.93-1.43-1.15-2.22-1.65-1.09-.69-2.53-.37-3.5-1.65-.59-.78-2.07-.18-2.71.82-.29.45-.42.99-.8,1.91Z"/>
    <path class="cls-1" d="m225.66,325.16c.15,1.11.33,2.04.4,2.98.17,2.33-.3,4.35-2.74,5.38-.37.15-.68.45-1,.69q-2.51,1.9-5.59,1.85c-.83.94-1.64,2.04-2.62,2.95-2.11,1.95-4.59,2.28-7.21,1.16-1.77-.76-2.24-2.42-1.2-4.04.36-.57.98-.99,1.29-1.57.29-.55.55-1.27.44-1.85-.25-1.41.2-2.37,1.34-3.13.45-.3.8-.75,1.25-1.04.81-.5,1.62-1.21,2.5-1.33,2.38-.3,3.93-2.21,6.18-2.84,2.42-.67,4.51-.63,6.95.77Zm-16.92,12.38c1.37.79,2.46.35,3.43-.45.73-.61,1.36-1.33,1.99-2.04,1.03-1.14,2.22-2.25,3.74-2.28,1.72-.04,2.72-1.1,3.87-1.99,1.64-1.27,1.64-1.87.22-4.12-2.36.93-4.76,2.02-7.2.98-1.31,1.14-2.42,2.1-3.44,2.99.43,1.11.72,1.85.97,2.48-.46,2.15-2.84,2.61-3.58,4.45Z"/>
    <path class="cls-1" d="m602.76,412.64c-2.52-1.3-2.86-3.51-2.54-5.97.13-1,.58-1.87,1.5-2.32,2.2-1.07,4.44-2.08,6.66-3.11,3.78.11,7.71-.44,10.62,2.97,1.05,1.23,2.34,2.3,3.66,3.26,1.72,1.26,2.47,2.79,2.15,4.94-.33,2.26-1.04,4.43-1.33,6.72-.31,2.47-2.32,4.06-4.91,4.22-1.42.09-2.62.32-3.76,1.2-1.21.93-2.61.87-3.81-.05-1.83-1.39-3.52-2.98-5.37-4.33-2.56-1.87-3.93-4.14-2.86-7.53Zm1.84-5.3c.17.19.31.44.52.55,2.93,1.54,3.26,2.23,2.35,5.02-.12.38-.5.72-.51,1.09-.02.78-.06,1.65.25,2.32.57,1.24,1.48,2.25,2.8,2.84.98.44,1.91.98,3.12,1.62,1.19-2.08,3.16-2.64,5.48-2.11.32-1.36.47-2.58.91-3.68.49-1.26,1.34-2.39.88-3.74-1.61-1.61-3.12-3.17-4.7-4.66-.48-.45-1.13-.9-1.75-.98-3.11-.41-6.18-.26-9.1,1.03-.16.07-.18.45-.26.69Z"/>
  </g>
</svg>