<?xml version="1.0" encoding="UTF-8"?>
<svg id="Laag_1" data-name="Laag 1" xmlns="http://www.w3.org/2000/svg" viewBox="0 0 850.39 850.39">
  <defs>
    <style>
      .cls-1 {
        fill: #131f48;
      }

      .cls-1, .cls-2 {
        stroke-width: 0px;
      }

      .cls-2 {
        fill: #a5d6af;
      }
    </style>
  </defs>
  <path class="cls-2" d="m275.64,645.42s222.33-35.05,341.51-11.02,162.12-37.87,145.09-195.11-149.64-286.17-249.25-201.49c-103.17,87.71-249.48,111.15-308.9,144.69-135.44,76.46-100.49,282.89,71.54,262.92Z"/>
  <g>
    <path class="cls-1" d="m249.1,612.27c-4.93.05-9.85.15-14.78.11-2.32-.02-4.65-.23-6.96-.49-5.69-.63-11.43-1.04-17.05-2.07-6.08-1.12-12.16-1.72-18.33-1.83-3.13-.06-6.27-.46-9.39-.86-1.87-.24-3.9-.43-4.71-2.65-.04-.12-.16-.24-.27-.29-3.24-1.28-3.37-4.39-4.15-7.09-.57-1.98-.34-3.82,1.64-5.11-6.73-14.16-13.84-28.01-18.93-42.92-.18-.15-.45-.53-.81-.65-3.11-1.02-4.46-3.5-4.07-6.37.56-4.13-.4-7.79-1.72-11.59-1.69-4.89-2.96-9.92-4.41-14.89-1.41-4.83-2.9-9.65-4.2-14.51-1.24-4.62-2.42-9.26-3.37-13.95-1.6-7.9-3.02-15.85-4.46-23.78-1.27-7-1.78-14.1-2.4-21.18-.2-2.32-.49-4.63-.73-6.94-.1-.95-.22-1.91-.23-2.87-.05-4.23-.1-8.45-.45-12.69-.43-5.16-.11-10.38-.14-15.58-.02-2.73-.05-5.47-.13-8.2-.07-2.46-.3-4.92-.27-7.38.03-3.56-.18-7.1-.39-10.65-.26-4.5-.25-9.05.14-13.53.55-6.25,1.62-12.46,1.71-18.75.03-2.64.63-5.17,1.5-7.61,1.06-3,1.47-6.1,1.89-9.23.65-4.88,1.46-9.74,2.21-14.6.17-1.08.42-2.15.53-3.24.22-2.31.24-4.64,2.4-6.25.45-.33.49-1.23.67-1.88,1.14-4.23,2.21-8.47,3.41-12.68.82-2.89,1.78-5.74,2.71-8.6,2.41-7.41,4.87-14.8,7.23-22.22.45-1.41.5-2.95.74-4.42.29-1.75.59-3.5.88-5.24.16-1,.56-1.93,1.5-2.32,1.59-.67,2.12-2.03,2.62-3.47,1.1-3.23,2.14-6.49,3.35-9.68,1.06-2.8,2.22-5.58,3.52-8.28,2.01-4.19,4.18-8.31,6.27-12.46,1.04-2.07,2.13-4.1,2.1-6.57-.02-1.22.58-2.54,1.82-3.03,1.83-.72,2.78-2.13,3.61-3.74.88-1.71,1.95-2.95,4.19-2.44.74.17,1.61-.21,2.42-.32.95-.14,1.9-.32,2.85-.38,5.05-.34,10.1-.59,15.14-.97,7.64-.57,15.28-1.26,22.92-1.82,1.76-.13,3.54.05,5.32.1,4.38.11,8.76.2,13.13.36,5.33.2,10.66.52,15.99.68,5.74.17,11.48.18,17.23.29,3.15.06,6.29.28,9.43.27,4.52-.01,9.03-.21,13.55-.25,2.04-.02,4.09.28,6.13.2,9.28-.35,18.57-.22,27.85-.54,9.02-.3,18.08-.5,27.1.24,2.73.22,5.46.45,8.16.83,1.19.17,2.31.77,3.48,1.11.75.22,1.54.3,2.36.45.33-.89.6-1.6.86-2.3.4.11.75.09.89.25,1.02,1.25,2.48,2.18,2.81,3.96.08.42.62.97,1.05,1.08,2.46.66,2.99,2.75,2.46,4.53-.92,3.13.4,5.61,1.41,8.25.39,1.02.73,2.11,1.37,2.97,1.74,2.34,2.71,5.04,3.92,7.64,1.84,3.97,3.76,7.91,5.57,11.9,1.75,3.85,3.4,7.74,5.16,11.77.65.09,1.31.13,1.95.28,2.18.52,3.93,2.41,4.04,4.57.04.75-.27,1.61-.67,2.27-.48.77-1.23,1.38-2.02,2.22,1.34,1.37,2.06,2.74,1.84,4.7-.16,1.4.56,2.93.99,4.37,1.63,5.36,3.31,10.72,4.99,16.07.07.23.34.4.68.77,2.03-.33,4.18-.43,5.11-3.05.38-1.08,1.46-1.47,2.7-1.46,3.43.04,6.81-.25,9.97-1.8,1.01-.49,2.09-.4,3.21-.1,3.34.93,6.65,1.34,9.99-.21,1.08-.5,2.4-.58,3.62-.67,5.49-.43,10.74-1.72,16.01-3.37,5.32-1.67,10.75-3.19,16.34-3.97,3.93-.54,7.8-1.46,11.72-2.12,1.75-.29,3.54-.54,5.31-.49,2.78.08,5.44-.57,8.12-1.06,6.87-1.24,13.75-2.15,20.76-2.25,6.22-.09,12.3.82,18.38,1.76,6.23.96,12.45,1.94,18.72,2.54.68.06,1.42.01,2.03.25,4.07,1.6,8.38,1.15,12.59,1.53,1.83.17,3.43-.25,5.03-1.3,1.91-1.25,4.13-1.14,5.6.66,1.53,1.88,3.49,2.04,5.52,2.06,2.9.03,5.7.44,8.54,1,4.64.92,8.79,2.93,13.01,5.17,3.12-.6,6.33-.65,9.59.07,1.92.42,3.89,1.16,6.01.3.67-.27,1.88.25,2.59.76,2.2,1.59,4.46,2.46,7.22,1.76.73-.18,1.61.14,2.41.29.8.15,1.59.45,2.39.55,4.01.5,7.52,2.24,11.17,3.87,5.44,2.43,10.06,5.99,14.82,9.4,3.57,2.56,6.61,5.65,9.41,9.06,2.68,3.27,5.69,6.27,8.67,9.28,2.89,2.93,5.62,6.03,7.51,9.64,3.23,6.15,6.05,12.53,9.08,18.79,1.13,2.34,2.27,4.69,3.59,6.92,2.11,3.57,3.3,7.47,4.38,11.42.18.65.23,1.35.47,1.98,1.76,4.48,2.65,9.15,3.66,13.84,1.04,4.82,1.32,9.72,2.33,14.54,1.24,5.91.98,12,.06,17.97-.77,5-1.71,9.99-2.95,14.9-1.21,4.77-2.84,9.43-4.4,14.1-1.24,3.75-2.54,7.48-3.99,11.15-3.3,8.32-8.01,15.84-13.37,22.98-1.56,2.08-3.14,4.14-4.62,6.27-2.61,3.74-5.84,6.87-9.38,9.71-.41.33-.73.79-1.07,1.16.21,1.37,1.54,1.03,2.18,1.65.59.57,1.12,1.2,1.77,1.69,1.4,1.06,2.08,2.46,2.4,4.15.68,3.62,1.41,7.23,2.17,10.84,1.1,5.21,2.31,10.39,2.74,15.74.29,3.67,1.31,7.27,1.76,10.93.53,4.34.73,8.72,1.18,13.07.45,4.34.97,8.68,1.58,13.01.26,1.88.82,3.72,1.31,5.85,4.43,2.23,4.66,6.18,3.31,10.43-1.43,4.49-1.98,9.01-1.56,13.68.06.68-.07,1.37-.01,2.05.21,2.37-.87,3.93-2.98,4.85-1.75.76-3.54,1.46-5.29,2.21-1.71.74-3.24.87-5.09,0-1.53-.73-3.49-.51-5.19-.95-4.25-1.09-8.44-.59-12.55.48-6.61,1.72-13.19,3.58-19.72,5.59-4.83,1.49-9.56,3.32-14.34,4.99-.52.18-1.03.38-1.56.53-10.28,2.91-20.35,6.43-30.11,10.78-.5.22-1.02.41-1.52.62q-3.27,1.37-6.85,1.14c-1.06,1.88-3.04,2.51-4.98,3.13-5.99,1.91-11.98,3.86-18.02,5.61-9.85,2.86-19.7,5.71-29.63,8.28-5.55,1.44-11.23,2.33-16.87,3.39-.91.17-1.9-.12-3.02-.2-.28,1.26-.57,2.56-.85,3.86-.55,2.61-2.21,4-4.79,4.36-1.08.15-2.17.37-3.26.39-2.08.04-4.04.34-5.95,1.29-.91.45-2.13.45-3.19.35-1.35-.13-2.78-.33-3.98-.91-2.64-1.28-5.57-1.27-8.31-2.1-.97-.29-2.2-.15-3.2.16-2.61.8-5.15,1.85-7.75,2.69-4.03,1.3-8.04,2.7-12.24,3.36-1.79.28-3.5.66-5.03,1.63-1.52.97-3,1.02-4.65.19-1.95-.98-4.03-1.71-6.03-2.58-.75-.32-1.5-.67-2.2-1.1-2.33-1.44-3.2-3.47-2.94-6.27.65-6.79,1.09-13.61,1.63-20.7-2.28-1.85-4.61-3.94-7.14-5.75-2.77-1.99-5.67-3.83-8.61-5.56-5.47-3.23-11.49-5.01-17.63-6.44-3.6-.84-7.1-.46-10.45,1.01-3.41,1.5-6.99,2.36-10.61,3.11-5.62,1.17-11.17,2.58-16.54,4.7-3.81,1.51-7.73,2.75-11.6,4.11-1.8.64-3.59,1.32-5.4,1.94-.89.31-1.8.59-2.72.78-1.2.25-2.46.27-3.62.64-2.58.83-5.11.61-7.69.03-1.46-.33-2.95-.7-4.44-.74-2.31-.07-4.09-1.47-6.13-2.19-.71-.25-1.26-1.41-1.54-2.26-.28-.88-.25-1.9-.17-2.85.31-3.68.7-7.35,1.04-11.03.04-.38-.1-.79-.16-1.27-.44.03-.94-.09-1.18.1-2.28,1.89-4.97,2.85-7.81,3.37-5.11.94-10.24,1.86-15.39,2.53-7.46.97-14.94,1.82-22.44,2.5-3.67.33-7.39.38-11.07.18-2.23-.12-4.41.03-6.52.47-3.13.67-6.22.59-9.37.42-3.55-.19-7.11-.04-10.67-.03-1.1,0-2.21.09-3.09-.76.17-.14.33-.28.44-.37-.08.11-.22.28-.35.45Zm-72.95-31c0,.2.02.41.03.61,0-.19.02-.39.02-.58-.29-.52-.59-1.03-.88-1.55-.55-1.26-.7-2.76-2.2-3.87.13,1.94.63,3.2,2.21,3.8.27.53.54,1.05.81,1.58Zm-4.26-8.69c0,.22,0,.45-.01.67.14-.06.28-.11.42-.17-.16-.15-.33-.29-.49-.44-.23-.6-.46-1.2-.7-1.8-.31-.52-.62-1.04-.92-1.56-.17-.24-.33-.48-.5-.72-.02.11-.08.29-.04.32.19.13.41.21.62.32-.06.73.07,1.36.9,1.58-.15.75-.14,1.45.72,1.8Zm157.97-229.96c-.31.23-.74.38-.92.69-2.81,4.92-4.79,10.21-6.71,15.52-.09.24,0,.53,0,.8-.45.47-1.13.87-1.32,1.43-1.19,3.49-2.56,6.95-3.32,10.53-1.62,7.6-3.5,15.14-4.49,22.88-.75,5.82-1.83,11.59-1.76,17.5.02,1.49-.37,2.97-.54,4.46-.16,1.43-.52,2.88.01,4.5,1.38-.24,2.56-.44,3.65-.63.14-.48.27-.74.28-1,.07-1.92.16-3.83.15-5.75-.08-12.21,1.34-24.28,3.46-36.26.95-5.37,2-10.76,3.94-15.91.18-.48.1-1.06.13-1.59.3-.42.74-.81.88-1.28.75-2.62,2.14-4.92,3.42-7.28,1.48-2.73,2.38-5.67,3.04-8.7.16-.16.34-.32.48-.49.03-.04-.07-.17-.11-.26l-.28.84Zm20.87-134.48c-4.29,1-8.68.86-13.04,1.02-1.65.06-3.27.23-4.75-.78-.27-.18-.83-.27-1.07-.12-1.4.87-2.93.44-4.4.58-.85.08-1.68.4-3.02.74,3.29,1.4,6.04,2.58,8.41,3.59,2.29-.52,4.15-.94,6.01-1.35,2.93-.65,5.9-1.16,8.78-1.98,1.05-.3,2.6-.04,3.05-1.61.18,0,.37-.01.55-.02-.08.04-.17.13-.23.12-.1-.02-.18-.11-.28-.17Zm-29.54,178.42c1.15-.33,1.22-1.38,1.46-2.28.69-2.64,1.26-5.32,2.03-7.95,2.26-7.66,5.42-14.87,10.75-20.96,3.42-3.91,6.81-7.84,10.19-11.78.36-.42.56-.98,1.21-2.18-3.85,1.8-7.09.96-10.53.53-1.16,2.08-2.34,4.06-3.38,6.12-1.23,2.43-2.18,5.01-3.52,7.38-2.24,3.96-3.79,8.15-4.84,12.55-.4,1.69-.49,3.38-1.46,5.04-.78,1.34-.28,3.39-.51,5.11-.37,2.84-.87,5.66-1.3,8.5-.12.45-.24.89-.36,1.34.72-.42.66-.91.26-1.42Zm102.69,91.02c.91-.43,1.56.21,2.26.58,1.46.76,2.99,1.19,4.58,1.65,3.73,1.07,7.59.87,11.34,1.55,1.31.24,2.7.04,4.14.04.49-.72,1.07-1.33,1.38-2.05,1.18-2.76,2.44-5.5,3.37-8.34.85-2.64,1.92-5.29,1.86-8.22-1.27-.14-2.43-.04-3.41-.41-3.25-1.22-6.64-1.44-10.03-1.8-6.26-.66-12.54-.82-18.8-.28-4.27.37-8.44.36-12.59-.81-1.18-.33-2.42-.44-3.62-.7-1.93-.41-3.73-.14-5.45.89,1.42,3.62,2.79,7.14,4.24,10.83,1.15.1,2.37.39,3.55.27,3.61-.36,6.64,1.06,9.64,2.77,1.54.88,3.17,1.59,4.74,2.41.96.5,1.89,1.05,2.84,1.58-.24.05-.49.1-.73.15.23-.04.47-.08.7-.12Zm191.73,36.29c-2.81,1.03-5.62,2.05-8.42,3.11-2.86,1.08-5.78,1.61-8.84,1.42-1.23-.08-2.48-.13-3.69.05-1.74.27-3.49.63-5.15,1.19-2.97.99-5.88,2.17-8.82,3.25-1.02.38-2.06.72-3.08,1.1-4.23,1.59-8.5,2.96-13.12,2.53-2.49-.23-4.87.23-7.29.81-3.05.73-6.19,1.45-9.3,1.48-5.64.06-11.16.88-16.72,1.62-1.59.21-3.24-.08-4.87-.11-1.49-.03-3.01-.24-4.46,0-1.53.26-2.98.39-4.45-.09-1.86-.61-3.47-.26-4.88,1.12-.48.47-1.15.77-1.61,1.25-2.55,2.67-5.22,5.21-8.32,7.26-.77.51-1.05,1.29-.91,2.13.15.9.5,1.76.82,2.82,3.03.13,5.87.5,8.67.32,3.93-.26,7.78-1.54,11.8-1.05.51.06,1.06-.19,1.6-.28,1.61-.28,3.22-.59,4.84-.82,2.98-.43,6-.63,8.93-1.27,7.6-1.66,15.19-3.39,22.58-5.9,2.56-.87,5.15-1.68,7.72-2.55,4.14-1.41,8.33-2.66,12.48-4.02,5.32-1.74,10.63-3.53,15.94-5.29.65-.21,1.32-.34,1.98-.54,2.59-.82,5.21-1.55,7.51-3.12,1.01-.69,2.21-1.09,3.29-1.68,1.44-.79,2.85-1.63,4.26-2.45.89-.52,1.38-1.3,1.47-2.31.65.16,1.38,1.02,1.94-.24-.68.09-1.29.18-1.91.26Zm-97.2-79.57s.02.08.02.08c.08-.62.15-1.24.22-1.81,2.13-.24,4.09.31,5.72-.72,0-3.02.18-5.9-.04-8.74-.42-5.58-.99-11.15-1.62-16.71-.3-2.67-.45-5.43-1.98-7.74-3.15,0-6.14-.11-9.12.06-1.16.07-2.38.61-3.4,1.23-2.52,1.53-5.22,2.37-8.14,2.57-1.09.07-2.2.1-3.27.29-2.4.43-4.76,1.01-6.97,2.35.13,2.27.21,4.45.38,6.62.18,2.28.1,4.6.78,6.8,2.3-.52,4.42-1.37,6.55-1.41,3.8-.06,7.35-.99,10.65-2.63,3.16-1.58,6.12-.89,9.14-.04.38.11.55.98.99,1.83-1.63,0-2.84-.06-4.04.02-1.21.08-2.6-.03-3.57.54-3.93,2.3-8.15,3.03-12.6,3.04-2.49,0-4.86.55-7.04,2.02-.57,2.61-.11,5.2-.11,7.78,0,4.63.37,9.27-.79,13.86-.47,1.83-.44,3.8-.57,5.71-.1,1.51.5,2.62,2.01,3.2,2.96,1.14,6.02,1.84,9.17,2.06,1.91.13,3.83.06,5.74.11,2.05.05,4.11.15,6.16.17,1.91.01,3.89.22,5.71-.19,2.03-.46,3.98.12,6.13.2,1.25-7.04.47-13.75-.17-20.53h-5.93Zm-15.4,210.43c.1-.78.3-1.32.22-1.81-.94-5.24-1.94-10.47-2.9-15.7-.17-.94-.29-1.89-.39-2.84-.65-5.97-.43-12.01-1.59-17.93-.47-2.41-.81-4.85-1.27-7.26-1.35-7.11-2.71-14.21-4.12-21.31-1.3-6.56-2.7-13.1-4.01-19.66-.96-4.82-1.81-9.67-2.78-14.49-.21-1.01-.76-1.96-1.17-2.98h-5.42c-1.03.95-2.21,2.08-3.45,3.15-.82.71-1.67,1.43-2.6,1.98-4.47,2.63-8.96,5.23-13.48,7.78-1.9,1.08-3.78,2.39-5.84,2.97-5.13,1.42-10.34,2.61-15.56,3.64-5.14,1.02-10.37.29-15.55.27-.8,0-1.63-.22-2.4-.46-5.53-1.69-10.62-4.19-14.69-8.34-1.71-.19-3.35-.28-4.97-.57-1.33-.24-2.7-.52-3.9-1.11-1.77-.86-3.59-1.19-5.51-1.43-4.05-.51-8.17-.91-12.1-1.93-5.68-1.48-11.22-3.47-16.81-5.27-1.56-.5-3.07-1.14-4.64-1.61-1.85-.55-2.92.04-3.37,1.9-.52,2.13-.95,4.28-1.34,6.43-.77,4.28-1.76,8.55-2.14,12.87-.45,5.06-1.26,10.02-2.36,14.96-.52,2.33-1.08,4.71-.57,7.34,2.69-.78,5.17-1.5,7.65-2.22,1.61-.47,3.21-.52,4.85-.09,1.98.52,3.98.95,5.99,1.39,2.69.59,4.72,2.5,7.17,3.57.89,2.2,1,4.51,1.05,6.84.01.55.02,1.11-.1,1.64-1.06,4.41.13,8.61.9,12.95.61-.05,1.02,0,1.37-.12,4.55-1.56,9.2-2.6,13.97-3.22,1.49-.19,2.92-.76,4.4-1.03,2.82-.52,5.64-1.19,8.49-1.38,5.87-.4,11.79-.42,17.44,1.45,4.92,1.63,9.7,3.67,14.54,5.54.12.05.23.15.34.23,4.06,3.24,8.82,5.5,12.64,9.07.68.63,1.49,1.12,2.21,1.65,2.63-.85,5.07-1.77,7.59-2.4,3.84-.96,7.77-1.58,11.6-2.58,2.67-.7,5.33-1.04,8.08-.95,2.21.07,4.43-.04,5.76,2.29.23.41.87.66,1.37.83,2.12.71,2.95,2.35,3.12,4.39.29,3.4.57,6.81.72,10.22.11,2.59.02,5.2,0,7.79-.01,1.59.81,2.71,2.24,3.07,3.69.92,7.42,1.66,11.32,2.51Zm-63.65-251.4c-1.77,1.25-3.63.98-5.56.74-2.44-.31-4.9-.44-7.36-.58-3-.17-6-.32-9-.37-2.85-.05-5.68-.44-8.57-.02-6.27.91-12.56.71-18.81-.37-3.37-.58-6.75-1.2-10.15-1.54-5.31-.53-10.67-1.38-15.96-1.1-5.32.28-10.33-.27-15.31-2.08-.58.41-1.16.76-1.68,1.18-3.12,2.5-6.61,3.7-10.64,3.3-1.01-.1-2.06.05-3.31.68,1.48,1.26,2.91,1.52,4.4,1.67,1.91.19,3.82.38,5.72.61,9.1,1.11,18.18,2.41,27.3,3.31,8.85.87,17.74,1.32,26.62,1.98.46.03.91.26,1.7.5-.67.44-.98.82-1.3.83-3.13.1-6.24.72-9.42.15-2.27-.41-4.61-.47-6.92-.65-12.55-.98-25.18-.96-37.63-3.11-6.03-1.04-12.25-1.38-17.45-5.12-2.46,3.88-4.9,16.7-4.27,21.79,3.14,0,6.3-.3,9.37.1,2.32.3,4.63.49,6.92.46,4.11-.06,8.15.17,12.25.73,4.25.58,7.91,2.19,11.35,4.43,5.66,3.68,11.7,5.78,18.53,5.42,5.08-.27,10.14.21,15.11,1.27,2.41.52,4.76,1.28,7.17,1.79,2.54.54,5.15.79,7.67,1.4,5.42,1.3,10.82,1.5,16.26.17,1.18-.29,2.44-.27,3.66-.31,4.12-.15,7.82,1.2,11.27,3.3,2.23,1.36,4.46,2.67,6.98,3.45.34.11.54.68.92,1.2-4.32.18-5.49-.07-8.21-1.5-1.82-.95-3.66-1.87-5.51-2.74-.6-.28-1.28-.58-1.92-.57-2.73.04-5.46.17-8.18.33-.95.05-1.89.34-2.84.43-7.74.67-15.33-.59-22.78-2.36-6.98-1.65-14.01-2.53-21.14-2.71-4.29-.11-8.39-1.01-12.36-2.5-1.39-.52-2.72-1.29-3.96-2.12-2.86-1.91-5.83-3.68-9.14-4.59-3.68-1.02-7.51-1.16-11.35-1.12-3.01.03-6.02-.11-9.02-.29-3.28-.2-6.54-.57-9.81-.82-1.29-.1-2.14.54-1.99,1.44.18,1.11,1.12,1.07,1.9,1.08,7.02.09,13.27,3.02,19.65,5.42,1.99.75,3.53,2.48,5.96,2.39.66-.02,1.47,1.13,2.01,1.89.46.64.52,1.55.93,2.25.46.78,1.1,1.45,1.71,2.22,2.21-.49,4.22-.89,6.2-1.39,3.36-.85,6.73-1.11,10.17-.45,1.88.36,3.8.53,5.7.79,4.47.62,8.94,1.25,13.4,1.9.21.03.39.31.59.47-.14.22-.26.62-.42.64-2.44.23-4.91.67-7.34.54-4.92-.26-9.82-.81-14.73-1.31-2.82-.28-7.42.49-10.3,1.92,1.4,1.93,2.4,4.09,2.27,6.46-.24,4.34,1.73,8.19,2.25,12.59,1.79-1.17,2.54-2.8,3.65-4.11.69-.82,1.39-1.77,2.3-2.26,5.54-3.02,11.42-3.57,17.52-2.08,2.7.66,5.2,1.7,7.11,3.85.36.41.84.7,1.22,1.1,1.05,1.1,2.32,1.38,3.76,1.11,2.29-.43,4.64-.66,6.84-1.36,3.29-1.04,6.53-2.03,10.03-1.64,4.73-1.13,9.23-.1,13.68,1.46,4.5,1.57,8.99,1.76,13.65.38,3.91-1.16,7.96-1.82,12.4-2.8.36-3.88,0-8.09-.01-12.29,0-4.21.27-8.45-1.04-12.29-8.23-2.56-16.25-4.87-24.11-7.59-4.03-1.39-8.13-1.72-12.14-1.21-4.5.58-8.98.63-13.48.77-.89.03-1.94.3-2.67-1.06.91-.32,1.75-.86,2.6-.87,3.86-.06,7.64-.57,11.39-1.41,2.43-.54,4.88-.61,7.35-.46,3.15.18,6.26.52,9.25,1.66,3.06,1.17,6.29,1.97,9.24,3.37,3.48,1.65,7.07,2.89,10.73,4.01.58.18,1.24.08,2.11.13-.08-4.82-.55-9.28-1.34-13.71-.06-.32-.49-.58-.69-.8-.26,0-.42-.04-.53,0-.37.17-.73.37-1.09.56-3.94,2.07-8.02,3.26-12.59,2.98-8.2-.51-16.43-.33-24.62.21-6.05.4-12.05.11-18.07-.21-1.77-.09-3.54-.38-5.3-.64-.52-.08-1.06-.29-1.49-.58-.29-.2-.63-.71-.56-.97.13-.46.49-.93.88-1.21.29-.21.79-.17,1.19-.15,3.01.16,6.05.15,9.03.57,6.02.85,12.01.65,18.01.06,4.64-.46,9.27-.62,13.93-.37,3.27.18,6.52-.13,9.72-.76,2.27-.45,4.49-1.15,6.73-1.74,1.56-.41,3.21-.6,4.56-1.79-.34-4.05-1.75-7.68-3.34-11.46-2.53,1.36-4.93,3.17-7.41.12Zm222.67-23.18c-.3-3.99-1.39-7.36-2.44-10.72-1.05-3.37-1.63-6.92-3.35-9.73-1.23-.11-2.15-.17-3.06-.28-2.56-.3-5.1-.78-7.67-.9-1.89-.09-3.81.41-5.71.43-4.68.05-9.28.59-13.85,1.56-2.27.48-4.58.8-6.86,1.22-3.36.62-6.72,1.23-9.99,2.26-1.95.61-3.92,1.24-5.94,1.55-2.42.38-4.88.53-7.33.59-1.19.03-1.55-.82-1.2-2.07.99-.22,1.9-.52,2.84-.6,5.07-.44,9.98-1.59,14.81-3.12.52-.16,1.04-.38,1.57-.45,6.92-.91,13.64-2.85,20.58-3.75,5.59-.73,11.11-1.22,16.72-.52,1.04.13,2.1.02,3.19.02-.61-3.12-4.7-11.73-7.68-16.27-3.63-.54-7.26-1.14-10.9-1.62-5.08-.67-10.05-.5-14.95,1.36-5.06,1.92-10.37,2.41-15.74,1.66-4.13-.57-8.21-.38-12.23.58-6.2,1.49-12.43,2.02-18.71.81-3.08-.6-5.91.03-8.85.93-6.14,1.87-12.38,3.43-18.58,5.12-1.45.39-2.93.68-4.34,1.15-3,1-6.02,1.81-9.17,2.18-.74.09-1.45.5-2.33.81,1.37,3.87,3.46,7.07,4.68,10.7,1.24,3.68,2.55,7.46,4.84,11.02,2.88-.73,5.69-1.3,8.4-2.16,3.03-.96,6.05-1.61,9.25-1.62,2.03-.01,4.05-.51,6.08-.74,2.3-.27,4.6-.57,6.91-.7,2.05-.12,4.05-.21,6.03-.95,3.07-1.14,6.23-2.08,9.37-3.02,1.66-.5,3.35-1.17,5.2-.62.12,1.24-.19,2.01-1.37,2.23-1.21.23-2.43.38-3.61.72-3.29.93-6.54,1.98-9.83,2.9-1.05.29-2.18.57-3.24.48-4.06-.36-7.84.74-11.65,1.85-1.29.37-2.68.39-4.03.55-1.76.21-3.61.14-5.28.66-3.77,1.16-7.45,2.61-11.13,3.93,1.2,8.89,3.32,19.29,4.61,22.54.47.08,1.01.29,1.53.23,4.48-.47,9.02-.68,13.42-1.57,6.98-1.42,13.74-3.73,20.22-6.67,3.33-1.51,6.74-2.14,10.32-2.28,3.44-.13,6.75-.92,10.06-1.88,7.61-2.22,15.27-4.32,22.94-6.33,3.03-.8,6.18-1.17,9.25-1.83,5.95-1.29,11.97-1.03,17.97-.7,3.25.17,6.49.67,10.24,1.07Zm-29.67,197.86c7.88-1.94,15.18-3.73,22.47-5.56,1.61-.4,2.92-.43,3.8,1.33.25.5,1.04.82,1.65,1.01.9.28,1.88.3,2.8.55,1.84.51,3.68,1.04,5.46,1.7,1.39.52,2.13,1.56,2.06,3.18-.12,2.73-.11,5.47-.12,8.2-.02,3.53,0,7.05,0,10.87,5.22-.29,9.76,2.97,15.28,2.98-.14-1.58-.2-2.92-.38-4.24-.91-6.91-1.85-13.81-2.77-20.72-.05-.41-.03-.82-.07-1.23-.69-6.1-1.14-12.25-2.15-18.3-1.66-9.97-3.71-19.88-5.55-29.82-.37-2.01-.53-4.07-.8-6.1-.12-.93-.28-1.86-.44-2.78-.44-2.55-.9-5.1-1.34-7.65-.14-.79-.24-1.58-.39-2.55-2.68-.78-5.27-1.53-8.06-2.34-2.49,1.45-5.07,2.98-7.67,4.47-3.21,1.83-6.38,3.73-9.68,5.39-3.31,1.66-6.42,3.61-9.34,5.87-.96.75-1.97,1.55-3.09,1.97-5.62,2.11-11.25,4.18-16.94,6.09-2.86.96-5.78,1.67-8.3,3.44-.55.39-1.23.6-1.86.87-5.9,2.52-12.02,4.47-18.04,6.65-5.91,2.14-11.85,4.2-17.79,6.24-2.71.93-5.46,1.73-8.2,2.6-1.27.4-2.53.81-3.83,1.22.1,2.83.23,5.42.28,8.01.05,2.55.01,5.1.01,7.75,1.75.04,3.16-.19,4.62-.75,4.24-1.64,8.58-2.61,13.22-2.3,2.56.17,5.17-.37,7.76-.6,1.35-.12,2.71-.37,4.06-.37,4.78-.03,9.6-.35,14.26,1.17.38.13.81.11,1.22.16,2.74.32,5.37.96,7.81,2.34,1.19.67,2.45,1.31,3.76,1.64,3.26.82,5.85,2.85,8.63,4.51,2.69,1.61,5.22,3.48,7.66,5.12Zm-235.89-319.99c-1.33.47-2.67.59-3.1,1.96-.36,1.15-1.16,1.37-2.17,1.48-.66.07-1.39.18-1.94.51-2.41,1.46-5.26,1.99-7.47,3.94-1.5,1.32-3.5,2.13-5.34,3.02-3.19,1.53-6.42,2.99-9.68,4.36-1.88.79-3.83,1.45-5.79,2.03-3.14.93-6.31,1.76-9.46,2.62-1.71.47-3.4,1.07-5.15,1.36-2.82.47-5.61.96-8.23,2.19-1.1.51-2.35.75-3.55.99-4.53.92-9.1,1.7-13.61,2.72-2.29.52-4.54.83-6.89.82-5.6-.02-11.2,1.05-16.79-.13-3.03.67-5.96-.22-8.92-.59-.68-.08-1.36-.24-2.04-.24-5.75.02-11.49.11-17.24.09-3.14,0-6.32.06-9.42-.32-9.22-1.14-18.51-1.82-27.63-3.71-5.36-1.11-10.71-2.28-16.1-3.21-6.76-1.17-13.3-3.13-19.83-5.13-4.31-1.32-8.52-2.96-12.75-4.55-3.83-1.43-7.67-2.87-11.42-4.51-3.25-1.42-6.37-3.13-9.76-4.82,0,2.69-1.55,4.66-2.66,6.81-.95,1.85-1.67,3.7-1.37,6.03,3.09,1.77,6.27,3.33,9.53,4.74,4.65,2.01,9.34,3.92,13.99,5.93,1.63.71,3.11,1.75,4.75,2.39,4.31,1.7,8.75,3.11,13.01,4.92,6.19,2.62,12.54,4.71,18.92,6.78,4.3,1.39,8.65,2.45,13.07,3.38,3.85.81,7.97.47,11.57,2.47.22.12.54.13.8.09,3.74-.46,7.33.69,10.99,1,3.81.33,7.6,1.01,11.42,1.26,2.33.16,4.64.27,6.9.92.51.15,1.1.33,1.57.2,2.97-.84,5.97-.42,8.97-.45,3.83-.03,7.61-.64,11.41-1.02,5.31-.53,10.63-.86,15.87-1.93.53-.11,1.09-.04,1.64-.09,4.36-.4,8.74-.65,12.91-2.19.75-.28,1.61-.25,2.42-.39,2.15-.38,4.3-.73,6.43-1.19,1.87-.4,3.74-.82,5.56-1.39,4.95-1.56,10.25-1.87,15-4.18.84-.41,1.84-.47,2.77-.68,3.97-.91,8.02-1.6,11.37-4.21.41-.32,1-.54,1.52-.56,2.84-.11,5.25-1.43,7.69-2.64,4.14-2.06,8.22-4.24,12.25-6.52.83-.47,1.7-.91,2.44-1.51,2.73-2.19,5.31-4.57,8.56-5.89-.09-5.12-2.49-9.03-5.01-13Zm-110.5,298.08c0-2.55.06-4.59-.01-6.63-.14-3.51-.14-7.05-.63-10.51-.29-2.05-.45-4.05-.35-6.1.28-5.6.51-11.2.78-16.8.52-10.82-.71-21.59-1-32.38-.2-7.37-.88-14.71-.74-22.1.13-6.68,0-13.39-.53-20.05-.51-6.4-1.64-12.75-2.57-19.1-.64-4.33-1.61-8.62-2.07-12.97-.48-4.6-.7-9.23-1.55-13.8-.32-1.74-.57-3.51-.68-5.27-.41-6.41-.79-12.82-1.1-19.23-.4-8.34-.53-16.68.47-25,.53-4.48,1.06-8.95,1.61-13.43.78-6.38.79-12.79.78-19.2,0-.92-.4-1.84-.67-3-3.31-.22-6.57-.47-9.83-.64-.76-.04-1.53.16-2.11.22-.67,8.86-1.24,17.45-1.98,26.03-.66,7.62-1.5,15.23-2.29,22.84-.18,1.76-.57,3.49-.74,5.25-.28,3-.37,6.01-.71,9-.59,5.16-.99,10.31-.98,15.52,0,2.48.91,5.17-.79,7.54-.15.21-.03.84.18,1.07.88.94.53,2.07.61,3.13.47,6.41.85,12.82,1.39,19.23.53,6.26,1.17,12.52,1.86,18.77.98,8.84,1.99,17.67,3.09,26.49.89,7.18,2.07,14.33,2.84,21.52,1.14,10.6,2.06,21.22,3,31.83.1,1.17-.16,2.42-.48,3.57-.15.56-.44,1.09.1,1.4,1.32.76,1.2,2.05,1.35,3.24.37,3.12.41,6.3,1.09,9.34,1.02,4.58,1.25,9.18,1.4,13.82.07,2.31.16,4.63.92,7.02.88.06,1.68.22,2.47.16,2.57-.2,5.13-.49,7.89-.76Zm116.21-241.05c2,1.14,3.54,2,5.07,2.88,1.06.61,2.19,1.16,3.16,1.9,3.14,2.42,6.22,4.91,9.31,7.4,1.7,1.37,3.47,2.68,5.02,4.21,4.19,4.12,8.51,8.13,12.27,12.66.78.94,1.57,1.88,2.32,2.85,2.01,2.59,4.3,5.02,5.92,7.84,2.45,4.25,4.21,8.88,6.88,13.04.29.45.34,1.04.54,1.55,1.63,4.21,2.89,8.54,4.9,12.61,2.93,5.91,4.77,12.2,6.05,18.65,1.47,7.38,3.01,14.74,4.34,22.14.92,5.1,1.91,10.21,2.03,15.43.05,2.32.25,4.66.64,6.95,1.03,6.13.91,12.26.28,18.41-.08.81-.14,1.64-.11,2.45.2,5.28-1.17,10.34-2.72,15.25-2.01,6.38-4.66,12.57-7.15,18.79-.81,2.02-1.98,3.89-3,5.82-1.6,3.02-3.23,6.02-4.84,9.04-.39.72-.65,1.52-1.09,2.21-2.52,3.9-4.99,7.84-7.66,11.64-1.64,2.34-3.76,4.34-5.37,6.69-3.28,4.77-7.99,7.95-12.68,10.91-5.4,3.41-11.36,5.96-17.1,8.82-1.44.72-3,1.18-4.39,1.72,9.22,2.13,18.25,1.43,26.95-2.96,6.03-3.05,11.71-6.5,16.32-11.55,2.57-2.81,4.83-5.93,7.88-8.29.41-.32.74-.83.96-1.32.79-1.79,2.08-3.18,3.41-4.58.92-.97,1.52-2.25,2.22-3.43.42-.7.65-1.53,1.13-2.18,3.35-4.55,5.7-9.6,7.97-14.75,3.27-7.41,5.93-15.03,8.37-22.71,1.27-4.01,2.47-8.08,2.89-12.34.56-5.71,1.47-11.39,2.16-17.09.36-2.98,1-6.01.78-8.96-.31-4.26.12-8.47,0-12.71-.02-.82.06-1.65-.03-2.46-.83-7.33-.79-14.77-2.49-21.99-1.22-5.18-2.67-10.31-4.04-15.46-.1-.39-.41-.72-.55-1.1-1.39-3.71-3.05-7.32-4.39-11.02-1.21-3.35-2.61-6.58-4.1-9.79-.57-1.23-1.47-2.33-1.95-3.58-1.68-4.39-4.2-8.28-6.88-12.09-2.59-3.69-5.04-7.51-7.87-11.01-5.33-6.59-11.74-12.17-17.49-18.39-1.46-1.58-3.32-2.8-4.96-4.21-6.6-5.67-14.37-9.35-22.22-13.29-.88,1.05-1.63,2.22-2.65,3.06-1.02.84-2.32,1.36-4.06,2.33Zm-184.28-13.28c-.4,1.55-.77,2.71-.98,3.89-1.34,7.26-2.6,14.53-3.99,21.79-.57,2.98-.72,5.96-.77,8.98-.13,8.62-.22,17.25-1.26,25.83-.46,3.8-.85,7.63-.96,11.45-.14,4.91.05,9.83.05,14.75,0,7.52,0,15.05-.11,22.57-.05,3.28-.24,6.57-.59,9.83-.54,5.02-1.49,10-1.42,15.09.09,6.15-.01,12.31.03,18.47,0,1.22.22,2.45.47,3.65,1.57,7.5,2.93,15.04,3.81,22.66.77,6.69,2.07,13.19,4.65,19.48,1.39,3.38,2.18,7.08,2.77,10.71.57,3.46,1.67,6.93.85,10.52-.08.36.13.79.21,1.18,1.43,6.54,2.16,13.19,3.01,19.82.43,3.39.68,6.81,1.08,10.21.11.91.47,1.8.71,2.68,3.84,1.04,7.57.3,11.22.73,1.22.14,2.46.1,3.69.09.23,0,.47-.24.82-.44.38-1.72-.26-3.43-.49-5.15-.53-3.78-1.35-7.54-1.69-11.33-.52-5.76-1.58-11.36-3.71-16.75-.45-1.13-.85-2.35-.92-3.55-.23-4.09-.87-8.15-.59-12.29.25-3.73-.59-7.35-2.02-10.81-.41-1.01-.85-2.03-1.09-3.08-1.19-5.34-1.96-10.74-2.22-16.2-.14-2.87-.21-5.75-.16-8.63.1-5.1-.72-10.1-1.78-15.02-.93-4.33-1.41-8.59-1.02-13,.22-2.56.13-5.17-.03-7.74-.32-5.18-.82-10.35-1.19-15.53-.34-4.77-.64-9.54-.92-14.31-.25-4.23-.5-8.46-.61-12.7-.04-1.47.49-2.96.46-4.43-.03-1.47-.46-2.92-.63-4.39-.08-.67.08-1.36.09-2.05.01-5.48-.08-10.94-.72-16.4-.61-5.21-.3-10.37,1.74-15.32.52-1.27.96-2.57,1.49-3.83,1.13-2.69,1.76-5.46,1.69-8.39-.06-2.88,0-5.75-.12-8.63-.25-6.18-.1-12.29,2.17-18.18.37-.97.23-2.13.34-3.32-3.74-.95-7.3-1.86-11.37-2.9Zm87.8,252.09c0-1.45.05-2.39,0-3.33-.21-3.68-.25-7.39-.73-11.04-.94-7.08-.64-14.2-.78-21.3-.2-9.98.09-19.97.11-29.95.01-4.51.08-9.04-1.04-13.47-1.38-5.45-1.77-11.04-2.5-16.59-.52-3.93-1.08-7.86-1.84-11.74-1.29-6.58-2.51-13.17-2.94-19.87-.32-4.9-.38-9.78-.06-14.71.24-3.67.8-7.3,1.07-10.96.4-5.44,1.37-10.85,2.09-16.27.22-1.64.1-3.24-.26-4.88-.85-3.88-1.45-7.8-1.42-11.79.04-4.78-.02-9.57,0-14.35.02-4.37.18-8.72-.44-13.1-.5-3.5-.46-7.08-.47-10.63,0-3.03-.24-6-.84-8.97-.62-3.08-1.05-6.19-1.61-9.28-.11-.61-.48-1.18-.75-1.83-4.06.79-8.06.07-11.92.93-.14.58-.29.96-.32,1.35-.35,5.69.71,11.45-.78,17.09-.06.23.18.53.17.79-.02,1.36.05,2.74-.14,4.08-1.6,11.14-2.15,22.33-1.6,33.57.28,5.6.71,11.2,1.12,16.79.25,3.41.55,6.81.96,10.2.39,3.26.94,6.5,1.4,9.75.96,6.77,1.8,13.56,2.9,20.31,1.48,9.05,2.61,18.13,2.68,27.32.06,7.67.08,15.33.22,23,.09,5.06.33,10.11.54,15.17.08,1.91.27,3.82.39,5.72.22,3.68.51,7.37.62,11.05.2,7.12-.54,14.21-.98,21.31-.19,3.12-.29,6.26-.15,9.39.22,5.05.65,10.1,1.04,15.14.08,1.04.38,2.06.64,3.36,5.26-.76,10.24-1.48,15.65-2.26Zm195.74-7.96c.8-.76,1.7-1.58,2.57-2.44,2.9-2.88,6.02-5.59,8.64-8.72,4.22-5.03,8.19-10.27,12.1-15.54,2.19-2.96,4.19-6.11,5.48-9.58,2.76-7.43,6.21-14.59,8.48-22.2.39-1.31.95-2.58,1.19-3.92,1.03-5.77,2.89-11.4,3.02-17.33.02-.67.33-1.33.41-2.01.43-3.67,1.14-7.34,1.18-11.01.06-7.52-.2-15.05-.41-22.57-.17-5.73-.5-11.46-1.52-17.13-.58-3.22-.89-6.5-1.33-9.75-.22-1.62-.41-3.25-.7-4.87-.32-1.75-.64-3.5-1.13-5.2-1.14-3.95-2.1-7.93-2.47-12.03-.04-.4-.24-.78-.37-1.17-2.75-8.45-5.9-16.73-9.81-24.74-2.22-4.56-4.66-8.94-7.49-13.14-1.68-2.5-3.54-4.85-5.31-7.28-2.28-3.12-4.77-6.01-7.6-8.6-5.14-4.7-10.35-9.35-15.98-13.45-7.07-5.15-14.24-10.14-22.55-13.22-5.5-2.04-11.18-3.47-17.05-5.53-.04,1.28-1.86.79-1.45,2.27,3.13,1.7,6.23,3.41,9.35,5.08.72.39,1.49.72,2.26.97,6.68,2.18,12.08,6.38,16.8,11.35,3.84,4.04,7.09,8.64,10.68,12.94,4.02,4.82,8.69,9.1,11.94,14.58,1.18,1.98,2.87,3.66,4.09,5.62,2.39,3.83,4.75,7.69,6.88,11.66,2.72,5.07,4.92,10.36,5.92,16.08.14.8.44,1.58.74,2.34,3.6,9.21,5.73,18.84,7.89,28.43,1.77,7.86,2.96,15.84,3.04,23.94,0,.82.2,1.63.26,2.45.19,2.72.44,5.45.52,8.17.1,3.55-.16,7.13.16,10.65.26,2.87.46,5.72.1,8.56-.7,5.41-1.28,10.85-2.35,16.2-1.01,5.08-2.53,10.07-3.9,15.08-.94,3.42-1.72,6.92-3.07,10.19-2.08,5.04-4.53,9.92-6.9,14.83-2.67,5.55-5.86,10.81-9.55,15.72-2.29,3.05-4.39,6.27-7.21,8.92-.91.85-2.26,1.56-2.44,3.34,1.33-.22,2.63-.82,3.61-.49,1.2.4,2.12,1.6,3.27,2.53Zm-253.88-238.13c-.62,4.33-1.29,8.24-1.72,12.18-.85,7.62-1.52,15.24-1.97,22.9-.45,7.69-.35,15.28.94,22.87.5,2.96.82,5.98.86,8.97.11,8.34.04,16.68.04,25.1-.37.35-.82.78-1.08,1.02.53.87,1.21,1.5,1.28,2.18.33,3.26.52,6.53.71,9.8.1,1.77.16,3.55.11,5.33-.2,6.56-.51,13.12-.65,19.68-.12,5.47-.03,10.94-.06,16.41-.03,5.74.01,11.49-.19,17.22-.17,4.89.9,9.48,2.55,14.02.69,1.92,1.3,3.92,1.57,5.93.81,5.95,1.45,11.93,2.14,17.9.52,4.49.8,9.01,1.55,13.46,1.21,7.15,2.34,14.29,2.86,21.53.25,3.41.6,6.81.97,10.21.19,1.79.82,2.4,2.65,2.5,2.05.11,4.1.09,6.16.07,1.73-.02,3.47-.13,5.32-.2-.13-2.62-.15-4.94-.36-7.24-.46-4.9-1.02-9.79-1.56-14.67-.12-1.09-.62-2.2-.46-3.23.17-1.09.91-2.09,1.37-3.07-2.2-2.16-2.21-2.17-2.4-4.65-.24-3.13-.43-6.27-.69-9.39-.45-5.42-.91-10.85-1.42-16.27-.17-1.77-.54-3.52-.74-5.28-.19-1.63-.72-3.38-.31-4.87.55-2.01-.91-3.35-.95-5.07,0-.14-.04-.27-.05-.41-1.07-8.82-2.2-17.64-3.2-26.47-.75-6.65-1.37-13.32-1.97-19.99-.87-9.67-1.69-19.34-2.46-29.02-.11-1.44.02-2.85.57-4.36.48-1.31-1.01-2.85-.94-4.56.24-5.33.13-10.67.45-15.99.27-4.36,1-8.68,1.48-13.03.95-8.69,1.75-17.39,2.81-26.07,1.22-10.05,1.87-20.14,2.24-30.25.04-1.04-.18-2.1-.29-3.29-5.04-.78-9.83-1.73-15.13-1.91Zm-76.9,235.81c-.25-1.26-.34-2.08-.58-2.84-1.39-4.31-2.29-8.71-3.05-13.17-.55-3.23-1.43-6.4-2.15-9.6-.21-.93-.5-1.86-.56-2.8-.2-3-.3-6-.46-9-.21-3.96-.18-7.95-.69-11.87-1.04-7.87-1.48-15.77-2.1-23.67-.45-5.72-.66-11.45-.95-17.18-.17-3.27-.73-6.51-1.01-9.76-.53-6.15.12-12.25,2.25-18.12.89-2.44,1.69-4.92,2.39-7.42.33-1.17.65-2.48.43-3.63-.97-5.05-.58-10.07-.17-15.12.49-6,.72-12.01,1.17-18.01.34-4.52.2-9-.23-13.5-.3-3.12-.81-6.31-.44-9.38.78-6.51,1.83-13.01,3.22-19.41,1.53-7.06,3.8-13.95,4.5-21.2.31-3.25,1.15-6.44,1.74-9.66.81-4.44,1.59-8.88,2.4-13.32.51-2.79,1.04-5.57,1.57-8.44-1.2-.62-2.13-1.17-3.12-1.6-1.86-.81-3.76-1.56-5.85-2.42-.43.96-.93,1.76-1.14,2.64-.59,2.38-1.11,4.78-1.58,7.19-.6,3.08-1.15,6.18-1.69,9.27-.42,2.42-.56,4.92-1.24,7.26-2.56,8.82-4.17,17.84-6.05,26.81-.76,3.61-1.35,7.25-1.9,10.9-.71,4.73-1.14,9.5-1.99,14.2-.92,5.11-2.18,10.16-3.29,15.24-.38,1.74-.85,3.46-1.15,5.21-.3,1.75-.07,3.69-.74,5.26-.77,1.8-.27,3.45-.3,5.15-.15,9.29-.31,18.58.05,27.87.21,5.47.31,10.95.73,16.4.35,4.52.33,9.03.12,13.54-.21,4.65-.52,9.29-.8,13.93-.04.68-.13,1.37-.28,2.03-.65,2.83-.78,5.69-.65,8.57.21,4.91-.13,9.83.15,14.75.11,1.92.21,3.8.73,5.67,2.61,9.35,5.17,18.71,7.75,28.06.4,1.45.64,2.97,1.25,4.33,1.99,4.37,3.82,8.78,4.88,13.48.14.62.51,1.48,1,1.69,2.34.99,4.66,2.24,7.86,1.71Zm495.18,38.66c-.31-.03-.6-.14-.84-.07-4.6,1.32-9.2,2.64-13.79,4.01-.78.23-1.58.54-2.24,1-2.11,1.44-4.47,2.03-6.95,2.25-2.06.18-3.98.75-5.92,1.52-2.52,1.01-5.21,1.61-7.84,2.33-2.5.68-5.07,1.16-7.53,1.96-6.24,2.03-12.44,4.18-18.65,6.29-3.1,1.06-6.3,1.91-9.26,3.27-3.25,1.5-6.67,2.41-10.06,3.41-10.86,3.2-21.74,6.37-32.68,9.3-9.89,2.65-19.62,5.91-29.69,7.88-1.09.21-2.12.53-2.68,1.64,1.08,6.3,2.39,12.55,4.51,18.77.96-.08,1.91-.06,2.82-.24,3.22-.62,6.4-1.47,9.64-1.94,6.53-.95,12.8-2.89,19.09-4.72,2.1-.61,4.19-1.29,6.3-1.86,5.81-1.57,11.69-2.88,17.42-4.7,7.43-2.36,14.74-5.07,22.07-7.73,2.69-.98,5.22-2.39,7.92-3.34,7.09-2.5,14.22-4.92,21.37-7.25,3.37-1.1,6.83-1.9,10.24-2.86,1.71-.48,3.41-1,5.1-1.53,3.13-.98,6.23-2.1,9.39-2.96,2.9-.79,5.88-1.25,8.8-1.97,1.43-.35,2.8-.95,4.39-1.5-.4-.81-.78-1.36-.95-1.97-.21-.78-.47-1.66-.3-2.41,1.01-4.33.29-8.75.81-13.1.14-1.2.24-2.43-.48-3.51ZM233.91,295.69c-3.22,8.84-3.83,17.67-3.59,26.6.12,4.43-.58,8.69-2.04,12.89-2.07,5.97-3.35,12.02-2.34,18.48.65,4.15.53,8.43.66,12.66.09,2.86-.06,5.73.03,8.59.22,6.97.49,13.94.8,20.9.25,5.46.27,10.96.99,16.37.83,6.28.99,12.55.99,18.84,0,4.82.5,9.56,1.57,14.25.77,3.35.96,6.76,1.05,10.19.12,4.92.15,9.87.64,14.76.47,4.74.68,9.57,2.41,14.12,1.83,4.79,2.65,9.72,2.6,14.87-.05,4.65.4,9.29,2.05,13.72,1.64,4.39,2.44,8.95,2.91,13.61.42,4.22.86,8.45,1.72,12.59.48,2.33.29,4.93,1.87,7.08,1.86.07,3.63.21,5.4.19.75,0,1.5-.34,2.36-.55-.35-3.75-.68-7.28-1.02-10.82-1.03-10.49-3.59-20.76-4.21-31.31-.29-4.91-.91-9.79-1.34-14.69-.4-4.65-1.07-9.27-2.89-13.59-1.84-4.38-2.54-8.91-2.46-13.6.1-5.6.24-11.2.35-16.79.07-3.69-.72-7.34-.33-11.05.2-1.9.19-3.83.3-5.74.3-5.46.32-10.92.46-16.38.1-3.83.23-7.63-.08-11.46-.36-4.36-.73-8.73-.8-13.11-.12-7.1.13-14.21-.02-21.31-.09-4.5-.44-9.02-1-13.48-.73-5.86-1.06-11.71-.71-17.59.32-5.33.71-10.64,1.2-15.96.59-6.41,1.66-12.73,2.4-19.11.09-.77.01-1.56.01-2.34-3.37-.96-6.44-2.19-9.93-1.84Zm-38.73-11.94c-.97,1.3-.84,2.48-.8,3.73.12,3.41-.04,6.8-.93,10.15-1.37,5.15-2.75,10.31-3.87,15.52-2.55,11.92-4.14,23.96-4.62,36.16-.18,4.63-.81,9.26-2.09,13.78-.75,2.62-1.39,5.3-1.75,8-.87,6.5-1.57,13.02-2.3,19.54-.47,4.21-.93,8.41-1.3,12.63-.19,2.18-.16,4.38-.24,6.56-.13,3.55-.58,7.12-.33,10.64.53,7.5.74,15.03,2.06,22.47.55,3.08.87,6.28.69,9.4-.3,5.1.37,10.1.86,15.13.56,5.72,1.31,11.41,1.2,17.19-.13,7.12-.11,14.24-.03,21.35.02,2.04.28,4.11.75,6.09,1.35,5.58,2.74,11.16,4.36,16.66,1.04,3.51,2.51,6.89,3.76,10.26,3.34,1.11,6.47,1.84,9.89,1.26-.05-.86-.04-1.54-.14-2.21-1.15-7.16-2.37-14.31-3.47-21.47-.56-3.65-1.05-7.32-1.32-11-.49-6.54-.78-13.1-1.17-19.65-.19-3.28-.41-6.55-.63-9.83-.29-4.5-.59-9.01-.88-13.51-.42-6.4-.83-12.81-1.26-19.21-.39-5.87-.72-11.74-1.23-17.59-.47-5.44-1.65-10.83-.79-16.34.17-1.07.04-2.19-.01-3.28-.18-3.41-.47-6.82-.59-10.24-.13-3.82-.22-7.63.27-11.47.67-5.24,2.56-10.08,4.52-14.88,1.75-4.26,2.63-8.59,2.69-13.17.12-8.74-.07-17.49.34-26.24.49-10.39,1.35-20.72,3.02-30.98.61-3.78,1.21-7.56,1.73-11.35.2-1.43-.21-2.14-1.47-2.6-1.64-.6-3.34-1.03-4.94-1.51Zm468.99,152.78c2.71-9.24,3.1-18.57,2.83-28.34-1.35.16-2.43.15-3.42.43-1.58.45-3.14.99-4.63,1.67-4.91,2.24-10.1,2.66-15.28,1.8-3.66-.61-7.03-.39-10.44.89-2.57.96-5.2,1.7-7.98,1.77-.81.02-1.62.25-2.41.47-5.84,1.62-11.8,2.14-17.82,1.78-2.35-.14-4.28.44-6.01,2.01-3.51,3.18-7.54,5.41-12.2,6.45-1.33.3-2.62.79-3.94,1.14-1.06.28-2.12.56-3.2.7-3.39.43-6.8.71-10.18,1.2-2.06.29-4.11.46-6.12-.08-2.87-.77-5.67-.66-8.52.09-.92.24-1.91.19-2.85.37-.77.15-1.51.43-2.34.68.02,6.01-.36,11.85.12,17.72,2.25.44,4.26.14,6.28-.17,2.97-.46,5.9-.9,8.96-.46,1.83.26,3.79-.26,5.68-.46,3.4-.36,6.81-.88,10.14.47,4.83,1.97,9.83,2.19,14.95,1.59,2.45-.29,4.92-.58,7.37-.52,6.97.18,13.58-1.29,19.92-4.09,4.16-1.84,8.54-2.92,13.03-3.44,5.55-.64,11.09-1.29,16.7-1.43,3.75-.09,7.46-1.42,11.38-2.24Zm-443.17,107.87c.01-1.45.15-2.66,0-3.83-.47-3.79-1.09-7.56-1.58-11.35-.79-6.09-1.49-12.19-2.3-18.27-.99-7.47-2.04-14.92-5.06-21.94-1.02-2.37-1.89-4.87-2.39-7.4-.93-4.69-1.56-9.45-2.28-14.18-.88-5.81-1.61-11.65-2.65-17.43-.51-2.83-.91-5.66-.92-8.52-.01-5.88.03-11.76.22-17.64.1-3,.55-6,.87-8.99.47-4.49,1.33-8.98,1.36-13.47.06-9.16.67-18.33-.37-27.48-.11-.95-.09-1.92-.04-2.87.18-3.41.39-6.83.59-10.24.04-.68.07-1.37.18-2.04,1.73-10.57,2.01-21.21,1.91-31.89-.02-2.32-.13-4.69.25-6.96.99-5.93,2.26-11.82,3.37-17.73.7-3.74,1.31-7.49,1.94-11.12-3.96-2.21-4.56-2.4-8.06-2.61-.15.59-.38,1.22-.46,1.86-1.24,9.35-3.02,18.63-3.62,28.06-.3,4.64-.96,9.25-1.15,13.89-.23,5.47-.17,10.94-.18,16.42-.01,8.65-.29,17.19-4.18,25.27-1.83,3.79-2.93,7.99-3.22,12.26-.34,5.05-.37,10.11-.1,15.18.17,3.27.12,6.56.19,9.83.08,3.56.1,7.11.3,10.66.13,2.32.64,4.61.8,6.93.77,11.04,1.5,22.09,2.21,33.13.11,1.77-.26,3.6.08,5.31,1.16,5.81.68,11.72,1.42,17.56.62,4.87.44,9.83.85,14.72.94,11.18,1.83,22.37,4.25,33.35.67,3.02.73,6.21,2.01,9.07,2.72.59,5.25,1.25,7.81,1.65,2.53.4,5.1.53,7.96.81Zm321.22-61.44c3.31-1.12,5.88-2.03,8.46-2.87,2.34-.76,4.68-1.49,7.04-2.18,2.88-.84,5.63-2.06,8.64-2.53,3.41-.54,6.81-.53,10.23-.54,4.1-.01,8.2-.06,12.29-.29,3.14-.17,6.25-.71,9.38-.98,3.44-.29,6.75-.95,9.91-2.4,5.83-2.67,11.92-3.76,18.35-3.17,6.03.55,12.05.15,17.87-1.64,3.52-1.08,7.05-1.97,10.93-1.91,2.48-7.21,4.98-14.29,7.29-21.43.41-1.28,1.01-2.75.52-4.27-2.44.58-4.65,1.32-6.92,1.6-6.78.82-13.57,1.57-20.37,2.12-3.45.28-6.77.76-9.95,2.17-1.5.67-3.04,1.25-4.59,1.78-4.93,1.67-9.92,2.96-15.17,3.15-3.27.12-6.56.36-9.8.85-5.65.85-11.16.68-16.56-1.37-1.25-.47-2.74-.98-3.97-.72-4.86,1.01-9.75,1.1-14.67,1.33-3.92.18-7.8,1.13-12.04,1.79-.23,1.08-.59,2.39-.77,3.71-.45,3.38-.76,6.79-1.85,10.05-.13.38-.1.81-.13,1.22-.35,3.82-.99,7.57-2.49,11.15-.62,1.48-.94,3.08-1.62,5.36Zm-166.2-280.18c-.83.29-1.36.42-1.83.66-3.68,1.82-7.33,3.69-11.02,5.49-4.29,2.09-8.43,4.54-13.17,5.58-4.53.99-9.04,2.12-13.58,3.07-2.53.53-5.1.95-7.68,1.23-5.03.54-10.07.85-15.01,2.19-2.6.7-5.39.73-8.1,1.08-2.3.29-4.59.69-6.89.88-3.68.31-7.27,1.43-11.01,1.14-1.63-.12-3.28-.03-4.92-.14-3.95-.25-7.95.49-11.85-.74-.62-.2-1.36-.02-2.04-.03-2.73-.06-5.49.09-8.19-.25-3.82-.49-7.61-.74-11.45-.58-.94.04-1.9-.15-2.84-.27-2.84-.39-5.67-1-8.52-1.15-4.25-.22-8.42-.84-12.63-1.39-6.3-.82-12.29-2.53-18.04-5.2-.85-.39-1.81-.64-2.74-.77-4.1-.57-8.07-1.76-11.76-3.5-3.6-1.7-7.35-1.88-11.06-2.36-1.57,2.89-1.58,2.88-4.57,5.12-.67.5-1.16,1.16-.78,2.33.64.41,1.38,1.03,2.23,1.42,4.23,1.93,8.45,3.89,12.75,5.67,7.85,3.26,16.05,5.49,24.15,8.02.52.16,1.07.19,1.61.31,2.53.53,5.14.83,7.58,1.65,6.28,2.11,12.8,3.11,19.3,3.87,7.99.93,16.02,1.77,24.09,1.79,5.06.01,10.13.35,15.19.28,6.43-.1,12.86-.44,19.29-.75,1.91-.09,3.83-.3,5.7-.67,4.69-.94,9.44-1.6,14.02-3.08,2.07-.67,4.32-.75,6.4-1.38,4.05-1.23,8.04-2.67,12.06-4,2.08-.69,4.21-1.21,6.25-2,3.56-1.39,7.02-3.03,10.59-4.38,6.03-2.27,11.91-4.83,17.42-8.21,1.54-.95,2.91-1.99,4.13-3.48-1.07-2.33-1.34-4.98-3.09-7.43Zm-194.16,75.32c-.63,2.83-1.21,5.21-1.68,7.61-.52,2.68-.89,5.39-1.41,8.07-1.24,6.31-2.32,12.65-2.84,19.07-.04.54.05,1.11-.07,1.64-1.06,4.52-2.01,9.07-3.28,13.53-1.88,6.62-2.53,13.44-3.5,20.21-.32,2.27-.2,4.59-.02,6.92.39,5.04.52,10.11.58,15.16.05,3.42-.17,6.84-.31,10.26-.09,2.32-.23,4.64-.37,6.96-.32,5.18-.87,10.35-.32,15.56.32,3.02-.12,5.96-1.25,8.85-2.04,5.24-3.42,10.65-3.59,16.32-.07,2.33-.13,4.64.47,6.94.27,1.05.34,2.17.38,3.26.2,5.05.28,10.11.54,15.15.23,4.5.66,9,.95,13.5.12,1.77-.09,3.57.17,5.31,1.26,8.29,1.39,16.63,1.6,24.99.07,2.98.28,5.96.95,8.92,1.19,5.33,1.97,10.76,3.15,16.09.97,4.39,2.28,8.7,3.38,12.83,3.93,1.73,8.08,2.63,10.64,2.31-.69-1.97-1.28-3.93-2.07-5.81-2.5-5.97-3.52-12.32-4.94-18.56-1.69-7.42-1.33-14.98-1.12-22.5.18-6.71-.08-13.39-.73-20.06-.59-5.98-1.59-11.94-1.23-17.98.23-3.86-.19-7.65-.93-11.43-1.44-7.29-1.48-14.69-1.86-22.07-.12-2.32-.46-4.66-.27-6.96.45-5.59,1.14-11.15,1.75-16.72.1-.95.28-1.9.37-2.85.68-6.67,1.23-13.35,2.07-20,.42-3.38,1.3-6.71,2.07-10.03.9-3.87,1.67-7.73,1.7-11.75.03-4.65.26-9.32.69-13.95.4-4.36,1.29-8.66,1.76-13.01.89-8.33,3-16.39,5.39-24.36,1.6-5.35,1.69-10.77,1.72-16.24,0-1.06-.54-1.83-1.51-2.24-2.12-.9-4.26-1.78-7-2.92Zm-25.16-12.77c-.29.56-.51.89-.64,1.26-2.5,6.93-4.05,14.2-7.32,20.87-.36.73-.53,1.55-.72,2.35-.69,2.91-1.24,5.87-2.06,8.75-1.44,5-2.73,10.02-3.58,15.16-1.27,7.68-2.66,15.35-3.37,23.12-.51,5.57-1.21,11.12-1.84,16.67-.31,2.71-.69,5.41-.95,8.13-.17,1.76-.16,3.54-.28,5.31-.12,1.61-.53,3.23-.42,4.82.12,1.73.25,3.44.23,5.19-.09,5.55-.8,11.1-.3,16.66.18,2.03-.54,3.99-.33,6.04.21,2.03.26,4.09.23,6.13-.03,2.86-.25,5.72-.29,8.58-.11,7.64-.44,15.26.44,22.91.87,7.59,1.46,15.21,2.58,22.78,1.55,10.41,3.48,20.75,5.89,30.98,1.25,5.31,2.78,10.57,4.22,15.83.65,2.37,1.42,4.7,2.08,7.07,1.24,4.47,2.4,8.96,3.69,13.42.21.72.83,1.41,1.45,1.88.75.58,1.69.92,2.87.11-.19-.81-.29-1.73-.62-2.57-1.21-3.05-2.71-6-3.69-9.12-1.85-5.86-3.45-11.8-5.08-17.73-1.31-4.75-2.46-9.54-3.79-14.28-.75-2.66-1.22-5.28-1.03-8.08.22-3.27.15-6.56.12-9.84-.04-3.69.05-7.37.57-11.04.36-2.57.42-5.18.59-7.77.14-2.18.19-4.37.41-6.55.4-4.08.72-8.15.51-12.26-.31-6.15-.5-12.31-.77-18.46-.09-1.91-.32-3.82-.44-5.73-.11-1.64-.21-3.28-.21-4.92-.02-4.92-.1-9.84.06-14.76.14-4.5.32-9.02.94-13.47.73-5.27,1.96-10.48,2.96-15.71.59-3.08,1.22-6.16,1.71-9.26,1.25-7.97,2.21-15.99,3.71-23.91,2.48-13.16,6.33-26.03,8.42-39.28.57-3.64,1.63-7.2,2.37-10.81.21-1.03.12-2.13.18-3.27-2.89-1.79-5.65-3.5-8.46-5.24Zm6.35,286.57c.54-.15.94-.38,1.32-.34.67.06,1.34.23,1.98.45,2.73.94,5.54,1.47,8.41,1.73,1.49.14,2.96.52,4.43.81,9.52,1.87,18.81,4.71,28.39,6.33,9.15,1.55,18.21,3.7,27.58,3.6.27,0,.55.02.82.06,7.73,1.14,15.51,1.36,23.31,1.29,1.91-.02,3.82-.11,5.72-.16,4.92-.12,9.84-.23,14.75-.36.54-.01,1.07-.2,1.62-.27,2.03-.26,4.05-.58,6.09-.75,3.4-.29,6.8-.31,10.18-.99,3.07-.62,6.22-.86,9.33-1.28,2.44-.33,4.87-.65,7.31-1.01,1.08-.16,2.15-.46,3.23-.58,5.17-.58,10.26-1.59,15.27-3,1.32-.37,2.64-.91,3.98-.99,3.78-.21,7.02-2.08,10.7-3.07.19-3.84,2.13-7.36,1.39-11.45-5.15.4-9.87,1.95-14.73,2.45-4.77.49-9.27,2.53-14.13,2.22-4.74,1.44-9.66,1.82-14.53,2.51-4.85.68-9.74,1.13-14.54,2.34,1.19,2.73,1.35,3.84.96,6.32-.35,2.27-2.18,3.13-4.25,2.12-1.48-.72-2.08-2.15-2.89-3.37-.5-.75-.89-1.72-.93-2.6-.04-.77.49-1.57.75-2.34-3.72.1-7.4.16-11.07.3-7.78.3-15.56.68-23.31-.59-1.33-.22-2.72-.04-4.09-.04-2.32,0-4.64,0-6.96-.01-2.72-.01-5.38-.55-8.15-.31-2.82.24-5.79-.05-8.55-.72-2-.49-4-.8-6.01-1.14-2.42-.42-4.87-.75-7.28-1.22-3.62-.71-7.19-1.72-10.84-2.24-5.83-.84-11.49-2.39-17.16-3.88-4.62-1.21-9.15-2.8-13.76-4.09-2.51-.7-5-1.38-7.35-2.55-.9-.45-1.87-1.22-3.02-.65-.09.29-.29.58-.23.78,1.78,5.15,3.58,10.29,5.41,15.43.13.37.46.67.87,1.26Zm378.8-67.26c-3.31,7.05-6.48,13.8-9.81,20.88,1.15.12,1.91.28,2.67.25,1.37-.04,2.74-.35,4.1-.28,3.75.2,7.34-.45,10.95-1.38,3.6-.93,7.34-1.26,11-.33,4.88,1.25,9.82,1.06,14.7.54,5.02-.54,9.89-2.1,14.66-3.72,5.32-1.81,10.6-3.61,16.11-4.76,6.03-1.26,12.02-2.72,18-4.19,2.39-.59,4.73-1.37,7.05-2.2,2.83-1.01,5.62-2.13,8.41-3.23,2.42-.95,4.96-1.86,6.55-4.03,3.17-4.3,6.05-8.8,7.72-13.94.19-.59.75-1.23-.04-1.85-1.58-.21-2.91.58-4.29,1.11-6.48,2.49-13.18,3.63-20.1,3.2-6.78-.42-13.42-.2-19.48,3.43-.7.42-1.52.62-2.26.99-3.37,1.69-6.95,2.43-10.72,2.43-1.23,0-2.47.02-3.68.23-6.1,1.09-12.23,1.58-18.4.97-5.72-.56-11.13.29-16.29,2.88-2.34,1.17-4.86,1.79-7.5,2-3.12.24-6.22.65-9.36.99Zm-27.73,116.14c.81,0,1.1.05,1.36,0,6.42-1.33,12.6-3.54,18.91-5.26,4.61-1.25,9.22-2.53,13.87-3.67,3.18-.78,6.57-.95,9.6-2.09,3.58-1.35,7.32-2.19,10.87-3.58,5.23-2.05,10.61-3.6,16.05-4.96,2.51-.63,4.95-1.55,7.42-2.31.65-.2,1.33-.28,1.99-.42,1.47-.31,2.97-.5,4.39-.97,3.9-1.31,7.93-2.06,11.89-3.09,5.15-1.33,10.21-2.99,15.29-4.54.16-.05.22-.44.42-.87-2.98-2.39-6.35-4.11-9.94-5.46-1.54-.58-3.23-.88-4.6-1.71-1.93-1.17-4.03-1.66-6.15-2.13-2.66-.6-5.36-1.02-8.05-1.53-1.38-.26-2.69-.19-4.01.38-1.51.65-3.04,1.28-4.63,1.66-4.76,1.15-9.56,2.15-14.26,3.58-2.35.72-4.73,1.36-7.09,2.06-5.77,1.7-11.48,3.58-17.31,5.06-7.15,1.82-14.38,3.3-21.57,4.94-1.06.24-2.12.54-3.17.84-4.08,1.15-8.16,2.29-12.22,3.51-.86.26-1.62.86-2.61,1.4,1.19,6.44,2.36,12.71,3.55,19.17Zm148.48-228.38c-.84-.07-1.65-.18-2.46-.2-5.88-.1-11.78-.04-17.65-.34-2.64-.13-5.18.1-7.76.47-1.35.19-2.71.38-4.05.66-5.62,1.16-11.28,2.18-16.83,3.59-4.9,1.25-9.65,3.06-14.52,4.42-2.89.81-5.86,1.32-8.83,1.79-2.44.38-4.84.8-7.13,1.82-4.63,2.06-9.32,3.92-14.3,5.02-4.66,1.03-9.26,2.35-14.02,2.92-2.95.35-5.88.85-8.97,1.31,0,1.04-.12,1.86.02,2.63.65,3.46,1.37,6.92,2.09,10.47,2.6.17,4.9-.11,7.13-.68,2.24-.57,4.4-1.38,6.55-2.3,3.12-1.34,6.53-2,9.74-3.16,5.1-1.84,10.34-2.55,15.73-2.33,1.09.04,2.19.02,3.27-.09,5.98-.64,11.9-1.76,17.94-2.06,3.81-.19,7.62-.8,11.39-1.44,4.45-.75,8.85-1.78,13.29-2.6,3.38-.63,6.76-.83,10.18-.07,3.23.72,6.52.7,9.79.02,2.01-.41,4.03-.81,6.05-1.19,2.38-.45,4.77-.88,7.25-1.34-.23-5.57-2.35-10.57-3.09-15.84-.07-.5-.5-.94-.8-1.49Zm-322.69,214.08c-1.15.22-2.09.29-2.94.59-8.75,3.05-17.86,4.25-27.02,4.62-5.73.23-11.41,1.51-17.17.96-3.21.84-6.49.69-9.76.82-7.23.29-14.45.89-21.67,1.3-7.38.42-14.76.87-22.15,1.09-2.71.08-5.44-.36-8.15-.69-4.89-.59-9.76-1.29-14.65-1.92-6.38-.83-12.84-1.3-19.13-2.58-5.38-1.09-10.78-1.84-16.2-2.53-.51-.07-1.04,0-1.91,0,1.66,4.96,3.67,9.41,5.89,13.68,1.81,1.11,3.7,1.3,5.64,1.31,2.19,0,4.37.09,6.56.04,5.92-.15,11.64,1.47,17.47,2.11,7.19.79,14.37,1.66,21.6,1.96,3.54.15,7.11-.1,10.64.13,5.33.35,10.64.68,15.99.62,3.44-.04,6.82-.25,10.23-.61,3.66-.38,7.35-.4,11.03-.54,1.49-.06,3,.08,4.49-.05,4.5-.41,8.98-.98,13.48-1.35,6.01-.49,11.99-1.17,17.89-2.45,1.73-.38,3.51-.59,5.27-.83,3.92-.55,7.8-1.23,11.3-2.56.23-.38.35-.49.36-.61.19-1.49.41-2.98.54-4.48.41-4.62.39-4.62,2.35-8Zm337.67-154.8c.45-2.27.84-4.42,1.32-6.55,1.49-6.68,2.86-13.38,3.32-20.23.21-3.13.68-6.24.78-9.37.09-2.73-.06-5.48-.3-8.2-.34-3.81-.56-7.67-1.35-11.39-1.6-7.47-3.51-14.83-6.79-21.85-2.84-6.07-6.27-11.83-8.94-17.97-.16-.37-.41-.71-.62-1.06-1.59-2.72-3.14-5.46-4.77-8.14-2.76-4.53-5.21-9.27-9.09-13.06-2.24-2.19-4.22-4.66-6.28-7.03-2.78-3.19-5.5-6.43-8.8-9.12-.53-.43-1.09-.88-1.46-1.44-1.24-1.89-3.03-3.15-4.83-4.39-5.07-3.48-10.18-6.92-15.29-10.33-3.41-2.28-7.11-3.96-11.17-4.85,1.3,1.14,2.59,2.37,4.12,3.08,5.52,2.58,9.74,7,14.81,10.2.34.22.63.53.93.81,5.39,5.24,10.06,11.11,14.84,16.88,3.83,4.62,7.3,9.54,10.62,14.56,4.02,6.07,7.23,12.57,10.07,19.22,2.68,6.28,4.92,12.77,6.59,19.41,1.64,6.49,3.31,12.96,4.62,19.53,1.02,5.12,2.08,10.17,2.15,15.4.04,3.28.1,6.56.09,9.84,0,3.97,0,7.94-.13,11.91-.28,8.1-1.7,16.04-3.71,23.88-.54,2.11-1.1,4.23-1.78,6.3-1.46,4.41-2.99,8.8-4.54,13.19-1.18,3.35-2.37,6.7-3.66,10.02-1.63,4.21-3.4,8.35-6.21,11.96-2.86,3.66-5.8,7.26-8.46,11.06-2.76,3.94-6.49,6.97-9.47,10.73-2.43,3.06-5.31,5.9-8.7,8.07-.75.48-1.5.98-1.84,2.36,3.41-1.29,6.42-2.52,9.24-4.18.47-.27.96-.6,1.27-1.02,1.86-2.59,4.66-4.18,6.81-6.47,2.24-2.38,4.68-4.59,6.75-7.11,3.03-3.69,5.79-7.6,8.67-11.42,4.04-5.35,7.74-10.89,10.3-17.13,1.09-2.66,2.24-5.3,3.49-7.88,2.24-4.59,2.99-9.64,4.62-14.42.92-2.7,1.4-5.56,2.04-8.36.08-.36-.09-.78-.13-1.13-1-.51-2.82.37-2.66-1.93,1.04-.7,2.16-1.45,3.56-2.39Zm-128.76-21.58c-.84,5.13.58,9.84.52,14.59,0,.48.38.97.68,1.68,2.35-.39,4.67-.58,6.88-1.19,1.8-.5,3.45-.46,5.24-.13,1.73.32,3.55.6,5.27.4,6.65-.76,13.32-1.34,19.73-3.59,3.15-1.11,6.08-2.52,8.55-4.72,3.25-2.89,6.97-4.19,11.28-3.96,4.67.24,9.28-.21,13.86-1.23,5.2-1.16,10.45-2.15,15.68-3.16,2.01-.39,4.1-.81,6.09-.08,3.37,1.23,6.76,1,10.11.21,2.38-.56,4.64-1.64,7-2.3,2.34-.66,4.75-1.08,7.05-1.59.77-6.7.59-9.62-.85-12.45-1.09.13-2.31.17-3.48.43-3.21.69-6.43,1.36-9.58,2.26-3.12.9-6.22.8-9.35.34-1.35-.2-2.73-.37-4.01-.8-.85-.29-1.55-.27-2.36-.04-8.19,2.33-16.58,3.43-25.04,4.16-4.64.4-9.3.57-13.91,1.16-5.96.77-11.85,2.1-17.92,1.68-6.33,1.19-12.55,2.78-18.39,5.56-3.38,1.61-6.85,2.71-10.65,2.55-.67-.03-1.35.12-2.4.22Zm90.62,79.75c-1.06.31-1.62.39-2.09.63-5.03,2.54-10.19,4.66-15.91,5.06-.4.03-.77.26-1.17.36-5.97,1.48-11.96,2.93-17.92,4.43-1.85.46-3.72.9-5.48,1.6-3.69,1.47-7.38,2.91-11.35,3.5-1.48.22-2.96.56-4.4.99-6.88,2.04-13.81,1.78-20.71.34-2.61-.55-5.12-.76-7.7-.08-1.59.42-3.22.68-4.78,1.17-2,.63-4.02.77-6.08.74-3.15-.04-6.3.11-9.44-.02-2.04-.08-3.27.73-4.38,2.38-3.44,5.1-7.03,10.1-10.54,15.15-.21.3-.24.73-.36,1.1,2.92,1,2.91.92,5.18.7,1.62-.16,3.27-.07,4.91-.1,1.63-.03,3.27.03,4.89-.13,4.22-.4,8.43-1.11,12.65-1.27,4.14-.16,8.14-.97,12.18-1.72,2.68-.5,5.41-1.14,8.1-1.08,3.26.08,6.24-.74,9.2-1.79,4.76-1.69,9.48-3.49,14.21-5.24,2.33-.86,4.73-1.36,7.23-1.34,1.64.01,3.31.08,4.93-.15,2.42-.34,4.84-.79,7.19-1.44,2.1-.58,4.07-1.57,6.14-2.26,3.78-1.26,7.43-2.76,10.9-4.73,1.33-.75,2.45-1.65,3.46-2.82,2.84-3.31,5.84-6.48,8.72-9.76.96-1.09,2.14-2.1,2.41-4.24Zm-110.09-150.72c.68-.18,1.31-.33,1.93-.52,1.03-.31,2.11-1.02,3.07-.89,1.33.19,2.32-.23,3.46-.66,2.04-.78,4.12-1.51,6.25-2,1.95-.45,4.05-.32,5.97-.87,1.93-.55,3.66-1.8,5.58-2.4,3.12-.99,6.32-1.73,9.5-2.52,3.07-.76,6.19-1.28,9.35-.67,5.74,1.11,11.43.77,17.12-.32,1.47-.28,2.98-.42,4.47-.58,4.25-.47,8.48.02,12.69.51,3.18.37,6.26.28,9.3-.85,1.92-.72,3.88-1.36,5.88-1.8,2.12-.48,4.35-1.11,6.46-.91,4.46.42,9,.75,13.15,2.8.55.27,1.22.29,2.36.55-.56-1.22-.8-1.98-1.23-2.62-1.53-2.27-3.3-4.39-4.66-6.76-1.76-3.08-4.06-4.63-7.71-5.2-5.3-.83-10.52-1.39-15.8-.38-4.44.85-8.92,1.22-13.42,1.52-2.04.13-4.07.39-6.08.73-3.91.67-7.79,1.49-11.7,2.13-2.29.38-4.64.43-6.93.82-4.31.72-8.62,1.53-13.02,1.41-2.65-.07-5.14.54-7.6,1.48-5.39,2.07-10.98,3.21-16.73,3.68-4.07.33-8.2.11-12.21,1.24-1.55.44-3.26.32-4.89.49-.61.06-1.2.24-1.97.4,1.14,2.4,2.39,4.29,3.81,6.14,1.38,1.81,2.35,3.93,3.59,6.05Zm-8.98-14.22c1.94-1.48,3.8-2.26,5.93-2.35,2.59-.11,5.18-.43,7.78-.44,8.17-.03,16.02-1.59,23.64-4.52,1.88-.72,3.96-1.1,5.98-1.28,4.63-.41,9.23-.65,13.83-1.59,5.74-1.18,11.65-1.42,17.44-2.61,3.71-.76,7.62-.82,11.44-.78,4.82.04,9.52-.84,14.27-1.26,3.12-.28,6.28-.2,9.42-.16,1.03.01,2.05.41,3.08.64.28-1.55-1.31-1.91-1.9-2.91-.62-1.05-1.39-2.02-2.18-2.95-.96-1.13-1.84-2.37-3.46-2.73-3.07-.69-6.08-1.23-9.31-.95-5.03.44-10.02,1.53-15.12.97-2.85-.31-5.7-.26-8.58-.21-6.43.1-12.82.66-19.2,1.28-9.66.94-19.21,2.64-28.71,4.66-7.62,1.61-15.28,3.04-22.91,4.61-3.2.66-6.37,1.47-9.85,2.28,2.38,3.09,4.51,5.88,6.68,8.64.41.52.97.93,1.76,1.67Zm-178.67,29.88c2.32.38,3.92.68,5.54.89,2.84.36,5.72.49,8.53,1.03,1.93.37,3.77.53,5.68.13.66-.14,1.36-.12,2.04-.1,3.14.09,6.28.23,9.43.32,4.39.13,8.38-1.11,11.88-3.75,1.36-1.03,2.8-1.8,4.48-1.81,2.18-.01,4.39-.01,6.53.33,2.96.48,5.87,1.27,8.79,1.97,1.91.46,3.88.73,5.62-.24,2.3-1.29,4.68-1.33,7.17-1.11,1.36.12,2.74.14,4.1.11.45,0,.9-.29,1.62-.54-1.69-2.05-3.1-3.88-4.63-5.61-2.89-3.28-5.8-6.54-8.78-9.73-.91-.97-2.1-1.68-2.89-2.3-2.18.4-3.92.78-5.68,1.04-4.35.66-8.69.4-13.08.18-5.33-.26-10.18-1.61-14.92-3.84-2.68-1.26-5.32-1.29-7.61.81-2.04,1.86-4.26,3.41-6.76,4.58-.27.13-.39.57-.57.85.23.17.32.31.43.32,5.31.27,10.59,1.13,15.94.85,2.04-.11,4.12.08,6.14.4,3.29.52,6.54.24,9.82-.07,2.02-.19,4.1-.23,6.12,0,2.44.28,4.84.9,7.24,1.41.27.06.49.41,1.03.9-2.28.41-4.15.3-6.03.04-2.87-.41-5.73-.18-8.59.16-2.57.3-5.16.54-7.75.59-3.01.06-6.02-.12-9.03-.21-2.46-.08-4.98.12-7.37-.35-3.28-.65-6.54-.38-9.82-.51-1.34-.05-2.41.41-3.34,1.29-1.19,1.13-2.2,2.51-3.55,3.4-1.42.94-2.46,2.11-3.44,3.44-.64.87-1.49,1.58-2.2,2.41-.61.71-1.15,1.47-2.11,2.72Zm46.91,26.23c-2.15,1.72-2.82,1.97-4.79,1.31-1.42-.47-2.76-1.18-4.13-1.77-.73-.32-1.45-.73-2.22-.92-4.91-1.16-9.85-2.2-14.74-3.44-1.97-.5-3.88-1.21-5.65-2.36-1.33-.86-3-1.35-4.58-1.64-4.02-.74-8.08-1.33-12-2.54-2.19-.67-4.36-1.4-6.5-2.08-2.37,2.99-3.08,6.26-3.69,9.47,2.01,1.1,3.77,2.14,5.6,3.05,2.93,1.46,5.79,3.06,8.97,3.99,1.94.56,3.78,1.77,5.73,1.93,4.71.4,9.37,1.78,14.18.85,1.19-.23,2.47-.14,3.69,0,7.74.94,15.47,1.92,23.2,2.91,5.02.64,10.01,1.39,15.13.72,2.82-.37,5.77-.27,8.6.08,4.61.58,9.27.24,13.85,1,3.18-.91,6.23.21,9.34.55.82.09,1.62.3,2.44.37,3.15.28,4.92-2.12,3.68-4.98-.49-1.13-1.09-2.21-1.56-3.35-.87-2.11-2.55-3.34-4.64-3.64-3.06-.45-6.1-.91-9.25.16-4.04,1.38-8.29,1.84-12.56.96-2.88-.6-5.7-.39-8.53.38-1.05.29-2.15.58-3.22.57-4.65-.07-9.3-.21-13.94-.44-.72-.04-1.42-.65-2.39-1.13Zm119.8-69.95c3.6-1.09,7.25-2.2,10.91-3.29,1.83-.54,3.64-1.19,5.51-1.54,5.64-1.06,11.28-2.07,16.95-2.94,3.08-.47,6.26-.37,9.31-.97,7.12-1.39,14.35-1.81,21.53-2.55,6.24-.64,12.55-.69,18.83-.9,4.65-.16,9.32.09,13.95-.29,5.74-.48,11.43-1.41,17.65-.18-3.16-3.98-6.05-7.33-11.23-7.18-.79.02-1.58-.47-2.38-.56-3.12-.35-6.24-.69-9.37-.92-2.18-.16-4.37-.07-6.55-.23-1.19-.09-2.26-.1-3.5.14-3.74.74-7.57,1.27-11.38,1.37-2.58.07-5.18.35-7.73.26-6.35-.22-12.54.48-18.73,1.77-3.21.67-6.48,1.04-9.72,1.61-2.97.52-5.96,1.01-8.97.62-4.05-.52-7.87.27-11.7,1.48-3.38,1.08-6.82,2-10.26,2.89-3.43.89-6.89,1.62-10.33,2.49-.7.18-1.32.68-2.02,1.06,2.07,2.41,6.66,6.29,9.21,7.83Zm44.97,231.81c-3.31.93-6.43,1.92-9.61,2.67-3.45.81-6.96,1.35-10.42,2.09-1.06.22-2.07.67-3.1,1.04-1.54.56-3.04,1.23-4.61,1.69-6.15,1.8-12.32,3.51-18.46,5.35-.49.15-.93.91-1.12,1.48-.15.46.11,1.06.21,1.59,1.02,5.22,2.03,10.44,3.1,15.64.12.6.6,1.12.99,1.8,3.04-.94,5.9-1.87,8.78-2.71,3.53-1.03,7.03-2.3,10.63-2.91,5.53-.94,10.92-2.41,16.33-3.79,5.15-1.32,10.29-2.7,15.46-3.96,3.98-.96,8-1.74,11.99-2.65.61-.14,1.16-.52,1.87-.85-.35-.2-.48-.34-.58-.32-3.89.67-7.79,1.21-11.52,2.67-1.36.53-2.95.69-4.43.64-4.64-.14-6.15-2.64-5.18-6.31.07-.26.13-.53.19-.8.87-3.8.33-7.62.09-11.43-.01-.23-.29-.44-.62-.93Zm-218.52-47.72c6.09,1.97,12.41.98,18.66,1.01.75,0,1.5-.45,2.32-.7.46-4.9.96-9.65,1.34-14.4.24-2.99.3-5.99.45-8.99.27-5.33.29-10.66-.27-15.98-.09-.89-.55-1.74-.82-2.53-2.67.33-5.12.53-7.53.95-5.17.88-10.34.77-15.52.18-2.15-.25-4.31-.61-6.41.11-.41,4.19-.15,9.61.68,13.68,3.99.19,8.06.6,12.12.51,4.01-.09,8.01-.64,11.98-1,.33,1.51-.49,2.16-1.35,2.5-4.33,1.69-8.67,3.36-13.48,3.02-2.02-.14-4.06-.02-6.23-.02-.24,1.28.06,2.42.33,3.61.7,3.2,1.47,6.4,1.79,9.65.29,2.88.65,5.68,1.94,8.41ZM184.01,202.32c1.18.3,2.36.89,3.53.85,2.59-.09,4.76,1.15,7.1,1.85,1.04.31,2.02.84,3.01,1.3,1.82.84,3.69,1.06,5.59.41,2.65-.92,5.36-.93,8.12-.76,1.49.09,3.11.22,4.47-.26,5.35-1.89,11-2.09,16.48-3.2,3.16-.64,6.25-.36,9.34.49,1.18.33,2.41.49,3.63.63,1.9.22,3.81.36,5.71.51,1.91.14,3.84.16,5.74.39,2.02.25,4.02.69,6.03,1.04,1.83-1.37,3.7-.17,5.56-.09.27.01.55.04.82,0,3.42-.61,6.82-.29,10.23.1.81.1,1.65.24,2.46.14,3.66-.46,7.35.43,11.02-.26.78-.15,1.63.12,2.45.11,1.09,0,2.17-.06,3.26-.17.95-.09,1.89-.38,2.84-.4,5.34-.08,10.67-.29,15.95-1.21,1.07-.19,2.19-.15,3.28-.12,5.74.17,11.48.44,17.22.54,4.38.07,8.78.14,13.13-.21,2.51-.2,4.91-.17,7.3.49.81.23,1.53.4,2.37.08,1.42-.53,5.16-2.76,6.8-4.22-3.3-.79-10.76-1.51-15.03-1.45-4.92.07-9.83.12-14.75.2-1.91.03-3.82.14-5.73.21-3.42.11-6.84.31-10.27.31-8.21.01-16.42-.08-24.64-.1-1.51,0-3.01.12-4.52.12-9.03,0-18.07.01-27.1-.05-4.11-.03-8.22-.12-12.33-.36-4.63-.27-9.26-.71-13.89-1.11-8.36-.72-16.68.3-25.02.56-3.82.12-7.66.37-11.45.91-4.36.62-8.7.93-13.1.98-1.86.02-3.77.27-5.62,1.75Zm84.01,41.52c.13,1.29.37,2.35.32,3.39-.15,2.87-.48,5.73-.64,8.59-.22,4.1-.37,8.2-.49,12.3-.02.75.27,1.52.43,2.33,3.35.32,6.45.69,9.81-.44.33-3.91.27-7.85.39-11.78.12-3.92-.1-7.86.4-11.79,1.3.25,1.25,1.16,1.29,1.94.29,6.56.53,13.12.82,19.67.03.78.26,1.55.4,2.37,1.92.64,3.71.69,5.46.58,1.84-.12,3.8.63,5.83-.65-.26-2.95-.51-5.94-.8-8.92-.31-3.13-.68-6.26-1.02-9.39-.32-2.96.29-5.98-.51-8.86-3.65-.64-8.19-.49-10.65.31-.31.1-.82.27-.97.12-1.15-1.09-2.55-.86-3.9-.84-2.18.02-4.37.24-6.54.12-4.23-.23-8.45-.64-12.68-.94-.77-.05-1.56.06-2.45.1-.79,3.26-1.02,6.4-.98,9.52.07,5.06.22,10.12-.55,15.15-.11.73.12,1.51.19,2.26,3.51.48,6.75.95,10,1.36,1.07.13,2.19.24,3.01-.71.3-4.41.41-8.8.92-13.14,1.06-8.9,1.67-11.28,2.93-12.64Zm131.08,259.98c1.81.14,2.89.13,3.94.32,1.47.27,2.9.85,4.37,1.02,5.56.62,11.15,1.06,16.71,1.72,2.18.26,3.97-.01,5.63-1.61,3.14-3.03,6.43-5.89,9.63-8.87.49-.45.85-1.08,1.14-1.68,1.23-2.59,2.44-5.2,3.57-7.83.35-.81.43-1.73.62-2.53-3.24,0-6.24-.1-9.23.05-1.27.06-2.4-.17-3.6-.46-3.33-.81-6.57-1.76-9.29-3.98-.4-.33-1.02-.38-1.51-.62-2.33-1.14-4.79-2.09-6.93-3.51-3.37-2.24-6.98-2.6-11.01-2.36.37,3.69.71,7.17,1.06,10.72.64.19,1.15.41,1.67.46.81.08,1.66.16,2.45.02,3.13-.56,5.95.31,8.69,1.72.85.43,1.79,1.2,2.6,1.1,2.85-.38,5.35.92,8.01,1.38,2.48.42,5.05.82,7.21,2.37-.32,1.83-1.52,2.06-2.79,1.92-3.14-.36-6.2-1.12-8.92-2.74-1.35-.8-2.68-1.24-4.22-1.28-.95-.02-1.97-.02-2.84-.35-3.95-1.51-8.06-.4-12.14-1.19-1.17,5.57-1.38,11.13-4.81,16.25Zm96.72-203.15c2.76-1.66,5.56-2.17,8.42-2.61,2.97-.46,5.91-1.15,8.81-1.93,3.7-1,7.45-1.93,10.98-3.36,3.59-1.46,7.22-1.28,10.9-1.3,1.91-.01,3.85.1,5.73-.15,4.34-.57,8.65-1.39,12.99-1.96,3.79-.5,7.61-.95,11.43-1.14,4.51-.22,9.04-.08,13.55-.2,2.18-.06,4.41-.11,6.53-.58,3.91-.88,7.84-1.15,11.81-1.03,3.95.12,7.95-.29,11.84.81.13.04.35-.25.73-.56-2.7-2-5.38-3.89-8.48-4.92-2.45-.81-5.05-1.26-7.62-1.62-2.57-.35-5.17-.49-7.77-.53-2.32-.03-4.64.26-6.97.29-2.32.03-4.65-.2-6.97-.14-4.79.12-9.57.34-14.36.58-1.49.07-3,.24-4.46.56-3.6.8-7.21,1.57-10.73,2.64-1.26.38-2.42-.07-3.5.19-2.78.66-5.54,1.47-8.19,2.52-4.92,1.96-10.01,2.65-15.26,2.68-5.34.03-10.68-.04-15.97.92-2.94.54-5.94.81-8.92,1.14-1.9.21-3.82.3-5.72.5-.45.05-.87.31-1.68.62,4.46,2.97,8.53,5.68,12.87,8.58Zm-128.68,193.18c2.74,8.15,8.5,11.98,15.99,13.7.88.2,1.92.05,2.82-.19,5.82-1.52,9.51-5.5,11.02-11.05,2.27-8.38,2.63-16.9.61-25.49-1.37-5.84-4.45-10.49-8.73-14.52-2.52-2.37-5.58-3.42-8.92-3.7-1.76-.15-3.56-.04-5.32.17-5.32.61-5.34.72-9.23,4.46-1.13,1.09-1.97,2.24-2.26,3.77-.23,1.2-.53,2.4-.6,3.61-.15,2.45-.17,4.91-.2,7.37,0,.2.29.4.49.67,1.01-.2,2.05-.4,2.89-.56.75-1.49,1.18-2.99,2.12-4.05,1.26-1.41,2.81-2.61,4.41-3.64,3.71-2.38,7.52-2.28,11.17.16,2.79,1.87,4.87,4.46,6,7.58,2.05,5.64,2.92,11.38.17,17.11-.18.37-.29.77-.39,1.17-.62,2.62-2.22,4.69-3.94,6.63-.7.79-1.67,1.43-2.64,1.86-3.93,1.75-7.36.96-10.39-2.33-.92-1-1.72-2.1-2.62-3.22-.71.14-1.35.28-2.44.5Zm156.46-36.42c-1.77.21-3.4.25-4.95.63-2.7.67-5.4.75-8.14.45-2.31-.25-4.64-.7-6.93-.6-4.61.2-8.87-.92-13.06-2.65-.42-.17-1,.03-1.6.06-.43,3.69-.75,7.22-1.28,10.72-.52,3.48-2.23,6.71-2.35,10.37,2.26,1.63,4.39,3.36,7.22,3.6,3.67.32,7.35.66,11.03.71,3.84.05,7.63.41,11.41,1,.91.14,1.84.17,2.9.26,2.63-8.03,5.21-15.86,5.75-24.54Zm-84.41-80.89c-.02-1.91-1.5-3.33-2.16-5.06-.99-2.58-2.48-4.13-5.55-3.59-1.17.21-2.42-.12-3.64-.16-3.41-.11-6.83-.22-10.25-.29-3-.07-6.01-.21-9.01-.11-5.37.19-10.61-.07-15.74-2.02-4.49-1.7-9.22-2.65-14.01-3-1.87-.14-3.28-.75-4.47-2.36-1.05,1.53-2.33,1.78-3.74,1.38-3.36-.95-6.8-.67-10.21-.69-4.8-.02-9.55-.35-14.25-1.49-2.23-.54-4.57-.65-7.04-.97-1.48,2.41-2.88,4.69-4.36,7.1.74.36,1.21.67,1.71.8,4.76,1.27,9.51,2.52,14.46,2.93,3.67.31,7.37.78,10.96,1.58,3.79.85,7.59.96,11.42,1.04,1.09.02,2.19,0,3.28-.03,6.28-.21,12.57-.28,18.84-.7,4.81-.32,9.54-.29,14.25.85,5.57,1.36,11.14,2.7,16.72,4.02,1.88.45,3.74.91,4.85,2.4,2.74-.56,5.26-1.08,7.92-1.63Zm45.04,5.78c1.02,3.49,1.9,6.63,2.86,9.75.96,3.1.79,6.49,2.26,9.39,4.33.22,4.32.19,8.16-1.14,1.29-.44,2.66-.64,3.97-1.05,1.3-.4,2.61-.81,3.82-1.42,3.86-1.95,6.41-2.41,10.57-1.56,1.63.33,3.2.59,5.02-.26-.21-4.8-1.84-9.33-2.84-13.95-.74-3.44-2.08-6.72-3.41-9.93-.65-.04-1.07-.16-1.44-.06-2.9.78-5.79,1.58-8.68,2.42-.64.19-1.26.53-1.84.88-2.97,1.82-6.17,2.74-9.65,3.1-3.14.33-5.99,1.69-8.81,3.82Zm-.42-2.79c.48-.22,1.1-.46,1.67-.78,3.24-1.79,6.66-3.03,10.29-3.83,1.83-.4,3.68-1.18,5.25-2.21,2.12-1.39,4.33-2.11,6.81-2.56,1.77-.32,3.83-.21,5.51-1.75-.96-4.03-2.35-7.85-3.94-11.61-1.1-2.58-2.82-4.96-2.42-8.03.04-.27-1.01-1.01-1.5-.96-1.06.1-2.1.53-3.12.89-2.96,1.02-5.9,2.11-8.87,3.1-1.66.56-3.64.32-5,1.62-1.41,1.35-3.83.23-4.93,2.16-1.99.46-3.97.91-6.35,1.45-.61.63-1.52,1.57-2.31,2.39,1.31,2.88,2.77,5.39,3.59,8.1.79,2.62,1.67,5.17,2.88,7.61.71,1.42.71,3.23,2.45,4.39Zm6.85,160.88c1.02,5.39,1.9,10.36,2.9,15.29.71,3.48,1.68,6.91,2.38,10.39.78,3.88,1.07,7.88,2.17,11.66,1.68,5.8,2.27,11.79,3.57,17.65,1.89,8.55,2.52,17.31,3.17,26.03.5,6.69,1.94,13.24,3.08,19.83.16.9.54,1.76.87,2.79,2.05,0,3.96.1,5.85-.03,1.52-.11,2.35-1.03,2.16-2.44-.47-3.35.15-6.83-1.56-10.05-.74-1.39-.77-3.17-1.08-4.78-.46-2.4-.77-4.85-1.35-7.22-1.49-6.09-3.06-12.16-4.12-18.35-.56-3.23-1.3-6.43-1.86-9.65-1.55-8.89-3.01-17.79-4.58-26.67-.45-2.55-1.07-5.08-1.78-7.58-1.61-5.65-3.57-11.2-4.49-17.02-.06-.39-.28-.76-.45-1.2-1.59.44-3.15.86-4.86,1.34Zm26.09,71.11c6.32-1.79,12.1-3.45,17.88-5.07,3.02-.85,6.05-1.65,9.09-2.44,1.85-.48,3.73-.85,5.57-1.36,4.35-1.19,8.68-2.42,13.01-3.66,5.78-1.66,11.59-3.23,17.31-5.07,5.73-1.84,11.28-4.25,17.06-5.89,5.91-1.68,11.64-3.89,17.55-5.52,3.81-1.05,7.54-2.43,11.36-3.43,5.69-1.49,11.43-2.77,17.14-4.15.8-.19,1.62-.37,2.35-.73,4.2-2.09,8.77-3.04,13.19-4.46.54-.17,1.05-.43,1.87-.77-.78-.27-1.18-.37-1.55-.54-3.02-1.4-6.02-1.28-9.16-.29-4.95,1.57-9.96,2.95-14.96,4.36-1.84.52-3.79.73-5.58,1.37-7.09,2.52-14.09,5.31-21.63,6.25-.54.07-1.05.3-1.58.45-5.25,1.52-10.49,3.07-15.75,4.56-3.54,1-7.15,1.8-10.67,2.87-4.05,1.23-8.04,2.68-12.06,4-2.98.98-5.95,2.06-8.98,2.84-5.29,1.36-10.66,2.43-15.95,3.78-8.48,2.17-16.71,5.24-25.26,7.16-.62.14-1.18.57-1.9.93.53,1.54,1,2.93,1.64,4.8Zm-9.17-104.8c-.83-.17-1.24-.36-1.6-.3-2.04.31-4.05.33-6.11-.01-1.17-.2-2.44.05-3.65.23-2.19.33-4.31.23-6.47-.37-1.82-.5-3.74-.78-5.63-.87-3-.15-6.01-.1-8.76-1.83-.55.73-1,1.23-1.33,1.79-2.53,4.2-5.01,8.43-7.57,12.62-.92,1.5-1.94,2.95-3.04,4.32-.76.95-1.59,1.81-1.8,3.39,1.1.03,2,.08,2.89.07,4.76-.02,9.56-.51,14.17,1.3.61.24,1.35.14,2.03.21,2.31.21,4.62.4,6.92.63,1.48.15,2.95.34,4.4.51,6.18-6.53,11.4-13.43,15.55-21.69Zm-31.36-6.17c2.32,1.38,2.32,1.3,4.34,1.55,3.66.45,7.29,1.2,10.95,1.49,5.16.41,10.34.53,15.52.74,1.37.05,2.3-.64,2.89-1.89,1.17-2.47,2.31-4.97,3.65-7.35,1.77-3.14,2.56-6.57,3.68-10.15-2.44-.34-4.71-.8-6.99-.96-5.03-.36-10.06-.64-15.1-.83-3.07-.12-5.98-.55-8.55-2.43-.7-.51-1.66-.65-2.53-.97-2.69,7.13-5.28,13.99-7.86,20.8Zm-23.97-177.85c.15-2.8.22-3.21,1.67-3.77,2.28-.89,4.62-1.65,6.99-2.28,3.7-.99,7.46-1.73,11.15-2.76,1.78-.5,3.63-1.01,5.48-2.2-2.55-3.33-5.37-6.03-8.59-8.39-4.62,1.55-9.14,3.11-13.69,4.57-1.29.41-2.66.77-4,.79-4.35.05-7.83,2.06-11.34,4.5,2.25,3.34,5.48,5.54,7.92,8.47,1.75.13,2.03,1.62,2.87,2.77,1.75,2.39,3.99,4.43,6.1,6.7,3.94-1.32,7.71-2.52,11.43-3.85,1.01-.36,1.9-1.06,2.82-1.65,1.74-1.11,3.5-2.12,5.57-2.54,2.65-.54,5.27-1.2,8.17-1.87-1.04-2.84-3.7-4.31-5.16-6.97-4.51,1.52-8.86,3.09-13.27,4.45-4.55,1.41-9.16,2.63-14.1,4.03Zm12.48-39.32c1.25.57,1.83.88,2.44,1.12,2.42.94,5.16,1.43,7.21,2.89,3.09,2.19,6.08,2.17,9.63,1.78,5.04-.56,10-1.43,14.98-2.34,4.03-.74,8.07-1.38,12.23-1.14,2.86.17,5.76.05,8.61-.22,2.43-.23,4.86-.74,7.24-1.33,2.77-.69,5.47-1.69,8.24-2.4,2.52-.64,5.11-.97,7.63-1.61,2.61-.66,5.27-1.04,7.82-2.02,1.63-.63,3.46-.99,5.21-1.01,5.33-.05,10.62-.57,15.91-1.13.95-.1,1.92-.08,2.87.02,4.27.46,8.48-.16,13.31-.41-1.13-.29-1.66-.41-2.18-.57-3.44-1.07-6.91-1.47-10.49-.75-3.09.62-6.22.79-9.39.51-1.75-.16-3.56.02-5.32.2-5.58.54-11.15,1.09-16.71,1.79-1.38.17-2.22-.37-3.03-1.3-.48.92-.78,1.85-1.94,1.96-.82.07-1.63.26-2.45.28-2.32.07-4.68-.14-6.97.16-6.7.88-13.4.27-20.09.24-4.39-.02-8.73-.03-13.04.94-1.45.33-2.99.21-4.49.29-.95.05-1.91.04-2.85.17-6.9.99-13.74,2.35-20.7,2.93-1.02.09-2.02.51-3.69.95Zm-214.66-41.59c-.53-.15-1.03-.36-1.55-.43-1.76-.24-3.52-.45-5.29-.64-1.88-.2-3.79-.68-5.62-.47-1.95.22-3.3-1.11-5.03-1.29-1.72-.19-3.43-.47-5.31-.73-1.1,4.45-2.25,8.65-3.15,12.91-.89,4.24-2.89,8.24-2.86,12.79,2.58,1.36,5.35,1.15,7.93,1.92.29-.58.58-.92.61-1.28.54-7.15,2.68-13.94,4.77-20.73.2-.65.42-1.31.77-1.88.18-.29.81-.63.98-.52.39.25.92.78.88,1.13-.25,1.75-.69,3.48-1.01,5.22-.94,5.1-1.87,10.21-2.77,15.32-.21,1.2-.37,2.45.44,3.54,4.35,1.4,8.88,1.13,13.46,1.8.36-1.26.81-2.27.91-3.32.31-3.13.59-6.26.67-9.4.11-4.24.03-8.48,1.24-12.61.1-.36-.03-.78-.06-1.31Zm427.16,256.08c0,1.04-.1,1.86.02,2.65.43,2.96,1.09,5.89,1.39,8.87.95,9.54,3.3,18.83,4.94,28.24.96,5.5,2.1,10.95,2.65,16.51.45,4.48,1.11,8.93,1.69,13.39.95,7.3,1.9,14.6,2.88,21.9.1.75.34,1.48.5,2.19q2.54-.27,4.15-1.71c0-2.77.05-5.49-.02-8.22-.05-2.04-.1-4.09-.41-6.1-.78-5.13-1.75-10.23-2.55-15.36-.61-3.91-1.24-7.83-1.58-11.77-.56-6.66-.75-13.37-1.88-19.97-1.13-6.59-1.69-13.26-3.5-19.76-1.13-4.04-1.44-8.31-2.16-12.46-.08-.48-.46-.91-.78-1.51-1.92,1.11-3.66,2.13-5.34,3.1Zm-369.59-20.47c-1.24,5.79-.58,11.37-.69,16.89-.13,6.27.47,12.55.75,18.83.16,3.69.29,7.38.5,11.06.29,4.91.64,9.82.99,14.73.09,1.32-.04,2.71.87,4.14,1.48-.2,2.96-.36,4.42-.62,1.45-.26,2.88-.62,4.52-.98-.32-2.47-.88-4.76-.85-7.03.08-6.29.42-12.57.62-18.86.05-1.63.04-3.27-.1-4.88-.36-3.94-1.26-7.83-.99-11.83.05-.66-.07-1.39-.31-2.01-2.24-5.72-4.57-11.41-7.85-16.64-.55-.88-.86-1.94-1.85-2.81Zm125.49,71.5c0,.22.02.43.02.65,2.7.07,5.39.16,8.09.2.53,0,1.14-.02,1.59-.26,1.53-.82,3.18-.67,4.8-.76,3.41-.2,6.82-.36,10.23-.56,1.79-.1,3.55-.36,5.1-1.33,3.94-2.44,7.9-4.84,11.77-7.38,2.93-1.92,5.56-4.33,9.22-4.89.66-.1,1.32-.4,1.91-.72,1.2-.64,2.4-1.31,2.82-2.78-1.22-.99-2.61-.75-3.94-.84-2.44-.17-4.98-.02-7.31-.64-5.93-1.57-11.89-.83-17.84-.74-1.03.01-1.7.64-2.4,1.37-2.16,2.27-4.41,4.46-6.64,6.67-4,3.96-8.32,7.47-13.51,9.79-1.36.61-2.62,1.46-3.92,2.2Zm220.19-260.76c4.43,4.46,8.26,8.32,12.1,12.19.48.49.93,1.01,1.45,1.46,3.3,2.86,6.25,6.07,9.36,9.13,5.1,5.02,9.41,10.57,13.22,16.6,4.19,6.62,7.48,13.66,10.35,20.9,2.32,5.85,3.42,12.07,5.22,18.08.43,1.42.5,2.96.95,4.37.8,2.53.54,5.35,1.95,7.69q2.92-.66,6.3.37c-.03-2.51-.41-4.92-1.04-7.24-1.45-5.27-3-10.5-4.61-15.72-.48-1.55-1.21-3.04-1.9-4.52-1.8-3.83-3.69-7.62-5.46-11.47-2.56-5.58-5.06-11.18-8.29-16.42-2.08-3.37-4.35-6.57-7.33-9.27-2.1-1.92-4.22-3.83-5.91-6.23-1.71-2.43-3.94-4.51-5.99-6.68-3.79-4.01-8.53-6.81-13.04-9.87-1.95-1.32-4.02-2.75-7.33-3.34Zm27.17,193.63c.45,0,.78.11.92-.02,2.77-2.45,5.55-4.9,7.69-7.94,3.62-5.13,7.29-10.23,10.36-15.74,2.59-4.66,5.26-9.31,6.98-14.36,2.42-7.11,4.53-14.33,6.76-21.51.28-.91.47-1.85.66-2.79.4-2.01.72-4.03,1.17-6.02,1.13-4.93,2.12-9.86,1.65-14.98-.16-1.76-.03-3.55.01-5.33.05-2.22-.36-4.3-1.39-6.05-2.17.71-4.19,1.37-6.24,2.04-.75,2.08-.75,4.27-.63,6.45.4,7.66-.41,15.29-.56,22.93,0,.4-.1.82-.23,1.21-1.07,3.23-1.59,6.61-2.29,9.91-1.01,4.72-2.97,9.07-4.34,13.64-.69,2.31-1.28,4.76-2.91,6.7-.17.2-.31.48-.35.73-.56,4.03-2.77,7.4-4.44,10.96-1.15,2.45-2.92,4.6-4.17,7.02-1.9,3.68-4.12,7.1-7.15,9.95-.91.85-1.37,1.92-1.51,3.17Zm-321.45,21.84c-.73,1.08-.39,1.81.29,2.35,3.85,3.07,7.72,6.11,11.6,9.14,2.55,2,5.69,2.6,8.69,3.48,3.28.96,6.61,1.77,10.08,1.61,4.64-.21,9.27-.46,13.91-.71.27-.01.54-.08.8-.15,4.57-1.38,9.23-2.43,13.37-5.03,2.85-1.79,4.22-2.71,5.67-4.76-1.15-.66-2.36-.38-3.59-.38-5.21.02-10.39-.32-15.48-1.59-3.94-.98-7.84-1.26-11.18,1.78-.1.09-.22.17-.33.24-3.96,2.41-8.11,3.08-12.54,1.45-4.15-1.53-7.92-3.69-11.02-6.46-3.65-.35-7.02-.67-10.26-.98Zm-61.64-203.69c.28,4.08,1.1,7.68,1.72,11.3.35,2.02.56,4.02.59,6.09.05,4.22.48,8.43.77,12.65.16,2.31.5,4.62.52,6.93.08,7.38.04,14.75.09,22.13,0,.72-.34,1.62.53,2.16.25-.12.67-.19.69-.33.39-2.49,1.72-4.55,2.79-6.77,1.47-3.05,3.11-6.02,3.85-9.44,1.21-5.57,1.08-11.12.47-16.71-1.03-9.52-1.51-19.06-.64-28.63.02-.23-.19-.48-.4-.97-2.89-.31-5.78.81-8.74.83-.62,0-1.24.4-2.25.75Zm156.34-20.02c1.74,1.26,3.23,1.67,4.89,1.41,2.69-.43,5.43-.51,8.02-1.55,1.12-.44,2.4-.62,3.62-.63,3.46-.01,6.74-.94,10.06-1.71,3.59-.83,7.2-1.53,10.92-1.72,2.8-.14,5.73.29,8.35-1.26.32-.19.8-.11,1.21-.11,5.74,0,11.49,0,17.23.01.41,0,.81.16,1.22.18,2.18.13,4.38.49,6.54.31,6.25-.5,12.53-.33,18.79-1.35,6.83-1.11,13.82-1.29,21.67-1.96-1.91-.46-2.92-.77-3.95-.93-.66-.1-1.36.08-2.03.01-4.89-.45-9.81-.73-14.67-1.46-3.65-.54-7.28-1.06-10.96-1.25-6.41-.33-12.82-.05-19.19.6-2.84.29-5.63,1.04-8.46,1.46-2.55.38-5.02,1.34-7.68,1.06-2.2-.23-4.34.24-6.48.79-1.45.37-2.94.64-4.43.8-7.35.8-14.59,2.14-21.73,4.05-4.08,1.09-8.19,2.05-12.93,3.23Zm-100.73,315.27c-.23,1.25-.55,2.3-.61,3.36-.37,6.95-.6,13.9-.28,21.11,1.82-.31,3.4-.77,5-.81,2.02-.05,3.76-.7,5.37-1.79,1.39-.94,2.91-1.42,4.5-1.9,2.06-.61,4.19-1.21,5.82-2.48-.57-1.67-1.34-3.17-1.57-4.75-.65-4.59-1.1-9.21-.52-13.87.18-1.43.36-2.92-.5-4.58-3.08,1.3-5.95,2.54-8.84,3.71-1.13.46-2.3.85-3.48,1.12-1.46.34-2.96.53-4.9.87Zm-39.89-297.79c-1.43,2.14-1.2,4.07-1.25,5.97-.13,5.58-.18,11.15.31,16.73.52,5.96,1.32,11.94.55,17.96-.04.3.19.62.34,1.1,4.47-6.43,8.81-12.66,12.81-18.41.25-8.65-1.95-16.36-3.69-24.45-3.17.38-6.12.74-9.08,1.1Zm172.19,347.68c-1.09-4.41-1.01-8.62-.88-12.84.06-1.77.1-3.54.11-5.32,0-1.63-.2-3.21-.9-4.63-5.64-.14-12.44,1.37-16.43,3.68,0,1.37.02,2.86,0,4.35-.08,4.35.76,8.66.17,13.04-.28,2.11.06,4.29.66,6.5,1.63.2,3.11.17,4.54-.32,4.11-1.41,8.2-2.87,12.74-4.47Zm-119.52-386.74c-1.67-10.79-3.01-21.18-7.84-30.83-.9.25-1.56.38-2.18.62-3.17,1.21-6.33,2.45-9.7,3.76.51,1.45.95,2.72,1.4,3.99,1.62,4.5,3.12,9.03,3.53,13.86.23,2.72.62,5.42.95,8.13.16,1.34.15,2.74,1.41,4.08,2.71-.59,5.61-1.13,8.46-1.87,1.29-.33,2.47-1.06,3.98-1.74Zm59.21,95.79c-2.71.24-5.02.61-7.32.59-2.22-.02-4.3-.02-6.33,1.17-1.79,1.05-3.75,1.28-5.92.62-2.73-.83-5.6-1.22-8.4-1.81-2.7-.57-5.42-.88-8.14-.28-1.5.33-5.02,3.06-6.81,4.99.39.15.74.33,1.1.42,4.24,1.05,8.63,1.55,12.65,3.41,3.83,1.77,7.91,1.94,12.05,1.77,3.69-.15,7.36-.3,11.06.22,4.05.57,8.16.72,12.25,1,.6.04,1.39.31,1.78-.77-2.07-4.06-5.59-7.22-7.98-11.33Zm69.32-21.73c-1.47-2.86-3.25-5.24-5.45-7.27-.54-.5-1.47-.83-2.22-.83-4.48,0-8.69,1.2-12.36,3.74-3.68,2.54-7.44,4.57-12.09,4.35-1.16-.06-2.34.25-3.37.37-.14.42-.27.6-.22.67,2.99,4.2,5.99,8.39,9.09,12.73,1.07-.44,2.19-.9,3.3-1.35,1.26-.52,2.48-1.23,3.8-1.49,1.55-.31,2.83-.98,4-1.94,1.37-1.12,2.73-2.27,4.06-3.44,2.08-1.83,4.32-3.33,7.03-4.06,1.43-.39,2.83-.93,4.43-1.47Zm193.22,73.99c-1.57,8.16-3.06,15.92-4.52,23.69-.03.15.31.37.45.53,2.03-.34,4.05-.64,6.04-1.03,2.68-.53,5.35-1.11,8.02-1.73,2.49-.58,4.07-1.94,4.31-4.72.44-5.16,1.06-10.31,1.57-15.46.03-.34-.27-.72-.48-1.24-.97.11-1.9.29-2.83.29-1.22.01-2.54.17-3.63-.24-2.99-1.11-5.89-.57-8.92-.09Zm-314.22-101.48c-1.44-.33-2.2-.66-2.95-.64-2.86.1-5.71.41-8.56.47-5.54.12-10.34,2.38-14.74,5.39-3.7,2.53-7.06,5.57-10.54,8.41-1.37,1.12-2.63,2.37-4.01,3.48-1.6,1.3-3,2.67-3.88,4.63-.72,1.59-1.85,3.03-2.94,4.42-1.54,1.95-2.09,4.11-1.79,6.52.07.59-.08,1.42,1.14,1.51,1.27-1.79,2.49-3.76,3.95-5.52,2.08-2.51,4.51-4.76,6.47-7.35,1.54-2.04,3.44-3.49,5.61-4.66,4.1-2.21,8.33-4.05,13.01-4.7,1.34-.19,2.63-.72,3.95-1.06,1.71-.44,3.41-.99,5.15-1.23,2.02-.28,3.31-1.15,3.61-3.24.23-1.61,1.19-2.69,2.51-3.56,1.13-.74,2.21-1.56,4.03-2.87Zm-39.33-68.89c.27,3.41.53,6.8.82,10.18.3,3.54.42,7.11,1,10.61.54,3.28.6,6.69,1.87,9.72,3.83-.96,7.36-1.85,10.77-2.71.79-2.05.06-3.77-.09-5.5-.19-2.13-1.17-4.23-.16-6.42.18-.38-.13-1-.25-1.5-.21-.93-.47-1.85-.67-2.78-.56-2.67-1.04-5.36-1.65-8.02-.27-1.19-.68-2.37-1.22-3.46-.58-1.18-.37-2.71-1.61-3.82-2.85,1.43-6.04,1.79-8.8,3.69Zm-10.83,33.88c2.21.82,3.8-.34,5.44-.81,1.64-.48,3.59-.09,5.13-1.63-.13-1.14-.2-2.36-.41-3.55-.77-4.43-1.39-8.86-1.42-13.39-.03-3.94-.44-7.89-.78-11.82-.06-.72-.56-1.41-.86-2.12-4.45.93-8.7,1.69-12.71,3.31,1.98,10.08,5,19.71,5.61,30.01Zm-94.02,299.41c2.11,7.27,2.82,14.06,3.85,20.79.06.38.36.72.62,1.21,2.79.52,5.67.48,8.5.12,2.77-.35,5.7.21,8.47-1.06-1.99-6.56-1.68-13.46-4.72-19.71-5.33-.43-10.61-.86-16.71-1.35Zm453.02-134.19c-.93,4.09-1.91,7.92-2.65,11.8-.73,3.85-2.75,7.36-3.06,11.31.36.11.63.28.86.24,3.93-.69,7.72-1.91,11.26-3.68,2.27-1.14,4.47-2.69,4.81-5.7.1-.91.72-1.76,1.05-2.65,1.49-3.95,3-7.9,4.41-11.88.35-.98.36-2.08.58-3.46-.97.17-1.61.25-2.23.38-2.14.45-4.26,1.16-6.42,1.33-2.93.22-5.58,1.18-8.6,2.3Zm-389.59-192.24c.27,5.01.5,9.48,1.28,13.91.66,3.76,1.32,7.52,1.39,11.36.02,1.06.29,2.11.46,3.29,3.9.29,7.5,2.19,11.39.72-.08-2.24-.11-4.4-.25-6.55-.16-2.44-.21-4.92-.68-7.31-.63-3.23-1.02-6.45-.87-9.74.1-2.02.03-4.04-.38-6.27-4.09-.4-7.97-.08-12.34.59Zm114.21,70.97c-.45,2.3-.87,4.13-1.13,5.99-.11.77-.09,1.72.27,2.35,1.76,3.07,3.66,6.07,5.54,9.07.21.33.63.52.92.81,4.47,4.6,8.74,9.38,12.76,14.38,2.31,2.88,4.6,5.77,6.93,8.64.4.49.7,1.24,1.79.95.63-2.01.23-3.91-1.03-5.63-1.37-1.87-2.8-3.69-4.2-5.53-1.7-2.23-2.47-4.56-.91-7.21.34-.58.55-1.23.68-1.54-.62-4.72-3.41-7.74-6.5-10.43-3.71-3.23-7.64-6.2-11.49-9.26-1.06-.84-2.2-1.58-3.62-2.6Zm22.63,196.88c-.47.2-1.01.3-1.4.6-1.28,1.01-2.44,2.19-3.78,3.12-3.24,2.27-6.46,4.56-10.25,5.9-4.51,1.6-9.03,2.81-13.84,3.42-5.08.64-10.11.91-15.12.39-5.17-.53-10.3-1.61-14.74-4.65-2.81-1.93-5.66-3.81-8.44-5.78-1.77-1.26-3.43-2.68-5.19-3.96-1.03-.75-2.16-1.21-3.32.12.79,1.93,1.99,3.49,3.52,4.92,4.65,4.34,10.15,7.44,15.5,10.72,4.44,2.72,9.62,3.77,14.4,5.76.47.2,1.09.14,1.63.07,1.22-.15,2.45-.29,3.64-.6,3.84-.99,7.65-2.13,11.5-3.08,4.03-.99,7.81-2.51,11.31-4.73.92-.59,1.86-1.29,2.89-1.54,1.96-.47,3.42-1.7,4.83-2.93,2.55-2.23,5.21-4.38,6.86-7.76Zm-30.99-182.71c-1.52-1.69-3.14-2.71-4.87-3.53-1.61-.77-3.27-1.41-4.86-2.22-2.5-1.27-5.18-1.89-7.92-1.93-3.68-.06-7.36-.66-11.06-.09-2.15.33-4.34.53-6.51.57-2.76.05-5.44.41-8.11,1.13-3.4.92-6.28,2.99-8.74,6.49.54.18,1.03.45,1.54.5,5.63.51,11.19-.52,16.79-.82.73-.04,1.61-.53,2.12-1.08,3.7-3.96,8.64-4.47,13.56-4.91,1.98-.18,3.81.62,4.81,2.53.21.39.13,1.05-.05,1.5-.12.3-.62.49-.99.62-.23.08-.57.06-.8-.05-2.49-1.21-4.85-.04-7.22.46-.77.16-1.4,1.02-2.19,1.64,2.17,1.13,4.02,2.09,6.3,1.41.55-.17,1.42.14,1.91.53.38.3.39,1.06.61,1.74,4.35.84,8.81,1.31,13.32,1.16.95-.03,1.9-.18,2.84-.28.61-.07.99-.35.85-1.21-.46-.09-1.07-.41-1.48-.25-2.8,1.1-5.71.37-8.55.66-.68.07-1.38.12-1.72-.69-.26-.62.42-1.38,1.47-1.55.81-.13,1.64-.15,2.45-.24,2.19-.23,4.33-.65,6.47-2.06Zm-63.8,211.22c.39-2.68-.44-4.59-.98-6.54-.75-2.69-1.08-5.4-.16-8.07.76-2.2.04-3.89-1.09-5.71-2.72-4.41-6.13-8.34-9.02-12.62-.33-.49-.94-.8-1.81-1.52.22,2.58.55,4.61.52,6.63-.09,6.01-.32,12.01-.51,18.01-.13,3.95.04,7.85,1.27,11.93,1.43-.3,2.72-.6,4.03-.84,1.21-.22,2.43-.37,3.64-.57,1.33-.22,2.66-.45,4.12-.7Zm64.84-229.74c-1.61-1.09-3.85-1.11-5.94-1.68-5.85-1.6-11.86-1.86-17.58-2.83-1.54,1.81-2.81,3.59-4.36,5.05-1.38,1.3-1.71,2.67-1.36,4.35,1.21.69,2.38.51,3.63.42,5.83-.4,11.48.54,16.76,3.02,3.95,1.86,7.72,4.11,11.59,6.13.54.28,1.22.28,2.23.49-2.24-2.51-2.25-2.52-1.65-4.93.1-.4.19-.81.36-1.18.79-1.72.22-3.16-.81-4.58-.95-1.3-1.8-2.68-2.86-4.28Zm-227.09-59.51c1.56-4.08,2.97-7.88,4.47-11.65.6-1.51,1.32-3,2.14-4.4,1.29-2.23,2.77-4.36,4.06-6.59.52-.89.75-1.95,1.08-2.86-4.82-3.34-7.55-4.68-10.27-5.07-3.54,5.82-10.54,22.77-10.56,26.89,2.85,1.16,5.75,2.33,9.07,3.68Zm323.62,84.15c-4.73,1.6-8.83,3.34-12.19,6.54-1.27,1.21-2.72,2.25-4.17,3.25-1.11.77-2.3,1.46-3.54,2-2.23.97-4.52,1.79-7.04,2.77,1.57,2.09,2.01,4.77,3.94,6.56,2.27-.79,4.4-1.73,6.63-2.25,2.82-.66,5.57-1.35,8.09-2.86.92-.55,2.02-.81,3.05-1.19,3.98-1.44,7.97-2.87,12.06-4.35-1.31-4.17-4.66-6.8-6.83-10.48Zm-51.47-42.94c-.83-.47-1.25-.86-1.73-.95-4.18-.75-8.12-2.28-12.12-3.64-1.16-.39-2.39-.58-3.59-.83-1.6-.34-3.22-.57-4.79-1.01-1.26-.36-2.42-.3-3.59.22-.87.39-1.78.73-2.59,1.22-2.37,1.42-4.84,2.51-7.62,2.84-.79.09-1.54.52-2.31.76-1.42.44-2.85.89-4.29,1.28-1.02.27-2.06.45-3.23.7,3.19,3.05,5.43,3.44,9.24,1.27,5.58-3.18,11.72-4.36,17.93-5.38.66-.11,1.38-.12,2.04,0,.43.07.82.44,1.24.68-.79,1.27-1.9,1.43-2.95,1.71-4.75,1.27-9.5,2.51-14.23,3.83-.67.19-1.25.72-2.37,1.39,2.82,1.05,5.19,1.71,7.33,2.8,2.16,1.09,4.05,2.7,6.69,3.3,3.07-4.36,7.89-5.71,12.47-7.42,2.66-.99,5.4-1.76,8.47-2.75Zm19.72,135.47c.16-.58.27-.83.29-1.09.36-4.42-1.11-8.62-1.69-12.92-.81-6.07-2.34-12.05-3.56-18.06-.19-.94-.41-1.87-.56-2.81-.98-6.5-2.9-12.74-5.08-18.93-.74-2.1-2.28-2.97-4.28-4.02-.15,3.39-.72,6.3-2,9.07-.31.68-.3,1.63-.11,2.38.36,1.45.83,2.88,1.45,4.24,2.41,5.35,4.7,10.74,5.91,16.51.59,2.83,1.47,5.5,3.27,7.84.73.95,1.13,2.16,1.65,3.27.52,1.1.9,2.28,1.5,3.33,1.31,2.28,2.2,4.69,2.57,7.3.17,1.2.39,2.38.64,3.88Zm-234.52,164.39c-.21-7.1-2.12-16.59-4.34-21.88-2.02-.35-4.15-.72-6.28-1.08-2.21-.38-4.38-1.39-6.76-.72.9,3.9,1.49,7.7,2.7,11.28,1.2,3.59,1.5,7.47,3.32,10.91,1.91.21,3.67.37,5.42.6,1.88.25,3.75.56,5.95.89Zm455.3-223.24c2.94.82,5.68,1.6,8.43,2.33,2.26.6,4.46,1.3,6.22,2.96.15.14.49.07.9.12.3-.52.63-1.09.71-1.23-1.11-3.53-2.16-6.62-3.05-9.76-.59-2.09-.98-4.24-1.4-6.38-.44-2.22-1.9-3.11-4.01-3.42-2.96-.44-5.9-1.03-8.86-1.51-1.45-.24-2.93-.57-4.53.26,1.17,3.51,2.31,6.96,3.47,10.41.65,1.93,1.32,3.86,2.13,6.22Zm-324.71-141.5c.41.83.72,1.41.99,2.01.95,2.11,1.95,4.21,2.8,6.36,2.27,5.74,3.69,11.68,4.38,17.81.15,1.33.37,2.66,1.39,3.95,2.88-1.98,6.67-2.29,9.23-5.26-1.16-4.9-3.68-9.32-5.59-13.96-1.9-4.6-3.13-9.55-6.54-13.61-2.23.9-4.33,1.75-6.66,2.7Zm102.48,245.94c.82-3.57,1.63-6.32,2.05-9.14.6-4.05.88-8.14,1.36-12.21.27-2.35.37-4.6-1.08-6.7-.52-.75-.61-1.8-.93-2.7-.44-1.27-.62-2.59-1.83-3.57-.6-.49-.75-1.7-.85-2.61-.41-4.08-.7-8.18-1.09-12.26-.3-3.16-1.3-5.41-3.33-7.7-.57,3.41.29,6.63.34,9.85.05,3.54.59,7.08.72,10.62.21,5.88.31,11.76.37,17.65.04,3.56.02,7.1,1.82,10.35.31.56.29,1.33.31,2,.05,2.09,1.01,3.83,2.14,6.42Zm-169.56,96.92c-2.48,5.54-.17,10.47.04,15.44.04.98.87,1.92,1.28,2.76,3.96.65,7.54.17,11.18-.87.16-2.21.22-4.26.49-6.28.49-3.68.45-7.36.18-11.05-.12-1.69-1.09-2.24-2.82-1.82-1.85.44-3.72.81-5.59,1.13-1.61.28-3.23.47-4.76.68Zm25.73-298.25c.63-3.5.12-6.97-.42-10.45-.7-4.45-1.3-8.92-1.99-13.37-.33-2.14-.76-4.26-1.14-6.31-3.02-.28-3.04-.28-7.38,1.22.04,5.54.3,11.07,1.76,16.49.35,1.3.39,2.7.51,4.06.19,2.18.3,4.36.47,6.55.09,1.1.22,2.19,1.32,2.84,2.32.19,4.62.22,6.87-1.03Zm-122.61,292.91c1.01,2.99,1.91,5.55,2.73,8.14.86,2.73,1.57,5.52,2.48,8.24.85,2.56.82,5.41,2.54,7.77,3.23.23,6.37,1.32,9.67.96.24-4.37-2.08-7.85-2.7-11.74-.65-4.04-2.18-7.82-4.01-11.53-3.44-.46-6.56-2.15-10.71-1.84Zm208.54-22.71c1.59-.36,2.29-.38,2.84-.67,4.71-2.48,9.41-4.99,14.1-7.51,5.48-2.94,10.09-6.95,14.19-11.58,1.67-1.89,2.82-3.96,3.15-6.51.32-2.43.88-4.83,1.28-7.26.07-.43-.12-.9-.25-1.75-1.85,1.57-2.68,3.33-3.66,4.9-3.3,5.3-8,9.31-12.57,13.37-2.62,2.33-5.73,4.14-8.74,5.99-3.2,1.97-5.62,4.77-8.19,7.39-.72.74-1.1,1.82-2.15,3.64ZM185.89,224.83c-.53,1.08-.98,1.89-1.33,2.74-.47,1.13-.73,2.35-1.29,3.43-2.83,5.46-4.65,11.33-6.86,17.04-.44,1.13-.83,2.31-.08,3.64,2.3.91,4.55,2.25,7.5,1.81,2.08-6.78,4.59-13.38,7.66-19.74.41-.86.85-1.72,1.14-2.62.32-1.01.47-2.07.74-3.29-2.56-1.03-4.92-1.97-7.47-3Zm189.37,249.25c-4.95.02-9.47,1.13-13.38,4.06-1.36,4.59-1.83,10.5-1.11,13.63,3.56-.91,7.12-1.8,10.67-2.75,1.32-.35,2.65-.75,3.88-1.32,2.44-1.11,3.59-3.77,3.07-6.47-.48-2.46-1.51-4.67-3.13-7.15Zm69.58-99.21c.27-.57.54-.9.57-1.24.33-3.38.35-6.8,2.47-9.78.42-.6.26-1.93-.1-2.71-2.15-4.56-4.43-9.07-6.7-13.57-.3-.6-.82-1.08-1.2-1.65-2.05-3.06-5.03-5.4-6.7-8.77-.17-.35-.85-.45-1.35-.69-.41.95-.63,1.74-1.06,2.4-.91,1.41-.51,2.57.49,3.7.72.82,1.53,1.59,2.12,2.5,1.19,1.81,2.51,3.6,3.29,5.59.57,1.46.59,3.25.45,4.85-.13,1.42-.82,2.8-1.26,4.19,2.91,4.92,5.83,9.84,8.98,15.17Zm-227.89-139.34c-.65,1.24-1.42,2.38-1.87,3.63-.92,2.57-1.77,5.17-2.45,7.81-.99,3.83-1.84,7.7-2.68,11.57-.22,1.02-.19,2.09-.29,3.31,2.61.54,4.93,1.27,7.34,1.39,1.53-2.12.98-5.03,3.13-6.7.11-.08.05-.54-.08-.73-.62-.94-.22-1.82.06-2.74.72-2.35,1.49-4.68,2.06-7.07.66-2.76,1.89-5.4,1.99-8.46-2.23-1.19-4.54-1.79-7.22-2.01Zm146.35,300.74c5.34,1.68,10.26,3.3,15.22,4.78,5.36,1.6,10.8,2.73,16.46,2.21,1.91-.18,3.81-.35,5.42-1.43,1.88-3.05,3.73-6.06,5.6-9.1-1.33-.83-2.38.12-3.45.49-8.01,2.76-16.17,4.05-24.61,2.55-2.68-.48-5.35-1.06-8.01-1.63-2.45-.53-4.61-.18-6.64,2.13Zm-53.01,31.05c-.52,3.14-.04,6.26-.09,9.36-.05,3.22-.81,6.44.02,9.82.75.06,1.42.2,2.06.14,2.43-.25,4.85-.54,7.27-.87,1.13-.15,1.55-.94,1.63-2.01.41-5.27.87-10.54.25-15.82-.09-.78-.39-1.54-.62-2.45-3.64.15-7.09.53-10.53,1.82Zm-47.15,3.4c1.03,6.64,1.66,12.84,3.82,18.71,2.71,1.07,5.2-.67,7.76-.25.64.11,1.35-.09,2.01-.24.37-.09.7-.37,1.15-.62.04-.51.21-1.07.11-1.56-.98-4.8-1.99-9.59-3.03-14.37-.11-.51-.43-.98-.69-1.53-.7-.13-1.36-.36-2.02-.35-2.84.03-5.67.13-9.13.22Zm-57.77-310.66c.87-3.28,1.8-6.42,2.53-9.61.82-3.62,2-7.11,3.59-10.45.8-1.69,1.82-3.27,2.84-5.08-3.27-1.11-6.09-2.87-9.53-2.76-.86,3.28-1.52,6.51-2.57,9.6-1.47,4.3-2.27,8.73-3.01,13.18-.22,1.33-.53,2.69.2,4.09,1.75.64,3.46,1.56,5.96,1.03Zm-36.99,297.21c.33.95.49,1.73.85,2.4,3.44,6.51,6.84,13.04,9.52,19.91.24.63.64,1.2,1.03,1.76,1.41,2.03,4.64,2.74,7.14,1.59-2.57-10.68-5.68-19.27-8.83-24.17-3-.75-6.09-1.81-9.71-1.5Zm162.08-240.67c3.38-3.18,7.36-5.38,10.67-8.52-1.44-5.02-2.81-9.83-4.23-14.82-3.37.43-6.49,1.19-9.62,2.35-.34,2.52-.04,4.91.62,7.29.47,1.71,1.31,3.47,1.2,5.15-.2,2.92,1.12,5.52,1.37,8.55Zm357.46,86.28c.11.07.23.22.32.2,3.26-.6,6.48-.69,9.74.23,1.72.48,3.52.16,5.2-1.2,0-2.19.21-4.51-.06-6.79-.26-2.24.68-4.61-.58-6.91-4.84.19-9.51.91-14.19,2.14-.28,4.05-.55,7.84-.79,11.64-.01.22.23.46.35.7ZM229.42,208.29c2.18,2.33,4.82,3.58,7.85,4.03,2.1.31,4.04,1.08,5.53,2.46,1.87,1.73,3.99,2.14,6.36,2.19,4.62.11,9.25.1,13.81,1.08,1.55.33,3.14.03,4.92-.13-1.89-1.93-1.89-1.94-4.54-2.91-2.97-1.09-5.85-2.31-7.23-5.39-1.52-.17-2.88-.3-4.23-.47-3.78-.5-7.58-.63-11.35-1.4-3.6-.73-7.39-1.56-11.13.54Zm464.98,142.8c.11-2.01-.44-3.61-1.33-5.17-.54-.93-1.13-1.94-1.27-2.97-.44-3.11-2.29-4.15-5.2-4.76-3.99-.83-8.12-1.1-11.96-2.67-.81-.33-1.81-.21-3.1-.33.34,1.25.41,2.21.84,2.98,1.76,3.2,3.62,6.35,5.21,9.1,2.7.56,4.95.98,7.18,1.5,1.19.28,2.33.82,3.52,1.1,1.95.46,3.85,1.21,6.13,1.21Zm-324.94-128.39c5.3,8.41,8.77,17.46,13.21,26.11,2.43-.07,4.3-.82,5.62-2.87-1.84-6.1-3.87-11.97-7.68-17.11-2-2.7-4.29-5.28-5.22-8.71-2.21.39-4.04,1.17-5.93,2.58Zm-177.44,339.73c-2.3-.74-4.22-1.42-6.18-1.95-.53-.15-1.19.14-1.73.21,0,.56-.07.85,0,1.09,2.16,6.73,4.42,13.43,6.44,20.21.66,2.23,2.16,3.54,3.98,4.32,1.51.65,3.27,1.34,5.43.65-2-8.35-4.68-16.42-7.94-24.53Zm496.8-175.4c4.84-.48,9.28-.91,13.91-1.37-.79-3.3.51-6.56-1.19-9.37-1.62-.78-3.11-1.48-4.57-2.22-1.59-.79-3.15-1.65-4.98-1.8-.34-.03-.65-.45-.98-.68-.3-.2-.84-.6-.88-.55-1.18,1.33-2.7-.39-4.02.53.46,3.84.9,7.75,1.4,11.66.12.94.37,1.87.64,2.78.11.37.44.67.67,1.02Zm-361.53,98.36c.15-3.22-.19-6.27-1.6-9.2-2.28-4.73-3.56-9.76-3.53-15.06.01-1.82-.33-3.52-1.14-5.16-1.97-3.96-2.72-8.28-3.5-12.57-.56-3.07-.8-6.21-1.17-9.19-2.42-1.47-2.43-1.43-4.67-.72-.06,2.41-.17,4.84.91,7.17.28.61.6,1.38.46,1.97-.41,1.73.35,3.15.84,4.69.45,1.43.63,2.93,1,4.39.8,3.17,1.39,6.42,2.52,9.47,2.66,7.17,5.57,14.24,8.41,21.34.4,1,.98,1.92,1.48,2.87Zm128.06,140.09c-1.05,4.32-2.07,17.55-1.78,22.1,2.49,1.75,5.56,2.33,8.39,3.75,1.15-3.89.14-7.58.59-11.24.45-3.58-.26-7.32-.51-10.98-.04-.65-.34-1.29-.49-1.86-1.9-1.38-4.13-.73-6.2-1.78Zm-94.61-93.55c-.94-.99-1.69-1.98-2.64-2.73-3.62-2.9-7.24-5.79-10.96-8.55-3.53-2.62-6.97-5.28-9.1-9.44-2.82-.07-4.04-1.75-4.25-4.44-.05-.64-.35-1.33-.73-1.87-2.2-3.13-4.12-6.43-5.87-9.83-.1-.19-.43-.25-.66-.37-2.74,3.05-1.92,4.19-.21,6.75.98,1.47,2.14,2.82,3.17,4.25,2.46,3.43,4.88,6.88,7.36,10.3.64.88,1.44,1.64,2.18,2.44,2.2,2.42,4.34,4.89,6.62,7.23,2,2.05,4.12,3.97,6.81,5.16,2.11.93,4.13,2.05,6.37,3.17.58-.63,1.2-1.3,1.92-2.07ZM195.3,228.96c-1.15,3.69-2.2,7.19-3.33,10.67-1.17,3.63-2.45,7.22-3.59,10.85-.48,1.53-1.08,3.1-.39,4.98,2.02.73,4.16,1.5,6.6,2.39.94-4.66,1.89-9.03,2.69-13.43.82-4.54,3.39-8.56,4.04-13.08q-2.67-1.9-6.02-2.39Zm128.74,356.04c2.02-.41,3.63-.68,5.2-1.08,1.55-.39,3.07-.9,4.67-1.38.12-6.69.7-13.13.04-19.72-3.43.23-6.3,1.45-9.57,2.09.1,3.4.26,6.63.26,9.86,0,3.22-1.2,6.38-.61,10.22Zm-25.45-367.87c-1.77-1.29-3.22-1.65-4.58-2.24-1.61-.69-3.34-1.41-4.6-2.57-1.46-1.34-3.02-1.82-4.83-1.77-4.92.12-9.83-.8-14.76-.12-.78.11-1.62-.19-2.43-.23-3-.15-6-.27-9.54-.42.8.61,1.07.94,1.42,1.07,3.85,1.4,7.64,3.11,11.6,4.03,3.4.79,6.49,1.98,9.22,3.85,6.06-.85,12.18.99,18.5-1.6Zm144.56,293.77c3.13-3.89,5.48-7.17,6.83-11.07.31-.88.95-1.65,1.45-2.47,3.14-5.13,5.5-10.65,7.83-16.17.41-.98.74-2.17.57-3.17-.41-2.54-1.09-5.03-1.74-7.53-.1-.38-.61-.66-1.03-1.1-1.27,3.05-2.3,5.85-3.58,8.53-1.64,3.43-2.35,7.26-4.61,10.42-.59.83-.35,1.81-.17,2.77.25,1.33.47,2.69.46,4.03,0,3.02-1.43,5.52-3.38,7.67-.88.97-1.41,1.93-1.61,3.18-.22,1.33-.54,2.65-1.02,4.89Zm-104.11-61.06c5.11.09,9.98.34,14.63-.79,1.93-5.86-1.14-9.35-5.07-12.48-.26-.05-.52-.13-.79-.15-1.9-.13-3.51.17-4.26,2.3-.38,1.09-1.45,1.5-2.53,1.89-1.24.45-2.76.37-3.68,1.7-.65,2.65.17,5.03,1.7,7.52Zm-48.71,138.33c.15-2.88-.36-5.12-1.04-7.34-.82-2.65-1.11-5.31-.48-8.05.21-.9.19-1.85.28-2.89-3.74-1.46-6.97.65-10.34.77-.38,3.84,1.36,13.03,3.37,17.87,2.57-.11,5.25-.23,8.21-.37Zm98.55-297.85c-.23-4.69-.56-9.13-2.05-13.33-1.45-.46-2.53.14-3.63.69-2.79,1.41-5.59,2.81-8.38,4.22-.71.36-1.39.76-2.18,1.2.58,3.33,1.48,6.39,3.02,9.39,2.02-.44,3.98-.36,5.46-1.85.99-.99,2.12-1.06,3.39-.53,1.27.53,2.59.75,4.37.2Zm-125.86,299.3c-.68-3.35-1.21-6.3-1.88-9.22-.69-3.02-.37-6.24-1.64-9.24-3.06-.2-5.88-.25-9.06-.08.26,1.58.49,2.89.7,4.2.43,2.69.82,5.38,1.29,8.07.44,2.52.84,5.07,2.44,7.35,2.63-.35,5.18-.68,8.15-1.07Zm106.37-118.78c2.56.76,4.31.34,6.04.22,1.18-.09,2.16.23,2.99,1.03,4.4,4.2,5.88,11.55,1.37,16.99-1.04,1.26-2.23,2.4-4.03,2.59-.57.06-1.11.42-1.71.67.3.49.4.77.6.94.41.36.84.7,1.3.99,2.81,1.81,5.08,1.45,7.06-1.3,3.07-4.26,4.63-8.95,3.54-14.26-.25-1.2-.56-2.4-.86-3.59-.86-3.4-3.17-5.69-5.92-7.59-1.71-1.19-3.59-1.29-5.39-.11-1.47.96-2.9,1.99-5,3.43Zm-21.6,147.46c0-4.35-.07-8.42.02-12.49.06-2.58.37-5.15.53-7.72.05-.9-.03-1.8-.05-2.73-1.98-.77-3.72-1.44-5.68-2.2-1.33,4.06-1.29,8.02-1.45,11.9-.16,3.9-1.25,7.78-.51,11.68,2.18,1.14,4.21,2.25,7.13,1.56Zm-2.75-313.51c1.7-.83,3.43-1.62,5.12-2.5,1.77-.92,4.01-.89,5.37-2.48q-.32-8.77-1.83-11c-3.89,1.6-8.45,1.26-12.12,3.63.23,4.1,1.65,9.13,3.45,12.35Zm309.34,3.8c.45,1.14.51,1.75.85,2.08,2.37,2.28,4.51,4.71,6.01,7.69.62,1.23,1.67,1.96,3.22,2.19,4.44.66,8.97.74,13.29,2.14.38.12,1.11.29,1.28-.62-2.16-3.43-5.22-6.16-7.93-9.2-.49-.55-1.37-.87-2.12-1.06-3.69-.94-7.4-1.81-11.11-2.67-.9-.21-1.83-.29-3.48-.55Zm-316.88,253.31c-.14,6.39-.27,12.26-.37,18.14,0,.47-.08,1.12.95,1.4,1.43-.82,3.56-.29,5.06-1.77,2.6-12.95,3.09-16.45,2.71-20.03-2.75.74-5.45,1.47-8.35,2.26Zm-29.45-170.92c-1.23.79-1.56,1.84-1.75,2.86-.26,1.33-.29,2.7-.45,4.05-.26,2.31-.54,4.59-2.09,6.53-.75.94-1.04,2.24-1.75,3.22-1.11,1.56-1.35,3.21-1.17,5.05.4,4.07.61,8.17,1.12,12.22.49,3.92,1.1,7.84,2.41,11.59.31.88,1.39,1.11,1.96.41.42-.51.85-1.09,1.05-1.71.64-1.97.18-3.83-1.02-5.42-1.16-1.53-1.71-3.25-1.17-4.99.67-2.18.49-4.28.34-6.46-.1-1.47.18-2.97.3-4.45.13-1.63.56-3.29.35-4.88-.25-1.95,0-3.8.25-5.69.54-4.02,1.04-8.05,1.6-12.34Zm381.03,67.42c-5.11,1.2-9.44,3.34-14.17,3.38-1.81,4.02-3.55,7.85-5.25,11.69-.25.56-.78,1.18.04,1.86,8.67-2.84,16.1-7.13,19.38-16.93Zm-386.95-65.65c.8-2.72,2.01-5.2,4.62-6.46,2.13-1.02,2.88-2.65,3.24-4.78.43-2.55.82-5.14,1.66-7.56.79-2.27.68-4.48.85-6.87-3.03-.91-5.13.37-6.98,2.1-1.54,4.29-2.06,8.6-2.1,12.98-.01,1.36-.05,2.73-.17,4.08-.07.8-.09,1.79-.55,2.32-1.18,1.34-.62,2.75-.56,4.2Zm56.31-104.63c.33,1.95.7,3.82.95,5.7.24,1.82-.46,3.78.75,5.71,1.28-.21,2.78-.02,3.59-.69,2.31-1.91,5.71-2.02,7.65-4.88-.69-3.08-.98-6.42-2.79-9.49-3.26,1.63-6.95,1.19-10.15,3.65Zm106.85,12.9c-.99-1.78-2.9-1.99-4.43-2.75-.91-.45-1.8-.31-2.77,0-4.53,1.49-9.03,3.15-13.67,4.25-4.13.97-7.27,3.45-11.02,5.59,1.71,1.39,3.16,2.56,4.55,3.69.4-.29.64-.42.82-.61.19-.19.29-.47.48-.66,2.82-2.71,6.09-4.89,10.03-4.98,2.69-.07,5.1-.66,7.52-1.58,2.42-.92,4.8-1.99,7.43-2.25.35-.03.66-.43,1.05-.7Zm-48.64,76.58c-3.14-.69-6.27-1.45-9.42-2.06-2-.39-4.04-.79-6.06-.79-9.07,0-18.15.15-27.68.26.83.51,1.28,1.03,1.73,1.04,2.54.06,4.75,1.09,7.02,2.05.86.36,1.81.67,2.74.71,6.12.28,12.25.5,18.38.71.81.03,1.67,0,2.42-.26,3.51-1.25,7.15-1.43,10.88-1.64Zm271.37-42.09c-1.73-2.93-3.3-5.58-4.81-8.15-6.19-1.1-11.9-3.47-18.48-3.3.82,1.52,1.62,2.76,2.2,4.1.99,2.25,2.83,3.19,5.07,3.63,1.33.26,2.68.44,3.98.83,3.63,1.09,7.42,1.61,10.94,3.1.1.04.25-.04,1.1-.21Zm-374.12,27.94c1.18-2.62,2.32-5.41,3.69-8.07.79-1.54,1.02-3.04,1-4.72-.01-1.62.01-3.34.56-4.82.82-2.22.9-4.43,1.02-7.57-1.21,1.87-2.34,2.83-2.84,4.29-.22.64-.45,1.33-.86,1.85-3.01,3.78-4.91,8.21-7.31,12.34-1.17,2.01-1.87,4.18-2.35,6.71h7.09Zm142.09-66.73c-3.19-3.42-6.55-3.37-10.01-2.77-1.07.19-2.15.45-3.16.85-4.57,1.81-9.12,3.65-13.65,5.56-1.09.46-2.06,1.23-3.23,1.96,1.69,2.03,3.78,2.97,5.5,4.32.88-1,1.44-2.02,2.31-2.55,2.09-1.27,4.23-2.59,6.53-3.38,3.86-1.32,7.79-2.48,11.84-3.13,1.16-.19,2.3-.51,3.88-.86Zm-94.84,34.83c-1.72-.36-2.57-.83-3.22-.63-3.9,1.19-7.78.75-11.66.02-1.82-.35-3.2.15-4.29,1.58-1.15,1.51-2.3,3.01-3.39,4.56-.29.41-.36.99-.58,1.65,4.63,2.42,9.1.26,13.5.19,2.13-3.44,5.64-4.83,9.65-7.36Zm-68.27-120.6c3.63,1.78,6.34,3.38,9.24,4.44,2.52.92,5.17,1.61,8.02.91,3.31-.81,6.71-1.25,10.07-1.9.39-.08,1.16.04,1.01-.83-1.62-.76-3.38-1.29-4.79-2.3-2.91-2.09-6.12-2.1-9.43-1.84-1.77.14-3.53.36-5.29.55-2.71.29-5.41.59-8.82.97Zm33.47,178.97c.95.08,1.47.13,2,.16,3.39.15,6.73-.63,10.17-.37,2.12.16,4.62-.28,6.07-2.69-.67-.25-1.29-.55-1.94-.71-4.46-1.13-8.25-3.44-11.66-6.47-.43-.38-1.09-.49-1.9-.83-.31,3.86-2.3,6.95-2.75,10.92Zm72.77-103.02c-.61-3.42-3.7-12.31-5-14.39-1.54.13-2.84.76-3.96,2.01.31,2.38.56,4.8.95,7.2.41,2.51-.2,5.12.7,7.92,2.58-.97,4.94-1.85,7.32-2.74Zm-86.75,178.47c0,1.91.2,3.42-.05,4.86-.39,2.3.28,4.3,1.26,6.27.49.98.93,1.98,1.47,2.93,1.91,3.31,3.76,6.64,5.06,10.25.51,1.41,1.21,2.74,1.88,4.09.22.44.42,1.04,1.39.69-.08-2.78-.7-5.53-1.62-8.21-1.14-3.35-2.46-6.63-3.94-9.86-1.53-3.34-2.75-6.84-4.13-10.25-.08-.19-.43-.26-1.32-.77Zm37.75,70.79c-.67-.79-.87-1.16-1.18-1.35-3.47-2.15-6.72-4.52-9.07-7.95-.45-.66-1.11-1.19-1.69-1.76-.53-.52-.83-1.41-2.26-1.11.16,4.83,1.69,9.37,3.06,14.2,3.7-.67,7.14-1.3,11.13-2.03Zm310.68-48.58c.62.1,1.02.27,1.37.21,3.93-.78,7.48-2.53,10.75-4.74,2.2-1.48,3.92-3.55,4.25-6.53-2.97.73-5.71,1.44-8.47,2.07-1.53.35-2.77,1-3.63,2.38-1.36,2.18-2.78,4.32-4.27,6.62ZM377.77,217.94c-.03,1.82.71,3.13,1.58,4.36.79,1.12,1.56,2.26,2.48,3.26,3.87,4.22,6.32,9.19,8.08,14.57.37,1.13.95,2.19,1.52,3.49,1.06-.42,1.86-.74,2.85-1.13-3.23-5.17-6.33-10.09-8.18-15.65-.25-.77-.78-1.44-1.1-2.19-.92-2.12-1.8-4.26-2.68-6.39-.35-.85-.43-1.89-1.79-2.22-.88.61-1.86,1.29-2.75,1.9Zm1.95,81.59c2.84.94,11.54,2.33,14.54,2.33.13-.76.3-1.54.38-2.33.09-.89,1.34-1.52.34-2.9-1.89-.2-4.04-.37-6.18-.66-2.26-.3-4.41-1.38-6.46-1-.92,1.61-1.7,2.97-2.62,4.57Zm36.97,253.28c2.4,1.84,4.62,2.67,7.16,2.64.96,0,1.93-.09,2.86.05,5.35.78,10.61-.02,15.88-.75.94-.13,1.85-.47,2.77-.7.83-.21,1.67-.42,2.51-.63-7.3-.43-14.53-.2-21.72-1.12-.67-.09-1.37-.07-2.05-.02-2.28.14-4.55.32-7.41.53Zm-105.11-126.68c.86.76,1.19,1.3,1.62,1.4,3.7.85,7.33,2.21,11.23,1.68,2.31-.32,4.61-.35,6.93.05.93.16,1.91.08,2.86.09.85,0,1.77.51,2.63-.13-.24-.39-.32-.7-.52-.81-.59-.33-1.21-.62-1.85-.84-7.24-2.48-14.66-2.36-22.91-1.43Zm25.68,75.21c-.22,4.51.08,4.83,3.76,4.78,3.69-.04,7.32-.55,10.96-1.27.65-1.05,1.03-2.16.58-3.45-.4-.14-.78-.4-1.16-.4-4.63.09-9.26.21-14.15.34Zm-2.7-66.68c-1.63,2.68-3.58,4.72-6.2,6.07-1.07.55-1.54,1.5-1.53,2.7.02,2.08.31,4.06,1.59,5.69,2.26.3,2.26.28,3.95-.39,0-1.79-.06-3.56.01-5.33.13-3.29,1.71-6.84,6.31-6.33.55.06,1.37.28,1.65-.95-1.84-.46-3.64-.92-5.78-1.46Zm118.07,18.89c-.82,0-1.65-.14-2.42.02-4.27.89-8.53,1.84-12.78,2.81-.41.09-.75.46-1.53.95,1.19.21,1.85.36,2.51.44,3.8.44,7.57.96,11.2,2.22.26.09.53.15.8.19,1.31.2,2.52-.52,2.77-1.78.32-1.61.41-3.23-.56-4.86Zm-87.62,133.58c-1.55-.39-3.1-.82-4.66-1.15-.79-.17-1.65-.34-2.41-.18-2.92.6-5.83,1.24-8.7,2.05-.91.26-2.19.38-2.41,1.75,2.5,2.23,5.39,2.07,8.43,1.73,3.62-.41,6.45-2.67,9.75-4.2Zm-56.1-122.74c.54-.35.67-.4.75-.49,1.45-1.62,1.17-3.53.9-5.43-.79-5.52-1.6-11.05-2.43-16.57-.03-.2-.34-.37-.53-.55-1.23-.13-1.71.7-1.91,1.66-.13.65,0,1.35.07,2.03.47,4.74.94,9.47,1.44,14.2.19,1.76.74,3.42,1.71,5.15Zm121.95-7.91c-8.06-2.91-15.75-3.09-24.02-1.1.76.64,1.1,1.14,1.54,1.24,1.58.39,3.19.88,4.79.89,3.67.02,7.34-.21,11.02-.35.81-.03,1.65-.24,2.43-.1.89.16,1.72.62,2.57.94.56-.51,1.04-.95,1.68-1.53Zm227.08-155.13c-1.74-3.53-1.93-3.8-4.42-4.53-3.79-1.11-7.61-2.13-11.43-3.15-.65-.17-1.34-.16-2.47-.28,1.9,1.97,3.45,3.51,4.91,5.12.89.99,1.93,1.52,3.24,1.42,2.36-.17,4.6.47,6.88.9.92.17,1.85.3,3.3.52Zm-426.95-86.88c-1.02-1.78-2.42-3.14-4.17-3.75-2-.7-4.19-.89-6.31-1.26-.23-.04-.51.16-.77.24-1.76.53-3.51,1.06-5.24,1.58,4.51,2.37,10.86,3.63,16.49,3.2Zm167.9,52.78c-.29.26-.93.57-.92.85.09,2.04.12,4.11.54,6.09.7,3.34,1.67,6.62,2.56,9.91.17.64.45,1.29.83,1.83.17.25.74.39,1.07.31.31-.07.75-.45.79-.74.08-.66.07-1.38-.1-2.02-1.38-5.28-2.8-10.55-4.21-15.82-.03-.1-.21-.17-.56-.42Zm10.26,17.21c-1.28-6.81-3.76-13.04-5.95-19.31-1.45.18-1.56.92-1.27,1.81,1.71,5.31,3.84,10.49,4.69,16.06.1.62.52,1.2.84,1.89.64-.17,1.13-.3,1.69-.45Zm-47.02,212.7c-1.48.8-2.51,1.35-3.75,2.03,1.31,1.56,2.93,1.73,4.48,2.01,1.25.23,2.54.79,4.05-.22-1.41-2.16-.88-4.81-2.37-6.93-1.03.05-1.97.07-2.91.15-.38.03-.75.21-1.33.38.58.82,1.07,1.52,1.82,2.58Zm303.61-188.55c-1.44-2.17-2.74-4.22-5.24-4.6-3.51-.52-7.05-.94-10.57-1.37-.19-.02-.43.25-.81.5.29,1.01,1.09,1.39,2.04,1.6,4.42.96,8.77,2.12,13.01,3.73.48.18,1.05.1,1.58.14Zm-343.8,135.84c.46-.43.87-.63.88-.85.24-3.44,1.91-5.85,5.07-7.27.58-.26,1.15-.76.7-2.17-2.41.69-5.05-.11-7.69.95.34,3.08.67,6.02,1.05,9.33Zm327.46-152.22c-1.52-2.04-2.85-2.9-4.5-3.21-3.61-.68-7.23-1.31-10.86-1.92-.3-.05-.65.23-1.43.53,1.15.65,1.87,1.26,2.71,1.5,3.79,1.09,7.6,2.1,11.42,3.08.62.16,1.32.02,2.66.02Zm-207.67-10.16c-2.41-.4-4.55-.73-6.68-1.1-1.44-.25-2.68.15-3.83,1.01,2.51,1.71,8.67,3.32,13.26,3.42-.94-1.13-1.79-2.16-2.75-3.32Zm-97.86,228.32c2.68,3.74,8.02,8.03,11.71,9.4-1.64-1.74-3.03-2.95-4.07-4.4-1.17-1.62-2.02-3.46-3.1-5.35-1.38.11-2.69.21-4.53.35Zm308.89-12.19c3.16-1.32,11.24-6.29,13.71-8.46-3.86.46-7,1.82-9.84,3.62-1.62,1.02-2.96,2.66-3.87,4.84Zm-139.87,51.76c-.65.04-1.3.08-1.95.13-.82.07-1.64.22-2.45.19-.67-.02-1.33-.34-2.01-.39-.78-.05-1.57.05-2.55.09.24,1.01.42,1.76.62,2.63,3.02-.38,5.84-.58,8.33-2.66Zm120.01-266.8c-2-.5-3.99-1.02-6-1.46-.47-.1-1,.09-1.86.19.58.6.86,1.13,1.29,1.3,2.12.81,4.3.79,6.57-.02Zm44.08,208.61c-2.69-.55-2.87-.49-5.62,1.75.92.74,1.86,1.06,2.92.26.84-.64,1.69-1.26,2.7-2Zm-376.04-89.9c.22.04.45.08.67.11.05-.63.14-1.27.14-1.9,0-.23-.22-.47-.34-.7-.16.19-.43.37-.45.57-.06.64-.02,1.28-.02,1.92Zm63.01,125.16c.53.53.99,1.23,1.94.69-.5-.88-1.04-1.35-1.94-.69Zm101.46-96.89c-.23-.21-.47-.42-.72-.64-.09.1-.27.23-.25.29.13.34.31.65.47.98.13-.17.26-.33.49-.62Zm-103.49,95.16c-.12-.05-.24-.09-.36-.14-.03.1-.11.27-.09.29.1.07.23.11.35.12.03,0,.07-.17.1-.27Zm-22-95.25c-.18-.03-.37-.05-.55-.08.08.06.16.17.25.18.09.01.2-.06.3-.1Zm-133.32-222.4l.26.03-.1-.36-.16.32Z"/>
    <path class="cls-1" d="m168.81,261.28c.14-.66.27-1.46.49-2.24.79-2.77,2.02-3.53,4.8-2.99.39.08.79.21,1.11.43,3.22,2.17,3.1,6.88-.22,8.92-1.45.89-2.15.74-3.7-.73-.28-.27-.61-.58-.96-.67-1.4-.37-1.34-1.52-1.52-2.72Z"/>
    <path class="cls-1" d="m277.41,284.54c.7-1.27,1.98-1.76,3.26-2.17,1.22-.4,2.49-.2,3.45.65.56.49,1.02,1.29,1.14,2.02.23,1.41-.94,2.76-2.8,3.56-1.46.63-2.64.42-3.66-.77-.79-.92-1.56-1.9-1.39-3.29Z"/>
    <path class="cls-1" d="m393.11,261.12c-1.82,0-3.12-1.24-3.12-2.97,0-2.18,1.74-3.98,3.79-3.94,1.82.04,3.45,1.65,3.39,3.34-.09,2.2-1.63,3.56-4.06,3.57Z"/>
    <path class="cls-1" d="m478.97,400.08c.62,1.47,1.04,2.61,1.57,3.69,1.48,3.02.57,5.48-1.58,7.78-.86.92-1.91,1.33-2.91.85-2.46-1.17-4.8-2.53-5.75-5.41-.58-1.77-.28-3.27,1.1-4.41.92-.75,2.02-1.38,3.15-1.75,1.26-.41,2.63-.47,4.42-.75Z"/>
    <path class="cls-1" d="m539.48,397.24c-.16,1.64-.42,3.46-2.52,4.43-1.86.85-3.46.64-4.62-.96-1.31-1.81-2.02-3.85-1.97-6.09.03-1.55.45-2.99,1.99-3.72,1.56-.74,4.13-.11,5.24,1.19.87,1.02,1.84,3.54,1.87,5.16Z"/>
    <path class="cls-1" d="m279.45,232.25c-.24-.05-1.07-.11-1.83-.37-1.17-.4-1.63-1.41-1.79-2.54-.16-1.16.17-2.12,1.23-2.82,2.5-1.64,4.4-1.51,6.18.54.76.87,1.24,1.81.74,2.99-.52,1.21-1.37,2.03-2.73,2.2-.4.05-.82,0-1.8,0Z"/>
    <path class="cls-1" d="m193.98,215.69c0,1.3-.77,2.36-2,2.73-1.42.42-3.06.05-3.61-1.07-.58-1.19-.99-2.51-1.2-3.82-.08-.47.52-1.32,1.02-1.56,2.44-1.19,5.78,1.01,5.8,3.72Z"/>
    <path class="cls-1" d="m372.64,207.42c1.41-.04,2.37.56,2.46,1.53.15,1.67-1.12,3.37-2.63,3.51-1.36.12-2.54-.95-2.67-2.43-.14-1.58.92-2.56,2.84-2.61Z"/>
    <path class="cls-1" d="m166.99,538.91c2.81.06,6.53,4.99,5.58,7.55-.4,1.07-1.36,2.01-2.27,2.78-.77.65-1.84.53-2.7-.04-1.95-1.29-3.73-2.72-4.61-5.05-.93-2.48-.1-4.33,2.45-4.99.53-.14,1.08-.18,1.54-.25Z"/>
    <path class="cls-1" d="m284.36,601.02c1.64-2.06,2.67-3.86,4.89-4.36,1.81-.41,2.89-.14,3.95,1.32.65.89,1.33,1.87.82,3.01-.6,1.35-1.86,1.41-3.15,1.33-1.36-.08-2.75-.02-4.09-.21-.72-.1-1.39-.61-2.41-1.1Z"/>
    <path class="cls-1" d="m193.96,597.5c-.08,1.53-1.82,2.91-3.46,2.73-1.95-.21-3.63-2.29-3.5-4.34.09-1.55,1.48-2.78,3.01-2.69,2.39.14,4.07,1.98,3.95,4.3Z"/>
    <path class="cls-1" d="m679.83,391.77c0,.68.07,1.37-.02,2.03-.17,1.27-1.06,2.12-2.43,2.42-1.32.29-2.25-.17-2.96-1.55-1.23-2.38-1.77-4.87-.91-7.5.59-1.81,2.3-2.44,3.93-1.45,1.35.82,2.23,2.01,2.41,3.6.09.8.02,1.62.02,2.44h-.04Z"/>
    <path class="cls-1" d="m518.42,434.31c-2.46-.72-4.87-.43-7.21.5-2.33.92-4.74,1.32-7.23,1.32-2.61,0-5.19.19-7.58,1.45-.29.15-.75-.03-1.16-.06.12-.34.15-.74.28-.77,3.16-.76,6.11-2.23,9.5-2.28,1.7-.02,3.41-.9,5.07-1.49,1.17-.42,2.44-1.2,3.52-.52,1.27.8,2.05-.47,3.4-.22.38.58.89,1.34,1.41,2.12,0,.02,0-.06,0-.06Z"/>
    <polygon class="cls-1" points="520.46 415.41 520.19 415.22 520.5 415.13 520.46 415.41"/>
  </g>
</svg>