<?xml version="1.0" encoding="UTF-8"?>
<svg id="Laag_1" data-name="Laag 1" xmlns="http://www.w3.org/2000/svg" viewBox="0 0 850.39 850.39">
  <defs>
    <style>
      .cls-1 {
        fill: #131f48;
      }

      .cls-1, .cls-2 {
        stroke-width: 0px;
      }

      .cls-2 {
        fill: #a5d6af;
      }
    </style>
  </defs>
  <path class="cls-2" d="m675.77,290.83s-31.93,142.15-20.13,294.64c12.27,158.58-268.84,195.94-325.39,60.85-62.85-150.15-25.12-314.37-32.87-385.07-14.04-128.03,118.01-158.69,270.35-116.15,152.34,42.54,108.04,145.73,108.04,145.73Z"/>
  <g>
    <path class="cls-1" d="m400.35,161.1c.7-2.4,1.3-4.93,2.17-7.35,1.69-4.66,4.55-8.47,9.16-10.54,3.75-1.68,7.7-2.79,11.9-2.63,2.05.08,4.11.14,6.16.21,5.84.19,10.84,2.58,15.37,6.05,3.11,2.39,4.59,5.69,4.81,9.56.09,1.64.04,3.29.18,4.92.08.92.42,1.81.65,2.75,1.11.18,2.05.48,2.99.47,4.53-.05,8.98.83,13.47,1.03,3.27.14,6.56-.06,9.83,0,2.05.03,4.1.18,6.13.43,4.11.5,8.21.23,12.31-.1.82-.07,1.64-.33,2.44-.26,4.49.39,8.96.87,13.45,1.3,1.23.12,2.46.12,3.69.23,1.9.16,3.8.37,5.71.53,1.09.09,2.19.18,3.28.2,6.71.12,13.41.25,20.12.31,4.11.04,8.22.04,12.32-.09,8.67-.28,17.22.78,25.75,2.09.94.14,1.87.42,2.79.67,3.7.97,7.43,1.82,11.07,2.97,4.83,1.52,8.98,4.15,11.61,8.61,2.29,3.89,4.25,7.94,5.04,12.48.4,2.27.56,4.58.8,6.84.45,4.19.81,8.41.98,12.64.19,4.91.07,9.83.31,14.74.23,4.77.06,9.56.07,14.34,0,2.05.07,4.1.04,6.14-.1,6.69-.33,13.37-.33,20.06,0,6.02.27,12.04.34,18.07.03,2.18-.18,4.36-.27,6.55-.04,1.09-.16,2.19-.08,3.28.43,6.28.33,12.56.05,18.85-.13,2.84.13,5.7.2,8.55.02.68,0,1.37,0,2.05-.03,4.1-.02,8.2-.11,12.29-.15,6.7-.36,13.39-.54,20.09-.09,3.4-.2,6.8-.28,10.2-.17,6.56-.36,13.12-.47,19.68-.09,5.33-.07,10.67-.08,16.01,0,2.87.05,5.75.07,8.62,0,2.46.05,4.93-.03,7.39-.09,2.73-.4,5.45-.47,8.18-.2,7.78-.47,15.57-.41,23.35.03,3.39-.39,6.8.13,10.19.1.65-.19,1.35-.23,2.02-.14,2.45-.35,4.91-.34,7.36.05,7.66.15,15.31-.72,22.94-.31,2.71-.16,5.47-.14,8.21.06,10.26.21,20.51.22,30.77.01,7.52-.18,15.05-.19,22.57-.02,9.02.09,18.05.07,27.07-.01,6.16-.21,12.31-.21,18.47,0,6.7.31,13.41.19,20.11-.09,4.8.48,9.55.65,14.32.23,6.41,1.07,12.79.51,19.23-.23,2.58.07,5.2.03,7.8-.08,5.47-.13,10.94-.38,16.4-.13,2.86-.58,5.72-1.01,8.55-.14.92-.59,1.83-1.07,2.65-2.4,4.16-5.22,8.03-8.64,11.42-2.4,2.39-5.39,3.73-8.61,4.55-2.25.58-4.53,1.09-6.82,1.45-1.19.19-2.52.25-3.65-.08-4.03-1.18-8.18-.94-12.25-1.02-5.72-.11-11.46.37-17.19.63-4.24.19-8.47.46-12.71.67-5.22.27-10.38-.52-15.56-1.03-.82-.08-1.63-.25-2.44-.28-9.03-.27-18.08-.39-27.07.61-5.87.65-11.74.63-17.62.8-2.6.07-5.19.38-7.79.4-10.27.1-20.54.2-30.81.18-5.33,0-10.66-.29-16-.37-4.64-.07-9.28-.05-13.92-.06-5.34-.01-10.67,0-16.01-.02-.55,0-1.09-.1-1.64-.11-4.21-.05-8.34-.97-12.64-.36-3.19.45-6.54-.27-9.82-.45-2.59-.14-5.21.33-7.75-.51-.25-.08-.54-.07-.82-.08-7.93-.1-15.86-.17-23.79-.31-2.46-.04-4.92-.41-7.38-.4-5.74.01-11.48.29-17.22.22-5.46-.07-10.92.36-16.38-.34-2.4-.31-4.9.19-7.35.14-4.65-.1-9.31-.21-13.96-.55-5.19-.37-10.39-.97-15.32-2.7-3.76-1.32-7.29-3.24-10.07-6.18-2.15-2.27-4.11-4.73-6.01-7.22-.81-1.06-1.38-2.37-1.82-3.65-1.58-4.53-2.76-9.17-3.28-13.94-.49-4.48-.93-8.97-1.14-13.47-.21-4.5-.13-9.02-.13-13.52,0-.95.12-1.92.36-2.84.97-3.75.99-7.49.73-11.36-.37-5.45-.17-10.94-.15-16.41.01-4.37.1-8.75.18-13.12.04-2.19.09-4.38.23-6.56.13-2.04.16-4.06.02-6.12-.21-2.99.18-6.01.26-9.02.09-3.28.24-6.57-.43-9.82-.14-.66-.09-1.36-.09-2.05-.07-5.6-.17-11.21-.2-16.81-.06-12.86-.21-25.72-.08-38.58.06-5.89.04-11.77-.05-17.66-.1-6.42.23-12.86.2-19.28-.02-5.2-.41-10.39-.43-15.59-.01-5.32-.6-10.62-.11-15.96.26-2.84.02-5.74-.06-8.61-.15-5.47.37-10.92-.02-16.41-.41-5.85-.17-11.74-.28-17.62-.04-2.05-.35-4.1-.4-6.15-.14-5.88-.53-11.79-.22-17.65.24-4.64.52-9.27.69-13.92.24-6.55.53-13.1.73-19.66.17-5.6-.45-11.21.17-16.82.36-3.25.17-6.58.71-9.79.87-5.18.78-10.38.81-15.56.07-9.3,0-18.62-.82-27.89-.54-6.14-.67-12.29-.95-18.44-.14-3.13-.49-6.27-.86-9.38-.85-7.08-.96-14.2-.99-21.3-.03-7.51-.07-15.05.6-22.54.39-4.36.87-8.74,1.73-13.02.61-3.05,1.52-6.2,3.05-8.88,1.46-2.54,3.58-4.97,5.97-6.63,5.43-3.78,11.46-6.39,18.2-6.99,1.22-.11,2.41-.51,3.63-.68,1.76-.25,3.53-.58,5.3-.61,6.7-.12,13.41-.06,20.11-.2,3.28-.07,6.55-.45,9.83-.67,4.76-.31,9.52-.59,14.28-.9,1.78-.12,3.55-.31,5.32-.46.55-.05,1.09-.17,1.64-.15,4.08.15,8.17.33,12.25.47,1.23.04,2.47.03,3.69-.09,3.55-.35,7.09-.32,10.63,0,.27.02.55,0,.82-.01,4.64-.27,9.31-.34,13.92-.89,2.88-.34,5.73-.3,8.6-.4,2.86-.11,5.72-.47,8.58-.61,4.1-.21,8.2-.33,12.3-.49,1.48-.06,3.03.3,4.48-.74Zm-133.83,55.09c.24,1.5.58,2.8.62,4.12.17,5.32.28,10.65.35,15.98.05,3.67-.05,7.35,0,11.02.03,2.73.4,5.47.25,8.19-.25,4.66.55,9.26.47,13.9-.08,4.1-.3,8.2-.49,12.29-.09,2.05-.26,4.1-.35,6.15-.07,1.64-.02,3.28-.13,4.91-.23,3.55-.58,7.09-.79,10.64-.49,8.33-.25,16.67.03,25,.16,4.65.4,9.29.39,13.94,0,4.79-.26,9.58-.39,14.37-.12,4.38-.06,8.77-.39,13.13-.41,5.34-.7,10.65.18,15.96.11.67.06,1.37.06,2.05,0,5.73.02,11.46,0,17.2-.01,3.28-.09,6.57-.13,9.85-.07,5.06-.17,10.12-.18,15.18,0,2.6.19,5.19.22,7.79.03,2.73-.06,5.46-.03,8.19.07,5.87-.2,11.73-.03,17.62.16,5.73-.48,11.48-.8,17.22-.21,3.82-.86,7.62-.2,11.46.09.53,0,1.09-.02,1.64-.08,3.28-.16,6.57-.25,9.85-.13,4.5.18,9.03-.69,13.5-.13.65.01,1.36.04,2.04.37,8.61.87,17.22,1.05,25.84.11,5.05-.27,10.12-.46,15.17-.03.82-.25,1.63-.33,2.44-.08.81-.12,1.63-.13,2.44-.02,4.92,0,9.85-.04,14.77-.04,4.65-.52,9.33-.13,13.94.4,4.64.41,9.28.47,13.91.1,7.51.18,14.99,1.88,22.62.61-.31,1.24-.52,1.74-.89,2.32-1.7,4.67-3.48,7.45-4.22,3.99-1.07,4.78-.68,6.41,2.97.22.5.42,1.02.56,1.54,2.22,8.46,3.87,17.03,5.19,25.68.47,3.09,1.33,6.12,2.1,9.16.97,3.86,4.11,5.31,7.48,6.16,1.95.49,4.1.53,6.13.34,5.05-.45,10.06-.81,15.09.12.92.17,1.91-.05,2.87-.07.82-.02,1.66-.15,2.45,0,5.43,1.08,10.93.56,16.39.78,6.68.27,13.36-.92,20.06-.1.4.05.82,0,1.23-.01,9.45-.09,18.89-.18,28.34-.26,10.25-.09,20.5-.16,30.75-.29,8.61-.11,17.22-.4,25.84-.4,4.78,0,9.56.53,14.35.63,6.7.13,13.35.99,20.09.91,9.71-.12,19.43.52,29.15.64,10.4.13,20.81.09,31.21,0,5.33-.05,10.66-.27,15.97.26,1.22.12,2.45.46,3.66.41,6.29-.28,12.58-.65,18.87-1,1.87-.1,3.75-.24,5.76-.36.16-1.17.4-2.1.4-3.03-.05-9.85-.13-19.7-.22-29.55-.01-1.64.03-3.29-.14-4.92-.69-6.94-1.21-13.87-.57-20.85.25-2.71.14-5.45.22-8.18.18-5.72-.2-11.45-.36-17.18-.02-.68-.1-1.36-.09-2.04.11-5.19.31-10.38.35-15.58.02-3.55-.18-7.1-.26-10.65-.08-3.82.05-7.65-.23-11.46-.81-10.8-.37-21.6-.27-32.4.06-6.56.9-13.08,1.01-19.66.15-8.48.08-16.96.05-25.43-.03-12.72-.17-25.45-.22-38.17,0-2.19.14-4.37.24-6.56.1-2.18.44-4.38.3-6.54-.26-4.1.11-8.18.12-12.27.05-9.44.67-18.88.1-28.33-.04-.68.07-1.37.07-2.05,0-2.87,0-5.74-.01-8.61,0-1.64-.07-3.28-.07-4.91,0-3.42.09-6.85-.01-10.27-.11-3.68-.37-7.34,0-11.02.15-1.47-.15-2.99-.26-4.49-.05-.68-.34-1.39-.21-2.03.78-3.93.43-7.9.6-11.85.23-5.34.08-10.66,0-15.99-.05-3.41-.24-6.82-.48-10.22-.36-5.31-.87-10.62-1.2-15.93-.2-3.27-.22-6.56-.26-9.84-.1-7.94,1.36-15.82.93-23.79-.11-2.02.36-4.08.57-6.12.06-.54.23-1.1.16-1.63-.43-3.27-.22-6.51-.11-9.79.13-3.95-.41-7.92-.69-11.87-.04-.53-.24-1.05-.38-1.63-2.59-1-5.15-.55-7.68,0-1.6.35-3.17,1.12-4.77,1.16-3.12.08-6.25-.12-9.37-.37-5.05-.4-10.09-.94-15.14-1.43-2.86-.28-5.72-.6-8.58-.89-.95-.1-1.91-.21-2.86-.24-1.01-.03-2.07-.38-3.41.19.77.7,1.22,1.2,1.75,1.59,2.35,1.69,4.26,3.82,6.12,6.01,2.62,3.07,4.46,6.55,5.61,10.4.98,3.29-.78,6.04-4.23,6.47-3.12.39-6.26.61-9.4.83-1.91.14-3.82.11-5.73.2-3,.15-6.01.47-9.01.49-6.02.05-12.03-.13-18.05-.62-5.7-.46-11.47,0-17.21-.22-3.42-.13-6.84.06-10.26-.02-12.45-.3-24.89-.69-37.34-.95-5.33-.11-10.67.05-16.01,0-3.01-.03-6.02-.24-9.03-.35-1.35-.05-2.71-.03-4.06-.06-4.92-.13-9.83-.41-14.75-.37-2.98.03-5.96.54-8.94.84-3.7.37-7.39.2-11.06-.23-4.23-.5-8.47-.57-12.72-.2-4.63.4-9.25.87-13.89,1.19-2.32.16-4.68-.15-6.97.11-6.57.74-13.12-.21-19.69-.04-2.03.05-4.09-.36-6.11-.7-2.29-.38-3.39-1.57-3.48-3.84-.05-1.21.22-2.44.37-3.66.79-6.45,3.98-11.51,9-15.51.4-.32,1.03-.5.62-1.44-8.44-.23-16.98-.66-25.52-.63-8.74.03-17.47.52-26.5.81Zm201.97-13.32c.61.13,1.01.3,1.4.29,4.78-.04,9.58-.49,14.3.67.39.1.82.04,1.23.05,3.97.12,7.94.18,11.91.38,3.41.17,6.82.43,10.22.78,2.87.29,5.63,1.12,8.32,2.2,2.54,1.02,5.13,1.9,7.72,2.79.77.26,1.6.45,2.4.47,6.69.15,13.4.02,20.03,1.23.4.07.83.16,1.23.11,3.87-.44,7.62.55,11.43.84,2.32.18,4.64.47,6.96.6,2.17.12,4.37.31,6.52.09,2.29-.23,4.57-.78,6.79-1.42,2.91-.84,5.72-.4,8.51.39,2.01.57,3.26,1.93,3.38,4.15.07,1.37.29,2.73.32,4.1.15,6.84.27,13.67.39,20.51,0,.41-.03.82-.06,1.23-.5,8.46-1.1,16.92-1.47,25.39-.21,4.91-.23,9.85,0,14.76.26,5.59.97,11.17,1.32,16.76.27,4.36.21,8.74.45,13.11.44,7.8.43,15.58-.29,23.36-.1,1.08-.18,2.2-.02,3.26.41,2.73.54,5.43.03,8.17-.17.93-.05,1.91-.03,2.87.19,7.79.41,15.57.55,23.36.05,2.46-.35,4.95-.14,7.38.56,6.42-.65,12.84.11,19.25.03.27-.05.55-.05.82-.14,4.37-.46,8.74-.37,13.11.19,8.76-.73,17.49-.66,26.25.03,3.55-.07,7.11.12,10.66.14,2.6.4,5.22.19,7.8-.35,4.23.11,8.44.04,12.67-.09,5.07.2,10.14.14,15.2-.11,8.34-.13,16.68-.75,25.01-.32,4.22-.28,8.46-.48,12.67-.24,4.93-.4,9.83-.14,14.76.2,3.96.33,7.92.47,11.88.1,2.6.17,5.19.25,7.79.14,5.06.16,10.13.42,15.18.39,7.25-.96,14.49-.12,21.74.06.53-.15,1.09-.17,1.63-.05,1.77-.08,3.55-.08,5.32.01,3.82.23,7.64.04,11.45-.29,5.89-.31,11.76.05,17.65.39,6.41.8,12.83.92,19.25.15,8.03-.3,16.06.09,24.1.14,2.9-1.57,4.31-4.51,3.56-2.06-.53-4.08-.37-6.11-.34-1.5.02-3,.26-4.51.31-5.6.19-11.17.84-16.8.54-5.33-.28-10.67-.34-16.01-.4-2.46-.03-4.92.31-7.38.29-10.69-.08-21.38-.23-32.07-.35-2.19-.03-4.39,0-6.58-.08-4.92-.17-9.84-.58-14.76-.55-8.37.06-16.7-.54-25.04-.96-5.18-.26-10.36-.8-15.56-.19-.54.06-1.09-.05-1.64-.05-4.1-.07-8.2-.24-12.29-.17-7.4.13-14.79.45-22.18.61-5.06.11-10.13.11-15.2.09-4.38-.02-8.77-.03-13.14-.23-7.11-.33-14.2,1.28-21.31.06-.27-.05-.55,0-.82,0-3.42.06-6.85.12-10.27.19-10,.19-19.99.09-29.94-.97-3.44-.37-6.88-.26-10.23.17-4.03.52-7.88.21-11.78-.66-1.06-.24-2.19-.47-3.25-.35-2.28.27-3.94-.73-5.54-2.14-5.45-4.83-10.29-10.2-14.37-16.25-2.37-3.51-4.59-7.19-7.42-10.3-2.07-2.27-2.62-4.68-2.78-7.44-.14-2.32-.29-4.64-.44-6.96-.12-1.77-.29-3.54-.35-5.32-.25-8.05-.46-16.11-.68-24.16-.04-1.37-.14-2.74-.14-4.1,0-5.06,0-10.13.05-15.19.07-7.66-.09-15.32.53-22.99.48-5.99.28-12.04.23-18.06-.04-3.96-.42-7.92-.53-11.88-.2-6.84-.22-13.68.06-20.52.23-5.47.29-10.94.47-16.41.15-4.79.35-9.57.54-14.36.11-2.73.34-5.46.37-8.19.06-5.06-.02-10.12,0-15.18.02-4.23.19-8.46.16-12.69-.04-7.11-.33-14.23-.25-21.34.08-7.11.59-14.2.15-21.33-.31-5.05-.12-10.12-.14-15.18-.01-3.83-.05-7.66.02-11.49.07-3.55.3-7.1.4-10.65.15-5.6.32-11.21.36-16.81.04-6.02.01-12.05-.12-18.07-.09-4.09-.58-8.17-.6-12.26-.01-4.64.18-9.29.52-13.92.43-6,1.32-11.97,1.04-18.01-.05-1.09.05-2.2.22-3.28.63-4.07.37-8.17.33-12.25-.08-7.94-.32-15.88-.35-23.82-.02-3.55.36-7.1.45-10.66.09-3.42.07-6.84.02-10.26-.03-2.32-.12-4.64-.3-6.95-.14-1.68-.13-3.26,1.12-4.63,1.25-.13,2.47-.31,3.7-.36,5.74-.24,11.48-.45,17.22-.68.68-.03,1.36-.15,2.05-.19,2.19-.13,4.39-.48,6.55-.3,6.27.53,12.54-.14,18.81.39,3.67.31,7.4-.08,11.09.11,2.16.11,3.99-.37,5.85-1.39,4.96-2.71,10.4-4.16,15.83-5.59,5.22.14,10.34-.92,15.52-1.24,1.64-.1,3.27-.26,4.91-.34,1.36-.06,2.73-.08,4.09-.05,3.42.08,6.83.21,10.24.3,1.79.05,3.49-.32,5.24-1.37-.25-2.06-.49-4.06-.7-5.87-.89-.67-1.64-1.08-2.17-1.68-1.32-1.48-1.11-3.1.53-4.18.78-.52,1.67-.88,2.6-1.36.8-4.15,3.31-6.78,7.38-7.85.84-2.01,1.49-3.97,2.45-5.77,1.03-1.93,2.39-3.67,3.5-5.56.3-.51.19-1.25.28-1.94-5.97-.78-11.68-.4-17.38.53-1.08.18-2.19.34-3.27.27-4.4-.27-8.74.36-13.1.59-9.29.48-18.61.54-27.92.68-4.24.07-8.5-.24-12.73-.07-6.43.26-12.83.84-19.26,1.14-7.66.36-15.29.94-22.98.74-2.7-.07-5.43.34-8.16.11-.79-.07-1.62.23-2.43.38-1.75.32-3.49.85-5.25.95-4.66.27-8.72,2.21-12.78,4.22-4.53,2.23-7.75,5.54-8.87,10.61-.41,1.86-.94,3.71-1.17,5.6-.57,4.75-1.6,9.45-1.49,14.27.01.54-.07,1.1-.2,1.63-.63,2.58-.47,5.14-.19,7.75.2,1.88-.06,3.81-.12,5.71-.03,1.09-.15,2.19-.1,3.28.19,4.5.39,9,.64,13.49.21,3.82.46,7.63.73,11.45.49,6.95,1.25,13.9,1.42,20.86.14,5.86,1.19,11.69.53,17.57.67,3.52.41,7.09.35,10.62-.12,6.29-.53,12.57-.89,18.85-.3,5.17-.88,10.33-1.04,15.5-.25,7.65-.25,15.31-.34,22.97-.03,2.45-.02,4.91-.04,7.36,0,.68-.04,1.37-.11,2.05-1.11,10.79-.9,21.59-.47,32.4.23,5.87.45,11.75.64,17.63.05,1.5-.04,3.01-.04,4.51.02,4.93.07,9.85.09,14.78.02,5.75-.04,11.49.05,17.24.1,6.01.44,12.01.49,18.02.06,7.78.23,15.56-.18,23.35-.32,5.98.43,12-.09,18.01-.16,1.89.25,3.82.24,5.73-.01,3.68-.28,7.37-.17,11.05.08,2.71-.44,5.46.31,8.15-.97,4.89.39,9.8-.22,14.72-.31,2.54-.14,5.16-.03,7.73.28,6.82.91,13.62.7,20.46-.14,4.5-.1,9.01-.19,13.52-.16,8.34-.46,16.68-.5,25.02-.03,5.73.44,11.47.39,17.2-.04,4.34.59,8.77-1.11,12.98-.14.36-.1.8-.09,1.21.11,3.54.34,7.08.32,10.62-.04,5.77.7,11.47,1.78,17.1.84,4.39,2.24,8.51,5.19,12.25,4.45,5.63,9.98,8.82,16.89,9.91,2.7.43,5.44.62,8.16.78,5.74.32,11.48.6,17.22.8,4.23.14,8.47.1,12.7.16,3,.04,6,.15,9,.14,2.59,0,5.19-.13,7.78-.19,2.73-.07,5.49-.38,8.19-.14,6,.53,12.01.58,18.02.61,5.35.02,10.68-.13,16,.6.95.13,1.91.1,2.87.14,3.69.14,7.38.29,11.08.41.95.03,1.92.07,2.85-.08,2.75-.44,5.47-.19,8.19.13.81.09,1.63.28,2.44.29,4.78.05,9.57.05,14.35.1,8.77.08,17.53.18,26.3.28,2.6.03,5.2.05,7.8.1,5.62.1,11.23.33,16.85.29,6.3-.05,12.59-.32,18.88-.51,4.24-.13,8.49-.17,12.72-.43,7.11-.43,14.2-1.24,21.31-1.43,3.73-.1,7.64-1.39,11.29.69.42.24,1.08.05,1.63.07,1.5.06,3.01.15,4.51.18,3.28.07,6.57.14,9.85.16,3.83.02,7.66,0,11.49-.06,3.97-.07,7.96-.03,11.91-.4,7.66-.71,15.3-.51,22.94.06,5.47.41,10.58-.23,14.96-4.12,1.78-1.58,3-3.55,4.62-5.19,3.22-3.26,4.13-7.46,4.28-11.69.34-9.43.34-18.88.35-28.32,0-5.61.14-11.25-.42-16.81-.62-6.29-.49-12.55-.6-18.83-.07-4.1-.12-8.21-.22-12.31-.07-3.28-.53-6.59-.22-9.83.6-6.29.23-12.58.3-18.86.08-7.93,0-15.87.02-23.8.01-6.84.08-13.69.07-20.53,0-9.98-.1-19.96-.06-29.95.01-3.41.33-6.82.48-10.23.15-3.55.32-7.1.38-10.65.09-5.2.09-10.4.15-15.61.02-1.5.1-3.01.17-4.51.34-7.79-.61-15.6.45-23.37.11-.81.14-1.66,0-2.46-.44-2.6-.04-5.17.04-7.76.12-3.83.18-7.66.2-11.49.03-7.12-.06-14.24.04-21.36.08-5.34.59-10.67.52-16-.07-5.75.43-11.48.33-17.22-.14-7.25.98-14.44.51-21.74-.5-7.9,0-15.87.06-23.81.05-6.43.11-12.87.12-19.3.02-13.28.02-26.55.02-39.83,0-2.05-.11-4.11-.1-6.16.03-9.03.14-18.07.12-27.1,0-3-.56-6.01-.45-9,.27-7.46-.78-14.74-2.52-21.94-.81-3.35-2.59-6.37-4.61-9.12-2.08-2.83-5.14-4.43-8.54-5.34-5.14-1.37-10.35-2.45-15.56-3.51-6.51-1.33-13.02-1.54-19.6-1.5-8.63.05-17.27.05-25.9-.06-4.65-.06-9.3-.58-13.95-.54-4.01.03-7.93-.51-11.85-1.08-2.32-.34-4.58-.61-6.93-.57-5.34.1-10.68.01-16.03.07-5.04.05-10.07-1.25-15.11-.05-.25.06-.55-.03-.82-.07-2.16-.32-4.34-.54-6.47-1-1.63-.35-3.18-.72-4.78.12-.24,2.17,1.74,3.32,2.29,5.11.55,1.8.39,3.85,1.8,5.42.75.27,1.52.56,2.3.82,1.8.59,3.06,1.76,3.88,3.45.83,1.71,1.68,3.3,3.48,4.37,1.52.91,1.49,2.95.28,4.33-.61.7-1.39,1.26-2.13,1.92.16,2.4.31,4.69.47,6.96Zm72.28,31.94c-1.39-4.27-3.82-6.42-8.09-6.86-6.02-.62-12.04-.48-18.06-.81-2.87-.16-5.74-.35-8.61-.58-.62-.05-1.22-.35-1.79-.53.15-1.07.75-1.38,1.46-1.45,2.18-.24,4.36-.56,6.54-.62,5.2-.16,10.4-.2,15.61-.29,1.24-.02,2.5-.03,3.16-1.66-.96-1.96-2.76-3.23-4.57-4.39-5.01-3.22-10.76-4.66-16.31-6.57-.64-.22-1.35-.25-2.03-.3-3.41-.24-6.82-.57-10.23-.65-5.33-.12-10.68-.07-15.95-.99-4.09-.71-8.16-.54-12.26-.31-3.4.19-6.88.36-10.23-.1-3.95-.54-7.86-.86-11.84-.78-1.75.03-3.53-.31-5.27-.61-.43-.07-.78-.62-1.12-.91.67-1.45,1.87-1.3,2.92-1.41,2.18-.24,4.38-.27,6.53-.65,2.38-.42,4.42-2.89,4.31-5.28-.18-3.82.13-7.65-.45-11.45-.27-1.76-.5-3.54-.49-5.31.05-5.06-2.7-8.86-5.83-12.26-2.4-2.6-3.73-5.25-3.63-8.77.06-2.04-.26-4.09-.39-6.13-.11-1.76-.9-3.16-2.3-4.18-1.21-.88-2.44-1.82-3.8-2.43-7.16-3.2-14.6-3.3-22.07-1.43-4.12,1.03-6.9,3.99-8.46,7.77-1.12,2.72-2.38,5.53-2.07,8.68.07.75-.35,1.56-.62,2.32-1.22,3.51-3.07,6.7-4.99,9.87-2.29,3.8-3.76,7.92-3.76,12.4,0,3.41.27,6.82.47,10.23.13,2.25,1.27,3.89,3.32,4.8.99.44,2.05.78,3.11.97,3.37.6,6.77.95,10.21.88,1.07-.02,2.16.19,3.21.43.27.06.59.63.58.95-.01.33-.34.8-.65.94-.48.22-1.06.27-1.6.28-3.15.04-6.3.13-9.45.03-7.27-.23-14.51.08-21.77.5-3.41.2-6.84.12-10.26.12-1.92,0-3.84-.22-5.75-.1-5.45.36-10.95.29-16.33,1.47-.66.15-1.36.2-2.05.18-3.9-.08-7.55.94-11.2,2.22-7.79,2.72-14.42,7.03-19.98,13.16-2.8,3.09-3.43,6.66-3.84,10.75,1.05.19,2.07.72,2.79.45,2.85-1.09,5.71-.25,8.56-.38,5.33-.23,10.66.2,16-.19,3.36-.25,6.74-.22,10.11-.68,7.21-.97,14.46-.95,21.72-.28,2.58.24,5.19.25,7.78.18,5.74-.16,11.47-.5,17.21-.64,10.39-.26,20.78,1.02,31.18.21.54-.04,1.09.09,1.64.1,7.25.21,14.49.45,21.74.63,8.21.21,16.42.37,24.64.54,3.15.06,6.3.08,9.44.11,4.24.04,8.49.06,12.73.1,1.36.02,2.75-.04,4.09.17,3.54.56,7.09.57,10.65.5,6.56-.14,13.12-.21,19.67-.73,2.15-.17,4.37-.13,6.73-1.24Zm-263.72,394.29c-3.19,2.36-6.11,4.36-8.85,6.59-2.23,1.82-2.45,3.63-1.1,6.17.63,1.2,1.27,2.42,2.06,3.52,4.07,5.64,8.18,11.26,12.31,16.85.36.49.99.78,1.55,1.2.22-.5.45-.75.41-.96-1.7-10.64-3.25-21.3-5.57-31.82-.08-.36-.35-.68-.82-1.55Zm115.14-434.65c-2.6.14-2.74.21-2.95,1.35-.39,2.14-.29,4.26.12,6.34,2.28.24,3.27-.26,3.28-1.87.02-1.87-.27-3.74-.45-5.83Zm70.38.27c-1.02-.39-1.92-.41-1.94.75-.04,2.16.07,4.33.26,6.48.07.8.79.99,1.76.57.16-2.57.47-5.21-.08-7.8Zm-.51-5.41c.12-.26.49-.7.43-1.07-.07-.5-.41-1-.76-1.39-.22-.24-.75-.45-1.02-.35-.26.09-.53.61-.52.93.04,1.39.55,1.97,1.87,1.88Zm-72.45-.31c.93,0,1.59.2,1.85-.04.77-.69.75-1.53-.22-2.56-.53.84-.96,1.53-1.63,2.6Z"/>
    <path class="cls-1" d="m450.79,452.94c-1.82-1.21-3.03-3.04-5.09-3.65-.59-.17-1.19-1.17-1.33-1.88-.69-3.49-1.27-7.01,0-10.51,3.89-3.21,8.03-1.92,11.47,1.04.81.7,1.6,1.43,2.43,2.1.19.16.52.14,1.03.27.51-.4,1.15-.87,1.76-1.38,1.12-.94,2.34-1.32,3.81-.95,1.38.35,1.44.35,2.91,2.76.47-.15.96-.44,1.47-.45.65-.02,1.6-.06,1.9.32,1.77,2.26,5.38,2.22,6.14,6.04,1.1-1.66,1.63-2.73,2.41-3.55.76-.8,1.89-1.23,3.02-.9,1.15.34,2.23.91,3.57,1.48.23-1.33.43-2.47.68-3.87.78.07,1.51-.06,2.04.21,1.19.61,2.17.59,3.48.13,1.79-.64,2.99-.06,3.75,1.56.78,1.67,1.63,3.02,3.52,3.71,1.32.49,1.29,2.09.16,3-1.52,1.23-3.8,1.44-5.35.35-.88-.62-1.6-1.46-2.4-2.2-3.3,1.93-6.64,2.9-10.29.39-1.52,1.37-3.81.73-5.52,2.07-1.13.89-2.56-.63-3.96.14-1.04.57-2.32.78-3.53.96-1.12.16-2.21-.56-2.55-1.67-.28-.89-.33-1.86-.41-2.81-.04-.54.23-1.13.09-1.62-.13-.45-.57-1.02-.99-1.13-.4-.11-1.19.18-1.36.52-.54,1.08-.9,2.27-1.29,3.42-.91,2.68-1.21,2.82-4.17,1.87-.25-.08-.53-.05-.72-.07-1.08,1.24-2.14,2.45-3.25,3.73.88-.07,1.95.05,2.89-.26,2.38-.79,4.77-.97,7.26-.97,5.46,0,10.93-.19,16.39-.32.82-.02,1.66,0,2.46-.17,5.69-1.17,11.41-.78,17.16-.57,4.64.17,9.3-.18,13.95-.23,4.65-.04,9.3.04,13.95,0,3.55-.03,7.12.03,10.64-.32,3.26-.32,6.51.37,9.77-.23,1.12-.2,2.39.37,3.58.63,1.13.24,1.53,1.16,1.62,2.13.1,1.01-.33,1.94-1.29,2.37-.73.32-1.56.55-2.35.57-5.87.11-11.75-.03-17.61.27-4.52.23-9.01-.32-13.51-.22-.68.02-1.38-.03-2.05.07-5.17.75-10.37.22-15.55.55-.95.06-1.91-.14-2.86-.18-1.63-.06-3.26-.09-4.89-.11-.41,0-.84.2-1.22.12-3.44-.7-6.75.67-10.16.64-6.14-.07-12.25.92-18.43.33-2.27-.22-4.63.22-6.92.58-2.99.46-5.94.66-8.95.07-1.01-.2-2.12.16-3.19.22-2.31.13-3.9-.55-3.71-1.6.3-1.65,1.75-2.01,3.08-2.21,2.15-.32,4.34-.41,6.51-.6Zm1.42-5.78c1.31-.9,1.77-1.87,1.43-3.03-.59-2.07-1.96-3.52-3.95-4.37-.58-.25-1.56.27-1.54.89.05,1.46.21,2.91.33,4.39.85.33,1.5.5,2.07.82.56.32,1.02.79,1.65,1.28Z"/>
    <path class="cls-1" d="m310.45,348.62c-1.55-3.14-1.57-3.35-1.47-5.15.07-1.3.5-2.4,1.48-3.26.82-.72,1.63-1.47,2.52-2.1,2.15-1.52,4.05-1.19,5.67.96.56.74.99,1.57,1.55,2.47,1.06-1.11,1.94-2.15,2.93-3.06,2.12-1.93,3.73-2.11,6.34-.78.61.31,1.15.73,1.94,1.24,1.85-.66,3.84-1.44,5.87-2.06.88-.27,1.89-.38,2.8-.26,1.16.15,1.96.94,2.24,2.13.24,1.04-.15,2.25-1.37,2.67-1.52.53-2.13,1.59-2.64,2.88-.1.25-.22.5-.35.74-1.46,2.62-2.61,2.79-5.13.77-.21-.17-.44-.31-.71-.48-.8-.17-1.09.64-1.65.96-.59.34-1.15.74-1.75,1.08-2.75,1.56-4.92,1.18-6.87-1.21-.52-.63-.97-1.32-1.5-2.05-.86,1.42-1.68,2.76-2.53,4.15.43.92,1.37.61,2.09.62,3.29.02,6.58-.16,9.86-.08,7.94.21,15.88.54,23.82.8,1.64.05,3.28,0,4.92.03,2.46.05,4.93.04,7.38.22,4.23.3,8.46.29,12.69-.05,1.78-.14,3.55-.3,5.33-.34,5.2-.13,10.37-.51,15.52-1.24,1.21-.17,2.46-.09,3.68.01.66.05,1.34.3,1.94.6,1.5.77,1.6,2.82.11,3.66-.92.52-2.02.89-3.08,1-10.62,1.13-21.28,1.77-31.95,1.83-7.52.04-15.04-.45-22.56-.67-7.11-.22-14.21-.48-21.32-.57-3.54-.04-7.08.26-10.62.39-.68.02-1.36-.05-2.04-.09-2.84-.18-5.64-.56-8.54-.28-3.23.31-6.54-.13-9.8-.35-.93-.06-1.88-.38-2.74-.75-.81-.35-1.33-1.17-1.06-2,.18-.54.88-1.17,1.43-1.27,2.15-.39,4.33-.71,6.5-.82,2.87-.15,5.75-.06,8.63-.1.79-.01,1.57-.13,2.43-.2Zm4.07-5.3c.04-.11.07-.22.11-.33-.12.07-.23.15-.35.22.08.04.16.07.25.11Z"/>
    <path class="cls-1" d="m295.65,560.51c.12-2.19.21-4.24.36-6.28.13-1.8.63-3.51,1.61-5.03.93-1.43,2.72-1.57,3.83-.27.62.72,1.08,1.58,1.6,2.38.73,1.13,1.45,2.27,2.41,3.78.44-.99.65-1.61.98-2.17.48-.81.97-1.65,1.6-2.33.57-.61,1.38-.92,2.24-.54.89.4,1.11,1.22.95,2.06-.56,2.95-1.19,5.88-1.79,8.79q1.34.74,3.11.35c-.4-2.13-.38-4.3.63-6.31.36-.73.74-1.47,1.24-2.1.74-.92,1.79-1.25,2.95-.99,1.26.28.99,1.47,1.35,2.51,3.62.37,5.6,3.36,8.02,5.65.54.51.4,1.75.57,2.66.23.08.48.25.73.24,9.43-.32,18.86-.49,28.27.45,1.09.11,2.18.17,3.28.2,5.33.15,10.67.27,16,.43.68.02,1.36.16,2.03.25,2.57.32,5.13.44,7.74.29,4.64-.26,9.31-.25,13.96-.18,1.75.03,3.51.5,5.25.85.94.19,1.91.5,1.97,1.73.04.88-.62,1.54-1.93,1.74-2.98.45-5.95.93-8.95,1.17-2.16.17-4.36-.03-6.54-.07-.55-.01-1.11-.2-1.63-.11-5.76.94-11.44-.72-17.15-.46-5.22.23-10.37-.51-15.55-.59-7.39-.12-14.77-.28-22.16-.4-1.23-.02-2.45.15-3.68.15-2.73,0-5.41-.07-8.14-.6-5.1-.99-10.31-1.3-15.53-1.13-3.22.11-6.24-.69-9.17-1.89-.5-.2-.98-.48-1.43-.79-.9-.62-.95-1.46-.13-2.39.35-.4.78-.74,1.1-1.04Zm6.13,1.29c.25-.17.47-.29.46-.31-.42-.93-.84-1.86-1.31-2.77-.07-.13-.42-.12-.79-.21-.21.85-.43,1.7-.69,2.75.97.22,1.71.39,2.34.53Zm17.4.46c.42.08.77.22,1.11.2.32-.02.64-.2,1.04-.34q-1.04-.8-2.15.14Z"/>
    <path class="cls-1" d="m528.29,298.25c-.67,1.39-1.75,2-2.87,2.52-4.7,2.19-9.18,4.87-14.13,6.49-2.72.89-5.39,1.99-8.11,2.78-2.8.82-5.87,1.36-8.91.66-.8-.18-1.62-.25-2.44-.31-7.05-.51-12.43-3.79-16.14-9.78-1.89-3.05-2.04-6.32-.05-9.27,2.64-3.9,6.41-6.39,11.2-6.78,3.4-.28,6.83-.25,10.18.71,3.67,1.05,7.38,1.88,10.97,3.24,3.69,1.4,7.61,2.17,11.4,3.31,1.83.55,3.64,1.18,5.38,1.97,1.81.82,3.18,2.13,3.51,4.46Zm-46.2-5.6c2.76.4,4.87.75,7,1.01,3.12.38,6.25.65,9.37,1.04,1.08.14,2.15.43,3.18.77,1.54.52,2.34,1.63,2.04,2.65-.28.95-1.13,1.42-2.65,1.45-5.88.12-11.74.04-17.59-.73-.56-.07-1.36-.39-1.73.71.98,1.22,1.97,2.51,3.52,3.2,5.8,2.59,11.73,3.61,17.92,1.4.9-.32,1.82-.59,2.73-.87,4.17-1.28,8.35-2.55,12.51-3.86.74-.23,1.41-.67,2.54-1.22-1.19-.48-1.91-.83-2.66-1.05-1.17-.35-2.43-.47-3.53-.96-3.88-1.71-8.14-2.19-12.05-3.91-2.83-1.24-6.03-1.74-9.12-2.23-3.1-.49-6.28-.67-9.26.76-.66.32-1.17.95-2.23,1.84Z"/>
    <path class="cls-1" d="m324.14,295.63c.29-2.59,1.74-3.99,3.72-4.81,2.01-.83,4.11-1.44,6.18-2.12,1.3-.43,2.64-.73,3.91-1.23,1.53-.6,3.02-1.25,4.72-1.3.66-.02,1.34-.26,1.96-.54,4.92-2.19,10.15-3.23,15.41-4,5.22-.76,10.05.33,14.18,3.86,2.93,2.5,4.43,5.51,3.71,9.41-.1.53-.14,1.13-.41,1.57-2.37,3.91-5.15,7.39-9.58,9.2-4.13,1.68-8.42,2.27-12.82,2.25-3.03-.01-5.91-.47-8.73-1.85-2.67-1.31-5.71-1.84-8.46-3.02-3.88-1.67-7.67-3.57-11.45-5.48-.92-.47-1.63-1.36-2.33-1.96Zm46.97.31c-4.69.27-8.89.58-13.09.74-2.58.09-5.17,0-7.75-.13-.86-.04-1.62-.68-1.56-1.61.04-.59.45-1.45.92-1.66,1.36-.6,2.8-1.12,4.27-1.33,3.93-.56,7.89-.9,11.82-1.42,1.29-.17,2.74-.04,3.91-1.31-.46-.42-.79-.86-1.23-1.1-1.85-1.02-3.88-1.4-5.95-1.19-5.3.54-10.52,1.44-15.46,3.57-1,.43-2.09.63-3.14.93-1.44.42-2.89.83-4.34,1.24-1.83.52-3.67,1.02-5.49,1.58-.61.19-1.37.3-1.5,1.29.25.22.49.58.82.7,2.97,1.02,5.95,2.02,8.95,2.97,2.08.66,4.28,1.01,6.29,1.84,5.7,2.35,11.26,1.66,16.83-.37,2.25-.82,4.13-2.09,5.7-4.74Z"/>
    <path class="cls-1" d="m462.42,348.07c4.77-.12,9.54.21,14.31-.57,1.58-.26,3.27.06,4.9.23,2.6.28,5.18.23,7.77-.19,1.05-.17,2.18-.08,3.24.07,3.51.5,7,1.3,10.52,1.57,3.81.3,7.66.22,11.48.15,5.32-.1,10.61-.71,15.9-1.18,5.29-.46,10.64-.19,15.96-.23,2.05-.02,4.1,0,6.15-.02,1.05,0,1.93.37,2.35,1.32.43.97.04,1.87-.63,2.64-1.18,1.37-2.74,1.66-4.45,1.59-2.86-.13-5.74-.41-8.59-.3-5.16.2-10.4-.07-15.47.82-6.81,1.21-13.62.6-20.43.69-3.25.04-6.5-.79-9.76-1.11-2.44-.24-4.9-.33-7.35-.44-3.41-.15-6.82-.28-10.24-.38-.81-.02-1.63.04-2.43.16-3.39.49-6.79.59-10.21.4-1.22-.07-2.46.13-3.68.12-2.31-.03-4.62-.17-6.94-.17-1.77,0-3.61-.12-5.3.3-3.35.83-6.17-.6-9.1-1.68-.61-.23-.76-1.37-.2-1.74.66-.43,1.41-.95,2.15-1.01,6.66-.54,13.29-1.74,20.02-1.05Z"/>
    <path class="cls-1" d="m310,453.4c2.6-.12,5.19-.32,7.79-.33,5.34-.01,10.68.15,16.02.11,3.42-.03,6.82-.4,10.19.62,1.14.34,2.45.21,3.68.2,7.26-.05,14.52.03,21.75.88,2.17.25,4.38.1,6.57.12,3.83.04,7.67-.06,11.49.14,5.33.29,10.65.78,15.97,1.24,1.69.15,3.25.62,3.85,2.53.36,1.16-.17,2.33-1.35,2.54-.93.17-1.93.29-2.85.13-5.98-1.02-12.03-.52-18.02-.96-3.96-.3-7.91-.53-11.87-.45-4.12.08-8.19-.37-12.28-.7-4.5-.37-9.03-.23-13.54-.39-1.9-.07-3.8-.35-5.7-.53-.68-.06-1.36-.11-2.04-.1-2.6.02-5.2.13-7.8.1-4.24-.05-8.47-.16-12.7-.31-3.14-.11-6.22.88-9.39.41-2.58-.38-5.16-.2-7.76.19-2.59.38-5.21.1-7.72-.7-.73-.23-1.45-.76-1.96-1.35-.76-.87-.16-2.47.94-2.57,4.9-.42,9.8-.8,14.71-1.16.67-.05,1.36.12,2.04.19,0,.05,0,.1,0,.14Z"/>
    <path class="cls-1" d="m400.63,290.29c-1.09,3.39-1.94,5.97-2.75,8.56-.24.78-.34,1.61-.6,2.39-.37,1.13-1.14,1.91-2.34,2.04-1.27.15-2.09-.64-2.53-1.71-.68-1.64-1.25-3.33-1.8-5.01-.63-1.93-1.2-3.87-2.05-6.63-.56,1.46-.97,2.11-1.05,2.8-.44,3.79-.72,7.61-1.24,11.39-.18,1.31-.77,2.63-1.43,3.81-.93,1.64-3.12,1.5-3.95-.22-.33-.7-.47-1.58-.41-2.36.14-1.77.49-3.51.72-5.28.55-4.34,1.01-8.69,1.65-13.01.38-2.56.95-5.11,1.6-7.62.27-1.03.87-2.02,1.51-2.89,1.08-1.44,3.2-1.51,4.26-.08.71.95,1.19,2.14,1.49,3.3.67,2.51,1.13,5.08,1.73,7.61.19.78.54,1.52.79,2.21,1.15.24,1.26-.59,1.48-1.15,1.06-2.67,2-5.39,3.12-8.03.53-1.24,1.24-2.46,2.1-3.5,1.27-1.52,3.69-1.11,4.34.76.49,1.4.8,2.93.81,4.4.07,7.98,1.12,15.82,2.9,23.58.3,1.33.48,2.7.58,4.06.09,1.23-.63,2.04-1.75,2.5-.97.4-2.03.17-2.52-.72-.44-.82-.78-1.74-.97-2.66-1.2-5.88-2.35-11.78-3.69-18.55Z"/>
    <path class="cls-1" d="m473.08,343.34c-4.39,3.35-6.2,3.36-10.42.04-.93.93-1.75,2.04-2.83,2.73-.87.56-2.05.66-3.12.86-.52.1-1.16.12-1.6-.11-1.35-.7-2.59-1.18-4.21-.67-.84.26-1.92-.4-2.25-1.42-1.02-3.23-2.52-6.35-2.21-9.89.18-2.05.7-2.65,2.63-3.04,2.51-.5,4.91-.33,7.08,1.12.66.44,1.48.96,1.74,1.64.91,2.29,3.09,3.38,4.4,5.32,3.55-5.13,7.44-5.97,11.79-1,.55-.51,1.22-.94,1.62-1.54.69-1.03,1.49-1.59,2.73-1.17,1.16.4,2.06,1.75,1.63,2.94-.73,2.03-1.66,4-2.68,5.91-.5.93-2.02.98-2.9.17-.57-.52-.95-1.25-1.41-1.89Zm-16.94-1.81c-1.09-.53-1.86-.75-2.42-1.23-.56-.47-.91-1.19-1.82-2.45.39,1.86.57,2.91.85,3.93.1.36.43.65.76,1.12.78-.41,1.53-.8,2.64-1.38Z"/>
    <path class="cls-1" d="m464.74,307.75c-1.31,1.08-2.17,2-3.21,2.6-2.88,1.67-5.7.88-7.23-2.08-.68-1.31-1.02-2.8-1.45-4.23-1.07-3.59-.92-7.29-.93-10.97,0-1.2.39-2.42.74-3.58.3-1,1.33-1.64,2.18-1.55,1.07.11,1.8.77,2.07,1.73.25.9.26,1.88.29,2.83.14,3.68.17,7.37,1.08,10.97.09.37.31.72.47,1.07,1.15.17,1.42-.68,1.7-1.38,1.24-3.08,1.65-6.32,1.82-9.61.06-1.09.07-2.19.26-3.25.24-1.37,1.33-2.38,2.42-2.4,1.02-.02,2.37.98,2.76,2.13.17.51.25,1.06.28,1.6.2,4.66,1.04,9.22,2.04,13.75.06.27.14.53.19.8.24,1.18-.08,2.17-1.1,2.86-1.05.71-2.06.5-3.02-.22-.42-.31-.83-.64-1.38-1.06Z"/>
    <path class="cls-1" d="m418.27,302.46c2.85,1.26,5.13.47,7.36-.5,1-.43,1.91-1.08,2.91-1.51.77-.32,1.77-.4,2.22.39.36.63.49,1.58.32,2.29-.39,1.7-1.7,2.81-3.16,3.6-2.18,1.18-4.49,2.02-7.06,1.75-.82-.08-1.64-.11-2.46-.14-3.26-.13-5.31-1.92-6.51-4.81-1.66-3.99-.89-7.85,1.04-11.47,1.67-3.13,7.25-5.17,10.47-4.11,1.8.59,3.05,2.45,2.89,4.48-.26,3.37-1.98,5.92-4.65,7.86-.97.71-2.04,1.29-3.39,2.14Zm1.6-8.02c-.18-.21-.37-.43-.55-.64-.54.31-1.13.56-1.58.97-.22.2-.19.69-.28,1.04.37.03.86.23,1.08.06.51-.38.89-.94,1.33-1.43Z"/>
    <path class="cls-1" d="m440.88,295.32c-.28.76-.68,1.46-.8,2.21-.31,2.02-.41,4.08-.78,6.1-.24,1.31-.69,2.62-1.26,3.84-.47,1.02-1.49,1.38-2.39,1.15-1-.26-1.67-.9-2.04-1.85-.1-.25-.17-.54-.13-.8.81-5.39.8-10.92,2.52-16.17.13-.39.31-.76.48-1.13,1.34-3.08,4.8-4.04,7.11-.82,1.68,2.34,3.11,4.84,3.94,7.62,1.13,3.79,2.19,7.61,3.26,11.42.41,1.47-.01,2.53-1.19,3.15-1.27.68-2.87.39-3.55-.99-.9-1.82-1.57-3.77-2.17-5.72-.48-1.56-.62-3.23-1.07-4.8-.33-1.13-.4-2.49-1.93-3.21Z"/>
    <path class="cls-1" d="m301.01,577.27c1.09-.06,2.18-.07,3.26-.18,7.9-.81,15.78-1.02,23.6.81,1.31.31,2.73.08,4.06.32,1.03.19,2.14.55,2.94,1.19.51.4.7,1.43.71,2.18,0,.89-.71,1.54-1.6,1.56-2.31.07-4.69.36-6.92-.07-7.31-1.4-14.64-1.66-22-.84-3.04.34-5.63-.78-8.25-1.89-.45-.19-.89-1.15-.79-1.66.1-.52.79-1.19,1.34-1.31,1.18-.27,2.42-.24,3.64-.34,0,.08.01.15.02.23Z"/>
    <path class="cls-1" d="m447.53,361.77c1.41.21,2.9.37,4.37.67,2.18.44,4.34.54,6.52.02.8-.19,1.72-.58,2.41-.35,3.07,1.01,5.9-.31,8.83-.63,1.73-.19,3.53.08,5.28.28.64.07,1.3.45,1.84.85,1.49,1.09,1.22,3.35-.52,3.95-.86.29-1.91.41-2.78.2-1.53-.37-2.97-.17-4.46.11-2.41.45-4.79.85-7.32.52-1.98-.26-4.06.34-6.1.34-1.48,0-2.98-.27-4.43-.61-1.99-.47-3.95-1.09-5.9-1.71-.63-.2-1.24-.55-1.79-.93-.7-.49-.49-1.78.34-2,1.18-.3,2.4-.46,3.72-.7Z"/>
    <path class="cls-1" d="m312.1,471.74c-3-.13-6.01-.21-9-.42-1.76-.12-3.53-.38-5.26-.76-.75-.16-1.48-.7-2.07-1.23-1.15-1.05-.64-2.89.93-3.12,2.02-.3,4.09-.51,6.12-.46,4.91.12,9.82.41,14.73.63,1.92.09,3.84.11,5.75.26,2.27.18,3.46,1.21,3.4,2.77-.06,1.44-1.51,2.59-3.55,2.8-.27.03-.55,0-.82-.02-3.41-.12-6.83-.25-10.24-.37v-.08Z"/>
    <path class="cls-1" d="m441.29,465.83c4.34-.33,8.67-1.66,13.21-1.42,4.24.22,8.46.18,12.69-.46,2.27-.34,4.63-.13,6.95-.07.65.02,1.34.3,1.92.62,1.38.78,1.36,3.1-.1,3.71-1.1.46-2.36.61-3.56.75-2.44.29-4.88.6-7.33.68-3,.1-6.04.26-8.99-.15-2.74-.38-5.43-.44-8.17-.36-1.92.06-3.86.09-5.63-.81-.89-.45-1.61-1.09-1-2.49Z"/>
    <path class="cls-1" d="m468.58,539.38c-3.97-.86-8.32-.42-12.67.12-3.05.38-5.54-1.11-8.1-2.33-.74-.35-.58-1.69.25-2,.87-.33,1.81-.54,2.73-.63,2.57-.25,5.16-.41,7.74-.6,1.77-.13,3.54-.34,5.31-.35,3.95-.02,7.91.06,11.87.1,1.37.01,2.73.07,3.94.86,1.12.73,1.36,2.24.35,3.15-.58.52-1.35,1.09-2.08,1.15-2.97.27-5.97.36-9.34.54Z"/>
    <path class="cls-1" d="m442.16,379.38c.57-.44,1.11-1.07,1.8-1.35,2.17-.89,4.45-1.17,6.81-1.26,5.86-.22,11.72-.58,17.58-.94.8-.05,1.56-.49,2.36-.59,1.07-.14,2.17-.25,3.23-.14,1.01.11,1.69.86,2.01,1.83.3.93-.25,2.29-1.31,2.73-1.5.62-3.08,1.28-4.67,1.44-5.15.49-10.3,1.1-15.51.24-3.08-.51-6.27-.38-9.4-.55-1.05-.06-2.22.13-2.89-1.4Z"/>
    <path class="cls-1" d="m316.46,495.37c-5.97-.43-11.94-.85-17.9-1.3-1.81-.14-3.44-.82-4.87-1.91-1.13-.86-.87-2.58.52-2.85,1.85-.36,3.77-.54,5.65-.51,2.44.05,4.87.43,7.3.6,4.07.28,8.15.5,12.22.76.81.05,1.64.11,2.43.3.65.16,1.28.47,1.86.82.86.52,1.43,1.68,1,2.43-.36.64-1.04,1.21-1.71,1.54-.57.27-1.33.19-2.01.18-1.5-.03-3-.12-4.49-.19,0,.04,0,.08,0,.12Z"/>
    <path class="cls-1" d="m310.72,611.33c-2.19,0-4.37.01-6.56,0-1.47-.01-2.68-.67-3.47-1.85-.32-.48-.41-1.29-.26-1.87.09-.35.83-.72,1.3-.75,7.21-.42,14.42-.83,21.6-1.61,1.87-.2,3.81.11,5.71.28.66.06,1.39.26,1.92.64.49.35.93.99,1.03,1.56.07.4-.37,1.15-.76,1.31-1.24.51-2.55,1.06-3.86,1.16-3.26.24-6.49.29-9.72,1.12-2.18.56-4.61.11-6.93.11,0-.03,0-.07,0-.1Z"/>
    <path class="cls-1" d="m295.28,377.26c.48-1.42,1.52-1.86,2.57-2.08,1.32-.27,2.69-.31,4.04-.4,4.61-.33,9.2.23,13.8.31,1.91.03,3.81-.02,5.72-.04,1.16-.02,2.13.43,2.95,1.2,1.35,1.26.96,3.31-.75,4-.5.2-1.05.4-1.57.4-3.8-.03-7.6.03-11.38-.22-3.92-.25-7.83-.79-11.74-1.25-1.35-.16-2.71-.41-3.63-1.92Z"/>
    <path class="cls-1" d="m319.03,511.54c-4.1-.14-8.21-.12-12.29-.47-3.67-.31-7.31-1.02-10.96-1.58-.53-.08-1.13-.21-1.51-.54-.36-.32-.65-.94-.63-1.41.02-.46.41-.98.77-1.33.26-.25.75-.35,1.14-.38,2.99-.2,5.93-.63,8.99-.33,4.62.45,9.29.36,13.94.58,1.21.06,2.45.25,3.6.62,1.26.4,1.89,1.72,1.65,2.95-.2,1.06-1.09,1.92-2.27,2.05-.81.09-1.64.02-2.46.02v-.17Z"/>
    <path class="cls-1" d="m308.32,533.86c3.27,0,6.54-.04,9.8.03.92.02,1.92.21,2.73.63.83.43,1.5,1.23,1.38,2.32-.11,1.06-.82,1.8-1.77,2.02-1.17.27-2.41.36-3.62.36-4.22,0-8.45-.25-12.66-.09-2.88.11-5.72,0-8.54-.46-1.04-.17-2.07-.62-3.02-1.12-.85-.44-.82-1.91.03-2.41.68-.41,1.46-.81,2.23-.89,2.7-.26,5.42-.42,8.14-.54,1.77-.08,3.54-.01,5.31-.01,0,.05,0,.11,0,.16Z"/>
    <path class="cls-1" d="m308.92,362.08c3.26-.28,6.54-.49,9.79-.86,1.96-.22,3.82-.05,5.6.78.8.37,1.24,1.03,1.36,1.91.13.98-.49,1.97-1.4,2.21-.26.07-.53.14-.8.15-4.36.26-8.72.56-13.08.75-1.35.06-2.72-.21-4.08-.26-2.18-.09-4.36-.24-6.53-.14-2.24.11-4.33-.39-6.37-1.15-.31-.11-.71-.64-.66-.89.09-.46.39-1,.77-1.27.41-.29,1.01-.38,1.54-.45,4.32-.61,8.63-1.39,13.03-.92.27.03.55,0,.82,0,0,.04,0,.09.01.13Z"/>
    <path class="cls-1" d="m479.9,420.32c-.38.71-.5,1.37-.87,1.56-3.05,1.6-6.24,2.7-9.75,2.8-2.31.07-4.61.53-6.92.54-2.58,0-5.19-.1-7.72-.53-2.14-.36-4.19-1.01-6.42-.64-.99.16-1.16-.11-2-1.63,2.56-1.95,5.27-3.09,8.67-2.68,3.36.4,6.79.83,10.17-.16.51-.15,1.09-.06,1.63-.1,4.22-.26,8.43-.31,13.2.83Z"/>
    <path class="cls-1" d="m443.93,393.87c1.76-1.28,3.69-2.13,5.96-2.17,5.46-.1,10.82-1.6,16.34-1.11,1.33.12,2.71-.43,4.07-.43,1.06,0,2.21.18,3.13.65.59.31,1.02,1.25,1.19,1.98.23.94-.55,1.48-1.33,1.82-2.56,1.12-5.28,1.29-8.02,1.36-2.58.07-5.17.26-7.75.41-.82.05-1.65.24-2.45.18-3.27-.25-6.54-.53-9.8-.89-.87-.1-1.47-.68-1.34-1.8Z"/>
    <path class="cls-1" d="m444.12,495.57c.93-1.94,2.36-1.96,3.68-2.13,3.8-.5,7.6-.94,11.4-1.42,3.12-.4,6.23-.89,9.36-1.22,1.34-.14,2.74-.11,4.06.11,1.32.22,2.04,1.47,1.9,2.77-.15,1.38-.95,2.28-2.34,2.44-5.02.58-10.05,1.09-15.06,1.7-3.76.46-7.33-.59-10.96-1.21-.63-.11-1.19-.59-2.04-1.04Z"/>
    <path class="cls-1" d="m311.91,524.96c-5.36.24-10.65-.27-15.87-1.49-.53-.12-1.09-.15-1.61-.3-.79-.23-1.59-.52-1.66-1.52-.06-.81.79-1.48,2.07-1.56,2.32-.14,4.64-.21,6.96-.31,2.05-.09,4.1-.1,6.14-.28,3.97-.34,7.9.24,11.85.28.41,0,.82.08,1.21.18,1.38.35,2.32,1.38,2.34,2.51.01,1.09-1.03,2.16-2.4,2.4-.53.09-1.09.09-1.64.09-2.46,0-4.92,0-7.38,0Z"/>
    <path class="cls-1" d="m440.92,479.3c.28-.33.47-.71.78-.87.47-.24,1.02-.45,1.54-.47,8.59-.22,17.12-1.97,25.75-.92,1.19.15,2.39.5,3.49.98.97.42,1.54,1.71,1.08,2.37-.42.61-1.16,1.31-1.83,1.39-1.61.19-3.28.2-4.88-.02-2.47-.34-4.88-.06-7.32.15-5.19.45-10.38.46-15.48-.8-1.12-.28-2.45-.44-3.12-1.81Z"/>
    <path class="cls-1" d="m449.88,523.31c.95-.04,1.92.04,2.84-.15,3.37-.71,6.76-.79,10.18-.71,1.48.04,2.98-.28,4.46-.41,2.58-.23,5.16-.46,7.74-.65.54-.04,1.09.02,1.63.11.94.16,1.78,1.04,1.87,1.93.08.89-.28,1.68-1.05,2.06-.96.47-2.03,1.04-3.05,1.04-4.47,0-8.89,1.25-13.42.33-1.96-.4-4.07-.03-6.12-.03-1.63,0-3.26.07-4.88-.07-.92-.08-1.83-.49-2.7-.85-.79-.32-1.53-.93-1.11-1.84.22-.47,1-.81,1.59-.94.64-.14,1.35.03,2.03.06,0,.04,0,.09,0,.13Z"/>
    <path class="cls-1" d="m450.81,552.46c1.37-1.84,3.24-2.05,5.2-2.11,3.13-.09,6.27-.2,9.4-.35,3.7-.17,7.37.12,10.99.91.66.14,1.33.33,1.93.62,1.61.79,1.84,2.63.38,3.61-.76.51-1.72.87-2.62.95-1.35.12-2.78.16-4.08-.16-2.72-.67-5.44-.47-8.15-.27-4.32.32-8.4-.58-12.32-2.3-.22-.1-.34-.41-.72-.9Z"/>
    <path class="cls-1" d="m450.27,564.08c.68-1.36,1.7-2.18,3.14-2.23,1.76-.06,3.57-.12,5.29.2,2.05.38,4.04.36,6.09.21,2.98-.23,5.98-.25,8.97-.3.81-.02,1.63.11,2.44.25.87.16,1.64.69,1.65,1.57,0,.74-.28,1.65-.77,2.18-.93,1-2.13,1.66-3.61,1.66-3.41.02-6.82.19-10.23.08-1.75-.06-3.5-.51-5.22-.93-2.25-.55-4.47-1.21-6.68-1.88-.35-.1-.62-.46-1.07-.82Z"/>
    <path class="cls-1" d="m312.31,596c-3.53,0-7.06.01-10.59,0-.67,0-1.41.01-2-.24-.56-.24-1.13-.76-1.37-1.3-.13-.29.29-1.06.66-1.31.76-.51,1.63-1.07,2.51-1.16,6.9-.68,13.77-1.83,20.73-1.64.95.03,1.91.06,2.85.19,1.35.18,2.13.94,2.21,2,.09,1.25-.74,2.5-1.94,2.78-.65.15-1.35.14-2.03.16-3.68.11-7.35.22-11.03.32,0,.07,0,.15,0,.22Z"/>
    <path class="cls-1" d="m309.46,478.68c3,0,6-.07,8.99.04,1.19.04,2.43.33,3.54.77,1.39.56,1.59,2.42.43,3.37-.51.41-1.17.84-1.79.88-2.58.19-5.17.29-7.76.34-2.72.05-5.44-.13-8.15.02-2.51.14-4.88-.28-7.22-1.07-.82-.27-1.65-.76-1.48-1.66.13-.7.71-1.47,1.31-1.87.63-.42,1.53-.57,2.32-.61,3.27-.15,6.53-.22,9.8-.32,0,.04,0,.08,0,.12Z"/>
    <path class="cls-1" d="m444.25,509.62c1.6-.56,2.44-.97,3.33-1.14,1.6-.31,3.22-.55,4.85-.7,6.1-.58,12.21-1.15,18.32-1.62,1.18-.09,2.44.18,3.58.54.51.16.97.92,1.18,1.51.27.74-.28,1.34-.93,1.6-1.25.5-2.52,1.12-3.83,1.27-6.79.8-13.62.8-20.44.58-1.9-.06-3.72-.3-6.06-2.04Z"/>
    <path class="cls-1" d="m494.95,339.73c.28-.88.61-1.75.83-2.64.23-.92.21-1.92.57-2.77.23-.53.91-1.03,1.49-1.21.83-.25,1.6.17,2.1.91.23.33.41.71.55,1.09.86,2.44,1.72,4.89,2.53,7.35.3.9.54,1.84.66,2.78.17,1.31-.38,2.25-1.4,2.68-.98.42-1.82.03-2.64-1.27-.35-.56-.6-1.19-.86-1.73-1.75.27-3.34.79-4.88.68-1.58-.11-3.11-.85-4.8-1.36-.77-2.52.42-4.69,1.85-6.64,1.15-1.58,3.4-1.41,3.96.97.09.39.07.81.11,1.22-.06.19-.12.39-.19.58.04-.21.08-.42.12-.63Z"/>
    <path class="cls-1" d="m296.66,422.48c1.32-.8,2.85-.64,4.33-.73,2.85-.17,5.71-.22,8.55-.43,3.16-.23,6.25.11,9.32.8,1.38.31,1.76,1.32.97,2.41-.32.44-.74.81-1.03,1.26-1.28,1.99-3.18,2.42-5.34,2.16-2.29-.28-4.57-.64-6.86-.91-2.42-.29-4.85-.55-7.28-.76-2.56-.22-2.96-.76-2.64-3.79Z"/>
    <path class="cls-1" d="m445.09,407.71c.84-1.17,2.09-1.25,3.32-1.25,3.71.02,7.35-.59,11.03-.91,4.2-.36,8.47-.06,12.7.01.96.02,1.93.32,2.21,1.46.23.91-.46,1.88-1.86,2.35-2.08.7-4.24,1.2-6.44.82-2.33-.4-4.61-.34-6.93.02-3.82.59-7.65.45-11.43-.37-1.23-.26-2.43-.6-2.59-2.15Z"/>
    <path class="cls-1" d="m294.3,408.85c1.11-1.2,2.31-1.49,3.53-1.54,4.91-.23,9.8-.89,14.74-.57,2.58.17,5.18.1,7.77.2.67.03,1.36.2,1.98.44,1.04.4,1.25,2.21.25,2.69-1.2.58-2.54,1.13-3.84,1.18-4.51.18-9.02.21-13.53.14-2.59-.04-5.18-.36-7.77-.59-1.42-.12-1.43-.14-3.13-1.95Z"/>
    <path class="cls-1" d="m314.88,396.17c-5.43-.36-10.87-.69-16.3-1.12-1.33-.11-2.66-.5-3.95-.91-.67-.22-1.1-.92-.81-1.64.17-.42.71-.93,1.13-.98,5.14-.59,10.29-1.22,15.48-.67,2.3.24,4.61.36,6.91.64,1.06.13,2.13.43,3.11.84.41.17.9.84.86,1.23-.07.61-.44,1.52-.9,1.68-1.79.6-3.65.95-5.49,1.39-.02-.15-.03-.31-.05-.46Z"/>
    <path class="cls-1" d="m319.39,449.77c-1.33,1.31-2.57,2.11-4.43,2.12-2.82.02-5.65-2.99-4.1-6.78.2-.49,1.09-1.02,1.62-.98,2.14.14,4.39-.65,6.41.74.34.24,1.01.06,1.52-.01,1.34-.21,2.67-.6,4.01-.68,2.24-.13,3.67,1.3,3.67,3.45,0,2.5-1.35,4.14-3.55,4.16-.8,0-1.65-.14-2.39-.44-.87-.35-1.64-.93-2.77-1.58Z"/>
    <path class="cls-1" d="m299.71,446.06c1.18-.18,2.21-.34,3.27-.51.26-1.05.42-1.98.73-2.87.29-.83,1.22-1.21,2.02-.78.69.37,1.51.83,1.84,1.48.93,1.81,1.65,3.74,2.44,5.62.05.12.05.27.06.4.07,1.11.07,2.22-.99,2.94-.92.62-2.26.37-3.32-.61-.49-.46-.91-1-1.29-1.44-1.8-.21-3.04.27-3.83,1.87-.44.89-1.25,1.48-2.37,1.12-1.02-.32-1.56-1.11-1.71-2.11-.45-2.83-.9-5.67-1.2-8.52-.05-.51.51-1.23.99-1.6.57-.45,1.51.1,1.92,1.02.27.62.46,1.28.69,1.93.23.62.47,1.24.77,2.05Z"/>
    <path class="cls-1" d="m343.8,450.2c-1.48.8-2.55,1.35-3.58,1.96-1.04.62-2.03.72-3.04-.05-.57-.44-1.18-.68-1.86-.22-1.36.91-2.36.21-3.17-.81-1.02-1.28-1.94-2.64-2.88-3.98-1.54-2.23-.97-4.44.24-6.53.53-.93,1.5-1.11,2.69-.4.14,1.44.03,3.11.52,4.58.36,1.07,1.51,1.87,2.48,2.98,1.69-1.46,3.02-2.82,2.7-5.18-.05-.35.53-1.01.95-1.14.39-.12,1.02.17,1.4.46.42.32.8.8.98,1.28.87,2.28,1.67,4.58,2.57,7.07Z"/>
    <path class="cls-1" d="m398.55,391.87c1.42-.16,2.51-.42,3.57-.33.55.04,1.28.6,1.51,1.11.23.51.15,1.42-.18,1.87-2.1,2.9-4.61,3.58-7.85,2.05-.94-.45-1.66-.49-2.67-.26-2.52.57-4.38-.72-5.22-3.32-.39-1.21.34-2.13,1.68-2.05.53.03,1.05.24,1.73.41.33-.35.69-.74,1.06-1.11,2.15-2.17,3.32-2.13,5.36.19.35.4.62.88,1,1.44Z"/>
    <path class="cls-1" d="m302.12,342.09c.87-1.85,1.29-2.83,1.79-3.77.58-1.07,1.13-2.19,1.91-3.1.34-.39,1.27-.56,1.83-.42.8.2,1.4.9,1.37,1.82-.03.67-.15,1.37-.39,2-.89,2.42-1.71,4.89-2.81,7.22-1.33,2.81-4.43,3.13-6.29.64-1.76-2.35-2.88-4.98-1.61-8.01.28-.66.73-1.32,1.48-1.12.57.16,1.2.66,1.49,1.18.45.8.63,1.75,1.24,3.55Z"/>
    <path class="cls-1" d="m391.32,583.77c-2.18,0-4.37.05-6.55-.03-.79-.03-1.6-.3-2.34-.62-.9-.38-1.02-1.78-.25-2.42.41-.34.89-.67,1.39-.8,5.1-1.3,10.23-1.46,15.38-.25.26.06.52.16.77.26,1.19.5,1.49,2.41.36,3-1.05.55-2.28.9-3.46,1.01-1.76.17-3.54.04-5.31.04,0-.07,0-.13,0-.2Z"/>
    <path class="cls-1" d="m394.91,412.02c-.46.23-1.14.7-1.9.95-2.56.85-5.25-.45-6.36-2.99-.48-1.09.23-2.32,1.4-2.39.4-.03.83-.02,1.21.09,1.3.38,2.36.02,3.39-.82,1.52-1.23,3.19-1.29,4.98-.49.85.38,1.82.48,2.72.75,1.37.42,2.31,1.5,2.27,2.54-.05,1.31-1.13,2.63-2.6,2.7-1.6.08-3.22-.19-5.11-.34Z"/>
    <path class="cls-1" d="m396.86,604.53c2.7.36,5.15.65,7.57,1.05.86.14,1.53.81,1.53,1.7,0,.61-.33,1.29-.7,1.8-.3.41-.86.74-1.37.85-3.73.82-7.46,1.87-11.28.5-1.16-.41-2.38-.85-2.55-2.34-.14-1.16.84-2.2,2.65-2.68,1.45-.39,2.94-.63,4.16-.88Z"/>
    <path class="cls-1" d="m545.6,514.28c-2.84-.14-5.38-.51-7.65-1.9-.93-.57-1.39-1.63-1.11-2.41.35-.98,1.05-1.55,2.08-1.72.13-.02.28-.08.4-.05,3.49.75,7.04.16,10.54.42.88.06,1.79.6,2.54,1.12.93.65.89,2.15-.04,2.82-.64.46-1.4.88-2.16,1.04-1.59.34-3.22.49-4.6.69Z"/>
    <path class="cls-1" d="m383.72,592.27c1.35-1.06,2.65-2.2,4.07-3.15.51-.34,1.31-.27,1.98-.31,2.98-.18,5.96-.44,8.94-.46,1.46-.01,2.95.36,4.39.72.42.1.84.71,1,1.18.25.76-.31,1.34-.91,1.62-.71.33-1.52.51-2.3.61-1.88.25-3.77.55-5.65.59-3.75.08-7.52.46-11.26.14-.08-.32-.17-.63-.25-.95Z"/>
    <path class="cls-1" d="m397.63,483.01c-1.09,0-2.19.13-3.25-.04-.9-.14-1.85-.49-2.58-1.01-1.27-.91-1.04-3.05.33-3.78.59-.31,1.26-.6,1.91-.63,2.83-.13,5.67-.18,8.51-.22.39,0,.89.11,1.14.37.55.55,1.17,1.15,1.39,1.85.32,1-.23,1.92-1.12,2.38-.82.43-1.76.73-2.68.84-1.2.14-2.44.03-3.66.03,0,.07,0,.14,0,.22Z"/>
    <path class="cls-1" d="m395.73,513.79c-2.13-.31-4.27-.6-6.4-.95-.85-.14-1.69-.63-1.65-1.52.03-.72.48-1.53.98-2.08.41-.45,1.17-.79,1.78-.8,3.25-.05,6.5.01,9.74.04.13,0,.27.04.4.06,1.4.29,2.19.96,2.29,1.96.11,1.08-.72,2.47-1.89,2.85-.75.25-1.59.32-2.39.33-.94.01-1.89-.13-2.84-.21-.01.11-.03.21-.04.32Z"/>
    <path class="cls-1" d="m544.73,563.45c1.78,0,3.56-.06,5.33.03.86.04,1.52.57,1.78,1.46.26.88-.12,2.08-1.08,2.42-4.02,1.42-8.1,2.54-12.29.62-.87-.4-1.7-.98-1.59-2.14.11-1.09.99-2.14,2.11-2.21,1.91-.12,3.83-.03,5.74-.03v-.15Z"/>
    <path class="cls-1" d="m539.04,402.03c2.04-.28,3.92-.44,5.77-.8,2.21-.43,4.36-.13,6.5.32.51.11.98.46,1.42.77.72.51.87,1.62.19,2.13-.85.63-1.79,1.38-2.79,1.55-2.69.44-5.42.66-8.14.83-1.26.08-2.48-.41-3.15-1.57-.67-1.14-.7-2.33.2-3.21Z"/>
    <path class="cls-1" d="m396.67,424.09c-2.43-.05-4.85-.08-7.28-.16-.99-.03-1.83-.41-2.47-1.23-1.02-1.29-.59-2.74.97-3.14,1.17-.3,2.32-.69,3.5-.91.91-.17,1.85-.24,2.78-.2,1.07.05,2.13.31,3.21.39,1.33.11,2.28.83,3.11,1.76.83.95.53,2.61-.66,3.1-.98.41-2.07.56-3.11.82-.02-.15-.03-.3-.05-.44Z"/>
    <path class="cls-1" d="m403.6,542.29c-1.79-.98-3.95-.38-6.09-.32-2,.06-3.72-.67-4.89-2.38-.82-1.2-.25-2.77,1.12-2.75,3.65.04,7.3.16,10.93.47,2.05.18,2.81,1.08,2.67,2.38-.2,1.75-1.56,2.78-3.75,2.6Z"/>
    <path class="cls-1" d="m396.92,520.65c.87-.12,2.07-.3,3.28-.45,1.27-.15,2.42.15,3.37,1.04,1.12,1.05.97,2.67-.4,3.4-1.44.77-2.97,1.36-4.65,1.24-2.28-.15-4.57-.24-6.84-.53-.53-.07-1.2-.73-1.39-1.27-.18-.53-.03-1.41.32-1.85.98-1.21,2.35-1.79,3.93-1.76.68.01,1.35.09,2.37.17Z"/>
    <path class="cls-1" d="m545.84,541.24c-3.17-.19-5.68-1.29-8.19-2.27-.49-.19-.95-1-1.04-1.59-.14-.88.54-1.48,1.33-1.84,1.71-.77,3.5-.38,5.22-.18,2,.23,3.98.76,5.95,1.22.95.22,1.8.69,1.92,1.82.1.98-.65,1.85-2,2.2-1.18.3-2.38.48-3.19.64Z"/>
    <path class="cls-1" d="m538.66,389.78c.96-.49,1.74-1.14,2.61-1.28,3.62-.61,7.26-.81,10.9-.14.13.02.31.03.38.11.41.49.97.95,1.13,1.52.1.38-.27,1.15-.63,1.34-1.44.73-2.91,1.63-4.46,1.86-2.55.37-5.15.05-7.62-.76-1.02-.33-1.98-.92-2.31-2.65Z"/>
    <path class="cls-1" d="m397.47,361.02c.95-.06,1.89-.16,2.84-.18.66,0,1.36,0,1.99.18.84.23,1.39.85,1.5,1.74.11.89-.32,1.62-1.08,2.03-.58.31-1.27.52-1.92.56-2.15.13-4.27.68-6.47.15-1.01-.24-2.15.1-3.23.09-1.45-.01-2.39-.88-2.45-2.17-.05-1.14.58-1.93,1.98-2.1,2.26-.27,4.54-.38,6.81-.56,0,.09.02.17.03.26Z"/>
    <path class="cls-1" d="m542.32,526.58c-2.33-.01-3.94-.19-5.24-1.38-.62-.57-1.19-1.33-.83-2.14.3-.68.96-1.27,1.59-1.7.4-.27,1.04-.19,1.58-.24,1.34-.11,2.69-.13,4.01-.32,1.86-.27,3.49.34,5.01,1.25.71.42,1.24,1.21.89,2.07-.23.56-.77,1.27-1.29,1.4-2.1.5-4.25.8-5.72,1.06Z"/>
    <path class="cls-1" d="m545.43,555.19c-1.75-.35-3.76-.68-5.73-1.19-.56-.14-1.24-.69-1.45-1.22-.35-.89.4-1.55,1.08-1.96.68-.41,1.48-.78,2.26-.85,2.43-.2,4.88-.26,7.32-.35.26,0,.53.1.79.19,1.37.47,1.82,2.33.76,3.34-1.32,1.27-2.89,2-5.02,2.04Z"/>
    <path class="cls-1" d="m544.9,480.73c-2.27-.4-4.55-.75-6.79-1.25-.6-.13-1.14-.69-1.62-1.14-.48-.44-.34-1.38.19-1.79,1.37-1.07,2.97-1.28,4.62-1.13,2.69.24,5.38.55,8.07.85.84.1,1.22,1.13.74,1.9-1.2,1.94-2.96,2.7-5.21,2.55Z"/>
    <path class="cls-1" d="m540.49,491.01c1.33.42,2.79.77,4.16,1.33,1.28.52,2.46,1.11,3.92.69.39-.11,1.25.26,1.35.58.18.56.12,1.35-.14,1.88-.59,1.17-1.71,1.74-3,1.87-.54.05-1.13.09-1.63-.08-2.57-.88-5.13-1.78-7.66-2.79-.38-.15-.75-.88-.73-1.32.02-.44.43-1.06.84-1.26.84-.41,1.8-.58,2.89-.91Z"/>
    <path class="cls-1" d="m390.52,377.55c1.59-.51,3.1-1.02,4.63-1.48,1.85-.57,5.52.64,6.67,2.17.74.98.45,2.66-.71,3.19-.83.37-1.91.72-2.71.5-1.49-.42-2.88-.51-4.39-.27-.62.1-1.34-.18-1.97-.4-1.8-.63-2.05-1.33-1.51-3.69Z"/>
    <path class="cls-1" d="m537.62,378.07c.5-3.01,3.19-3.15,5.2-3.9,2.68-1,4.49-.23,8.03,2.7.1,1.38-.94,1.99-1.97,2.19-1.45.28-2.98.36-4.46.23-2.25-.19-4.66.31-6.8-1.22Z"/>
    <path class="cls-1" d="m396.8,491.65c.73-.09,1.53-.25,2.34-.29,1.44-.08,2.55.87,2.83,2.34.2,1.03-.37,2.01-1.6,2.51-2.59,1.06-5.28,1.16-7.97.54-.72-.17-1.48-.73-1.92-1.34-.31-.42-.34-1.38-.06-1.82.67-1.05,1.72-1.69,3.05-1.73,1.08-.04,2.16-.13,3.32-.21Z"/>
    <path class="cls-1" d="m544.75,364.54c-1.13-.22-2.75-.45-4.31-.89-.59-.16-1.13-.73-1.54-1.23-.66-.8-.34-1.95.57-2.41.36-.18.75-.46,1.12-.46,2.58-.05,5.17-.19,7.73,0,1.56.11,2.51,1.18,2.58,2.22.08,1.09-.69,1.83-2.42,2.32-.52.15-1.06.29-1.59.36-.54.07-1.09.06-2.13.11Z"/>
    <path class="cls-1" d="m485,346.24c-1.13-.19-2.17-.36-3.01-.49-1.11-1.19-1-2.45-1.07-3.65-.08-1.6.38-2.92,1.82-3.82.8-.5,1.48-1.19,2.28-1.7.94-.59,2.02-.5,2.65.11.75.73,1.12,1.72.74,2.61-1.01,2.33-2.22,4.57-3.41,6.95Z"/>
    <path class="cls-1" d="m547.28,417.43c1.22.41,2.51.75,3.71,1.28.8.35.96,1.41.37,2.08-.52.59-1.13,1.27-1.84,1.47-2.95.87-5.9.78-8.66-.7-.5-.27-1.07-1.06-1.01-1.53.07-.5.78-1.17,1.33-1.32,1.95-.52,3.94-.85,6.1-1.29Z"/>
    <path class="cls-1" d="m395.41,463.67c2.14.1,3.76.19,5.12,1.31,1.24,1.02,1.18,2.46-.2,3.36-.34.22-.7.5-1.08.55-2.49.34-4.89,0-7.07-1.26-1.38-.8-1.29-2.65.17-3.22,1.11-.44,2.34-.57,3.05-.73Z"/>
    <path class="cls-1" d="m547.64,464.84c-1.97-.32-3.99-.57-5.98-1.01-.75-.16-1.43-.71-2.09-1.17-.53-.38-.54-1.49.01-1.78.82-.42,1.72-.92,2.59-.92,2.6-.01,5.11.63,7.5,1.67.79.35,1.44,1.05,1.13,1.91-.18.51-.93.91-1.51,1.15-.47.2-1.07.1-1.66.14Z"/>
    <path class="cls-1" d="m426.23,171.49c-2.42.13-4.19-.74-5.66-2.35-1.7-1.88-2.83-4.05-3.14-6.54-.54-4.28,1.67-7.37,4.82-9.81,1.44-1.12,3.36-1.2,5.12-.64,5.94,1.88,10.3,9.57,6.05,15.94-1.85,2.78-4.37,3.51-7.19,3.41Zm-4.4-9.52c.73,1.38,1.3,2.76,2.12,3.96,1.11,1.62,4.39,1.58,5.31-.87.56-1.47.59-2.92.46-4.39-.11-1.36-1.91-2.99-3.38-3.08-.59-.04-1.4.23-1.79.66-.9.99-1.61,2.17-2.73,3.72Z"/>
  </g>
</svg>