<?xml version="1.0" encoding="UTF-8"?>
<svg id="Laag_1" data-name="Laag 1" xmlns="http://www.w3.org/2000/svg" viewBox="0 0 850.39 850.39">
  <defs>
    <style>
      .cls-1 {
        fill: #131f48;
      }

      .cls-1, .cls-2 {
        stroke-width: 0px;
      }

      .cls-2 {
        fill: #a5d6af;
      }
    </style>
  </defs>
  <path class="cls-2" d="m306.22,697.04c43.97,13.45,100.04,29.77,225.47,16.94,116.79-11.95,124.73-78.6,93.27-126.72-54.45-83.27,24.48-191.71,27.76-255.14s-8.5-142.21-112.41-109.4-136.51,127.88-119.96,213.06c21.77,112.03,11.22,187.95-47.39,172.52-110.87-30.67-122.66,71.63-66.74,88.74Z"/>
  <g>
    <path class="cls-1" d="m615.32,650.56c-1.37.69-2.62,1.04-3.5,1.81-4.64,4.03-10.18,6.38-15.79,8.62-1.27.51-2.56.99-3.84,1.45-1.94.7-3.92,1.05-6,1.2-4.91.37-9.86.51-14.67,1.76-.13.03-.27.08-.4.09-4.78.23-9.55,1.08-14.32.66-4.39-.39-8.75-.36-13.12-.13-.55.03-1.13.2-1.64.08-2.96-.74-5.97-.05-8.93-.39-5.85-.67-11.71-1.22-17.53-2.08-4.46-.66-8.86-1.77-13.3-2.56-2.82-.5-5.7-.72-8.53-1.18-3-.49-5.82-1.52-8.39-3.19-1.13-.73-1.77-1.69-1.86-3.01-.18-2.45-.34-4.9-.49-7.35-.15-2.29.68-4.28,2.05-6.02-.58-1.01-1.23-.34-1.78-.22-5.48,1.17-10.91,2.65-16.5,3.22-2.99.3-6.02.21-9.03.28-.94.02-1.88,0-3.1,0,.12.95.14,1.59.29,2.2.27,1.06.72,2.08.92,3.15.33,1.69-.3,2.53-2.13,2.62-2.45.13-4.58.78-6.19,3.07,0,.18-.11.61.02.95.6,1.56,0,2.65-1.27,3.51-1.96,1.34-4.17,2.17-6.49,2.4-1.62.16-2.83.8-3.93,2.16-2.25-1.29-4.59-1.98-7.06-1.99-2.46,0-4.92.11-7.38.21-.4.02-.82.14-1.17.33-2.4,1.3-5.02,1.24-7.62,1.24-1.37,0-2.74-.05-4.11,0-2.08.07-4.09-.25-6.05-.95-1-.36-2.05-.56-3.19-.86-.4,1.12-.7,1.99-1.06,2.99-1.58.35-3.07.79-4.53,1.59-3.47,1.91-7.12,1.45-10.62-.28-.46-.23-.88-.51-1.64-.97-.23,2.61,1.09,4.88,0,7.28-3.81,1.67-7.99,2.15-12.42,2.35-.07.88-.16,1.66-.2,2.45-.08,1.37-.06,2.74-.21,4.1-.2,1.78-1.33,2.33-2.89,1.57-2.33-1.13-4.68-2.23-7.04-3.3-.6-.27-1.29-.33-2.22-.56-.1.83-.14,1.47-.26,2.08-.36,1.88-1.24,2.37-2.84,1.53-2.3-1.21-4.57-2.49-6.87-3.72-1.69-.9-3.38-1.78-5.09-2.64-.36-.18-.86-.46-1.14-.34-2.54,1.1-4.73-.94-7.2-.75-1.36.1-2.61-.68-3.66-1.65-1.5-1.4-3.04-2.77-4.58-4.12-.4-.35-.91-.59-1.29-.84-2.8.44-5.48.92-8.18,1.26-3.05.39-4.82-.38-7.32-3.11-4.62,1.03-9.34.02-14.06-.68-1.06-.16-2.18-.41-3.08-.94-2.3-1.35-4.81-2.1-7.39-2.34-5.01-.47-14.09-3.69-17.63-5.1-2.76-1.1-5.73-2.06-6.56-5.59-.14-.61-1.15-1.14-1.87-1.45-1.97-.86-3.47-2.09-4.28-4.17-.27-.69-.97-1.28-1.61-1.73-.81-.57-1.72-1.04-1.46-2.2.25-1.07,1.23-1.34,2.16-1.64,1.17-.39,2.29-.92,3.46-1.3,4.94-1.59,7.95-5.1,9.92-9.73.86-2.01,1.92-3.94,2.84-5.93.6-1.29,1.62-1.79,2.97-1.76.41,0,.84-.04,1.23.06,3.85.98,7.52.49,11.26-.84,3.17-1.13,6.6-1.51,10.4-3.06-7.83-1.8-15.03-3.44-22.22-5.1-.8-.18-1.59-.43-2.38-.63-2.33-.6-3.61-1.93-2.96-4.51-1.19-.87-2.32-1.63-3.37-2.5-.73-.61-1.61-1.26-1.92-2.09-1.51-4.01-4.65-7.03-6.45-10.87-.73-1.56-2.2-2.77-3.28-4.17-2.17-2.82-4-5.8-4.29-9.49-.05-.66-.3-1.32-.52-1.96q-1.02-2.84-.58-6.02c-.15-.31-.24-.81-.53-1.02-3.78-2.77-5.54-7.06-8.12-10.73-.31-.44-.49-.97-.67-1.48-.23-.65.31-1.49,1.02-1.45,1.07.07,2.16.2,3.19.49,1.58.44,3.1,1.07,4.67,1.56.5.16,1.05.14,1.66.22.17-.46.41-.81.42-1.18.08-1.94,1.33-2.56,2.98-2.72.68-.07,1.37-.07,2.05-.06,1.27,0,2.42-.09,3.22-1.36.64-1.02,1.8-1.25,2.92-1.14,1.63.17,3.25.41,4.86.72,1.5.29,2.93.35,4.44-.15,5.81-1.93,11.56-1.71,17.26.63,1.62.67,3.41.94,5.12,1.4.4.11.82.16,1.18.34,5.13,2.59,10.34,5.07,14.73,8.88.7.61,1.26,1.44,1.73,2.26.88,1.54,1.64,3.16,2.47,4.73.38.72.67,1.6,1.27,2.08,2.9,2.35,4.27,5.65,5.6,8.94.66,1.63,1.6,2.85,3.24,3.48.2.08.49-.08,1.03-.19-.33-.62-.55-1.23-.92-1.7-1.9-2.39-2.29-4.89-.75-7.63.4-.71.64-1.51,1.03-2.48-.19-.49-.41-1.12-.67-1.73-.75-1.8-.51-3.48.55-5.08.3-.46.59-.93.94-1.35,1.03-1.25,1.43-2.58.95-4.2-.48-1.61.23-2.92,1.25-4.13,1.49-1.78,3.31-2.42,5.49-1.53,1.25.51,2.51,1.11,3.59,1.91,3.85,2.85,7.63,5.8,11.43,8.71.42.32.86.6,1.56,1.1.08-1.47.06-2.65.26-3.78.08-.43.63-.98,1.05-1.07.42-.08,1.12.22,1.38.59.8,1.11,1.41,2.34,2.16,3.49.75,1.16,1.55,2.24,3.16,2.31,1.18.05,1.97.89,2.62,1.8.78,1.12,1.52,2.27,2.25,3.35,1.28.32,2.66.32,3.57.98,1.18.85,2.02,2.19,2.93,3.37.75.98,1.44,2.01,2.07,3.06.86,1.44,1.82,2.63,3.58,3.16,1.48.44,2.5,1.62,3.18,3.05.99,2.1,2.15,4.15,2.95,6.32.7,1.91,1.82,3.32,3.57,4.45,1.01-.25,2.05-.52,3.09-.78.15-.47.35-.84.38-1.23.91-9.27.92-18.58.67-27.87-.26-9.58-.84-19.15-1.08-28.72-.11-4.51.38-9.02.42-13.54.05-6.57.15-13.15-.14-19.72-.42-9.43-.83-18.85-.73-28.3.05-4.51-.47-9.02-.68-13.53-.35-7.38-.73-14.76-.97-22.14-.14-4.38-.17-8.77.02-13.14.31-7.13-.12-14.23-.33-21.34-.23-8.01,1.02-15.81,4.78-23.07,1.44-2.78,3.13-5.46,3.73-8.64.17-.9.81-1.72,1.29-2.54,1.17-2,2.2-4.12,3.62-5.93,3.15-4.03,4.02-8.94,5.62-13.57,2.2-6.35,3.68-12.88,4.88-19.48.42-2.29.95-4.58,1.09-6.89.22-3.7.49-7.36,1.58-10.94.35-1.14.23-2.44.23-3.67-.02-2.47-.17-4.93-.15-7.4.05-4.79.35-9.54.98-14.32.95-7.17,2.06-14.35,1.69-21.65-.1-2.03.32-4.09.42-6.13.19-3.83.31-7.66.48-11.49.11-2.46.21-4.92.39-7.37.14-1.91.54-3.8-.11-5.96-.71-.51-1.65-1.08-2.45-1.79-2.01-1.79-2.35-3.29-1.39-5.87.43-1.15.94-2.26,1.45-3.45-.22-.35-.35-.79-.65-1-2.6-1.86-2.57-4.3-1.59-6.96.52-1.4,1.09-2.79,1.57-4.21,1.09-3.21,3.16-5.53,6.48-6.26,6.41-1.42,12.86-2.77,19.49-2.45,5.47.26,10.94.58,16.41.84,3.48.17,6.36,1.65,8.71,4.1,2.18,2.28,4.07,4.81,5.4,7.71,1.43,3.09,2.03,6.05-1.34,8.5,1.49,4.19,2.11,8.2-2.24,10.45,0,2.38,0,4.27,0,6.17,0,.27-.03.55,0,.82.93,6.62.55,13.33,1.71,19.95.75,4.3.78,8.73,1.41,13.06,1.2,8.26,2.61,16.49,3.9,24.74.38,2.43.53,4.9.96,7.31,1.02,5.65,2.1,11.3,3.27,16.93.46,2.22.52,4.56,1.92,6.58-.14-2.82-.17-5.64-.45-8.45-.3-3.13-.78-6.24-1.26-9.35-.97-6.23-1.6-12.47-1.87-18.78-.33-7.65-1.25-15.28-1.84-22.92-.39-5.05-.67-10.1-.08-15.17.28-2.45.42-4.91.53-7.37.26-6.01.51-12.03.67-18.05.06-2.32-.12-4.65-.26-6.98-.35-5.74-.67-11.47,0-17.23.36-3.12.23-6.3.44-9.44.23-3.41.5-6.83.92-10.22.48-3.9,1.83-7.44,4.86-10.15.74-.66,1.33-1.36,1.31-2.43-.03-1.35.75-2.24,1.64-3.16,2.6-2.68,5.71-4.05,9.4-4.53,5.72-.74,11.46-.88,17.21-.96,4.79-.07,9.56-.66,14.35-.94,4.64-.27,9.29-.51,13.94-.61,6.3-.13,12.61-.06,18.91-.17,3.01-.05,6.01-.41,9.01-.5,7.52-.21,14.66,1.71,21.65,4.22,1.01.36,2.01.97,2.79,1.71,1.41,1.34,2.95,2.43,4.67,3.3,1.91.96,2.68,2.61,2.87,4.66.89,9.55.85,19.13.98,28.71.11,8.21.18,16.45.95,24.62.64,6.71.47,13.4.79,20.1.15,3.14.4,6.28.44,9.43.16,13.42.38,26.84.32,40.26-.03,6.72.12,13.4.51,20.11.32,5.59-.02,11.22-.05,16.84-.01,2.06-.1,4.12.01,6.17.41,7.55-.56,15.04-.79,22.57-.34,11.23-1.91,22.35-3.19,33.5-.47,4.07-1.46,8.07-2.08,12.12-.77,5-1.47,10.02-2.06,15.04-1.03,8.69-2,17.4-2.92,26.1-.47,4.49-.69,9-1.15,13.49-.26,2.58-.67,5.16-1.2,7.7-.71,3.36-1.26,6.72-1.35,10.16-.12,4.38-.28,8.76-.57,13.13-.19,2.86-.41,5.75-1.02,8.54-.85,3.9-1.26,7.83-1.53,11.79-.22,3.28-.64,6.54-.91,9.82-.53,6.27-.92,12.54-1.54,18.8-.88,8.88-.83,17.77-.86,26.68-.01,5.05-.79,10.1-.95,15.16-.17,5.42-1.66,10.47-3.35,15.56-1.39,4.2-1.75,8.56-.1,12.88.58,1.53,1.45,2.59,3.11,2.93,8.18,1.68,15.95,4.98,24.3,6.01,1.87.23,3.7,1,5.46,1.73,1.92.8,3.55,2.09,4.59,3.96,1.87,3.35,3.81,6.68,3.98,10.66.08,1.89,1.29,3.65.64,5.7Zm-269.03-31.03c-.07-.09-.13-.19-.21-.26-.06-.05-.16-.05-.24-.08.16.1.33.2.49.3.07.08.14.18.23.25.06.05.16.05.24.07-.17-.09-.34-.18-.51-.27Zm227.86-448.14c.79.22,1.59.44,2.38.66.03-.15.06-.3.09-.45-.84-.05-1.68-.1-2.52-.15-.65-.21-1.28-.56-1.94-.6-3.67-.24-7.3-.67-11.04-.52-11.22.45-22.46.45-33.69.62-1.37.02-2.74-.04-4.11.05-6.01.38-12.01.97-18.02,1.17-4.93.17-9.85.41-14.72,1.17-1.73.27-3.41.97-5.08,1.56-.41.14-.69.64-1.36,1.3,2.96-.4,5.41-.58,7.79-1.08,5.66-1.19,11.38-1.57,17.15-1.56,1.5,0,3.01-.14,4.51-.23,2.74-.16,5.47-.4,8.21-.45,3.69-.07,7.39.12,11.09,0,7.25-.23,14.5-.58,21.75-.9.54-.02,1.08-.2,1.62-.26,1.36-.14,2.73-.42,4.08-.34,3.54.21,7.1-.33,10.63.54.96.24,2.11-.32,3.18-.52Zm-116.76,50.09c.03.25.03.51.11.75.04.12.22.2.34.3-.03-.12-.03-.26-.09-.36-.12-.22-.26-.43-.4-.65.13-.81.21-1.63.41-2.41.18-.69.58-1.24,1.7-1.05.32.72.65,1.6,1.1,2.41.46.83.95,1.67,1.61,2.34.27.27,1.13.28,1.48.04.31-.21.52-1.05.35-1.39-1.65-3.2-3.87-5.95-6.7-8.18-1.78-1.4-3.75-2.16-6.05-2.21-3.01-.06-6.02-.33-9.03-.37-3.96-.06-7.94-.24-11.87.1-4.63.4-9.21,1.25-13.8,2.01-1.74.29-2.79,1.51-3.33,2.92,1.02,1,1.91,1.76,2.67,2.64.77.9.2,2.45,1.58,3.47.54-1.55,1.02-2.9,1.49-4.26,2.59-.24,1.59,2.62,3.32,3.35.24-.58.45-1.16.72-1.71.28-.56.62-1.1.92-1.6,2.69.66,1.19,3.23,2.64,4.64.32-.45.75-.81.81-1.21.21-1.34.24-2.72.46-4.06.05-.29.54-.66.87-.71.32-.05.85.17,1.01.43.35.56.62,1.22.73,1.86.17,1.08.14,2.18.28,3.27.13.97.62,1.17,2.04.91.12-1.22.17-2.45.41-3.65.09-.44.59-1.04.98-1.1.36-.06,1.03.42,1.2.82.52,1.22.87,2.51,1.34,3.94.53-.36,1.02-.51,1.12-.8.3-.9.38-1.87.69-2.77.28-.79.8-1.46,1.79-1.15,1.23.71.36,2.47,1.52,3.11,1.9-.09,1.32-2.87,3.55-2.7.25.44.56,1,.88,1.56.32-.92-.12-2.32,1.78-2.43.5.79,1.05,1.7,1.66,2.57.09.13.45.08.68.11.69-.82-.25-2.72,1.87-2.7.41.63.83,1.29,1.26,1.95.61-.38,1.17-.72,1.93-1.19.74,1.17,1.37,2.16,2,3.16Zm-28.84,216.32c.56-1.68,1.08-3.38,1.69-5.05,1.53-4.21,2.19-4.82,6.69-6.29-5.46-.05-10.45.64-15.35,1.82-4.38,1.06-8.72,2.35-13,3.77-5.38,1.78-10.29,4.45-14.44,8.41-1.98,1.89-4.06,3.67-6.13,5.44-.91.77-1.39,1.67-1.31,2.85.12,1.91.18,3.83.41,5.73.25,2.05.55,4.07.06,6.12-.12.52-.14,1.09-.12,1.63.21,4.37.44,8.73.68,13.1.08,1.36.49,2.76.28,4.07-.6,3.71-.3,7.37.14,11.05.08.67.14,1.38.04,2.04-.36,2.32-.41,4.58,0,6.93.4,2.26.31,4.6.43,6.7,2.47,1.7,4.75,3.22,6.98,4.8,8.57,6.11,18.18,9.46,28.59,10.45,9.55.9,19.15.96,28.73,1.22.96.03,1.92-.11,2.87-.11,2.81,0,5.31-1.26,7.96-1.9,5.07-1.23,10.03-2.73,14.75-5.03,1.47-.72,3.02-1.34,4.61-1.72,3.98-.96,6.82-4.02,10.49-5.53.24-.1.49-.32.59-.55.98-2.21,3-3.42,4.69-4.64,0-3.13.13-6-.03-8.86-.29-5.19-.85-10.36-1.09-15.55-.22-4.79-.13-9.59-.26-14.38-.06-2.05-.19-4.11-.54-6.13-.91-5.12-1.97-10.22-2.96-15.33-.33-1.68-1.01-3.12-2.52-4.05-2.09-1.29-4.1-2.78-6.31-3.8-5.88-2.7-12.11-4.34-18.51-5.27-4.47-.65-8.96-1.16-13.44-1.72-2.72-.34-5.44-.65-8.16-.98l-.24-.12.28.09c.63.5,1.23,1.06,1.91,1.5,4.23,2.77,6.19,6.8,6.29,11.73.06,3.06-.55,6.02-3.04,8.13-1.79,1.52-3.83,2.6-6.29,2.62-1.77.01-3.54.06-5.32.1-3.2.06-5.54-1.44-6.97-4.18-1.51-2.89-3.02-5.83-3.06-9.22,0,0-.04.06-.04.06Zm46.49-166.51c-.54,3.26.1,6.1.3,8.94.4,5.87,1.07,11.73,1.21,17.61.1,4.54.73,8.99,1.26,13.47.65,5.56,1.31,11.13,2.03,16.68.49,3.78.25,7.68,1.9,11.27.17.37.22.79.28,1.2.62,4.61,1.22,9.22,1.86,13.83.54,3.93,1.04,7.86,1.7,11.77.85,4.99,1.55,9.99,2.78,14.92,3.08,12.36,5.47,24.89,7.05,37.52.84,6.66,1.85,13.28,2.92,19.9,1.55,9.6,3.52,19.13,5.04,28.73,1.37,8.65,2.29,17.37,3.54,26.04,1.18,8.13,1.53,16.37,3.32,24.42.42,1.86.61,3.78.83,5.68.61,5.16,1.05,10.35,1.8,15.49.61,4.2,1.22,8.39,1.44,12.64.06,1.22.27,2.45.57,3.64,2.11,8.23,3.16,16.67,4.91,24.97.51,2.41,1.04,4.81,1.7,7.18.72,2.63,1.64,5.21,2.39,7.84,2.55,9,2.53,18.12,1.05,27.26-.23,1.44-.98,2.84-1.69,4.14-.86,1.55-1.96,2.97-2.91,4.48-.41.66-.69,1.41-1.2,2.46.62.45,1.12.95,1.73,1.23,1.61.76,3.27,1.39,4.88,2.14.98.45,1.96.94,2.84,1.56.63.44.3,1.82-.45,2.06-.51.16-1.09.36-1.58.25-1.46-.32-2.92-.72-4.34-1.2-4.1-1.37-8.03-1.48-11.7,1.22-.77.57-1.57,1.13-2.43,1.53-1.48.7-3.01,1.31-4.55,1.87-.3.11-.99-.1-1.07-.31-.15-.44-.19-1.12.05-1.45.48-.64,1.14-1.18,1.81-1.62,4.62-3.05,8.38-7,11.85-11.26.4-.49.59-1.15,1.06-2.09-1.03-.05-1.71-.25-2.27-.07-1.43.45-2.87.95-4.21,1.63-3.66,1.86-7.33,3.73-10.9,5.76-3.93,2.24-7.57,4.93-11.01,7.87-1.05.9-1.78,1.89-.82,3.15,1.03,1.35-.68,1.69-.81,2.75,1.42.41,2.85.82,4.28,1.23,3.83,1.11,7.68,1.91,11.69,2.17,5.33.34,10.67.78,15.95,1.55,7.75,1.14,15.52,1.84,23.34,1.45,6.17-.31,12.33-.21,18.49-.1,6.19.11,12.35-.13,18.32-1.88,2.92-.86,5.86-1.32,8.87-1.58,5.33-.46,10.65-.97,15.34-4.02,1.12-.73,2.55-.98,3.79-1.56.85-.4,1.71-.88,2.41-1.49,1.4-1.23,1.62-2.32.8-4.04-.64-1.36-1.5-2.62-2.17-3.97-.78-1.58-2.06-2.59-3.65-3.12-2.2-.74-4.45-1.35-6.69-1.96-3.7-1.01-7.43-1.92-11.11-2.99-3.02-.88-5.99-1.96-8.99-2.92-.47-.15-1-.14-1.44-.19-.17.47-.38.75-.33.96.21.79.35,1.67.81,2.3,1.76,2.43,3.42,4.99,5.53,7.09,1.79,1.79,4.14,3.01,6.49,4.66-.55.37-.95.86-1.36.87-.79.02-1.66-.09-2.38-.4-1.51-.64-2.96-1.42-4.4-2.21-1.95-1.06-3.83-1.33-5.78.05-.77.55-1.66,1-2.57,1.27-1.3.38-2.65.67-3.99.76-.53.04-1.38-.42-1.61-.88-.36-.72.33-1.25.99-1.5.9-.34,1.86-.49,2.74-.87,1.99-.86,4.05-1.69,5.16-3.99-1.02-1.65-2.1-3.22-3.02-4.88-4.21-7.64-6.04-15.53-2.41-23.99,1.03-2.4,1.51-4.94,1.64-7.59.13-2.59.56-5.17.93-7.75.64-4.48,1.28-8.95,1.16-13.49-.19-6.86.03-13.7.8-20.52.22-1.9.53-3.79.66-5.7.39-5.74.69-11.48,1.06-17.22.3-4.64.61-9.29.98-13.93.27-3.41.39-6.86,1-10.22,1.21-6.63,1.38-13.34,1.99-20.02.68-7.36,1.26-14.73,1.96-22.09.66-6.94,1.61-13.86,2.11-20.82.78-10.93,2.26-21.77,3.88-32.59,1.47-9.88,2.73-19.78,3.8-29.71.46-4.24.49-8.47.72-12.7.41-7.66.94-15.31.68-22.99-.08-2.45-.07-4.9-.05-7.36.02-5.19.15-10.39.09-15.58-.06-4.79-.36-9.57-.47-14.36-.04-1.9.19-3.81.21-5.72.03-4.1-.17-8.21.01-12.3.36-7.67.17-15.32-.35-22.98-.04-.65-.28-1.28-.4-1.81-1.39-.48-2.59-.79-3.7-1.3-1.7-.78-3.39-.93-5.2-.51-1.33.3-2.69.54-4.06.66-1.77.17-3.59.48-5.31.21-2.24-.35-4.4-.27-6.51.31-2.95.82-5.94.92-8.96.93-3.29,0-6.58-.1-9.87-.08-2.19.01-4.38.09-6.56.25-4.91.37-9.82.81-14.73,1.2-.82.06-1.69.19-2.46,0-4.55-1.18-9.16-1.24-13.83-1.31-3.74-.06-7.44.1-11.02.86-3.3.7-6.52.88-9.78.38-5.53-.86-10.54.65-15.7,2.9Zm117.84-8.89c.04-.76.11-1.43.1-2.1-.26-10.26-.63-20.51-1.37-30.75-.75-10.51-1.05-21.05-.99-31.59.03-5.63-.47-11.2-1.53-16.73-.36-1.87-1.39-2.92-3.05-3.5-.9-.31-1.85-.51-2.79-.66-4.05-.64-8.09-1.22-12.22-1.38-6.7-.26-13.37-.9-20.07.14-1.74.27-3.55,0-5.33.09-3.01.14-6.01.49-9.02.52-10.96.1-21.93-.29-32.86.8-3.4.34-6.8.72-10.2,1.12-1.36.16-2.7.54-4.06.57-2.96.06-5.64,1.2-8.3,2.2-3.72,1.39-5.29,4.48-4.69,8.49.23,1.52.22,2.99-.19,4.47-1.03,3.75-1.02,7.56-.85,11.42.18,3.96.06,7.94.08,11.91.01,3.15-.02,6.29.06,9.44.09,3.41.4,6.82.39,10.24,0,4.65-.19,9.3-.35,13.95-.06,1.91-.26,3.82-.39,5.74-.2,2.86-.44,5.72-.58,8.59-.04.76.25,1.54.39,2.37.6-.04,1.04.04,1.39-.1,5.84-2.38,11.9-3.01,18.15-2.49,1.48.12,2.99-.22,4.49-.36,3.53-.32,7.05-.74,10.58-.95,2.18-.13,4.38-.01,6.56.09,2.32.1,4.67.14,6.95.53,2.33.39,4.6.37,6.94.18,5.59-.46,11.2-.72,16.81-1.05.54-.03,1.09.05,1.64.09,6.14.56,12.26.8,18.32-.84,1.69-.46,3.53-.35,5.3-.49,2.32-.18,4.65-.24,6.95-.55,4.35-.59,8.69-1.46,12.86.79.09.05.26-.05.88-.19Zm-101.99,163.12c.17-2.34-.06-4.09-.38-5.83-1.27-6.87-2.56-13.73-3.82-20.59-.69-3.77-1.17-7.59-2.05-11.31-1.57-6.66-3.47-13.24-4.5-20.02-.28-1.86-.69-3.78-2.33-5.17-2.72.35-5.4.72-8.02,1.64-1.24.44-2.68.46-4.02.44-.53,0-1.05-.63-1.55-.96.65-1.67,2.01-1.58,3.18-1.82,3.8-.78,6.37-2.95,7.47-6.13-.89-4.66-1.72-8.82-2.47-12.98-.29-1.61-.29-3.28-.63-4.87-1.14-5.21-2.57-10.36-3.53-15.6-.78-4.29-2.1-8.52-1.98-12.96.02-.62-.26-1.25-.41-1.94-2.2-.27-3.48,1.24-5.06,1.91-1.61.69-3.19,1.45-4.74,2.16-.78,4.52-1.3,8.8-1.36,13.2-.09,6.08-3.25,10.05-10.2,10.61-5.22.42-10.35-.73-15.48-1.56-2.63-.42-4.47-1.96-5.43-4.48-1.76-4.62-3.29-9.29-3.48-14.3-.05-1.22-.25-2.45-.55-3.63-.16-.61-.57-1.35-1.09-1.64-1.5-.86-2.95-1.94-4.96-2.13-.39,4.2-.69,8.23-1.15,12.24-.45,3.93-.97,7.86-1.65,11.76-.7,4.04-1.52,8.06-2.45,12.05-.93,3.98-2.05,7.92-3.05,11.75,1.7,3.85,4.62,5.83,8.53,6.49.68.11,1.35.24,2.03.32,2.18.25,4.35.49,6.53.73.82.09,1.67.08,2.06,1.26-.59.92-1.57,1.29-2.68,1.28-4.1-.02-8.19.25-12.29-.29-5.16-.68-8.7,1.24-11.14,5.81-1.98,3.72-4.59,7.13-5.62,11.33-.09.38-.4.71-.61,1.07-4.14,7.02-5.99,14.64-5.87,22.75.11,7.8.29,15.6.44,23.4.01.63.06,1.26.11,2.26,1.31-.61,2.35-.94,3.21-1.53,6.99-4.76,14.88-7.53,22.76-10.31,1.51-.53,3.23-.48,4.8-.88,1.57-.4,3.04-1.24,4.62-1.51,8.51-1.45,17.07-2.31,25.71-1.43,5.04.51,10.06,1.13,15.09,1.76,8.88,1.12,17.51,3.21,25.66,7.02.6.28,1.28.37,2.35.67Zm-204.54,212.58c-1.25-.61-1.84-.89-2.42-1.19-1.22-.62-2.47-1.19-3.62-1.91-.36-.23-.64-.93-.58-1.36.11-.83.89-1.02,1.59-.85,1.72.44,3.41.98,5.11,1.49,3.01.9,5.97,2.03,9.04,2.66,3.17.65,6.45.92,9.36.31,1.75-2.89,3.3-5.43,4.88-8.03-.79-1.05-1.6-1.98-2.23-3.02-.78-1.28-1.53-2.6-2.08-3.99-.28-.7-.15-1.6-.07-2.4.06-.63,1.28-1.01,1.65-.52.99,1.29,1.89,2.66,2.85,3.98.77,1.07,1.07,2.53,2.62,3.17,1.71-1.34,3.6-2.4,4-4.9.14-.88.84-1.69,1.34-2.5.5-.82,1.1-1.57,1.59-2.39.45-.75-.05-1.8-.93-1.86-1.91-.13-3.83-.16-5.74-.23-3.84-.13-7.66-.36-11.39-1.37-.65-.17-1.3-.41-1.86-.76-.27-.17-.49-.71-.45-1.04.04-.34.39-.82.69-.9.79-.19,1.63-.3,2.43-.25,3,.18,6,.46,9,.63,1,.06,2.12.41,3.2-.75-1.73-1.37-3.29-2.68-4.92-3.9-1.31-.98-2.7-1.86-4.04-2.8-.76-.54-1.65-.99-2.23-1.68-1.37-1.65-3.03-2.1-5.11-1.96-7.45.51-14.74-.63-21.94-2.44-.92-.23-1.82-.58-2.68-.99-.3-.14-.43-.63-.8-1.23.73-.26,1.34-.67,1.92-.63,1.77.09,3.56.23,5.3.58,4.59.92,9.21,1.38,13.88,1.37.51,0,1.14.1,1.4-.9-.68-.63-1.39-1.44-2.23-2.06-2.86-2.13-5.81-4.13-8.63-6.31-1.31-1.01-2.55-1.31-4.18-.94-3.39.78-6.81.53-10.19-.18-.82-.17-1.6-.46-1.65-1.74,3.05-1.09,6.63.32,9.99-1.65-2.52-1.81-4.69-3.44-6.92-4.97-2.15-1.47-4.45-2.72-6.52-4.29-2.1-1.59-5.01-2-6.46-4.62,4.85.91,8.57,4.24,13.16,6.37-.16-2.28-1.32-3.78-2.3-5.37-.32-.52-.83-1.13.02-1.76,1.61.4,2.4,1.73,3.15,3.01,1.11,1.89,2.08,3.85,3.12,5.78.39.72.62,1.65,1.21,2.1,2.04,1.56,4.08,3.17,6.54,4.21,2.53-2.39-.36-4.98.3-7.34.46.04.85-.04.95.09.47.65.93,1.32,1.27,2.05,1.15,2.46.74,5.08.48,7.79,4.74,3.41,9.39,6.77,14.05,10.13.11.08.24.14.36.19.79.33,1.56.52,2.35-.38,0-.4.05-.93,0-1.45-.5-4.31-2.26-8.15-4.37-11.87-.94-1.67-1.92-3.32-2.77-5.04-.26-.51-.14-1.21-.21-2.03.72.19,1.27.17,1.43.41,1.99,2.94,4.03,5.85,5.83,8.91,2.79,4.74,3.47,10.02,3.34,15.14.44.47.6.7.81.87,4.2,3.29,8.83,6.03,12.59,9.89.91.93,2.17,1,3.34.45.08-.38.23-.66.17-.89-.19-.79-.43-1.58-.7-2.35-2.67-7.39-6.55-14.14-10.95-20.61-1.08-1.59-2.12-3.19-3.11-4.83-.22-.36-.11-.91-.22-2.09,1.25,1.05,2.07,1.54,2.61,2.24,1.76,2.27,3.44,4.61,5.1,6.96,1.34,1.9,2.58,3.87,3.9,5.78.12.18.46.22.71.32.64-.44,1.28-.89,2.06-1.44,1.87,2.66.49,5.13.17,7.58,1.98,2.95,2.58,6.64,4.95,9.37,4.49.77,8.93,1.54,13.37,2.28.17.03.4-.3.75-.58-.13-.57-.2-1.25-.42-1.87-1.23-3.49-2.45-6.97-3.74-10.44-2.15-5.77-4.36-11.52-6.52-17.28-.64-1.7-.84-3.46-.38-5.24.08-.31.54-.69.86-.74.31-.05.85.22.98.49.34.73.55,1.52.74,2.31.78,3.18,1.27,4.2,2.89,5.97.11-1.68.18-3.31.36-4.94.03-.29.51-.69.83-.74.32-.05.84.16,1.04.43,1.02,1.38,1.31,3,1.14,4.67-.23,2.31-.42,4.64-.87,6.92-.38,1.94-.31,3.72.38,5.6,1.74,4.75,3.32,9.57,4.96,14.36.18.52.29,1.07.56,1.54.26.46.59,1.02,1.04,1.21,2.36,1.02,4.61,2.37,7.37,2.72.59-.8,1.23-1.51,1.69-2.33.67-1.17,1.22-2.42,1.75-3.48-.74-1.91-1.52-3.53-1.98-5.24-.46-1.7-.79-3.48-.82-5.23-.02-1.62-.66-3.49,1.13-5.21,1.44,4.1.97,8.36,3.3,12.14,2.76-5.05,2.65-10.52,3.95-15.57,1.37.05,1.55.98,1.54,1.73-.02,2.05-.1,4.1-.35,6.13-.8,6.37-3.89,11.92-6.39,17.68-.31.71-.61,1.43-.88,2.08,2.05,1.01,3.88,1.91,5.89,2.9,1.03-.58,2.19-1.22,3.41-1.91-1.84-4.02-1.3-7.91-.37-11.83.8-3.37,2.72-5.55,6.05-6.58,1.69-.53,3.32-1.26,4.94-2,.7-.32,1.3-.87,1.69-1.13-.97-2.28-1.81-4.27-2.67-6.25-.65-1.51-1.35-2.99-1.99-4.5-.63-1.47-1.58-2.52-3.21-2.89-1.87-.43-3.06-1.74-4-3.31-.7-1.18-1.36-2.38-2.05-3.56-.88-1.5-1.96-2.58-3.94-2.33-1.4.18-2.39-.64-2.87-1.89-.96-2.5-2.61-4.06-5.35-4.35-.39-.04-.75-.3-1.08-.44-2.82,1.42-4.11,1.51-5.69.19-3.47-2.89-6.85-5.87-10.33-8.75-1.47-1.22-3.01-2.38-4.65-3.34-1.71-.99-3.53.23-3.12,2.17.51,2.42-.22,4.29-1.65,6.08-.26.32-.47.68-.73.99-.96,1.15-1.27,2.38-.62,3.8.57,1.24.23,2.4-.44,3.51-.35.59-.73,1.17-1.01,1.79-.86,1.89-.83,3.67.59,5.36.69.82,1.27,1.78,1.67,2.77.44,1.09.12,2.16-.78,2.99-.79.73-1.92.81-3.04.1-1.16-.73-2.21-1.64-3.39-2.32-1.15-.66-1.77-1.54-2.16-2.82-.91-3.02-2.07-5.93-4.63-8.06-.6-.5-1.02-1.28-1.4-1.99-.9-1.67-1.74-3.38-2.59-5.08-.57-1.14-1.37-2-2.49-2.63-1.79-1-3.5-2.14-5.28-3.16-3.18-1.82-6.08-4.29-10.03-4.36-.26,0-.54-.13-.77-.28-2.85-1.85-6.19-2.12-9.37-2.87-.92-.22-1.96-.45-2.83-.23-2.63.68-5.47.16-7.98,1.64-.81.48-2.13.24-3.18.09-1.74-.25-3.46-.71-5.1-1.06-1.22.87-1.63,2.47-3.24,2.56-1.32.07-2.63.24-4.14.39.14,1.46.19,2.72-1.04,3.51-1.1.7-2.32.85-3.56.67-.94-.14-1.86-.46-2.8-.63-.6-.11-1.25-.67-1.92.14.11,1.7,1.13,2.95,2.35,4.09.9.84,1.82,1.66,2.75,2.47,1.25,1.1,1.8,2.48,1.25,4.06-.52,1.46-.13,2.61.61,3.86.47.79.92,1.83.81,2.67-.19,1.35.36,2.32.83,3.47,1.05,2.58,2.58,4.72,4.5,6.72,1.21,1.26,2.01,2.91,2.91,4.45,1.03,1.77,1.81,3.68,3.52,4.99.5.39,1.04,1.1,1.06,1.68.06,2.3,1.71,3.29,3.28,4.39.89.63,2.01,1.06,2.65,1.87.72.92,1.02,2.17,1.55,3.39,2.43.67,4.9,1.44,7.41,2.03,7.32,1.72,14.66,3.38,22,5.05,2.03.46,2.86,1.01,2.67,1.92-.27,1.34-1.48,1.51-2.5,1.77-1.32.34-2.7.49-4.04.75-1.07.21-2.14.45-3.2.72-3.97,1.02-7.94,2.04-11.91,3.09-2.3.61-4.58.72-6.9.13-.9-.23-1.85-.22-2.79-.33-.7,1.04-1.36,1.91-1.88,2.86-.53.95-.91,1.99-1.38,2.97-2.32,4.83-5.46,8.83-10.68,10.82-.86.33-1.65.82-2.45,1.21.42,1.24.77,2.25,1.09,3.27.37,1.16,1.28,1.72,2.3,2.18,1,.45,1.99.92,2.99,1.36.38.17.79.25,1.16.42.82.39,1.36,1.03,1.12,1.95-.38,1.4.41,2.08,1.47,2.55,3.38,1.49,6.74,3.07,10.58,3.01,1.23-.02,2.47.12,3.68.3.64.1,1.49.27,1.82.72.92,1.24,2.24,1.52,3.55,1.84,3.46.83,6.93,1.6,10.4,2.39,1.32.3,2.63.39,3.83,1.28.79.58,2.06.66,3.12.7,1.91.07,3.84-.04,5.75-.09,1.42-.04,2.64.3,3.75,1.32,2.01,1.84,2.92,1.83,5.88.23-1.45-2.39-3.83-3.89-5.55-5.98-1.65-2.01-3.45-3.92-4.9-6.06-1.51-2.23-2.68-4.68-4.05-7.14-2.48,1.18-4.69,2.25-6.92,3.3-2.38,1.12-4.89,1.83-7.53,1.8-1.07-.01-2.16-.29-3.17-.64-.34-.12-.6-.84-.64-1.3-.02-.24.47-.69.8-.77,1.72-.42,3.54-.55,5.19-1.15,3.99-1.44,7.91-3.09,11.85-4.66.25-.1.55-.22.69-.42.23-.31.51-.72.46-1.05-.04-.31-.41-.68-.73-.84-.34-.17-.79-.17-1.2-.18-6.6-.17-13.09.35-19.5,2.19-2.86.82-5.94.87-8.93,1.21-.73.08-1.41-.35-1.43-1.14-.01-.46.33-1.18.7-1.35,1.61-.72,3.26-1.4,4.96-1.85,2.6-.69,5.26-1.17,8.61-1.9Zm102.15-82.02c.07.9-.06,1.51.18,1.87.61.89,1.47,1.62,2.1,2.5,2.78,3.89,5.37,7.95,9.61,10.53.33.2.54,1.03.4,1.43-.14.42-.72.8-1.19.97-.49.17-1.08.13-1.62.08-2.05-.17-4.09-.4-6.14-.56-.91-.07-1.84-.01-2.99-.01-.13,3.9-.27,7.55-.36,11.2-.03,1.21.1,2.43.15,3.47,1.33,1.16,2.36,2.26,4.06,2.26.5,0,1.08.29,1.47.62,2.46,2.09,5.4,3,8.46,3.79,3.98,1.03,7.97,1.9,12.09,2.09.95.04,1.91.21,2.85.36,4.32.71,8.63,1.45,12.96,2.15,1.62.26,3.25.58,4.88.64,4.92.17,9.8.86,14.76.83,3.04-.02,5.99-.71,8.99-.67,4.18.04,8.08-1.15,12.07-2.14,4.35-1.08,8.48-3.25,13.15-2.95.36.02.72-.33,1.1-.47,1.28-.44,2.55-.93,3.86-1.28,3.71-1,7.29-2.29,10.61-4.76.09-4.03-.17-8.12-.39-12.2-.05-.9-.51-1.78-.76-2.64-.61-.08-1.01-.22-1.4-.17-2.99.33-5.99.69-8.98,1.03-.54.06-1.09.13-1.64.11-1.45-.04-2.3-1.08-2.03-2.44.3-1.52.93-2.87,2.11-3.91,1.13-.99,2.31-1.94,3.41-2.96,2.4-2.24,4.81-4.48,7.13-6.8,1.2-1.21,1.09-1.92-.03-3.71-6.61,3.33-13.2,6.65-19.8,9.95-1.1.55-2.23,1.07-3.4,1.45-5.61,1.86-11.37,3.19-17.24,3.69-6.97.59-13.99.53-20.94-.34-6.65-.83-13.26-2.04-19.85-3.28-7.69-1.45-15.12-3.77-22.17-7.22-1.69-.83-3.41-1.58-5.48-2.53Zm93.9-27.58c-.07,1.01-.06,2.1-.22,3.17-.3,2.05-1.32,3.52-3.45,4.13-1.04.3-2.01.82-3.01,1.27-4.49,2.02-8.81,4.43-13.62,5.69-3.18.83-6.32,1.78-9.53,2.5-2.13.47-4.41,1.15-6.47.8-3.93-.66-7.9-.49-11.82-1.15-2.56-.43-5.16-.56-7.74-.84-7.34-.79-14.13-3.16-20.33-7.17-1.26-.82-2.39-1.8-3.93-2.14-1.22-.27-1.73-1.24-1.81-2.44-.09-1.5-.15-3.01-.3-4.51-.14-1.43-.77-2.54-2.05-3.36-2.31-1.46-4.53-3.07-6.82-4.58-.53-.35-1.19-.51-1.84-.78-.28.56-.6.9-.62,1.25-.25,4.78-.49,9.56-.68,14.34-.06,1.64-.02,3.29.07,4.92.04.66.11,1.52.53,1.93,2.78,2.74,4.7,6.23,8.49,8.13,5.5,2.77,10.84,5.75,16.75,7.66,4.09,1.33,8.25,1.91,12.45,2.43,3.8.47,7.59,1.09,11.41,1.26,3.96.18,7.94-.1,11.84.89.26.07.54.12.8.09,3.52-.45,7.09-.71,10.56-1.43,8.26-1.7,15.88-5.08,23.05-9.47,2.33-1.43,4.7-2.8,6.96-4.34,1.58-1.08,3-2.38,4.48-3.6.89-.74,1.36-1.71,1.43-2.86.14-2.46.26-4.92.37-7.38.12-2.73.2-5.47.35-8.2.14-2.45.37-4.9.53-7.36.03-.51.13-1.12-.65-1.32-2.33,2.25-4.55,4.67-7.06,6.73-2.52,2.06-5.74,3.17-8.13,5.7Zm-17.65-228.11c-1.3.7-2.09,1.26-2.97,1.58-1.02.37-2.17.39-3.17.81-3.73,1.56-5.78,1.03-5.56-4.12.25-6.01,0-12.04-.09-18.06-.03-1.91-.19-3.82-.4-5.72-.66-6.26.21-12.61-1.07-18.84-.14-.66-.14-1.36-.13-2.05.02-1.93,1.11-3.06,3.08-2.99,1.07.04,2.12.44,3.18.66.5.1,1.01.14,2,.27-.44-.96-.58-1.61-.98-2.03-.34-.36-.96-.55-1.48-.64-3.64-.64-7.26-1.58-10.92-1.79-8.06-.46-16.13-.56-24.2-.78-1.84-.05-3.48.91-4.59,2.53,1.1.22,2.17.44,3.24.64,2,.38,3.13,1.67,3.51,3.57.27,1.33.32,2.71.4,4.07.14,2.6.17,5.2.34,7.79.35,5.19.77,10.37,1.13,15.55.06.81.02,1.65-.11,2.46-.84,5.4-1.7,10.8-2.57,16.2-.11.67-.27,1.35-.48,2-.91,2.89-2.29,3.7-5.26,3.13-1.23-.23-2.4-1.03-4.11-.41,1.92.87,3.48,1.72,5.13,2.28,2.86.97,4.06,3.08,4.4,5.86.1.81.07,1.64.13,2.46.31,4.12,1.18,8.09,2.89,11.9.94,2.1,2.26,3.32,4.59,3.48,3.14.22,6.27.63,9.41.79,3.14.15,6.28.09,9.41-.9,1.06-1.76,1.91-3.56,1.87-5.73-.1-4.54.92-8.97,1.39-13.45.16-1.49.85-2.54,2.22-3.18,2.85-1.33,5.69-2.69,8.53-4.04.59-.28,1.18-.55,1.88-.88-.22-.82-.39-1.45-.65-2.43Zm-12.36,339.46c2.47.12,4.52.2,6.57.31,2.05.11,4.11.5,6.13.34,6.83-.53,13.57-1.68,20.14-3.7,2.48-.77,4.4-2.15,6.01-4.08,1.23-1.47,2.33-3.05,3.61-4.48,1.88-2.11,3.03-4.53,3.47-7.31.58-3.65.96-7.35,1.84-10.92,1.01-4.09.75-8.02-.29-12.09-.51.17-.92.25-1.27.42-3.42,1.71-6.82,3.48-10.27,5.14-1.22.59-2.54,1.01-3.86,1.37-3.69,1.01-7.41,1.95-11.12,2.9-.79.2-1.61.36-2.42.44-2.72.27-5.44.58-8.17.72-8.77.44-17.53.18-26.29-.35-6.02-.37-12.02-.84-18.04-1.22-.54-.03-1.39-.39-1.62.73.37.16.76.49,1.08.44,4.3-.72,8.46.2,12.6,1.07,3.75.79,3.92,1.16,3.41,4.94-.02.12.08.26.19.62.24.21.6.66,1.06.9,1.08.58,2.21,1.06,3.27,1.55,1.12-.51,2.06-1.1,3.09-1.36.57-.15,1.35.13,1.91.44.4.21.59.8,1.05,1.47-1.98,1.44-3.91,2.83-3.72,5.64,4.27,1.99,7.99,4.71,11.58,7.49-.06,1.5-1.15,1.93-2.02,2.56-.71.52-1.41,1.05-2.04,1.52,1.48,1.63,2.76,3.05,4.09,4.51Zm67.8-18.63c.3-.71.56-1.19.7-1.71.18-.66.34-1.33.4-2.01.73-8.25.47-16.47-2.26-24.34-2.3-6.63-3.94-13.37-5.13-20.25-.72-4.18-1.15-8.44-2.3-12.49-1.36-4.79-1.84-9.65-2.3-14.55-.4-4.22-.86-8.44-1.31-12.65-.07-.68-.2-1.36-.41-2.01-.89-2.77-1-5.65-1.15-8.52-.09-1.77-.23-3.55-.5-5.3-1.12-7.17-2.26-14.33-2.82-21.57-.12-1.5-.46-2.96-1.07-4.36.08,5.36.62,10.68.07,16-.04.4.08.82.08,1.23,0,1.5.07,3-.02,4.49-.28,4.64-.72,9.28-.92,13.92-.21,5.06-.29,10.13-.28,15.19,0,3.28.17,6.57.45,9.84.31,3.68,1.17,7.34,1.16,11-.02,3.82.74,7.55.58,11.4-.21,4.9.48,9.83.74,14.75.12,2.18.25,4.38.16,6.55-.11,2.45-.32,4.82.24,7.3.4,1.78-.05,3.8-.35,5.68-.52,3.24-1.28,6.45-1.82,9.68-.77,4.54-2.11,8.78-5.68,11.99-.26.24-.38.64-.82,1.42,1.04-.38,1.68-.54,2.24-.84,3.39-1.8,6.7-3.74,10.15-5.41,2.57-1.24,5.3-2.18,7.99-3.17,1.4-.52,2.86-.86,4.22-1.26Zm-60.5-393.64c-3.12-.12-5.91-.66-8.47-2.12-.54-.31-1.3-.29-1.96-.34-1.09-.09-2.18-.07-3.26-.17-2.65-.23-5.23.03-7.53,1.42-1.65.99-3.27,1.22-5.1.73-.75-.2-1.71-.42-2.35-.13-1.56.72-2.87.24-4.34-.2-1.4-.42-2.96-.68-4.41-.53-1.24.12-2.4.14-3.64-.01-2.47-.3-4.25.72-5.34,2.88-.55,1.1-1.1,2.22-1.48,3.38-.29.88.1,1.59,1.21,1.83.82-.54,1.7-1.12,2.68-1.77.82.7,1.52,1.29,2.19,1.87,6.76-.55,7.86-.38,9.13,1.48-1.5,1.19-3.3,1.14-5.04,1.28-1.78.14-3.52.44-5.16,1.45v5.7c.73,0,1.27.02,1.8,0,4.24-.22,8.47-.52,12.71-.66,3.83-.13,7.67,0,11.5-.15,4.28-.16,8.47.34,12.62,1.35.91.22,1.84.32,2.88.5.72-2.17.75-4.11-.02-6.01-2.15-.55-4.19-.89-6.09-1.61-1.8-.68-4.14.31-5.82-1.87.83-.38,1.42-.86,2.01-.87,1.63-.03,3.26.09,4.89.23,2.18.19,4.34.64,6.53.08,1.81-.46,2.61-1.66,1.97-3.33-.58-1.51-1.4-2.93-2.11-4.4Zm-50.38,294.67c.06,2.59.25,4.79,2.45,6.3,1.01.69,1.9,1.58,2.94,2.22,4.93,3.07,10.3,4.89,16.05,5.7,8.33,1.18,16.61,1.07,24.88-.48,6.26-1.17,11.32-4.63,16.23-8.37,1.54-1.17,1.93-2.83,1.22-4.83-.68.11-1.21.15-1.72.29-3.03.83-6.05,1.68-9.07,2.54-3.72,1.06-7.51,1.43-11.36,1.21-6-.34-12.01-.59-18-1.06-4.21-.33-8.42-.88-12.6-1.5-3.5-.51-6.96-1.26-11-2.01Zm-22.19-80.62c1.4-1.1,2.55-1.85,3.53-2.78,3.95-3.72,8.6-6.31,13.58-8.32,2.66-1.07,5.45-1.82,8.16-2.79,7.03-2.52,14.34-3.64,21.75-4.04,3.81-.2,7.62-.08,11.46.58,5.12.89,10.33,1.39,15.52,1.7,7.6.46,14.91,1.99,21.88,5.08,2.25,1,4.5,2.01,6.79,2.91.81.32,1.73,1.01,2.83-.15-.35-1.43-.74-3-1.16-4.72-1.46-.77-2.84-1.74-4.36-2.25-4.02-1.34-8.07-2.67-12.18-3.68-8.12-1.99-16.39-3.05-24.74-3.74-10.48-.87-20.8-.16-31,2.28-6.41,1.53-12.59,3.82-18.53,6.62-4.08,1.92-7.91,4.37-11.82,6.64-2.48,1.44-2.86,2.81-1.68,6.64Zm15.99,83.36c.21,1.26.56,2.99.79,4.75.13,1.02.56,1.77,1.34,2.42,4.68,3.95,9.95,6.81,15.95,8.08,4.01.85,8.1,1.3,12.17,1.83,4.2.54,8.41.99,12.63,1.4.93.09,1.92-.06,2.83-.3,5.15-1.36,10.29-2.77,15.43-4.18.53-.14,1.07-.29,1.55-.52,4.19-2.01,8.36-4.04,12.4-5.99.84-1.48.64-2.84.48-4.2-.14-1.22.41-2.1,1.46-2.71,1.78-1.03,3.49-2.19,5.33-3.07,4.95-2.37,8.47-6.44,12.31-10.13,1.13-1.09,1.41-2.54.37-4.07-4.45,4.25-9.34,7.39-14.86,9.55-2.42.95-4.81,1.96-6.98,4,0,1.17.1,2.53-.02,3.87-.18,1.98-.85,3.67-2.79,4.7-2.78,1.47-5.43,3.17-8.23,4.59-2.31,1.17-4.66,2.45-7.14,3.04-4.52,1.07-9.14,1.71-13.81,1.83-7.56.21-14.94-.54-22.29-2.67-5.31-1.54-9.74-4.17-13.91-7.55-1.48-1.19-2.28-2.7-2.52-4.54-.19-1.48-.33-2.97-.49-4.49-2.73-1.51-5.35-2.97-7.98-4.41-2.59-1.42-4.75-3.55-7.64-4.72-.53,1.48-.65,2.71.71,3.41,3.09,1.61,5.45,4.11,8.06,6.31,1.43,1.21,2.97,2.3,4.86,3.75Zm204.84,125.21c-1.65.58-3.41.96-4.92,1.77-2.83,1.53-5.85,2.25-8.99,2.63-1.63.2-3.27.36-4.9.39-2.9.04-5.72.48-8.48,1.34-6.22,1.94-12.62,2.33-19.08,2.23-6.02-.1-12.04-.39-18.06-.25-6.74.16-13.38-.62-20.04-1.3-2.85-.29-5.66-.95-8.51-1.15-7.09-.51-14.19-.85-21.16-2.37-1.87-.41-3.69-1.03-5.55-1.49-1.43-.35-1.77.1-1.73,2.29,1.87,1.06,3.91,1.71,6.1,2.07,4.72.76,9.42,1.69,14.13,2.51,4.84.84,9.68,1.75,14.55,2.39,4.74.63,9.52,1.11,14.29,1.38,3.95.22,7.93.09,11.9,0,3.28-.07,6.55-.39,9.83-.47,5.06-.14,10.1-.19,15.12-.99,3.78-.6,7.58-1.22,11.39-1.35,3.91-.13,7.54-1.1,11.18-2.33,4.7-1.59,8.87-4.16,12.93-7.29Zm-110.67-104.89c-2.01,1.57-3.34,2.73-4.79,3.71-3.17,2.15-6.3,4.39-9.63,6.27-11.1,6.25-22.93,9.56-35.8,8.68-5.59-.38-11.21-.36-16.79-1.08-5.7-.74-11.4-1.1-16.95-2.9-8.64-2.81-16.88-6.3-24.23-11.7-.08-.06-.25,0-.44.02-.43,1.13-.21,2.13.71,2.92,1.25,1.07,2.51,2.13,3.84,3.08,4.52,3.23,9.74,4.95,14.92,6.68,6.39,2.13,13.09,2.83,19.69,4,2.29.4,4.55,1.02,6.86,1.23,9.01.82,18.04,1.11,27.01-.4,6.09-1.03,12-2.66,17.53-5.57,3.62-1.9,7.39-3.54,11.14-5.19,2.29-1.01,4.44-2.18,6.08-4.08.5-.57.87-1.39.98-2.14.14-.91-.05-1.88-.13-3.52Zm-158.6,118.4c5.06-1.31,8.1-4.35,9.14-9.43.94-4.6.76-9.24.75-13.87,0-.36-.25-.72-.49-1.34-.67.28-1.27.52-1.86.78-1.24.56-2.45,1.23-3.73,1.67-2.85.96-5.76,1.71-8.59,2.72-1.39.49-2.7,1.28-3.96,2.07-1.47.92-2.33,2.25-2.18,3.95,3.68,4.54,7.27,8.97,10.92,13.46Zm59.33-35.38c1-.23,1.93-.38,2.82-.65,5.1-1.55,10.21-3.08,15.28-4.75,1.53-.5,3.06-1.24,4.36-2.19,1.75-1.28,3.29-2.85,4.89-4.34.25-.23.28-.7.41-1.07-1.9-.55-3.8-.84-5.47-1.63-2.46-1.17-4.75-2.69-7.12-4.06-.93-.54-1.86-1.06-2.72-1.55-2.03,1.07-3.67,2.21-4.91,3.94-1.2,1.68-2.74,3.02-4.5,4.15-2.04,1.31-4,2.75-6.1,4.21,1.12,2.74,1.59,5.43,3.06,7.95Zm21.56-327.73c.27-.96.5-1.59.61-2.24.38-2.29.65-4.59,1.09-6.87.98-5.11,1.75-10.21,1.24-15.45-.4-4.07-.67-8.16-.98-12.24-.2-2.58-.36-5.17-.54-7.76-.07-1-.39-1.86-1.3-2.42-.84-.52-1.69-.9-2.91-.14-.13,1.01-.37,2.2-.44,3.41-.25,4.08-.46,8.17-.66,12.25-.07,1.36-.04,2.73-.08,4.09-.08,2.85-.02,5.72-.28,8.56-.42,4.62-1.06,9.21-1.59,13.82-.11.94-.13,1.88-.19,2.81,1.68,1.53,3.48,2.27,6.04,2.18Zm-6.22,303.49c.6.2.85.36,1.11.36,7.52.27,15.03.61,22.56.76,7.39.15,14.78.1,22.17.15,5.77.04,11.47-.39,17-2.19.77-.25,1.63-.23,2.41-.47,3-.92,6.11-1.61,8.94-2.92,2.6-1.21,5.22-2.35,7.86-3.46,1.62-.68,3.16-1.62,4.57-2.67.78-.59.98-1.64-.27-2.42-.84.44-1.65.94-2.51,1.31-2.38,1.03-4.72,2.2-7.18,2.95-6.67,2.03-13.39,3.87-20.1,5.76-1.58.45-3.16,1.07-4.77,1.18-5.57.38-11.07,1.99-16.73,1.1-.66-.1-1.36.12-2.04.11-1.5-.02-2.99-.08-4.49-.15-2.19-.11-4.37-.24-6.56-.37-1.23-.07-2.47-.08-3.68-.27-4.45-.72-8.89-1.5-13.33-2.26-1.05-.18-2.09-.37-3.02-.54-1.21,1.19-1.74,2.38-1.94,4.03Zm41.86-349.4c.11,3.49.35,6.33.24,9.16-.12,2.99.22,5.94.25,8.92.03,2.86.26,5.73.39,8.59.13,3,.24,5.99.35,8.99.11,2.8-.17,5.63.47,8.38q3.28-.42,7.34-3.04c-.29-2.1-.53-4.27-.91-6.41-1.02-5.65-1.72-11.34-1.86-17.07-.12-4.94-1-9.76-1.68-14.62-.09-.66-.33-1.3-.56-2.16-1.18-.21-2.34-.43-4.02-.73Zm-58.62,379.53c.47.52.67.95,1,1.09,4.38,1.83,7.88,4.76,10.86,8.4.97,1.18,1.77,1.33,3.26.62,1.22-.58,2.32-1.41,3.49-2.09,1.24-.72,2.5-1.4,4.04-2.27-3.54-3.42-3.38-8.12-5.17-12.15-4.77.55-8.67,3.03-13.01,4.04-1.18.28-2.33.74-3.46,1.21-.33.14-.53.58-1.01,1.14Zm-16.92.99c1.61,3.46,3.71,6.22,6.38,8.95,1.94-1.86,3.81-3.44,5.41-5.25,1.38-1.56,2.03-3.62,2.18-5.66.25-3.42-.1-6.83-1.3-10.08-.25-.69-.78-1.27-1.38-2.22-1.77,2.74-3.14,5.28-4.91,7.5-1.86,2.33-4.09,4.37-6.39,6.77Zm41.86,1.58c.46.57.82,1.14,1.3,1.58.71.64,1.58,1.1,2.24,1.78.42.44.82,1.15.79,1.71-.05.84-.91.86-1.59.84-.82-.02-1.64-.21-2.44-.14-1.2.1-2.45.22-3.2,1.39,3.62,5.97,9.13,5.81,15.39,3.24,0-2.25.04-4.56-.02-6.87-.02-.79-.1-1.74-.55-2.32-1.64-2.15-3.29-4.35-6.26-5.14-1.92,1.14-4.34,1.53-5.66,3.93Zm-90.83,5.28c.23-.73.43-1.11.47-1.5.32-3.32,1.36-6.38,3.19-9.19.59-.91,1.08-1.91,1.44-2.93.68-1.91-.09-3.56-2.13-4.96-1.93,2.1-3.73,4.32-5.8,6.26-2.06,1.94-4.66,3.27-6.64,5.43.55,2.86-.64,5.7.03,8.58,3.51.77,6.32-.78,9.44-1.69Zm106.63-194.63c.72.07,1.39.21,2.06.19,1.5-.04,3.02-.07,4.51-.28.78-.11,1.56-.49,2.25-.9,4.73-2.78,3.62-10.82.4-13.28-3.3-2.52-6.85-3.29-10.8-2.06-.62.19-1.39.54-1.67,1.04-1.59,2.87-2.22,5.94-.69,9,1.1,2.18,2.58,4.16,3.93,6.29Zm-125.23,191.46c.11,2.87.32,5.31.25,7.74-.07,2.42.49,4.85-.29,7.28-.21.64.16,1.6.53,2.26,1.16,2.05,5.35,6.25,8.25,8.35-.1-2.16-.21-4.01-.56-5.84-1.28-6.69-2.51-13.39-2.33-20.25.02-.6-.31-1.21-.54-2.03-2.1.61-3.93,1.01-5.32,2.49Zm126.72,12.63c3.29.82,4.27.72,7.4-.89,1.45-.75,2.84-1.61,4.56-1.58.6.01,1.38.37,1.78-.65-1.15-3.31-2.86-6.34-5.74-8.59-1.63-1.27-3.26-1.82-5.18-.36-1.15.88-2.57,1.41-3.9,2.12,0,2.51-.33,4.88,1.08,6.91.77,1.11-.24,2.05,0,3.05Zm-27.28-3.56c-.18,2.37-1.09,4.29-2.47,6.04-.66.84-1.13,1.87-1.5,2.88-.66,1.83.27,3.33,2.19,3.42,2.17.11,4.36.18,6.52-.03,2.18-.22,4.21-.98,5.33-3.05-1.06-1.93-2.42-3.6-2.89-5.49-.52-2.08-1.84-3.49-2.66-5.1-.4-.03-.55-.09-.66-.05-1.15.4-2.3.82-3.85,1.37Zm-40.34-25.79c1.9-2.92,1.87-2.93,2.14-5.75.31-3.35,1.5-6.34,3.84-8.8.84-.88,1.8-1.65,2.71-2.47,1.23-1.1,1.95-2.45,2.24-4.45-3.17,1.47-5.89,2.97-8.77,4.03-5.99,2.21-5.26,3.75-6.24,8-.09.4-.09.81-.16,1.21-.6,3.63.6,6.39,4.24,8.23Zm21.36-5.26c1.72-.81,3.1-1.4,4.42-2.1,1.2-.63,2.39-1.31,3.48-2.11,1.16-.85,2.59-1.52,3-3.33-2.68-1.78-5.45-3.1-8.72-2.83-3.25.27-6.49.64-9.72,1.04-.73.09-1.43.44-2.85.9,4.7,1.84,7.57,4.86,10.39,8.43Zm-31.7,25.64c-2.64-2.05-3.59-2.49-5.78-2.76-2.54-.32-3.47.43-3.64,3.01-.18,2.71-.33,5.43-.44,8.14-.03.63.14,1.28.21,1.91,3.38.87,6.02-.77,8.75-1.84,1-.39,2.03-.89,2.19-2.44-1.31-1.62-1.78-3.68-1.29-6.01Zm-26.96-1.49c2.97-1.17,5.62-2.18,8.26-3.25,1.92-.78,3.59-1.89,4.66-3.92-1.89-4.08-4.23-7.74-8.21-10.37-.25,5.38-.22,5.39-3.01,10.61-1.11,2.07-1.84,4.2-1.7,6.94Zm17.17,16.08c.67,2.3,1.94,4.07,3.12,5.87,1.58,2.41,3.14,2.81,6.03,1.98,1.55-.45,3-1.3,4.46-2.05.89-.46,1.41-1.58,1.01-2.42-1.21-2.52-2.02-5.35-4.57-7.04-1.59.83-2.98,1.73-4.49,2.28-1.64.6-3.4.86-5.55,1.38Zm-28.44-3.34c-.34,3.96.45,7.39.9,10.29,2.87,2.51,5.3,4.67,7.78,6.77.33.28.87.32,1.53.55.31-3.67-.91-6.75-1.91-9.8-1.09-3.31-2.27-6.65-4.7-9.52-1.23.59-2.32,1.1-3.59,1.71Zm109.31-22.16c2.04,2.14,3.9,4.09,5.69,5.97,1.47-.08,2.37-.89,3.31-1.7,1.03-.89,2.12-1.69,3.16-2.58.89-.76,2.2-1.07,2.73-2.5-2.62-2.08-5.54-3.37-8.73-4.15-1.84-.45-3.46.18-5.36.81-.27,1.4-.54,2.84-.79,4.15Zm-26.87,22.1c.86-1.17,1.38-1.95,1.98-2.66,1.17-1.39,1.01-2.77-.06-4.07-1.72-2.1-3.51-4.15-5.26-6.23-1.53-1.81-3.67-2.58-5.8-3.69-.49.74-.92,1.27-1.21,1.86-.53,1.08-.98,2.2-1.55,3.5,4.69,2.83,8.74,6.16,11.89,11.29Zm-65.94-36.24c-3.28-.62-6.08-1.11-8.86-1.69-1.94-.41-3.82-.04-5.65.46-.83.22-1.61.88-1.33,1.91,2.52-.05,4.82-.12,7.11-.09.35,0,.69.55,1.22,1.01-1.47,1-2.86.94-4.16,1.22-1.71.38-3.41.93-5.03,1.62-1.06.45-1.7,1.47-1.32,2.7.5,1.65.14,3.24-.09,4.86-.07.51-.13,1.13.87,1.32,4.71-3.08,8.67-7.1,11.73-12.11,1.69-.38,3.39-.75,5.52-1.23Zm5.26,47c.77,2.2,1.71,4.14,3.54,5.51,2.31,1.72,4.69,3.28,7.71,3.56,2.63.24,3.4.22,5.66-.78-2.54-1.83-4.94-3.59-7.37-5.3-2.54-1.78-3.69-4.65-5.36-7.15-.54.33-.95.47-1.2.75-1,1.1-1.96,2.25-2.97,3.42Zm30.86-31.4c5.42-2.38,8.97-6.05,11.48-11.46-2.16.18-3.88.32-5.6.47-1.88.17-3.83-.43-5.59.4-2.59,3.32-2.13,6.65-.29,10.58Zm44.43.23c3.17-1.29,6.15-2.5,9.18-3.74.34-3.48-.64-6.2-3.49-8.22-2.79,1.92-5.42,3.73-8.22,5.66.61,1.79,1.14,3.47,1.75,5.11.18.48.57.88.78,1.18Zm-29.38,12.37c1.6,3.61,3.09,6.96,4.59,10.32.11.25.16.57.34.74.58.54,1.13,1.26,1.83,1.5,1.78.6,3.64,1.06,5.52.68.37-2.41.4-2.43-.04-3.31-2.44-4.88-6.3-8.16-11.36-10.08-.11-.04-.26.04-.87.15Zm-3.96,17.8c2.59.78,4.9,1.39,7.08-.28-.08-.46-.05-.76-.18-.96-1.9-2.98-3.79-5.97-5.75-8.92-.83-1.24-1.79-2.4-2.72-3.57-.99-1.24-2.23-1.45-3.64-.77-.36.17-.71.37-1.05.55,0,.33-.1.65.02.85.4.7.81,1.4,1.31,2.03,1.77,2.24,3.6,4.44,5.36,6.68.88,1.12.9,2.23-.2,3.27-.15.14-.11.49-.23,1.13Zm-10.13-45.63c3.65.98,7.11,1.07,10.59.33.6-.13,1.32-.42,1.3-1.28-2.22-3.86-5.87-4.85-10.14-5-1.17,1.53-1.92,3.33-1.75,5.95Zm112.24-47.24c2.18-.27,3.77-.44,5.35-.68,1.68-.25,3.56.4,4.95-.98.52-4.27.47-5.25-.4-7.97-1.56.98-7.83,6.99-9.9,9.63Zm-120.24,90.09c.84.47,1.29.78,1.77.97,2.01.78,3.91.22,5.19-1.25,1.28-1.46.77-3.32-.11-4.94-.76-1.41-1.57-2.79-2.48-4.39-.81.29-1.65.6-2.6.95.26,3.02.01,5.81-1.78,8.66Zm-16.63-29.68c3.85-2.16,7.57-2.29,11.95-1.37-1.99-2.59-3.89-4.26-6.27-5.29-1.57-.68-3.22-1.42-4.96-.64-.23,2.33-.44,4.47-.72,7.3Zm11.99,9.12c-.18-1.46-.23-2.94-.57-4.36-.46-1.94-2.58-3.76-4.34-3.75-.91,0-1.93.2-2.71.64-1.32.74-3.09.96-4.08,2.95,4.82-.46,7.95,2.11,11.7,4.51Zm68.31-15.85c2.36-1.32,5.05-1.42,5.27-4.64-2.62-1.3-5.18-2.7-8.26-3.12-.51.94-.94,1.73-1.45,2.65,1.48,1.7,2.87,3.3,4.44,5.11Zm-54,18.12c-2.03-1.19-3.35-1.89-4.59-2.72-1.25-.84-2.4-1.81-3.6-2.71-1.09-.81-1.57-2.43-3.39-2.74.34,2.57.64,4.82.96,7.27,3.31.79,6.37,2.51,10.62.91Zm-60-16.46c-3.82,2.65-5.44,6.48-8.14,9.58.52.13.8.3,1.01.24.91-.26,1.82-.54,2.7-.89,4.4-1.78,5.84-1.24,4.44-8.93Zm70.75-33.06c-1.32,2.21-1.21,2.77.57,3.46.51.19,1.03.35,1.54.54,4.24,1.58,8.74,1.89,13.16,2.59.12.02.3-.34.57-.66-2.66-1.13-5.46-1.57-8.1-2.49-2.66-.93-5.18-2.28-7.74-3.44Zm33.65,59.32c1.08,1.35,1.96,2.2,2.53,3.22.54.98.76,2.14,1.13,3.26.93.04,1.87.13,2.82.12,1.01-.01,2.13.43,3.09-.63-.64-1.57-1.99-2.58-2.8-3.94-1.02-1.7-2.31-2.55-4.35-2.06-.59.14-1.23.02-2.4.02Zm-48.03-5.78c-3.71-1.27-6.88-2.15-10.37-2.57-.07,2.85,1.31,4.49,3.49,5.14,2.47.75,4.74,0,6.89-2.57Zm-10.29-21.12c2.12,3.04,3.63,6.28,8.09,6.61-.55-2.4-1.03-4.48-1.5-6.54-2.18-1.23-4.2-1.18-6.59-.07Zm-15.34,4.11c.74-2.37.84-3.14.65-4.11-.2-1.02-.78-1.81-1.68-2.2-2.34-1.02-4.71-1.99-8.16-2.9,2.19,2.02,3.73,3.29,5.1,4.73,1.37,1.43,2.31,3.28,4.09,4.48Zm17.39,36.12c.94,1.47,1.83,2.93,2.82,4.34.29.41.8.74,1.27.93,1.34.55,2.91.38,4.87-.4-2.78-4.4-5.58-5.96-8.95-4.87Zm64.59-13.73c2.13,2.62,3.81,4.7,5.6,6.91,1.58-.22,3.06-.37,4.52-.65.42-.08.77-.54,1.2-.85-1.59-1.86-3.81-1.27-5.47-2.19-1.73-.96-3.47-1.91-5.85-3.22Zm-42.92-52.49c-.76,1.8-1.07,3.19-.24,4.79,3.07-.42,6.1-.84,9.88-1.36-3.58-1.28-6.45-2.3-9.64-3.44Zm-78.14,52.01c.62-3.91.56-6.85.47-9.78-.01-.39-.11-.83-.32-1.15-.19-.29-.6-.63-.87-.59-.3.04-.73.45-.78.75-.25,1.32-.3,2.68-.59,3.99-.51,2.3.28,4.17,2.11,6.78Zm31.21,14.93c-.05,4.02.95,6.62,3.42,8.59.15.12.49.02.98.02.3-.92.61-1.91.92-2.89-1.49-1.9-2.85-3.68-5.32-5.72Zm-6.5-4.74c-.24.14-.48.27-.72.41,1,2.93,1.96,5.87,3.01,8.79.27.76.8,1.42,2.06,1.12.09-4.12-1.97-7.28-4.35-10.31Zm28.51,5.85c-.86.41-1.65.79-2.6,1.25.45.52.65.91.96,1.08,1.19.63,2.4,1.26,3.64,1.76.97.39,1.8.07,2.07-.66.3-.81-.21-1.28-.81-1.64-1.05-.61-2.12-1.17-3.26-1.8Zm29.5-98.36c-.98-2.89-1.85-4.02-3.75-4.94.08,1.28.07,2.51.25,3.72.1.69.62,1.21,1.43,1.23.66.01,1.32,0,2.07,0Zm-31.66,106.98c1.49,1.61,3.09,2.5,5.46,2.44-.5-1.29-.87-2.23-1.27-3.26-1.58.31-2.89.57-4.2.82Zm47.19-73.09q-4.09.4-5.73,1.67c1.25.56,2.44,1.1,3.52,1.58q1.8-1.69,2.21-3.25Zm-85.86,48.27c2.62-1.51,2.87-1.64,3.33-2.84.14-.36-.11-1.19-.4-1.32-.88-.4-2.63.29-3.34,1.22.11.76.24,1.66.42,2.95Zm49.92-15.76c2.09,2.68,2.94,3.22,5.91,3.8.19-1.13-.54-1.91-1.34-2.24-1.42-.58-2.65-1.95-4.57-1.57Zm-5.51,19.76c1.33-2.64,1.26-3.02-.61-4.03-.24-.13-.48-.23-.73-.34-.96-.41-1.13-.28-1.83,1.42,1.02.95,2.07,1.93,3.17,2.95Zm13.79,2.31c-.17.21-.58.49-.6.8-.08,1.38.93,2.32,2.32,2.15.31-.04.79-.45.81-.71.05-1.21-1.19-2.32-2.52-2.24Zm-.81-2.71c-.83-1.7-1.14-2.97-2.49-3.6-.99,2.19-.74,2.63,2.49,3.6Zm-30.58,19.47c-.71,2.29-.33,2.69,3.02,3.41-.5-.7-.84-1.27-1.27-1.75-.5-.56-1.09-1.04-1.75-1.66Zm79.77-61.91c-1.83-.24-3.47-.46-5.11-.68,1.49,1.35,3.07,1.97,5.11.68Zm-45.7,31.79c-1.08-.68-1.61-1.02-2.08-1.32-.88.81-1.73,1.35-1.32,2.58.93-.34,1.81-.67,3.4-1.26Zm-3.9,24.89c-.27-3.37-.43-3.5-2.38-2.51.65.68,1.26,1.33,2.38,2.51Zm122.33-182.77c.1,0,.19-.01.29-.02-.06-1.25-.11-2.5-.17-3.76-.04,0-.08,0-.13.01v3.76Zm-88.16-266.82c-.12.06-.27.09-.34.18-.64.78-.69,1.83-.1,2.16.1.06.29.07.39,0,.53-.34.72-1.54.35-2.18-.05-.09-.19-.12-.29-.17Zm-25.91,428.16c.19.18.37.35.56.53.08-.1.24-.22.22-.3-.05-.24-.18-.46-.27-.69-.16.15-.32.3-.5.46Zm-2.48-44.36c-.15.17-.43.35-.41.49.03.2.28.37.44.56.15-.16.46-.35.43-.47-.05-.22-.29-.39-.45-.58Zm-30.07,72.41c-.03.2-.11.4-.08.58,0,.08.27.22.32.19.19-.13.34-.32.5-.49-.23-.09-.46-.18-.73-.28Zm81.2-25.31c-.09-.08-.18-.23-.28-.24-.1-.01-.22.1-.33.16.09.08.18.22.28.24.1.01.22-.1.33-.16Zm-57.38,13.01l-.05-.35-.5.14c.07.1.12.24.22.28.09.03.22-.05.34-.08Z"/>
    <path class="cls-1" d="m517.66,304.35c1.99-.44,3.12.82,4.76.59,2.62-.37,4.5-1.7,6.09-3.62.79-.95,1.44-2.01,2.27-2.91.63-.7,1.39-1.32,2.18-1.82.89-.56,1.91-.33,2.62.4.7.71.8,1.66.09,2.6-.82,1.09-1.77,2.08-2.65,3.13-.35.41-.66.85-.96,1.24.47,1.29,1.34,1.42,2.34,1.01.74-.3,1.44-.71,2.21-1.1.89.55,1.69,1.05,2.67,1.66.9-.23,1.95-.73,2.98-.7.88.03,1.74.66,2.74,1.09.39-.22.83-.53,1.32-.76,1.79-.86,2.53-.45,2.67,1.45.05.65.06,1.31.11,2.26.85-.1,1.52-.06,2.08-.28,1.01-.4,2-.91,2.92-1.49.79-.5,1.48-1.16,2.34-1.85.97.63,1.85,1.21,2.81,1.85.26-.18.7-.34.89-.64,1.91-3.15,3.78-6.33,5.68-9.5.35-.58.66-1.24,1.16-1.64.34-.27,1.08-.32,1.49-.13.41.19.83.79.86,1.23.04.64-.14,1.38-.45,1.95-1.3,2.36-1.23,4.63.23,6.99.86-.29,1.74-.58,2.58-.86,1.4.76,1.25,1.92.75,2.88-1.27,2.4-3.31,3.96-5.91,4.75-.96.29-1.94.16-2.68-.59-1.14-1.17-2.36-1.16-3.73-.45-1.4.72-2.86.75-4.39.32-.62-.17-1.44-.19-2,.07-2.22,1.05-4.5.96-6.57.48-1.91.88-2.61,2.34-2.96,3.99-.5,2.32-1.54,4.39-2.88,6.3-.88,1.26-2.02,2.18-3.66,2.4-1.68.23-2.96-.34-3.91-1.68-.96-1.34-1.22-2.85-.23-4.22,1.12-1.53,2.45-2.91,3.73-4.32.43-.48.97-.87,1.77-1.57-.79-.35-1.22-.68-1.67-.72-1.22-.1-2.56-.39-3.66-.03-2.2.72-4.02-.02-5.9-.86-.49-.22-.99-.43-1.36-.6-1.35.33-2.57.52-3.71.95-2.31.86-4.3.6-5.83-1.28-1.87-.19-3.04.66-3.91,2.01-.67,1.03-1.3,2.09-1.91,3.16-1.3,2.27-3.5,3.41-5.72,4.48-1.15.56-2.41.56-3.47-.36-.95-.82-1.19-2.28-.59-3.8.82-2.1,2.15-3.88,4.06-5.02,2.35-1.41,3.99-3.21,4.54-5.95.09-.46.57-.85.99-1.42.76.62,1.35,1.1,2.06,1.68.6-1.22,1.25-2.36.8-3.8-3.72.47-6.46,3.08-9.74,3.88-.96-.97-.63-1.72-.2-2.45.2-.35.46-.7.77-.96,3.15-2.56,6.8-4.07,10.76-4.71,1.93-.31,3.05.96,2.93,3-.07,1.21-.31,2.42-.57,4.28Z"/>
    <path class="cls-1" d="m570.03,567.89c.39.67.79,1.02.75,1.31-.19,1.4-.86,2.53-2,3.44-4.13,3.3-8.77,5.52-13.93,6.65-.93.21-1.87.43-2.78.71-4.71,1.45-9.5,1.38-14.19.17-3.42-.88-6.76-2.19-10.05-3.52-2.81-1.13-5.18-3.05-7.39-5.1-1.19-1.1-1.48-2.41-.94-3.28.66-1.05,1.99-1.05,3.63.02.46.3.89.64,1.31.98,4.79,3.91,10.48,5.9,16.39,7.11,3.04.62,6.27.5,9.37-.24,3.06-.73,6.11-1.49,9.15-2.29,3.38-.88,6.1-3.01,8.99-4.81.46-.29.89-.61,1.68-1.16Z"/>
    <path class="cls-1" d="m532.44,621.95c.1,1.79.23,3.26.24,4.74,0,.31-.41.87-.67.89-.46.04-1.15-.1-1.38-.43-.46-.65-.81-1.45-.98-2.23-.55-2.67-1.21-5.35-1.42-8.06-.12-1.56.42-3.23.92-4.77.35-1.08,1.32-1.7,2.58-1.62,1.15.56,1.19,1.76,1.57,2.75,2.36,6.04,6.26,8.47,12.76,7.91,2.86-.25,5.69-.59,8.48-1.38,3.33-.94,6.09-2.4,7.55-5.7.17-.37.41-.71.45-.78,1.36,0,1.63.63,1.6,1.34-.13,2.79-1.54,4.91-3.7,6.56-2.56,1.95-5.53,2.95-8.67,3.48-.81.14-1.66.08-2.44.3-5.66,1.59-10.81.42-15.62-2.76-.2-.13-.52-.11-1.28-.24Z"/>
    <path class="cls-1" d="m558.55,278.45c-.13-2.44-.32-4.87-.34-7.31,0-.9.26-1.86.63-2.7.15-.34.88-.56,1.36-.58.29-.01.65.41.91.7.17.19.27.49.31.75.51,3.78,1.05,7.55,1.45,11.34.1.91-.2,1.9-.5,2.8-.75,2.29-2.95,3.14-4.86,1.68-1.14-.87-1.98-2.2-2.77-3.44-.72-1.13-1.18-2.42-1.76-3.65-1.16.27-.69,1.1-.79,1.64-.3,1.74-.44,3.52-.85,5.22-.11.46-.95.91-1.53,1.04-.79.17-1.64-.65-1.64-1.46,0-.81.12-1.62.26-2.42.66-3.76,1.57-7.48,1.3-11.35-.02-.26,0-.6.14-.79.32-.4.69-.93,1.13-1.04.44-.11,1.21.04,1.47.37.74.96,1.35,2.04,1.92,3.11,1.14,2.12,2.08,4.36,4.17,6.08Z"/>
    <path class="cls-1" d="m494.62,272.24c-.54,1.64-1.8,1.67-2.72,2.17-1.77.96-2.64,2.4-2.31,4.39.53,3.14,1.67,6.06,3.6,8.63.53.71,1.59.49,2.03-.3.72-1.3.61-2.67.31-4-.29-1.33-.79-2.62-1.16-3.93-.21-.73-.03-1.48.73-1.66.58-.14,1.34,0,1.89.27.44.21.78.77,1,1.25,1.54,3.27,1.6,6.68.35,9.98-1.19,3.13-5.46,3.65-7.37.8-2.2-3.29-4-6.92-4.47-10.93-.51-4.33,2.48-7.35,6.88-7.24.36,0,.7.32,1.24.57Z"/>
    <path class="cls-1" d="m524.31,271.24c2.65-1.25,4.69.17,6.81.89,1.74.59,3.18,1.57,4.01,3.28,1.04,2.15.22,4.85-2.11,6.42-1.35.9-2.87,1.55-4.53,2.43-.2.92-.44,1.96-.64,3.01-.13.67-.14,1.36-.28,2.02-.18.87-.63,1.52-1.62,1.54-.8.02-1.37-.69-1.33-1.72.04-.95.22-1.9.29-2.85.04-.53.2-1.28-.08-1.57-1.47-1.53-.62-2.94-.11-4.51.36-1.12.26-2.44.19-3.65-.09-1.62-.35-3.24-.59-5.28Zm2.78,3.04c.36,1.81-.03,3.72,1.23,5.21,1.43.2,2.31-.44,3.11-1.2.89-.84.8-2.23-.25-2.79-1.18-.62-2.31-1.47-4.09-1.22Z"/>
    <path class="cls-1" d="m577.63,284.44c-.65.53-.94.83-1.28,1.03-1.47.83-2.54.34-2.55-1.15,0-.54.04-1.1.14-1.63.62-3.23,1.01-6.48.86-9.78-.02-.54.05-1.1.2-1.62.44-1.52,2.2-2.26,3.62-1.56,2.45,1.21,3.98,4.12,2.68,6.5-1.64,3.01-.97,5.38.65,7.96.63,1.01.89,2.28,1.2,3.46.08.31-.17.95-.42,1.05-.44.17-1.12.23-1.49,0-.68-.42-1.26-1.03-1.78-1.65-.6-.72-1.09-1.54-1.84-2.61Zm.73-11.89c-.37.47-.64.66-.62.81.05.38.19.76.38,1.09.06.11.41.04.63.06-.12-.57-.23-1.15-.39-1.96Z"/>
    <path class="cls-1" d="m509.07,280.49c0-1.36-.07-2.74.05-4.09.04-.4.59-1.03.95-1.06.4-.03.91.44,1.25.8.26.28.36.72.51,1.1,1.18,3.05.97,6.2.42,9.3-.2,1.14-.98,2.27-1.76,3.18-1.94,2.29-4.95,2.04-6.55-.51-.57-.91-1.07-1.95-1.29-3-.67-3.21-1.23-6.44-1.75-9.68-.1-.62.14-1.32.32-1.96.05-.18.42-.36.65-.38.23-.02.61.08.71.26.33.59.65,1.2.83,1.85.7,2.5,1.3,5.03,2.02,7.52.26.9.72,1.77,1.2,2.59.16.27.69.5,1.01.45.33-.05.77-.4.87-.71.25-.77.4-1.58.46-2.39.07-1.09.02-2.19.02-3.28.03,0,.06,0,.08,0Z"/>
    <path class="cls-1" d="m538.94,271.39c1.69.11,2.94.11,4.15.31.63.11,1.24.53,1.8.9.55.36.45,1.45-.14,1.76-.47.25-1.01.36-1.5.58-.58.26-1.58.5-1.63.87-.18,1.24.93.96,1.68,1.09.39.07.93.16,1.1.43.25.39.47,1.17.27,1.4-.69.8-1.57,1.44-2.43,2.18.1,1.65.22,3.23,1.34,4.42,1.72-.19,1.03-1.93,1.92-2.53,1.42.34,1.58,1.44,1.7,2.53.12,1.15-.23,2.18-.99,3.04-1.34,1.49-4.11,1.45-5.52-.15-.52-.59-.92-1.37-1.13-2.14-1.09-3.99-1.05-8.13-1.3-12.22-.05-.75.4-1.53.68-2.5Z"/>
    <path class="cls-1" d="m567.96,279.66c-.39,1.52-.32,2.83.74,4.3.47-.06,1.09-.12,1.71-.21.73-.1,1.5.04,1.69.76.15.57,0,1.35-.3,1.89-.88,1.61-2.36,2.18-4.14,1.97-1.55-.18-2.36-1.24-2.85-2.59-.23-.63-.51-1.29-.56-1.95-.33-3.93-.28-7.86.04-11.76,1.64-1.31,3.37-2.1,5.15-2.72.38-.13,1.1.15,1.41.47.53.56.36,1.33-.19,1.81-.72.61-1.68.98-2.29,1.66-.47.53-.56,1.39-.91,2.37,1.28.28,2.3.46,3.3.74.67.19.88,1.31.31,1.65-.91.55-1.9.99-3.1,1.61Z"/>
    <path class="cls-1" d="m516.29,275.39c.19.87.4,1.73.57,2.61.39,2,.69,4.02,1.15,6,.26,1.14.94,1.73,2.33,1.77,1.51.03,1.92,1.43.92,2.54-1.58,1.76-3.55,1.74-4.76-.18-.64-1.02-1.17-2.18-1.47-3.35-.7-2.66-.73-5.38-.28-8.09.08-.48.47-.92.71-1.38.28.03.55.05.83.08Z"/>
    <path class="cls-1" d="m540.59,575.2c-.27-.06-.56-.07-.79-.19-1.12-.57-1.97-2.15-1.86-3.4.11-1.29,1.19-2.49,2.57-2.86,1.62-.43,3.44,1.04,3.26,2.7-.17,1.58-.98,2.81-2.4,3.58-.23.12-.53.11-.78.16Z"/>
    <path class="cls-1" d="m562.48,517.94c.05-.25.07-.82.28-1.3.4-.9,1.02-1.61,2.11-1.72,1.08-.1,2.21.55,2.61,1.59.36.95.34,1.89-.39,2.68-.37.4-.79.76-1.21,1.1-.67.53-1.41.83-2.26.42-.86-.42-.99-1.23-1.07-2.06-.01-.14-.02-.27-.06-.7Z"/>
    <path class="cls-1" d="m531.74,565.86c.04,1.41-.42,2.3-1.36,2.6-.82.26-1.78.14-2.67.11-.16,0-.38-.37-.46-.6-.48-1.44.7-3.95,2.09-4.29.43-.1,1.14.12,1.43.44.5.57.76,1.34.97,1.73Z"/>
    <path class="cls-1" d="m487.38,312.43c-1.31,0-2.18-.76-2.17-1.87.01-1.61,1.01-2.89,2.23-2.88,1.37.01,2.85,1.61,2.74,2.97-.08,1.03-1.27,1.79-2.8,1.78Z"/>
    <path class="cls-1" d="m565.48,559.69c0,1.34-1.06,2.56-2.17,2.51-1.33-.06-2.73-1.42-2.66-2.58.09-1.48,1.23-2.52,2.71-2.47,1.21.04,2.12,1.13,2.12,2.55Z"/>
    <path class="cls-1" d="m489.93,331.34c0,1.27-1.07,2.2-2.46,2.14-1.19-.06-2.12-.91-2.18-2-.07-1.33,1.17-2.42,2.73-2.38,1.04.02,1.9,1.04,1.9,2.24Z"/>
    <path class="cls-1" d="m579.54,386.88c1.16.04,2.26.95,2.3,1.91.06,1.27-1.18,2.34-2.77,2.37-1.23.03-2.05-.84-1.95-2.06.1-1.3,1.16-2.26,2.42-2.22Z"/>
    <path class="cls-1" d="m532.82,555.17c-.07,1.94-.92,2.96-2.39,3.23-.82.15-1.78-.63-1.58-1.38.24-.9.57-1.8,1.06-2.59.37-.59,1.15-.83,1.79-.41.51.33.87.89,1.11,1.15Z"/>
    <path class="cls-1" d="m552.37,525.77c.54.48,1.35.97,1.83,1.68.53.79.55,1.78-.11,2.62-.15.2-.4.35-.64.44-.97.38-1.72-.2-2.56-1.95-.5-1.05-.35-1.98.43-2.46.22-.13.5-.16,1.05-.32Z"/>
    <path class="cls-1" d="m572.16,364.08c.13,1.47-.62,2.49-1.73,2.72-1.11.23-2.4-.32-2.68-1.31-.12-.43.04-1.14.35-1.46.75-.78,1.69-1.54,2.87-1.08.54.21.92.86,1.19,1.13Z"/>
    <path class="cls-1" d="m542.16,563.31c-.44.28-1.02.9-1.67,1.01-1.17.18-2.16-.77-2.21-1.8-.04-.97.8-1.94,1.65-1.91,1.2.05,2.3,1.21,2.23,2.7Z"/>
    <path class="cls-1" d="m552.67,563.59c.93-.05,1.7.69,1.81,1.75.13,1.29-.48,2.31-1.48,2.48-1.06.17-2-.71-2.04-1.94-.04-1.3.65-2.23,1.71-2.29Z"/>
    <path class="cls-1" d="m562.38,544.14c-.9,0-1.74-.63-1.74-1.32,0-1.03.96-2.09,1.98-2.18,1.12-.09,2.22.86,2.17,1.88-.05.97-1,1.61-2.41,1.62Z"/>
    <path class="cls-1" d="m576.88,416.59c-.08,1.72-1.11,2.55-2.47,2.37-.83-.11-1.4-.77-1.43-1.66-.04-1.29,1.01-2.21,2.43-1.87.62.15,1.1.86,1.47,1.17Z"/>
    <path class="cls-1" d="m519.73,446.84c.08.94-.62,1.81-1.58,1.96-.96.15-1.76-.5-1.91-1.56-.15-1.08.37-1.95,1.29-2.13,1.08-.22,2.1.59,2.2,1.74Z"/>
    <path class="cls-1" d="m547.71,548.4c.98.09,1.71,1.03,1.55,1.99-.17.98-1.11,1.75-2,1.65-.72-.08-1.3-.91-1.28-1.83.03-1.09.8-1.9,1.73-1.81Z"/>
    <path class="cls-1" d="m525.21,538.75c-.75-.82-1.46-1.27-1.67-1.89-.31-.91.65-1.88,1.58-1.84.8.03,1.57.75,1.38,1.59-.14.65-.71,1.21-1.29,2.14Z"/>
    <path class="cls-1" d="m537.84,347.51c-.41.18-.98.65-1.51.6-1.09-.1-1.62-.94-1.62-2.01,0-.36.19-.86.46-1.04.27-.18.81-.17,1.13-.02.88.41,1.67.97,1.54,2.47Z"/>
    <path class="cls-1" d="m545.94,393.22c.98.04,1.61.62,1.56,1.44-.06.91-.7,1.63-1.44,1.6-1.04-.04-1.85-.81-1.82-1.74.02-.76.78-1.34,1.71-1.3Z"/>
    <path class="cls-1" d="m530.52,526.74c.02.81-.62,1.48-1.53,1.58-.91.11-1.66-.52-1.64-1.36.02-.9.64-1.57,1.49-1.62.85-.06,1.66.61,1.68,1.4Z"/>
    <path class="cls-1" d="m549,514.56c-.27.25-.65.85-1.17,1.01-.95.3-1.88-.86-1.74-2.06.08-.75.56-1.19,1.32-1.16.97.03,1.64.85,1.6,2.21Z"/>
    <path class="cls-1" d="m539.31,376.01c.07.99.26,1.91.15,2.79-.04.32-.8.8-1.19.77-.39-.04-.97-.58-1.06-.99-.29-1.34.03-1.67,2.1-2.57Z"/>
    <path class="cls-1" d="m509.67,376.96c-1.04.42-1.7.87-2.39.92-.79.06-1.41-.97-1.24-1.75.17-.78,1.19-1.5,1.84-1.11.61.37,1.01,1.07,1.79,1.94Z"/>
    <path class="cls-1" d="m575.6,322.33c-.23-.13-.65-.25-.85-.52-.55-.74-.38-1.49.22-2.14.57-.61,1.52-.72,2.13-.18.26.23.48.68.46,1.01-.05.89-.9,1.67-1.95,1.83Z"/>
    <path class="cls-1" d="m533.77,492.41c-.26.25-.62.88-1.14,1.07-.68.25-1.46-.67-1.48-1.57-.01-.78.37-1.3,1.15-1.42.81-.13,1.45.59,1.47,1.92Z"/>
    <path class="cls-1" d="m522.28,301.68c-.39.29-.91.94-1.53,1.08-.88.21-1.93-.91-1.65-1.72.18-.52.76-1.11,1.28-1.27.86-.27,1.88.67,1.91,1.9Z"/>
    <path class="cls-1" d="m547.51,440.22c-1.18,0-2.02-.99-1.86-1.95.11-.66.48-1.23,1.28-1.26.77-.02,1.6.7,1.46,1.5-.11.65-.63,1.24-.88,1.71Z"/>
    <path class="cls-1" d="m540.09,333.82c-.4.21-1,.68-1.67.82-.51.1-1.08-1.02-.72-1.55.32-.48.93-.89,1.48-1.05.54-.15,1.15.83.9,1.78Z"/>
    <path class="cls-1" d="m526.29,549.07c-.53.41-.98,1.03-1.49,1.09-.79.09-1.14-.59-1.09-1.36.02-.4.08-.82.22-1.19.08-.23.35-.54.53-.54.37,0,.86.1,1.06.35.32.39.45.95.76,1.65Z"/>
    <path class="cls-1" d="m540.1,540.76c-.73.75-1.14,1.46-1.75,1.73-.72.32-1.54-.55-1.53-1.43,0-.87.7-1.66,1.52-1.49.54.11.99.64,1.77,1.19Z"/>
    <path class="cls-1" d="m556.15,546.82c0,1.26-.71,2.05-1.44,1.79-.43-.15-.9-.61-1.05-1.03-.24-.7.6-1.84,1.26-1.69.52.12.93.7,1.23.94Z"/>
    <path class="cls-1" d="m508.28,331.9c-.23.22-.52.73-.93.86-.94.31-1.97-.4-1.97-1.39,0-.39.44-1.01.82-1.14.87-.3,1.9.48,2.09,1.67Z"/>
    <path class="cls-1" d="m541,551.29c.1,1.1-.54,1.83-1.45,1.73-.38-.04-.95-.53-1-.89-.13-.82.66-1.63,1.42-1.51.43.07.8.51,1.03.67Z"/>
    <path class="cls-1" d="m535.18,393.88c-.66-.73-1.24-1.11-1.39-1.61-.22-.74.56-1.64,1.26-1.75.55-.09,1.47.6,1.33,1.16-.17.67-.66,1.25-1.2,2.21Z"/>
    <path class="cls-1" d="m541.81,462.24c.49,1.04.93,1.64,1.02,2.3.04.3-.53.9-.92,1-.7.19-1.52-.66-1.37-1.48.1-.52.63-.95,1.26-1.82Z"/>
    <path class="cls-1" d="m528.47,513.22c-.22.2-.54.68-.97.81-.74.23-1.64-.63-1.47-1.44.09-.43.53-.96.94-1.1.75-.25,1.54.58,1.51,1.73Z"/>
    <path class="cls-1" d="m507.09,348.33c-.7.55-1.13,1.03-1.66,1.22-.17.06-.95-.81-.87-.99.25-.54.74-1.01,1.24-1.35.1-.07.68.58,1.29,1.12Z"/>
    <path class="cls-1" d="m521.08,559.86c.56.82,1.05,1.28,1.22,1.84.18.61-.58,1.38-1.21,1.29-.73-.1-1.35-.53-1.18-1.32.12-.55.63-1.01,1.17-1.81Z"/>
    <path class="cls-1" d="m523.49,408.68c.22-.2.53-.71.95-.83.72-.2,1.57.69,1.43,1.55-.07.43-.51.99-.9,1.13-.68.24-1.42-.63-1.48-1.85Z"/>
    <path class="cls-1" d="m545.26,413.03c.47.97.91,1.49.92,2.03,0,.34-.57.86-.98,1.01-.59.21-1.37-.55-1.18-1.18.16-.53.63-.98,1.25-1.86Z"/>
    <path class="cls-1" d="m552.66,460.08c-.67-.84-1.17-1.25-1.36-1.76-.26-.7.27-1.46.89-1.47.79-.02,1.3.5,1.3,1.18,0,.54-.41,1.08-.83,2.06Z"/>
    <path class="cls-1" d="m539.31,518.27c-.28.14-.73.57-1.15.54-.78-.07-1.17-.76-1.03-1.48.09-.42.56-1,.94-1.06.75-.13,1.39.84,1.23,2.01Z"/>
    <path class="cls-1" d="m541.72,501.65c-.82.46-1.31.95-1.83.97-.72.03-1.12-.57-1.1-1.33.02-.66.75-1.29,1.34-1.04.51.21.87.75,1.58,1.4Z"/>
    <path class="cls-1" d="m552.19,485.53c-1.03.22-1.58.44-2.13.41-.24-.01-.59-.51-.64-.83-.09-.56.8-1.15,1.42-.89.39.17.66.62,1.35,1.32Z"/>
    <path class="cls-1" d="m548.22,542.95c-.23.18-.56.63-.99.74-.73.19-1.39-.63-1.2-1.57.08-.4.53-.93.91-1.02.71-.17,1.35.71,1.28,1.85Z"/>
    <path class="cls-1" d="m542.76,486.26c-.78.38-1.27.82-1.61.73-.38-.11-.83-.68-.88-1.09-.07-.61.46-1.04,1.08-.82.42.15.74.6,1.41,1.18Z"/>
    <path class="cls-1" d="m554.13,502.24c-.66.63-1.02,1.16-1.52,1.36-.19.08-.89-.53-.99-.92-.2-.75.33-1.31,1.05-1.35.38-.02.78.46,1.46.91Z"/>
    <path class="cls-1" d="m532.78,469.21c-.69.4-1.11.83-1.52.83-.6,0-.99-.57-.75-1.14.17-.41.7-.89,1.08-.9.31,0,.65.63,1.19,1.22Z"/>
    <path class="cls-1" d="m539.83,526.83c-.75.42-1.22.86-1.72.9-.25.02-.81-.67-.81-1.04.02-.66.48-1.3,1.26-1.11.4.1.68.64,1.27,1.25Z"/>
    <path class="cls-1" d="m538.08,430.31c-.85.29-1.36.64-1.68.51-.38-.15-.82-.71-.81-1.09,0-.33.78-.97.9-.9.49.27.86.76,1.59,1.48Z"/>
    <path class="cls-1" d="m529.6,545.38c-.33-.77-.66-1.2-.66-1.63,0-.73.83-1.26,1.38-.87.32.22.57.87.49,1.25-.08.38-.61.67-1.21,1.26Z"/>
    <path class="cls-1" d="m541.21,475.01c-.77.47-1.15.85-1.58.91-.23.03-.7-.43-.77-.74-.14-.57.12-1.17.79-1.13.41.03.8.47,1.56.95Z"/>
    <path class="cls-1" d="m548.57,303.1c-.5-.47-.94-.69-.99-.97-.12-.67.39-.93.98-.91.22,0,.65.29.63.35-.13.45-.34.88-.62,1.53Z"/>
    <path class="cls-1" d="m534,449.98c-.39.27-.74.67-.93.6-.28-.1-.63-.55-.6-.82.03-.27.48-.49.75-.73.22.27.45.54.78.95Z"/>
    <path class="cls-1" d="m554.68,329.74c-.52-.51-.91-.72-1-1.02-.18-.59.1-1.1.76-1.08.29,0,.8.39.8.61,0,.41-.29.83-.56,1.49Z"/>
    <path class="cls-1" d="m528.77,534.46c.43-.21.83-.55,1.01-.46.27.13.55.58.53.87-.01.21-.56.6-.77.54-.27-.07-.44-.51-.77-.95Z"/>
    <path class="cls-1" d="m537.08,256.94c6.07-.93,5.65-4.04,4.43-7.82-.46-1.41-1.3-2.69-1.96-4.04-.29-.61-.59-1.22-.8-1.86-.07-.2.05-.61.22-.72.3-.2.7-.27,1.07-.35.12-.03.27.04.39.1,3.57,1.99,6.53,7.94,5.92,11.9-.28,1.86-1.28,3.3-2.7,4.44-2.77,2.23-6.02,3.25-9.52,3.21-4.23-.05-8-2.92-9.21-6.94-.34-1.13-.46-2.49-.19-3.62.85-3.56,2.7-6.56,5.73-8.7,1.61-1.13,3.42-1.79,5.4-1.1.42.15.94.74.96,1.14.01.37-.56,1.04-.94,1.09-3.79.51-5.44,3.36-6.99,6.27-.94,1.75-.69,3.5.72,4.9.95.94,2.02,1.91,3.22,2.42,1.37.59,2.95.57,4.32-.36l-.06.04Z"/>
    <path class="cls-1" d="m537.14,256.9c-1.79-.95-3.61-1.86-5.38-2.85-.91-.51-1.2-1.44-1.34-2.42-.26-1.86.1-3.52,1.46-4.91.66-.67,1.61-.5,1.89.44.23.78.33,1.59.51,2.49,1.02.26,2.27-.71,3.2.6.53.75,1.47,1.2,2.18,1.83.99.88.91,1.85-.15,2.74-.82.69-1.62,1.41-2.43,2.11,0,0,.06-.04.06-.04Z"/>
    <path class="cls-1" d="m518.78,256.23c-.77-.04-.91-.05-1.04-.06-1.81-.13-3.14-1.12-2.93-2.17.18-.89,1.25-1.44,3.04-1.42,1.34.02,2.7.09,4.02.32.39.07.93.7.96,1.11.03.4-.4,1.08-.79,1.23-1.24.49-2.55.79-3.26.99Z"/>
    <path class="cls-1" d="m548.22,251.35c2.67-1.47,5.16-.33,7.83.03-.28,2.23-1.82,2.33-3.25,2.53-2.05.29-3.76-.11-4.59-2.56Z"/>
    <path class="cls-1" d="m473.35,477.94c-.52.46-.73.63-.91.82-1.79,1.91-3.49,1.79-4.25-.58-1.29-4.03-4.37-6.46-7.4-8.98-.06-.05-.25.05-.61.13-.46,1.35-.08,2.83-.12,4.29-.04,1.36-.09,2.73-.31,4.07-.16.97-1.2,1.6-2.15,1.54-1.11-.07-1.99-.99-2.05-2.17,0-.14-.02-.27,0-.41.32-4.23.61-8.45.97-12.67.1-1.2.11-2.67,1.42-3.16,1.41-.53,2.2.78,3.01,1.67,1.2,1.31,2.31,2.7,3.51,4.01.34.37.86.57,1.57,1.03.3-1.47.52-2.64.79-3.8.18-.8.28-1.66.69-2.34.3-.49,1.06-1.02,1.57-.97.52.05,1.23.69,1.4,1.22.28.88.17,1.89.28,2.84.27,2.29.57,4.57.92,7.34,1.22-1.1,1.04-2.1.89-2.91-.35-1.94-.09-3.82.31-5.7.27-1.27.98-2.21,2.3-2.64,1.93-.63,3.69-1.86,5.88-1.5.37.06.89-.03,1.15-.26,2.14-1.95,4.68-1.28,7.06-.97,3.66.48,5.2,3.71,3.46,7.02-.75,1.43-1.73,2.73-2.57,4.02.76,1.36,1.6,2.47,2.02,3.71.43,1.26.54,2.65.61,3.99.02.41-.48,1.13-.87,1.23-.57.15-1.43.07-1.85-.28-.82-.69-1.39-1.67-2.13-2.47-.51-.55-1.13-1.01-1.68-1.5-1.3.97-.84,2.17-1.04,3.18-.38,1.86-.9,2.3-2.75,2.23-.26-.01-.52-.19-.79-.21-1.48-.09-2.68,1.44-4.33.66-1.22-.58-2.54-.96-3.97-1.48Zm7.09-2.32c.74-5.51.74-9.32,0-11.86-.5.12-1.02.2-1.5.39-1,.39-1.98.83-3.09,1.31.05,1.01.1,1.9.14,2.74,1.12.28,2.04.44,2.92.74.63.21.8,1.27.34,1.73-.28.28-.58.6-.93.76-.83.4-1.96.5-1.79,1.82.15,1.15,1.22,1.36,2.05,1.76.57.28,1.22.41,1.87.62Zm4.69-10.68c1.95-.94,1.99-.9,2.8-2.08.1-.14-.09-.47-.18-.87h-2.24c-.76.95-.96,1.89-.38,2.95Z"/>
    <path class="cls-1" d="m437.64,501.07c-1.06.27-2.1.59-3.17.8-1.32.26-2.16,1.06-2.83,2.16-.71,1.16-1.47,2.3-2.31,3.38-.51.67-1.24,1.11-2.15.67-.86-.41-1.13-1.14-.97-2.03.26-1.45.93-2.87.33-4.71-.91.76-1.67,1.46-2.5,2.08-2.02,1.52-3.12,1.28-4.67-.97-.29-.42-.57-.84-1.02-1.5-.77.65-1.41,1.09-1.92,1.64-1.4,1.49-2.62,3.17-4.13,4.52-1.96,1.74-2.67,1.55-4.69-.59-.18-.19-.43-.31-.81-.57-.53.13-1.17.35-1.83.45-1.79.25-2.95-.81-2.66-2.58.22-1.33.73-2.62,1.19-3.9.37-1.03.98-1.97,1.28-3.01.28-.98.31-2.04.48-3.34.97.23,1.8.43,2.76.66-.41,3.13-2.41,5.43-2.95,8.2.38.13.75.35.84.27.67-.65,1.47-1.26,1.87-2.06,1.2-2.45,2.23-4.98,3.36-7.47.34-.74.69-1.54,1.25-2.09.42-.41,1.28-.74,1.78-.58.51.16,1.05.91,1.16,1.49.37,1.82-.23,3.54-1.12,5.1-.88,1.54-1.95,2.97-2.88,4.48-.32.52-.46,1.15-.83,2.09.79-.22,1.24-.22,1.46-.44.58-.57,1.14-1.19,1.56-1.88,1.03-1.7,1.47-3.85,4.27-3.69,3.25.19,3.26.04,5.86,1.74.47-.61,1.04-1.18,1.41-1.86,1.83-3.33,4.72-5.21,8.27-6.23,1.05-.3,2.08-.7,3.14-.93,1.79-.39,3.58-.31,5.1.83.62.46,1.38,1.2,1.43,1.87.13,1.6.19,3.13.9,4.66.53,1.15-1.05,2.77-2.08,2.16-2.06-1.22-2.98.36-4.26,1.23l.07-.06Zm-4.68-5.3q-3.15.6-3.79,2.45c.69,0,1.54.26,1.91-.05.76-.64,1.27-1.58,1.88-2.4Zm6.06-1.9c-.66.1-1.55-.02-1.78.32-.5.73-.67,1.68-.95,2.55-.03.08.12.3.21.32.24.04.56.11.72,0,.99-.7,1.83-1.51,1.8-3.18Z"/>
    <path class="cls-1" d="m437.58,501.13c.52.07,1.04.15,1.65.23.22,1.02.42,1.92.62,2.82.29-.03.61.03.77-.11,4.27-3.54,7.64-7.81,10.32-12.65.52-.94,1.17-1.84,1.92-2.61.28-.29,1.15-.4,1.48-.19.5.33,1.15,1.11,1.05,1.53-.28,1.16-.75,2.36-1.44,3.33-1.74,2.45-3.65,4.79-5.48,7.18-.82,1.06-1.61,2.14-2.36,3.15.66.85,1.17.52,1.59.24,1.95-1.26,3.87-2.57,5.82-3.84.45-.3.92-.67,1.43-.76.47-.08,1.17.04,1.45.35.26.29.28,1.04.09,1.44-.34.72-.97,1.3-1.34,2.01-.13.25.15.71.27,1.2,1.6-.31,2.32-1.54,3.29-2.44.88-.82,1.43-2.05,3.05-2.3.56.56,1.2,1.21,1.84,1.86,2.79-.7,2.4-1.22,3.37,2.91.74-.36,1.53-.57,2.08-1.06,1.02-.91,1.89-1.98,2.83-2.97,1.04-1.1,2.16-.93,3.43-.11,1.1-.72,2.21-1.52,3.38-2.18,1.42-.81,2.89-.67,4.29.13.72.41.82,1.64.1,2.09-.56.35-1.24.75-1.84.72-1.89-.12-3.09.89-4.17,2.2-.35.42-.62.91-.98,1.32-1.76,2.04-2.28,2.18-5.5,1.52-.78.61-1.6,1.33-2.5,1.94-1.46.99-2.39.83-3.35-.75-.54-.88-.96-1.53-2.13-1.56-.78-.02-1.54-.46-2.64-.82-.88.76-1.88,1.64-2.9,2.51-.62.53-1.24,1.08-1.91,1.55-1.23.88-3.54.55-3.73-1.56-.04-.49-.2-.96-.37-1.75-1.43.82-2.59,1.49-3.76,2.14-1.7.93-3.37,1.17-4.86-.53-.99.4-1.84.84-2.74,1.09-1.86.52-3.4-.65-3.19-2.57.18-1.61.74-3.18,1.13-4.77,0,0-.07.06-.07.06Z"/>
    <path class="cls-1" d="m402.62,470.98c-.35,1.37-.47,2.34-.87,3.19-.45.97-1,1.98-1.77,2.7-2.49,2.38-5.98,1.79-7.58-1.28-.62-1.2-1.09-2.55-1.27-3.89-.42-3.11-.81-6.25-.85-9.38-.04-2.92,1.74-5.15,3.76-7.04,1.01-.94,2.41-1.26,3.85-.82,1.2.37,1.57,1.73.7,2.59-.2.19-.38.41-.61.54-3.15,1.77-4.17,4.53-3.72,7.98.26,2.03.51,4.06.84,6.08.08.51.38,1.03.7,1.45.23.29.72.62,1.01.55.47-.11,1.08-.42,1.28-.82,1.13-2.22.67-4.14-1.35-6.16-.96-.96-1.16-1.75-.6-2.45.76-.96,1.88-1.31,2.91-.69.92.55,1.72,1.31,2.62,2.01.43-.47.87-.96,1.33-1.43.07-.07.25-.03.65-.07,1.91,3.21,1.44,7.77,5.15,10.36,1.68-.39,2.83-1.28,3.22-3.14.34-1.62.7-3.19.29-4.86-.23-.92-.27-1.89-.31-2.85-.03-.73.27-1.44,1.05-1.5.44-.03,1.14.3,1.35.67,2.05,3.79,2.8,7.66.65,11.72-.81,1.53-1.99,2.6-3.5,3.33-2.11,1.01-4.4.54-5.95-1.26-.62-.71-1.09-1.57-1.54-2.4-.46-.84-.81-1.73-1.46-3.14Z"/>
    <path class="cls-1" d="m447.99,465.21c-.36,1.48-.27,2.59,1.3,3.06.78.24,1.57.48,2.3.84.31.16.68.66.64.95-.07.49-.34,1.16-.73,1.34-.83.4-1.79.55-2.84.84v2.91c1.23.09,2.3.13,3.35.25.91.1,1.46.72,1.76,1.52.32.84-.09,1.97-.84,2.56-3.06,2.4-7.98.57-8.61-3.2-.07-.4-.1-.81-.11-1.22-.03-3.55-.01-7.1-.09-10.65-.04-1.88.71-3.13,2.49-3.77,1.41-.51,2.77-1.16,4.2-1.57.82-.23,1.74.13,1.98,1.02.16.57.03,1.41-.32,1.87-.56.74-1.36,1.32-2.13,1.87-.76.54-1.62.95-2.36,1.38Z"/>
    <path class="cls-1" d="m432.74,472.96c0,1.74.08,3.37-.03,4.98-.05.77-.34,1.59-.76,2.24-.22.35-.98.58-1.42.49-.44-.09-.82-.62-1.15-1.02-.15-.18-.15-.52-.15-.79-.04-5.99-.07-11.99-.1-18.12,1.24-1.37,3.01-1.47,4.8-1.48,1.58-.02,2.93.69,4.14,1.59,1.41,1.05,2.13,2.65,1.88,4.32-.46,3.07-1.57,5.84-4.93,6.93-.76.25-1.49.57-2.28.87Zm-.35-5.41c2.92-.33,3.4-.99,2.89-3.88-1.16-.35-2.3-1.03-3.81-.89,0,1.83.36,3.33.93,4.77Z"/>
    <path class="cls-1" d="m417.73,461.98c1.51.74,1.68,1.95,1.91,3.14.47,2.4,1.02,4.78,1.41,7.19.43,2.59,2.02,3.63,4.49,3.87,1.8.18,2.49.75,2.38,1.57-.17,1.34-1.29,1.75-2.28,2.04-3.52,1.02-6.53-.45-7.52-3.66-1.26-4.07-1.73-8.23-1.3-12.47.06-.57.58-1.09.91-1.67Z"/>
    <path class="cls-1" d="m456.19,439.55c-.26-.06-.66-.12-1.05-.23-.56-.16-.85-1.25-.48-1.74,1.19-1.6,4.32-2.67,6.26-2.16.78.21,1.11,1.4.55,2.02-1.25,1.38-3.06,2.13-5.27,2.11Z"/>
    <path class="cls-1" d="m428.59,437.74c-.83.44-1.62.98-2.5,1.28-.74.26-1.61.45-2.36.3-.99-.19-2.19-.26-2.68-1.44-.32-.76.87-1.51,2.73-1.68.94-.08,1.88-.11,2.82-.13,1.16-.03,1.61.79,1.94,1.72,0,0,.04-.06.04-.06Z"/>
    <path class="cls-1" d="m463.94,595.28c-.81-.3-2.13-.65-3.3-1.29-.41-.22-.59-1.15-.57-1.74,0-.23.93-.73,1.27-.62,1.71.58,3.18.05,4.74-.58,1.64-.67,3.34-1.2,5.05-1.64,1.88-.49,3.8-.57,5.59.4.31.17.67.63.64.93-.05.48-.34.97-.63,1.4-.13.19-.46.29-.72.36-3.44.87-6.87,1.73-10.32,2.58-.39.1-.81.1-1.76.2Z"/>
    <path class="cls-1" d="m449.27,589.42c.58-.1,1.39-.2,2.19-.36,1.13-.23,2.21-.06,3.14.59.51.36,1.21.89,1.26,1.4.09,1.02-.85,1.29-1.7,1.3-2.18.03-4.2,1.08-6.48.76-.91-.13-1.99.75-2.96,1.23-1.38.68-2.79,1.13-4.35.77-1-.23-1.69-1-1.67-2.04.01-.72.39-1.6,1.11-1.43,1.83.42,3.14-.45,4.54-1.32,1.43-.89,2.97-1.41,4.94-.87Z"/>
    <path class="cls-1" d="m459.31,586c.59-.31,1.13-.73,1.74-.89,2.75-.7,5.54-1.26,8.28-2.02,1.81-.5,3.49-.4,5.12.45.31.16.69.65.65.93-.06.47-.43.9-.7,1.33-.06.1-.23.16-.36.18-3.74.62-7.48,1.33-11.24,1.78-1.24.15-2.78.02-3.5-1.77Z"/>
    <path class="cls-1" d="m425.59,574.98c.63-.41.96-.66,1.32-.84.82-.42,1.63-.34,2.22.37.51.61.78,1.44,1.88.93.86-.4,1.71-.02,2.1.73.27.5.26,1.33.04,1.87-.32.76-1.3,1.56-1.92,1.03-1.61-1.36-3.79-.13-5.33-1.45-.62-.53-1.23-.11-1.88.1-1.93.61-3.04.3-3.5-.84-.42-1.02.29-2.57,1.63-3.42.76-.48,1.57-.44,2.26.16.4.35.71.81,1.19,1.37Z"/>
    <path class="cls-1" d="m466.44,578.34c-.4.08-1.31.42-2.23.41-.58,0-1.39-.37-1.69-.83-.61-.93-.82-2.07-.05-3.06.56-.73,1.39-.8,2.23-.52.63.22,1.6.89,1.78.71,1.28-1.29,2.95,0,4.24-.78.23-.14.45-.34.7-.43,1.33-.47,2.65,0,3.11,1.11.48,1.16-.56,3.09-1.95,3-1.92-.13-3.69.85-6.14.39Z"/>
    <path class="cls-1" d="m406.63,574.16c-.08-1.32,1.28-2.35,2.55-1.69,1.02.53,1.78,1.19,2.92.34.24-.18.87-.09,1.15.1.96.66,1.86.84,3.07.6,1.32-.25,2.24.87,2.28,2.26.03,1.33-1.5,2.53-2.51,1.75-1.49-1.15-3.24-1.13-4.83-1.73-1.07-.4-1.83.03-2.74.13-.96.1-1.83-.8-1.89-1.77Z"/>
    <path class="cls-1" d="m426.66,583.68c2.72.18,5.12.09,6.9,1.98.25.27.51.81.4,1.06-.19.43-.62.93-1.05,1.05-.63.17-1.35.1-2.02,0-1.89-.28-3.8-.56-5.66-.99-.74-.17-1.46-.67-2.03-1.19-.18-.17.04-1.25.25-1.31,1.17-.33,2.39-.47,3.21-.6Z"/>
    <path class="cls-1" d="m438.92,585.84c3.64-.4,6.87-.8,10.11-1.09.64-.06,1.34.21,1.95.48.29.13.56.63.56.97,0,.35-.27.75-.51,1.05-.15.2-.45.36-.7.38-2.31.26-4.61.64-6.93.68-1.17.02-2.38-.5-3.51-.94-.35-.13-.5-.77-.97-1.54Z"/>
    <path class="cls-1" d="m447.29,577.52c-.61.58-1.03,1.14-1.59,1.49-1.17.73-2.5.28-3.02-.95-.46-1.07-.36-2.11.37-3.04.66-.85,1.7-1.1,2.92-.46.97.51,1.76,1.1,2.98.71.86-.28,1.61.31,1.81,1.18.11.45-.04,1.1-.33,1.47-.6.78-1.4.59-2.15.11-.22-.14-.47-.25-.99-.52Z"/>
    <path class="cls-1" d="m428.97,595.2c-1.04-.29-1.87-.4-2.58-.74-1.56-.76-1.61-3.05-.12-4.06.31-.21.82-.38,1.13-.26,1.51.58,3,1.21,4.46,1.91.74.35.71,1.64-.07,2.04-.94.48-1.97.78-2.82,1.11Z"/>
    <path class="cls-1" d="m412.02,586.73c-.62-.27-1.4-.5-2.04-.92-.76-.51-.92-1.83-.45-2.55.79-1.23,2.9-2.05,4.27-1.62,1.11.36,1.77,1.17,2,2.32.2.99-.28,1.93-1.25,2.23-.76.24-1.57.34-2.52.54Z"/>
    <path class="cls-1" d="m413.35,591.03c.61-.11,1.15-.33,1.65-.27,1.48.18,2.96.4,4.41.75.43.1.95.61,1.05,1.03.1.43-.25.97-.43,1.46-.04.11-.19.19-.3.27-1.09.8-2.29.9-3.48.36-1.49-.67-2.92-1.46-2.89-3.59Z"/>
    <path class="cls-1" d="m439.98,578.03c-.17.2-.42.76-.84.95-.57.26-1.28.36-1.91.3-1.26-.13-2.09-1.18-1.84-2.12.31-1.17,1.52-1.9,2.8-1.67,1.11.2,1.95,1.24,1.79,2.55Z"/>
    <path class="cls-1" d="m460.84,577.11c-.06,1.01-.95,1.78-1.92,1.66-1.01-.12-1.69-1-1.54-2,.17-1.13.85-1.9,1.74-1.96,1.01-.07,1.81.99,1.72,2.3Z"/>
    <path class="cls-1" d="m453.93,578.38c-.95.02-1.63-.75-1.68-1.9-.04-.93.56-1.6,1.43-1.6,1.02,0,1.71.76,1.71,1.86,0,.87-.67,1.63-1.46,1.64Z"/>
    <path class="cls-1" d="m435.71,269.09c.52-1.19,1.07-2.45,1.6-3.67-1.07-.19-2.3-.33-3.49-.64-1.38-.36-2.09-1.28-2.17-2.63-.03-.54.04-1.09.1-1.63.14-1.12.5-2.15,1.6-2.69,1.22-.61,2.05.16,2.91.87.29.24.72.31,1.28.53.6-.71,1.14-1.48,1.82-2.08.35-.31,1.1-.56,1.45-.39.53.26,1.25.94,1.23,1.4-.14,2.15-.5,4.29-.78,6.43-.04.26-.11.52-.16.78,2.84,3.32,2.79,3.81-.86,6.96.91,2.56-1.41,4.01-2.73,6.23,1.55.26,2.81.47,4.07.67.56,1.41,1.04,2.67,1.55,3.92.47,1.15.27,2.25-.64,2.99-2.49,2.01-5.41,2.53-8.5,1.92-1.24-.24-2.64-2.35-2.7-3.78-.01-.23.15-.59.34-.7.32-.17.87-.39,1.08-.24.76.53,1.43,1.2,2.23,1.9.28-.31.58-.55.78-.86.99-1.51.98-1.51,2.48-.81.35.16.7.33,1.06.45.06.02.27-.15.28-.25.02-.24.05-.68-.06-.72-.61-.24-1.24-.51-1.88-.54-1.67-.07-3.22-.4-4.69-1.7.6-1.63,1.2-3.25,1.85-5.02-1.32-.7-2.57-1.36-3.68-1.94-.16-1.64,1.41-1.35,1.87-2.34-.05-.25-.01-.71-.21-1-.73-1.04-1.26-2.13-1.01-3.43.07-.34.36-.77.66-.9.32-.14.93-.11,1.13.11.8.88,1.49,1.86,2.2,2.77Z"/>
    <path class="cls-1" d="m439.77,311.42c1.08.7,1.82,1.07,2.43,1.6,1.32,1.15,1.45,2.54.49,4.03-1.59,2.46-6.05,4.06-8.74,3.1-1.36-.49-2.44-1.38-2.71-2.83-.12-.66.29-1.43.55-2.56.88.61,1.44.93,1.91,1.35,1.59,1.42,3.27,1,4.96.27.18-.08.33-.45.31-.67-.02-.23-.23-.58-.41-.62-.78-.18-1.6-.21-2.38-.41-.77-.19-1.31-1.23-1.07-1.97.44-1.31,1.01-2.52,2.35-3.21.96-.49,1.92-1.03,2.12-2.32-.85-1.09-1.96-.49-2.98-.54-.61-.03-1.4-.24-1.75-.67-.58-.72-.21-1.61.39-2.21.46-.47,1.12-.74,1.75-1.14-.65-.4-1.3-.76-1.91-1.19-.2-.14-.27-.45-.43-.73.73-2.32,3.36-1.98,5.14-3.51-.68-.29-1.1-.55-1.55-.65-1.19-.26-2.46-.29-3.59-.71-1.78-.66-2.76-2.87-2.33-4.74.31-1.32,1.83-2.35,3.16-1.86,1.65.61,3.23,1.42,4.76,2.29.93.53,1.7,1.32,2.72,2.13.38,1.25-.54,2.64,0,4.17.64,1.85-1.07,2.88-2.36,3.85.72,1.1,1.42,2.11,2.04,3.16,1.09,1.85.93,3.27-.57,4.78-.57.57-1.26,1.01-2.29,1.82Z"/>
    <path class="cls-1" d="m438.37,432.24c-.22,1.79-.38,3.11-.53,4.36,1.44.97,1.48-1.1,2.84-.77.57.43,1.34,1.28,2.29,1.65.84.33,1.91.03,2.83.24.58.13,1.36.59,1.52,1.08.16.49-.15,1.47-.58,1.75-1.68,1.14-3.49,2.09-5.23,3.1-1.79-1.09-3.44-2-4.98-3.05-1.43-.98-2.27-2.39-2.1-4.2.17-1.92,1.05-2.88,3.94-4.15Z"/>
  </g>
</svg>