<?xml version="1.0" encoding="UTF-8"?>
<svg id="Laag_1" data-name="Laag 1" xmlns="http://www.w3.org/2000/svg" viewBox="0 0 850.39 850.39">
  <defs>
    <style>
      .cls-1 {
        fill: #131f48;
      }

      .cls-1, .cls-2 {
        stroke-width: 0px;
      }

      .cls-2 {
        fill: #a5d6af;
      }
    </style>
  </defs>
  <path class="cls-2" d="m595.28,596.15s-14.63,105.09-192.25,103.89c-187.61-1.27-38.82-236.78-59.52-397.22-20.7-160.44,190.2-182.44,245.84-117.74,55.64,64.69,5.93,411.07,5.93,411.07Z"/>
  <g>
    <path class="cls-1" d="m273.01,268.46c-.77-1.42-1.41-2.94-2.34-4.26-3.19-4.53-4.49-9.61-4.78-15.06-.2-3.69-.62-7.37-1.02-11.04-.1-.91-.52-1.78-.84-2.82-1.93.31-3.67.61-5.42.87-2.66.39-3.97.04-4.34-1.22-.55-1.88.65-3.05,1.8-4.27,2.58-2.72,5.78-4.57,8.91-6.54,1.04-.65,2.09-1.31,3.07-2.05,1.44-1.08,2.01-2.49,1.58-4.33-.41-1.73-.75-3.49-.91-5.25-.16-1.87,1.01-3.01,2.76-2.57,5.56,1.41,10.22-.92,14.8-3.45,2.03-1.12,3.85-2.62,5.82-3.86,2.2-1.38,4.47-2.64,6.7-3.98.58-.35,1.15-.74,1.67-1.17.18-.15.21-.48.4-.98-.57-.58-1.19-1.26-1.87-1.89-1.87-1.72-2.93-3.94-3.85-6.24-.87-2.19-.3-4.12,1.39-5.58,1.44-1.24,3-2.46,4.72-3.24,5.12-2.3,10.26-4.59,15.54-6.48,4.13-1.48,8.54-1.85,12.94-2.14,5.32-.36,10.63-.95,15.94-1.42,3.41-.3,6.83-.51,10.24-.85,3.13-.31,6.25-.82,9.39-1.11,3.68-.34,7.37-.53,11.06-.79,15.46-1.1,30.96-.78,46.44-.96,6.69-.08,13.39.84,20.09,1.28,3.14.21,6.28.56,9.41.51,5.78-.1,11.47.44,17.17,1.35,3.78.61,7.62.78,11.44,1.17,6.33.65,12.37,2.29,18.12,5.03,3.14,1.49,5.77,3.67,8.45,5.81,1.23.98,1.54,2.26,1.08,3.68-.53,1.66-1.21,3.28-1.88,5.05.64.33,1.09.67,1.58.78.66.15,1.37.2,2.04.15,5.03-.38,9.78.94,14.51,2.35,1.04.31,2.13.64,3.2.65,2.55.02,4.36,1.3,6.06,3.02,6.17,6.23,12.39,12.41,18.58,18.63,2.41,2.43,4.8,4.88,7.15,7.37,1.17,1.24,2.56,2.02,4.17,2.5,5.77,1.7,11.55,3.38,17.3,5.16,1.68.52,3.14,1.2,3.72,3.33.4,1.46,1.75,2.73,2.86,3.9,1.88,1.99,3.96,3.79,5.87,5.75.85.87,1.58,1.89,2.22,2.93.52.84.22,2.08-.45,2.64-.72.59-1.54.57-2.31.17-4.99-2.57-10.3-4.51-15.04-7.53-2.11-1.34-3.93-1.05-5.68.25-1.53,1.14-2.91,2.49-4.23,3.87-2.06,2.15-4.51,3.48-7.38,4.23-1.97.52-3.77.36-5.59-.49-1.47-.69-2.99-1.3-4.69-2.03-1.46,2.13-2.69,4.22-4.22,6.08-1.56,1.89-3.4,3.53-5.02,5.18.08.5.03.83.17,1.02,5.09,6.78,8.2,14.43,10.4,22.58,2.02,7.47,2.41,15.12,3.44,22.7.04.27.08.55.04.82-.99,7.19,1.15,14.13,1.64,21.2.07,1.08.24,2.19.09,3.25-.84,6.28-.61,12.59-.33,18.88.42,9.57.96,19.14,1.42,28.72.09,1.78.13,3.56.05,5.34-.32,7.13.49,14.23.64,21.34.17,7.39.42,14.79.33,22.18-.09,7.66-.65,15.32-.8,22.98-.16,8.22-.08,16.44-.1,24.65-.01,5.33.08,10.67-.74,15.97-.31,2.02-.35,4.1-.29,6.15.25,7.93.33,15.87,1.12,23.79.34,3.4.53,6.83.55,10.25.06,9.18.04,18.36-.03,27.54-.03,4.52-.23,9.03-.36,13.54-.01.55-.07,1.1-.02,1.64.63,6.43.45,12.85-.11,19.27-.16,1.91-.12,3.83-.24,5.75-.24,3.96-.34,7.94-.84,11.87-.54,4.23-.76,8.45-.7,12.69.06,4.32-.9,8.42-2.44,12.42-.44,1.14-.83,2.32-1.03,3.52-.39,2.43-1.74,4.2-3.36,5.96-4.38,4.78-9.56,8.62-14.62,12.55-4.98,3.87-10.62,6.71-16.53,9.05-5.34,2.11-10.56,4.54-15.84,6.83-.38.16-.73.38-1.12.5-5.11,1.54-10.23,3.07-15.35,4.6-.53.16-1.07.25-1.59.43-10.3,3.55-21.16,4.36-31.75,6.46-3.6.72-7.37.5-11.05.87-10.94,1.07-21.9,1.06-32.86.88-6.57-.11-13.14-.53-19.71-.85-1.09-.05-2.16-.37-3.25-.49-5.45-.62-10.88-1.35-16.34-1.78-10.38-.81-20.72-1.88-30.98-3.77-4.97-.92-10.05-1.27-15.06-2.02-4.76-.72-9.33-2.13-13.67-4.27-2.21-1.09-4.47-2.09-6.73-3.08-7.19-3.17-13.74-7.38-19.83-12.31-.32-.26-.61-.57-.96-.78-7.62-4.64-10.38-12.38-12.93-20.25-.76-2.34-1.54-4.68-2.11-7.07-.73-3.05-1.44-6.13-1.83-9.23-.88-6.92-1.63-13.86-2.29-20.81-.29-3.13-.23-6.29-.33-9.44-.1-3.28-.25-6.56-.3-9.85-.03-2.19-.03-4.38.14-6.56.34-4.25.26-8.47-.14-12.72-.26-2.72-.27-5.48-.21-8.21.14-6.02.01-12.04.49-18.06.37-4.75-.18-9.57-.29-14.36-.12-4.93-.24-9.86-.28-14.79-.03-3.56.05-7.12.13-10.68.06-2.6.23-5.19.33-7.79.09-2.46.13-4.93.23-7.39.25-5.88.82-11.76.71-17.63-.17-8.89-.81-17.77-1.24-26.65-.09-1.92-.12-3.83-.18-5.75-.49-16.85-.03-33.69,0-50.54.02-11.64.02-23.29.07-34.93.01-2.6.14-5.2.35-7.79.44-5.47.6-10.94-.09-16.4-.65-5.15-1.37-10.3-1.93-15.46-.54-4.96.01-9.84,1.49-14.61,2.08-6.72,5.31-12.9,8.85-18.94.55-.94,1.07-1.9,1.71-3.04Zm272.75,132.48c.38.6.89,1.25,1.22,1.98.45.99.99,2.01,1.09,3.06.23,2.44.29,4.91.3,7.36.05,7.53.05,15.06.05,22.6,0,1.23,0,2.47-.14,3.69-.46,3.68-2.34,6.4-5.79,7.87-2.67,1.14-5.52,1.71-8.4,1.71-3,0-6-.36-9-.49-2.05-.09-4.12-.21-6.16-.05-5.6.41-11.2.9-16.78,1.49-2.16.23-4.3.8-6.43,1.28-1.33.3-2.63.77-3.95,1.11-6.5,1.67-12.98,3.38-19.51,4.94-4.52,1.08-9.09,1.99-13.66,2.86-2.57.49-5.16.41-7.75-.16-5.08-1.11-10.2-2.05-15.29-3.09-1.91-.39-3.79-.35-5.71-.04-3.11.49-6.23,1.08-9.37,1.2-4.56.18-8.97.97-13.36,2.12-3.7.97-7.38,2.14-11.15,2.74-9.1,1.45-17.97,3.63-26.59,6.92-5.37,2.05-10.86,3.79-16.59,4.66-6.5,1-12.95,2.27-19.12,4.62-3.84,1.46-7.68,2.95-11.43,4.6-8.28,3.65-17.04,6.01-25.31,9.69-3.14,1.4-6.58,1.8-10.07,1.01-3.2-.73-6.47-1.21-9.62-2.09-1.53-.43-2.97-1.39-4.27-2.36-2.09-1.56-3.04-3.68-3.04-6.39-.01-3.73,1.45-6.94,3.03-10.12,2.19-4.41,4.54-8.75,6.76-13.14.27-.53.21-1.23.34-2.14-1.91-.02-3.53.01-5.15-.08-2.31-.13-3.56-1.17-3.84-3.49-.21-1.75-.1-3.55,0-5.32.08-1.5.35-2.99.53-4.48.66-5.43,1.14-10.91,2.88-16.14.41-1.25.55-2.3,0-3.53-.77-1.71-.07-3.25,1.01-4.55.87-1.05,1.88-2.01,2.93-2.87,3.96-3.23,8.37-5.7,13.15-7.51,2.43-.92,4.92-1.71,7.31-2.74,5.55-2.39,11.2-4.45,17.09-5.82.93-.22,1.85-.52,2.75-.83.77-.26,1.51-.58,2.27-.88-1.64-.27-3.14-.18-4.63-.05-4.5.41-8.99.92-13.5,1.23-1.76.12-3.54-.13-5.31-.28-3.53-.31-6.98-1.38-10.59-1.1-3.32.25-6.55-.58-9.74-1.35-1.42-.34-2.79-1.12-4.05-1.91-1.73-1.09-2.75-2.75-2.53-4.85.2-1.89.66-3.75.99-5.63.26-1.47.66-2.94.68-4.42,0-.87-.41-1.92-.99-2.59-1.15-1.32-2.62-2.26-4.79-2.6-.08,1.61-.2,2.94-.2,4.28.02,13.14-.32,26.29.36,39.43.5,9.7.91,19.41,1.35,29.11.08,1.77.08,3.55.24,5.32.83,9.46-.1,18.89-.71,28.31-.2,3.13-.56,6.26-.58,9.41-.02,3.7-.01,7.4-.12,11.1-.22,7.66-.52,15.3-.06,22.97.26,4.22-.11,8.49-.19,12.73-.08,3.96-.27,7.93-.21,11.89.12,7.67.43,15.33.56,22.99.1,6.3.01,12.6.09,18.9.02,2.05.32,4.09.47,6.13.46,6.55,1.91,12.99,2.1,19.59.07,2.44.48,4.93,1.14,7.28,1.92,6.85,3.8,13.72,7,20.13,1.05,2.11,2.35,3.94,4.21,5.47,4.44,3.65,9.37,6.67,13.54,10.66.48.46,1.14.77,1.76,1.05,5.37,2.42,10.69,4.94,16.13,7.17,5.21,2.13,10.59,3.73,16.31,3.78,1.35.01,2.71.35,4.06.57,7.16,1.14,14.32,2.31,21.49,3.44,1.75.28,3.53.65,5.29.65,7.56-.01,15.03.98,22.5,1.88,6.13.74,12.26,1.24,18.42,1.42,6.3.19,12.6.28,18.9.36,6.44.08,12.87,0,19.27-.88,1.76-.24,3.56-.27,5.34-.22,5.66.16,11.18-.85,16.71-1.81,2.97-.52,5.93-1.04,8.89-1.61,2.68-.52,5.38-1.01,8.03-1.67,3.05-.76,6.07-1.66,9.09-2.55,1.7-.5,3.39-1.06,5.07-1.66,4.77-1.69,9.56-3.33,14-5.81.48-.27.99-.46,1.5-.67,4.81-1.99,9.65-3.89,14.41-5.99,3.64-1.6,7.06-3.63,10.14-6.17,1.9-1.57,3.77-3.18,5.64-4.79,3.86-3.32,7.31-7.03,10.43-11.03.83-1.06,1.57-2.28,2.02-3.54,1.19-3.36,2.1-6.79,2.08-10.42-.02-4.51.2-9.01.55-13.52.77-10.1,1.2-20.23,1.16-30.37-.06-13.7-.17-27.4.05-41.09.19-12.07-1.17-24.06-1.15-36.11,0-.68-.17-1.36-.23-2.04-.28-3.28-.24-6.53.15-9.83.69-5.84,1.46-11.69.99-17.61-.18-2.32-.23-4.65-.21-6.98.08-9.45.2-18.89.32-28.34.04-3.01-.1-6.01.58-8.99.46-2.01.39-4.06-.09-6.11-.31-1.32-.44-2.7-.44-4.05,0-3.01.11-6.03.18-9.04.05-2.05.16-4.1.13-6.15-.07-4.38-.23-8.76-.3-13.14-.08-4.66-.07-9.31-.13-13.97-.03-2.04-.33-4.03-1.44-5.98-2.03.42-3.68,1.28-5.41,2.33-.06,2.78-.17,5.51-.15,8.23.01,1.64.21,3.27.37,4.9.52,5.1.18,10.08-2.13,14.96Zm-232.51-127.76c-.57-.5-.93-.91-1.37-1.19-.81-.52-1.63-1.03-2.5-1.42-2.75-1.24-4.23-.95-6.02,1.56-2.47,3.45-4.8,7.01-7.07,10.59-.64,1.01-1.05,2.25-1.27,3.44-.5,2.69-1.07,5.41-1.15,8.13-.27,9.17-1.43,18.29-1.25,27.48.13,6.43-.42,12.88.7,19.27.5,2.83.87,5.69,1.23,8.54.14,1.08.21,2.19.1,3.27-.17,1.7-1.18,3.07-1.9,2.75-1.23-.54-1.2-1.75-1.26-2.82-.19-3.7-.71-7.35-1.55-10.96-.25-1.06-.28-2.18-.28-3.27,0-8.77.03-17.53.06-26.3,0-.82.13-1.64.2-2.46.19-2.45.54-4.91.54-7.36-.01-4.94.26-9.83,1.06-14.73.48-2.93,1.46-5.47,3.16-7.89,1.86-2.65,3.54-5.46,5.13-8.82-1.19,0-1.96-.06-2.72,0-3.68.32-7.36.7-11.04.99-1.96.15-3.81-.36-5.52-1.34-.82-.47-1.56-1.05-2.29-1.54-.36.22-.67.3-.81.5-4.56,6.73-8.21,13.93-10.66,21.67-1.2,3.79-1.73,7.78-1.25,11.77.36,2.98.96,5.94,1.52,8.9,1.07,5.7.94,11.45.71,17.2-.03.67-.15,1.39-.42,2-1.2,2.73-1.18,5.6-1.15,8.48.09,8.2.17,16.4.3,24.6,0,.6.39,1.19.54,1.61,2.88-.81,5.46-1.67,8.1-2.26,7.36-1.66,14.74-2.94,22.36-2.82,4.91.08,9.86-.35,14.75-.95,7.37-.9,14.76-.65,22.14-.93,3.41-.13,6.83.21,10.25.24,7.95.08,15.9.07,23.85.15,5.46.06,10.89,1.04,16.37.75,1.37-.07,2.32.58,3.24,1.83.81-1.72,2.25-1.85,3.82-1.87,4.79-.08,9.59-.14,14.37-.38,9.04-.45,18.07-.05,27.09.28,5.2.19,10.39.78,15.58.81,8.08.05,16.16-.25,24.24-.35,9.87-.12,19.74-.21,29.61-.29,4.25-.03,8.49-.03,12.74-.02.68,0,1.42,0,2.01.26.69.31,1.25.92,1.82,1.37,2.33-1.57,2.33-1.5,5.06-1.29,6.14.47,12.29.95,18.44,1.28,2.74.15,5.47.12,8.15.88.74.21,1.61.54,2.4-.4-.02-.41-.03-.94-.07-1.47-.4-6.28-.94-12.56-1.15-18.85-.14-4.24.28-8.49.25-12.73-.02-2.87-.26-5.75-.64-8.59-.69-5.16-1.28-10.31-1.21-15.53.03-2.32.01-4.68-.37-6.96-1.26-7.57-2.99-15.03-5.49-22.31-1.58-4.58-3.89-8.75-6.71-12.64-1.27-1.75-2.88-3.24-4.29-4.79-2.08.34-3.56,1.38-5.16,2.14-3.34,1.59-6.67,3.19-10.01,4.79-2.1,1-4.11,1.01-6.31,0-2.85-1.32-5.87-2.27-8.79-3.45-2.66-1.08-5.41-2.05-7.9-3.46-3.61-2.05-7.43-3.5-11.33-4.8-2.74-.91-5.44-1.86-7.73-3.73-.38-.31-.95-.39-1.55-.63-1.88,3.08-3.41,6.13-4.47,9.38-1.01,3.1-3.2,4.74-6.28,5.15-2.16.29-4.38.48-6.54.31-6.06-.46-12.02.09-17.98,1.06-.9.15-1.97.15-2.78-.2-4.39-1.92-8.75-3.89-13.06-5.99-3.96-1.93-8.1-3.36-12.35-4.44-3.08-.78-5.98-1.96-8.74-3.5-.83-.46-1.69-.85-2.48-1.25-2.46.65-4.28,2.15-6.1,3.58-2.58,2.03-5.2,4.05-7.57,6.32-1.95,1.87-4.05,2.66-6.68,2.35-.95-.11-1.92-.05-2.88-.09-6.43-.26-12.87-.44-19.29-.86-2.34-.15-3.8.7-5.26,2.4-5.79,6.71-12.28,12.83-16.98,20.76-.94-.49-1.79-.85-2.54-1.35-1.02-.68-1.87-1.66-2.95-2.17-3.71-1.77-7.51-3.34-11.23-5.08-1.48-.69-2.66-.49-3.64.74-2.31,2.89-4.59,5.79-6.87,8.7-1.72,2.2-2.65,4.75-3.44,7.4-1,3.36-.83,6.78-.86,10.2-.09,11.37-.14,22.74-.28,34.11-.03,2.32-.32,4.64-.53,6.96-.06.7-.35,1.42-1.18,1.42-.84,0-1.12-.78-1.22-1.41-.25-1.62-.5-3.26-.51-4.89-.02-4.25.08-8.49.15-12.74.1-6.43.17-12.87.32-19.3.09-3.97.04-7.96.55-11.88.57-4.36,1.94-8.54,4.79-12.08,1.89-2.35,3.71-4.75,5.53-7.14.56-.73,1.03-1.52,1.6-2.38Zm257.63-35.34c-2.31-2.01-4.45-3.69-6.38-5.59-4.79-4.7-9.52-9.45-14.2-14.27-6.3-6.48-12.53-13.03-18.76-19.57-.78-.82-1.57-1.57-2.78-1.51-3.09.16-5.95-.94-8.83-1.74-4.27-1.19-8.39-.84-12.56.31-4.66,1.28-8.98,3.34-13.22,5.6-8.5,4.54-17.67,7.42-26.76,10.39-6.1,1.99-12.35,3.56-18.5,5.45-1.29.4-2.69.79-4.01.71-6.94-.42-14,.14-20.59-3-1.77-.84-3.84-1.52-5.97-1.1-2.97.59-5.89,1.27-8.39,3.13-.87.65-1.9,1.09-2.82,1.68-2.66,1.7-5.4,1.78-8.22.47-2.98-1.38-6.03-2.64-8.91-4.21-2.56-1.4-5.18-1.74-7.95-1.2-4.34.85-8.46,2.5-12.23,4.68-3.53,2.04-6.71,4.73-9.89,7.32-5.3,4.31-11.3,6.57-18.11,6.79-6.43.21-12.57-1.18-18.35-3.82-4.89-2.24-10.01-2.59-15.21-2.75-.27,0-.55.02-.82.02-1.23,0-2.08.56-2.55,1.71-.52,1.27-.98,2.56-1.57,3.8-1.78,3.7-3.31,7.56-5.5,11.01-3.97,6.24-8.43,12.15-13.45,17.62-1.38,1.5-2.56,3.22-3.65,4.95-.87,1.38-.34,2.58,1.12,3.4,1.55.87,3.2.72,4.82.5,5.42-.75,10.82-1.61,16.23-2.36,1.32-.18,2.29-.8,3.13-1.76,5.16-5.86,10.53-11.54,14.53-18.32.83-1.41,1.82-2.74,2.83-4.04.37-.48.99-.77,1.88-1.43.08.99.29,1.54.13,1.95-.45,1.14-.97,2.27-1.61,3.31-3.86,6.33-8.11,12.36-13.24,17.75-.52.55-.81,1.32-1.4,2.31,2.6,1.11,4.57,2.86,7.46,3.38,1.26-1.61,2.56-3.17,3.75-4.82,1.12-1.56,2.15-3.18,3.13-4.82,1.05-1.76,1.89-3.67,3.03-5.36,1.11-1.65,1.44-3.83,3.27-5.2,1.01,1.41.42,2.57-.08,3.62-2.52,5.31-4.75,10.79-8.51,15.43-.65.8-1.09,1.78-1.74,2.87,2.87,1.33,5.48,2.49,8.03,3.75,2.55,1.26,5.04,2.64,7.7,4.05.65-.76,1.34-1.42,1.85-2.19,3.52-5.26,7.77-9.91,11.96-14.62.91-1.02,1.83-2.03,2.76-3.04,1.11-1.2,2.34-1.71,4.04-1.16,1.01.33,2.17.21,3.26.25,5.2.19,10.4.37,15.6.55,1.51.05,3.02.07,4.52.14,2.17.11,4.06-.59,5.7-1.94,1.59-1.31,3.12-2.68,4.66-4.03,3-2.64,6.21-4.95,9.84-6.65,1.08-.5,2.06-.59,3.05.24,2.8,2.33,6.1,3.56,9.58,4.48,2.64.7,5.27,1.52,7.81,2.54,5.08,2.05,10.12,4.21,15.1,6.47,2.07.94,3.98,1.2,6.3.94,6.11-.69,12.25-1.42,18.44-.76,1.47.16,3-.14,4.49-.31,1.5-.17,2.47-1.09,3.06-2.44,1.42-3.26,2.79-6.54,4.26-9.77.44-.98,1.08-1.89,1.76-2.73.57-.69,1.45-.82,2.24-.36.95.55,1.87,1.15,2.73,1.82,2.07,1.64,4.4,2.74,6.93,3.47,1.05.3,2.1.64,3.09,1.08,2.62,1.17,5.19,2.47,7.83,3.62,5.27,2.3,10.59,4.47,15.83,6.83,2.19.99,4.21.97,6.3-.07,3.43-1.71,6.88-3.39,10.3-5.11.56-.28,1.05-.72,1.74-1.2-.65-.73-1.02-1.32-1.55-1.71-3.75-2.82-6.81-6.3-9.88-9.82-3.81-4.37-7.05-9.04-9.49-14.3-1.74-3.74-3.48-7.44-2.66-11.79-1.46-1.05-2.78-2.02-4.12-2.95-3.27-2.26-6.56-4.49-9.82-6.76-.87-.61-1.94-1.1-2.03-2.39.56-.7,1.27-.52,1.85-.22,1.46.76,2.91,1.54,4.28,2.44,8.13,5.33,16.36,10.55,23.87,16.75,4.35,3.59,8.9,6.84,13.69,9.77,4.32,2.64,8.74,5.12,13.11,7.66,2.6,1.51,5.24,2.95,7.8,4.54,2.42,1.51,4.72,1.1,6.96-.26,1.16-.7,2.31-1.5,3.28-2.44,1.76-1.71,3.39-3.55,5.37-5.67Zm-163.4,177.83c.74-.37,1.15-.67,1.61-.78,2.93-.71,5.86-1.43,8.81-2.05,8.03-1.7,16.16-2.92,24-5.49,5.72-1.88,11.5-3.57,17.14-5.75,9.79-3.78,20.03-5.6,30.49-6.14,6.56-.34,13.14-.49,19.7-.71,1.1-.04,2.19-.03,3.29-.03,5.2.02,10.4.06,15.6.05,1.09,0,2.2-.1,3.28-.26,3.78-.59,7.56-1.22,11.33-1.87.24-.04.43-.3.74-.53.77-1.76.57-3.69.3-5.57-.39-2.74-.42-5.42.07-8.16.31-1.7.57-3.52-.58-5.27-.96-.09-1.89-.27-2.83-.27-17.4.03-34.81-.63-52.21.39-4.24.25-8.47.63-12.7.93-4.64.33-9.28.73-13.93.94-9.3.42-18.61.73-27.92,1.09-.41.02-.82.08-1.23.11-6.56.43-13.11.98-19.67,1.25-11.77.48-23.56-.09-35.33.82-7.51.58-15.06.56-22.59.8-2.88.09-5.76.12-8.63.29-9.71.55-19.42,1.16-29.12,1.73-2.6.15-5.19.41-7.79.38-3.82-.05-7.64-.55-11.44-.43-6.59.2-13.13-.55-19.69-.83-.77-.03-1.55.16-2.04.22-.78,3.1-1.53,5.86-2.17,8.65-.72,3.18.38,4.99,3.5,5.87.65.18,1.35.19,2.02.33,4.18.88,8.48.63,12.67,1.18,9.22,1.21,18.32.24,27.45-.84,7.34-.87,14.68-1.92,22.09-1.94,7.4-.02,14.8.1,22.18-.69,6.94-.74,13.92-1.2,20.85-2.06,11.82-1.48,23.64-2.91,35.58-3.08.96-.01,1.93-.04,2.87-.19,3.01-.46,5.99-.28,9.01-.03,6.15.51,12.33.79,18.41-.6,8.68-1.99,17.42-3.64,26.17-5.26,2.02-.37,4.02-.83,6-1.37,8.1-2.19,16.52-2.38,24.73-3.9,7.94-1.47,16.03-1.42,24.09-1.39.53,0,1.1.14,1.57.37.32.16.67.57.71.9.04.33-.21.9-.49,1.01-1,.41-2.04.78-3.1.98-3.64.67-7.32.89-11.02,1.1-5.74.33-11.47.92-17.18,1.59-4.89.58-9.76,1.37-14.62,2.19-4.46.76-8.87,1.75-13.32,2.52-6.88,1.2-13.8,2.15-20.65,3.5-5.55,1.09-11.11,1.5-16.75,1.44-5.89-.07-11.79-.05-17.68.23-5.33.25-10.65.78-15.96,1.41-7.75.91-15.48,2.01-23.21,3.04-2.58.34-5.14.88-7.73,1-9.03.43-18.07.87-27.12.99-4.06.05-7.87.75-11.62,2.17-3.97,1.51-7.9,3.2-11.99,4.3-10.35,2.8-20.29,6.7-30.24,10.61-3.58,1.41-6.96,3.25-10.03,5.59-1.08.82-2.04,1.81-2.95,2.82-.58.64-.23,1.63.51,2.09,1.52.95,3.18.79,4.8.54,3.79-.58,7.63-.99,11.32-1.96,6.35-1.67,12.61-3.68,18.9-5.6,3.67-1.12,7.3-2.36,10.96-3.52,6.27-1.99,12.56-3.91,18.81-5.95,6.64-2.16,13.25-4.39,20.22-5.32,8.29-1.1,16.61-1.74,24.96-2.11,7.93-.35,15.84,1.34,23.77.22.13-.02.28.02.41,0,2.45-.25,4.91-.44,7.34-.78,1.62-.22,3.21-.67,4.82-.99.67-.13,1.37-.32,2.03-.24.44.05,1.13.49,1.17.81.04.39-.45.88-.79,1.26-.16.19-.47.28-.73.36-4.33,1.33-8.73,2.51-13.28,2.54-5.45.03-10.93.82-16.36-.34-.4-.08-.82-.04-1.23-.04-6.99-.04-13.96,0-20.93.83-8.04.96-16.02,2.05-23.74,4.59-13.92,4.59-27.88,9.07-41.78,13.72-6.9,2.31-13.88,4.26-21.08,5.35-2.56.39-5.14.83-7.77.43-.76-.11-1.57.14-2.41.23-1.29,3.68-1.61,7.35-2,11-.05.46.28.97.5,1.69,1.36-.32,2.59-.47,3.7-.9,7.65-2.99,15.35-5.89,22.9-9.13,7.3-3.13,14.49-6.46,22.09-8.86,9.01-2.84,17.92-6.02,26.94-8.82,7.43-2.31,15.02-2.97,22.71-1.06,1.31.33,2.71.37,4.07.47,1.5.12,3.02.09,4.51.27.79.1,1.57.45,2.28.82.29.15.55.67.54,1.01,0,.32-.33.81-.62.91-.89.31-1.83.58-2.76.65-3.16.25-6.28-.03-9.4-.66-7.43-1.52-14.71-.79-21.86,1.63-5.57,1.89-11.16,3.75-16.71,5.7-6.98,2.45-14.04,4.7-20.87,7.52-8.87,3.66-17.85,7-26.87,10.24-3.59,1.29-7.27,2.32-11.03,3.51-1.17,2.91-1.51,5.9-.62,9.08,4.66.68,8.88.22,12.86-2.14,2.59-1.54,5.28-2.91,7.97-4.27,1.58-.8,3.19-1.68,4.89-2.09,7.77-1.88,15.16-4.76,22.29-8.32,4.2-2.1,8.56-3.67,13.06-4.89,2.24-.61,4.49-1.29,6.78-1.62,4.88-.7,9.79-1.16,14.68-1.78,2.72-.34,5.41-.85,8.13-1.21,4.22-.55,8.51-1.2,12.68-.22,6.41,1.51,12.82.97,19.21.46,4.76-.38,9.49-1.38,14.16-2.43,3.48-.79,6.95-1.49,10.48-1.96,2.16-.28,4.28-.89,6.42-1.34,1.2-.25,2.4-.49,3.61-.72,2.41-.45,4.84-.84,7.24-1.35,1.47-.31,2.9-.83,4.36-1.21,8.36-2.16,16.68-4.52,24.73-7.61,6.78-2.6,13.69-3.76,20.89-3.67,3.97.05,7.93-.08,11.84-1.05,2.39-.59,4.86-.82,7.35-.41,5.85.97,11.76.74,17.63.56,6.29-.19,11.05-3.64,15.18-8.07.46-.5.8-1.12.07-2-.5,0-1.18-.1-1.82.02-1.61.3-3.22.67-4.81,1.08-4.16,1.07-8.34,1.58-12.61.73-.66-.13-1.37-.15-2.04-.07-7.11.79-14.22-.19-21.33-.05-3.83.07-7.64,0-11.48.33-9.9.84-19.48,3.02-28.8,6.34-14.77,5.27-29.96,8.77-45.46,10.98-1.61.23-3.28.15-4.92.14-.34,0-.68-.31-1.4-.66Zm-125.57,47.12c1.31-.33,1.96-.42,2.55-.65,4.34-1.69,8.63-3.51,13.01-5.1,7.47-2.72,14.97-5.34,22.48-7.93,5.7-1.97,11.46-3.7,17.46-4.59,8.13-1.21,16.23-2.56,24.36-3.74,5.84-.85,11.74-1.4,17.63-.72,5.21.6,10.33.64,15.55-.11,10.3-1.49,20.62-2.83,30.68-5.62,1.32-.37,2.68-.55,4.04-.76.39-.06.83.01,1.2.15.2.07.4.38.45.62.05.23-.02.64-.17.73-.71.39-1.44.78-2.2,1-7.62,2.22-15.24,4.49-22.9,6.56-3.03.82-6.16,1.49-9.28,1.64-6.7.32-13.43-.06-20.11.78-10.05-.51-19.95,1.25-29.91,2.02-10.27.79-20.25,3.29-29.92,6.97-6.78,2.58-13.64,4.97-20.48,7.41-4.64,1.65-9.28,3.33-13.99,4.81-2.03.64-3.28,1.83-4.09,3.69-.54,1.26-1.18,2.47-1.71,3.74-.18.44-.15.97-.23,1.59,1.66.25,2.91-.29,4.16-.81,1.27-.52,2.5-1.16,3.81-1.54,10.65-3.1,21.3-6.17,31.96-9.19,5.53-1.57,11.11-2.98,16.65-4.52,6.21-1.73,12.44-3.3,18.87-3.99,2.99-.32,5.98-.68,8.97-1.06,5.57-.69,11.14-1.39,16.71-2.12,2.99-.39,5.96-.86,8.94-1.29,6.64-.95,13.3-1.95,20.02-1.89,5.11.05,10.11-.45,15.07-1.63,2.8-.67,5.61-1.28,8.42-1.88.72-.15,1.35.02,1.41,1.17-.46.32-.97.79-1.56,1.06-5.13,2.4-10.46,4.1-16.19,4.19-12.5.19-24.84,2.01-37.2,3.54-6.12.76-12.24,1.43-18.36,2.16-3.13.37-6.28.6-9.37,1.19-7.95,1.51-15.69,3.85-23.47,6.04-8.44,2.38-16.83,4.9-25.25,7.33-8.03,2.32-16.06,4.6-24.1,6.88-.86.24-1.51.68-1.81,1.5-.64,1.73-.66,3.54-.13,5.25.5,1.64,1.72,2.74,3.7,3.26,4.47-3.62,10.08-4.38,15.57-5.57,2.67-.58,5.33-1.31,7.88-2.27,9.63-3.6,18.86-8.13,28.35-12.06,5.18-2.14,10.54-3.84,15.84-5.69.84-.29,1.8-.73,2.76.26-.86,1.21-2.27,1.45-3.48,1.96-2.91,1.22-5.9,2.24-8.76,3.54-8.73,3.96-17.45,7.96-26.13,12.04-6.73,3.16-13.67,5.62-21.02,6.88-1.58.27-3.17.66-4.88,1.58,4.91,1.8,9.36,1.61,13.77-.48,1.6-.76,3.29-1.35,4.96-1.98,7.56-2.86,15.23-5.46,22.66-8.62,7.37-3.13,14.96-5.3,22.8-6.72,7.55-1.37,15.03-2.91,22.23-5.75,7.4-2.92,15.03-5.12,23-6,2.85-.32,5.75-.67,8.46-1.54,6.31-2.02,12.73-3.21,19.33-3.65,2.86-.19,5.7-.76,8.57-1.01,5.1-.44,10.12.08,15.06,1.44,4.11,1.13,8.26,2.18,12.56,1.68,3.12-.36,6.25-.84,9.3-1.58,5.72-1.4,11.36-3.11,17.07-4.53,3.06-.76,6.06-1.66,9.06-2.64,3.24-1.06,6.61-2.04,9.98-2.3,7.91-.62,15.82-1.63,23.79-1.23,2.6.13,5.21.23,7.81.2,1.77-.02,3.6-.03,5.3-.45,3.93-.98,5.28-3.92,3.93-8.38-.49.29-.92.56-1.37.81-2.74,1.54-5.45,3.14-8.24,4.57-1.08.55-2.33.82-3.53,1.04-.78.14-1.65.06-2.42-.14-.45-.12-1.02-.64-1.08-1.06-.06-.37.46-.88.81-1.25.16-.17.5-.2.76-.26,3.64-.86,6.88-2.69,10.19-4.34,1.89-.94,3.44-2.3,4.49-4.11,1.23-2.12,1.3-4.31,0-6.4-.49,0-.78-.07-1.02.01-.65.22-1.31.44-1.89.78-5.97,3.54-12.42,5.72-19.23,6.93-10.52,1.87-20.99,4.09-31.79,3.43-1.76-.11-3.58.05-5.31.41-6.56,1.39-13.08,2.97-19.65,4.36-3.75.8-7.54,1.39-11.32,2.04-.66.11-1.36.15-2.03.08-.34-.04-.89-.38-.92-.64-.05-.47.07-1.23.38-1.41,1.3-.72,2.64-1.46,4.06-1.85,3.96-1.09,7.98-1.94,11.95-3,9.44-2.53,18.95-4.31,28.81-3.57,2.85.22,5.78.03,8.61-.36,6.37-.88,12.72-1.97,19.06-3.03,3.39-.57,6.67-1.52,9.79-3.01,2.35-1.12,4.75-2.13,7.15-3.14,4.47-1.9,4.63-2.14,4.09-7.11-.08-.76-.28-1.52-.47-2.52-1.99.61-3.72,1.03-5.37,1.65-9.39,3.51-19.12,5.85-28.88,8-6.01,1.32-12.18,1.98-18.16,3.42-6.06,1.46-12.26,1.21-18.35,2.09-.88.13-1.87-.23-2.75-.53-.81-.28-.88-1.58-.15-2.02.57-.35,1.2-.71,1.84-.83,2.16-.39,4.32-.83,6.5-.95,4.93-.27,9.81-.91,14.66-1.78,1.75-.31,3.52-.51,5.28-.77,2.71-.4,5.44-.67,8.12-1.22,12.09-2.49,23.93-5.92,35.75-9.45.37-.11.68-.43,1.11-.71.51-1.96.78-3.9-.61-5.68-1.68.08-2.6,1.2-3.7,1.96-3.7,2.56-7.75,4.21-12.27,4.14-4.93-.07-9.86-.35-14.77-.73-3.57-.28-7.13-.51-10.65.17-4.05.79-8.13,1.36-12.24,1.23-6.85-.21-13.32,1.21-19.62,3.8-3.29,1.35-6.68,2.49-10.09,3.52-6.69,2-13.4,3.94-20.15,5.74-4.48,1.2-9.18,1.42-13.66,2.7-.39.11-.82.02-1.23.07-2.03.27-4.15.28-6.07.9-6.31,2.04-12.95,2.28-19.36,3.71-1.19.26-2.45.2-3.69.22-2.33.04-4.66.09-6.99,0-1.91-.07-3.81-.27-5.7-.52-3.52-.47-6.97-1.53-10.59-1-2.98.44-5.97.85-8.95,1.26-4.61.62-9.22,1.4-13.85,1.79-8.19.68-15.89,3.05-23.16,6.67-6.28,3.13-12.72,5.84-19.42,7.81-4.93,1.45-9.42,3.63-13.84,6.12-1.91,1.07-3.78,2.35-5.83,2.98-2.64.81-3.63,2.58-4.45,5.71Zm59.31-265.31c-1.44-1.43-2.77-1.71-4.17-1.61-1.77.13-3.55.3-5.31.54-2.44.33-4.86.91-7.31,1.07-3.46.23-6.75,1.01-10.01,2.11-2.85.96-5.7,2.12-8.65,2.57-6.6,1-12.05,4.38-17.37,7.98-4.52,3.06-9.01,6.23-12.48,10.59-1.01,1.27-2.43,2.2-3.64,3.3-.38.35-.72.74-1.51,1.57,2.28-.38,4-.59,5.68-.97,3.33-.76,6.68-1.42,9.95-2.48,2.97-.97,6.12-1.41,9.31-1.36,3,.04,6.01-.36,9.01-.28,3.69.09,7.38.39,11.05.78,1.88.2,3.87.5,5.56,1.29,4,1.86,8.14,3.25,12.41,4.25,8.03,1.88,15.49.65,22.21-4.31,2.86-2.11,5.81-4.13,8.57-6.37,3.59-2.92,7.78-4.61,12.04-6.07,2.43-.83,5.06-1.18,7.63-1.51,2.34-.3,4.58.12,6.71,1.36,2.36,1.38,4.86,2.52,7.35,3.66,4.64,2.13,4.7,2.09,9.12-.43.24-.14.47-.28.7-.43,2.32-1.53,4.93-2.33,7.57-3.11,3.16-.93,6.25-.83,9.22.56,4.17,1.97,8.57,2.74,13.14,2.82.82.01,1.65.1,2.45.26,2.91.6,5.72.11,8.5-.7,4.46-1.3,8.94-2.56,13.39-3.93,5.63-1.73,11.33-3.29,16.81-5.41,6.24-2.42,12.27-5.39,18.39-8.14.2-.09.31-.4.52-.69-.58-.11-1.1-.24-1.64-.3-4.76-.53-9.55-.91-14.28-1.64-2.08-.32-3.76.05-5.4,1.19-1.94,1.34-4.02,2.3-6.41,2.6-.73.09-1.4.64-2.3,1.07.46.81.79,1.38,1.1,1.95.33.6.72,1.18.94,1.82.11.33,0,.98-.22,1.1-.42.23-1.11.39-1.46.19-.82-.46-1.56-1.11-2.23-1.78-.68-.67-1.29-1.43-1.85-2.2-1.41-1.94-3.16-2.81-5.64-2.45-2.97.43-5.99.56-8.98.88-.3.03-.56.45-.83.68.65,1.18,1.29,2.22,1.81,3.32.14.29.03.94-.19,1.11-.39.29-1,.52-1.44.42-.64-.15-1.24-.56-1.78-.95-1.22-.88-2.43-1.79-3.6-2.74-2.43-1.98-5.05-2.62-7.97-1.36-1.18.81-.07,2.93-1.99,3.3-1.15-.67-1.35-1.97-1.97-2.99-.63-1.04-1.37-2.03-2.18-2.93-.78-.87-1.84-1.18-3-.87-1.16.31-2.3.67-3.71,1.08.57,1.6,1.1,2.97,1.54,4.38.26.83.22,1.64-.93,2-1.57-.72-2.17-2.34-3.05-3.69-.98-1.49-2.28-2.36-4.07-2.35-2.6.02-5.21.03-7.8.19-.87.05-1.99.02-2.45,1.26.38.95.9,1.92,1.16,2.96.31,1.25.04,2.38-1.47,3.12-.74-1.16-1.42-2.15-2.02-3.18-.69-1.18-1.29-2.41-1.95-3.61-.6-1.11-1.33-2.13-2.64-2.43-1.48-.34-2.97-.47-4.21.66-.72,2.7.78,5.86-2.08,8.35-.37-.88-.76-1.45-.82-2.05-.14-1.22-.04-2.47-.15-3.69-.33-3.46-1.78-5.03-5.2-5.09-3.14-.06-6.3.15-9.43.47-1.75.18-3.46.81-5.18,1.26-1.37.35-2.09,1.24-2.08,2.67,0,2.05.07,4.11,0,6.16-.05,1.49-.2,3-.48,4.46-.07.37-.77.86-1.19.86-.37,0-1.04-.57-1.07-.92-.19-2.73-.27-5.46-.34-8.19-.1-4.22-.78-4.73-4.93-3.78-3.6.82-7.23,1.53-10.84,2.3-.94.2-1.88.39-2.8.66-2.63.77-4.69,2.26-5.72,4.88-.84,2.16-1.66,4.34-2.34,6.56-.67,2.22-1.12,4.52-1.74,6.76-.16.56-.63,1.03-1.27,2.02-.46-1.27-.92-1.99-.94-2.73-.03-1.22.09-2.47.37-3.66,1.12-4.77,1.75-9.69,4.58-14.03Zm209.74,169.54c-1.79-1.62-3.32-1.59-4.81-1.67-3.01-.16-6.02-.27-9.03-.48-5.19-.35-10.38-1.03-15.58-1.1-10.96-.14-21.93,0-32.89.06-3.42.02-6.84.18-10.26.26-3.69.09-7.38.24-11.07.23-7.54-.02-15.08.08-22.61-.27-8.34-.39-16.66-.95-25.01-.92-4.24.02-8.48.29-12.71.36-17.4.29-34.79.45-52.19-.41-9.85-.48-19.73-.32-29.6-.36-3.01-.01-6.02.24-9.03.44-6.15.4-12.29,1.16-18.43,1.2-7.74.05-15.24,1.53-22.77,2.96-1.58.3-3.13.99-4.56,1.74-1.53.8-1.6,2.33-.2,3.27,1.59,1.07,3.31,1.93,4.95,2.93,1.33.81,2.73,1.17,4.29,1.19,2.47.02,4.93.13,7.4.26,2.87.15,5.73.44,8.59.53,3.15.1,6.31.08,9.46.06,5.48-.03,10.97.04,16.44-.19,9.31-.39,18.61-.94,27.91-1.48,7.65-.44,15.31,0,22.98-.58,5.98-.45,12.01-1.09,18.05-.41.4.05.82-.05,1.23-.06,4.78-.15,9.57-.24,14.35-.44,9.17-.37,18.33-.8,27.5-1.21.27-.01.54-.08.82-.09,6.28-.41,12.56-1.08,18.85-1.18,10.02-.16,19.96-1.23,29.92-2.13,2.05-.18,4.1-.34,6.15-.42,5.34-.21,10.68-.44,16.02-.51,5.61-.08,11.22-.03,16.83.06,5.75.1,11.5.33,17.24.46,1.22.03,2.48-.03,3.67-.26,1.2-.23,2.34-.79,3.54-1.07,1.3-.31,2.64-.46,4.58-.78Zm-45.82-183.39c-.9-.72-1.54-1.22-2.17-1.73-6.08-4.81-13.02-7.42-20.7-8.22-4.63-.48-9.27-.9-13.87-1.57-5.72-.83-11.44-1.12-17.21-.99-2.32.05-4.66-.12-6.96-.43-7.49-1-15.03-1.16-22.55-1.4-5.74-.18-11.51.14-17.26.3-6.02.17-12.04.44-18.07.61-9.31.27-18.62.59-27.81,2.31-.94.18-1.9.23-2.86.31-6.41.58-12.82,1.15-19.22,1.72-3.27.29-6.54.7-9.81.85-3.18.14-6.3.61-9.25,1.7-5.53,2.04-10.93,4.4-16.08,7.28-2.27,1.27-2.57,2.47-1.43,4.74,1.32,2.6,3.67,3.96,6.19,5.3,2.18-.85,4.4-1.57,6.5-2.55,3.75-1.75,7.66-2.96,11.68-3.88,2.98-.67,2.97-.71,5.29-2.74,2.69,2.41,5.44,1.53,7.96.37.97-1.07-.03-2.53,1.29-3.12.29.06.69.03.79.19,1.51,2.25,3.67,2.58,6.13,2.28,1.63-.2,3.28-.21,4.92-.3,3.55-.2,7.1-.54,10.66-.58,5.21-.05,10.4.06,15.6-.62,2.28-.3,4.64.04,6.96.08.79.01,1.58,0,2.49,0,.28-.93.5-1.71.76-2.46.22-.64.4-1.34.79-1.87.27-.37.86-.62,1.33-.66.25-.02.69.47.79.81.35,1.15.6,2.33.85,3.38,3.45.81,7.97.7,11.19-.26.13-.45.24-.98.43-1.48.22-.59.51-1.15.74-1.65,2.07.13,1.66,2.27,3.48,3.08.8,0,2.16.03,3.51,0q4.27-.13,7.17-3.06c.84.83,1.68,1.66,2.58,2.56.65-.05,1.33-.11,2-.16,7.01-.44,13.91-.11,20.77,1.78,4.6,1.27,9.43,1.41,14.29,1.71.66-1.18,1.19-2.28,1.88-3.28.25-.37.95-.71,1.34-.62.41.09.86.67.99,1.13.26.89.31,1.85.47,2.96,1.24.22,2.4.43,3.3.6,1.48-1.05.94-3.29,3.14-3.56.53,1.22,1.07,2.44,1.54,3.52,1.59,1.06,3.23,1.09,4.87,1.24,4.36.38,8.72.82,13.07,1.3,3.95.43,7.84.63,11.84-.04,2.99-.5,4.67-1.87,5.65-4.88Zm42.65,61.86c-1.13-.78-1.76-1.3-2.45-1.69-5.47-3.11-11.07-6-16.12-9.82-3.38-2.56-6.8-5.07-10.18-7.63-2.4-1.82-4.76-3.7-7.17-5.51-.5-.38-1.1-.95-1.96.05,1.11,3.37,2.76,6.66,4.49,9.87,4.09,7.61,10.3,13.46,16.76,18.98,2.3,1.96,4.67,3.77,6.49,6.21.21.29.68.38,1.26.68,3.33-3.25,6.14-6.88,8.88-11.15Zm-273,19.85c1.11-1.17,1.88-1.77,2.38-2.54,1.86-2.89,4.1-5.45,6.47-7.93,1.88-1.97,3.52-4.19,5.15-6.38,1.18-1.59,1.11-2.55,0-4.11-.4-.55-.8-1.15-1.32-1.56-3.1-2.47-6.22-4.91-9.37-7.31-.52-.4-1.23-.68-1.88-.75-2.55-.26-5.12-.41-7.55-.59-1.05,1.08-.7,2.18-.59,3.25.46,4.48,1.22,8.97,1.28,13.46.07,5.39,2.53,9.64,5.44,14.48Zm195.67-74.15c-4.84-.43-8.92-.75-13-1.17-3.67-.38-7.34-.78-10.98-1.35-3.24-.51-6.42-1.35-9.65-1.9-7.07-1.2-14.21-.85-21.3-.4-8.33.53-16.63,1.38-24.99,1.43-.41,0-1.15-.22-1.08.67,1.85,1.11,3.87,1.26,5.95,1.25,1.5,0,3.08-.16,4.48.24,2.43.69,4.86.66,7.32.66,3.42,0,6.85.04,10.27-.04,2.32-.06,4.63-.36,6.94-.44,1.48-.05,2.99.04,4.46.22,2.17.27,4.32.96,6.48.97,6.97.02,13.92.84,20.9.37,1.76-.12,3.59-.09,5.31.23,2.77.52,5.43.34,8.89-.75Zm-197.81,39.12c2.33.73,4.59.51,6.49,1.86,3.46,2.45,7,4.8,9.82,8.05.95,1.09,2.06,2.04,3.2,3.15,4.34-4.6,6.18-10.31,9.11-15.37.3-.52.25-1.25.38-1.99-.75-.23-1.25-.52-1.75-.52-3.55-.03-7.1-.24-10.58.87-2.34.74-4.78,1.18-7.18,1.75-3.16.74-6.33,1.47-9.5,2.2Zm112.32-42.57c-1.7-.03-3.39-.04-5.09-.09-5.46-.16-10.88.61-16.36.32-6.55-.34-13.08.51-19.59,1.24-4.07.46-8.09,1.41-12.17,1.7-7.94.57-15.22,3.15-22.27,6.6-.4.2-1.08.26-.78,1.28,1.41-.53,2.8-1,4.16-1.56,3.05-1.26,6.19-2.16,9.47-2.57,1.76-.22,3.52-.48,5.27-.76,2.7-.44,5.38-.93,8.08-1.38,1.92-.32,3.82-.34,5.64.5,1.68.78,3.43.85,5.22.59,4.05-.6,8.13-.97,12.13-1.97,3.03-.76,6.16-1.2,9.34-1.09.94.03,1.93-.08,2.83-.34,4.62-1.31,9.27-2.29,14.11-2.48Zm200.62,53.5c.12-.19.23-.39.35-.58-1.66-2.14-3.34-4.26-4.98-6.42-.95-1.26-2.16-1.96-3.72-2.26-2.53-.5-5.03-1.16-7.55-1.75-.47-.11-.98-.51-1.54.29,1.05,1.16,2.13,2.37,3.55,3.16,4.61,2.56,9.26,5.05,13.9,7.56Zm-312.5-24.54c1.61-.63,2.4-1.53,2.8-3.21-1.34.09-2.37.15-3.72.24.35,1.13.6,1.96.92,2.97Z"/>
    <path class="cls-1" d="m511.01,583.91c1.9-1.19,2.1-2.92,2.29-4.46.45-3.8.88-7.63.93-11.45.12-8.49.09-16.98-.05-25.47-.19-11.22-.39-22.45-.9-33.66-.21-4.66-.4-9.29-.02-13.94.12-1.49-.21-3-.21-4.5,0-3.14.04-6.29.19-9.43.03-.77.45-1.55.84-2.25.14-.25.68-.34,1.05-.36.2,0,.51.26.61.47.22.49.44,1.02.47,1.54.39,5.73,1.29,11.45.4,17.21-.08.54-.11,1.09-.08,1.63.2,5.33.41,10.66.63,15.99.06,1.5.16,3.01.27,4.51.16,2.18.42,4.36.51,6.54.21,4.79.49,9.58.49,14.36,0,8.34.71,16.68-.21,25.03-.54,4.89-.71,9.83-1.13,14.74-.25,2.88-1.58,5.24-3.96,6.91-2.18,1.53-4.72.76-5.81-1.64-.17-.37-.3-.77-.38-1.17-.87-4.57-1.67-9.15-2.59-13.71-1.14-5.64-1.77-11.31-1.89-17.08-.09-4.5-.79-8.99-1.26-13.48-.13-1.22-.42-2.43-.59-3.65-.13-.95-.37-1.93-.23-2.85,1.2-8.11-.33-16.11-1.08-24.11-1.09-11.6-1.84-23.2-1.47-34.85.14-4.38.08-8.76.13-13.15.02-1.98.53-2.9,1.55-2.88.98.02,1.58.88,1.81,2.84.14,1.22.17,2.46.17,3.69-.01,6.16-.05,12.33-.08,18.49-.03,6.86.79,13.66,1.43,20.47.24,2.59.64,5.17.8,7.76.42,6.96,1.64,13.89,1.04,20.9-.04.41-.06.83,0,1.23.75,4.88.76,9.82,1.23,14.71.31,3.28.63,6.54.5,9.83-.11,2.9.17,5.73.92,8.54.42,1.57.44,3.25.75,4.86.67,3.49,1.41,6.96,2.15,10.44.08.38.39.7.81,1.4Z"/>
    <path class="cls-1" d="m532.01,627.62c0,1.01.1,1.34-.01,1.54-1.66,2.99-3.28,5.98-6.44,7.77-1.15.66-2.2,1.63-3.05,2.66-2.86,3.44-6.55,5.8-10.28,8.1-2.49,1.54-5.26,2.22-8.23,2.21-3.97-.01-7.92.01-11.86-.78-2.54-.51-5.18-.51-7.74-.95-2.42-.41-4.81-1.01-7.17-1.69-2.37-.68-4.65-1.64-7.01-2.33-6.44-1.88-12.73-4.22-19.09-6.35-3.61-1.21-7.42-1.84-11.15-2.69-.8-.18-1.64-.15-2.44-.34-9.76-2.25-19.59-1.47-29.45-.87-5.65.35-11.17,1.12-16.54,2.83-6.26,2-12.45,4.2-18.72,6.17-9.14,2.88-18.3,5.68-27.49,8.38-1.53.45-3.26.27-4.89.37-2.32.14-4.64.21-6.95.42-4.11.38-8.19.62-12.27-.3-2-.45-4.04-.78-6.08-1.03-2.83-.35-5.32-1.32-7.21-3.51-1.31-1.51-3.02-2.29-4.83-3-1.53-.6-3.1-1.17-4.47-2.04-.85-.54-1.41-1.58-1.99-2.48-.14-.21.08-.82.32-1.07.24-.24.79-.42,1.07-.31,2.92,1.15,5.86,2.28,8.7,3.62,1.2.57,2.35,1.46,3.22,2.47,1.84,2.12,4.17,3.02,6.85,3.28.14.01.28,0,.41.04,5.92,1.38,11.89,1.72,17.91.81.4-.06.83-.07,1.23-.03,5.03.5,9.79-.72,14.51-2.24,8.08-2.6,16.16-5.22,24.24-7.8,6.39-2.04,12.78-4.11,19.21-5.99,2.48-.72,5.09-1.13,7.67-1.39,8.86-.88,17.72-1.67,26.64-1.36.82.03,1.65.08,2.45.24,5.64,1.1,11.32,2.04,16.89,3.42,4.5,1.11,8.87,2.78,13.31,4.18,4.83,1.52,9.72,2.86,14.49,4.57,8.11,2.9,16.55,3.51,25.02,4.06,1.36.09,2.76.08,4.1-.13,1.61-.25,3.37-.44,4.72-1.25,3.4-2.03,6.79-4.14,9.42-7.21.62-.73,1.17-1.63,1.96-2.08,3.12-1.79,5.82-4,8.13-6.77.5-.6,1.63-.68,2.88-1.17Z"/>
    <path class="cls-1" d="m451.04,399.77c-.34-.23-.92-.46-.91-.67.02-.48.19-1.15.54-1.37.8-.5,1.71-.86,2.62-1.13,7.36-2.13,14.72-4.23,22.1-6.31,7.65-2.16,15.5-3.36,23.31-4.74,2.42-.43,4.83-.96,7.27-1.32,4.46-.65,8.93-1.24,13.41-1.78,1.07-.13,2.19,0,3.28.09,1.77.14,3.53.33,5.3.53.81.09,1.65.15,2.39.43.43.16.93.72.97,1.14.04.39-.42,1.11-.79,1.21-1.43.4-2.91.76-4.39.88-3.81.32-7.64.52-11.46.74-6.98.4-13.83,1.78-20.73,2.83-11.92,1.83-23.51,5.14-35.21,7.94-2.52.6-5.09,1.01-7.68,1.52Z"/>
  </g>
</svg>