<?xml version="1.0" encoding="UTF-8"?>
<svg id="Laag_1" data-name="Laag 1" xmlns="http://www.w3.org/2000/svg" viewBox="0 0 850.39 850.39">
  <defs>
    <style>
      .cls-1 {
        fill: #131f48;
      }

      .cls-1, .cls-2 {
        stroke-width: 0px;
      }

      .cls-2 {
        fill: #a5d6af;
      }
    </style>
  </defs>
  <path class="cls-2" d="m299.94,676.48c10.75-2.15,32.75-1.13,40.85,1.61,18.88,6.38,48.12,25.11,125.86,22.7,47.15-1.46,95.9-48.47,204.45-18,90.3,25.34,124.49-85.49,42.48-107.48-82.01-21.99-68.55-71.74-21.84-107.59,46.71-35.84,73.86-72.78,43.45-102.1-30.41-29.33-93.11-38.79-110.16-99.68-17.32-61.85-138.71-61.99-122.86,19.79,26.67,137.6,34.71,222.18-36.15,210.47-101.7-16.8-339.9,77.53-313.76,148.12,22.46,60.66,84.1,44.89,147.69,32.17Z"/>
  <g>
    <path class="cls-1" d="m200.4,641.61c-1,1.94-2.1,4.11-3.24,6.26-.57,1.08-1.04,2.29-1.85,3.17-2.48,2.69-3.78,6-5.17,9.27-.21.5-.23,1.08-.45,1.58-1.23,2.84-2.96,3.44-5.92,2.08-.35-.16-.71-.31-1.17-.52-1.15,1.29-1.78,2.77-2.42,4.27-1.81,4.23-5.06,5.09-8.88,2.38-.87-.62-1.75-1.22-2.72-1.89-.8.61-1.49,1.03-2.06,1.58-.93.9-2.08,1.23-3.28,1.58-1.84.52-3.2-.05-4.33-1.49-.75-.95-1.54-1.88-2.27-2.75-2.43.17-4.48.82-6.45,1.8-1.22.61-2.48,1.17-3.75,1.67-3.47,1.36-5.74.58-8.01-2.66-.15-.22-.36-.41-.59-.66-.66.08-1.32.22-1.98.22-3.26,0-4.41-.78-5.53-3.81-.33-.89-.58-1.81-.94-2.94-.87-.12-1.79-.24-2.7-.35-4.29-.52-5.86-3.13-4.34-7.2.14-.38.28-.76.42-1.16-1.11-.79-2.3-1.45-3.25-2.36-1.33-1.27-1.59-2.78-.56-4.46.57-.92.95-1.95,1.53-3.18-.75-.58-1.4-1.24-2.18-1.67-1.55-.84-2.41-2.21-3.05-3.74-.83-1.98-.2-3.85,1.72-4.89,1.68-.91,3.46-1.62,5.3-2.47.25-.55.6-1.15.79-1.79.52-1.75,1.65-2.66,3.44-3.1,3.46-.84,6.87-1.9,10.17-3.96-.04-.72-.09-1.62-.14-2.58-1.26-.07-2.36-.07-3.44-.21-2.5-.34-3.4-1.45-3.48-4.1-.02-.53-.08-1.06-.11-1.52-1.33-1.04-2.76-.57-4.08-.75-2.34-.33-3.07-1.26-2.7-3.62.1-.66.31-1.3.49-2.03-.97-1.07-1.92-2.05-2.77-3.1-.51-.62-1.01-1.31-1.26-2.06-.65-1.9-.16-3.01,1.66-4.07.46-.27.99-.41,1.53-.62.29-1.12.52-2.19.85-3.23.63-1.94,1.71-3.36,3.95-3.65,1.75-.22,3.46-.69,5.21-1.05.61-1.33-1.18-1.26-1.31-2.36,0-1.22.85-2.22,1.93-2.75,1.05-.52,2.34-.71,3.53-.75,1.62-.05,3.26.2,5.07.33.22-.78.5-1.4.54-2.03.11-1.85,1.44-2.9,2.58-4.04,1.04-1.03,2.34-1.24,3.8-1.04,1.21.16,2.47-.06,3.68.08,3.96.47,6.16-.62,8-4.09.26-.48.5-.98.73-1.47,1.26-2.72,3.4-3.77,6.33-3.45,1.22.14,2.46.21,3.69.29,1.56.1,2.97.62,4.13,1.65,2.13,1.9,4.73,3.29,6.31,5.81.35.55.94,1,1.5,1.37,1.89,1.25,3.34,2.95,4.23,4.94,1.47,3.26,4.29,5.26,6.67,7.67.95.96,2.1,1.72,3.22,2.5,2.68,1.87,4.49,4.35,5.51,7.45.29.87.79,1.67,1.13,2.37,1.08.15,1.08-.55,1.21-1.01.46-1.58.8-3.19,1.27-4.76,1.21-4.05.92-8.14.16-12.19-.47-2.51-1.79-4.46-4.09-5.87-1.84-1.14-3.41-2.73-5.05-4.17-2.21-1.94-2.57-4.32-1.77-7.1.72-2.5,1.99-4.61,4.23-5.83,2.15-1.16,3.65-2.74,4.85-4.81.75-1.29,1.93-2.31,2.75-3.56.99-1.51,2.15-2.4,4.08-2.09,1.38.22,2.37-.51,2.99-1.71.81-1.58,1.56-3.2,2.36-4.78.43-.85.83-1.73,1.39-2.5,1.09-1.5,2.15-1.75,3.94-1.1,1.4.51,2.8,1.03,4.26,1.57.85-.66,1.55-1.32,2.35-1.79.93-.54,1.91-1.14,2.94-1.3,1.37-.2,2.65-.45,3.92-1.06.67-.32,1.74-.44,2.36-.12,1.48.76,2.79,1.59,4.47.44.28-.19,1.08.11,1.48.4,1.26.92,2.14,2.14,2.26,3.75.11,1.5.27,3.02.16,4.51-.33,4.39.12,8.73.7,13.06.02.12.13.22.36.58.4-.24.9-.41,1.19-.75,1.3-1.56,2.54-3.17,3.78-4.74-3.97-5.49-3.98-6.55-.05-12.64-.4-.27-.76-.65-1.2-.81-5.03-1.77-7.08-5.62-7.63-10.63-.63-5.81,1.76-10.43,5.71-14.33,2.02-1.99,4.17-4,7.17-4.57,2.97-2.16,6.53-2.58,10.31-3.17-.25-.87-.34-1.52-.62-2.07-1.33-2.64-1.56-5.5-1.77-8.36-.2-2.81.47-5.48,1.95-7.84,1.45-2.31,2.99-4.61,4.81-6.62,1.43-1.59,3.35-2.74,5.31-4.28-.28-.52-.64-1.19-1-1.87-1.68-3.13-1.87-6.6-1.85-9.98.04-7.98,5.3-14.87,11.1-18.06,4.02-2.21,8.25-2.82,12.63-1,.88.37,1.77.79,2.7.98,2.42.49,4.18,2.01,5.85,3.63,2.56,2.49,4.12,5.43,3.68,9.15-.08.66-.01,1.34-.01,1.92.82.84,1.62.19,2.37.19.67,0,1.33-.18,2.04-.29.91-4.91,1.79-9.73,2.71-14.54.6-3.12-.89-5.63-2.47-8-1.28-1.92-2.94-3.6-4.55-5.28-2.45-2.57-4.98-5.05-7.5-7.55-.58-.58-1.24-1.08-1.88-1.59-1.37-1.09-2.75-2.17-4.35-3.42-.31.2-.72.53-1.18.75-1.7.81-2.37.74-3.3-.27-1-1.08-1.07-1.89-.21-3.34.77-1.29,1.61-2.54,2.36-3.73,0-1.59-.83-2.69-1.47-3.9-2.62-4.94-5.17-9.93-7.73-14.91-.18-.35-.26-.77-.32-1.17-.15-.93.89-2.03,1.77-1.73.87.3,1.86.7,2.42,1.37,1.04,1.25,1.94,2.66,2.66,4.12,2.24,4.55,5.03,8.75,7.93,12.88.58.82,1.12,1.57.97,2.59-.38,2.46.81,4.11,2.54,5.68,4.54,4.14,9.04,8.31,13.1,12.94,1.79,2.04,3.6,4.07,5.6,6.33,2.84-.15,5.96-1.08,9.03-.02.47.16.81.69,1.36,1.17,1.09-.7,2.22-1.44,3.34-2.17,4.56-2.95,9.27-2.84,13.95-.45,1.81.92,3.74,1.52,5.45,2.78,2.76,2.05,5.27,4.32,7.57,7.01,4.54-1.22,8.71-.04,12.77,1.69,1.62.69,3.16.83,4.78.29,1.3-.44,2.55-.98,3.84-1.44,1.03-.36,2.06-.73,3.12-.98,1.55-.37,2.72.31,3.4,1.65.27.53.33,1.43.05,1.88-.28.45-1.1.71-1.72.78-.49.05-1.02-.34-1.54-.48-1.41-.4-2.71-.25-4,1,.29.36.51.85.89,1.07,5.45,3.22,10.28,7.24,14.93,11.48.09.08.26.08.71.21,1.26-.87,2.69-1.86,4.23-2.93-.86-2.34-1.87-4.4-3-6.41-.4-.71-.91-1.43-1.05-2.2-.11-.58.12-1.45.52-1.82.41-.37,1.34-.53,1.85-.32,1.23.5,2.35,1.27,3.48,1.91,2.53-3.04,3.45-6.59,4.67-10.26-.39-.47-.88-1.1-1.4-1.7-1.71-1.99-2.68-4.06-1.32-6.73.38-.75.18-1.87.04-2.8-.25-1.76-.71-3.48-.96-5.24-.51-3.52,1.42-5.79,4.89-5.28,3.45.51,6.81-.08,10.36.08.41-1.08.69-2.13,1.19-3.06,1.19-2.22,3.92-2.42,5.4-.39.47.64.75,1.44,1.03,2.2,1.01,2.82,1.98,5.66,3.02,8.67.48-.1.98-.22,1.49-.31,2.4-.45,3.65.23,4.38,2.47.29.91.45,1.86.61,2.8.09.54.12,1.09.11,1.64-.13,4.22,1.48,7.4,5.6,9.25,4.26-1.27,6.17-4.47,6.8-8.7.42-2.83.81-5.66,1.26-8.48.3-1.89.6-3.78,1.01-5.64.38-1.72.73-3.48,1.41-5.1.91-2.18,3.11-2.9,5.19-4.03.9,1.13,1.74,2.16,2.57,3.19.99.19,1.89.15,2.59-.74.84-1.07,1.7-2.13,2.61-3.14,2.18-2.43,3.1-2.42,5.83.12,2.76-.99,5.54-1.08,7.6,1.27,1.84.05,2.79-1,3.82-1.88,1.14-.98,2.19-2.08,3.39-2.99.62-.48,1.44-.81,2.21-.95,1.59-.29,2.73.66,2.7,2.26-.02,1.08-.24,2.17-.49,3.22-.28,1.19-.71,2.35-1.06,3.52-.03.11.03.26.04.39.22.14.43.36.68.42,3.59.9,4.04,1.34,4.06,4.93.01,2.04-.29,4.07-.46,6.15,1.26.61,1.76.46,1.85-.59.05-.55.12-1.1.07-1.64-.47-5.47.27-10.91.26-16.37,0-2.03.22-4.06.3-6.08.28-7.25-.97-14.42-.96-21.66,0-1.22.11-2.44.17-3.66.03-.68.2-1.38.1-2.03-.98-5.99-.68-12-.5-18.02.11-3.83-.07-7.66-.08-11.49,0-6.45.93-12.79,2.64-18.99.54-1.96,1.55-3.79,2.34-5.69,2.09-5.05,4.19-10.1,6.27-15.15.96-2.32,2.38-4.29,4.25-5.97,2.87-2.57,5.45-5.37,7.18-8.87.41-.83,1.19-1.49,1.77-2.24.49-.65,1.04-1.28,1.39-2,.95-1.96,1.85-3.96,2.71-5.96,2.2-5.1,2.84-10.55,3.37-16,.56-5.84,1.18-11.69,1.37-17.55.1-3.1.19-6.22-.04-9.36-.64-8.71-1.59-17.39-1.49-26.16.06-4.77-.49-9.54-.77-14.51-3.74-1.35-5.75-4.3-6.29-7.95-.55-3.73.48-7.13,4.25-8.96.6-2.05,1.11-4.03,1.76-5.95.93-2.77,2.71-4.36,5.86-4.01,2.3.25,4.62.38,6.93.52.95.06,1.95.19,2.87,0,5.7-1.12,11.45-.61,17.17-.36,1.98.09,4.02.86,5.85,1.71,2.89,1.34,3.95,4.01,3.15,7.16-.16.65-.54,1.24-.91,2.04,2.15,2.15,2.53,4.85,2.39,7.85-.14,3-.9,5.38-4.13,6.57.42,1,.93,1.8,1.08,2.66.18,1.05.03,2.16.05,3.24.02.96.1,1.91.12,2.87.06,2.86.11,5.73.15,8.59.01.82.02,1.65-.08,2.46-.86,6.98-.53,13.92.36,20.88.31,2.43.18,4.91.43,7.35.43,4.08.84,8.16,1.54,12.2,1.29,7.41,2.73,14.8,4.2,22.18.67,3.36,1.71,6.56,3.88,9.39,1.65,2.15,2.79,4.68,4.26,6.98.58.9,1.34,1.74,2.17,2.41,3.36,2.69,6.09,5.87,8.09,9.7.42.8,1.14,1.45,1.84,2.3.41-.46.81-.69.87-.99.78-4.02,2.8-7.67,3.23-11.82.22-2.13,1.06-4.24,1.83-6.27.7-1.85,1.9-2.98,4.11-3.5,2.73-.63,5.43-1.86,7.85-3.33,3.03-1.83,6.28-2.61,9.66-3.24,3.09-.57,6.18-1.17,9.24-1.87,2.28-.52,4.53-.87,6.89-.89,5.19-.04,10.39-.34,15.58-.5,3.82-.12,7.7-.33,11.44.02,4.23.4,8.48.11,12.67.71,2.54.36,5.1.86,7.52,1.66,2.51.83,5.08,1.09,7.65,1.28,2.01.15,3.57.95,5.21,2.07,3.33,2.27,4.38,5.76,5.38,9.26.46,1.61,1.11,3.01,1.96,4.43,1.39,2.34,2.59,4.81,3.66,7.31,1.02,2.38,1.77,4.87,2.66,7.3,1.28,3.5,1.82,6.99,1.7,10.82-.17,4.99-.11,10.06,1.64,14.98,1.92,5.4,3.26,10.99,3,16.84-.06,1.45.28,2.99.76,4.37,1.52,4.37,1.45,8.9,1.51,13.41.08,5.75.02,11.5.09,17.24.04,3.58-.37,7-1.61,10.45-1.66,4.61-2.68,9.46-4.1,14.16-.79,2.61-1.57,5.28-2.81,7.68-2.69,5.21-5,10.68-9.2,14.97-1.74,3.49-4.92,5.84-7.16,8.94-.32.44-.71.85-1.15,1.17-5.21,3.81-9.49,8.67-14.53,12.67-1.93,1.53-3.89,3.02-5.86,4.49-1.91,1.42-3.37,3.14-4.29,5.38-.98,2.4-2.23,4.69-3.27,7.06-.5,1.12-1.04,2.3-1.16,3.49-.55,5.46-2.74,10.59-3.16,16.06-.09,1.09-.24,2.18-.22,3.27.19,7.66-.13,15.32-.29,22.97,0,.36.16.73.3,1.31,1.57-.36,2.13-1.78,3.14-2.58,2.11-1.69,4.34-.93,4.88,1.74.21,1.05.3,2.13.48,3.49,1.04-.17,1.91-.37,2.79-.45,2.68-.26,3.74.55,4.24,3.26.24,1.33.39,2.68.58,4.04,1.49.9,3.02.84,4.49.91,1.31.06,2.4.55,3.3,1.46.93.94.8,2.12.95,3.36.33,2.73.2,5.41.18,8.12,0,.78.36,1.56.56,2.38,2.73.58,4.76.03,6.73-2.02,3.51-3.67,7.52-6.75,12.39-8.57,2.7-1.01,5.29-1.34,7.91.07,2.53,1.36,5.12,2.62,7.53,4.17,2.08,1.35,2.1,3.59.03,5.08-2.07,1.49-3.57,3.31-4.62,5.67,3.19,4.96,3.47,10.54,3.49,16.17,0,1.23-.1,2.47.01,3.69.19,2.13,1.27,3.51,3.48,3.99,1.17.26,2.32.74,3.4,1.28,1.91.96,3.19,2.59,4.06,4.48,1.79,3.84,4.73,6.71,7.94,9.27,3.52,2.81,4.74,6.34,3.72,10.55-.51,2.11-.14,3.7,1.15,5.3,2,2.48,3.34,5.28,4.09,8.39.39,1.62.73,3.22.1,4.83-.7,1.79-2.26,2.39-3.99,1.54-.61-.3-1.28-.59-1.76-1.05-2-1.94-4.59-2.33-6.9-1.58-4.61,1.49-8.96.13-13.36-.54-4.1-.63-4.28-.75-7.68,2.36,1.2,1.24,2.4,2.49,3.6,3.73,1.29,1.33,1.45,2.76.73,4.51-1.17,2.84-2.88,5.3-4.9,7.54-.71.78-1.73,1.33-2.68,1.84-4.28,2.28-8.93,3.56-13.66,4.27-6.49.98-13.05,1.6-19.59,2.2-6.81.63-13.64,1.17-20.47,1.54-3.54.19-7.12.1-10.65-.21-5.85-.51-11.68-1.28-17.51-1.99-.94-.11-1.84-.56-2.77-.76-2.53-.56-5.07-1.1-7.61-1.6-2.95-.58-6.1-.64-8.83-1.75-3.75-1.52-7.56-2.11-11.5-2.39-2.41-.17-4.49-1.25-6.43-2.53-2.14-1.42-3.41-3.5-3.78-6.07-.13-.93-.16-1.88-.25-3.09-.73.17-1.36.27-1.95.47-.38.12-.7.49-1.09.56-4.51.77-7.88,3.69-11.36,6.25-4.01,2.95-8.55,4.22-13.25,5.18-1.61.33-3.25.13-4.84-.52-3.41-1.39-6.85-2.7-10.53-4.14-.89,1.29-1.79,2.47-2.57,3.73-2.26,3.66-7.21,7.05-11.5,7.84-.67.12-1.34.27-2.01.44-2.82.72-5.45.23-7.88-1.31-1.39-.88-2.7-1.89-4.72-1.75-.45.67-.96,1.45-1.5,2.21-2.59,3.65-6.32,6.02-9.88,8.51-2.47,1.73-5.47,1.57-8.34.74-1.97-.57-3.93-1.18-5.89-1.78-1.86-.58-3.5-1.52-4.85-2.97-.92-.99-1.9-1.91-2.96-2.97-.77.87-1.44,1.52-1.99,2.25-4.74,6.24-11.27,8.87-18.85,9.4-1.64.11-3.3-.02-4.93.14-2.19.22-4.01-.76-5.86-1.59-.58-.26-1.08-.85-1.43-1.4-.51-.8-.77-1.76-1.28-2.56-.87-1.36-.19-2.48.5-3.56-.95-.97-2.63.15-3.18-1.5-.33-1.01-.97-1.93-1.56-3.06-.41.22-.79.32-1.01.57-2.39,2.59-5.32,3.69-8.84,3.45-1.91-.13-3.84.04-5.75.08-5.18.12-9.7-1.79-13.68-4.85-1.57-1.2-2.58-3.14-3.94-4.87-.75-.31-1.34.4-2.06.72-1.38.61-2.72,1.35-4.15,1.76-3.26.93-6.47,1.11-9.38-1.21-1.07-.85-2.28-1.51-3.45-2.24-2.45-1.53-4.82-3.13-6.51-5.88-.61.81-1.06,1.45-1.54,2.07-2.85,3.71-6.5,5.74-11.3,5.36-3.4-.26-6.8-.12-10.18-.97-3.95-1-6.92-3.29-9.23-6.43-2.15-2.93-3.32-6.34-3.11-10,.13-2.3-.69-4.23-1.5-6.53-.88.21-1.69.26-2.36.58-4.22,2.02-8.62,1.66-12.88.61-3.57-.88-6.11-3.56-8.07-6.65-.94-1.49-1.65-3.14-2.56-4.9q-3.15-2.01-5.54-2.36c-.03.25-.17.58-.06.73,2.23,3.18,3.34,6.87,4.87,10.38,2.38,5.49.92,10.18-2.63,14.47-2.82,3.39-6.17,6.19-10.1,8.28-4.41,2.34-8.93,2.47-13.5.75-1.21-.45-2.18-1.57-3.2-2.46-.51-.44-.82-1.09-1.33-1.53-.64-.55-2.21.06-2.33.91-.1.67-.09,1.36-.03,2.03.4,4.56-.74,8.41-5.01,10.82.06,1.18.22,2.27.14,3.34-.18,2.51-1.35,4.4-3.77,5.41-2.69,1.13-5.44,1.89-8.39,1.55-1.77-.2-3.54-.4-5.3-.66-1.45-.22-2.71.11-3.82,1.07-.31.27-.66.51-.92.82-2.93,3.44-6.99,3.32-10.95,3.48-1.29.05-2.41-.47-3.36-1.32-.91-.81-1.79-1.66-2.81-2.61-3.96,2.16-8.02.45-12.05.35-.53-.01-1.12-.21-1.56-.5-2.47-1.65-5.29-2.24-8.14-2.51-3.37-.32-5.62-2.18-7.07-4.97-1.34-2.58-2.97-4.87-4.97-6.98-1.11-1.17-1.92-2.64-2.93-4.06-1.47.14-2.94.44-4.4.36-1.46-.08-2.83-1.08-4.75-.5Zm455.74-102.57h.02c-.85-.66-1.7-1.3-2.77-2.11,1.14-3.01-.64-6.11.21-9.22-.85-4.87-.48-9.79-.57-14.7-.03-1.78-.17-3.55-.21-5.32-.06-2.86-.35-5.75-.07-8.58.51-5.15.89-10.34,1.96-15.43.74-3.49,1.07-7.01.62-10.58-.17-1.33.24-2.75-.85-4.14-2.47-.59-5.11-1.13-7.88-.97-.86.05-1.59-.46-1.74-1.42-.14-.87.14-1.63.89-2.14,1.31-.88,2.82-1.1,4.33-.97,1.77.15,3.53.44,5.27.79,2.8.57,3.38,1.31,3.73,4.06.46,3.7-.24,7.36-.37,11.04-.07,2.18-.46,4.35-.85,6.5-.52,2.82-1.28,5.6-1.75,8.43-.47,2.81-.09,5.67-.26,8.53-.35,6-.17,12.02-.09,18.04.02,1.65.14,3.34.92,4.92.35-.51.51-1.02.52-1.53.2-6.69-.22-13.4.44-20.08.04-.4-.05-.81-.1-1.22-.48-4.4.27-8.74,1.01-13.02.62-3.6,2.26-7.03,2.44-10.74.15-3,1.75-5.46,2.9-8.04,1.71-3.81,3.28-7.81,6.88-10.53-1.04.03-1.95.28-2.87.45-3.13.57-6.32.87-9.37-.03-2.71-.79-5.39-.91-8.11-.64-3.83.38-7.65.42-11.48.16-.76-.05-1.53.04-2.61.08.5,1.93,1.5,3.24,2.47,4.48,4.19,5.34,5.68,11.77,7.22,18.11.86,3.56,1.05,7.3,1.33,10.98.28,3.68.87,7.46.3,11.04-1.42,9-.74,17.98-.56,26.98.07,3.41-.09,6.82-.11,10.23,0,.95.11,1.89.18,2.84.17,2.18.5,4.35.49,6.53-.02,4.77-.32,9.55-.29,14.32.04,4.94-1,9.79-1.1,14.71,0,.4-.19.8-.27,1.2-.42,2.14-.79,4.3-1.26,6.43-.89,4-1.83,7.98-2.77,11.97-.25,1.08-.63,2.15-1.72,2.67-3.15,1.47-4.82,4.28-6.52,7.08-.42.7-.88,1.41-1.48,1.94-3.38,3.01-6.92,5.8-11.15,7.56-1.51.63-2.96,1.59-4.53,1.87-2.68.48-5.45.82-8.16.72-2.83-.1-5.44.61-8.05,1.36-1.8.52-3.6,1.38-4.31,3.74,1.12.27,2.15.6,3.2.75,4.75.65,9.49,1.31,14.07,2.77.91.29,1.86.5,2.8.64,8.14,1.19,16.33,1.81,24.54,1.9,3.82.04,7.62.22,11.42.51,4.36.34,8.73.69,13.1.88,2.87.12,5.76.13,8.62-.09,7.1-.55,14.21-.75,21.32-.72,4.09.01,7.85-1.2,11.49-2.76,1.58-.68,2.9-2.03,4.24-3.19.83-.72.7-1.69.05-2.82-1.65.45-3.35.38-4.88-.68-.32-.22-.76-.32-1.16-.4-4.01-.8-8.02-1.65-12.05-2.36-3.37-.59-6.75-1.11-9.86-2.66-.61-.3-1.29-.62-1.94-.62-1.94,0-3.34-1.14-4.81-2.12-1.82-1.21-3.72-2.35-5.38-3.77-2.16-1.86-4.39-3.69-5.93-6.17-3.01-4.83-4.41-10.26-5.81-15.68-.54-2.11-1.02-4.27-1.18-6.44-.24-3.25-.15-6.52-.25-9.79-.04-1.23-.19-2.45-.3-3.67-.2-2.04-.65-4.09-.58-6.12.15-4.08.61-8.16.89-12.24.06-.93-.08-1.87-.2-2.8-.27-2.02-.99-4.04-.46-6.06.46-1.77-.03-3.22-.88-4.67Zm-164.5,21.23c5.33-2.61,6.37-2.62,14.55-.26,2.17-1.29,4.2-2.68,6.38-3.75,3.38-1.66,7.13-1.99,10.8-2.23,1.99-.13,4.12.28,6.04.91,2.32.76,4.47,2.03,6.72,3.02,1.32.59,2.19,1.48,2.77,2.84,1.89,4.45,3.33,8.97,2.95,13.91-.21,2.7-.23,5.41-.32,7.67,2.25,1.55,4.16,2.85,6.05,4.17,2.15,1.49,2.9,3.88,4.04,6.06,1.14,2.19.1,4.57.68,6.46,4.1.71,7.85,1.45,11.64,1.97,2.34.32,4.46,1.2,6.69,1.83,4.85,1.39,7.84,4.6,10.34,8.75,2.41,4.01,3.82,8.14,3.38,12.84-.04.49.09.99.16,1.68,4.47-1.59,7.89-4.28,11.19-7.17,1.08-.95,1.74-2.17,1.87-3.55.29-2.89,1.31-5.57,2.08-8.33.62-2.22.99-4.55,1.15-6.85.2-2.98.17-5.98.08-8.97-.13-4.5-.4-9-.61-13.5-.02-.41-.13-.87,0-1.22.91-2.27.28-4.59-.23-6.69-1.23-5-.75-10.06-.87-15.06-.14-5.71.1-11.45.05-17.17-.02-2.05-.28-4.09-.3-6.14-.05-5.05,0-10.1-.03-15.15-.02-2.05.03-4.13-.28-6.14-.91-5.85-.3-11.72-.39-17.58-.04-2.86.39-5.73.34-8.59-.04-2.59-.47-5.16-.63-7.75-.08-1.36-.23-2.8.13-4.08.74-2.69.75-5.38.76-8.12,0-1.48.32-2.99.69-4.43.69-2.64,1.75-5.24-.1-7.84-.13-.19-.05-.53-.06-.8-.14-2.57-.28-5.13-.42-7.7,1.5-2.68-.61-5.32-.12-8,.04-.24-.13-.51-.23-.89-1.82-1.89-3.48-3.89-4.32-6.67-.69-2.28-1.93-4.48-3.71-6.3-1.03-1.05-1.94-2.37-2.48-3.73-1.29-3.3-2.43-6.66-2.64-10.28-.22-3.82-.63-7.63-1.05-11.44-.25-2.31-.81-4.59-.98-6.9-.6-8.07-.7-16.13,1.3-24.07.2-.79.22-1.74.69-2.33,1.76-2.27,1.74-5.11,2.52-7.67.99-3.25,1.45-6.65,2.21-9.97.7-3.07,1.57-6.1,2.22-9.18.51-2.4,1.04-4.84,1.12-7.28.09-2.46-.16-4.93.45-7.34.56-2.23-.23-3.97-1.56-5.68-1.59-2.04-3.05-4.18-4.58-6.27-1.85-2.54-3.58-5.14-6.16-7.09-2.43-1.84-4.15-4.28-5.37-7.14-.8-1.87-1.9-3.66-3.13-5.29-1.71-2.27-2.44-4.85-2.98-7.55-1.2-6.02-2.44-12.03-3.69-18.04-.11-.52-.42-.99-.71-1.67-1.77,0-3.54.07-5.31-.02-2.32-.11-4.63-.33-6.94-.53-1.77-.15-3.54-.42-5.32-.49-3.91-.17-7.6.62-11,2.62-.92.54-1.94.89-2.97,1.35-.29,1.94-.69,3.82-.83,5.72-.55,7.39-3.38,14.04-6.65,20.54-.24.48-.54.99-.94,1.32-1.42,1.14-2.58,2.4-3.02,4.26-.14.61-.72,1.15-1.18,1.65-1.87,1.99-3.73,4.01-5.69,5.91-1.2,1.16-2.11,2.4-2.74,4-2.05,5.21-4.22,10.38-6.47,15.51-3.42,7.78-4.89,15.91-4.69,24.37.07,2.99.17,5.98.18,8.96,0,5.46-.43,10.93.13,16.39.17,1.63.09,3.28.14,4.91.09,3.41.38,6.82.23,10.22-.19,4.37,1.73,8.64.46,13.02.1,5.6.11,11.19-.48,16.77-.17,1.62-.04,3.28-.03,4.92.02,4.52.16,9.04.05,13.55-.09,3.96-.49,7.91-.64,11.86-.11,2.86-.49,5.82.05,8.58,1.46,7.46,1,14.97,1.27,22.47.14,3.93-.47,7.86-.19,11.82.16,2.3.02,4.62.02,6.93,0,2.05.13,4.1-.02,6.14-.29,3.92.99,7.9-.45,11.78-.13.35.04.81.04,1.22.03,3.27.05,6.54.07,9.81.04,5.31.1,10.61.1,15.92,0,3.14-.06,6.29-.18,9.43-.03.78-.33,1.61-.71,2.31-.53.98-1.84,1.43-2.85,1.11-1.02-.33-1.59-1.09-1.66-2.12-.07-.95.03-1.91.06-2.87.11-2.98.24-5.96-.05-8.86-1.95-1.12-3.53-.38-4.81.55-1.87,1.36-3.58,2.97-5.19,4.63-.82.85-1.56,2-1.82,3.13-.54,2.36-1.2,4.76-.63,7.5,2.2.49,4.44.99,6.56,1.46Zm-195.71,48.2c-.78-1.45-1.75-1.46-2.72-1.54-3.07-.28-3.04-.3-3.91-3.07-.73-2.31-1.85-4.16-4.64-4.52-1.74-.23-3.48-.79-5.13-1.44-2.07-.83-4.13-1.41-6.39-1.18-.66.07-1.37,0-2.02-.16-1.14-.27-2.05-1.31-2.02-2.31.02-1.01.42-1.84,1.38-2.34.96-.5,1.95-.94,2.83-1.56,1.45-1.02,2.71-2.32,4.23-3.21,1.49-.87,2.43-2.04,3.35-3.46,1.6-2.47,2.5-5.48,5.15-6.92v-4.18c-.42-.21-.66-.38-.92-.44-3.15-.65-5.91-1.87-8.02-4.48-.8-.99-1.95-2.02-3.49-1.93-2.7.14-5.36-.8-8.12-.04-1.54.43-3.27.37-4.79-.54-.99-.59-2.05-.34-3.12-.39-3.72-.19-7.32.2-10.91,1.15-1.42.37-2.65-.14-3.05-1.4-.74-2.32-1.78-4.53-1.9-7.09-.16-3.22-.54-6.45-1.24-9.63-.64.05-1.04.11-1.45.1-2.47-.1-2.95-.52-3.19-2.75-.1-.92-.18-1.84-.25-2.59-2.87-1.21-4.73-.06-6.27,1.96-.5.65-.93,1.35-1.42,2.01-1.29,1.71-1.75,1.87-3.81,1.29-1.16-.32-2.32-.65-3.56-1-1.2,1.9-2.25,3.64-3.38,5.33-.86,1.3-1.98,2.39-3.67,2.27-2.08-.14-3.33,1.02-4.41,2.5-.73.99-1.41,2.02-2.06,3.06-.95,1.54-2.04,2.82-3.88,3.48-.94.34-1.82,1.19-2.45,2.02-1.05,1.38-.96,2.46.3,3.66,1.29,1.21,2.69,2.34,4.18,3.3,2.86,1.83,5.25,3.9,5.13,7.68q1.92,7.61,1.28,13.51c-.02.21.16.45.3.81,1.45-1.05,1.71-2.82,2.68-4.09,2.39-3.12,1.78-6.43.72-9.77-.16-.52-.53-.97-.69-1.49-.75-2.48-1.53-4.96-2.15-7.48-.62-2.52-.12-5.03,1.29-7.09,1.45-2.12,2.2-4.36,2.64-6.81.08-.44.51-.81.95-1.46,1.64,2.4,1.73,4.59.73,6.83-.67,1.5-1.52,2.91-2.21,4.4-.16.35-.02.84-.02,2.03,1.04-1.36,1.57-2.13,2.19-2.82.18-.19.63-.13.97-.18.04.33.11.49.06.58-1.1,1.88-2.21,3.75-3.28,5.57.33,1.82,3.27,10.61,4.02,12,.51-.49,1.16-.86,1.42-1.42,1.36-2.81,3.17-5.43,3.82-8.57.04-.18.35-.3.63-.54.54.77-.73,1.98.53,2.48,1.74-.4,3.45-.86,5.18-1.16.66-.11,1.36.15,1.38,1.17-.27.22-.53.57-.89.71-2.53.99-4.25,2.91-5.99,4.87-1.8,2.03-3.58,4.14-5.66,5.85-3.58,2.95-5.92,6.76-8.14,10.69-.17.3-.08.73-.15,1.51.85-.39,1.51-.53,1.94-.93,1.11-1.01,2.17-2.09,3.18-3.21,3.67-4.11,8.44-6.54,13.49-8.28,2.63-.91,5.04-2.08,7.37-3.5,1.8-1.1,2.91-2.74,3.77-4.7,1.39-3.2,3.07-6.27,4.61-9.36,1.04.35,1.2.95,1.11,1.7-.4,3.15-1.52,6.09-2.64,9.04-.22.57-.26,1.21-.4,1.94,1.84.34,3.23-.18,4.66-.61,1.44-.43,2.9-.82,4.38-1.1,1.48-.28,3-.34,4.48-.61,1.4-.26,2.78-.68,4.61-1.15-.35,1.11-.36,2.09-.84,2.47-1.05.82-2.27,1.55-3.54,1.92-2.89.84-5.88,1.34-8.77,2.16-4.87,1.37-9.71,2.85-14.55,4.33-.57.17-1.43.15-1.42,1.16,1.14,1.44,2.78,1.66,4.42,1.63,2.32-.05,4.66-.12,6.81-1.25.39-.21.94-.11,1.82-.19-1.31,2.95-3.88,3-5.95,3.58-3.98,1.1-6.7-1.45-9.48-4.1-4.15,1.89-8.4,3.38-11.66,6.72-2.15,2.2-4.6,3.87-7.79,4.2-.66.07-1.41.3-1.89.72-.41.35-.48,1.09-.81,1.95,2.66.68,5.01,1.35,7.4,1.85.91.19,1.42,1.17,2.6.92,2.25-.49,4.27.51,6.24,1.44,1.35.64,2.65,1.4,3.66,1.93,3.57-1.49,6.77-3.05,10.12-4.18,4.53-1.53,9.19-1.67,13.64.3,1.71.75,3.18,2.09,4.7,3.23.21.16.25.83.09,1.11-.16.28-.7.55-1,.48-1.33-.3-2.66-.64-3.93-1.11-3.97-1.49-7.98-1.82-12.1-.74-2.39.62-4.79,1.17-7.19,1.75-.65.16-1.38.23-1.43,1.29.3.31.66.71,1.04,1.09,2.42,2.41,4.89,4.78,7.27,7.23,2.66,2.74,5.27,5.53,7.86,8.34,1.01,1.1,1.93,2.29,2.82,3.49.35.48-.41,1.55-1,1.44-.66-.13-1.33-.3-1.95-.56-1.23-.52-2.42-1.11-3.56-1.64-.96,1.04-.86,1.88-.23,2.78,2.53,3.57,5.05,7.15,7.54,10.75.35.5,1,.97.43,2.03-.55-.29-1.26-.44-1.58-.87-2.21-2.96-4.43-5.91-6.44-8.99-1.12-1.71-1.83-3.69-1.66-5.83.17-2.18-1.15-3.72-2.53-4.91-3.42-2.96-6.39-6.34-9.59-9.5-2.56-2.54-5.23-4.73-8.79-5.62-.91-.23-1.75.54-1.44,1.37.39,1.02.77,2.07,1.35,2.98,3.3,5.15,5.15,10.85,6.59,16.72.68,2.79,1.27,5.62,1.18,8.52-.04,1.21-.23,2.46-.6,3.61-.14.44-.99.66-1.59,1.03-.28-.6-.56-.95-.61-1.32-.62-4.19-1.03-8.43-1.86-12.58-.58-2.93-1.48-5.85-2.64-8.6-1.58-3.75-3.54-7.35-5.35-11.04-5.3-1.57-7.15-1.59-13.13.52-2.56.9-4.93,2.27-6.49,4.47.4,2.71,2.72,5.11.38,8.04-1.96-1.55-1.08-4.08-2.53-5.78-.53.34-1.22.59-1.59,1.07-.91,1.19-1.6,2.56-2.52,3.74-1.96,2.53-3.46,5.61-7.27,6.32.36.93.77,1.78,1.01,2.67.38,1.44.76,2.9.91,4.38.13,1.32-1.25,5.05-2.4,7.24-.28-.3-.72-.55-.75-.84-.1-.93,0-1.88-.07-2.81-.14-1.82.11-3.72-.89-5.66-2.17,1.73-3.86,3.37-4.32,6.01-.26,1.53-1.15,2.8-2.45,3.67-.4.27-1.16.47-1.5.27-.52-.31-.87-.96-1.21-1.52-.12-.19-.1-.55-.02-.79,1.09-3.21,1.58-6.71,4.67-8.92.87-.62,1.59-1.53,2.17-2.45,1.26-2,2.78-3.69,4.8-4.96.47-.3.71-.96,1.17-1.61-4.57-.18-4.55-.14-8.1,1.78-2.04,1.1-4.01,2.35-6.35,2.83-4.29.89-8.51,2.04-12.59,3.7-1.11.45-2.36.64-3.57.77-.85.09-1.66-.31-1.9-1.24-.22-.88.14-1.69.88-2.13,1.17-.7,2.37-1.39,3.65-1.85,3.99-1.43,7.99-2.86,12.19-3.61,2.85-.51,5.49-1.62,8.04-3,1.55-.84,3.26-1.39,4.92-2.02,1.35-.51,2.69-.42,3.96.32.55.32,1.11.63,1.76.99,1.2-1.93,2.28-3.66,3.36-5.39,1.07-1.71,2.82-2.97,3.43-5.2-2.25-.74-4.29-.97-6.35.35-1.73,1.1-3.53,2.11-5.36,3.04-1.45.74-2.94,1.69-4.65,1.35-2.68-.53-5.34-1.19-7.96-1.93-.83-.23-1.9-.54-1.89-2.09,1.71-.12,3.54-.69,5.12-.28,4.47,1.16,8.09-.46,11.43-2.99,3.45-2.6,7.19-2.14,11-1.56.53.08,1.03.39,1.57.47.51.08,1.05.02,1.56.02.35-1.42-.46-1.87-1.43-2.14-1.84-.51-3.73-.86-5.52-1.48-3.23-1.11-6.39-2.42-9.61-3.57-3.48-1.24-6.99-2.31-10.69-2.75-4.93-.59-9.49-.03-13.3,3.51-1.09,1.02-2.18,2.05-3.26,3.07-1.45,1.37-3.16,1.6-5,.67.63-.87,1.75-1.72,1.8-2.63.1-1.71,2.08-1.27,2.34-2.54.1-.48.18-.97.26-1.37-1.06-.62-2.47-.07-2.91-1.4.27-.3.41-.63.61-.66,4.63-.85,9.08-2.61,13.96-2.7-.28-.43-.39-.79-.57-.84-3.55-.99-6.68-3.13-10.34-3.84-1.03-.2-1.54-1.32-1-2.25.39-.66.99-1.31,1.66-1.67,1.17-.64,2.42-.38,3.53.29,1.29.78,2.42,1.95,3.8,2.41,3.12,1.05,5.4,3.13,7.3,5.28,3.65.66,7.02,1.24,10.38,1.88,3.44.67,6.48,2.71,10.25,3.34-.58-1.98-1.74-2.83-3.23-3.28-.65-.2-1.35-.23-2.03-.31-.77-.1-1.33-.53-1.45-1.24-.14-.87.25-1.65,1.11-1.99.89-.34,1.82-.63,2.75-.77.88-.13,1.79-.03,2.93-.03-.37-.57-.52-.96-.8-1.21-2.65-2.39-5.1-4.92-6.78-8.14-.55-1.06-1.54-1.91-2.38-2.81-.84-.9-1.84-1.66-2.58-2.63-1.45-1.88-3.43-3.09-5.35-4.37-2.13-1.42-4.46-1.96-7.16-.79-.58,1.03-1.33,2.18-1.89,3.42-.85,1.87-2.38,3.09-4.1,3.89-2.61,1.22-5.43,1.96-8.36,1.43-1.24-.22-2.4-.46-3.78.26-.26.91-.56,1.94-.87,2.97-.74,2.43-2.62,3.83-5.19,3.72-1.36-.06-2.71-.39-4.07-.54-1.11-.12-1.87.36-2.21,1.4-.17.52-.24,1.07-.34,1.61-.36,2.01-1.59,3.09-3.56,3.44-.94.17-1.88.33-2.78.62-.83.27-1.25,1.68-.78,2.44.21.34.59.56.85.88,1.26,1.54,1.33,2.05.39,3.62-.41.67-.95,1.26-1.31,1.73.6,1.5,1.11,2.75,1.65,4.11.47.06,1.01.15,1.54.19,1.81.13,2.66,1.22,2.92,2.9.18,1.19.31,2.4.5,3.88,1.07,0,2,0,2.92,0,1.08,0,2.3-.27,3.22.13,1.03.45,1.8,1.51,2.77,2.38.58-.22,1.19-.52,1.83-.7,1-.28,1.91-.07,2.53.83.65.95.64,2.2-.19,3.03-.96.96-1.98,1.93-3.12,2.65-3.83,2.4-7.76,4.61-12.09,6.05-1.39.46-2.89.73-4.1,1.83.62,1,1.31,1.93.7,3.11-.63,1.21-1.73,1.73-3,1.89-1.08.14-2.19.1-3.27.25-.47.07-.89.43-1.66.82.77.65,1.19,1.2,1.75,1.45,2.2,1,2.8,2.87,2.9,5.03.04.79-.12,1.58-.21,2.54,2.76.78,3.13,2.91,3.06,5.23-.03.95-.22,1.89-.33,2.84-.07.62-.14,1.25-.22,1.99.7-.08,1.1-.13,1.5-.18,3.61-.52,4.39,0,4.87,3.54.18,1.36.47,2.61,1.29,3.62,1.29-.33,2.33-.71,3.4-.85,1.69-.21,2.91.55,3.57,2.14.42.99.7,2.03,1.14,3.31,2.05-.84,3.98-1.52,5.82-2.4,5.8-2.77,8.34-2.45,12.87,1.74.09.09.24.11.54.24.48-.3,1.07-.63,1.61-1.02,3.34-2.43,4.96-2.44,8.49-.04.65.44,1.32.84,2.02,1.28.41-.47.76-.72.92-1.06.69-1.49,1.34-2.99,1.98-4.5,1.4-3.28,2.96-3.99,6.44-2.94.37.11.78.12,1.41.21.54-1.07,1.07-2.15,1.64-3.21.97-1.8,1.77-3.74,3.02-5.33,1.54-1.96,2.75-4.05,3.88-6.25.87-1.69,1.97-3.28,3.11-4.81,1.3-1.73,3.24-2.23,5.16-1.48,2.32.91,4.37,1.11,6.65-.2,1.42-.82,3.18-.15,3.79,1.4,1.2,3.02,3.21,5.37,5.46,7.59.57.56.93,1.34,1.38,2.02.69,1.02,1.44,2,2.07,3.06.83,1.4,2.03,1.98,3.61,2.38,3.14.8,6.61.51,9.37,2.71.36.29,1.05.19,1.59.25,1.09.12,2.23.05,3.25.37,1.54.48,2.86.22,4.37-.26,2.61-.83,5.19-.67,6.97,1.87,1.01,1.44,2.33,1.68,3.96,1.45,1.96-.27,3.71-.91,5.16-2.28.59-.56,1.24-1.08,1.84-1.64,1.28-1.19,2.75-1.7,4.51-1.49,2.45.29,4.91.47,7.36.73,2.6.27,4.77-.7,6.89-2.18-.14-.62-.2-1.16-.38-1.66-.23-.64-.59-1.24-.8-1.89-.51-1.57.08-3.04,1.51-3.83.35-.2.77-.28,1.15-.43,3.1-1.26,3.35-1.75,3.36-5.2,0-1.77.23-3.54.4-5.3.14-1.45.85-2.47,2.08-3.34,2.66-1.88,2.95-4.12.99-6.54-.68-.85-1.51-1.58-2.26-2.37-1.73-1.82-1.71-3.3.18-4.83.95-.77,2.2-1.28,2.54-2.57.46-1.74,1.6-2.74,3.14-3.55,1.17-.62,2.16-1.59,3.39-2.53Zm419.76-235.19c-2.09.38-3.68.68-5.28.95-4.68.8-9.26,2.06-14.12,2.01-4.19-.04-8.39,1.24-12.58,1.25-6.88.01-13.61,1.11-20.38,1.94-.68.08-1.37.37-2.02.29-3.69-.48-7.34.34-11.03.2-2.43-.09-4.88.63-7.32.7-4.09.11-8.22.29-12.27-.14-2.75-.29-5.39-.59-8.11.08-1.6.39-3.29.56-4.84-.22-2.99-1.5-6.24-1.86-9.46-2.41-4.98-.85-10.02-1.33-14.76-3.39-1.49-.65-3.18-1.54-5.15-1.14-.29,5.04-.3,9.96.25,14.85.32,2.85.95,5.66,1.26,8.51.37,3.39.46,6.82.83,10.21.48,4.41,1.78,8.6,4.63,12.06,1.86,2.26,3.3,4.71,4.43,7.34.62,1.44,1.36,2.63,2.53,3.64,1.24,1.07,2.41,2.23,3.56,3.39,2.22,2.22,4.57,4.34,6.57,6.75,2.02,2.44,4.32,4.55,6.52,6.79,3.54,3.62,7.91,5.2,12.69,6.1,1.73.33,3.53.66,5.1,1.39,2.58,1.2,5.21,1.58,7.99,1.38,1.91-.14,3.84-.14,5.74-.37,3.17-.37,6.3-.13,9.37.64,3.19.8,6.36.48,9.27-.74,2.57-1.08,5.2-1.8,7.89-2.09,2.77-.3,4.88-1.55,6.89-3.29,2.57-2.24,4.89-4.77,7.81-6.63,1-.64,1.82-1.64,2.57-2.6,1.67-2.14,3.86-3.89,4.88-6.54.28-.72.99-1.29,1.55-1.89,3.8-4.09,6.08-9.13,8.02-14.17,2.49-6.48,4.13-13.29,6.16-19.95,1.13-3.7,1.57-7.48,1.37-11.34-.13-2.46-.31-4.92-.41-7.38-.08-1.89-.08-3.79-.13-6.17Zm-111.02-77.62c-.31,1.5-.52,2.56-.74,3.62-.32,1.61-.35,3.36-1.03,4.8-1.66,3.53-2,7.35-2.85,11.05-.36,1.55,0,2.85.64,4.31,2.47,5.66,4.48,11.47,4.68,17.74.05,1.5.21,3,.33,4.49.38,4.77.89,9.53.2,14.31-.27,1.86-.32,3.73-.28,5.77,1.2.12,2.14.34,3.06.28,3.37-.23,6.74.08,10.11.06,5.04-.02,10.08.61,15.11.99,1.08.08,2.16.36,3.24.36,4.38,0,8.75-.09,13.13-.1,6.71-.02,13.41-.07,20.12.03,6,.09,12.01-.45,18.01.04.4.03.82-.06,1.23-.08,2.59-.14,5.19-.33,7.79-.4,5.51-.16,10.89.85,16.26,1.95.64.13,1.27.58,1.88-.2-.06-.49-.04-1.06-.19-1.57-1.03-3.43-1.44-6.94-1.59-10.51-.09-2.04-.32-4.11-.86-6.07-.87-3.15-1.2-6.47-2.72-9.45-.3-.58-.31-1.33-.37-2-.34-3.81-.64-7.62-1.01-11.42-.12-1.22-.23-2.47-.6-3.63-1.29-4.02-2.63-8.01-3.28-12.22-.29-1.85-1.18-3.64-1.97-5.37-.79-1.74-1.96-3.31-2.64-5.09-.67-1.73-.92-3.62-1.39-5.61-2.13.19-4.06.54-5.93,1.53-3.03,1.61-6.23,2.73-9.72,3.05-4.22.39-8.44.88-12.62,1.59-6.23,1.06-12.52,1.15-18.79,1.56-2.85.18-5.74-.04-8.6-.24-3-.21-5.99-.64-8.99-.95-2.45-.25-4.94-.26-7.35-.74-3.52-.69-7.03-.73-10.59-.87-2.68-.11-5.46.21-8.09-.94-.89-.39-2.1-.06-3.57-.06Zm69.48,309.7c.37-.14.75-.26,1.12-.43,3.56-1.59,4.45-1.51,7.19,1.35,3.19,3.33,6.6,6.48,8.99,10.09,5.42,1.07,10.57,1.7,15.48,3.51,1.46.54,2.87.59,4.22-.6,1.23-1.08,2.66-1.91,4.02-2.84,1.75-1.19,3.62-1.85,5.81-1.46,2.96.53,5.94.99,8.93,1.37,1.33.17,2.7.15,4.05.08,2.18-.11,4.35-.34,6.52-.5.91-.07,1.81-.08,2.74-.12.1-1.95-1.01-3.03-2.04-4.09-1.65-1.69-2.34-3.65-2.08-5.98.11-.94.14-1.89.3-2.82.44-2.47-.13-4.31-2.11-6.18-3.36-3.15-7-6.14-8.83-10.67-.96-2.37-2.91-3.96-5.59-4.32-2.13-.28-3.38-1.67-4.4-3.36-1.08-1.81-1.49-3.77-1.48-5.88.02-3-.03-6.02-.27-9.01-.17-2.16-.53-4.32-2.02-6.14-1.45-1.77-1.41-3.81-.27-5.76.62-1.06,1.4-2.02,2.06-3.05.56-.89,1.06-1.82,1.73-2.98-1.75-1.01-3.28-1.87-4.8-2.77-1.69-1.01-3.34-.95-5.08-.1-4.34,2.12-8.42,4.64-11.74,8.16-1.99,2.11-4.28,2.76-7.02,2.59-3.57-.22-5.26-1.7-5.57-5.29-.13-1.48.15-3,.23-4.5.1-1.88.6-3.8-.63-5.84-1.11-.04-2.32-.04-3.52-.12-3.52-.23-5.12-1.82-5.46-5.41-.07-.79-.09-1.58-.16-2.67-1.15.34-2.01.67-2.9.83-2.19.39-3.39-.57-3.6-2.76-.11-1.15.28-2.41-.81-3.65-1.77,1.3-3.39,2.49-5.18,3.8-.16,2.61-.43,5.19-.44,7.78,0,2.72.17,5.45.39,8.17.19,2.31.73,4.6.78,6.91.05,2.25-.59,4.51.14,7.16.48-.59.88-.92,1.07-1.34,1.25-2.74,2.43-5.5,3.68-8.23.39-.86.86-1.72,1.44-2.46.29-.37.94-.61,1.43-.62.47-.01.95.35,1.45.55-.73,8.02-4.2,14.42-10.36,19.5.33.94.62,1.79.92,2.63,2.75-.11,5.15-.77,7.29-1.92,3.04-1.64,6.38-2.36,9.55-3.6,2.67-1.05,5.33-2.13,7.99-3.21,2.3-.94,4.66-1.57,7.16-1.57.73,0,1.48.2,1.5,1.02,0,.39-.53,1.02-.95,1.16-3.15,1.07-5.89,2.88-8.76,4.48-1.41.79-3.01,1.28-4.57,1.72-1.42.4-2.46,1.08-2.92,2.72-2.55-.94-4.84-.26-7.13.79-1.47.67-3.07,1.05-4.79,1.62.73,1.38,1.67,2.46,3.18,2.95,1.17.38,2.33.82,3.52,1.09,10.31,2.38,10.05,2.27,18.48,9.78.2.18.41.37.58.58,1.07,1.35,2.44,1.42,4.06,1.29,3.22-.25,6.07-1.61,9.01-2.66,3.21-1.14,6.45-1.11,9.73-.73.71.08,1.69.31,1.59,1.78-2.8,1.51-6.26,1.28-9.23,2.65-2.93,1.34-6.1,2.01-9.74,2.66,2.24,2.78,4.88,4.1,7.3,5.51,5.07-2.11,9.78-.83,14.48.29.1,1.57-.91,1.54-1.64,1.52-2.73-.08-5.45-.27-8.18-.44-.59-.04-1.07.02-1.15.92.98.79,2.08,1.58,3.08,2.5,1.91,1.75,3.88,3.47,5.59,5.4,1.71,1.94,3.17,4.11,4.67,6.23.22.31.08.89.11,1.47-1.75-.36-2.63-1.38-3.63-2.34-2.58-2.45-5.26-4.79-7.94-7.13-.45-.39-.99-1.06-1.76-.46-.4,2.11,1.07,4.16.08,6.74-.65-.93-1.23-1.49-1.49-2.18-.59-1.53-1.24-3.09-1.46-4.7-.33-2.42-1.71-3.93-3.63-5.14-.69-.44-1.35-.95-2.08-1.31-2.49-1.25-4.48-3.12-6.41-5.05-1.74-1.74-3.26-3.71-5.08-5.36-2.43-2.19-4.86-4.5-7.66-6.14-2.43-1.42-5.36-2-8.08-2.91-.41-.13-.89-.02-1.56-.02,1.66,2.43,3.33,4.43,4.49,6.69,1.24,2.41,2.3,5.01,2.87,7.64.5,2.34,1.84,4.85.21,7.6-1.78-1.76-1.74-3.95-2.51-5.79-.79-1.89-1.51-3.83-2.47-5.64-.89-1.69-1.98-3.29-3.11-4.83-1.21-1.65-2.51-3.26-3.89-4.77-1.33-1.45-2.02-3.51-4.25-4.69.22,2.08.07,3.94.68,5.49.82,2.06-.49,3.73-.37,5.59.04.68.17,1.35.32,2.02.32,1.47.6,2.96,1.04,4.4.84,2.75,1.71,5.48,2.71,8.18.31.85.91,1.73,1.62,2.25,1.65,1.2,3.45,2.19,5.22,3.29Zm-176.45-132.74c-1.88-.81-3.27-1.32-4.8-.6-.36.17-.79.25-1.19.29-2.36.23-4.63-1.1-5.65-3.29-.98-2.1-.54-4.1,1.51-5.86,1.13-.97,2.42-1.82,3.75-2.5,1.68-.85,3.48-1.47,5.46-2.29.2-7.61-.18-15.27.89-22.87.05-.35-.22-.75-.38-1.27-.57.06-1.09.08-1.6.18-1.73.34-2.83-.47-3.81-1.8-1.19-1.62-1.04-3.36-.65-5.11.38-1.71,1-3.37.91-5.44-.88-.1-1.67-.15-2.44-.29-2.22-.4-2.68-.91-2.96-3.24-.09-.79-.1-1.59-.15-2.5-1.8.57-3.43,1.26-5.14,1.59-2.1.42-3.39-1.47-5.12-2.38-.51.39-.98.65-1.34,1.04-1.3,1.41-2.54,2.87-3.84,4.28-.71.77-1.71.77-2.54-.01-.48-.45-.84-1.03-1.25-1.54q-4.31,1.38-6.54,3.92c-.94-.09-1.96-.18-3.06-.29-.14.69-.24,1.22-.34,1.75-1.08,5.36-1.95,10.78-3.31,16.07-1.04,4.04-3.86,6.85-7.76,8.44-1.58.64-3.35.91-4.76-.07-2.46-1.7-4.92-3.5-5.82-6.65-.79-2.74-1.91-5.39-1.59-8.6-1,.48-1.69.89-2.44,1.15-1.6.56-2.58.23-3.45-1.28-.46-.81-.75-1.73-1-2.64-.28-1.04-.42-2.11-.66-3.41-.82.14-1.45.36-2.07.33-.65-.02-1.56-.06-1.89-.47-1.47-1.8-3.37-1.48-5.28-1.4-1.77.08-3.55.05-5.32.1-.65.02-1.3.1-1.93.15-.37,4.33,2.67,8.01,1.47,12.35.51.55,1.09,1.13,1.62,1.74.62.73,1.24,1.47,1.81,2.24,1.39,1.87,1.3,3.27-.72,4.44-1.41.82-2.27,1.77-2.79,3.28-.44,1.28-1.17,2.47-1.8,3.69-1.42,2.72-1.92,3.24-4.61,4.87.12.77.04,1.66,1.29,1.84,1.74-3.11,5.01-3.83,8.06-3.8,4.06.04,8.16.48,12.2,1.4,3.7.84,7.1,1.99,9.76,4.86,2.06,0,4.09.01,6.12-.02.15,0,.29-.34.6-.72-.41-.3-.77-.7-1.21-.84-1.17-.39-2.41-.57-3.56-1.01-1.55-.6-3.71-.64-3.51-3.22,0-.02-1.27.09-1.63-.22-1.44-1.24-3.07-2.43-4.03-4.01-1.87-3.04-4.38-5.2-7.43-6.9-.81-.45-1.56-1.11-2.18-1.81-.73-.84-.02-2.43,1.12-2.5.9-.06,1.81.15,2.86.25-.13-1.01-.39-1.82-.29-2.6.07-.58.48-1.38.95-1.57.5-.21,1.5-.03,1.83.36.78.9,1.65,1.98,1.84,3.09.54,3.26,2.36,5.83,4.15,8.4,2.56,3.66,5.66,6.69,10.49,7.07.27.02.53.17.8.18,1.66.06,2.75.98,3.72,2.24.72.93,1.1,2.26,2.52,2.54,2.04-.77,3.05-2.7,4.61-3.99,2.75-2.27,3.85-5.23,4.08-8.64.06-.82.05-1.64.09-2.46.17-3.56.28-7.13,1.45-10.54.3-.89.64-1.8,1.16-2.57.56-.82,1.44-1.27,2.51-.95.96.29,1.42,1.37,1.17,2.75-.07.4-.29.77-.37,1.18-.61,3.08-1.23,6.17-1.79,9.26-.26,1.44-.56,2.9-.17,4.72.82-.4,1.55-.55,1.96-1,1.67-1.8,3.41-3.57,4.8-5.58,3.71-5.35,6.12-11.29,7.36-17.68.36-1.84,1.12-3.38,2.55-4.55.89-.74,1.91-1.04,3.1.09-.16.81-.25,1.75-.54,2.62-.99,2.98-2.25,5.89-3.03,8.92-.87,3.38-2.47,6.37-4.17,9.33-.95,1.65-2.22,3.12-3.26,4.73-.39.6-.53,1.37-.79,2.11,5.02.94,9.55.59,13.85-1.75,1.07-.58,2.27-.97,3.45-1.31.41-.12,1.24.09,1.34.35.16.41.02,1.15-.28,1.47-2.3,2.4-5.04,4.22-8.17,5.35-2.08.75-4.22,1.11-6.46.62-1.2-.27-2.45-.29-3.67-.44-1.96-.24-3.8.1-5.58.96-2.44,1.18-4.36,3.34-7.17,3.85-.23.04-.41.35-.6.54-1.34,1.35-2.67,2.7-4.1,4.15,2.12,1.24,4.08,2.39,6.24,3.66,1.11-.55,2.36-1.07,3.51-1.77,1.87-1.13,3.68-.84,5.47.08.72.37,1.44.84,2.02,1.4,1.25,1.22,2.79,1.69,4.43,1.96.54.09,1.09.09,1.64.16.4.06.89.05,1.18.28.38.3.73.77.83,1.22.06.26-.35.8-.66.92-3.31,1.25-6.43,1.06-9.18-1.42-.51-.46-.93-1.01-1.46-1.44-1.55-1.28-3.44-1.01-5.32.72,2.93,3.11,7.07,6.04,9.81,7.22,2.76,1.18,5.52,2.42,8.15,3.85,2.18,1.18,4.38,2.15,6.78,2.81,2.09.57,4.06,1.6,6.03,2.54.35.16.69.97.56,1.31-.13.36-.82.73-1.26.72-1.43-.04-2.8-1.27-4.31-.19.27,1.21.63,2.4.77,3.62.09.77-.31,1.62-.15,2.36.19.87.85,1.62,1.1,2.48.17.59.26,1.5-.64,1.66-.41.08-1.16-.24-1.35-.6-.92-1.67-1.84-3.36-2.52-5.14-1.57-4.07-4.56-6.75-8.31-8.68-2.19-1.13-4.47-2.07-6.67-3.17-1.58-.8-3.24-1.55-4.6-2.65-2.32-1.9-4.43-4.06-6.64-6.09-1.61-1.48-3.21-2.98-4.86-4.41-.49-.42-1.13-.82-2.03.05.69,1.78,1.54,3.63,2.13,5.56,1.38,4.53,3.7,8.25,7.29,11.52,3.18,2.89,5.48,6.74,8.42,10.5,2.79,0,5.92-.04,9.05.01,2.08.04,4.2.4,5.85,1.67,2.58,2,4.97,4.26,7.41,6.44.29.26.41.71.59,1.07,1.04,2.07,2.2,4.1,3.09,6.24.85,2.06,1.43,4.24,2.32,6.96.93-5.4.07-10.26.37-15.08.29-4.74-.06-9.52,0-14.28.06-4.88.41-9.77-.29-14.72Zm105.39-33.18c0,4.01,0,7.4,0,10.78,0,.26.13.53.2.79.96,3.74,1.38,7.48.02,11.22-.19.51-.38,1.05-.41,1.58-.33,5.03-.83,10.06-.62,15.11.08,1.9.59,3.8-.71,5.51-.12.15-.12.54,0,.69,1.48,1.95.9,4.06.53,6.17-.07.4-.13.85,0,1.22.65,2.02.41,4.02.15,6.08-.21,1.6.08,3.27.19,4.9.01.16.35.29.76.6.17-.55.35-1.01.45-1.47.26-1.2.35-2.45.75-3.59.59-1.7,1.13-3.23.28-5.1-.57-1.24.66-2.42,2.09-2.21,1.35.2,2.66.61,3.98.96,2.57.69,4.39,2.16,5.04,4.86.15.64.44,1.24.77,2.14.97-.9,1.79-1.6,2.54-2.38.81-.84,1.73-1.44,2.91-1.04,1.39.47,1.64,1.7,1.7,2.99.04.82.05,1.64.13,2.46.09.94.25,1.87.37,2.75q4.49.94,6.4,3.85c.85-.29,1.72-.69,2.62-.85,1.93-.35,3.27.66,3.36,2.6.06,1.34-.17,2.7-.25,3.81.65,1.15,1.02,2.23,1.74,3,.84.89,2.02,1.29,3.45.87.14-1.63.31-3.25.42-4.88.34-4.88,1.24-9.7.71-14.65-.64-5.96-1.06-11.92-2.55-17.78-1.19-4.72-3.18-9.05-5.81-13.04-2.17-3.31-4.9-6.33-8.42-8.26-2.92-1.6-5.42-3.67-7.95-5.76-1.9-1.56-3.79-3.14-5.79-4.57-1.38-.98-2.47-2.13-3.26-3.61-1.23-2.32-3.11-4-5.81-5.74Zm-69.21-239.84c-.2,6.35.01,12.5.39,18.63.55,9.01,1.07,18.02,1.23,27.06.02.89.24,1.78.4,2.91,1.19-.3,2.1-.54,3.02-.76,5.6-1.3,11.15-2.84,17.01-2.39,1.91.15,3.81.11,5.59,1.05.53.28,1.26.2,2.1.31.12-.87.32-1.52.28-2.16-.27-3.96-.55-7.91-.9-11.87-.47-5.32-.77-10.64-.15-15.97.08-.68.2-1.36.18-2.04-.07-3-.17-6-.3-8.99-.04-.8-.1-1.64-.37-2.37-.96-2.55-.99-2.54-.16-4.96-1.7-.9-3.48-.03-5.2-.2-3.26-.32-6.55-.41-9.83-.51-.94-.03-1.89.22-2.83.38-3.33.59-6.65,1.2-10.43,1.88Zm107.88,333.84c-2.44-.03-4.23.19-5.32,2.24-.42.78-1.29,1.39-2.06,1.91-2.09,1.43-4.24,2.77-6.54,4.26,1.92,2.09,3.8,4.24,6.24,5.81,2.13,1.37,3.61,3.37,4.94,5.42.71,1.1.96,2.53,1.28,3.84.21.89-.29,1.62-1.1,1.99-.94.43-1.57-.1-2-.88-1.22-2.2-3.08-3.81-4.95-5.44-1.23-1.07-2.55-1.54-4.16-1.14-.8.2-1.62.47-2.42.44-1.21-.03-2.48-.11-3.6-.53-.6-.23-1.18-1.16-1.31-1.85-.16-.86.58-1.49,1.42-1.76.51-.16,1.07-.17,1.61-.23.63-.07,1.41.14,1.59-.98-1.05-1.12-2.14-2.3-3.87-3.17-.81.81-1.51,1.62-2.34,2.26-.35.27-1.09.41-1.44.22-.36-.2-.76-.98-.63-1.31.51-1.36,1.22-2.64,1.96-4.15-.77-1.67-2.4-2.93-4.12-4.05-3.44-2.24-6.93-4.39-10.43-6.53-.37-.23-.94-.13-1.39-.18-.76,3.74.98,5.98,3.7,7.72,1.38.89,2.79,1.73,4.18,2.61.81.51,1.7.95,2.37,1.61,3.49,3.45,3.63,6.13.85,9.26-1.08,1.22-2.18,2.42-3.09,3.43,1.21,2.84,2.34,5.44,3.42,8.07.9,2.17.83,4.28-.71,6.08.49,1.17,1.01,2.14,1.33,3.18.85,2.76.88,5.39-1.44,7.59-.59.56-1.11,1.22-1.56,1.9-1.45,2.18-2.3,4.54-2.2,7.02,1.14.99,2.01.38,2.92.19,1.87-.39,2.84.16,3.51,1.91.25.64.4,1.31.58,1.97.48,1.72,1.29,3.24,2.49,4.78.74-.3,1.39-.5,1.96-.82,2.48-1.41,4.82-.14,7.16.41,1.53.36,1.75,1.93,2.39,3.13.5.94,1.25,1.78,2.05,2.51.72.65,1.65.92,2.34.44.91-2.43,1.76-4.57,2.51-6.76.75-2.2,1.5-4.4,2.06-6.65.32-1.27.8-2.61.28-4.04-2.01-.56-3.85-.18-5.59.69-2.27,1.13-5.02,1.51-6.21,4.32-.43,1.02-2.13,1.11-2.8.2-.53-.72-1.08-1.8-.91-2.57.3-1.41.85-2.87,2.28-3.7,3.95-2.31,7.92-4.48,12.73-2.65.2.08.49-.09.72-.14.37-3.2.74-6.4,1.11-9.55-.19-.13-.3-.26-.41-.26-.27,0-.55.01-.82.07-3.01.66-5.95.7-8.87-.54-1.3-.55-2.65-.42-3.96.28-1.19.63-2.47,1.1-3.71,1.64q-.56-1.33,1.1-3.8-1.95-2.32-1.94-4.52c1.57-1.19,3.1-.39,4.66.06,3.54,1.01,7.09,1.99,10.64,2.94,1.35.36,2.71.49,4.05-.64,0-1.51-.03-3.14,0-4.78.07-3.96.19-7.92.24-11.88,0-.51-.24-1.01-.33-1.37-1.01-.65-2.5.11-2.84-1.65.92-.66,1.89-1.35,3.05-2.18-.22-3.78-.44-7.58-.67-11.69Zm-350.91-30.45c-.29.35-.56.84-.97,1.15-3.92,3.06-6.47,6.91-7.4,11.87-.47,2.51-.49,4.86.68,7.18.67,1.34,1.4,2.71,1.74,4.15.53,2.25,1.92,3.6,3.9,4.41,3.95,1.63,8.07,2.6,12.36,2.67,1.72.03,3.22-.49,4.45-1.75,1.34-1.37,2.71-2.71,4.1-4.03.6-.58.97-1.16,1.11-2.06.49-3.1,1.32-6.15,1.7-9.26.53-4.25-.25-8.36-1.81-12.3-2.29-.11-4.34-.1-6.36-.33-5.68-.64-10.51-2.92-13.65-7.89-2.12-3.36-3.83-6.94-3.68-11.1.04-1.21.26-2.44-.43-3.53-2.7-1.01-2.65-.83-4.69-.28-5.08,1.36-8.69,4.41-11.09,9.01-.25.48-.63.9-.98,1.31-.94,1.09-1.21,2.39-1.42,3.77-.67,4.3,1.04,8,2.69,11.9,3.39.64,6.72,1.28,10.04,1.91,1.49-.96,2.36-2.36,3.22-3.75,1.12-1.79,2.58-3.18,4.51-4.05.9-.4,1.59-.11,2,1Zm225.92,92.98c1.01-.74,1.75-1.34,2.54-1.87,2.97-1.98,5.96-3.69,9.79-3.63,3.29.05,5.59-2.15,7.04-4.85.94-1.75,1.49-3.88,1.59-5.88.23-4.63,0-9.23-1.45-13.76-.84-2.61-2.26-4.27-4.69-5.2-1.27-.49-2.56-1.01-3.89-1.26-4.84-.92-9.5.2-14.09,1.6-.88.27-1.69.91-2.4,1.53-2.15,1.89-4.26,3.85-6.35,5.8-1.17,1.09-1.74,2.35-1.36,4.04.78,3.47,0,6.77-1.41,9.96-.49,1.11-1.06,2.23-.73,3.7,3.12.07,6.15.79,9.14,1.79,2.71.9,4.38,2.63,5.18,5.33.26.87.68,1.7,1.09,2.71Zm-148.11-35.91c-.81,0-1.65-.15-2.41.03-2.79.64-5.56,1.36-8.31,2.12-1.34.37-2.39,1.22-3.41,2.17-2.1,1.94-4.33,3.75-6.47,5.66-.81.73-1.57,1.53-2.24,2.39-.4.52-.73,1.19-.82,1.82-.31,2.2-.14,4.44.86,6.42,1.16,2.31,2.73,4.41,3.98,6.68.87,1.59,2.26,2.31,3.86,2.79,2.48.75,4.95,1.56,7.46,2.2,1.16.29,2.53.6,3.59.26,6.21-1.98,12-4.6,15.01-11.01.58-1.23,1.44-2.32,2.16-3.47,1.48-2.36,2.26-5.71,2.07-8.76-6.63-.49-11.35-4.15-15.32-9.29Zm112.28,82.48c-1.2-3.62-2.45-7.1-1.03-10.87.47-1.24-.14-2.45-1.04-3.36-.76-.76-1.68-1.36-2.48-2.08-1.51-1.35-3.25-2.55-4.42-4.16-1.88-2.57-2.41-3.08-5.1-2.78-4.11.46-10.79,4.28-13.25,7.56-.24.33-.42.71-.68,1.02-1.55,1.86-1.71,4.28-2.59,6.42-1.93,4.72-.77,9.1,1.42,13.38.81,1.57,1.71,3.1,2.47,4.69.85,1.78,2.19,2.76,4.16,2.81,1.63.04,3.27.1,4.9,0,4.47-.26,8.51-1.86,12.19-4.3,2.86-1.9,4.2-4.94,5.45-8.34Zm66.32-9.52c1.29.37,2.19.67,3.11.88,1.73.39,3.52.58,5.2,1.12,3.07.99,5.89,1.06,9.12.03,3.06-.98,5.81-2.25,8.42-4.01.91-.61,1.78-1.31,2.77-1.75,3.68-1.64,5.15-6.14,3.72-9.73-.91-2.27-1.93-4.51-3.08-6.67-1.24-2.32-2.78-4.4-5.72-4.77-.51-.06-.97-.5-1.48-.67-1.41-.46-2.82-.96-4.27-1.26-2.27-.46-4.57-.77-6.85-1.13-1.34-.21-2.68-.48-4.04-.57-1.54-.1-2.61.69-3.12,2.15-.27.77-.43,1.58-.69,2.36-.92,2.76-2.14,5.31-4.67,7.01-.54.36-.91.98-1.3,1.42.19,2.49.61,4.74,1.75,6.84.93,1.72,1.28,3.58,1.17,5.54-.06.94,0,1.89,0,3.2Zm-85.25-115.15c1.55,2.9,2.21,6.21,1.98,9.69-.03.54-.02,1.11.14,1.62.15.5.39,1.14.79,1.37,1.98,1.13,3.8,2.52,6.41,2.07,2.4-.42,4.9-.24,7.35-.46,2.43-.22,4.85-.56,7.25-.96.75-.13,1.67-.44,2.11-.99,3.74-4.6,5.43-9.95,3.89-15.67-1.04-3.86-2.69-7.72-5.86-10.59-6.27-5.67-4.11-5.32-12.8-5.28-2.66.01-4.4,1.17-5.61,3.37-.59,1.07-1.07,2.23-1.76,3.22-1.12,1.6-1.82,3.28-2.16,5.22-.42,2.4-1.11,4.76-1.74,7.38Zm-180.76,13.06c-3.28-1.12-5.61.06-8.04,1.01-2.6,1.01-4.64,2.83-6.89,4.33-.77,2.03-1.55,4.06-2.31,6.09-.19.51-.28,1.05-.42,1.58-.8,3.13-.71,6.22.58,9.21.8,1.86,1.67,3.71,2.64,5.49.29.53.97.94,1.57,1.16.76.28,1.63.5,2.41.4,4.37-.52,7.57,1.67,10.6,4.34.3.26.65.47,1.17.85,1.3-2.11,3.44-2.97,5.58-3.79,1.55-.6,3.13-1.28,3.85-2.84,1.14-2.46,2.51-4.87,2.43-7.73-.02-.67-.04-1.43.23-2.01,1.7-3.65.38-7.18,0-10.73-5.09-1.83-10.24-3.03-13.39-7.38Zm329.65-2.16c.25-1.22.5-2.26.66-3.32.17-1.07.22-2.17.37-3.24.3-2.16.59-4.33.98-6.47.12-.64.52-1.26.92-1.8.2-.26.73-.45,1.05-.38.31.07.71.47.78.79.11.51-.02,1.08-.06,1.62-.34,4.76-.81,9.51-2.34,13.89,4.04,3.22,7.87,6.27,11.88,9.47.48-.1,1.15-.18,1.78-.41.63-.23,1.28-.53,1.81-.95,2.23-1.8,4.5-3.54,6.03-6.08,1.76-2.94,2.26-3,5.67-1.73.42.16.92.1,2.19.21-1-1-1.35-1.61-1.87-1.83-1.77-.77-2.41-2.1-2.33-3.93.04-.94,0-1.87,0-2.82-2.03-.75-3.93-1.2-4.71-3.29-.65-1.74-2.55-2.94-1.98-5.2-.66.05-1.05.06-1.44.1-2.48.28-2.82.08-3.63-2.11-.32-.87-.65-1.73-.94-2.52-4-.02-4.59-.42-5.49-3.74-.2-.73-.3-1.49-.45-2.24-.52.12-.8.13-1.01.25-.23.13-.37.42-.6.56-2.54,1.54-4.49.87-5.41-1.88-.3-.91-.42-1.87-.7-2.79-.15-.51-.41-1.01-.7-1.46-.59-.91-1.93-.9-2.34.04-.6,1.37-1.41,2.76-1.57,4.2-.34,2.96-1.42,5.55-3.1,7.93-1.49,2.11-1.87,4.59-1.78,6.99.09,2.44.77,4.83.07,7.31-.31,1.1.41,1.95,1.63,2.51,1.49.68,2.98,1.38,4.51,1.98.6.23,1.3.21,2.14.33Zm-210.84,65.4c.97-.42,1.69-.81,2.46-1.05,2.72-.88,5.42-1.91,8.21-2.48,1.62-.33,2.72-.92,3.63-2.27,2.8-4.14,3.6-8.77,3.46-13.63-.05-1.76-.05-3.57-1.13-5.13-2.75-3.99-6.2-7.17-10.41-9.62-1.89-1.1-3.63-1.02-5.46-.33-3.07,1.16-5.92,2.64-8.38,4.97-1.46,1.38-2.58,2.85-3.14,4.66-.81,2.6-1.48,5.26-2.02,7.93-.32,1.58-.37,3.24-.4,4.86-.03,2.34.84,4.24,2.98,5.45,1.66.94,3.31,1.92,4.91,2.96,1.71,1.11,3.35,2.32,5.31,3.68Zm118.41,44.97c2.24,1.25,4.17,2.24,6.03,3.37,1.84,1.12,3.75,1.55,5.88,1.16,4.84-.89,8.31-3.68,11.13-7.6,1.97-2.73,2.2-5.61,1.09-8.52-1.12-2.93-2.24-5.85-3.04-8.88-.21-.79-.52-1.57-.91-2.28-2.02-3.6-5.11-6.02-9.22-5.87-5.15.19-10.34.41-15.31,2.42-2.7,1.1-4.61,2.64-6.17,5.28,1.15.92,2.23,1.73,3.25,2.6,1.47,1.25,2.61,2.59,3.13,4.63,1.19,4.63,2.75,9.16,4.14,13.68Zm-63.95-96.7c4.03-4.12,6.15-11.64,5.95-16.63-.09-2.37-.37-4.81-2.07-6.5-3.12-3.11-6.56-5.84-11.42-5.58-.92.05-2.09-.07-2.74-.6-1.38-1.15-2.87-1.02-4.25-.59-5.32,1.63-10.14,4.03-13.37,8.91-1.28,1.94-1.82,3.97-1.69,6.19.07,1.31.44,2.61.68,3.92.91.17,1.57.38,2.24.41,2.45.1,4.38,1.12,6.16,2.83,2.74,2.63,5.8,4.94,7.58,8.18,4.4-.18,8.49-.35,12.92-.54Zm-94.62,54.02c-1.35,2-2.45,3.72-3.66,5.37-1.09,1.48-1.75,3.1-1.96,4.9-.6,5.29.26,10.34,2.62,15.13.92,1.87,2.29,2.91,4.43,3.17,1.46.18,2.95.63,4.3,1.25,4.12,1.9,8.01,1.24,11.73-.96,2.22-1.31,4.28-2.88,6.22-4.21.84-2.48,1.62-4.8,2.38-7.03-1.55-2.18-2.9-4.41-4.59-6.36-2.63-3.04-3.82-6.59-4.38-10.44-.19-1.32-.35-2.65-.55-4.18-1.93.48-3.53,1.2-5.13,1.95-3.52,1.66-7.12,2.93-11.4,1.42Zm-57.09-57.21c.35,4.33,1.99,7.81,5.25,10.42,2.31,1.85,5.16,2.92,7.21,5.24,1.13,1.28,2.86,2.02,3.99,2.78,2.57.39,4.83.74,7.28,1.12,4.71-2.04,7.07-6.32,9.02-10.91.49-1.15.6-2.49-.41-3.46-.97-.94-1.09-2.13-1.43-3.31-.67-2.36-1.29-4.77-2.27-7-1.09-2.48-2.57-4.79-3.66-6.78-1.97-1.36-3.63-2.5-5.28-3.66-1.23-.86-2.41-1.79-3.68-2.6-.51-.32-1.18-.38-1.97-.62-1.41,8.73-5.23,15.42-14.06,18.79Zm129.98,26.16c.05.28.03.72.21,1.05,2.08,3.75,5.3,6.56,8.07,9.75.26.29.69.43,1.04.64,1.33.8,2.68-.18,3.89,0,1.18.18,2.2,1.37,3.3,2.1.1.07.27.03.41.03,2.19-.06,4.39.04,6.56-.22,2.09-.25,4.14-1.17,5.13-3.05,1.25-2.37,2.5-4.89,2.55-7.65.06-3.26-.16-6.53-.31-9.79-.03-.67-.26-1.34-.46-1.99-1.66-5.38-6.45-7.46-10.71-10.1-.21-.13-.53-.09-.8-.13-1.35-.18-2.69-.45-4.05-.52-1.6-.08-3.24-.55-4.99.27-.11,1.61.07,3.3-.37,4.8-1.66,5.66-3.64,11.18-9.25,14.31-.09.05-.11.24-.21.49Zm-107.83,6.51c-.25.57-.48.93-.56,1.32-.7,3.57-2.31,6.65-4.77,9.34-2.2,2.39-4.26,4.91-6.43,7.44.38,2.54,2.07,4.42,3.26,6.53,1.75,3.11,5.1,4.35,7.84,6.56,1.33-.27,2.75-.75,4.25.08.6.33,1.59.05,2.38-.11,1.87-.38,3.74-.81,5.58-1.31,1.72-.46,3.49-.96,4.48-2.63,1.79-3.03,3.52-6.1,5.18-8.99-1.08-2.28-1.87-4.34-2.99-6.21-1.39-2.32-2.05-4.73-1.91-7.41.04-.67-.05-1.36-.07-1.9-.88-1.37-2.04-1.99-3.45-2.23-1.89-.32-3.76-.73-5.65-.97-2.3-.29-4.63-.44-7.12.5Zm-35.94-5.8c.81.44,1.43.7,1.96,1.09,1.62,1.2,2.29,2.6,1.37,4.23-1.46,2.6-1.02,5.28-1.14,7.85q3.25,4.24,9.28,5.6c.35.08.65.42.97.64.55.38,1.08,1.05,1.64,1.08,2.34.12,4.91,1.31,6.82-1.23.25-.34.98-.31,1.47-.48.62-.22,1.37-.33,1.8-.75,2.65-2.56,5.08-5.32,6.78-8.64.97-1.88,1.53-3.82.7-5.89-.96-2.39-1.89-4.8-2.99-7.13-.38-.81-1.11-1.59-1.89-2.04-3.92-2.28-8.1-3.96-12.55-4.84-4.3-.86-5.95.07-7.49,4.17-.66,1.76-1.63,3.06-3.33,3.94-1.18.61-2.19,1.54-3.41,2.43Zm212.68,52.15c-2.14,1.24-4.12,1.94-6.39,1.98-1.26.03-2.72.68-3.69,1.51-2.25,1.94-4.44,4.01-5.45,6.11.29,3,.62,5.28.7,7.57.06,1.62-.2,3.26-.34,4.89-.13,1.52-.12,3.04.78,4.35,2.24,3.22,5.01,5.74,8.99,6.64.79.18,1.56.48,2.33.75,2.75.97,5.28,1.01,7.58-1.2,1.17-1.13,2.71-1.85,3.95-2.92,3.95-3.43,4.87-6.18,3.31-10.4-.99-2.68-1.69-5.47-2.51-8.21-.71-2.39-1.74-4.53-3.78-6.15-1.81-1.44-3.46-3.08-5.48-4.91Zm-80.27-52.49c.99-.07,2.11,0,3.15-.27,1.8-.45,3.41-1.2,3.21-3.57-.04-.45.37-.93.67-1.61.99.53,1.78.96,2.55,1.38,2-.85,3.4-2.12,4.46-4.04,1-1.81,1.73-3.66,2.43-5.59,1.65-4.5.11-7.99-3.01-11.08-1.45-1.44-2.85-3.15-4.63-3.99-1.91-.9-4.24-.92-6.38-1.32-.4-.08-.83-.09-1.21-.24-3.73-1.54-7.26-.46-10.77.81-1.32.48-2.63,1.17-2.98,2.59-.79,3.18-1.83,6.39-1.92,9.61-.1,3.24-.17,7.02,4.17,8.31.36.11.66.48.97.75,2.96,2.63,5.91,5.26,9.29,8.27Zm23.48,76.88c-.11-3.29-.11-6.26,1.16-9.13,1.2-2.72,2.08-5.58,3.13-8.49-1.01-2.26-2.95-3.82-4.8-5.41-.6-.51-1.42-.92-2.19-1.04-4.06-.63-8.15-1.01-12.26-.79-2.82.15-5.08,1.29-7.1,3.52-3.18,3.5-4.85,7.63-5.84,12.04-.75,3.34-.09,6.63,2.81,8.9,2.28,1.78,4.88,3.05,7.85,3.25,2.32.15,4.66.4,6.97.28,2.43-.13,4.92-.17,7.01-1.89.78-.65,1.99-.78,3.25-1.24Zm-67.17-139.27c-5.62,2.71-9.49,6.8-12.08,12.1-.95,1.94-1.96,4.02-1.63,6.25.5,3.41,1.75,6.6,4,9.27,1.56,1.85,3.79,2.93,6.07,3.09,2.1.15,4.33-.42,6.39-1.06,2.23-.69,4.29-.46,6.41.19,1.13.35,2.24.74,3.48,1.15.38-1.97.72-3.7,1.05-5.44.32-1.69,1.13-3.05,2.6-4,.53-.34,1.01-.74,1.28-.94-1.27-3.09-2.69-5.77-3.45-8.63-.8-2.99-.98-6.15-1.46-9.45-4.72,1.84-8.46-.89-12.65-2.55Zm-17.1-7.49c-1.37,2.43-.18,4.62.13,6.89.36,2.74,2.82,3.69,4.02,5.82,1.58-1.46,2.92-2.83,4.41-4.03,1.47-1.18,3.08-2.17,4.82-3.38-.94-1.06-1.76-2.14-2.74-3.05-1.93-1.79-2.83-3.98-2.87-6.57-.09-5.1.16-10.13,3.14-14.57.14-.2.1-.52.21-1.12-.97-1.07-1.28-2.63-1.54-4.28-.48-3.03-2.04-5.35-5.32-6-3.35-.67-6.69-1.39-10.06-1.93-.87-.14-2.02.04-2.7.54-1.64,1.2-3.29,2.48-4.12,4.47-.63,1.52-1.3,3.01-1.93,4.53-1.1,2.66-1.27,5.28.2,7.89.4.71.69,1.49.93,2.28.82,2.6,2.57,4.55,4.59,6.18,2.4,1.93,5.16,3.08,8.39,2.4,2.12-.45,4.26-.82,6.39-1.23.69,1.1.75,2.17-.49,2.8-1.69.85-3.47,1.52-5.44,2.37Zm-47.62-29.26c-.47.08-.89.07-1.25.22-4.3,1.72-8.42,3.87-12.96,4.98-1.17.28-2.26.97-3.32,1.58-2.18,1.24-3.39,3.11-3.47,5.66-.05,1.49-.17,2.98-.22,4.48-.12,3.36.55,6.65,2.34,9.4,2.66,4.08,6.59,6.36,11.59,6.75,2.8.22,5.15-.63,7.15-2.38,4.05-3.54,6.82-7.77,6.63-13.44-.03-.95.21-1.92.12-2.86-.28-2.82-.31-5.71-2.17-8.15-1.47-1.93-2.82-3.95-4.43-6.23Zm-9.89,127.06c-.44,1.92-.85,4.44-1.61,6.84-.58,1.86-.92,3.53-.48,5.54.62,2.81-.17,5.26-2.8,7.12-2.52,1.78-4.79,3.97-6.02,7.15.53.7,1.11,1.44,1.67,2.19,1.39,1.87,1.88,3.92,1.16,6.19-.21.65-.49,1.29-.6,1.96-.09.52-.17,1.18.07,1.58,1,1.65,2.22,3.18,4.13,3.8,3.42,1.1,6.95.9,9.97-.83,3.87-2.22,7.6-4.72,10.13-8.73,1.86-2.95,2.3-5.7,1.11-8.91-1.2-3.22-2.85-6.2-4.51-9.19-.63-1.13-1.27-2.06-2.48-2.56-1.84-.76-3.12-2.11-4.09-3.86-.59-1.07-1.49-1.96-2.17-2.98-1.28-1.89-2.51-3.82-3.48-5.3Zm102.69-101.81c-4.08,2.17-5.85,6.52-9.18,9.33-.28.24-.33.74-.52,1.1-2.35,4.42-1.77,13.54,3.18,18.77.96,1.01,2.11,1.62,3.53,1.92,5.74,1.2,10.82-.41,15.59-3.43.55-.35.95-.96,1.37-1.49,2.38-3.03,2.99-6.69,3.63-10.34.48-2.77-.5-5.13-2.07-7.28-1.04-1.43-2.27-2.72-3.38-4.1-1.32-1.65-3.12-2.81-5-3.4-2.29-.72-4.8-.76-7.17-1.09Zm-92.22,11.73c1.07,3.55,2.08,6.8,3.01,10.08.36,1.26,1.05,2.19,2.11,2.91,2.38,1.61,4.75,3.23,7.1,4.88,1.29.91,2.68,1.23,4.26,1.13,6.64-.46,13.01-5.43,15.38-11.91.32-.88.52-1.88.46-2.8-.1-1.63-.35-3.27-.71-4.86-.21-.91-.56-1.93-1.19-2.56-1.83-1.8-3.56-3.73-6.35-4.24-1.86-.34-3.75-.97-5.4-1.88-2.27-1.25-4.75-1.14-7.14-1.59-1.28-.25-2.41.27-3.09,1.53-1.98,3.67-4.8,6.61-8.44,9.32Zm118.72-19.02c.68-2.39,1.29-4.77,2.03-7.1.98-3.12.74-6.08-.14-9.25-.85-3.04-2.95-4.34-5.48-4.88-4.12-.88-8.34-1.33-12.54-1.8-1.18-.13-2.55-.02-3.61.47-3.7,1.75-7.31,3.69-10.93,5.62-.22.12-.21.67-.34,1.15.55.03.97.17,1.31.05,2.1-.74,4.06-.25,5.98.6,1.62.72,3.22,1.49,4.8,2.29.78.4.73,1.49.06,2.08-.8.72-1.76.87-2.69.66-1.46-.33-2.86-.92-4.32-1.26-.68-.16-1.44-.03-2.37-.03,2.02,4.4,3.09,8.71,2.45,13.36,1.77.5,3.33,1.23,4.93,1.33,3.14.2,5.65,1.58,8.05,3.75,3.24-4.31,7.81-5.97,12.81-7.05Zm-85.14,32.75c-2.46,2.06-4.43,3.99-6.68,5.5-2.34,1.56-4.95,2.72-7.56,4.11,1.19,2.94,2.38,5.82,3.52,8.73,1.14,2.92,2.22,5.86,3.38,8.91,3.44.72,6.75,1.52,10.1,2.07,2.29.37,4.35-.36,5.79-2.31.81-1.09,1.69-2.18,2.24-3.4,1.18-2.61,2.23-5.29,3.23-7.98.69-1.85.66-3.74-.08-5.61-.56-1.4-1.06-2.82-1.65-4.2-1.62-3.82-4.77-5.84-9.04-5.81-1.23,0-2.46,0-3.24,0Zm244.24-149.34c.48.51.63.82.85.89,5.23,1.61,10.46,3.18,15.94,3.84,3.11.38,6.25.95,9.2,1.93,2.31.77,4.44.87,6.8.57,2.42-.3,4.95-.33,7.36.03,4.1.61,8.13.71,12.23.02,2.42-.41,4.9-.48,7.35-.56,2.32-.08,4.65.17,6.96.01,3.69-.25,7.36-.67,11.04-1.08,2.71-.3,5.4-.96,8.11-1.01,5.62-.09,11.22-.27,16.78-1.21.66-.11,1.36-.02,2.04-.08,2.99-.27,5.98-.51,8.95-.87.73-.09,1.41-.59,2.09-.9-.31-1.09-.99-1.17-1.69-1.16-7.92.06-15.85.32-23.76.15-10.52-.23-21.04.64-31.57.15-2.4-.11-4.87.06-7.31.05-3,0-6.09.32-8.98-.27-4.07-.82-8.15-.89-12.23-1.17-4.36-.3-8.72-.12-13.1.16-5.56.36-11.14.34-17.09.49Zm100.3-80.7c-3.74-.38-6.58-.62-9.41-.97-1.35-.16-2.68-.5-4.01-.8-1.32-.3-2.62-.73-3.95-.96-4.58-.78-9.16-1.19-13.84-1.01-7.65.3-15.31.19-22.97.33-1.34.02-2.69.35-4.01.63-2.8.59-5.59,1.25-8.39,1.87-2.66.59-5.41.72-7.98,1.75-1.77.71-3.61,1.23-5.41,1.88-.39.14-.71.49-1.7,1.2,4.33-.07,7.78.73,11.32.66,1.76-.04,3.53.29,5.29.48,2.71.29,5.41.66,8.12.9,4.76.41,9.52.73,14.29,1.09.82.06,1.65.25,2.45.18,4.89-.41,9.78-.82,14.67-1.21,5.57-.44,11.11-1.38,16.64-2.26,2.91-.47,5.83-1.1,8.89-3.78Zm-194.37,284.54c-1.14-1.34-1.87-2.35-2.75-3.2-1.77-1.71-3.63-3.39-6.03-4.13-3.37-1.04-6.8.07-10.2.03-.12,0-.26.09-.37.16-3.68,2.31-6.92,5.1-7.79,9.57-.79,4.04-.93,8.16.37,12.18.25.78.51,1.58.93,2.27,1.34,2.22,5.04,3.34,7.23,1.94,1.76-1.12,3.68-1.77,5.52-2.64,3.49-1.65,6.97-3.16,11.01-1.74.67-1.6,1.29-2.96,1.82-4.35.48-1.27.87-2.58,1.32-3.94-.98-1.93-2.48-3.77-1.05-6.14Zm-24.02,43.65c1.1-1.83.94-3.3.01-5.1-1.3-2.53-2.13-5.29-1.35-8.28.77-2.96-.62-5.02-3.1-6.45-1.66-.95-3.34-1.89-5.1-2.62-3.42-1.41-6.86-1.85-10.04.67-1.39,1.1-2.77,2.23-4.07,3.44-4.08,3.78-5.3,8.44-4.17,13.8.21.98.61,1.81,1.47,2.37,3.86,2.5,7.83,4.77,12.47,5.49.82-2.27,2.74-2.73,4.64-2.9,2.98-.27,5.98-.29,9.23-.42Zm-82.01-112.9c1.43-2.35,2-4.87,4.02-6.47,1.66-1.31,2.63-3.08,3.27-4.51-.3-1.78-.52-3.11-.75-4.43-.45-2.58-1.36-4.89-2.92-7.09-2.3-3.25-5.61-4.68-9.11-5.85-2.47-.83-5.16-.4-7.04,1.1-3.33,2.67-5.64,6.05-6.1,10.67-.56,5.62,1.44,9.57,6.31,12.16,3.82,2.03,7.56,4.32,12.32,4.43Zm-34.52-43.01c.38-1.66.8-2.84.88-4.05.15-2.23-.14-4.62-1.75-6.14-3.38-3.19-7.27-5.75-11.56-7.62-.49-.21-1.07-.25-1.61-.31-5.08-.58-10.51,3.4-11.48,8.41-.23,1.21-.4,2.43-.6,3.64-1.39,8.16,4.12,16.22,11.34,18.23.31-.72.63-1.46.94-2.21,1.11-2.7,2.77-4.99,4.9-7,2.42-2.29,5.21-3.41,8.95-2.95Zm97.94,51.34c.53-5.01-.06-9.27-3.73-12.68-1.39-1.29-2.43-3.15-4.02-4.01-4.14-2.22-8.05-5.24-13.17-4.94-.52.03-1.05-.34-1.58-.36-.8-.02-1.64-.04-2.4.19-3.15.95-6.07,2.34-8.55,4.95,2.46,2.77,4.7,5.58,5.8,9.18,1.13,3.67-.32,7.23-.22,11.22,1.25-.71,2.4-1.03,3.03-1.78,1.23-1.46,2.9-2.03,4.53-2.64,1.91-.71,3.9-1.23,5.88-1.75.63-.16,1.42-.24,2,0,3.85,1.55,8.02,1.46,12.43,2.61Zm-193.13,25.02c4.13-5.78,9.71-9.09,16.66-10.14.48-.07.91-.43,1.52-.73-1.9-3.32-.78-6.75-.8-10.06-5.97-1.81-11.87-2.46-17.27-2.41-1.95.97-3.35,1.78-4.83,2.38-1.42.57-2.59,1.35-3.7,2.43-1.38,1.35-2.46,2.86-3.54,4.42-2.74,3.94-1.77,7.78.14,11.58.71,1.42,1.96,2.09,3.68,2.09,2.59,0,5.17.27,8.13.44Zm123.68,28.92c1.69-1.48,3.2-2.81,4.71-4.14,1.24-1.08,2.56-2.08,3.69-3.26.72-.76,1.52-1.75,1.64-2.72.55-4.2,1.18-8.49-2.72-11.7-.62-.51-1.02-1.3-1.63-1.84-2.56-2.26-5.66-3.61-8.99-3.23-2.59.3-5.43.72-7.36,3.03-.43.51-1.07.85-1.61,1.27-3.34,2.63-4.2,5.7-2.69,9.69.14.38.34.75.46,1.14,1.29,4.07,3.76,7.14,7.46,9.34,2.29,1.37,4.72,2.01,7.03,2.42Zm220.11,24.56c-.13.21-.37.41-.38.62-.06,3.51,0,7.03-.14,10.54-.18,4.26-1.13,8.38-2.54,12.4-.32.9-.66,1.81-.83,2.74-.18.97-1.06,1.9-.56,2.9,2-.15,3.75-.24,5.5-.41,4.85-.45,9.8-.23,14.37-2.47,1.02-.5,2.12-1.41,3.45-.68.99-.84,1.94-1.72,2.98-2.5.52-.39,1.2-.58,1.79-.89.45-.24,1.03-.44,1.28-.84,1.02-1.58,1.95-3.23,3.04-5.08-2.52-.93-4.25-2.54-5.68-4.63-1.2-1.74-2.13-1.83-4.28-1.1-.65.22-1.28.5-1.93.69-2.93.89-3.92.59-5.53-1.9-1.18-1.83-2.22-3.75-3.35-5.68q-4.56-.86-7.17-3.71Zm-299.61-124.45c-.63-2.41-1.16-4.23-1.58-6.07-.32-1.41-.94-2.64-2.17-3.36-2.35-1.37-4.69-2.87-7.22-3.8-2.72-.99-5.8-1.15-8.45.12-4.52,2.16-7.74,5.9-8.97,10.68-1.17,4.54-.47,9.24,1.41,13.64.15.36.44.67.61.92,1.49-.17,2.71-.49,3.91-.41,1.33.09,2.63.54,3.94.84.09-.1.22-.18.28-.3.25-.48.51-.97.73-1.46,2.07-4.58,5.85-7.08,10.45-8.58,2.32-.75,4.64-1.47,7.04-2.22Zm115.64,150.43c-.07-.57-.07-.99-.17-1.38-.73-2.76-1.33-5.48-1.33-8.42,0-3.18-1.34-6.04-4.12-8.06-4.32-3.13-10.32-2.45-13.37,1.8-1.5,2.09-2.93,4.33-3.83,6.71-1.01,2.67-1.51,5.64.39,8.23,1.28,1.75,2.82,3.33,4.33,4.9,1.25,1.3,2.8,2.38,4.58,2.5,2.29.15,4.61-.14,6.91-.27,1.63-.09,2.75-1.01,3.69-2.28.88-1.2,1.83-2.35,2.93-3.74Zm57.24-6.26c2.8,2.32,5.39,4.53,8.05,6.65,1.41,1.13,2.86,1.29,4.5.17,2.25-1.53,4.69-2.78,6.94-4.32.85-.58,1.66-1.5,2.01-2.45.85-2.29,1.56-4.66,2.05-7.05.54-2.58-1.71-7.3-3.97-8.52-2.15-1.16-4.43-2.08-6.6-3.19-1.25-.64-2.36-.38-3.51.18-1.46.72-2.9,1.52-4.43,2.07-2.8,1.01-4.31,3.25-5.59,5.68-.28.53-.3,1.41-.06,1.96,1.22,2.75,1.04,5.59.6,8.81Zm-54.54-10.45c.32-.19.79-.31.99-.61,1.89-2.75,4.61-4.67,7.1-6.75,2.84-2.36,6.02-4.4,10.1-2.79,1.33-1.84,1.88-3.72,1.86-5.89-.53-.31-.96-.72-1.46-.83-3.86-.92-6.31-3.61-8.5-6.63-1.66-2.3-3.29-4.62-4.98-6.99-2.24.98-4.32,1.89-6.58,2.88.9,7.79-.57,14.98-4.99,21.32,2.18,2.13,4.3,4.19,6.46,6.29Zm288.54,35.12c-.18-.15-.37-.3-.55-.46-1.04.62-2.02,1.4-3.14,1.82-5.03,1.88-10.17,3.03-15.61,2.94-5.6-.09-11.24-.06-16.82.42-7.55.64-15.05.15-22.52-.47-4.23-.35-8.44-.53-12.67-.64-5.06-.13-10.17.18-15.17-.41-6.37-.75-12.8-1.09-19.06-2.78-3.97-1.07-7.96-1.96-11.68-3.79-.39-.19-.89-.13-2-.28.91,1.29,1.31,2.19,1.99,2.74,1.28,1.03,2.78,1.65,4.49,1.82,4.74.49,9.42,1.36,14,2.71,1.83.54,3.68,1.16,5.55,1.33,3.56.32,7.04.88,10.43,2,1.04.34,2.09.7,3.16.86,5.13.77,10.21,1.95,15.46,1.53.67-.05,1.36.15,2.04.19,2.17.13,4.35.39,6.52.31,2.86-.11,5.71-.53,8.57-.74,1.77-.13,3.56-.04,5.32-.18,4.09-.33,8.16-.76,12.24-1.12,1.91-.17,3.84-.14,5.72-.44,4.45-.71,8.89-1.48,13.3-2.38,3.22-.66,6.32-1.77,9.09-3.6.52-.35.9-.92,1.34-1.38Zm-319.18-19.39c-3.05,1.04-4.87,3.31-4.81,6.35.12,6.42,1.36,12.51,7.76,16,1.19.65,2.31,1.45,3.43,2.24,1.07.75,2.21,1.02,3.49.73,2.77-.63,5.54-1.24,8.17-1.82.9-4.27,1.76-8.34,2.69-12.75-1.51.25-2.81.44-4.11.69-2.84.56-5.44.12-7.65-1.86-1.72-1.55-3.46-3.07-5.05-4.75-1.39-1.47-2.56-3.14-3.92-4.83Zm-69.31-126.69c1.36.81,2.75,1.47,4.22,1.29,1.44-.17,2.71.19,3.99.62,2.59.86,5.21,1.66,7.72,2.72,1.47.63,2.8,1.66,4.09,2.63,1.18.89,2.23,1.95,3.39,2.99,1.6-1.25,1.52-2.96,2.11-4.77-5.51-4.11-7.45-10.25-9.33-16.64-2.6-1.31-5.23-2.75-7.96-3.98-2.92-1.31-5.8-1.05-8.69.68.8,4.84,1.16,9.57.45,14.45Zm139.23,46.01c-.88,2.08-1.53,4.04-2.51,5.81-.96,1.75-2.26,3.31-3.3,4.8.37,1.51,1.55,1.78,2.46,2.31,4.3,2.53,6.68,6.28,7.27,11.21.08.62.22,1.24.36,1.97,2.07-.11,3.09-1.59,4.44-2.4,3.34-2.01,5.19-5.05,6.1-8.82.78-3.24.64-6.5.61-9.77,0-.48-.38-.97-.55-1.37-2.88-.18-5.6-.38-8.32-.5-1.86-.08-3.46-.68-4.87-1.88-.5-.43-1.02-.82-1.69-1.36Zm53.65,73.59c1.48-.18,2.8-.38,4.14-.51,2.86-.28,5.72-.79,8.57-.72,5.05.13,9.3,2.07,12.1,6.52.48.76.94,1.53,1.45,2.36,2.21-1.64,3.15-3.74,3.62-6.06.15-.76.11-1.69-.19-2.38-2.07-4.68-5.62-7.99-10.14-10.25-1.48-.74-3.08-1.26-4.72-.37-.96.53-1.78.38-2.66-.23-1.69-1.17-3.33-.91-4.91.28-.55.41-1.21.67-1.73,1.1-3.08,2.53-6.38,4.95-5.52,10.24Zm-111.55-53.95c-.2-.84-.28-1.64-.58-2.34-.78-1.81-1.01-3.68-.72-5.6.3-2.02.81-4.01,1.06-6.04.46-3.66,2.6-5.92,5.9-7.15,3.32-1.24,6.67-2.45,10.63-1.55-.51-1.32-1.05-2.27-1.21-3.29-.19-1.15-.04-2.35-.04-3.53-.22-.03-.49-.13-.72-.08-.4.09-.8.23-1.15.43-5.95,3.58-12.3,4.09-18.92,2.44-2.45-.61-3.55-.05-4.28,2.28-.76,2.46-1.5,4.94-2.24,7.37,1.61,1.85,3.2,3.71,4.81,5.55,1.83,2.09,2.38,4.55,2.13,7.25-.08.81-.17,1.62-.27,2.44-.1.9-.21,1.8-.35,2.95,2.09-.3,3.97-.26,5.96-1.12Zm41.61,39.92c-2.61.58-4.55.51-6.55-.13-2.15-.69-4.11.51-5.56,1.87-2.57,2.43-5.35,4.62-7.72,7.3-1.23,1.39-1.8,2.58-1.5,4.35.39,2.3.45,4.58-1.12,6.78,2.78,0,5.36-.08,7.92.02,2.66.11,5.31.39,8.21.62,0-2.61,0-4.92,0-7.22.02-3.84,1.28-7.23,3.68-10.21.75-.94,1.49-1.9,2.63-3.38Zm13.06-87.91c.69-.86,1.38-1.53,1.84-2.34.74-1.3,1.21-2.76,2.02-4.01,1.1-1.71,1.17-3.29-.02-4.92-.72-.98-1.43-1.98-2.2-2.93-.94-1.17-2.1-2.19-2.85-3.47-1.99-3.39-5.05-5.27-8.58-6.61-4.64-1.76-9.1-1.52-13.34,1.19-.96.61-1.75,1.32-1.57,2.77,4.45.26,8.25,2.53,12.26,4.22,1.82.77,3.3,1.9,4.53,3.41.69.85,1.41,1.67,2.13,2.49,2.46,2.78,4.73,5.65,5.1,9.55,0,.1.18.18.68.64Zm-59.12-24.65c-.61-3.9-1.96-7.38-5-10-.41-.35-.77-.79-1.07-1.24-2.66-3.94-6.41-6.74-10.2-9.42-2.42-1.71-5.13-3.01-7.45-4.35-4.08.91-6.17,3.49-7.82,6.73,1.23,1.46,2.65,2.79,3.61,4.39,1.01,1.68,1.57,3.63,2.2,5.18,2.42-.86,4.54-2,6.77-2.33,5.16-.77,9.66,1.05,13.63,4.31,2.26,1.86,3.49,4.5,5.32,6.73Zm164.04-293.6c-.81-.35-1.53-.74-2.31-.97-.64-.19-1.34-.26-2.02-.26-2.6-.02-5.19-.05-7.79.04-3.67.13-7.34.37-11.03.09-2.16-.16-4.36.1-6.54.25-1.49.1-2.97.38-4.47.48-4.36.31-5.07,1.4-3.37,5.41.15.35.52.62.82.97,4.13,0,8.22.48,12.27-.57.78-.2,1.63-.17,2.45-.15,5.86.15,11.71.33,17.57.51,1.48.05,3.01.42,4.51-.76.31-1.46.72-3.02-.1-5.03Zm-215.64,405.63c-.77,1-1.42,1.7-1.91,2.5-1.19,1.99-2.28,4.04-3.47,6.03-.41.69-.88,1.43-1.51,1.9-2.89,2.15-5.96,3.83-9.78,3.54-1.03-.08-2.08.29-3.38.49.9,3.69,3.03,6.26,6.11,7.51,4.56,1.85,9.31,2.01,13.84-.73,0-1.53.16-3.04-.04-4.5-.33-2.38.05-4.57.88-6.82.86-2.36,1.84-4.55,3.75-6.25.37-.33.59-.84.98-1.41-1.83-.76-3.45-1.43-5.47-2.26Zm43.8,15.94c.39-4.44,3.51-7.85,4.95-12.11-2.29-1.3-4.32-2.83-6.77-3.81-3.02-1.21-5.99-2.71-7.93-5.58-.11-.17-.47-.18-.88-.33-.22.77-.52,1.51-.65,2.28-.96,5.54-.82,10.88,2.62,15.71,1.03,1.44,1.77,3.08,2.71,4.59.4.64.98,1.16,1.44,1.69,1.55-.84,2.84-1.54,4.51-2.44Zm210.9-67.15c-.94,1.39-1.71,2.17-1.32,3.45.68,2.23,1.08,4.47-.32,6.65-.19.29.09,1.05.37,1.45.49.71.65,1.4.66,2.27.05,5.16-.09,10.32.67,15.47.28,1.93.92,4.02-.06,6.04-.2.41-.01,1.08.13,1.58.69,2.43.63,4.83-.06,7.25-.15.52-.24,1.07.5,1.32.9-.23,1.31-1.06,1.37-1.78.23-2.91,1.9-5.08,3.44-7.34.46-.68,1.01-1.3,1.46-1.99.8-1.24.98-2.53.13-3.85-.89-1.38-1.82-2.74-2.64-4.16-1.47-2.55-2.02-5.1.24-7.56.16-.17.15-.51.25-.91-.35-.61-.68-1.37-1.18-2.01-.84-1.08-1.82-2.04-2.67-3.12-1.11-1.41-.55-2.95,1.21-3.47.39-.11.81-.16,1.21-.19,1.71-.09,2.62-1.38,3.6-2.47.77-.86.52-2.33-.43-2.9-2.09-1.26-4.23-2.42-6.55-3.74Zm-315.01,39.6c-1.94,2.65-3.41,4.58-4.79,6.57-.87,1.26-1.86,2.31-3.25,3-.56.28-1.23.67-.91,1.64,1.92,1.25,4.07,2.04,6.4,2.19,1.63.1,2.88.75,3.87,1.96,1.37,1.67,2.7,3.39,4.26,5.35.91.04,2.08.1,3.17.15,1.68-4.16,1.96-7.51,1.06-11.78-3.28-2.69-7.81-3.97-9.81-9.08Zm310.42-218.95c.26-.72.58-1.22.61-1.74.29-4.48.67-8.96.74-13.44.04-3.11-.55-6.23-.52-9.35.03-2.72-.92-5.04-1.9-7.84-.66,3.24-1.41,6.01-1.74,8.83-.28,2.32-.71,4.59-1.54,6.73-1.78,4.6-2.07,9.53-3.38,14.23-.21.76-.15,1.59-.21,2.36q3.78,1.07,7.95.21Zm-35.81-110.83c-1.98-.41-3.96-.85-5.95-1.23-.53-.1-1.09-.05-1.64-.04-5.77.17-11.44.96-16.99,2.59q-3.92,1.15-4.2,5.25c-.01.21.21.43.33.64,1.4-.44,2.78-.94,4.19-1.31,4.58-1.19,9.22-.96,13.86-.44,1.35.15,2.7.37,4.06.43,2.41.11,4.85-.16,7.14.99q.51-3.14-.81-6.89Zm-180.03,373.76c-1.55,1.21-2.85,2.37-4.29,3.33-4.89,3.25-10.09,4.63-15.78,2.22-1.65-.7-3.4-.67-4.97-1.15-.2.36-.34.5-.31.58.82,2.42,2.37,4.25,4.71,5.27,4.61,2.01,9.47,2.32,14.41,1.93.27-.02.53-.12.8-.17,2.9-.53,4.94-2.18,6.16-4.84,1.11-2.43.44-4.69-.73-7.18Zm-17.09-68.72c-.67-2.05-1.16-3.61-1.67-5.15-.82-2.47-.64-4.82.69-7.11,1.14-1.97,2.19-4,3.34-6.11-1.49-1.21-2.81-2.29-4.2-3.42-.33.61-.55.96-.72,1.33-2.02,4.61-3.53,9.47-7.53,12.99-1.4,1.23-1.35,3.21-1.27,5.02.09,1.78.85,3.13,2.77,4.13,2.53-.5,5.33-1.05,8.59-1.69Zm-13.84,4.46c-1.34-1.81-2.63-2.59-4.47-2.52-.92.04-1.9-.21-2.77-.53-2.23-.83-4.26-.3-6.35.54-2.98,1.19-4.79,3.53-6.39,6.11-.3.48-.22,1.2-.31,1.81q6.1.9,9.56,4.34c3.5-3.18,7.01-6.36,10.73-9.73Zm160.45,48.56c-.23-2.69-.7-4.87-.53-7,.25-3.05-1.35-5.47-2.16-8.16-.07-.23-.35-.41-.55-.58-1.13-.95-5.26-2.45-7.7-2.74.72.86,1.4,1.53,1.92,2.3,1.75,2.62,3.52,5.29,3.01,8.66-.59,3.92-1.23,7.84-3.45,11.29-.26.4-.22.98-.33,1.5,1.34.65,2.49,1.2,3.97,1.91.7-3.63,2.78-5.86,5.84-7.19Zm-30.08-72.96c-.14,1.12-.2,1.8-.32,2.47-.61,3.46-.25,6.99-1.16,10.48-1.14,4.37-3.33,7.68-7.21,9.95-2.22,1.3-4.38,2.71-6.7,4.16.05,1.51-.94,3.07.47,4.56,1.23-1.48,2.21-2.91,3.44-4.09,1.27-1.22,2.64-2.45,4.2-3.2,1.54-.74,3.36-.9,5.23-1.35.18-1.55.4-3.02.52-4.49.42-4.89,2.34-8.92,6.58-11.66,1.36-.88,2.6-1.92,3.76-3.15-1.14-1.37-2.16-2.6-3.05-3.67h-5.76Zm81.44-355.56c.46-1.21.23-2.16-1.01-2.68-.62-.26-1.27-.52-1.93-.64-5.43-.97-10.9-.79-16.32-.15-3.03.36-5.98.27-8.97-.05-.81-.09-1.62-.28-2.43-.27-.89.01-1.58.48-1.72,1.43-.11.74-.1,1.5-.14,2.36h32.53Zm-236.56,263.8c-2.14-.86-4.09-.49-5.93-.09-.68,3.55-1.32,6.87-1.95,10.2-.1.54-.18,1.08-.21,1.63-.14,2.36-.46,4.62-2.42,6.31-.34.29-.27,1.06.72,1.1,1.87-2.93,5.13-4.21,7.78-6.03.68-4.44,1.34-8.74,2.01-13.13Zm28.38,62.12c-1.48,2.29-4.16,2.34-6.22,3.29-.55,1.12-1.04,2.07-.31,3.39.77,0,1.57-.09,2.35.02,2.18.31,4.57.8,5.65,2.72.86,1.51,1.39,1.12,2.41.56.33-.85.67-1.74,1.02-2.61.39-.98.8-1.95,1.33-3.22-2.99-.18-4.09-2.75-6.25-4.14Zm99.85,80.33c1.93.26,3.54.45,5.15.71,1.68.27,3.36.6,5.43.98-1.24-3.57-1.25-6.94-1.49-10.29,0-.1-.13-.21-.23-.28-.11-.07-.25-.09-.55-.19-3.07,2.44-6.07,5.06-8.29,9.07Zm90.25,11.75c.45-.74.82-1.08.84-1.43.11-2.08-.15-4.04-1.84-5.58-1-.91-1.82-2.02-2.81-2.95-.76-.72-1.65-1.3-2.48-1.94-1.22,1.62-2.27,3.01-3.48,4.62,3.74,1.7,6.88,4,9.77,7.27Zm-49.07-75.18c-1.84,1.43-2.11,3.32-2.84,5.02-.79,1.83-1.79,3.58-2.78,5.53,1.64,1.27,2.88,2.91,5.16,3.01.24-.47.58-.81.57-1.15,0-4.14-.07-8.27-.11-12.41Zm-12.19,97.55c-2.77-2.32-5.24-4.8-8.14-6.68-1.52,1.01-1.83,2.03-1.14,3.56,1.44,3.17,4.4,4.47,7.06,6.43.83-1.24,1.49-2.23,2.22-3.32Zm-136.08-120.62c.11,1.42.17,2.77.33,4.11.16,1.36,1.32,1.88,2.34,1.01.7-.6,1.42-1.34,1.73-2.17.87-2.39,1.54-4.86,2.35-7.53-1.13-.37-2.1-.68-3.11-1.01-1.31,2.01-2.48,3.82-3.64,5.61Zm-45.19,50.83c-1.1-2.15-2.3-3.96-2.97-5.95-.68-2-.84-4.17-1.28-6.5h-3.12c1.81,4.27,1.98,8.4,1.75,12.74,2-.1,3.69-.19,5.63-.29Zm147.38-74.41c0-2.65-1-4.92-1.48-7.27-.13-.61-.3-1.35-1.41-1.28-1.69,2.28-3.5,4.59-4.76,7.47,2.61.56,4.97,1.08,7.65,1.08Zm-193.12,74.03c.27-1.96.75-3.69.68-5.39-.07-1.85,1.42-3.5.75-5.49-3.67,1.8-5.06,3.35-5.72,6.12-.2.85-.22,1.67.4,2.3,1.04,1.04,2.22,1.93,3.88,2.46Zm187.48,38.25c.73.6,1.38,1.29,2.17,1.74,1.06.6,2.4.14,2.61-1.03.4-2.27,1.67-3.97,3.08-5.65.21-.25.13-.74.21-1.26-.9-.04-1.71-.09-2.52-.12-1.82-.07-3.11.58-3.75,2.44-.44,1.28-1.13,2.46-1.8,3.88Zm-94.58-38.45c-2.27-.23-4.28-.31-6.25-.65-1.95-.34-3.86-.93-6.19-1.51.14,1.76-1.69,2.59-1.21,4.16.3.19.42.33.52.32.93-.15,1.9-.2,2.77-.53,2.17-.84,4.24-.61,6.32.23.38.15.78.54,1.1.48.78-.15,1.59-.4,2.25-.82.34-.22.39-.89.7-1.68Zm146.3-89.68c-2.89,1.19-4.82,2.6-6.44,4.42-.29.33-.43,1.08-.26,1.46.14.32.91.62,1.29.52,1.23-.33,2.37-.28,3.57.15.58.21,1.27.1,1.89.14.19-.59.44-.98.41-1.35-.1-1.61-.28-3.21-.48-5.33Zm-59.61,5.26c.34,3.84,1.43,7.06.09,10.29-.04.09.21.29.34.46,2.37-3.17,4.55-7.5,5.02-10.04-.81-.08-1.61-.15-2.41-.26-.9-.12-1.79-.27-3.04-.46Zm-237.27,136.97c-1.02-3.7-2.46-6.39-4.98-8.42-.57-.46-1.11-1.12-2.1-.59.5,2.29,1,4.52,1.51,6.85,1.74.68,3.37,1.31,5.58,2.17Zm126.51-140.3c-2.54,1.14-4.35,2.5-5.31,4.73-.31.73-.54,1.6.54,1.99,2.28-.8,4.52-1.59,6.95-2.44-.73-1.44-1.39-2.74-2.17-4.28Zm36.3-11.62c-.76,3.21-1.4,5.94-2.09,8.89.31.12.78.37,1.29.46.65.12,1.32.11,2.14.17.77-3.2,1.26-6.23.23-9.42-.59-.04-1.1-.07-1.56-.09Zm-38.89,116.72c4.52-1.58,4.75-1.91,3.48-5.04-1.71-.17-3.42-.33-5.67-.55,1.27,1.99-.04,4.37,2.19,5.59Zm352.77,42.23c.95,1.7,2.3,2.49,3.95,2.9.91.23,1.79.6,2.7.84.64.16,1.2,1.11,2.07.22-2.26-2.57-4.95-4.52-7.92-6.66-.33,1.13-.59,1.99-.8,2.7Zm-423.66-51.74c3.26.33,5.16-.17,7.72-1.99-.32-.26-.58-.66-.91-.71-.8-.13-1.67.04-2.43-.18-2.37-.69-3.61.36-4.39,2.87Zm59.4,40.38c-1.34-2.65-2.69-5.3-4.08-8.05-.85.21-1.57.38-2.44.6,1.07,3.67,4.41,5.09,6.52,7.45Zm183.53-36.31c1.5,1.59,2.67,2.84,4.02,4.27.72-.91,1.34-1.69,1.96-2.47-1.68-1.88-3.55-2.24-5.98-1.79Zm-128.19-111.14c.31,1.45.45,2.16.71,3.39.86-.87,1.35-1.37,2.08-2.11-.93-.42-1.51-.69-2.8-1.28Zm34.36,33.91c-.35.46-.67.73-.75,1.05-.07.28.14.63.22.95.27-.22.7-.39.77-.67.09-.32-.12-.73-.25-1.33Zm94.8,35.27c-.06-.23-.11-.47-.17-.7-.11.13-.3.26-.31.4-.02.23.08.46.13.69.12-.13.23-.26.35-.39Zm164.83,40.57c.33-.18.72-.29.73-.42.03-.35-.12-.7-.19-1.06-.21.1-.56.18-.59.31-.06.36.02.74.05,1.17Zm-210.95,61.07c-.09-.19-.18-.37-.27-.56-.1.07-.3.17-.29.19.07.21.19.41.29.61.09-.08.18-.16.27-.24Zm-159.56-19.13c-.07-.09-.12-.24-.21-.26-.09-.02-.21.08-.31.13l.36.44.16-.31Z"/>
    <path class="cls-1" d="m549.34,550.89c-1.06-.64-1.37-1.7-1.43-2.81-.08-1.36-.09-2.74,0-4.1.3-4.79-.64-9.5-.8-14.27-.13-3.78-.65-7.57.24-11.3.77-.29,1.01.15,1.09.73.08.54.12,1.08.13,1.63.07,4.64.14,9.22,1.38,13.81.88,3.24.61,6.78.98,10.17.44,4.09,1.48,8.03,2.84,11.94,1.39,3.98,2.28,8.14,3.16,12.27.95,4.48,2.43,8.67,5.56,12.11.64.7,1.35,1.38,2.14,1.88,1.95,1.22,3.05.97,4.71-.67,3.02-2.98,4.87-6.47,5.38-10.75.53-4.47,1.46-8.9,2.1-13.36.33-2.29.52-4.62.58-6.94.17-5.88.2-11.76.34-17.64.14-6.02.32-12.03.54-18.04.06-1.77.31-3.54.49-5.31.26-2.59.26-5.15-.01-7.76-.29-2.83-.13-5.74.2-8.58.66-5.75.1-11.49.05-17.22-.03-3.12-.74-6.24-1.24-9.34-.38-2.37-.04-4.64.75-6.84.19-.53.83-.9,1.55-1.63.32.85.62,1.3.66,1.77.43,4.9.82,9.81,1.22,14.71.03.41.06.82.05,1.23-.13,5.19-.31,10.38-.37,15.58-.03,2.87-.18,5.8.28,8.61.82,5.04.49,10.1.74,15.15.15,2.96,1.11,5.94.15,8.92,1.41,2.49.27,5.07.24,7.6-.1,6.81-.5,13.61-.49,20.42,0,4.29-1.01,8.39-1.54,12.58-.28,2.17-.7,4.31-.99,6.48-.76,5.61-3.1,10.32-7.29,14.26-4.4,4.15-10.85,2.42-13.42-1.13-1.2-1.66-2.45-3.29-3.63-4.97-.47-.67-.94-1.38-1.2-2.14-1.24-3.62-2.56-7.23-2.5-11.15,0-.63-.24-1.28-.43-1.91-1.15-3.65-2.32-7.29-3.55-11.13.43-.44,1-.84,1.28-1.39.2-.4.02-1,.01-1.5.22-.04.43-.09.58-.12-.13.05-.31.11-.5.18Z"/>
    <path class="cls-1" d="m514.41,531.04c-.41-.26-.96-.44-1.25-.83-.31-.41-.49-1-.51-1.51-.13-4.32-1-8.58-.82-12.93.08-1.97.87-4-.23-5.95-.11-.2,0-.54.02-.81.29-3.25.44-6.51.92-9.73.49-3.28.44-6.52.14-9.79-.15-1.61.02-3.25.04-4.88,0-.53.02-1.07,0-1.6-.16-4.08-.4-8.17-.45-12.25-.02-2.15.68-4.25.51-6.47-.18-2.42.18-4.85-.57-7.26-.52-1.67.06-3.45-.16-5.23-.32-2.66.06-5.41.15-8.13,0-.27.2-.56.14-.8-1.63-7.7-.32-15.49-.7-23.22-.13-2.7.24-5.46-.16-8.11-.33-2.24,0-4.52-.72-6.76-.56-1.74-.42-3.71-.58-5.57-.26-3.05-.57-6.09-1.54-9.03-.36-1.1-.49-2.26-.39-3.49.21-2.58.12-5.19.18-7.79.03-1.09-.16-2.33.28-3.24,1.15-2.4.43-4.68.22-7.1-.42-4.72-.5-9.49-.39-14.23.07-2.97.75-5.94,1.19-8.9.06-.39.24-.79.46-1.14.41-.66,1.11-.88,1.77-.58.42.19.91.76.93,1.17.04,1.08-.08,2.18-.3,3.24-.93,4.44-.79,8.9-.66,13.41.09,3.06.9,6.14-.05,9.27-.39,1.3.18,2.88.27,4.33.07,1.22.34,2.52.04,3.66-.79,2.96-.59,5.99-.67,8.96-.06,2.24.65,4.5,1.04,6.75.66,3.74,1.52,7.46,1.06,11.32-.09.78.23,1.61.32,2.42.48,4.32.9,8.65.91,13.01.01,3.26,0,6.54.25,9.79.28,3.67.23,7.33.12,11-.02.81.18,1.62.27,2.43.09.81.35,1.65.24,2.44-.54,3.94.28,7.85.27,11.77,0,3.93.39,7.86.37,11.79-.03,5.58-.01,11.15-.08,16.73-.08,6.5-.41,13-.78,19.5-.36,6.36-.48,12.82.73,19.18.47,2.47.27,2.8-1.84,5.18Z"/>
    <path class="cls-1" d="m512.82,342.92c-1.65.23-2.61-.34-2.19-1.43.72-1.86.36-3.98,1.68-5.71.61-.8.67-2.04.92-3.09.66-2.72,1.29-5.45,1.92-8.09,1.11-.36,1.49.36,1.38.97-.99,5.82-1.92,11.66-3.72,17.37Z"/>
    <path class="cls-1" d="m516.49,322.95q.47-2.95,1.95-4.06c.18,2.2,0,2.64-1.95,4.06Z"/>
    <path class="cls-1" d="m547.22,512.3v-4.27c.53,1.87.94,2.89,0,4.27Z"/>
    <path class="cls-1" d="m548.35,515.72c-.33.17-.55.29-.77.4-.11-.44-.23-.87-.34-1.31.22-.03.57-.15.64-.06.21.28.32.64.47.97Z"/>
    <path class="cls-1" d="m519.17,315.87c.23-.64.47-1.28.77-2.11.87,1.25-.25,1.57-.77,2.11Z"/>
    <path class="cls-1" d="m232.05,555.66c.85.74.58,1.53.18,1.94-1.09,1.14-1.41,2.52-1.66,3.98-.11.66-.33,1.33-.61,1.94-1.28,2.8-2.6,5.58-4.06,8.69-.62-1.41-.42-2.43-.03-3.38,1.83-4.47,3.04-9.25,6.18-13.17Z"/>
    <path class="cls-1" d="m596.8,387.36c.5,1.19.92,2.03,1.22,2.93,1.07,3.24,2.09,6.49,3.12,9.73.16.52.33,1.04.42,1.58.64,3.99,2.22,7.57,4.59,10.82.8,1.1,1.4,2.35,2.21,3.45,1.68,2.3,2.74,5.03,5.04,6.91.58.47.82,1.37,1.31,2.23-.51.65-.91,1.35-1.49,1.86-.67.59-1.61.65-2.29.12-1.49-1.16-3.09-2.16-4.06-3.94-1.82-3.35-3.84-6.6-5.77-9.88-1.47-2.5-2.23-5.25-2.92-8.04-.62-2.52-1.39-5-1.88-7.54-.52-2.67-.83-5.39-1.15-8.09-.1-.84.35-1.54,1.66-2.14Z"/>
    <path class="cls-1" d="m626.71,440.39c-3.19-.26-5.44-1.87-6.98-4.51-.16-.27-.09-.86.12-1.1.21-.24.8-.43,1.08-.3,2.35,1.06,4.66,2.18,6.97,3.33.64.32,1.22.94.82,1.61-.29.48-1.09.66-1.67.96-.11.06-.27,0-.33,0Z"/>
    <path class="cls-1" d="m681.29,568.78c.11-1.11.75-1.85,1.84-1.74,2.71.26,5.33.86,7.4,2.83.07.06,0,.26,0,.4-2.81.38-6.91-.27-9.25-1.48Z"/>
    <path class="cls-1" d="m649.99,612.27c2.85.16,5.7.26,8.54.5,1.9.16,3.81.37,5.66.8,1.85.43,3.75.92,5.42,1.79,3.36,1.77,3.42,4.89.25,7.08-1.72,1.18-3.71,1.73-5.77,1.91-2.99.26-6.01.29-8.98.69-2.4.33-4.6-.38-6.88-.73-3.1-.48-6.21-.93-9.32-1.36-1.4-.19-2.59-.74-3.7-1.62-1.6-1.27-1.96-2.62-.77-4.18,1.36-1.78,3.12-3.11,5.38-3.5,2.42-.41,4.86-.66,7.3-.96.95-.11,1.9-.16,2.85-.24,0-.07.01-.13.02-.2Zm3.93,10.61c3.8-.44,7.19-.74,10.55-1.25,1.32-.2,2.61-.77,3.83-1.34,1.47-.69,1.51-2.51,0-3.18-1.47-.65-3.08-1.12-4.67-1.33-3.1-.41-6.25-.47-9.36-.87-4.52-.58-8.94.49-13.42.56-.65,0-1.37.29-1.91.65-.77.52-1.51,1.15-2.07,1.89-.74.97-.26,2.28.87,2.62.65.19,1.33.29,2,.39,2.55.39,5.11.79,7.67,1.13,2.29.3,4.58.53,6.5.75Z"/>
    <path class="cls-1" d="m640.37,627.74c.37.79.07,1.31-.77,1.42-2.25.28-4.33-.44-6.38-1.21-2.16-.81-4.24-1.84-6.42-2.56-2.78-.92-5.68-.83-8.5-.21-.82.18-1.49.99-2.4,1.64,2.54,1.61,5.41,1.82,8.04,3.77-.95.33-1.44.69-1.85.61-2.27-.46-4.56-.9-6.75-1.61-1.58-.52-3.12-.93-4.8-.92-.63,0-1.3-.33-1.89-.62-.57-.28-.54-1.51.05-1.72,1.02-.37,2.06-.69,3.12-.94,2.38-.55,4.79-1.01,7.17-1.56,2.98-.68,5.8-.64,8.8.45,4.07,1.48,8.36,2.33,12.58,3.46Z"/>
    <path class="cls-1" d="m654.52,605.66h-5.06c-.97,1.2-1.87,2.32-2.69,3.34-1.2-.3-1.25-1.06-1.17-1.69.13-.94.41-1.86.7-2.77.72-2.27,1.13-2.48,3.57-1.95,1.73.37,3.44.86,5.26.43,1.24-.29,2.17.41,2.65,1.47.62,1.36,1.09,2.8,1.52,4.23.08.27-.24.81-.53,1-.29.19-.85.25-1.14.09-.58-.31-1.17-.73-1.55-1.26-.55-.76-.91-1.66-1.56-2.88Z"/>
    <path class="cls-1" d="m648.59,594.53c1.33.84,2.67,1.69,4.08,2.58,1.89-1.13,1.57-3.38,2.46-4.83,1.31-.67,2.07-.03,2.27.98.49,2.44-.63,4.52-2.05,6.35-.39.5-1.62.86-2.19.62-2.38-.98-4.48-2.38-5.21-5.02.21-.23.42-.46.63-.69Z"/>
    <path class="cls-1" d="m683.42,624.34c-4.19,2.33-9.21,3.89-14.63,4.46.48-.56.71-1.07,1.09-1.23,3.49-1.48,7-2.92,10.52-4.31.62-.24,1.34-.33,2-.32.9.02,1.03.7.93,1.45l.08-.06Z"/>
    <path class="cls-1" d="m684.73,630.98c-3.57,1.64-11.86,2.53-14.51,2.14-.16-.02-.26-.38-.53-.8.56-.16,1.04-.4,1.52-.41,3.94-.09,7.68-1.89,11.69-1.31.61.09,1.22.25,1.83.38Z"/>
    <path class="cls-1" d="m686.22,630.95c2.03-1.23,3.74-1.6,5.49-1.75,1.4-.12,2.69-.29,3.76-1.34.66-.64,1.51-.48,2.31-.16.49.2.75,1.1.32,1.34-.93.52-1.88,1.17-2.9,1.36-2.55.48-5.13.75-7.71,1.08-.23.03-.48-.19-1.27-.53Z"/>
    <path class="cls-1" d="m683.34,624.39c3.34-.24,5.08.18,9.18,2.2-.19.12-.44.38-.55.33-2.72-1.3-5.93-.99-8.55-2.6,0,0-.08.06-.08.06Z"/>
    <path class="cls-1" d="m656.14,539.05c-.64.06-1.28.13-1.98.2q.82-.43,2-.21s-.02.01-.02.01Z"/>
  </g>
</svg>