<?xml version="1.0" encoding="UTF-8"?>
<svg id="Laag_1" data-name="Laag 1" xmlns="http://www.w3.org/2000/svg" viewBox="0 0 850.39 850.39">
  <defs>
    <style>
      .cls-1 {
        fill: #131f48;
      }

      .cls-1, .cls-2 {
        stroke-width: 0px;
      }

      .cls-2 {
        fill: #a5d6af;
      }
    </style>
  </defs>
  <path class="cls-2" d="m395.34,683.27s-160.25,10.07-108.23-129.2c52.02-139.27,87.43-240.47-1.5-290.81-88.93-50.34,37.7-78.05,134.34-36.11,86.61,37.59,108.98-93.35,185.73.27,153.94,187.78-56.26,269.27-36.48,337.44,29.14,100.44-61.44,118.41-173.86,118.41Z"/>
  <g>
    <path class="cls-1" d="m543.22,477.86c.77-1.91,1.03-2.96,1.58-3.84.73-1.15,1.64-2.19,2.54-3.22,2.5-2.89,5.05-5.73,7.53-8.64,1.58-1.85,2.43-4.13,4.18-6.96-1.77.8-2.7,1.22-3.63,1.65-.99.46-1.99.92-2.97,1.4-2.5,1.21-5.03,2.05-7.92,1.58-1.3-.21-2.68.15-4.06.25-.6,2.98-.2,5.71.12,8.39.49,4.25.28,8.47-.25,12.68-.32,2.5-1.67,4.67-3.09,6.63-2.33,3.21-5.49,5.68-8.41,8.35-1.98,1.81-4.38,2.06-7.1,1.9-.16.84-.42,1.6-.42,2.36-.03,4.24.08,8.47-.03,12.71-.07,2.59-.62,5.17-.67,7.76-.11,5.47.06,10.94-.06,16.41-.15,6.97-.39,13.95-.77,20.91-.26,4.91-.77,9.81-1.26,14.7-.15,1.49-.62,2.94-.91,4.42-.42,2.14-.73,4.3-1.23,6.41-.57,2.39-1.39,4.72-1.92,7.11-1.25,5.63-3.94,10.78-5.43,16.33-.18.65-.45,1.3-.8,1.88-2.05,3.39-4.14,6.76-6.2,10.14-.64,1.05-1.31,2.09-1.79,3.2-1.37,3.17-3.37,5.93-5.45,8.63-2.5,3.25-5.53,6.04-8.28,9.07-2.43,2.68-5.59,4.78-8.98,6.37-3.83,1.8-7.57,3.79-11.44,5.5-2.11.93-4.38,1.6-6.63,2.14-5.45,1.32-10.91,2.62-16.41,3.69-6.71,1.31-13.45,2.45-20.2,3.52-5.94.94-11.91,1.72-17.87,2.51-1.49.2-3.01.14-4.51.23-8.33.47-16.66,1-25,1.4-2.85.14-5.72-.02-8.59-.09-6.14-.14-12.29-.19-18.43-.5-7.65-.39-15.34-.58-22.77-2.87-1.29-.4-2.73-.25-4.05-.56-5.46-1.3-10.89-2.66-16.33-4.03-.79-.2-1.58-.49-2.29-.88-4.68-2.56-9.34-5.16-14-7.76-1.55-.86-3.07-1.77-4.65-2.59-1.71-.88-3.45-1.7-4.72-3.21-.26-.31-.53-.68-.88-.85-3.72-1.83-5.88-5.22-8.41-8.26-4.5-5.4-7.81-11.54-10.97-17.74-2.66-5.22-5.14-10.56-6.98-16.15-1.41-4.28-3.16-8.45-4.43-12.76-1.61-5.51-2.97-11.1-4.28-16.69-.78-3.32-1.46-6.65-2.47-9.93-1.53-4.99-2.07-10.18-2.19-15.4-.06-2.6-.24-5.2-.22-7.79.05-7.79.17-15.58.28-23.37.01-.82.11-1.64.24-2.45.72-4.32,1.54-8.61,2.19-12.94.91-6.08,1.67-12.18,2.53-18.27,1.07-7.58,2.11-15.16,3.3-22.72.61-3.91,1.55-7.77,2.28-11.66,1.11-5.91,2.12-11.83,3.28-17.73.74-3.74,1.67-7.45,2.5-11.17.12-.53.16-1.07.24-1.61.17-1.08.25-2.19.55-3.23,2.55-8.81,3.81-17.91,6.23-26.75,2.21-8.04,4.49-16.06,6.71-24.09.33-1.18.38-2.43.7-3.61,2.07-7.63,4.22-15.25,6.27-22.88,2.09-7.78,4.07-15.59,6.18-23.37.53-1.95,1.38-3.82,2.09-5.72.14-.37.4-.71.5-1.09,2.47-9.54,4.83-19.11,5.23-29.02.17-4.23.41-8.51-.51-12.68-1.46-6.67-2.93-13.34-6.23-19.43-4.44-8.2-9.73-15.82-15.46-23.15-1.01-1.29-2.3-2.35-3.38-3.59-3.15-3.59-6.3-7.19-9.37-10.85-.96-1.15-1.82-2.43-2.49-3.77-1.91-3.86-1.48-7.71.45-11.42.41-.8,1.23-1.79,2-1.93,3.1-.55,5.84-2.13,8.96-2.73,5.7-1.09,11.43-1.48,17.12-1.07,5.36.39,10.68.16,16.01.13,9.7-.06,19.41-.41,29.11-.33,5.85.05,11.7.64,17.55,1.04,9.01.62,17.86,2.49,26.76,3.86,8.11,1.25,16.1,3.14,23.87,5.91,2.68.96,5.6,1.25,8.39,1.94,3.31.83,6.62,1.68,9.89,2.68,6.66,2.04,13.31,4.13,19.93,6.31,7.14,2.36,14.47,4.03,21.71,6.05,3.92,1.09,8.03,1.63,11.71,3.56,5.38.85,9.98,3.64,14.82,5.86.61.28,1.32.33,2.11.52,5.89-4.04,12.72-6.1,19.42-8.43,2.05-.71,4.22-1.16,6.37-1.49,5.68-.88,11.39-1.55,17.07-2.44,5-.78,9.82-.07,14.53,1.53,3.36,1.14,6.7,2.36,9.99,3.7,1.89.77,3.75,1.7,5.47,2.81,4.37,2.81,8.79,5.58,12.94,8.69,6.57,4.92,12.79,10.34,18.06,16.61,4.02,4.78,8.18,9.59,10.85,15.38.06.12.1.26.18.37,3.4,5.05,5.52,10.66,7.16,16.48,2.26,8.04,4.46,16.09,5.3,24.43.38,3.8.41,7.64.6,11.46.03.68.04,1.36.09,2.04.21,2.57.85,5.13,0,7.72-.15.47.08,1.07.16,1.61.09.68.37,1.38.27,2.02-.93,5.94-.57,12.01-1.88,17.93-.5,2.24-.32,4.63-.44,6.95-.14,2.74-.59,5.33-1.88,7.88-1.08,2.15-1.37,4.7-2.01,7.07-1.24,4.62-2.37,9.27-3.75,13.85-1.54,5.1-3.21,10.17-5,15.19-1.24,3.48-2.7,6.89-4.22,10.25-2.6,5.72-5.3,11.4-8.03,17.06-2.49,5.17-5.14,10.22-8.66,14.85-3.88,5.1-7.19,10.62-10.25,16.27-2.14,3.95-4.34,7.92-7,11.52-2.64,3.58-5.57,7-9.05,9.86-1.16.96-2.21,2.05-3.39,2.98-.49.38-1.19.49-2.76,1.09Zm-182.03-159.65l-.04-.03c.99.89,2.14,1.07,3.43.93,2.04-.22,4.09-.42,6.14-.47,6.56-.14,13.13-.19,19.69-.3,3.56-.06,7.11-.19,10.67-.31,2.73-.09,5.46-.19,8.19-.29,3.27-.13,6.54-.19,9.8-.42,4.91-.34,9.82-.64,14.64-1.78,1.94-.46,3.81-1.77,5.94-.64.17.09.59,0,.72-.15,1.72-1.96,4.29-1.51,6.43-2.24,1.54-.53,3.1-.64,3.96-2.41.39-.81,1.44-.57,2.1.13.35.37.66.78,1,1.18,4.26-1.61,8.34-3.13,12.4-4.69.63-.24,1.21-.64,1.76-1.03,1.27-.89,1.27-1.98.4-3.23-2.3-.65-4.3.42-6.17,1.46-2.08,1.16-4.29,1.87-6.57,2.24-3.25.54-6.42,1.25-9.52,2.36-1.66.59-3.43,1.01-5.18,1.21-5.42.61-10.86,1.12-16.3,1.58-3.27.28-6.55.45-9.83.57-1.85.07-3.49.41-4.68,1.99-.21.28-.72.33-1.05.47q-2.96-1.59-6.21-1.25c-.54.06-1.09.12-1.63.2-5.03.8-10.07.76-15.13.39-1.63-.12-3.28-.07-4.92-.11-1.37-.03-2.76.07-4.1-.14-3.51-.54-7.06-.68-10.53-1.54-1.7-.42-3.52-.41-5.29-.48-4.1-.17-8.22-.11-12.3-.45-6.27-.53-12.53-1.24-18.77-2.02-3.4-.42-3.38-.56-6.43.22-.29-.23-.72-.43-.89-.76-.74-1.51-2-2.04-3.57-2.37-1.86-.39-3.7-1-5.47-1.73-3.92-1.62-7.97-1.63-12.07-1.23-1.54.15-1.67.44-1.67,2.69,4.35,1.37,8.75,2.78,13.16,4.13.48.15,1.06-.07,1.59-.07.53,0,1.31-.14,1.53.15,1.33,1.68,3.49,1.45,5.09,2.36,2.23,1.26,4.45,1.96,7.02,1.42.98,1.65,2.46,2.35,4.11,2.64,2.55.45,5.11,1,7.69,1.16,3.95.25,7.92.12,11.86.36,1.61.1,2.9.03,4.02-1.31.57-.68,1.41-.39,2.03.47.23.33.27.8.53,1.09.75.84,1.58,1.01,2.39.04Zm36.41,313.38c0-.25-.01-.5-.02-.76,1.31-.24,2.62-.59,3.94-.7,4.47-.38,8.95-.65,13.43-1,1.9-.15,3.82-.24,5.68-.62,6.44-1.3,12.9-2.53,19.27-4.14,5.96-1.51,11.9-3.11,17.55-5.72,2.03-.94,3.62-2.42,5.57-3.39,5.52-2.75,10.49-6.35,15.27-10.19,2.23-1.79,4.27-3.75,5.22-6.66.45-1.37,1.55-2.56,2.45-3.76,1.22-1.64,2.58-3.18,3.8-4.81,1.14-1.53,2.05-3.25,3.31-4.67,4.11-4.63,6.22-10.31,8.3-15.94,1.79-4.86,3.01-9.93,4.49-14.91.43-1.44,1.22-2.86,1.26-4.31.09-3.07,1.15-5.89,1.73-8.83.93-4.7,1.64-9.45,2.82-14.08,1.02-4.01,1.47-8.06,1.88-12.15.52-5.16.86-10.38,2.43-15.36.76-2.4.93-4.49-.79-6.52-.33-.39-.38-1.01-.56-1.53-.89-2.57-1.8-5.14-2.66-7.72-.51-1.54-.96-3.11-1.41-4.68-.45-1.58-.85-3.17-1.29-4.75-.4-1.45-.93-2.88-1.18-4.36-.77-4.42-1.53-8.85-2.09-13.3-.31-2.43-.25-4.91-.27-7.36,0-.63.21-1.37,1.44-1.28.27.59.73,1.28.92,2.04.67,2.65,1.39,5.3,1.84,8,1.69,10.15,4.79,19.91,8.04,29.64.77,2.31,1.6,4.66,3.71,6.09,1.89.14,3.32-.49,4.59-1.68,1.39-1.3,2.86-2.52,4.25-3.82.88-.81,1.69-1.7,2.65-2.67-.52-.57-.84-1-1.23-1.33-2.94-2.42-4.79-5.55-6.19-9.05-2.44-6.09-5.22-12.05-6.89-18.42-.17-.65-.51-1.26-.76-1.9-.27-.68.19-1.68-1.15-2.13-.01,2.11-.1,4.08.25,6.09,1.28,7.41,2.92,14.71,5.99,21.63.44,1,.94,2,1.19,3.05.18.73-.02,1.56-.07,2.68-.87-.34-1.65-.39-1.99-.81-1.56-1.94-2.52-4.22-3.25-6.59-1.53-4.97-2.79-9.99-3.92-15.07-1.77-8.01-1.51-16.05-1.25-24.12.06-1.7.28-3.46,1.41-4.93,1.41.78,1.68,1.95,1.92,3.18.44,2.28,1.08,4.53,1.37,6.83.31,2.46,1.31,4.67,1.97,6.99,1.69,5.93,3.89,11.65,6.25,17.33,1.05,2.52,2.19,5.01,3.43,7.45,1.05,2.08,2.45,3.88,4.9,4.63,1.24-1.84,1.2-3.8,1.12-5.67-.16-3.96.16-7.94-.63-11.88-.19-.93-.15-1.91-.12-2.87.08-2.6,1.17-4.18,3.66-4.78,1.98-.48,4.05-.79,6.08-.81,1.99-.02,3.77-.53,5.53-1.3,1-.43,1.98-.94,2.98-1.37,4.59-1.99,8.38-5.13,11.97-8.51,1.07-1.01,2.01-2.32,2.6-3.67,2.04-4.67,5.02-8.77,7.69-13.05,2.97-4.77,5.67-9.67,8-14.78,1.19-2.61,2.52-5.16,3.76-7.75,2.01-4.18,4.07-8.32,5.21-12.88,1.22-4.89,2.4-9.81,4.46-14.46.49-1.12.74-2.35,1.07-3.53.87-3.15,1.57-6.36,2.65-9.43.72-2.08,1.64-4.03,1.58-6.31-.02-.79.37-1.59.54-2.39.31-1.46.81-2.92.86-4.4.31-8.75,2.09-17.38,2.05-26.16-.02-3.68.38-7.34.19-11.06-.18-3.66-.39-7.32-.66-10.98-.35-4.77-.92-9.52-2.17-14.15-1.03-3.81-1.48-7.75-3.18-11.42-1.2-2.57-1.58-5.51-2.66-8.15-2.23-5.46-5.14-10.54-8.71-15.27-3.46-4.58-7.06-9.04-11.17-13.06-4.01-3.92-8.38-7.44-12.78-10.91-1.39-1.1-2.93-2.03-4.32-3.12-4.02-3.16-8.65-5.29-13.21-7.42-4.68-2.18-9.6-3.91-14.74-4.77-1.58-.26-3.26-.13-4.88,0-2.18.16-4.37.42-6.53.76-4.86.75-9.71,1.57-14.55,2.38-.54.09-1.07.26-1.59.42-1.57.47-3.16.92-4.71,1.44-4.01,1.35-8.1,2.59-11.83,4.59-3.6,1.94-6.63,4.49-6.24,9.24.14,1.69-.37,3.21-1.09,4.74-.92,1.98-1.54,4.08-1.79,6.28-.38,3.39-.84,6.78-1.33,10.16-.08.55-.5,1.04-1.13,2.28-.48-2.8-1.03-4.8-1.13-6.82-.2-4.23-.36-8.5,1.62-12.48.36-.72.75-1.63.61-2.34-.32-1.53-.07-2.94.12-4.44.22-1.77-.45-3.38-2.01-4.38-1.36.66-1.64,1.73-1.92,2.78-.81,3.04-1.56,6.1-2.41,9.13-.2.7-.69,1.32-1.26,2.37-.99-2.59-.75-4.79-.55-6.93.2-2.13.66-4.24,1.07-6.69-1.78-.04-3.26-.07-4.75-.1-2.18-.05-4.4.1-6.54-.21-7.86-1.12-15.64-2.66-23.34-4.6-5.02-1.27-10.08-2.44-15.19-3.21-7.62-1.14-15.01-3.23-22.34-5.36-6.6-1.91-13.28-3.24-19.99-4.51-6.32-1.19-12.65-2.24-18.88-3.97-4.18-1.16-8.61-1.46-12.95-2.02-2.98-.38-6-.47-8.99-.85-3.25-.41-6.5-.92-9.71-1.54-6.41-1.24-13.09-1.11-19.2-3.86-.23-.1-.54-.04-.81-.06-4.67-.42-9.12-1.8-13.51-3.31-4.68-1.6-9.52-2.43-14.33-3.44-2.97-.63-6.01-.2-8.99-.54-5.53-.62-10.46,1.17-15.38,3.26-.31,1.5-.58,2.83-.87,4.25,2.21,4.76,5.86,8.51,9.21,12.47,2.29,2.72,5.08,5.03,7.22,7.84,5.15,6.74,10.12,13.63,14.16,21.12.78,1.44,1.56,2.88,2.38,4.3,2.13,3.73,2.88,7.95,4.22,11.96.91,2.72,1.67,5.42,1.91,8.35.48,5.74.51,11.45.05,17.18-.42,5.34-1.52,10.55-2.84,15.73-.29,1.14-.21,2.37-.31,3.6,2.01.67,3.71.26,5.71-.25.29-1.11.66-2.26.89-3.44.71-3.63.88-7.33,1.39-10.97,1.22-8.74.74-17.46.45-26.2-.03-.81-.19-1.63-.39-2.42-.95-3.84-1.91-7.68-2.91-11.51-.39-1.5-1.14-2.96-.2-5.16.88,2.24,1.49,4,2.24,5.7,2.35,5.32,3.64,10.86,3.84,16.67.1,2.99.28,5.98.44,8.97.21,3.96.42,7.91-.32,11.87-.3,1.6-.15,3.28-.29,4.91-.15,1.9-.37,3.8-.59,5.69-.22,1.86-.83,3.69-.56,5.81,2.44.04,4.77-.09,7.06.16,2.42.26,4.81.88,7.52,1.41.73-.09,1.13-1.79,2.62-1.08.33.76.69,1.61.98,2.28,2.38.89,4.54,1.7,6.71,2.49.64.23,1.3.44,1.97.56,1.03.18,1.88-.02,2.31-1.16.12-.32.59-.51.95-.8.37.23.83.35,1.03.65,1.39,1.99,3.49,2.5,5.7,2.78,1.36.17,2.73.28,4.08.49,1.21.19,2.47.33,3.56.81.79.35,1.3.67,2.2.21.67-.34,1.6-.27,2.41-.24,2.46.11,4.92.25,7.37.46,2.58.22,5.16-.23,7.74.3,3.07.63,6.18,1.2,9.3,1.47,5.17.45,10.37.67,15.56.9,1.21.05,2.74.14,3.58-.51,1.32-1.01,2.45-.71,3.75-.47,3.08.57,7.94-.14,10.71-1.38.68-.31,1.55-.32,2.32-.29.79.04,1.57.48,2.34.44,2.18-.11,4.36-.39,6.54-.57,3.81-.31,7.62-.55,11.43-.9,3.81-.36,7.61-.79,11.4-1.26.8-.1,1.54-.55,2.34-.76,3.17-.83,6.36-1.56,9.51-2.45,1.57-.44,3.26-.87,4.55-1.79,2.73-1.95,5.79-2.96,9.17-3.91-.61-4.24-.98-8.47-1.88-12.58-1.35-6.17-1.13-12.47-1.92-18.68-.27-2.15-.31-4.4.03-6.52.37-2.33.32-4.63.34-6.95.03-4.24.12-8.48.2-12.72,0-.27,0-.59.14-.79.22-.31.55-.72.87-.75.33-.04.94.27,1,.53.3,1.18.61,2.39.64,3.59.13,6.14.66,12.29-.27,18.42-.6,3.98.45,7.89.48,11.86.02,2.86.52,5.72.84,8.57.45,3.94.91,7.88,1.4,11.82.1.81.27,1.62.46,2.42.46,1.9.63,1.99,3.22,1.87.04-.39.14-.79.1-1.18-.62-5.85-1.12-11.71-1.94-17.53-.6-4.25.1-8.42.25-12.63.02-.5.28-.99.65-2.18.38,1.31.65,1.92.74,2.56.68,4.88,1.26,9.77,2,14.64.49,3.23,1.2,6.44,1.84,9.64.03.17.41.26.63.39.25-.08.55-.1.74-.26,1.91-1.66,1.88-3.82,1.47-6.05-.82-4.41-1.66-8.8-2.88-13.13-.59-2.07-.65-4.29-.96-6.53,1.04-.66,1.9-1.21,2.78-1.77,1.62,2.81.41,6.18,2.45,8.63.25-.16.43-.21.47-.31.27-.62.56-1.24.73-1.89,1.81-6.83,5.01-13,8.97-18.79,1.39-2.03,2.84-4.05,4.55-5.8,4.43-4.55,9.56-8.12,15.54-10.41,1.53-.58,3.01-1.37,4.58-1.71,2.67-.56,5.39-.97,8.11-1.2,2.44-.2,4.91-.15,7.36-.07,1.49.05,2.97.43,4.46.58,3.03.31,5.85,1.04,8.52,2.67,2.91,1.78,5.99,3.3,9.1,4.72,3.76,1.72,7.18,3.92,10.46,6.41,6.37,4.84,10.25,11.68,14.7,18.06.15.22.18.52.29.77.76,1.76,1.48,3.53,2.29,5.27,2.4,5.13,3.74,10.65,4.46,16.14.97,7.48,2.26,14.88,3.79,22.25,1.02,4.9,1.14,9.85.47,14.71-1.21,8.8-2.84,17.54-4.05,26.35-1.05,7.58-3.12,15.02-5.89,22.15-2.67,6.87-5.94,13.52-8.95,20.26-.17.37-.36.75-.6,1.07-3.79,5.18-7.74,10.22-12.77,14.29-1.59,1.29-3.36,2.4-4.78,3.86-1.98,2.04-4.4,3.22-6.94,4.26-1.01.41-2.02.83-3.03,1.25-4.39,1.87-8.72,3.87-13.63,4.02-1.71.05-2.44.83-2.59,2.55-.11,1.21-.17,2.46,0,3.66.61,4.33,1.34,8.65,2.01,12.98.21,1.33.38,2.66.63,4.4-.67-.5-1.11-.65-1.23-.94-1.6-3.79-3.19-7.6-3.73-11.7-.4-3.01-1.32-5.86-2.18-8.75-.54-1.8-1.7-2.87-3.43-3.11-1.89-.26-3.82-.3-5.73-.2-.7.04-1.62.6-1.99,1.2-1.67,2.68-3.06,5.5-3.16,8.77-.08,2.85-.24,5.7-.07,8.56.05.94.05,1.95-1.35,2.4-.28-.34-.8-.69-.9-1.14-.54-2.39-1.27-4.79-1.39-7.21-.22-4.51-.52-9-1.19-13.48-1.02-6.77-2.33-13.46-4.04-20.1-1.16-4.5-2.36-9.04-2.87-13.63-.46-4.16-1.75-7.99-3.05-11.87-.22-.65-.55-1.26-.72-1.91-2.04-7.66-4.04-15.33-6.11-22.99-1.07-3.96-2.12-7.94-3.41-11.83-1.51-4.53-3.29-8.97-4.27-13.66-.58-2.8-1.29-5.59-1.98-8.37-.63-2.51-1.29-5.02-2.01-7.5-.08-.27-.63-.58-.94-.55-.31.03-.82.46-.82.71,0,.94.16,1.88.3,2.81.33,2.21,1.24,4.37.69,6.86-2.59-2.19-1.99-5.79-4.02-8.02-1.92.67-3.73,1.25-5.51,1.93-2.25.85-2.36.97-3.98,3.16-.78-.11-1.56-.21-2.64-.36-.41,2.76-2.12,2.76-4.31,2.3-1.7-.36-3.54-.42-5.27-.22-2.02.24-4.04.78-5.98,1.42-6.03,2-12.28,2.66-18.54,3.23-1.77.16-3.53.39-5.3.48-3,.17-6.02.17-9.02.4-5.6.44-11.19.39-16.79.23-5.2-.15-10.41-.22-15.61-.26-2.02-.02-3.96.67-6.07.26-1.81-.35-3.46.44-4.4,2.28-.12.25-.73.25-1.12.37-.57-.64-1.1-1.24-1.56-1.76-2.84-.31-5.55-.61-8.38-.92-.38.55-.7,1.15-1.15,1.64-1.22,1.34-2.13,1.01-2.73-.92-.11-.36-.3-.7-.51-1.18-2.76-.17-5.48-.41-8.21-.49-3.02-.09-6.02-.18-8.98-.91-1.84-.46-3.72-.75-5.09-1.02-1.45.88-2.43,1.9-3.49,1.99-1.06.09-2.51.31-3.56-1.04.19-.5.41-1.1.44-1.17,1.22-1.15,2.69.92,3.34-1.13-.61-.26-1.1-.49-1.6-.67-2.2-.79-4.24-.85-5.96,1.1-.22.25-.9.08-1.63.12.53-1.3.94-2.27,1.41-3.42-6.08-2.35-11.86-5.04-18.54-5.51-.28.73-.76,1.46-.84,2.22-.63,6.14-2.53,12.01-3.89,17.99-2,8.81-3.51,17.69-4.92,26.6-.71,4.45-1.66,8.87-2.53,13.3-.63,3.22-1.29,6.44-1.96,9.65-1.15,5.48-1.33,11.13-3.16,16.49-.48,1.41-.58,2.95-.86,4.43-1.28,6.72-2.59,13.43-3.83,20.16-1.29,7-2.52,14.01-3.74,21.02-.91,5.25-1.74,10.51-2.61,15.77-.78,4.71-1.69,9.4-2.34,14.13-.86,6.23-1.54,12.49-2.28,18.74-.08.68-.03,1.37-.05,2.05-.14,5.19-.29,10.39-.43,15.58-.17,6.29-.5,12.59-.47,18.88.02,3.54.4,7.12,1,10.61.78,4.57,1.8,9.11,2.95,13.61,1.7,6.62,3.38,13.27,6.77,19.3,1.54,2.74,3.03,5.5,4.64,8.2.36.6.88,1.48,2.18.83-.17-2.32.5-4.7-.05-7.19-1.48-6.68-2.84-13.38-4.24-20.07-.53-2.54-1.04-5.08-1.58-7.61-1.69-7.93-1.62-16.03-2.04-24.06-.4-7.48-.14-15-.2-22.5-.01-1.64-.31-3.29-.23-4.92.2-4.23.57-8.45.81-12.68.13-2.18-.07-4.41.23-6.56.84-5.93,1.95-11.82,2.68-17.78.38-3.12.98-6.22,1.48-9.33.86-5.41,1.58-10.84,2.62-16.21.91-4.69,2.04-9.33,2.68-14.08.16-1.21.53-2.42,1-3.55,1.1-2.64,2.09-5.29,2.79-8.08.49-1.97.91-4.1,2.81-5.93-.63,3.86-.99,7.38-1.81,10.79-1.25,5.18-2.23,10.4-3.08,15.66-1.14,7.02-2.58,13.99-3.52,21.03-.7,5.28-2.09,10.46-2.22,15.81-.01.54-.21,1.07-.32,1.61-.93,4.68-1.66,9.39-1.63,14.19,0,.68.11,1.38.04,2.05-.66,5.99-.63,12-.81,18.01-.18,6.14-.17,12.28-.05,18.41.09,4.65.23,9.31.47,13.96.18,3.41.32,6.85.93,10.19,1.43,7.8,3.13,15.55,4.72,23.31.44,2.14.7,4.34,1.35,6.42,1.19,3.81.27,7.61.25,11.41,0,1.19-.99,1.97-2.17,2.11-1.26.15-2.47.06-3.43-.93-.85-.89-1.87-1.67-2.53-2.68-3.67-5.63-6.82-11.54-9.01-17.91-2.66-7.77-4.58-15.73-5.88-23.83-1.42-8.8-1.95-17.65-1.19-26.56.13-1.5.3-3.01.27-4.51-.11-5.18.62-10.34.33-15.52-.03-.54,0-1.09.07-1.63.39-3.12.92-6.22,1.18-9.35.78-9.28,1.95-18.49,4.12-27.56.16-.66.19-1.35.29-2.03.78-5.55,1.34-11.15,2.39-16.65,1.57-8.18,3.32-16.35,5.31-24.44,1.74-7.05,2.04-14.37,4.29-21.31.08-.26.07-.54.11-.81.58-3.64,1.11-7.3,1.77-10.93.48-2.69.96-5.4,1.73-8.02,1.44-4.88,2.36-9.84,3.07-14.87.65-4.58,1.27-9.2,2.35-13.69,1.15-4.79,2.17-9.59,3.01-14.44.21-1.21.34-2.46.76-3.61,1.59-4.4,1.74-9.04,2.63-13.61-2.25-1.21-4.35-1.01-6.53-.55-.97,1.93-1.69,3.8-2.2,5.8-2.06,8.07-4.22,16.12-6.37,24.17-1.73,6.47-3.55,12.91-5.25,19.39-1.42,5.41-2.67,10.86-4.11,16.26-1.13,4.23-2.59,8.37-3.62,12.62-2.36,9.7-4.65,19.42-6.77,29.18-1.69,7.75-3.1,15.56-4.6,23.34-2.18,11.28-4.45,22.55-5.96,33.96-.86,6.53-1.44,13.05-1,19.64.34,5.18.69,10.36,1.01,15.54.03.54.1,1.15-.12,1.6-.46.97-.28,1.8.05,2.75.45,1.28.79,2.61.99,3.94.27,1.76.24,3.56.54,5.31,1.48,8.49,2.89,16.99,4.61,25.43,1.38,6.81,3.18,13.54,4.77,20.3,2.35,9.99,8.4,18,14.03,26.24.23.33.59.57.87.87.9,1.02,1.78,2.06,2.69,3.08,1.18,1.33,2.3,2.72,3.58,3.94,2.64,2.54,5.28,5.05,8.29,7.2,2.23,1.6,4.46,3.15,6.91,4.41,3.54,1.81,7.15,3.38,11.01,4.4,2.11.56,4.1,1.51,6.19,2.18,4.83,1.54,9.66,3.05,14.52,4.49,1.8.53,3.66.92,5.51,1.22,4.05.66,8.11,1.27,12.18,1.83,3.52.49,7.05,1.03,10.59,1.29,4.08.3,8.21-.06,12.22,1.06.37.1.81.11,1.18,0,3.27-.94,6.53-.02,9.8.01.57,0,1.03.24.84,1.08-1.17.17-2.38.43-3.6.5-4.78.28-9.55.52-14.33.73-8.7.38-17.19-.93-25.58-3.14-9.66-2.55-19.33-5.05-28.96-7.68-3.03-.83-6.08-1.76-8.92-3.07-3.47-1.59-6.92-3.36-10.04-5.54-3.58-2.49-6.81-5.49-10.14-8.33-1.04-.88-1.97-1.9-2.84-2.95-3.4-4.11-7.03-8.04-9.74-12.68-.55-.94-1.35-1.72-1.98-2.61-.63-.88-1.29-1.77-1.79-2.73-1.76-3.4-3.41-6.85-4.44-10.57-1.49-5.4-3.28-10.73-4.51-16.19-1.56-6.93-2.85-13.92-3.91-20.96-1.04-6.92-1.72-13.85-2.13-20.82-.25-4.34-.63-8.67-1.63-13.42-.44.86-.8,1.29-.9,1.77-1.21,6.18-2.3,12.39-2.17,18.72.08,3.96.02,7.98.65,11.87.8,4.97,2.13,9.86,3.44,14.74,1.66,6.2,3.63,12.32,5.28,18.52,2.32,8.73,5.44,17.2,8.51,25.68,1.35,3.71,3.04,7.37,5.06,10.76,2.51,4.21,4.81,8.62,8.3,12.2.38.39.66.88.92,1.36.71,1.34,1.58,2.5,2.92,3.3.46.27.74.82.07,1.41-.32-.09-.78-.09-1.05-.31-3.79-3.16-7.32-6.59-10.21-10.6-5-6.93-8.43-14.72-11.51-22.61-2.48-6.34-4.19-12.99-6.23-19.5-.53-1.7-1.28-3.36-1.53-5.1-.7-4.88-2.35-9.54-3.32-14.35-.1-.49-.34-.95-.51-1.42-.36,1.28-.39,2.5-.17,3.67.79,4.3,1.53,8.62,2.52,12.87,1.48,6.39,3.03,12.77,4.78,19.09,1.42,5.12,3.15,10.14,5.15,15.09,1.89,4.68,3.33,9.53,5.76,14.02,3.45,6.36,6.94,12.68,11.09,18.64,2.98,4.28,7.01,7.31,11.12,10.18,5.04,3.51,10.49,6.42,15.74,9.62,2.83,1.73,5.87,3.05,9.07,3.78,7.6,1.75,15.25,3.33,22.9,4.82,3.08.6,6.22,1.01,9.36,1.13,7.64.3,15.3.39,22.95.57,2.6.06,5.19.09,7.79.18,6.16.22,12.29-1.21,18.46-.46.39.05.81-.12,1.22-.16,5.17-.54,10.34-1.04,15.51-1.63,4.21-.48,8.41-1.36,12.63-1.52,4.28-.16,8.24-1.97,12.51-1.91,8.09-2.03,16.36-3.25,24.43-5.44,4.79-1.3,9.25-3.31,13.77-5.24,1.76-.75,3.52-1.6,5.08-2.68,2.57-1.78,5.16-3.62,7.43-5.76,2.27-2.14,4.2-4.65,6.21-7.06,1.75-2.1,3.76-4.08,5.02-6.45,2.59-4.83,5.31-9.55,8.4-14.07.46-.67.81-1.44,1.08-2.21,1.59-4.51,3.35-8.97,4.64-13.56,1.25-4.46,3.02-8.8,3.38-13.5.06-.8.55-1.56.67-2.36.28-1.89.49-3.79.65-5.69.04-.45.14-1.16-.85-1.19-.98,1.27-1.27,2.89-1.81,4.41-1.1,3.09-2.08,6.25-3.54,9.17-2.13,4.27-4.59,8.38-6.98,12.52-1.37,2.36-2.8,4.7-4.36,6.94-3.43,4.96-7.61,9.3-11.64,13.76-.72.8-1.64,1.44-2.52,2.1-1.74,1.31-3.52,2.57-5.27,3.86-2.4,1.78-5.32,2.91-8.19,3.12-.54-1.28.51-1.74,1.26-2.18,2.94-1.74,5.77-3.62,8.42-5.79,6.18-5.05,11.81-10.63,16.33-17.19,2.54-3.69,4.67-7.7,6.64-11.73,2.46-5.03,4.71-10.17,6.77-15.38,1.96-4.95,3.48-10.07,5.37-15.05.98-2.59,1.67-5.19,1.92-7.94.45-4.86.42-15.34-.1-20.58-.81,3.59-1.91,7.41-2.5,11.31-1.02,6.79-2.51,13.45-4.65,19.96-1.62,4.93-3.04,9.92-5.18,14.69-1.05,2.32-2.54,4.51-2.77,7.21-.07.87-.86,1.68-1.32,2.52-.73,1.31-1.57,2.57-2.2,3.93-1.81,3.89-4.36,7.27-7.15,10.45-3.62,4.13-7.96,7.5-12.3,10.84-5.56,4.28-11.73,7.49-18.08,10.43-5.25,2.43-10.74,4.06-16.31,5.51-6.09,1.59-12.19,3.29-18.48,3.79-8.32.67-16.66,1.03-24.99,1.49-.52.03-1.05-.19-1.57-.29Zm80.4-335.53c.87,6.25,1.85,12.16,3.59,17.94,1.02,3.39,1.57,6.92,2.49,10.35.67,2.5,1.62,4.92,2.39,7.4.97,3.13,1.77,6.32,2.86,9.4,2.03,5.68,3.55,11.51,4.72,17.4,1.6,8.02,4.01,15.84,5.48,23.89.49,2.68,1.6,5.24,2.09,7.91.89,4.83,2.32,9.53,2.8,14.47.38,3.93,1.46,7.79,2.25,11.68.13.62-.11,1.41.74,1.78,4.39-2.05,8.88-3.11,13.83-2.22,2.93.53,5.98.34,8.98.4.66.01,1.37-.16,1.99-.41,3.74-1.55,7.89-1.97,11.34-4.31,1.9-1.29,4.04-2.26,5.9-3.59,3.89-2.79,7.47-5.93,10.76-9.44,2.73-2.92,5.39-5.89,7.02-9.51,2.35-5.24,5.36-10.15,7.37-15.56,2.37-6.4,4.92-12.74,6.32-19.45.81-3.87,1.7-7.73,2.44-11.62.97-5.1,2.27-10.16,2.35-15.4.01-.82.26-1.62.32-2.44.11-1.63.22-3.27.23-4.91.05-6.22-2.15-12.08-2.92-18.18-.47-3.65-1.43-7.24-1.86-10.9-.66-5.59-1.78-11.05-3.54-16.39-.3-.91-.58-1.84-1.01-2.69-3.09-6.12-6.72-11.91-11.08-17.21-2.36-2.86-5.1-5.32-8.45-7.05-5.7-2.95-11.34-6.03-17.04-8.99-.95-.49-2.06-.82-3.13-.94-4.06-.45-8.08-1.27-12.23-.88-4.36.41-8.64.82-12.74,2.64-5.87,2.61-10.74,6.37-14.85,11.31-3.74,4.5-6.03,9.73-8.32,14.99-.87,2-1.8,4.06-2.11,6.18-.57,3.9-.83,7.87-1,11.82-.22,5.12-1.94,9.28-6.73,11.75-.36.18-.68.42-1.25.78Zm-181-107.29c6.14,3.95,12.98,4.87,19.6,6.43,4.65,1.09,9.37,1.85,14.07,2.74,1.21.23,2.42.45,3.64.58,3.94.41,7.88.8,11.82,1.15,5.57.49,11.1,1.61,16.6,2.68,5.1,1,10.13,2.35,15.21,3.44,8.56,1.83,17.15,3.57,25.72,5.34,3.08.63,6.19,1.17,9.26,1.85,6.27,1.41,12.52,2.9,18.78,4.33,5.06,1.16,10.22,1.99,14.98,4.21.49.23,1.04.31,1.57.44,5.05,1.28,10.2,1.93,15.38,2.38,2.99.26,5.92-.02,8.85-.54.33-1.63-.71-2.26-1.68-2.6-3.99-1.42-7.97-2.9-12.05-4.01-7.12-1.94-14.38-3.42-21.46-5.49-7.6-2.22-15.41-3.67-22.89-6.33-5.54-1.97-11.24-3.41-16.97-4.75-8.37-1.96-16.56-4.63-25.08-6.05-9.58-1.6-19.11-3.51-28.8-4.43-2.57-.24-5.15-.38-7.72-.6-1.77-.15-3.53-.44-5.3-.54-9.85-.56-19.7-.81-29.57-.36-1.32.06-2.64.09-3.96.14Zm-4.32,114.68c1.69.76,3.4.81,2.83.21-.83-.88-1.81-.5-2.83-.21Zm48.9,4.9c-.11-.04-.22-.07-.32-.11-.02.17-.04.34-.06.51.12-.02.26-.01.34-.08.06-.06.04-.21.05-.32Zm196.56,166.13l-.3-.16-.03.28.33-.11Zm-47.39-115.22l-.02.24.32-.1-.3-.14Z"/>
    <path class="cls-1" d="m432.89,620.24c.99-.88,2.33-.93,3.61-1.12,2.91-.43,5.43-1.78,7.84-3.35.89-.58,1.7-1.41,2.32-2.29,1.37-1.96.93-4.18-1.21-5.2-2.33-1.1-4.79-2.11-7.3-2.64-3.73-.79-7.57-1.11-11.36-1.64-1.76-.24-3.51-.51-5.26-.76-.68-.09-1.37-.27-2.04-.22-4.83.3-9.53-.65-14.27-1.31-.27-.04-.54-.1-.82-.09-8.07.07-16.09-1.6-24.18-.64-1.3.15-2.46-.14-3.1-1.49-.72.85-1.52,1.39-2.72,1.42-3.14.09-6.27.31-9.41.47-5.87.3-11.75.48-17.6.93-3.67.28-7.31.97-10.96,1.49-1.76.25-3.51.59-5.28.78-3.72.39-7.08,1.94-10.49,3.25-2.29.89-2.72,3.55-1.13,5.47,1.62,1.95,3.82,3.06,6.15,3.88,6.55,2.32,13.06,4.8,19.92,6.13.17.03.27.41.55.89-1.66.36-3.23.25-4.77.05-3.52-.44-7-1.01-10.38-2.19-2.45-.86-4.96-1.58-7.46-2.29-2.87-.81-5.24-2.37-7.07-4.67-.74-.92-1.29-2.12-1.55-3.27-.93-4.05.67-6.79,4.68-8.21,3.35-1.18,6.53-2.96,10.11-3.33,8-.84,15.85-2.94,24-2.68,3.41.11,6.83-.45,10.25-.51,8.62-.16,17.24-.3,25.85-.28,4.5.01,9.01.35,13.51.61,2.04.12,4.07.45,6.11.63,3.54.31,7.09.45,10.61.89,7.45.94,14.89,1.91,22.14,4.02,2.3.67,4.23,1.88,6.09,3.28,1.93,1.45,2.64,3.37,2.27,5.76-.36,2.29-1.47,4.2-3.22,5.57-2.38,1.87-5.03,3.35-8.17,3.53-1.63.09-3.27.09-4.91.07-.5,0-1.13.03-1.35-.94Z"/>
    <path class="cls-1" d="m425.15,653.81c1.37-1.77,2.96-1.91,4.26-2.53,1.16-.55,2.64-.66,3.23-2.53-1.17-.15-2.21-.42-3.23-.39-4.92.16-9.85.4-14.77.62-3.96.17-7.93.33-11.89.51-6.42.29-12.85.59-19.27.87-4.2.18-8.4.44-12.61.48-4.1.04-8.21-.14-12.31-.25-9.44-.24-18.88-.5-28.32-.71-1.08-.02-2.17.18-3.24.27-.16,1.26.77,1.35,1.53,1.58,3.88,1.23,7.77,2.43,11.65,3.67.36.12.68.42.99.66.08.06.14.26.1.34-.11.24-.26.47-.43.66-.07.08-.24.12-.36.11-4.5-.43-8.98-1.03-13.28-2.47-2.04-.68-4.11-1.46-5.12-3.71-.63-1.39-.68-2.33.43-3.27.7-.59,1.59-1.05,2.46-1.35.76-.26,1.62-.33,2.43-.31,5.88.13,11.76.29,17.65.48,3.83.12,7.66.26,11.48.44,2.87.14,5.73.44,8.6.51,4.38.1,8.77.25,13.14.05,6.55-.3,13.09-.94,19.64-1.35,4.5-.28,9-.43,13.51-.61.67-.03,1.53-.11,1.98.24,1.07.85,1.76,1.09,2.5-.35.15-.29,1.01-.29,1.55-.3,4.11-.08,8.22-.17,12.33-.15,1.36,0,2.74.21,4.07.5,1.39.3,2.65.97,2.84,2.58.19,1.6-.31,3.08-1.68,3.95-1.14.72-2.45,1.25-3.75,1.6-1.8.48-3.66.92-6.09.15Z"/>
    <path class="cls-1" d="m355.05,210.01c-4.99-.66-9.98-1.25-14.95-2.03-.95-.15-1.83-.25-2.79-.23-4.52.09-9.02,0-13.51-.73-5.79-.94-11.65-1.41-17.26-3.28-.51-.17-1.09-.13-1.63-.19-6.42-.7-12.62-2.43-18.84-4.07-4.75-1.26-9.54-2.37-14.32-3.53-.66-.16-1.35-.4-2-.34-3.26.3-4.55,2-2.74,4.93.93,1.51,2.06,2.9,3.19,4.27,3.81,4.65,7.66,9.26,11.47,13.9.43.52.8,1.12,1.04,1.74.11.28-.09.83-.34,1.04-.25.21-.83.33-1.09.18-.57-.32-1.08-.79-1.53-1.27-3.97-4.14-7.96-8.26-11.87-12.45-1.95-2.09-3.78-4.32-5.05-6.92-.36-.73-.71-1.51-.85-2.3-.59-3.33,2.2-6.7,5.86-7.02,1.35-.12,2.76-.15,4.07.11,4.82.93,9.65,1.79,14.34,3.39,5.03,1.72,10.25,2.89,15.41,4.23,4.37,1.13,8.76,2.17,13.14,3.23.93.22,1.88.36,2.82.52,5.53.93,11.04,1.92,16.58,2.75,3.1.46,6.27.47,9.35.97,3.88.64,7.71,1.58,11.56,2.39-.02.24-.05.48-.07.71Z"/>
    <path class="cls-1" d="m341.23,610.26c4.45,2.87,9.54,3.01,14.64,5.02-1.17.46-1.74.82-2.34.89-3.32.37-6.55-.27-9.74-1.04-1.32-.32-2.59-.86-3.87-1.31-2.71-.95-3.12-2.32-1.98-5,.62-1.46,1.54-2.15,2.93-2.52.92-.25,1.83-.67,2.76-.74,9.68-.74,19.36-1.45,29.05-2.09,1.58-.11,3.3-.57,4.68.8.12.12.55.15.64.05,1.43-1.62,3.36-.71,5.03-.92,1.73-.21,3.53.07,5.3.2,2.03.15,4.05.47,6.07.54,8.94.32,17.56,2.7,26.29,4.27,3.19.57,6.23,1.99,9.34,3.04.51.17,1.02.42,1.46.73.96.67,1.54,1.61,1.37,2.8-.15,1.05-.94,1.68-1.9,1.96-3.53,1.02-7.08,1.93-11.38,1.72.69-.68.96-1.16,1.36-1.3,1.67-.59,3.39-1.05,5.06-1.63.85-.29,1.64-.73,2.9-1.3-1.23-.54-1.93-.98-2.69-1.17-6.51-1.58-13.02-3.2-19.56-4.65-7.09-1.57-14.31-2.72-21.56-2.54-11.48.29-22.99.27-34.36,2.34-1.6.29-3.27.23-4.9.35-1.5.11-3.04.07-4.61,1.51Z"/>
    <path class="cls-1" d="m318.44,644c-.9.67-1.77,1.05-3,.71-7.24-1.99-14.32-4.41-20.95-7.96-2.58-1.38-4.82-3.31-6.83-6.32,1.93.36,3.09,1,4.2,1.73,5.04,3.34,10.57,5.61,16.27,7.51,2.84.94,5.71,1.81,8.55,2.74.75.25,1.64.4,1.69,1.48l.06.12Z"/>
    <path class="cls-1" d="m368.31,611.53c1.11-.31,2.24.43,2.95-1.01.4-.82,1.54-.55,1.93.22.24.48.47.97.62,1.49.43,1.44.11,2.45-.96,3.19-.86.6-1.88.53-3-.24-1.18-.81-1.94-1.84-1.55-3.65Z"/>
    <path class="cls-1" d="m299.63,591.65c1.42.06,2.25.95,2.16,2.34-.1,1.64-1,2.56-2.5,2.54-1.64-.01-2.71-.95-2.69-2.35.02-1.51,1.32-2.6,3.03-2.53Z"/>
    <path class="cls-1" d="m431.24,568.13c2.59,2.18,2.86,3.12,1.58,4.97-.87,1.25-2.41,1.31-3.35.03-.25-.34-.14-1.43-.07-1.44,2.04-.33,1.48-2.2,1.84-3.55Z"/>
    <path class="cls-1" d="m268.73,528.67c.03-.44.03-.57.04-.7.1-1.59.71-2.68,1.46-2.53,1.21.25,1.59,1.35,2,2.29.44,1.01-.1,2.28-1,2.8-.66.38-1.78.07-2.1-.63-.22-.48-.33-1-.41-1.23Z"/>
    <path class="cls-1" d="m328.78,574.52c.02,1.18-.85,2.15-1.93,2.13-1.17-.03-2.2-1.15-2.21-2.42,0-.82.95-1.6,1.98-1.62,1.16-.02,2.14.85,2.16,1.91Z"/>
    <path class="cls-1" d="m300.25,572.93c.27,1.45-.52,2.37-1.3,3.26-.53.6-1.68.33-2.04-.4-.46-.92-.36-1.82,0-2.73.37-.92,1.07-1.15,1.95-.83.49.18.94.47,1.39.7Z"/>
    <path class="cls-1" d="m468.37,528.37c-1.21.14-1.88-.22-2.13-1.12-.25-.9-.44-1.82-.56-2.74-.09-.68.04-1.53.83-1.56.52-.02,1.21.5,1.56.98.64.86.56.92.31,4.44Z"/>
    <path class="cls-1" d="m367.22,581.97c-.01,1.66-.94,2.78-2.13,2.89-.74.07-1.54-.75-1.53-1.57,0-1.38.99-2.42,2.3-2.21.54.09,1.01.65,1.37.89Z"/>
    <path class="cls-1" d="m319.86,479.2c-.25.55-.4,1.07-.7,1.49-.35.5-1.04.71-1.36.2-.56-.87-1.03-1.88-1.21-2.88-.07-.39.68-1.11,1.2-1.36.27-.13,1.02.32,1.3.69.38.51.52,1.2.77,1.85Z"/>
    <path class="cls-1" d="m394.98,617.66c-.23.28-.44.63-.74.88-1.17.97-1.88,1.12-2.39.56-.73-.8-.64-2.06.2-2.84.8-.74,1.59-.57,2.66.62.16.18.17.49.27.79Z"/>
    <path class="cls-1" d="m331.46,332.14c1.03-.12,2.08.87,2.14,2,.04.85-.59,1.58-1.44,1.69-1.02.12-1.92-.52-2.09-1.51-.17-.95.56-2.08,1.4-2.17Z"/>
    <path class="cls-1" d="m484.38,581.11c-.77.06-1.37-.54-1.55-1.56-.19-1.05.17-1.83.9-2,.93-.22,1.97.51,2.05,1.44.1,1.13-.5,2.05-1.41,2.12Z"/>
    <path class="cls-1" d="m337.74,352.6c.18,0,.34-.05.45,0,1.01.5,1.5,2.02,1.02,3.12-.28.63-1.61.88-2.1.39-.81-.81-.85-2.45-.04-3.27.16-.17.48-.18.67-.25Z"/>
    <path class="cls-1" d="m280.07,353.8c.76.42,1.39.63,1.85,1.03,1.15,1,.89,2.53-.48,3.22-.73.37-1.7,0-1.98-.74-.4-1.08-.24-2.08.61-3.51Z"/>
    <path class="cls-1" d="m306.36,603.53c1,.93,1.75,1.45,2.23,2.15.22.32,0,1.05-.2,1.52-.13.32-.59.74-.85.7-.47-.05-1.06-.3-1.32-.67-.65-.94-.57-2.01.13-3.7Z"/>
    <path class="cls-1" d="m412.98,580.12c1.01.49,1.84.84,2.61,1.3.45.27.32,1.5-.12,1.78-.86.55-1.77.63-2.61.01-.27-.2-.53-.67-.5-.99.07-.63.34-1.23.61-2.11Z"/>
    <path class="cls-1" d="m304.78,560c-.95-.05-1.64-.9-1.6-1.94.03-.89.68-1.58,1.48-1.57.91,0,1.63.88,1.6,1.93-.02.85-.75,1.63-1.48,1.59Z"/>
    <path class="cls-1" d="m360.32,532.02c0-1.38-.02-2.43.01-3.48,0-.24.2-.47.32-.73,1.5-.19,1.82.86,1.89,1.97.07,1.16-.35,2.08-2.22,2.25Z"/>
    <path class="cls-1" d="m467.11,509.66c-.72.11-1.62-.61-1.73-1.38-.15-1.08.42-2.04,1.3-2.22.72-.14,1.59.55,1.73,1.38.17.99-.48,2.09-1.3,2.22Z"/>
    <path class="cls-1" d="m362.31,436.87c.04-.28-.02-.6.12-.78.28-.38.71-.99,1-.96.41.05.96.56,1.08.97.17.6.12,1.32-.07,1.93-.13.42-.64.72-.99,1.07-.32-.36-.73-.67-.95-1.08-.18-.33-.14-.77-.2-1.15Z"/>
    <path class="cls-1" d="m487.26,553.55c-.2-.19-.63-.41-.72-.73-.1-.32.05-1,.25-1.07.84-.31,1.73-.52,2.61-.64.44-.06.74.94.45,1.33-.61.82-1.4,1.26-2.59,1.11Z"/>
    <path class="cls-1" d="m304.99,359.63c-.11,1.05-.62,1.64-1.4,1.62-1.15-.03-1.96-1.05-1.71-2.2.23-1.02,1.07-1.08,1.88-1.07.92,0,1.34.62,1.23,1.65Z"/>
    <path class="cls-1" d="m474.11,338.26c.26.28.89.65,1.01,1.15.32,1.31-.43,2.39-1.5,2.26-.42-.05-1-.49-1.13-.88-.43-1.22.2-2.3,1.62-2.52Z"/>
    <path class="cls-1" d="m363.79,487.75c.11.24.3.49.31.73.03,1.34-.46,2.42-1.82,2.84-.25.08-.88-.3-.94-.56-.3-1.26.38-2.19,2.05-3,.11-.05.27,0,.41,0Z"/>
    <path class="cls-1" d="m315.95,497.78c.67.62,1.46,1.01,1.48,1.45.05.72-.36,1.49-.66,2.2-.05.13-.53.21-.72.12-.33-.16-.65-.43-.85-.73-.12-.18-.05-.53.02-.78.18-.64.4-1.26.72-2.25Z"/>
    <path class="cls-1" d="m407.62,613.26c-.37.17-.9.59-1.44.62-.82.05-1.4-.71-1.22-1.63.08-.41.57-1,.92-1.04.88-.1,1.87.97,1.74,2.04Z"/>
    <path class="cls-1" d="m449.39,318.86c-1.46.62-2.16,1.05-2.91,1.17-.34.06-.89-.43-1.14-.81-.16-.23-.03-.97.14-1.04.7-.28,1.47-.5,2.22-.5.38,0,.75.5,1.7,1.18Z"/>
    <path class="cls-1" d="m363.15,511.49c-.12-.03-.3,0-.35-.08-1.08-1.55-1.22-2.34-.44-3.13.2-.2.83-.26,1.06-.1,1.04.72.94,1.57-.27,3.31Z"/>
    <path class="cls-1" d="m388.35,531.91c.81.19,1.3,1.23,1.12,2.32-.1.62-.94,1.07-1.57.85-.77-.27-1.16-1.06-.91-1.98.19-.67.53-1.24,1.35-1.2Z"/>
    <path class="cls-1" d="m427.34,353.44c-.57-.63-1.12-1.01-1.29-1.51-.25-.71.36-1.41,1-1.38.91.03,1.92.75,1.7,1.31-.22.53-.78.91-1.4,1.59Z"/>
    <path class="cls-1" d="m477.16,374.37v-2.72c.5.04.94-.04,1.24.13,1.2.68,1.54,1.36,1.25,2.16-.23.63-.68.72-2.49.43Z"/>
    <path class="cls-1" d="m294.28,379.3c-.18,1.17-.15,1.81-.4,2.33-.2.43-.69.9-1.12.98-.39.07-.96-.27-1.29-.6-.17-.17-.11-.88.08-1.03.68-.53,1.46-.93,2.72-1.68Z"/>
    <path class="cls-1" d="m468.87,578.34c-.25-.25-.73-.53-.92-.94-.38-.85.06-1.75.86-1.92.6-.12,1.08.14,1.22.75.19.83-.31,1.87-1.16,2.11Z"/>
    <path class="cls-1" d="m403.1,565.74c.03,1.49-.57,2.15-1.88,2.07-.63-.04-1.02-.88-.72-1.52.11-.23.25-.48.44-.62.2-.14.5-.23.74-.21.48.05.96.18,1.41.28Z"/>
    <path class="cls-1" d="m464.53,451.44c.01,1.23.09,2.11,0,2.96-.03.25-.61.68-.82.62-.44-.12-1.05-.45-1.15-.82-.33-1.14.16-2,1.98-2.75Z"/>
    <path class="cls-1" d="m426.13,549.36c-.85.59-1.31,1.14-1.85,1.22-.79.13-1.17-.5-1.21-1.27-.04-.78.55-1.42,1.21-1.18.55.19,1,.65,1.84,1.23Z"/>
    <path class="cls-1" d="m317.91,535.1c-.28.14-.69.51-1.14.56-.82.08-1.32-.7-1.07-1.74.1-.45.48-1.04.87-1.18.67-.25,1.46,1,1.34,2.37Z"/>
    <path class="cls-1" d="m467.68,557.75c-1.09-.23-1.46-.79-1.25-1.51.12-.43.56-.95.97-1.07.67-.19,1.42.89,1.13,1.68-.15.4-.63.68-.85.9Z"/>
    <path class="cls-1" d="m366.9,391.04c-.82.44-1.35.72-1.87,1-.23-.44-.64-.87-.64-1.31,0-.79.78-1.32,1.38-1.01.39.2.62.7,1.13,1.32Z"/>
    <path class="cls-1" d="m308.09,326.9c-.23-.39-.36-.51-.36-.62-.01-1.88.3-2.59,1.15-2.52.22.02.54.24.61.44.41,1.19-.1,2-1.4,2.71Z"/>
    <path class="cls-1" d="m257.07,497.75c.63.78,1.11,1.19,1.35,1.72.24.52-.53,1.36-1.13,1.29-.81-.09-1.1-.7-1.01-1.4.06-.44.4-.84.79-1.61Z"/>
    <path class="cls-1" d="m315.72,577.18c-.79.57-1.25,1.06-1.8,1.2-.22.06-.86-.63-.91-1.03-.08-.66.2-1.52,1.01-1.46.5.03.95.69,1.7,1.29Z"/>
    <path class="cls-1" d="m415.98,334.83c-.73.47-1.11.88-1.54.95-.72.12-1.36-.79-1.18-1.69.06-.31.66-.82.73-.78.61.37,1.15.85,1.99,1.52Z"/>
    <path class="cls-1" d="m464.2,470.72c-.67-1.36-.95-1.81-1.11-2.29-.27-.8.07-1.48.7-1.51.82-.04,1.29.54,1.33,1.18.03.56-.37,1.15-.91,2.62Z"/>
    <path class="cls-1" d="m458.79,347.72c-.65.56-1.04,1.16-1.53,1.26-.78.15-1.17-.52-1.19-1.24-.02-.74.41-1.42,1.13-1.34.49.06.9.72,1.59,1.32Z"/>
    <path class="cls-1" d="m317.64,445.24c.12.23.32.45.35.7.09.67.15,1.42-.64,1.7-.27.1-.83-.09-1.01-.33-.62-.83-.2-1.51.53-2.01.18-.12.5-.04.76-.05Z"/>
    <path class="cls-1" d="m302.17,343.63c.28.35.61.6.74.93.27.71.01,1.3-.69,1.6-.21.09-.57.09-.74-.03-.64-.47-.62-1.13-.24-1.74.19-.3.56-.48.93-.77Z"/>
    <path class="cls-1" d="m496.17,528.54c.9.8,1.48,1.11,1.73,1.6.14.29-.25.84-.4,1.28-.44-.16-1.14-.21-1.27-.51-.21-.5-.06-1.16-.06-2.37Z"/>
    <path class="cls-1" d="m467.55,603.11c-.77.41-1.2.83-1.6.81-.71-.03-1.36-.5-1.13-1.31.11-.39.82-.98,1.06-.9.52.18.92.73,1.68,1.4Z"/>
    <path class="cls-1" d="m362.53,458.33c-.07-.67-.14-1.31-.25-2.3.78.14,1.65.06,1.84.38.53.89.08,1.38-1.59,1.92Z"/>
    <path class="cls-1" d="m319.19,418.36c-.76.39-1.24.83-1.54.73-.4-.14-.9-.68-.92-1.07-.02-.36.55-.74.85-1.12.43.39.87.79,1.6,1.45Z"/>
    <path class="cls-1" d="m449.54,590.09c-.53.6-.79,1.1-1.2,1.3-.57.27-1.49-.45-1.34-1.08.09-.4.61-.91,1-.98.38-.06.84.39,1.53.77Z"/>
    <path class="cls-1" d="m367.02,405.53c-.83.48-1.3.85-1.84,1-.17.05-.65-.45-.73-.76-.17-.62.51-1.48,1.1-1.35.42.09.76.56,1.47,1.11Z"/>
    <path class="cls-1" d="m456.06,610.49c-.53-.56-1.01-.88-1.19-1.31-.21-.51.79-1.25,1.39-.97.39.18.84.73.84,1.11,0,.34-.58.68-1.05,1.17Z"/>
    <path class="cls-1" d="m460.98,438.76c.94-.36,1.39-.66,1.83-.65.27,0,.54.47.81.73-.35.34-.67.89-1.06.95-.34.05-.77-.47-1.58-1.03Z"/>
    <path class="cls-1" d="m487.35,527.3c-1.21.56-1.61.86-2.04.9-.19.02-.66-.65-.61-.71.28-.37.64-.79,1.05-.91.28-.08.7.29,1.6.73Z"/>
    <path class="cls-1" d="m433.55,333.4c-.41-.8-.67-1.32-.93-1.84.43-.18.85-.49,1.28-.51.59-.02.99.43.78,1.02-.15.41-.59.72-1.13,1.33Z"/>
    <path class="cls-1" d="m325.01,597.8c-.42-.47-.92-.84-.86-.99.17-.45.49-.93.88-1.19.4-.26,1.13.43.95.92-.16.43-.57.76-.98,1.26Z"/>
    <path class="cls-1" d="m286.42,324.8c.6-.45.99-.97,1.33-.93.35.04.93.64.9.94-.03.37-.56.92-.94.97-.31.05-.71-.51-1.29-.98Z"/>
    <path class="cls-1" d="m459.59,372.47c-.69.11-1.24.32-1.33.19-.24-.34-.3-.81-.37-1.23,0-.04.53-.29.63-.21.34.29.6.68,1.08,1.25Z"/>
    <path class="cls-1" d="m415.54,512.72c-.4.28-.74.68-.94.62-.3-.1-.69-.51-.69-.8,0-.26.45-.53.71-.79.26.27.52.55.92.97Z"/>
    <path class="cls-1" d="m294.32,530.59c.23.69.49,1.14.47,1.57-.01.21-.57.57-.86.54-.64-.06-.89-.57-.62-1.15.13-.29.49-.48,1.01-.95Z"/>
    <path class="cls-1" d="m363.67,334.68c-.25-.54-.47-.87-.57-1.23-.13-.49.49-1.07.97-.87.28.12.61.54.61.83,0,.27-.4.54-1.01,1.26Z"/>
    <path class="cls-1" d="m362,556.29c.24.87.47,1.29.43,1.69-.02.24-.46.44-.71.65-.14-.29-.41-.6-.39-.88.02-.33.28-.65.67-1.46Z"/>
    <path class="cls-1" d="m384.32,334.55c.37.94.65,1.31.61,1.63-.04.32-.41.59-.64.88-.2-.17-.56-.33-.57-.5,0-.34.18-.69.59-2Z"/>
    <path class="cls-1" d="m410.91,538.86c-1.02.55-1.36.88-1.59.81-.26-.07-.58-.51-.57-.77.01-.21.47-.55.75-.56.33-.02.68.23,1.42.52Z"/>
    <path class="cls-1" d="m362.95,353.06c.22-.09.51-.3.64-.23.16.09.2.42.28.64-.21.08-.49.28-.63.21-.16-.09-.2-.4-.29-.62Z"/>
    <path class="cls-1" d="m316.16,597.54c-.36.35-.6.59-.84.83-.21-.27-.5-.52-.61-.82-.05-.16.22-.43.35-.65.31.19.63.37,1.09.65Z"/>
    <path class="cls-1" d="m457.02,337.23c-.5.13-.84.21-1.18.3-.08-.32-.21-.64-.21-.96,0-.08.48-.29.59-.22.28.18.47.49.8.88Z"/>
    <path class="cls-1" d="m468.4,590.62c-.19.11-.39.21-.58.32-.13-.25-.26-.5-.39-.75.22-.05.48-.2.65-.13.16.07.22.37.32.56Z"/>
    <path class="cls-1" d="m363.21,376.52c0,.22.02.45-.02.66-.01.06-.22.08-.34.11,0-.24-.02-.48.01-.71,0-.03.22-.04.35-.06Z"/>
    <path class="cls-1" d="m318.38,643.89c.2,0,.4,0,.59,0-.18.03-.36.06-.54.11,0,.01-.06-.1-.06-.1Z"/>
    <path class="cls-1" d="m337.01,311.64c1.32.23,1.98,1.34,1.47,2.38-.1.21-.87.37-.96.26-.46-.59-.84-1.25-1.13-1.94-.06-.14.44-.5.61-.69Z"/>
    <path class="cls-1" d="m430.96,313.81c-.56.23-.86.35-1.17.48-.17-.43-.41-.85-.47-1.3-.02-.12.7-.51.76-.45.32.32.53.73.88,1.26Z"/>
    <path class="cls-1" d="m361.19,318.21c.5-.17,1.01-.33,1.51-.5.03.12.13.26.09.34-.45.97-1.07.18-1.63.13-.01,0,.03.03.03.03Z"/>
    <path class="cls-1" d="m375.29,315.75c-.11.2-.18.5-.35.57-.16.07-.42-.11-.63-.18.1-.19.16-.51.29-.55.2-.05.45.1.69.16Z"/>
  </g>
</svg>