<?xml version="1.0" encoding="UTF-8"?>
<svg id="Laag_1" data-name="Laag 1" xmlns="http://www.w3.org/2000/svg" viewBox="0 0 850.39 850.39">
  <defs>
    <style>
      .cls-1 {
        fill: #131f48;
      }

      .cls-1, .cls-2 {
        stroke-width: 0px;
      }

      .cls-2 {
        fill: #a5d6af;
      }
    </style>
  </defs>
  <path class="cls-2" d="m309.8,320.36c-14.59-101.55,273.5-85.65,351.95-3.42,80.69,84.58-55.41,148.74-95.27,93.33-39.86-55.41-118.61-62.22-107.91,52.5,10.69,114.72,65.14,92.36,154.58,144.86,89.44,52.5-52.5,76.8-200.27,51.53-90.51-15.48-51.54-56.86-7.76-86.6,32.42-22.02,37.74-52.96,30.79-90.96-26.66-157.84-115.1-84.63-126.1-161.23Z"/>
  <g>
    <path class="cls-1" d="m478.09,348.63c-3.84,3.24-7.73,6.67-11.11,10.64-6.21,7.3-11.75,15.11-17.25,22.95-.93,1.32-2.65,5.8-3.01,7.55-.66,3.26-1.88,6.28-4.29,8.75.29,2.6.69,5.15.82,7.73.13,2.45.21,4.96-.12,7.38-.73,5.4-1.21,10.84-3.14,16.06-1.18,3.19-.78,6.76-.89,10.17-.2,6.18.75,12.27,1.38,18.38.62,5.98,1.42,11.94,2.14,17.92.08.68.19,1.37.16,2.05-.11,2.7.56,5.05,2.32,7.22,1.27,1.57,2.09,3.51,3.07,5.31,1.09,1.99,1.31,4.18,1.26,6.37-.05,2.33-.28,4.65-.43,6.97-.11,1.64-.32,3.28-.32,4.92-.01,6.04-.79,12.01-1.41,17.99-.29,2.85-.31,5.73-.46,8.6-.19,3.69-.55,7.38-.54,11.06.02,4.9.32,9.79.51,14.92,1.58-.12,2.89-.25,4.19-.3,1.59-.07,2.91.57,4.11,1.59,1.02.88,2.11,1.67,3.25,2.57,1-.61,1.85-1.36,2.85-1.68,1.29-.41,2.69-.44,4.04-.69,3.35-.61,5.9.59,7.71,3.42.35.55.6,1.17.85,1.66.48,0,.78.08,1.01-.01,1.63-.64,3.25-.64,4.73.32,1.66,1.08,2.87,2.57,3.33,4.52.28,1.19.34,2.43.52,3.65.12.78.27,1.56.41,2.3,7.9.38,8.49.78,11.55,7.26,1.86,0,3.71-.35,5.52-.98,1.98-.69,3.49.25,4.78,1.54.4.4.58,1.28.47,1.87-.17.83-.9,1.35-1.8,1.43-.4.03-.85.01-1.2-.15-1.34-.61-2.66-.4-4.02-.11-.8.17-1.63.24-2.45.29-3.75.21-4.41-.2-6-3.59-.17-.37-.26-.78-.46-1.14-.92-1.67-2.69-2.45-4.52-1.91-1.05.31-2.02.85-3.06,1.19-1.29.42-2.53-.18-2.93-1.49-.32-1.04-.48-2.13-.59-3.22-.11-1.09-.14-2.19-.1-3.28.06-1.45-.42-2.67-1.3-3.79-1.36-.57-2.67-.24-4.02.03-2.48.5-3.05.14-3.9-2.28-.18-.52-.28-1.06-.48-1.57-.61-1.6-1.45-2.18-3.13-2.01-2.07.21-3.93.76-5.55,2.31-1.94,1.86-3.44,1.67-5.33-.21-.87-.87-1.62-1.85-2.48-2.74-1.25-1.3-2.91-1.57-4.41-.61-.52.33-1.17,1.09-1.11,1.57.31,2.38-.58,4.97,1.31,7.36.53-.32,1.09-.61,1.6-.98,1.83-1.37,3.84-1.43,5.85-.64,1.78.7,3.48,1.59,5.19,2.46,1.15.59,1.98,1.55,2.06,2.87.04.61-.19,1.45-.61,1.81-.42.35-1.35.48-1.86.26-1.74-.78-3.37-1.82-5.09-2.65-2.01-.97-3.09-.74-4.23.98-.75,1.13-1.21,2.5-2.65,2.99-1.66.57-3.23.08-5.01-.68-.86.75-1.78,1.52-2.67,2.32-.71.64-1.34,1.39-2.11,1.94-1.6,1.13-3.76.38-4.27-1.5-.42-1.56-.29-3.32-2.16-4.48-.71.19-1.6.46-2.51.66-1.71.37-2.68-.1-3.29-1.61-.26-.63-.29-1.36-.58-1.97-.87-1.85-2.06-3.25-4.42-2.83-.26.05-.55.04-.81,0-.83-.11-1.28-1.16-.85-1.92.84-1.46,2.18-2.04,3.77-2.02.94.01,1.88.27,3.07.45.31-.71.7-1.38.91-2.12,1.01-3.57,1.46-7.22,1.58-10.93.05-1.64.1-3.28.27-4.91.26-2.58.46-5.13.29-7.76-.19-2.98.26-6.01.4-9.01.08-1.91.11-3.82.14-5.73.09-6.29.23-12.58.23-18.87,0-5.6.15-11.2-.39-16.78-.94-9.67-1.92-19.34-3.81-28.88-1.02-5.12-1.49-10.29-1.97-15.47-.5-5.45-1.08-10.88-1.67-16.32-.12-1.08-.4-2.15-.63-3.22-.58-2.76-.37-5.44.73-8.05,1.38-3.3,2.83-6.54,5.53-9.03,1.15-1.06,1.68-2.37,2.06-3.9.95-3.77.96-7.57.77-11.39-.06-1.3-.71-2.34-1.51-3.3-1.8-2.14-2.94-4.58-3.58-7.29-.21-.91-.64-1.79-1.04-2.64-3.02-6.43-6.09-12.84-9.06-19.3-.8-1.73-1.24-3.62-1.95-5.39-.6-1.5-1.35-2.95-2-4.35-2.45,0-4.64-.14-6.81.03-6.42.48-12.82,1.09-19.23,1.63-7.37.62-14.75,1.2-22.12,1.84-3.81.33-7.62.8-11.43,1.15-2.03.19-4.04.19-6.11-.1-2.81-.39-5.72-.17-8.59-.08-6.64.2-13.05-1.25-19.37-2.95-5.4-1.45-10.67-3.4-15.99-5.17-4.69-1.56-9.57-1.98-14.43-2.57-2.57-.32-5.17-.51-7.75-.56-1.62-.03-3.3.08-4.85.5-3.43.93-6.81,2.06-10.19,3.17-2.59.85-5.15,1.67-7.91,2.03-2.67.35-5.24,1.51-7.87,2.26-1.31.37-2.64.72-3.98.88-1.99.24-3.37-1.29-2.61-3.04,1.58-3.62,2.51-7.54,5.01-10.75.9-1.16,1.89-2.33,2.09-3.93.06-.51.43-1.01.75-1.44,3.4-4.47,6.54-9.17,10.31-13.3,3.39-3.71,7.39-6.87,11.27-10.1,5.99-4.98,11.74-10.22,17.5-15.46,4.43-4.03,8.77-8.23,14.08-11.17,1.79-.99,3.7-1.76,5.52-2.7,4.86-2.5,9.84-4.67,15.11-6.21,3.83-1.12,7.7-1.88,11.7-1.97.82-.02,1.63-.15,2.38-.23.59-.87-.04-1.31-.46-1.8-4.18-4.9-8.03-10.04-10.76-15.88-1.67-3.57-2.98-7.34-4.12-11.13-1.62-5.36-2.86-10.83-4.4-16.21-1.09-3.79-2.48-7.5-3.61-11.28-1.21-4.05-2.27-8.15-3.38-12.24-.11-.39-.13-.81-.15-1.22-.12-2.32,1.47-3.59,3.7-2.75,3.24,1.22,6.61,1.54,9.99,2.09,4.9.79,9.84,1.02,14.72.95,4.31-.07,8.75.56,13.02-.79.76-.24,1.63-.24,2.44-.23,5.06.09,10.12.38,15.17.27,3.47-.07,6.84.1,10.12,1.22,1.93.66,3.94,1.21,5.72,2.17,3.6,1.95,7.26,3.87,10.53,6.3,4.05,3.01,8.49,4.93,13.29,6.05,3.74.87,7.37,1.98,11.02,3.18,2.83.93,5.04,2.74,7.49,4.17,3.42,1.99,6.64,4.34,9.82,6.72,2.19,1.63,4.3,3.42,6.19,5.4,2.53,2.65,5.2,5.18,7.22,8.33,2.74,4.28,4.98,8.8,6.79,13.52.57,1.49.75,3.23.67,4.84-.13,2.45-.34,4.96-1.04,7.29-1.3,4.31-2.49,8.7-4.71,12.67-2.15,3.85-4.55,7.51-8.37,9.97-.35.22-.7.44-1,.72-3.17,3.01-7.09,4.56-11.18,5.81-.38.12-.74.33-1.09.53-.1.06-.14.22-.37.62.21.41.5.98.78,1.56,3.4,7.17,6.63,14.41,8.29,22.23.31,1.47.71,2.92,1.15,4.35,1.25,4.09,1.39,8.36,2.08,12.53.8,4.86,1.32,9.76,1.84,14.66.27,2.57.29,5.17.43,7.76.04.65.1,1.3.2,2.56,1.56-1.65,2.75-2.88,3.92-4.13.65-.7,1.18-1.56,1.92-2.12,4.62-3.48,8.02-8.19,12.33-11.98.61-.53,1.1-1.21,1.59-1.86,1.41-1.87,3.16-3.34,5.56-4.58-.86-.7-1.51-1.33-2.25-1.83-3.57-2.38-5.86-5.68-7.2-9.7-.57-1.71-.74-3.44-.53-5.25.71-6.16,3.64-10.77,9.19-13.65.85-.44,1.65-.97,2.5-1.42,2.9-1.58,5.95-1.96,9.16-1.17,2.1.52,4.19,1.05,6.28,1.57.11-.08.3-.15.32-.24.91-5.2,4.6-8.56,8.04-12.07.38-.39.78-.79,1.25-1.06,3.94-2.22,7.9-4.19,12.51-4.91,6.56-1.03,13.09-.75,19.64-.48,1.35.06,2.69.48,4.03.71,4.31.75,8.62,1.54,12.95,2.22,4.63.73,9.04,2.2,13.26,4.11,2.72,1.23,5.29,2.9,7.69,4.69,3.18,2.36,6.16,5,9.18,7.57,1.87,1.59,3.63,3.32,5.5,4.92,5.55,4.75,9.19,10.78,11.93,17.44.51,1.25,1.18,2.43,1.8,3.63.31.6.78,1.15.97,1.79.94,3.27,2.8,6.19,3.44,9.6.42,2.26,1.46,4.4,2.17,6.62,1.94,6.06,2.72,12.29,2.52,18.62-.1,3.14-.49,6.28-.68,9.42-.17,2.74-.04,5.48.78,8.1,1.17,3.75,1.04,7.57.81,11.4-.06.94-.36,1.87-.64,2.78-.92,3.04-1.66,6.07-.58,9.25.44,1.3.03,2.42-1.23,3.15-.47.27-.85.69-1.3.99-1.7,1.1-3.21.73-3.97-1.2-1.41-3.55-2.63-7.18-3.98-10.76-1.39-3.7-2.57-7.51-4.33-11.03-3.07-6.13-6.92-11.83-11.76-16.69-3.38-3.4-7.64-5.71-12.18-7.37-2.69-.98-5.34-2.08-8.08-2.92-2.99-.92-6.04-1.7-9.09-2.38-5.2-1.16-10.42-2.21-15.64-3.28-6.03-1.23-11.36-4.01-16.18-7.71-3.52-2.7-7.41-4.62-11.43-6.35-1.01-.43-2.13-.65-3.06-1.2-3.37-2.01-7.16-2.65-10.86-3.6-1.87-.48-3.76-.57-5.69-.6-3.01-.04-6.01-.35-9.27-.57Zm-65.56-74.21c-1.3.26-2.94.23-4.18.93-2.3,1.29-4.63,1.62-7.13,1.24-3.2-.49-5.79.44-8.28,2.57-5.5,4.71-11,3.42-15.57.73-.29-.17-.4-.64-.74-1.24,1.71.24,3.19.33,4.62.65,3.92.88,7.27-.2,10.37-2.6,1.48-1.15,3.04-2.22,4.68-3.11,1.73-.94,3.62-1.01,5.59-.55,2.76.65,4.94-.45,6.99-2.7-1.3-.9-2.36-1.75-3.52-2.43-4.01-2.35-8.12-4.54-12.05-7.01-1.9-1.19-3.61-1.05-5.42-.18-.72.35-1.26,1.06-1.96,1.46-3.88,2.21-7.35,2.3-10.24-.31-.34-.31-.65-1.02-.51-1.37.15-.39.8-.79,1.26-.83.78-.07,1.61.07,2.39.26,3.52.83,5.87-.97,8.28-3.35-2.27-1.77-4.34-3.35-6.36-4.97-2.01-1.61-3.99-3.28-5.79-4.76-3.42.63-5.85,1.86-7.77,4.6-1.85,2.63-4.92,4.07-8.25,3.86-4.39-.28-8.42-1.87-12.25-4.14.86-.94,1.59-.43,2.3-.14,2.69,1.08,5.48,1.63,8.38,1.88,3.45.3,5.76-1.27,7.53-3.96,1.08-1.64,2.12-3.32,3.2-5.02-.48-.23-.94-.54-1.46-.7-5.44-1.7-10.05-4.99-14.66-8.13-2.55-1.74-5.09-3.08-8.04-3.8-.93-.22-1.9-.43-2.72-.88-1.18-.65-2.33-1.43-3.32-2.34-.69-.63-1.1-1.58-.17-2.6,1.02.31,2.06.66,3.11.93,5.46,1.4,10.65,3.38,15.19,6.81.39.3.92.69,1.54-.07-.24-1.39-.74-2.73-1.89-3.82-1.31-1.25-2.23-2.77-2.75-4.51-.23-.77-.68-1.72.26-2.17.43-.21,1.22.26,1.83.48.25.09.48.28.65.49,2.52,3.08,5.14,6.12,4.5,10.55-.08.52-.01,1.06-.01,1.71,2.91,1.81,5.85,3.7,9.13,4.55,3.68.96,6.96,2.37,9.76,4.93.07.06.26-.02.68-.06-.05-.47-.13-.94-.15-1.41-.14-3.69-.57-7.39-.31-11.05.21-2.97-.77-4.93-3-6.66-1.28-.99-2.34-2.28-3.41-3.5-.29-.33-.28-.92-.5-1.71.85.07,1.41-.01,1.85.18,1.13.49,2.18,1.16,3.3,1.67,3.83,1.73,5.74,4.64,5.07,8.83-.52,3.27-.29,6.52-.31,9.79-.01,2.23.44,4.34,1.1,6.4.32.99.94,2.03,1.73,2.69,4.93,4.12,10,8.06,15.55,11.33,1.24.73,2.49,1.58,4.34,1.35,0-4.62.01-9.13-.01-13.63,0-.95-.15-1.9-.22-2.73-.8-.96-1.49-1.8-2.19-2.65-1.13-1.37-1.36-2.97-1.03-4.65.09-.49.43-1.03.83-1.33.36-.27.95-.24,1.11-.27,1.2,1.91,1.96,3.76,3.27,5.05,1.89,1.86,2.13,4.04,2.1,6.39-.01,1.23-.29,2.45-.31,3.68-.06,3-.2,6.01.02,8.99.12,1.57.53,3.43,1.5,4.57,1.81,2.13,4.13,3.83,6.64,6.07,1.18-2.87,3.31-4.7,3.92-7.46.11-.5.44-.98.76-1.41.12-.16.5-.21.72-.16.23.05.58.28.59.45.05.8.24,1.72-.07,2.38-.75,1.59-1.69,3.1-2.66,4.57-1.52,2.3-1.57,3.4.24,5.49,2.82,3.26,4.59,7.1,6.35,10.96.3.65.17,1.63,1.33,1.83,2.04-2.4,3.49-5.18,4.86-8,1.11-2.28,1.58-4.62.77-7.12-.83-2.57-.6-5.14.16-7.68.17-.56.43-.97,1.2-.7,1.14,2.84,1.26,6.02,2.52,8.91.45,1.03.34,2.46.06,3.62-.4,1.71-1.08,3.38-1.81,4.99-1.38,3.01-3.5,5.53-5.57,8.07-.7.86-1.37,1.79-1.2,2.96.33,2.26.66,4.54,2.15,6.46,4.94-1.21,9.03-3.67,12.7-6.76,1.86-1.56,3.52-3.5,4.81-5.56,2.02-3.23,3.68-6.69,4.28-10.55.19-1.2.67-2.36,1.04-3.54,1.17-3.76,1.71-7.48-.5-11.09-.21-.34-.3-.76-.45-1.15-2.48-6.32-6.25-11.85-10.85-16.78-1.93-2.07-4.05-4.01-6.58-5.49-2.71-1.58-5.23-3.5-7.81-5.31-4.88-3.42-10.24-5.58-16.12-6.75-3.72-.74-7.48-1.88-10.88-3.53-4.42-2.14-8.56-4.88-12.71-7.53-3.76-2.39-7.69-4.17-12.17-4.55-2.18-.18-4.36-.43-6.54-.49-4.24-.1-8.49-.19-12.74-.08-2.31.06-4.6.71-6.91.77-6.14.14-12.29.11-18.44.14-.55,0-1.15.11-1.63-.08-2.99-1.17-6.2-.99-9.29-1.5-.59-.1-1.22.06-2.04.12.74,2.96,1.33,5.62,2.07,8.25,1.55,5.53,3.4,10.98,4.7,16.56,1.12,4.81,2.67,9.46,4.07,14.18.78,2.62,2.72,4.78,2.9,7.61,2.07,1.73,2.7,4.4,4.2,6.51,2.71,3.79,5.61,7.4,8.83,10.78,1.65,1.73,3.34,2.49,5.77,2.4,3.71-.15,7.41.39,10.75,2.18,5.07,2.72,9.96,5.7,14.19,9.67,1.9,1.78,3.84,3.52,5.93,5.07,2.08,1.54,4.35,2.82,6.55,4.19,3.52,2.2,6.44,5.02,8.95,8.33,1.05,1.39,2.44,2.58,3.85,3.62,4.82,3.54,10.3,4.06,16.05,3.29,3.51-.48,6.09-2.43,8.02-5.19.91-1.3,1.19-3.03,1.85-4.52.59-1.33.67-2.56.07-3.94-.55-1.24-.83-2.6-1.28-3.9-.94-2.71-1.85-5.43-2.89-8.1-.32-.83-1.03-1.5-1.45-2.1-2.61.07-4.14,1.12-5.05,3.28-.41.98-1.11,1.9-1.86,2.67-2.23,2.3-6.59,2.94-9.51,1.45-.59-.3-1.16-.79-.63-1.6,1.38-.11,2.73-.3,4.09-.32,2.16-.04,3.57-1.21,4.64-2.92.36-.58.57-1.25.92-1.84,1.06-1.82,2.37-3.34,4.6-3.78.33-.07.58-.51,1.07-.97-1.9-2.86-3.84-5.6-7.07-7.57Zm-97.43,57.76c-2.03-1.73-3.89-3.58-6-5.06-1.88-1.32-3.99-2.39-6.11-3.3-2-.86-4.16-1.36-6.23-2.06-1.11-.38-2.33-.66-2.96-2.1,3.8-.72,7.19-.34,10.56,1.14,3.33,1.46,6.17,3.52,8.57,6.18,2.01,2.23,4.54,3.49,7.35,4.26,2.6.72,4.39.37,7.2-1.18q-2.84-2.31-3.13-5.43c.72.52,1.26.85,1.73,1.26,1.23,1.08,2.47,2.15,3.64,3.3.74.72,1.55,1.06,2.58,1.01.82-.04,1.65.12,2.46.01,4.25-.55,8.45-.37,12.62.63.32.08.72-.14,1.05-.22-.07-3.38-2.06-5.67-4.03-7.96-1.18-1.37-2.54-2.35-4.41-2.76-5.9-1.3-8.17-5.9-9.68-11.1-.06-.2.12-.64.29-.7.33-.12.91-.21,1.06-.03.89,1.02,1.74,2.09,2.5,3.22,1.88,2.81,4.14,5.08,7.55,5.96,1.8.46,3.13,1.64,4.32,3,2.25,2.57,4.74,4.96,5.09,8.69.19,2.07,1.7,3.08,3.63,3.31,2.17.26,4.35.42,6.53.47,4.64.09,9.3-.34,13.92.4,2.3.36,4.6.69,6.91.95.57.07,1.4.28,1.58-.74-1.87-1.35-3.84-2.57-5.58-4.07-2-1.73-4.09-3.16-6.63-3.94-1.05-.32-2.07-.72-3.08-1.14-4.23-1.76-7.24-4.81-9.26-8.88-.09-.18.08-.49.18-1.03.63.31,1.23.51,1.73.87,2.22,1.6,4.35,3.34,6.63,4.84,1.35.89,2.87,1.72,4.43,2.04,2.68.55,4.93,1.82,6.79,3.63,2.99,2.91,6.52,4.98,10.04,7.07,2.1,1.24,4.48,1.92,6.93,2.22.15.02.34-.3.67-.61-3-3.18-5.61-6.6-6.16-11.14,1.32-.93,2.36-.44,2.96.51.95,1.49,1.6,3.16,2.44,4.72,1.34,2.5,2.49,5.15,4.78,7.22,1.45-.34,2.86-.67,4.2-.99.48-1.94.1-3.55-.46-5.08-1.8-4.87-3.54-9.77-6.56-14.1-1.27-1.82-2.54-3.57-4.42-4.78-1.76-1.13-3.36-2.36-3.9-4.54-.09-.36-.4-.73-.7-.97-1.82-1.44-3.63-2.9-5.52-4.25-3-2.14-6.2-3.96-8.92-6.55-3.76-3.59-7.77-6.92-12.38-9.43-3.65-1.99-7.47-3.29-11.73-3.06-2.18.12-4.37-.11-6.56-.1-3.14.02-6.28.01-9.4.21-6.26.4-11.74,3.46-17.6,5.27-6.67,3.96-13.8,7.06-19.49,12.7-4.14,4.11-8.85,7.68-13.24,11.58-5.31,4.72-10.91,9.11-16.11,13.97-3,2.81-6.18,5.42-8.16,9.13-.38.71-1.03,1.28-1.5,1.95-1.48,2.12-3.03,4.2-4.38,6.4-1.07,1.74-1.94,3.61-2.82,5.46-.38.79-.56,1.68-.95,2.89,1.2-.18,2-.23,2.75-.42,1.05-.27,2.07-.7,3.12-.95,3.97-.96,7.82-2.27,11.67-3.59,3.63-1.25,7.38-2.13,11.21-2.37,6.75-.42,13.35.69,19.93,2.09,5.24,1.11,10.08,3.42,15.23,4.79,3.43.91,6.82,1.99,10.27,2.84,2.52.63,5.09,1.05,7.66,1.49,1.46.25,2.94.47,4.42.5,3.96.06,7.93.08,11.89-.02,3.96-.1,7.97-.03,11.87-.63,6.5-1.01,13.08-.9,19.59-1.83,5.25-.75,10.6-.97,15.9-1.53,3.53-.37,7.07-.78,10.62-.84,3.98-.07,7.81-.71,11.68-1.64,3.47-.83,5.89-2.7,7.87-5.45,2.91-4.05,3-6.81.33-10.95-2.01-3.11-4.49-4.08-8.09-3.06-2.11.59-4.17,1.32-5.78,2.96-1.34,1.35-3.18,2.07-4.39,3.64-.86,1.11-2.26,1.5-3.66,1.65-2.04.21-4.07.42-6.14.64-.36.45-.71.86-1.03,1.3-.54.73-.71,2.13-1.83,1.92-1.57-.29-.69-1.78-.92-2.74-.05-.23-.24-.43-.53-.9-6.22-.58-12.61-1.18-19.01-1.76-1.61-.15-3.02.35-3.92,1.74-1.02,1.57-2.77,2.19-4.15,3.28-.88.69-2.04.78-3.15.51-.21-.05-.44-.34-.51-.57-.06-.22-.01-.62.14-.73,1.1-.79,2.28-1.48,3.35-2.32.55-.43,1.56-.72,1.12-1.81-.27-.09-.53-.25-.78-.23-7.17.43-14.19-.38-21.13-2.22-1.7-.45-3.53-.33-5.28-.6-2.85-.45-4.69.72-6,3.2-1.61,3.03-3.71,4.15-7.9,4.38.44-.68.67-1.33,1.13-1.68.86-.66,1.84-1.18,2.8-1.72,1.32-.73,1.98-1.8,1.93-3.62-1.29.07-2.5.08-3.69.22-1.63.19-3.25.49-4.88.7-2.22.3-2.23.28-4.86-.82-.85.94-1.99,1.88-3.42,1.63-2.57-.46-5.12.26-7.67-.07-1.62-.21-3.22-.61-4.85-.78-6.26-.67-12.52-1.27-18.78-1.94-.38-.04-.73-.44-1.55-.96,2.71-.62,4.83-1.03,7.02-1.18,5.54-.38,10.9.63,16.15,2.19,3.32.98,6.39.91,9.41-.85Zm237,9.18c2.11.52,3.8.12,5.44-.7,2.21-1.09,4.38-2.27,6.65-3.2,4.92-2.03,11.02-.22,14.29,4.11.06.08,0,.25-.02.62-2.13-.46-4.32-.68-6.32-1.41-3.63-1.33-6.9-1.11-10.15,1.07-1.66,1.11-3.51,2.05-5.72,1.5-.24-.06-.67.62-1.1,1.04,2.74,2.25,5.8,3.05,8.88,3.55,2.96.48,5.42,1.81,7.77,3.51,2.55,1.84,5.12,3.64,7.16,5.09,2.76.31,4.94.47,7.08.81,2.09.34,3.81,1.52,5.27,3,.45.45.83,1.12-.12,2.03-3.02-.84-5.61-3.65-9.48-3.37.17.7.13,1.31.42,1.62.72.79,1.68,1.37,2.38,2.17,1.52,1.75,2.88,3.64,4.42,5.37,2.68,3.02,4.69,6.42,5.77,10.3.73,2.63,1.31,5.31,1.92,7.98.11.48.31,1.11-.73,1.33-1.36-1.73-2.71-3.54-3.41-5.78-.52-1.7-1.02-3.42-1.7-5.06-1.15-2.78-2.4-5.52-4.66-7.66-1.79-1.69-3.59-3.37-5.25-5.19-3.64-3.98-8.33-6.54-12.54-9.85-1.74,3.93-1.72,4.31.38,6.84.52.63,1.2,1.12,1.74,1.74.33.38.53.86.74,1.21-.64.95-1.36.76-1.96.5-2.53-1.12-4.87-4.98-4.42-7.66.27-1.61.01-2.94-.89-4.44-1.04-.33-2.2-.7-3.36-1.07-4.78-1.52-9.07-3.66-12.05-8.02-1.45-2.11-3.49-3.84-5.39-5.61-1.07-1.01-2.29-1.97-4.32-1.85-.41,3.03-1.47,5.99-1.55,9.15-.05,1.78.61,3.11,2.26,4.04,1.78,1.01,3.54,2.12,5.09,3.44,1.45,1.22,2.68,2.71,3.87,4.2.29.37.04,1.17.04,1.78-.52-.03-.88.06-1.04-.08-3.39-2.98-6.94-5.74-10.8-8.1-1.07-.65-1.6-1.76-1.94-3.03-.61-2.36-.27-4.61.31-6.88.3-1.19.68-2.37.94-3.57.36-1.61.01-2.91-1.54-3.86-.77-.47-1.3-1.33-1.71-1.76-1.84-.39-3.44-.61-4.96-1.07-3.95-1.19-7.39-3.51-11.14-5.16-.56-.25-1.18-.35-1.99-.59-.13,1.42-.22,2.49-.33,3.57-.12,1.22-.04,2.51-.4,3.66-1.46,4.6-.11,8.32,3.26,11.52.59.56,1.12,1.21,1.62,1.85.29.38.48.84.95,1.68-1.01-.22-1.55-.25-2.02-.44-1.56-.63-2.59-1.97-3.86-2.99-2.77-2.22-3.65-5.03-3.16-8.37.41-2.83.94-5.64,1.48-8.45.46-2.42-.33-4.08-2.45-4.82-1.66-.58-3.37-.88-5.07-.88-.34,3.17-.52,6.16-1.03,9.1-.3,1.74-.54,3.43-.29,5.19.01.09-.38.24-.7.42-1.74-1.78-1.57-3.94-1.11-6.08.46-2.15.9-4.27.43-6.47-.23-1.11-.62-2.11-1.95-2.44-1.79.47-3.62,1.09-5.49,1.39-1.66.27-2.87,1.03-3.53,2.47-1.17,2.56-2.96,4.24-5.79,4.67-1.41.22-2.07,1.18-2.58,2.37-.62,1.46-.63,1.45-.44,4.78-1.59-.34-2.31-1.39-2.57-2.85-.44-2.46.75-5.09,2.94-6.29.95-.52,2-.91,3.05-1.18,1.16-.3,1.96-.92,2.44-1.99.42-.94,1.14-1.78,1.39-2.97-1.53-.5-2.84-.86-4.1-1.34-6.46-2.45-13.43,1.84-16.58,6.06-.56.75-.93,1.67-1.24,2.56-1.61,4.6.2,8.32,3.27,11.56,1.39,1.46,2.96,2.91,5.11,3.25,3.78.6,7.54,1.41,11.43,1.16,1.34-.09,2.72.09,4.06.31,5,.84,9.99,1.71,14.42,4.42.45.28,1.04.33,1.56.52,5.14,1.9,10.03,4.22,14.31,7.78,3.17,2.63,6.91,4.52,10.79,5.83,3.35,1.13,6.92,1.63,10.41,2.35,4.56.94,9.2,1.48,13.63,2.99,2.2.75,4.46,1.34,6.65,2.1,3.36,1.17,6.78,2.22,10.01,3.69,5.82,2.66,10.74,6.54,14.41,11.86,1.7,2.47,3.36,4.97,5.13,7.39,2.43,3.33,4.03,7.08,5.5,10.89.64,1.65,1.13,3.37,1.78,5.02.2.51.72.91,1.48,1.82.98-4.78,1.67-8.93.18-13.08-1.19-3.32-1.3-6.7-1.03-10.13.26-3.26.6-6.51.88-9.76.07-.81.2-1.66.07-2.45-.92-5.51-1.05-11.18-3.44-16.39-.34-.73-.43-1.58-.63-2.38-1.11-4.39-2.38-8.7-5.13-12.43-.64-.86-1.09-1.91-1.43-2.94-2.32-7.07-6.21-13.04-12.12-17.65-1.07-.84-2.21-1.64-3.12-2.64-4.39-4.81-9.69-8.45-15.31-11.59-3.68-2.06-7.67-3.53-11.82-4.33-4.03-.78-8.17-1.01-12.18-1.88-4.31-.93-8.62-1.61-13.02-1.38-1.49.08-2.6-.53-3.86-1.46-1.01,1.3-2.39,1.48-3.95,1.61-3.79.32-7.45.98-11,2.78-4.3,2.17-7.02,5.55-9.37,9.45-.64,1.06-.93,2.23-.58,3.72,1.25-.34,2.4-.67,3.56-.95,1.19-.29,2.41-.81,3.59-.74,1.89.1,2.98-.77,4.2-2.04,1.79-1.87,3.81-3.54,5.85-5.14,2.36-1.86,5.1-2.64,8.1-2.03,2.71.55,5.19,1.68,7.49,3.21.15.1.11.49.2.97-1.19.78-2.53.51-3.84.32-1.9-.28-3.78-.65-5.68-.85-.93-.1-2.13-.23-2.79.24-2.39,1.7-5.32,2.73-7.27,5.34,3.41,1.43,6.66,2.69,9.29,5.27,1.92,1.88,4.38,1.43,6.48-.59,1.02-.98,2.07-1.77,3.5-1.96,2.02-.28,3.96.13,6.19.27-.63,1.57-1.35,2.41-2.82,2.37-.96-.03-1.92-.13-2.87-.04-1.41.13-2.58.7-3.19,2.38.37.27.69.53,1.03.74.7.44,1.38.9,2.12,1.26,2.81,1.41,5.03,1,7.54-.99,2.46-1.95,5.01-3.81,7.64-5.53,4.64-3.02,9.53-3.85,14.82-1.53,1.94.85,3.64,1.88,5.01,3.44.37.43.45,1.11.79,2.02-.93-.06-1.47.01-1.95-.14-2.08-.67-4.24-1.22-6.2-2.17-3.28-1.58-6.39-1.03-9.51.25-3.33,1.36-6.17,3.52-9.02,5.67-.49.37-.78,1.02-1.3,1.74,6.92,2.63,12.38,6.85,16.47,12.44Zm-122.46,46.19c.18.66.2,1.37.55,1.84.73.99,1.56,1.92,2.47,2.74,1.87,1.68,2.68,3.74,2.55,6.22-.18,3.41-.25,6.82-.53,10.22-.22,2.63-1.1,5.05-2.93,7.09-1.85,2.06-3.11,4.52-4.05,7.1-.55,1.52-1.12,3.21-.98,4.77.41,4.75,1.15,9.47,1.79,14.2.57,4.19,1.2,8.38,1.77,12.57.83,6.09,1.59,12.2,2.45,18.29.5,3.52,1.35,7.01,1.65,10.54.74,8.85,1.24,17.7,1.01,26.6-.27,10.39-.3,20.78-.42,31.17-.09,7.37-.45,14.73-1.22,22.07-.26,2.46-.54,4.89-1.52,7.2-.62,1.46-1.1,2.98-1.67,4.54.56.1.97.27,1.36.22,2.5-.3,4.21.72,5.36,2.92.35.66.96,1.18,1.52,1.84,1.52-1.13,2.82-2.1,4.13-3.07-.23-2.57-.53-5.01-.66-7.46-.39-7.1-.83-14.2-1.01-21.31-.1-3.81.29-7.64.5-11.46.24-4.49.74-8.99.72-13.48-.03-5.33-.45-10.66-.81-15.98-.1-1.46-.48-2.9-.92-4.35-.72-2.33-1.05-4.8-1.39-7.23-.15-1.06-.03-2.19.15-3.26.07-.44.57-1.05.97-1.12.38-.07,1.11.35,1.26.73.46,1.13.8,2.32,1.04,3.52.38,1.88.61,3.78.97,5.66.12.61.44,1.18.67,1.77.26-3.07.06-6.03-.22-8.97-.06-.66-.37-1.33-.7-1.91-.87-1.54-1.69-3.16-2.79-4.53-.91-1.13-1.37-2.28-1.53-3.69-.82-7.2-1.72-14.38-2.56-21.58-.24-2.04-.3-4.1-.61-6.13-1.13-7.34-.97-14.72-.51-22.08.16-2.56.7-5.09,1.6-7.58,1.77-4.92,2.92-9.98,2.36-15.29-.24-2.3-.04-4.63-.74-6.91-.48-1.55-.56-3.22-.85-4.83-.35-1.89-.15-3.58,1.74-4.61,1.32-.72,1.89-1.98,2.27-3.29.41-1.44.75-2.94.79-4.42.05-1.85.55-3.49,1.45-5.06.6-1.04,1.19-2.09,1.78-3.13-.2-.12-.31-.22-.44-.24-.79-.11-1.8.06-2.3-.37-.5-.43-.62-1.44-.69-2.22-.11-1.16-.03-2.33-.03-4.15-.95,1-1.43,1.63-2.03,2.09-1.65,1.28-2.08,2.89-2.19,4.98-.22,3.93-1.27,7.71-3.18,10.93-2.55.81-2.91-2.62-5.39-2.09Zm3.52-2.23c.46-.75.62-.97.74-1.22,1.29-2.66,1.38-5.54,1.55-8.4.1-1.73.6-3.1,2.22-4.09.85-.52,1.39-1.59,1.99-2.47,1.47-2.12,1.44-4.61,1.66-7.04.27-2.9-.71-5.67-.88-8.51-.32-5.62-1.94-11.03-2.58-16.6-.06-.54-.27-1.06-.43-1.58-.7-2.35-1.54-4.67-2.08-7.05-1.2-5.37-3.62-10.26-5.72-15.28-.09-.22-.37-.36-.57-.54-.14.01-.31-.03-.4.04-.54.4-1.11.78-1.59,1.25-3.76,3.65-8.21,5.23-13.45,4.65-2.96-.32-5.94-.5-9-.75,1.36,3.66,2.67,7.18,4.07,10.95,3.19-2.17,6.45-3.43,10.03-3.93,5.14-.71,9.08,1.15,11.63,5.68.27.48.54.95.81,1.43,2.34,4.12,2,9.63-.94,13.42-1.42,1.82-3.09,3.45-4.57,5.23-1.02,1.22-2.29,1.89-3.78,2.3-1.43.4-2.97.55-4.16,1.69.06.38.04.81.19,1.17,1.95,4.65,3.83,9.33,5.92,13.92,1.53,3.35,3.23,6.64,5.07,9.83,1.14,1.98,2.68,3.73,4.28,5.91Zm15.78-10.32c-.07.09-.17.18-.18.28-.01.1.08.2.12.31.07-.09.17-.18.18-.28.01-.1-.08-.21-.12-.31Z"/>
    <path class="cls-1" d="m409.6,595.76c-2.53.39-4.4.77-6.29.94-2.08.19-3.7-.76-4.86-2.48-.99-1.47-1.88-3.03-2.98-4.42-1.5-1.91-3.37-1.95-5.26-.3-2.14,1.87-3.26,1.82-5.1-.32-.61-.71-1.12-1.52-1.63-2.22-1.86-.39-3.45,0-4.76,1.09-1.17.98-2.45,1.11-3.85.93-.27-.03-.54-.11-.81-.16-2.81-.55-4.76.73-6.19,2.99-.65,1.04-1.1,2.21-1.76,3.24-1.19,1.85-3.27,2.13-4.91.69-.51-.45-.86-1.06-1.33-1.55-2.6-2.66-5.77-3.12-8.92-1.14-1.37.87-2.57,2.03-3.82,3.09-.84.71-1.57,1.54-2.46,2.17-1.85,1.31-3.32,1.29-4.8-.18-.48-.48-1.04-.89-1.55-1.35-.76-.7-1.62-.88-2.65-.73-4.3.59-8.33,1.69-10.88,5.63-.07.11-.16.22-.27.31-.82.67-1.47,1.74-2.79,1.19-.99-.41-.91-1.23,0-3.23,2.1-4.64,6.07-6.85,10.64-8.31.39-.12.83-.08,1.21-.21,2.96-1.03,5.63-.7,7.95,1.56.17.16.5.16,1.04.32,1.46-1.14,3.08-2.36,4.65-3.64,3.99-3.27,8.98-3.77,13.31-1.25.7.41,1.35.91,2.13,1.44,2.98-2.21,4.73-6.32,9.11-5.94.89-.79.19-1.33.04-1.93-.35-1.35.27-2.54,1.14-3.35,1.69-1.57,3.52-3.02,5.43-4.32,1.24-.84,2.75-1.23,4.21-.45.87-1.87,1.64-3.44,2.35-5.04,1.45-3.24,5.75-4.79,9.1-3.46.88.35,1.77.65,3.16,1.15.32-.5.61-1.16,1.09-1.63,2.49-2.45,5.47-2.92,8.61-1.42,1.46.7,2.91,1.44,4.56,2.26,1.34-1.7,2.07-3.84,4.23-4.4,1.31-.34,2.67-.75,3.99-.7,1.32.06,2.67.53,3.91,1.06,1.38.6,2.44,1.66,3.08,2.95-.33,1.05-1.06,1.06-1.71.89-1.45-.37-2.84-1.07-4.3-1.23-2.51-.28-3.36.38-4.37,2.77-.21.5-.34,1.04-.54,1.55-.54,1.37-1.63,2.16-2.96,2.66-.82.31-1.76.38-2.29-.33-1.9-2.53-4.87-2.76-7.51-3.68-1.61.26-2.08,1.62-2.8,2.77-1.45,2.33-2.75,2.63-5.05,1.18-.34-.22-.62-.55-.96-.77-2.77-1.82-4.29-1.46-6.02,1.44-.83,1.4-1.6,2.84-2.41,4.26-1.39,2.42-1.58,2.48-4.62,1.7-.25-.07-.53-.06-.98-.1-.64.5-1.44,1.03-2.12,1.68-1.16,1.11-2.25,2.3-3.31,3.4.39,1.09,1.06.91,1.74.74,1.98-.51,3.96-.99,5.94-1.52,2.36-.64,4.32-.13,5.55,1.88,1.88-.2,3.5-.48,5.12-.51,2.11-.03,4.01.47,5.4,2.35,1.36,1.86,2.94,3.57,4.62,5.59.87.44,2.15.59,3.24-.1,2.71-1.69,4.96-.6,7.2.92.68.46,1.31,1.05,2.05,1.35,1.26.5,2.59.85,3.91,1.19.66.17,1.37.1,2.03.24,1.25.28,2.16,1.21,2.2,2.13.06,1.24-1.15,2.52-2.66,2.63-3.23.23-6.25-.48-8.96-2.31-.9-.61-1.8-1.22-2.5-1.7Z"/>
    <path class="cls-1" d="m353.81,625.13c.35-2.55,2.44-3.57,4.35-4.5,3.21-1.57,6.57-1.9,9.82.11.93.57,1.96,1.03,2.76,1.74,1.41,1.25,2.97,1.45,4.58.78,2.56-1.06,5.27-1.41,7.96-1.88.81-.14,1.62-.3,2.43-.34,4.79-.22,8.43,1.97,10.44,6.39.79,1.73,1.53,3.53,1.96,5.38.78,3.34,2.87,5.15,6.07,5.93,1.72.42,3.43.9,5.38,1.41.14-.05.57-.13.88-.37,2.38-1.79,5.02-2.19,7.77-1.19,1.88.68,3.12.14,4.28-1.31.76-.95,1.74-1.73,2.6-2.61,3.09-3.17,7.13-3.87,11.26-4.15,1.16-.08,2.39.51,3.54.91.75.27,1.42.76,2.19,1.19,3.66-1.44,7.43-1.95,11.29-1.82,3.07.1,5.98.48,8.13,3.07.5.6,1.38.87,2.03,1.37,1.31,1.02,1.65,2.57.85,3.56-1.08,1.33-3.14,1.71-4.42.72-.64-.49-1.28-1.09-1.69-1.77-.8-1.33-1.98-1.74-3.43-1.87-4.01-.38-7.87-.23-11.55,1.8-2.58,1.43-3.43,1.08-5.53-1.42-.26-.31-.48-.66-.51-.7-.53-.13-.66-.19-.79-.2-4.29-.15-7.68,1.45-10.11,5.07-.45.67-1.15,1.16-1.75,1.72-2.07,1.95-4.56,2.63-7.2,1.68-2.07-.75-3.64-.54-5.22.98-1.44,1.38-3.08,1.46-4.89.41-1.28-.74-2.73-1.19-4.14-1.69-.9-.32-1.86-.46-2.76-.76-3.01-1-5.25-2.81-6.27-5.94-.63-1.95-1.31-3.89-2.1-5.77-1.97-4.67-2.96-5.27-8.14-4.97-1.49.09-2.96.43-4.43.74-1.47.31-2.91.82-4.38,1.08-2.08.37-4.07.18-5.84-1.21-.96-.76-2.09-1.32-3.05-2.08-2.15-1.71-4.46-1.94-6.93-.89-1.26.53-2.48,1.16-3.69,1.78-.78.4-1.28-.13-1.85-.45l.1.08Z"/>
    <path class="cls-1" d="m499.1,597.39c6.25-3.54,12.45-4.43,18.78-.12,2.01-.71,3.96-1.75,6.24-1.48,2.19.26,4.27.6,6.23,1.81,1.99,1.22,2.83,3.28,4.24,4.99.83.12,1.63.27,2.44.35,3.32.31,5.15,2.24,5.95,5.35.43,1.7.9,3.39,1.38,5.2,4.08-1.7,7.97-2.7,12.45-1.82,2.6-2.46,5.89-2.32,9.32-1.31,3.27.97,6.75,5.01,7.11,8.32.12,1.08-.55,2.16-1.6,2.59-1.03.43-1.97,0-2.74-1.16-.9-1.36-1.79-2.72-2.78-4.01-.4-.52-1.01-.93-1.61-1.24-1.32-.67-2.65-.49-3.58.81-1.49,2.07-3.2,2.11-5.39,1.34-2.67-.93-5.35-.52-7.83.78-4.3,2.25-6.06,1.71-7.87-2.75-.62-1.51-.89-3.15-1.36-4.73-.7-2.38-1.13-2.67-3.45-2.41-.54.06-1.07.28-1.6.28-1.16,0-2.15-.42-2.7-1.53-.31-.61-.63-1.22-.87-1.86-1.13-3.01-4.11-4.37-7.8-3.66-.4.08-.79.23-1.17.37-2.58.97-4.86.88-7.34-.8-2.98-2.01-6.42-2.17-9.77-.49-1.59.8-3.17,1.61-4.96,2.51-.61-.31-1.52-.5-1.99-1.06-3.35-4.01-7.52-3.86-11.97-2.56-.36.11-.75.14-1.1.2-.76-.99-.22-1.57.48-2.07,4.04-2.93,9.5-3.04,13.82-.31.22.14.5.2,1.07.42Z"/>
    <path class="cls-1" d="m507.97,618.34c-1.53,1.02-3.32,1.39-5.3.99-1.36-.27-2.7.08-3.94.8-2.48,1.44-4.98,2.83-7.47,4.23-.83.47-1.63,1.02-2.52,1.35-2.39.91-3.83.42-5.26-1.68-.31-.45-.59-.92-.84-1.41-1.16-2.33-3.12-2.96-5.5-2.48-1.74.35-3.45.85-5.14,1.37-2.28.7-4.14.15-5.24-1.95-1.19-2.27-2.96-3-5.39-2.79-2.44.2-4.92,0-7.06,1.59-.62.47-1.69-.53-1.48-1.35.13-.51.29-1.14.66-1.43.84-.67,1.76-1.3,2.75-1.71,2.57-1.06,5.32-1.14,8.06-1.11,1.4.02,2.68.55,3.75,1.47.92.79,1.81,1.63,2.68,2.42,2.34-.46,4.58-1.01,6.85-1.33,4.08-.57,7.22.88,9.19,4.61.18.34.58.55.86.81,3.12-1.76,6.17-3.56,9.3-5.21,2.05-1.08,4.19-1.9,6.64-1.35.71.16,1.57-.19,2.32-.45,2.59-.92,4.82-.5,6.71,1.57.55.6,1.24,1.08,1.82,1.66.9.9,1.01,1.64.45,2.54-.68,1.08-1.65,1.55-2.79,1.05-1.35-.59-2.61-1.4-4.11-2.22Z"/>
    <path class="cls-1" d="m569.76,632.34c2.17-1.49,4.41-1.77,6.8-1.5,2.31.26,4.65.25,6.95.58,1.31.19,2.65.69,3.82,1.34,1.69.94,1.81,2.7.44,4.18-.63.68-1.54.81-2.27.41-2.91-1.6-6.14-1.12-9.23-1.52-1.16-.15-2.58,0-3.58.55-2.43,1.36-4.83.84-7.13.07-1.37-.45-2.63-.45-3.99-.5-4.28-.14-8.39.42-12.4,2.06-1.6.66-3.47.78-5.23.87-.86.04-1.88-.37-2.59-.9-1.53-1.13-2.89-2.48-4.35-3.71-1.29-1.09-1.79-1.08-3.25-.13-.67.44-1.35.9-2.08,1.2-.27.11-.85-.13-1.06-.39-.19-.24-.23-.83-.06-1.08.68-1,1.36-2.03,2.23-2.85,1.14-1.07,2.59-1.65,4.14-.99,1.62.69,3.4,1.3,4.69,2.43,1.96,1.71,3.98,1.52,6.15.98.65-.16,1.24-.56,1.89-.78,2.73-.95,5.5-1.54,8.43-1.52,3.96.02,7.94-.36,11.69,1.19Z"/>
    <path class="cls-1" d="m312.37,617.97c2.33-.99,4.2-1.76,6.06-2.57,1-.44,1.94-1.04,2.98-1.38,1.62-.54,3.16-.45,4.66.65,2.31,1.69,4.77,3.11,7.56,3.97,2.01.62,3.08,2.1,2.57,3.14-.74,1.51-2.34,1.49-3.59,1.33-2.08-.26-4.28-.1-6.05-1.93-.96-1-2.66-1.28-4.26-2-2.71,1.14-5.59,2.36-8.47,3.56-1.04.43-2.05.62-3.17.15-1.2-.5-2.14-1.2-2.61-2.44-.34-.89-.68-1.79-1.01-2.69-.99-2.7-1.31-2.9-4.26-2.43-2.03.33-4.04.73-6.07,1.07-.53.09-1.18.27-1.59.05-.53-.27-1.06-.83-1.26-1.39-.13-.36.22-1.17.58-1.36,1.21-.62,2.49-1.14,3.79-1.53,1.83-.55,3.69-1.05,5.57-1.39,4.13-.75,6.82.96,8.08,4.99.16.5.24,1.03.5,2.16Z"/>
    <path class="cls-1" d="m426.92,615.23c-1.18.23-2.63.54-4.09.78-1.15.19-1.98-.24-2.39-1.12-.47-1.01-.14-2.22,1-2.77,2.21-1.07,4.51-1.95,7.01-2.05,1.12-.04,2.15.34,2.91,1.24.43.51.85,1.03,1.34,1.62,1.51-.07,3-.19,4.49-.18,2.13,0,4.04.44,5.17,2.59.36.69,1.2,1.12,1.67,1.77.62.85.51,1.81,0,2.7-.47.8-1.57,1.28-2.48.9-.97-.42-2.04-.91-2.71-1.68-1.17-1.34-2.52-1.49-4.07-1.21-1.45.26-2.91,1.43-4.33.63-1.24-.7-2.16-1.95-3.5-3.22Z"/>
    <path class="cls-1" d="m353.71,625.05c-.05.3-.1.59-.15.89-.07-.09-.21-.22-.2-.25.13-.2.29-.37.44-.56,0,0-.1-.08-.1-.08Z"/>
    <path class="cls-1" d="m430.56,421.16c1.64-1.16,2.71-1.04,3.61.17,1.46,1.97,1.63,4.2.35,6.14-1.18,1.8-1.94,3.55-1.8,5.68.02.26-.09.53-.18.79-.32.91-1.72,1.19-2.38.47-1.83-1.97-1.97-5.77-.27-7.92.42-.53,1.03-.94,1.3-1.52.27-.58.37-1.33.27-1.96-.09-.6-.54-1.14-.9-1.85Z"/>
  </g>
</svg>