<?xml version="1.0" encoding="UTF-8"?>
<svg id="Laag_1" data-name="Laag 1" xmlns="http://www.w3.org/2000/svg" viewBox="0 0 850.39 850.39">
  <defs>
    <style>
      .cls-1 {
        fill: #131f48;
      }

      .cls-1, .cls-2 {
        stroke-width: 0px;
      }

      .cls-2 {
        fill: #a5d6af;
      }
    </style>
  </defs>
  <path class="cls-2" d="m193.34,267.69s-144.85,252.36-21.5,344.03,282.67-15.24,423.25-24.9,270.47-149.38,201.44-348.56-207.82-43.78-320.26-29.42c-38.48,3.4-244.44-24.9-282.92,58.85Z"/>
  <g>
    <path class="cls-1" d="m320.29,438.17c4.92.26,9.88-.7,14.78.05,3.37.52,6.73,1.11,9.99,2.18,3.01.98,6.01,2,9.07,2.81,4.29,1.14,8.47,2.58,12.58,4.2,1.41.55,2.76,1.31,4.03,2.14,2.43,1.59,4.78,3.29,7.17,4.95.83.58,1.67,1.14,2.5,1.72,1.14.8,2.28,1.59,3.4,2.41.72.52,1.32,1.23,2.1,1.63,4.65,2.42,8.69,5.74,12.72,8.98,2.91,2.34,6.02,4.66,8.09,7.95.47.74,1.18,1.32,1.77,1.98.59.66,1.27,1.27,1.74,2.01,1.95,3.1,4.07,6.13,5.69,9.4,2.47,4.99,4.9,10.04,6.74,15.28,1.41,4.02,2.49,8.19,3.32,12.44,1.25,6.35,1.86,12.76,2.67,19.14.62,4.9.07,9.86-.88,14.75-.92,4.75-2.31,9.33-4.19,13.79-.84,1.98-1.16,4.19-2.09,6.11-1.38,2.84-3.05,5.54-4.71,8.23-1.05,1.71-2.32,3.27-3.45,4.94-3.02,4.48-7.43,7.56-11.21,11.29-3.79,3.75-7.8,7.23-11.9,10.62-2.92,2.41-5.56,5.15-8.43,7.62-2.7,2.33-5.72,4.21-9.02,5.58-5.63,2.34-11.41,4.15-17.46,5.13-7.88,1.28-15.75,2.67-23.55,4.42-3.8.85-7.71,1.54-11.68,1.13-.88-.09-1.79-.14-2.66-.04-5.81.68-11-1.16-15.99-3.85-.22-.12-.42-.31-.65-.39-5.3-1.9-9.73-5.38-14.6-8.06-3.22-1.78-6.53-3.38-9.8-5.06-.67-.35-1.39-.64-2-1.08-3.79-2.75-7.65-5.41-11.28-8.35-1.94-1.57-3.65-3.44-4.83-5.79-.95-1.9-2.45-3.52-3.59-5.33-2.02-3.21-4.03-6.43-5.91-9.73-1.57-2.75-2.83-5.68-4.44-8.41-1.82-3.1-2.96-6.41-3.85-9.85-1.13-4.4-2.39-8.77-3.42-13.19-.54-2.33-.82-4.74-.97-7.13-.18-2.9-.17-5.81-.13-8.71.05-3.8.06-7.61.34-11.4.29-3.91.78-7.82,1.38-11.7.26-1.73.91-3.43,1.52-5.09.7-1.92,1.35-3.8.82-5.91-.15-.58.03-1.26.13-1.88.76-4.73,2.5-9.01,5.79-12.58.26-.28.57-.53.77-.85,2.72-4.31,6.23-7.99,9.62-11.74,4.07-4.5,7.81-9.37,12.77-12.94,3.41-2.45,6.41-5.35,9.73-7.86,3.01-2.28,6.38-4.1,9.65-6.01,3.38-1.98,6.83-3.83,10.26-5.72,1.66-.91,3.25-1.99,5.23-2.17.49-.05,1-.24,1.44-.48,3.26-1.76,6.78-1.73,10.33-1.61,1.52.05,3.04,0,4.56,0Zm78.63,154.62c.7-.09,1.26-.29.81-1.63-.34.8-.54,1.25-.74,1.7-1.45.39-1.48.43-1.29,1.76-.36-.02-.84-.19-1.05-.03-1.26,1-2.46,2.06-3.66,3.13-.22.19-.35.49-.56.82.39.02.7.13.82.03,1.46-1.33,2.9-2.69,4.32-4.06.45-.57.9-1.14,1.35-1.71Zm-93.84-52.52c-.48.84-.97,1.67-1.53,2.65.99.91,1.89,1.72,3.11,2.84-.18-2.28-.63-4.01-1.66-5.56.16-.13.32-.26.48-.39-.13.15-.26.3-.39.45Zm43.61,81.44c.76,0,1.53.11,2.27-.01,5.48-.9,10.96-1.63,16.24-3.69,4.57-1.78,8.73-3.96,12.16-7.46.62-.63,1.26-1.24,1.93-1.82,2.96-2.55,5.94-5.07,8.91-7.62.33-.29.59-.65,1.22-1.36-.85.17-1.25.13-1.5.31-1.14.8-2.27,1.61-3.34,2.5-2.92,2.44-5.95,4.68-9.38,6.39-1.69.84-3.28,1.93-4.78,3.07-2.25,1.7-4.71,2.94-7.33,3.93-3.08,1.15-6.11,2.44-9.2,3.56-2,.73-3.94,1.71-6.17,1.71-.31,0-.62.38-.94.59-.54.09-1.08.19-1.62.28.04.1.07.19.11.29.48-.22.95-.44,1.43-.66Zm-1.34-106.79c-2.47-.94-4.9-2.05-7.43-2.79-2.9-.84-5.89-1.39-8.85-2-1.93-.4-4.44,1.38-4.85,3.33-.23,1.11.06,1.9,1.16,2.54,2.07,1.2,4.05,2.54,6.52,2.95,1.48.25,2.95.76,4.32,1.39,2.15,1,4.39,1.11,6.67,1.06.46,0,1.04-.03,1.19-1.04-.4-.34-.87-1.07-1.47-1.19-1.95-.4-3.91-1.22-5.95-.57-2.54.82-4.4-.45-6.21-1.9-.82-.66-1.13-1.69-.77-2.32.54-.93,1.47-.84,2.35-.81.25,0,.51.07.74.15,3.74,1.39,7.75.54,11.56,1.32.34.07.73-.14,1.1-.22-.02.35-.2.82-.03,1.03.54.7,1.26,1.25,1.8,1.95,1.1,1.44,1.2,3.12.4,4.66-.82,1.57-1.96,3.03-4.01,3.08-2.25.05-4.5.01-7.18.01-.6.56-1.54,1.4-2.44,2.27-2.17,2.1-4.68,3.36-7.9,2.95-.31.79-.58,1.47-.84,2.16-.66,1.77-1.28,3.55-1.99,5.3-.23.58-.67,1.1-1.57.64-.38-1.32-.04-2.68.19-4.04.25-1.5.59-2.98.75-4.49.14-1.38-.98-2.6-2.34-2.32-1.82.37-3.64.96-5.33,1.74-1.36.62-2.54,1.64-3.75,2.54-2.36,1.74-3.98,3.92-3.77,7.03.26,3.81,1.71,7.1,4.53,9.71.43.4,1.12.74,1.68.72,1.38-.04,2.96.06,4.1-.56,2.43-1.31,4.76-2.88,6.87-4.66,1.51-1.28,2.92-2.9,3.81-4.65,2.05-4.03,4.62-7.47,8.36-10.09,1.81-1.27,3.6-2.29,5.86-2.39,3.36-.16,6.38-1.53,9.41-2.83.87-.37,1.38-1.01,1.63-1.96.54-2.11.22-3.4-1.5-4.66-2.05-1.49-4.16-2.91-6.84-3.07Zm31.81,75.65c-2.08,1.16-4.18,2.27-6.22,3.5-2.95,1.78-5.97,3.33-9.34,4.15-.37.09-.83.08-1.08.3-2.01,1.82-4.67,1.84-7.06,2.59-.6.19-1.25.21-1.82.45-2.91,1.24-5.86,2.4-8.67,3.83-3.4,1.74-6.98,2.17-10.71,2.06-2.92-.09-5.85-.33-8.76-.13-4.86.33-9.6-.97-14.43-.82-.6.02-1.23-.29-1.83-.49-4.57-1.5-9.12-3.06-13.71-4.49-2.21-.69-4.18-1.75-6.08-3.05-2.39-1.63-4.59-3.51-7.01-5.11-2.76-1.82-5.3-3.96-6.5-7.24-1.65-1.43-1.53-3.63-2.34-5.43-2.57-5.77-5.81-11.25-7.56-17.38-.07-.24-.21-.46-.33-.68-2.9-5.34-4.13-11.14-4.56-17.12-.25-3.54-.15-7.11-.44-10.65-.21-2.58.07-5.05.66-7.52.41-1.73.63-3.52,1.21-5.18,1.13-3.22,2.31-6.44,3.77-9.51,1.16-2.44,2.07-4.87,2.24-7.59.28-4.69,2.82-10.14,5.93-13.65,2.48-2.81,5.33-5.02,8.76-6.5,1.65-.71,2.88-1.82,4.08-3.21,2.57-2.99,5.72-5.38,9.37-7.02,3-1.35,6.01-2.68,8.99-4.08,1.98-.93,4.04-1.45,6.18-1.78,2-.31,3.97-.77,5.95-1.19,3.34-.71,6.64-1.58,10.01-2.13,2.37-.38,4.8-.43,7.21-.45,2.53-.02,5.11-.12,7.58.31,3.99.69,7.9,1.78,11.87,2.69.1-.02.2-.05.3-.07-.14.03-.27.06-.41.09-.15-.2-.25-.48-.45-.58-4.08-2.21-7.71-5.34-12.66-5.7-1.36-.1-2.67-.78-4-1.19-.85-.26-1.7-.52-2.55-.74-1.86-.49-3.69-.6-5.58.05-1.3.45-2.75.86-4.07.73-2.47-.25-4.76.4-7.11.81-.62.11-1.22.35-1.84.43-2.64.34-5.31.49-7.91,1.01-3.49.69-6.89,1.69-9.52,4.35-.7.71-1.56,1.35-2.46,1.77-3.34,1.54-6.48,3.41-9.65,5.25-2.88,1.68-5.4,3.71-7.56,6.18-2.75,3.14-5.39,6.38-8,9.64-1.34,1.68-2.53,3.48-3.71,5.28-3.13,4.78-5.87,9.77-7.79,15.17-.53,1.47-1.31,2.71-2.31,3.34-.27,1.64-.08,3.29-.81,4.21-1.09,1.39-.88,2.67-.91,4.17-.07,2.91-.43,5.81-.67,8.71-.59,7.26.13,14.4,1.72,21.49,1.06,4.72,2.83,9.2,4.82,13.58,1.72,3.8,3.41,7.67,5.64,11.18,4.42,6.94,9.1,13.72,14.19,20.21,4.83,6.15,10.99,9.97,18.79,11.11,2.38.35,4.71,1.01,7.08,1.42,2.49.43,4.99.85,7.5,1.06,1.62.13,3.28-.19,4.92-.21,2.91-.04,5.82.06,8.73-.41,2.12-.34,4.31-.51,6.45-.4,4.26.23,8.3-.39,12.19-2.17,1.97-.9,4.06-1.39,6.25-1.42.88-.01,1.85.02,2.61-.32,2.77-1.24,5.55-2.51,8.19-4,2.75-1.55,5.3-3.44,8.03-5.03,3.46-2.02,4.09-2.49,7.12-6.53.43-.14.9-.21,1.27-.44.19-.12.21-.53.49-1.35-1.06.71-1.83.85-1.69,1.86Zm-87.36-11.03c.27-.05.55-.09.82-.14-.28.04-.56.08-.84.12.1-.36.36-.78.25-1.06-.17-.45-.61-.79-.89-1.2-1.38-1.97-3.19-3.77-4.01-5.95-1.46-3.9-3.33-7.66-4.35-11.74-.26-1.04-.89-2.21-1.71-2.86-2.19-1.76-2.84-4.07-3.09-6.67-.12-1.26-.23-2.55-.59-3.74-.38-1.26-.53-2.49-.27-3.74.27-1.32.08-2.39-.76-3.53-2.84-3.88-2.8-7.94-.54-12.13,1.02-1.89,1.98-3.86,2.59-5.91,1-3.39,1.73-6.87,2.52-10.33,1.3-5.71,3.83-10.71,8.21-14.68.65-.59,1.31-1.23,2.07-1.64,3.23-1.74,6.44-3.57,9.79-5.05,2.99-1.32,6.16-2.24,9.27-3.3.59-.2,1.24-.28,1.87-.3,5.95-.18,11.9-.37,17.85-.49,7.5-.15,14.65,1.22,20.96,5.51,3.46,2.35,6.81,4.87,10.12,7.43,1.8,1.39,3.51,2.91,5.1,4.53,3.68,3.73,7.05,7.65,7.82,13.14.28,2.02.38,2-.72,4.26.35.33.95.63,1,.99.26,2.26.47,4.62-.58,6.67-1.01,1.97-1.77,4.24-3.96,5.41-.28.15-.51.56-.59.89-.44,1.83-1.69,3.11-3.02,4.25-2.01,1.72-3.52,3.99-6.01,5.18-.82.39-1.48,1.3-1.2,2.43.45,0,.74.09.91-.01,4.89-3.01,9.92-5.62,15.82-5.93.38-.02.77-.1,1.11-.24,2.38-.95,4.37-2.19,5.6-4.71,1.52-3.12,1.78-6.3,1.58-9.61-.37-5.98-1.69-11.75-3.8-17.37-.87-2.31-2.06-4.33-3.69-6.13-5.01-5.55-11.25-9.38-17.78-12.82-2.12-1.12-4.16-2.41-6.26-3.56-1.1-.61-2.22-1.31-3.42-1.6-4.55-1.1-9.1-2.21-13.69-3.17-3.62-.75-7.08-1.35-10.81-1.04-2.73.22-5.51-.04-8.25.5-4.45.88-9,1.32-13.36,2.66-.83.26-1.76.25-2.64.32-4.16.34-8.14.97-11.72,3.52-2.12,1.51-4.74,2.32-6.99,3.73-.25.16-.7.02-1.06.02-.21-.06-.42-.17-.63-.17-.11,0-.22.2-.34.31.11.02.23.07.34.05.22-.04.44-.12.66-.19-.49.57-.91,1.24-1.49,1.69-5.18,4.04-7.12,9.49-7.36,15.88-.1,2.7.75,5.53-.69,8.14-.07.14,0,.46.13.58,1.02,1.06.67,2.39.68,3.61.02,3.03.07,6.07-.11,9.1-.27,4.66-.79,9.31-1.06,13.97-.3,5.24.19,10.34,3.25,14.89.91,1.36,1.63,2.85,2.38,4.31,3.43,6.76,7.88,12.59,14.77,16.2.32.17.56.49.84.73Zm91.53-38.18c.78-.33,1.24.23,1.54.73,1.57,2.62,2.92,5.34,2.58,8.53-.33,3.02-.55,6.07-1.11,9.06-.72,3.84-1.05,7.84-3.31,11.21-2.32,3.47-4.7,6.92-7.22,10.26-.81,1.07-2.03,1.92-3.22,2.59-2.21,1.23-4.51,2.3-6.82,3.34-1.39.63-2.66,1.34-3.87,2.32-2.35,1.9-4.85,3.64-7.43,5.22-2.58,1.57-5.27,2.97-8.09,4.14-3.1,1.29-6.1,1.54-9.13-.06-1.57-.83-3.11-1.7-4.68-2.52-2-1.04-4.01-2.06-6.23-2.71-3.7,3.41-7.66,2.9-11.72.95-1.6-.77-3.29-1.36-4.79-2.28-2.85-1.76-6.05-2.6-9.17-3.54-2.62-.8-4.94-1.88-7.04-3.58-1.07-.86-2.24-1.62-3.43-2.31-2.16-1.25-4.76-1.86-6.04-4.33-3.52-2.23-5.91-5.49-8.06-8.93-1.54-2.47-2.76-5.14-4.38-7.55-2.56-3.81-3.81-8.01-3.91-12.51-.1-4.68-.15-9.39.29-14.05.47-4.93.48-9.86.52-14.79,0-.38.26-1.08-.76-1.12-1.83,4.03-2.86,8.38-3.18,12.73-.39,5.28-.1,10.63.17,15.93.21,4.07,1.77,7.89,2.94,11.76.22.72.6,1.39.92,2.08,1.69,3.54,3.46,7.05,5.06,10.63,1.44,3.22,2.62,6.56,4.06,9.79,1.2,2.68,2.95,5,5.29,6.83,1.9,1.48,3.78,2.98,5.66,4.49,2.79,2.24,5.79,4.08,9.26,5.09,2.19.64,4.33,1.51,6.55,1.98,2.96.63,5.72,2.04,8.84,2.09,4.94.08,9.88.35,14.81.56,1.9.08,3.79.3,5.69.27,3.79-.07,7.47-.27,10.97-2.32,3.37-1.96,7.11-3.3,10.74-4.79,1.75-.72,3.62-1.14,5.4-1.79,2.84-1.05,5.62-2.29,8.49-3.24,1.1-.36,2.04-.88,2.96-1.49,1.05-.7,2-1.52,3.01-2.27,3.1-2.29,5.5-5.16,7.58-8.42,3.12-4.87,4.62-10.4,6.9-15.61.71-1.62,1.3-3.31,1.74-5.03,1.04-4.04,1.95-8.12,2.91-12.18.41-1.72,1.08-3.43,1.19-5.17.21-3.54.14-7.1.12-10.65,0-.74-.25-1.49-.45-2.22-.73-2.69-1.5-5.36-2.24-8.05-1.16-4.15-2.48-8.26-3.42-12.46-.98-4.43-3.12-8.27-5.33-12.12-.18-.31-.43-.65-.74-.81-1.66-.85-2.56-2.41-3.71-3.76-1.07-1.25-2.53-2.26-3.27-3.67-.86-1.65-2.45-2.07-3.72-3-1.93-1.42-3.98-2.69-6.07-3.86-2.38-1.33-4.36-3.21-6.77-4.55-4.34-2.43-8.71-4.59-13.7-5.34-1.87-.28-3.69-1.22-5.54-1.24-5.8-.08-11.63-.47-17.37,1.09-6.8,1.84-13.99,2.26-20.36,5.69-1.43.77-3.08,1.13-4.61,1.73-.31.12-.54.46-1.17,1.03.98,0,1.55.07,2.1-.01,2.88-.42,5.81-.67,8.63-1.38,3.82-.96,7.62-1.71,11.59-1.59,2.14.07,4.33.08,6.41-.31,2.63-.49,5.02-.18,7.41.89.57.26,1.2.42,1.82.55,4.34.88,8.72,1.6,12.82,3.42.33.15.75.09,1.12.13,1.83.19,3.34,1.02,4.8,2.1,1.52,1.13,3.11,2.23,4.83,3,2.92,1.3,5.61,2.94,8.26,4.68,1.37.9,2.79,1.74,4.2,2.57,3.78,2.22,6.78,5.3,9.51,8.66.71.87,1.31,1.91,1.67,2.96,1.77,5.29,3.17,10.67,4.19,16.16.63,3.42.1,6.83.07,10.24-.02,2.34-.58,4.51-2.08,6.38-.55.69-1.06,1.43-1.44,2.23-.19.41-.04.98-.05,1.47h-.89v.02h.87Zm-133.29-2.67c.27-.95.44-1.29.46-1.64.17-3.29.21-6.58.49-9.86.21-2.52.52-5.06,1.13-7.51,1.78-7.17,4.84-13.89,8.04-20.5,1.81-3.74,3.89-7.38,6.82-10.48,1.99-2.1,3.72-4.47,5.46-6.79,4.72-6.3,10.48-11.35,17.61-14.76,2.52-1.2,5.05-2.36,7.13-4.3.54-.5,1.3-.76,1.98-1.1,4.59-2.32,9.53-3.37,14.6-3.89.76-.08,1.53-.08,2.26-.25,4.93-1.16,9.89-2,14.97-2.36,3.6-.26,6.77.32,9.7,2.38,1.14.8,2.29,1.6,3.8,1.58,2.25-.02,4.15.96,6.01,2.13,1.5.94,3.06,1.82,4.7,2.47,2.81,1.13,5.7,2.06,8.56,3.08,6.8,2.42,12.58,6.54,18.08,11.04,5,4.08,10.05,8.16,13.64,13.67.41.64.95,1.19,1.41,1.8.38.51.8,1.01,1.05,1.58,1.33,3.15,3.26,5.98,4.76,9.03,3.03,6.14,5.97,12.33,7.19,19.12.49,2.71.55,5.5.81,8.26-1.45,6.41-1.83,13.04-3.97,19.32-.57,1.66-.97,3.39-1.25,5.12-.79,4.79-2.64,9.22-4.6,13.6-1.4,3.12-3.25,6.03-4.6,9.17-1.02,2.37-2.55,4.38-3.94,6.48-.89,1.35-2.11,2.55-3.39,3.57-1.88,1.49-3.92,2.8-5.94,4.11-1.5.97-2.87,2.03-3.96,3.5-.66.9-1.52,1.75-2.47,2.33-3.66,2.26-7.36,4.47-11.13,6.55-2.21,1.22-4.66,2.01-6.86,3.25-1.51.85-3,1.29-4.69,1.28-1.79-.01-3.55.19-5.2.98-2.42,1.16-4.95,1.84-7.62,2.25-1.89.29-3.76.47-5.66.48-3.05,0-6.07.22-9.11.44-5.42.4-10.87,1-16.31.12-2.12-.34-4.21-.85-6.31-1.27-1.37-.28-2.73-.75-4.11-.79-3.67-.1-7-1.35-10.11-3.05-3.53-1.94-7.06-3.93-9.49-7.41-2.24-3.22-4.82-6.2-7.14-9.36-2.62-3.58-5.24-7.16-7.63-10.89-3.9-6.09-6.71-12.76-9.84-19.26-.6-1.24-.98-2.61-1.29-3.96-1.19-5.17-2.75-10.27-3.18-15.6-.04-.47-.17-1.27-1.32-.91.45,3.5.71,7.04,1.41,10.5.78,3.84,1.95,7.6,2.95,11.39.22.84.65,1.66-.04,2.53-.13.17.02.86.17.91,1.41.46,1.27,1.77,1.6,2.81.7,2.16,1.36,4.31,2.22,6.43,3.4,8.36,8.39,15.61,14.78,21.92,2.7,2.67,5.43,5.34,8.33,7.78,2.31,1.95,4.36,4.27,7.21,5.53,2.08.92,4.13,1.91,6.24,2.75,1.76.69,3.56,1.29,5.39,1.77,2.21.58,4.44,1.07,6.69,1.47,3.11.55,6.23,1.13,9.37,1.42,4.03.38,8.07.46,12.14.22,4.43-.27,8.89-.25,13.32-.12,4.94.14,9.54-1.1,14.05-2.89,2.47-.98,4.9-2.09,7.43-2.9,3.06-.97,5.82-2.43,8.46-4.21,1.36-.92,2.81-1.71,4.21-2.57,1.62-.99,3.26-1.96,4.84-3,.85-.55,1.56-1.32,2.41-1.86,5.59-3.54,10.84-7.49,15.31-12.4,1.19-1.31,2.49-2.56,3.49-4,1.89-2.7,3.65-5.48,5.37-8.29,2.98-4.89,5.11-10.08,5.53-15.9.13-1.88.73-3.72,1.04-5.59.45-2.75.99-5.49,1.2-8.26.28-3.66.32-7.35.38-11.03.08-5.34-.62-10.62-1.55-15.85-.38-2.11-1.21-4.13-1.72-6.22-.63-2.6-1.5-5.08-2.91-7.38-.71-1.17-1.06-2.57-1.61-3.84-.75-1.74-1.4-3.54-2.36-5.16-1.49-2.5-3.17-4.88-4.83-7.27-2.01-2.9-3.57-6.16-6.43-8.41-1.29-1.02-2.62-1.98-3.89-3.02-1.76-1.44-3.43-2.99-5.22-4.4-1.97-1.55-4.12-2.88-6.04-4.49-2.64-2.22-5.5-4.06-8.59-5.58-3.18-1.56-6.4-3.03-9.24-5.2-.91-.69-1.77-1.45-2.73-2.06-.84-.54-1.74-1.13-2.69-1.32-5.32-1.05-10.45-2.85-15.74-4.04-2.46-.56-4.93-1.55-7.39-1.52-5.43.05-10.86.62-16.29,1-.75.05-1.51.2-2.24.41-2.19.63-4.37,1.27-6.53,1.97-1.19.39-2.39.84-3.5,1.4-3.72,1.89-7.36,3.94-11.11,5.77-3.1,1.51-5.92,3.43-8.54,5.64-1.34,1.13-2.62,2.35-3.84,3.61-2.73,2.83-5.43,5.67-8.08,8.58-3.41,3.74-6.24,7.97-9.8,11.61-3.86,3.96-6.76,8.53-8.06,14-.26,1.1-.66,2.19-1.11,3.23-1.97,4.59-2.81,9.49-3.3,14.36-.48,4.89-.17,9.86-.18,14.8,0,.55.21,1.1.44,2.23Zm32.57,72.75c-2.19-2.18-4.01-4.26-6.11-6.02-4.78-4.01-9.01-8.51-12.94-13.33-4.87-5.98-8.58-12.51-10.18-20.13-.34-1.61-.59-3.26-1.16-4.79-1.41-3.81-2.24-7.77-3.33-11.67-2.3-8.24-3.38-16.62-3.62-25.12-.1-3.66.11-7.34.4-11,.18-2.26.72-4.5,1.19-6.73.28-1.36.66-2.71,1.11-4.02.77-2.28,1.71-4.5,2.45-6.78,2.04-6.39,5.61-11.87,9.83-16.99,2.82-1.69,4.26-4.63,6.36-6.98,3.88-4.33,7.06-9.31,11.82-12.84,1.73-1.28,3.35-2.71,5.07-4,1.62-1.22,3.23-2.47,4.98-3.48,2.29-1.32,4.76-2.3,6.97-3.8,1.34-.91,2.77-1.77,4.27-2.36,3.42-1.34,6.87-2.65,10.39-3.68,2.9-.85,5.79-1.82,8.91-1.82,3.41,0,6.82-.24,10.23-.46,3.2-.2,6.33-.06,9.27,1.4.34.17.72.38,1.07.36,3.27-.15,6.19,1.17,9.21,2.1,3.99,1.22,8.06,2.24,10.98,5.57.16.18.42.28.64.4,3.63,2.07,7.16,4.34,11.16,5.69,3.69,1.25,6.9,3.3,9.54,6.07,2.14,2.24,4.65,3.88,7.12,5.64,5.16,3.7,10.2,7.52,13.45,13.17.31.55.7,1.06,1.09,1.56,5.03,6.3,8.52,13.51,11.47,20.9,1.81,4.53,3.21,9.31,3.91,14.21.77,5.4,1.09,10.79.9,16.27-.23,6.74-.82,13.39-2.38,19.96-.47,1.97-.64,4-1.09,5.98-.42,1.85-.77,3.78-1.6,5.46-2.24,4.53-4.24,9.22-7.58,13.13-1.37,1.61-2.54,3.36-3.4,5.57.54-.1.99-.05,1.17-.25,2.9-3.18,5.83-6.33,8.17-9.98,1.16-1.81,2.39-3.58,3.5-5.42.65-1.08,1.22-2.23,1.63-3.41,1.28-3.71,2.43-7.46,3.71-11.17,1.85-5.32,2.69-10.81,2.98-16.4.07-1.26-.1-2.54.02-3.8.32-3.43.07-6.81-.39-10.21-.56-4.16-1.72-8.17-2.78-12.2-.99-3.78-2.21-7.51-3.57-11.17-1.06-2.84-2.56-5.51-3.75-8.31-2.04-4.81-4.91-9.13-7.86-13.38-2.84-4.09-6.49-7.42-10.34-10.53-1.17-.95-2.4-1.84-3.63-2.72-1.33-.95-2.7-1.85-4.04-2.79-1.04-.73-2.04-1.5-3.07-2.24-1.33-.95-2.69-1.87-4.01-2.83-.72-.52-1.36-1.14-2.09-1.64-3.14-2.11-6.35-4.12-9.44-6.31-2.84-2.01-6.05-3.2-9.24-4.37-2.83-1.05-5.82-1.67-8.72-2.53-2.05-.61-4.15-1.14-6.11-1.98-4.05-1.72-8.34-2.24-12.62-2.4-6.46-.23-12.93-.04-19.4-.07-1.68,0-3.2.4-4.8.9-4.01,1.25-7.82,2.87-11.39,5.08-2.27,1.4-4.6,2.68-6.93,3.98-4.66,2.6-9.16,5.42-12.95,9.25-.62.63-1.34,1.18-2.08,1.66-4.72,3.08-8.65,7.02-12.31,11.25-.66.77-1.26,1.59-1.97,2.32-4.6,4.74-8.69,9.89-12.59,15.21-1.15,1.58-1.88,3.27-2.14,5.21-.19,1.37-.59,2.71-.9,4.06-.77,3.45-1.81,6.82-3.08,10.12-1.3,3.35-1.35,6.98-1.57,10.46-.46,7.06-.61,14.15.03,21.24.54,5.97,2.23,11.68,3.44,17.5.46,2.22,1.28,4.37,1.98,6.54.31.96.63,1.94,1.1,2.83,1.46,2.8,3.08,5.52,4.48,8.35,2.09,4.21,4.29,8.31,7.26,12,1.58,1.96,2.97,4.1,4.21,6.3,1.09,1.93,2.46,3.47,4.25,4.75,2.48,1.76,4.84,3.69,7.34,5.42,2.43,1.68,4.84,3.44,8.11,4.25Zm87.58-84.88c0-.41-.03-1.04,0-1.66.14-2.27.4-4.54.42-6.81.02-2.46-.78-4.72-2.15-6.79-2.69-4.09-6.75-6.82-10.1-10.26-.17-.17-.45-.24-.65-.38-2.73-1.84-5.52-3.6-8.17-5.54-3.55-2.59-7.48-4.31-11.74-5.12-2.47-.47-5.02-.56-7.54-.62-3.8-.08-7.6.05-11.4.04-6.02-.02-11.82,1.12-17.38,3.37-2.22.9-4.29,2.2-6.5,3.14-4.21,1.8-6.51,5.49-9.04,8.95-.36.49-.49,1.16-.66,1.77-1.01,3.66-2.01,7.32-2.98,10.99-.12.44-.02.93-.02,1.43.32-.05.53-.02.56-.09.89-1.8,1.78-3.61,2.64-5.43.27-.57.53-1.16.68-1.77.71-2.88,2.3-5.31,3.78-7.83,1.21-2.06,2.72-3.61,4.93-4.49,2.11-.84,4.31-1.56,6.26-2.68,1.6-.92,3.2-1.46,4.98-1.67,1.26-.15,2.53-.29,3.75-.63,3.04-.84,6.01-1.96,9.08-2.66,6.53-1.49,13-1.31,19.48.69,3.62,1.12,7.22,2.06,10.59,3.94,3.34,1.87,6.27,3.76,6.23,8.13.47.28.89.57,1.34.77,3.31,1.48,5.23,4.25,6.94,7.27,1.51,2.65,2.05,5.4,1.27,8.38-.22.86-.25,1.77-.49,2.61-.74,2.58-1.69,5.08-3.71,6.95-1.97,1.83-3.45,4.03-5.07,6.14-2.24,2.91-4.56,5.76-7.42,8.11-3.51,2.89-7.19,5.64-10.07,9.17-3.07,3.77-6.99,6.53-10.56,9.71-.56.5-1.24.88-1.92,1.2-2.86,1.36-5.81,2.53-8.59,4.04-4.03,2.19-8.24,2.5-12.5,1.3-2.86-.81-5.76-1.51-8.14-3.76-4.06-3.85-7.08-8.25-8.68-13.58-1.17-3.91-3.74-6.71-6.92-9.86.23,3.09.28,5.62.65,8.09.16,1.05.73,2.29,1.52,2.95,1.9,1.58,2.53,3.71,3.32,5.85,1.18,3.2,2.34,6.43,3.8,9.51,2.41,5.05,6.46,8.4,11.76,10.09,1.78.57,3.7.47,5.59-.25,3.31-1.26,6.7-2.3,10.06-3.44,2.91-.99,5.58-2.23,7.59-4.78,2.91-3.69,6.27-6.96,10.41-9.32.54-.31,1.07-.72,1.47-1.19,1.85-2.18,4.17-3.57,6.84-4.62,2.44-.97,4.7-2.31,6.34-4.63.88-1.24,2.49-1.98,3.89-3.03.37-3.46,2.05-6.46,4.86-8.85,3.58-3.05,6.87-6.36,9.47-10.31.55-.84,1.19-1.62,1.91-2.58Zm-52.53,27.68c-.37.62-.78,1.25-1.14,1.91-2.15,4-5.97,5.83-9.94,7.12-4.14,1.35-7.82-1.26-8.63-5.62-.23-1.24-.32-2.5-.47-3.66-.77-.82-1.52-1.52-2.13-2.31-.37-.48-.71-1.09-.78-1.68-.44-3.92-.49-7.8,1.39-11.51-.3-.2-.58-.45-.91-.59-2.91-1.22-4.03-3.46-3.31-6.43.45-1.84-.24-3.3-1.11-4.64-1.2-1.85-1.43-3.73-.98-5.81.21-.99.37-2,.41-3.01.06-1.47.65-2.69,1.55-3.8.72-.88,1.43-1.78,2.21-2.62,1.74-1.86,3.86-2.8,6.45-2.55.86.08,1.73.15,2.69.23,1.43-2.84,3.25-5.34,6.04-6.75,4.49-2.27,8.85-4.97,14.07-5.43,1.51-.13,3.01-.52,4.52-.56,1.76-.05,3.67-.25,5.27.31,3.57,1.25,7.14,2.68,9.49,5.97.66.93,1.37,1.84,2.13,2.68,1.17,1.3,2.56,1.57,4.11.82.56-.27,1.09-.65,1.57-1.06,1.28-1.09,1.25-2.37-.08-3.52-.57-.49-1.16-1.08-1.85-1.31-2.74-.93-5.25-2.49-8.17-2.95-1.99-.32-3.92-1.15-5.92-1.29-1.52-.1-2.99-.32-4.49-.53-3.92-.54-7.79-.61-11.57,1.09-3.6,1.62-7.44,2.44-11.39,2.75-.98.08-1.95.5-2.9.84-1.06.38-2.09.85-3.14,1.25-3.15,1.18-5.9,2.73-7.52,5.96-1.13,2.26-2.23,4.51-3.2,6.86-1.59,3.83-3.01,7.75-6.53,10.52-1.63,1.28-2.79,3.26-3.93,5.07-1.38,2.2-.68,4.4.68,6.37.49.7,1.28,1.19,1.93,1.78,3.7,3.33,7.05,6.93,8.84,11.7.49,1.3.71,2.7,1.23,3.99,2.32,5.65,5.35,10.64,11.83,12.31,3.1.8,6.2,1.38,9.28-.1,1.25-.6,2.49-1.2,3.76-1.76,1.38-.61,2.79-1.18,4.19-1.76.46-.19,1.04-.21,1.39-.51,3.53-3.07,7.76-5.28,10.72-9.04,1.25-1.58,2.57-3.14,4.03-4.52,2.76-2.6,5.67-5.04,8.49-7.58,1.03-.93,2.08-1.87,2.95-2.93,1.92-2.35,3.74-4.78,5.58-7.2.16-.22.12-.59.21-1.14-.72.18-1.19.3-1.66.42-2.69.69-5.37,1.46-8.09,2.04-4.46.95-7.48,3.86-9.45,7.61-1.19,2.27-2.39,4.48-4.08,6.33-3.7,4.05-7.76,7.63-13.66,8.29Zm43.58,31.06c-1.36,0-2.1-.17-2.73.03-2.17.71-4.22,1.69-6.1,3.04-1.43,1.02-3,1.88-4.57,2.69-1.42.73-2.95.66-4.45.15-1.59-.54-2.2-1.41-2.28-3.11-.1-2.01.68-3.74,1.81-5.3,1.64-2.28,2.94-4.72,3.99-7.32.61-1.51,1.48-2.92,2.26-4.36.48-.89,1.15-1.7,1.5-2.64,1.59-4.24,5.48-6.48,8.29-9.66.08-.09.2-.16.31-.22,3.65-1.87,7.45-3.2,11.62-3.1,1.89.05,3.85,2.07,3.87,4.02.01,1-.07,2.08-.46,2.98-.73,1.7-.81,3.48-.81,5.23,0,3.33-.41,6.56-1.47,9.72-.21.63-.15,1.35-.22,2.06,1.19-.02,1.51-.85,1.91-1.42,1.75-2.47,3.54-4.95,5.05-7.57,1.14-1.96,2.25-4.06,2.73-6.24.93-4.2,1.55-8.48,2.04-12.76.38-3.31-.65-6.22-3.45-8.28-5.08.09-9.92.79-14.46,3.02-2.5,1.23-5.12,2.24-7.55,3.6-1.97,1.11-3.73,2.59-5.59,3.91-1.14,2.68-3.52,3.85-5.96,4.98-.31.14-.52.52-.83.85.11,1.5.35,3.01.3,4.51-.15,4.55-.95,8.87-5.26,11.51-3.09,1.89-4.88,4.74-6.19,7.96-.78,1.92-1.88,3.56-3.33,5.04-.75.76-1.82,1.43-1.77,2.83,1.78.71,3.52,1.39,5.24,2.11,1.52.64,2.97,1.43,4.52,1.99,1.83.66,3.7.84,5.49-.28.43-.27.89-.52,1.37-.65,4-1.06,7.42-3.15,10.55-5.8.76-.64,1.76-.98,2.58-1.56.58-.4,1.04-.97,2.04-1.94Zm-3.28-116.4c-.1.23-.21.45-.31.68,1.62.95,3.25,1.87,4.84,2.85,2.16,1.32,4.3,2.68,6.46,4.02,3.76,2.34,7.32,4.91,10.62,7.91,2.84,2.59,5.03,5.69,7.55,8.51,2.17,2.43,3.83,5.28,5.01,8.43.94,2.51,1.49,5.09,2.2,7.64,1.4,4.98,2.89,9.95,4.53,14.86,1.6,4.8,1.65,9.73,1.42,14.66-.12,2.63-.73,5.26-1.33,7.84-.6,2.58-1.76,5.06-2.18,7.66-.93,5.82-3.03,11.24-5.17,16.66-1.11,2.82-2.19,5.7-3.69,8.32-1.37,2.39-2.42,5.03-4.56,6.97-.45.4-1.14,1.07-.62,1.96,3.46-.62,5.33-3.22,7.09-5.82,1.56-2.3,2.91-4.75,4.19-7.23,1.74-3.36,3.48-6.75,4.93-10.24,1.11-2.67,1.91-5.5,2.6-8.32,1.73-7,3.95-13.87,4.66-21.11.5-5.09.63-10.06-1.18-14.91-1.28-3.42-2.61-6.83-4.07-10.18-1.32-3.01-2.85-5.93-4.3-8.89-.5-1.02-.97-2.06-1.57-3.01-2.15-3.42-4.99-6.3-7.48-9.47-.54-.69-1.24-1.26-1.92-1.82-3.71-3.07-7.45-6.1-11.16-9.17-4.93-4.08-10.57-6.77-16.55-8.8Zm-61.08,112.83c.99,2.23,2.91,2.86,4.84,3.41,3.4.98,6.77,1.99,9.94,3.67,2.11,1.12,4.46,1.75,6.68,2.68,1.85.77,3.5.45,4.94-.81,3.04-2.66,5.99-5.38,7.6-9.26.72-1.74,1.79-3.33,2.72-4.98,1.17-2.07,3.19-3.27,5.03-4.54,2.1-1.45,2.97-3.36,3.2-5.73.12-1.26.24-2.51.33-3.77.03-.45.26-1.05-.61-1.21-1.09.94-2.11,2.09-3.37,2.86-4.17,2.55-7.39,6.08-10.41,9.81-1.73,2.14-3.76,3.71-6.35,4.59-3.58,1.22-7.15,2.49-10.72,3.73-.95.33-1.93.61-2.88.95-2.5.89-4.97.74-7.43-.16-1.16-.42-2.34-.81-3.51-1.22Zm7.88-69.16c.01,3.42,1.39,5.68,4.8,6.42.24.05.44.28.67.34,2.12.52,3.06,2.11,3.55,4.03.29,1.15.44,2.33.63,3.36,1.88-.58,3.56-1.05,5.21-1.62.65-.23,1.23-.68,1.92-1.07-.76-.98-1.5-1.7-1.97-2.56-1.9-3.45-3.06-7.05-.77-10.74,1.49-2.41,3.32-4.5,6.69-3.93.68.12,1.49-.07,2.15-.33,2.35-.92,4.66-1.05,6.99.04,1.66.78,3.36.52,5.41.26-1.93-2.97-4.55-4.75-7.47-5.09-3.98-.46-8.06.01-12.1.08-3.13,1.34-6.31,2.57-9.37,4.06-2.96,1.44-4.54,4.28-6.34,6.75Zm-12.84,103.98c2.78,2.18,5.14,4.02,8.18,4.86,1.43.39,2.82,1.23,3.98,2.16,1.65,1.32,3.48,2.03,5.49,2.38,5.89,1.02,11.81.91,17.72.24.25-.03.5-.1.75-.15,1.99-.39,3.98-.78,5.96-1.16,3.2-.62,6.4-1.23,9.6-1.85-.57-.54-1.13-.71-1.7-.73-1.14-.04-2.29.14-3.41,0-3.54-.46-7.09-.38-10.6.02-4.71.53-9.35-.14-14.01-.42-2.01-.12-4.03-.44-5.98-.94-5.13-1.32-10.22-2.8-15.98-4.39Zm4.33-82.97c1.57.91,2.84.96,4.07.63,2.56-.68,5.14-1.34,7.62-2.27,1-.37,1.88-1.3,2.58-2.16,1.2-1.47.94-5.06-.37-6.41-.33-.34-.84-.58-1.31-.68-.73-.15-1.51-.09-2.25-.22-.61-.1-1.38-.17-1.76-.57-1.41-1.43-2.99-2.78-3.47-4.87-.17-.74-.27-1.5-.5-2.22-.42-1.32-1.96-1.75-3.07-.9-3.74,2.86-4.58,8.59-2.51,11.92,1.12,1.81,1.3,3.78,1.12,5.82-.05.61-.1,1.22-.16,1.93Zm57.04,48.42c4.69-1.28,5.12-1.75,6.92-5.69,1.75-3.82,4.18-6.97,8.84-7.39.21-.02.4-.28.72-.52.39-2.5.82-5.11,1.18-7.74.06-.44-.22-.92-.36-1.42-3.25-1-5.79.59-8.39,1.83-1.61.77-1.57.84-2.4,2.91,1.25.53,2.5,1.07,3.76,1.61-.13,3.9-1.85,6.61-4.71,8.81-1.42-1.05-1.4-2.27-.76-3.46.47-.88,1.24-1.59,1.81-2.43.17-.25.12-.65.19-1.14-1.77.39-2.13,1.9-2.97,2.92-.57.7-1.02,1.44-.93,2.41.13,1.45-.47,2.66-1.14,3.93-.8,1.52-1.49,3.15-1.78,5.36Zm-51.3-43.62c-.77.1-1.05.07-1.24.18-.32.19-.63.43-.86.71-2.04,2.42-1.51,5.23-1.1,7.98.16,1.1.47,2.16,1.52,2.94,1.43,1.06,1.84,2.64,1.74,4.4-.06,1.01-.06,2.03.05,3.03.12,1.12.9,1.75,2.01,1.93,2.71.43,4.47-1.15,6.68-3.07-1.67-.13-2.87-.2-4.06-.32-2.05-.21-2.95-1.14-3.03-3.14-.03-.76.04-1.52.04-2.28,0-1.72-.37-3.27-1.93-4.3-.31-.21-.53-.54-.79-.82-1.09-1.13-1.29-2.46-.73-3.86.42-1.04,1-2.01,1.71-3.38Zm64.3,44.6c1.4-1.62,2.71-2.97,2.81-4.79.1-1.9,1.5-3.77.34-5.88-5.46.89-6.67,5.2-8.27,9.57,1.76.38,3.32.71,5.13,1.09Zm-5.86-63.04c.71-2.03.4-3.5-.32-5.04-1.42-3.02-3.46-5.44-6.25-7.3-1.46.92-3.17,1.3-3.55,3.27,4.02,2.25,8.16,4.22,10.11,9.08Zm-38.87-6.28c-.98,4.04.32,6.35,3.31,7.84.45.23.89.48,1.33.73,1.25.74,2.12,1.78,2.5,3.2.16.59.33,1.18.51,1.81,2.83.31,4.15-1.39,5.57-3.43-1.06-.42-1.88-.71-2.68-1.06-2.3-1.02-4.59-2.07-6.9-3.08-1.64-.72-2.48-2.09-3.02-3.69-.2-.58-.32-1.18-.62-2.32Zm29.23,71.28c-1.82-1.93-1.74-3.87-.63-6,.87-1.66,1.47-3.46,2.13-5.22.09-.25-.13-.62-.22-.97-1.61.87-1.93,2.43-2.4,3.85-.92,2.79-2.07,5.44-3.92,7.76-.46.58-.76,1.31-1.04,2.01-.24.58-.36,1.23.73,1.78,1.53-.88,3.52-1.33,5.34-3.2Zm-43.32-36.74c.17,2.09-.3,3.4.26,4.94.89-.38,1.64-.7,2.43-1.05-.21-1.58-.96-2.59-2.7-3.89Z"/>
    <path class="cls-1" d="m133.39,617.03c1.54,1.75,1.25,3.45.41,5.13-.51,1.02-1.01,2.05-1.62,3.01-.79,1.25-1.98,2.02-3.48,1.98-2.41-.06-4.84-.08-7.2-.45-1.78-.27-3.28-1.32-4.15-3.03-.52-1.01-1.03-2.01-1.48-2.89-.45-.12-.77-.32-.91-.23-2.18,1.34-4.48,1.42-6.96,1.08-1.97-.28-3.97.22-6.01-.41-1.93-.6-3.99-.74-5.6-2.16-3.55-.54-6.21-2.54-8.68-5-.75-.75-2.01-1.03-3.08-1.4-.95-.33-1.97-.49-2.96-.69-2.23-.47-3.94-1.67-5.18-3.56-.42-.64-.89-1.25-1.21-1.93-.81-1.71-2.11-2.77-3.88-3.4-3.55-1.26-6.03-3.63-7.25-7.26-.46-1.36-1.38-2.42-2.52-3.27-3.21-2.39-5.04-6-7.78-8.81-.43-.44-.75-1.05-.94-1.64-1.36-4.15-3.88-7.67-6.16-11.31-1.05-1.68-1.77-3.36-1.23-5.38.13-.48.16-1.01.17-1.51,0-1.33-.35-2.47-1.63-3.19-1.85-1.04-2.95-2.7-3.82-4.59-2.08-4.49-4.21-8.95-4.86-13.93-.1-.74-.34-1.49-.65-2.17-1.6-3.41-2.02-7.02-1.93-10.73.04-1.8-.29-3.51-1-5.18-.6-1.4-.8-2.84-.67-4.43.2-2.51,0-5.06-.15-7.59-.04-.73-.32-1.5-.7-2.14-1.15-1.96-1.35-4.09-1.14-6.26.25-2.54.66-5.06-1.25-7.24-.28-.32-.25-.97-.23-1.46.03-1.13.17-2.26.21-3.39.08-2.28.2-4.54-.52-6.78-.71-2.22-.83-4.5.08-6.71.78-1.89.76-3.67-.33-5.45-1.39-2.25-.39-4.55.43-6.55.87-2.11,1.42-4.01.56-6.19-.43-1.09-.3-2.22.06-3.36.38-1.21.6-2.46.9-3.69.68-2.72.77-5.36.29-8.23-.64-3.84-.44-7.89,1.03-11.6,1.21-3.06,1.22-6.19,1.29-9.34.03-1.35-.25-2.84-.83-4.06-1.66-3.5-1.49-7.14-1.27-10.82.11-1.9.18-3.8.43-5.68.56-4.14,1.14-8.28,1.86-12.39.81-4.62.78-9.27,1.03-13.92.25-4.8-.25-9.63.67-14.4.33-1.73.36-3.52.48-5.29.33-4.73,1.8-9.19,3.27-13.64,1.27-3.84,2.57-7.68,3.7-11.56.53-1.81.82-3.72,1-5.6.45-4.73,2.37-9.06,3.69-13.54.64-2.18,1.41-4.33,2.3-6.41,1.14-2.68,2.44-5.29,3.71-7.91,1.55-3.19,3.14-6.37,4.72-9.55.23-.45.42-.93.69-1.35,3.24-5.01,5.67-10.46,8.61-15.63,3.62-6.37,7.35-12.69,12.82-17.82,2.94-2.76,5.18-6.25,8.02-9.12,3.83-3.87,7.1-8.33,11.6-11.48,2.79-1.95,5.71-3.94,8.87-5.07,3.4-1.21,6.8-2.78,10.56-2.87,1-.02,1.99-.31,2.99-.46,2.53-.38,4.97-.38,7.49.46,3.11,1.03,6.36,1.68,9.56,2.44,2.36.56,4.46,1.44,6.49,2.91,3.81,2.75,7.46,5.64,10.72,9.02.61.64,1.29,1.24,2.02,1.73,3.19,2.13,5.78,4.94,8.48,7.61,4.52,4.47,7.43,9.85,8.95,16.06,1.58,6.45,2.11,13,2.47,19.59.12,2.27.29,4.56.7,6.8.35,1.92-.11,3.8.03,5.66.37,4.94.06,9.87-.37,14.75-.58,6.54-.8,13.13-2.16,19.61-1.3,6.19-1.99,12.5-3.2,18.71-.94,4.84-2.28,9.6-3.41,14.4-.2.85-.28,1.73-.37,2.61-.11,1.14.1,2.38-.29,3.4-1.7,4.5-1.93,9.39-3.73,13.85-.33.81-.81,1.7-.73,2.5.23,2.37-.49,4.51-1.16,6.69-.44,1.45-.74,2.89-.46,4.48.47,2.67-.15,5.32-.89,7.86-.64,2.23-1.03,4.34-.52,6.7.59,2.75.48,5.61-.78,8.2-.9,1.86-.85,3.67-.38,5.54.75,3.01.87,6.01.11,9.03-.31,1.25-.25,2.49.13,3.75.94,3.08,1.34,6.19.04,9.3-.64,1.53-.14,3.06.37,4.46,1.13,3.11.6,6.03-.82,8.81-.81,1.59-.99,3.06-.49,4.73.71,2.36.78,4.73-.07,7.1-.17.47-.16,1-.27,1.5-.38,1.83-.12,3.46,1.09,5.01,1.32,1.7,2.47,3.55,2.87,5.73.18.99.48,2.01.41,2.99-.14,2.11.49,3.98,1.25,5.89.7,1.76,1.39,3.58,1.66,5.44.25,1.71.08,3.53-.17,5.26-.36,2.56-.29,5.08.32,7.56.79,3.25.66,6.57.56,9.83-.06,2.01.34,3.84,1.06,5.48.75,1.71.97,3.37,1,5.12.05,2.28-.02,4.57-.06,6.85-.03,2.29.04,4.53.76,6.76.5,1.54.52,3.23.7,4.86.28,2.49-.29,4.82-1.69,6.87-.99,1.44-1.31,3.02-1.35,4.67-.13,4.86-1.57,9.47-2.62,14.16-.19.84-.66,1.64-1.11,2.4-2.29,3.94-4.64,7.84-6.9,11.79-.82,1.42-1.66,2.88-2.14,4.43-.71,2.3-2.21,3.95-3.89,5.49-2.7,2.47-5.47,4.86-8.22,7.27-1.24,1.09-2.49,2.16-3.76,3.2-.68.56-1.5.98-2.1,1.61-.78.81-1.41,1.77-2.37,3Zm-27.4-381.83c-.92-.18-1.22-.35-1.37-.26-3.03,1.84-6.1,3.61-8.34,6.49-1.09,1.4-2.34,2.68-3.6,3.93-3.06,3.04-5.97,6.2-8.58,9.64-.61.8-1.28,1.59-2.06,2.24-3.87,3.24-6.56,7.42-9.08,11.66-3.29,5.55-6.16,11.34-9.36,16.94-2.58,4.51-5,9.08-7.22,13.77-1.35,2.86-2.84,5.66-4.03,8.59-1.42,3.51-2.71,7.08-3.84,10.7-.79,2.53-1.23,5.17-1.82,7.76-.59,2.59-1.01,5.23-1.77,7.77-1.4,4.74-2.99,9.42-4.49,14.12-.15.48-.28.97-.4,1.46-2.33,9.05-2.3,18.33-2.56,27.57-.1,3.54-.25,7.1-.68,10.61-.52,4.27-1.37,8.49-2.03,12.74-.16,1-.15,2.02-.22,3.03-.12,1.51-.25,3.02-.36,4.53-.21,3.04-.63,6.13.6,9.02,2.31,5.48,1.58,11.06.14,16.43-1.01,3.78-1.22,7.44-.9,11.24.22,2.66.3,5.3-.4,7.93-.72,2.69-1.14,5.42-.46,8.23.5,2.05.2,4.02-.92,5.86-.33.53-.64,1.14-.72,1.74-.09.72-.18,1.62.16,2.18,1.56,2.55,1.24,5.07.23,7.66-.61,1.57-.62,3.15-.21,4.84.76,3.07.94,6.22.62,9.4-.08.84-.06,1.84.32,2.55,1.46,2.74,1.63,5.6.96,8.5-.29,1.24-.18,2.37.46,3.27,1.35,1.89,1.49,3.97,1.51,6.15,0,1.77.16,3.54.2,5.32.04,1.78.2,3.48.91,5.18.52,1.24.76,2.72.68,4.07-.21,3.6.25,7.04,1.56,10.41.78,2,1.37,4.1,1.81,6.2.62,3.01,1.72,5.81,3.06,8.55.85,1.74,1.79,3.32,3.54,4.35,1.65.97,2.36,2.62,2.58,4.46.13,1.13.15,2.27.15,3.41,0,1.57.47,2.99,1.27,4.31,1.05,1.73,2.09,3.47,3.16,5.18,2.19,3.52,3.41,7.64,6.58,10.57,1.29,1.19,2.33,2.68,3.65,3.83,1.68,1.45,3.09,3.14,3.78,5.16.79,2.32,2.36,3.53,4.46,4.29,3.02,1.08,5.21,3.11,6.65,5.91.89,1.73,2.23,2.88,4.06,3.12,3.98.53,7.09,2.55,9.91,5.22.52.49,1.28.94,1.96.99,1.35.1,2.44.66,3.48,1.38,1.29.89,2.69,1.43,4.25,1.52,2.15.12,4.3.24,6.45.27,1.43.02,2.67-.5,3.65-1.45-.42-1.34-1.41-1.27-2.24-1.31-1.17-.06-2.29-.22-3.2-1.01-2.32-2.02-5.09-3.22-7.91-4.3-1.24-.47-1.78-1.4-1.94-2.59-.16-1.24-.17-2.49-.25-3.74-2.93-1.61-4.46-4.21-5.67-6.88-1.48-.76-3.05-.99-3.77-2.64-1.31-3.01-.82-5.94.09-8.9.04-.11.15-.21.22-.31.46-.65,1.51-.61,1.93.07.98,1.57,1.14,3.34,1.21,5.11.05,1.25.52,2.18,1.61,2.81,1.72.98,2.84,2.45,3.56,4.3.31.81.75,1.71,1.41,2.21,2.06,1.58,3.01,3.69,3.38,6.3,2.37,1.43,4.79,2.78,7.08,4.33,1.29.88,2.53,1.65,4.14,1.65,1.03,0,1.96.3,2.78,1.03,2.64,2.33,5.9,3.28,9.29,4.15,1.71-2.09,1.03-4.02.19-5.98-1.08.1-1.95.23-2.81.25-.8.01-1.53-.28-1.89-1.05-.31-.68.11-1.15.6-1.62.22-.21.17-.69.27-1.05.43-1.6,1.26-2.08,2.66-1.53,1.03.41,1.46.89,2.62,2.93,1.08-.38,1.64-1.1,1.55-2.27-.05-.63-.28-1.31-.1-1.87.88-2.77,1.77-5.57,3.82-7.76.31-.33.97-.7,1.28-.58.5.21,1.06.74,1.21,1.24.34,1.14-.01,2.29-.67,3.25-.76,1.1-1.11,2.32-1.05,3.59.11,2.55-.6,4.73-2.42,6.57-.53.54-.64,1.32.25,2,6.08-4.72,11.78-9.91,17.3-15.28.51-.49.69-1.31,1.05-1.97,1.81-3.33,3.4-6.81,5.51-9.93,2.08-3.08,3.62-6.37,4.96-9.78.07-.17-.13-.45-.23-.76-.54.27-1.04.66-1.59.76-.41.07-1.22-.15-1.28-.38-.23-.96-.36-1.97-.31-2.96.04-.71.35-1.48,1.49-1.64.76.75,1.6,1.57,2.58,2.53.28-.8.51-1.26.59-1.75.45-2.74.97-5.48,1.25-8.24.21-2.06.56-4.02,1.65-5.8,1.78-2.92,1.88-6.04.82-9.15-.8-2.34-.95-4.7-.95-7.12,0-2.54-.02-5.07.03-7.61.03-1.29-.08-2.48-.84-3.62-1.17-1.76-1.44-3.83-1.23-5.85.35-3.44.16-6.91-.52-10.2-.69-3.32-.71-6.58-.36-9.81.3-2.77-.08-5.29-1.17-7.75-.78-1.77-1.26-3.55-1.32-5.5-.09-2.72-.95-5.22-2.63-7.41-2.45-3.19-2.67-6.77-1.61-10.46.55-1.91.6-3.73.06-5.6-.18-.61-.36-1.22-.5-1.83-.33-1.41-.33-2.75.61-3.98,1.85-2.43,2.12-5.06,1-7.9-.92-2.33-.91-4.67.06-7.03.69-1.7.65-3.42-.08-5.18-.79-1.91-.91-3.96-.43-5.98.76-3.17.65-6.27-.32-9.38-.54-1.73-.72-3.64.2-5.2,1.62-2.74,1.53-5.51.96-8.45-.42-2.15-.28-4.34.58-6.37.57-1.34.6-2.66.73-4.06.33-3.63-.25-7.37,1.33-10.86.3-.67.43-1.5.37-2.24-.23-2.76.76-5.24,1.63-7.75,1.21-3.46,1.3-7.24,3.02-10.56.06-.11.09-.25.08-.37-.39-3.64.87-6.97,1.88-10.35.28-.96.4-1.98.58-2.97.29-1.62.49-3.26.88-4.86,1.35-5.54,1.83-11.23,3.14-16.79,1.26-5.38,1.52-11,2.23-16.51,1.06-8.18.59-16.43,1.09-24.64.02-.38-.06-.76-.1-1.14-.42-5.05-1-10.09-1.2-15.15-.18-4.75-1.35-9.27-2.72-13.75-1.48-4.83-4.22-8.91-8.17-12.13-.78-.64-1.46-1.41-2.23-2.06-.43-.37-.95-.63-1.73-1.14.11,2.81.08,5.2.31,7.58.39,4.08.07,8.1-.65,12.12-.26,1.48-.29,3.01-.4,4.52-.33,4.3-.53,8.59-1.73,12.79-1.25,4.36-2.26,8.8-3.31,13.21-.65,2.7-1.1,5.45-1.78,8.15-1.42,5.64-3.14,11.22-4.37,16.9-1.76,8.16-4.27,16.18-4.85,24.59-.32,4.55-1.06,9.06-1.62,13.59-.54,4.4-1.04,8.8-1.65,13.19-.42,3.01-.92,6-1.52,8.98-.62,3.1-.25,6.26-.66,9.37-.23,1.75-.21,3.55-1.1,5.1-.71.28-1.67.04-1.84,1.2.54.38,1.12.79,1.63,1.16,0,.76.07,1.4-.01,2.02-1,8.18-1.68,16.38-2.3,24.59-.07,1.01-.3,2.01-.36,3.01-.35,5.57-.58,11.14-1.06,16.7-.28,3.28-.67,6.59-1.51,9.76-1.17,4.43-1.9,8.92-2.76,13.4-.65,3.4-.34,6.54,1.73,9.42,1.81,2.52,2.17,5.37,1.7,8.35-.38,2.38-.77,4.76-1.34,7.09-.63,2.57-.51,4.98.6,7.41.57,1.24.87,2.64,1.06,3.99.22,1.5.26,3.03.25,4.55-.02,3.17.04,6.3.51,9.47.48,3.24.44,6.58-.49,9.81-.57,1.99-.71,3.87.29,5.87.53,1.05.41,2.47.42,3.72,0,1.13-.27,2.27-.3,3.4-.02.6.03,1.34.36,1.8,1.1,1.53,1.21,3.28,1.44,5.03.13.99.15,2.11.64,2.91,1.23,2.02,1.08,4.13.84,6.28-.13,1.12-.38,2.23-.54,3.17.19.43.24.72.4.88,1.73,1.64,1.82,3.51.87,5.56-.47,1.01-.9,2.05-1.41,3.22,1.84,1.32,1.69,3.06,1.13,4.85-.62,1.97-.8,3.95-.41,6.01.42,2.17.07,4.29-.61,6.37-.27.82-.27,1.9-1.49,1.82-.93-.07-1.04-1-1.27-1.7-.16-.48-.41-1.06-.27-1.47.72-2.16.18-4.2-.21-6.32-.2-1.06.15-2.25.33-3.36.14-.87.42-1.71.68-2.71-1.85-2.31-1.89-4.81-.36-7.23-.2-.36-.27-.63-.44-.79-1.56-1.41-1.52-3.01-.8-4.84.6-1.52.97-3.14,1.37-4.73.25-1.01.24-2.06-.49-2.89-.99-1.13-1.14-2.49-1.28-3.89-.16-1.64-.36-3.27-1.7-4.52-.91-.85-1.04-1.98-.82-3.17.33-1.73.64-3.47.97-5.32-.21-.37-.44-.83-.72-1.24-1.09-1.56-1.4-3.21-.75-5.05.3-.83.42-1.72.65-2.58.84-3.12.78-6.27.39-9.44-.2-1.62-.37-3.25-.44-4.88-.08-1.77,0-3.55-.06-5.32-.07-2.43-.36-4.79-1.68-6.94-.81-1.32-.9-2.82-.96-4.38-.11-2.72.45-5.31,1.11-7.87.99-3.86,1.18-7.5-1.73-10.7-.25-.28-.38-.67-.62-.96-.85-1.04-1.14-2.24-1.12-3.55.01-1.01-.07-2.05.09-3.04.66-4,1.37-7.99,2.1-11.98.64-3.49,1.51-6.94,1.94-10.45.8-6.54,1.48-13.09,1.97-19.66.7-9.35,1.45-18.69,2.7-27.98.41-3,.77-6.02,1.01-9.04.22-2.9.06-5.84.41-8.72.79-6.41,1.78-12.8,2.71-19.2.49-3.38,1.16-6.74,1.55-10.12.94-8.18,1.71-16.35,3.76-24.38,1.78-6.98,2.4-14.23,4.86-21.07.68-1.9,1.17-3.87,1.68-5.83,1.39-5.25,2.82-10.49,4.09-15.78.83-3.44,1.89-6.94,1.96-10.43.11-5.59.85-11.07,1.66-16.56.17-1.12.15-2.27.18-3.41.03-1.01-.41-2.34.07-2.96,1.09-1.38-.58-2.01-.45-3.02.26-2.1-.79-3.96-1.07-5.95-.29-2.03-1.37-3.5-2.8-4.82-1.49-1.37-2.94-2.78-4.48-4.08-.84-.71-1.75-1.44-3.18-1.31-1.28,2.54-2.65,5.1-3.87,7.73-2.6,5.62-5.1,11.3-7.68,16.93-.95,2.06-2.33,3.9-2.92,6.15-.64,2.44-1.37,4.87-2.17,7.24-1.42,4.18-3.27,8.24-5.23,12.2-1.86,3.75-2.52,7.67-2.67,11.76-.11,3.16-.24,6.32-.35,9.48-.13,4.07-.58,8.09-1.71,12.02-.52,1.82-1.03,3.65-1.49,5.49-1.76,7.15-3.93,14.17-6.34,21.12-.5,1.44-1.01,2.89-1.28,4.38-1.25,6.85-2.51,13.7-3.61,20.58-1.18,7.37-2.35,14.75-3.23,22.17-.68,5.78-.96,11.62-1.33,17.43-.24,3.8-.31,7.6-.51,11.4-.18,3.29-.55,6.57-.64,9.86-.12,4.2-.79,8.31-1.77,12.37-.54,2.22-1.02,4.45-.65,6.76.46,2.9.43,5.79.2,8.71-.19,2.51-.28,5.11.14,7.58.62,3.66.83,7.3.5,10.97-.15,1.66-.14,3.26.31,4.89.73,2.6.81,5.23.08,7.88-.23.83-.25,1.72-.36,2.59,2.42,1.75,3.04,3.99,2.48,6.75-.4,1.97-.5,4.01-.74,6.06.21.27.38.65.68.85,2.41,1.6,2.5,3.96,2.13,6.44-.11.74-.4,1.46-.64,2.19-.48,1.44-1.04,2.86-1.46,4.32-.54,1.89-.55,3.68.78,5.39,1.27,1.64,1.66,3.54,1.62,5.71-.06,2.89.22,5.84.78,8.69.35,1.77.58,3.49.53,5.26-.06,1.89-.2,3.78-.31,5.78,2.13,1.12,2.63,2.81,2.16,5.11-.4,1.97-.34,4.04-.48,6.06-.06.92.1,1.76.79,2.45,1.16,1.15,1.48,2.62,1.52,4.18.04,1.68.25,3.43,1.37,4.65,1.59,1.74,1.88,3.83,2.24,5.95.23,1.37.28,2.77.43,4.16.1.91.33,1.88,1.28,2.17,2.07.64,2.58,2.38,2.93,4.1.69,3.35,1.21,6.74,1.75,10.12.08.48.04,1.07-.19,1.47-.22.38-.73.75-1.15.8-.43.05-1.08-.16-1.31-.49-.35-.48-.46-1.15-.6-1.75-.79-3.32-1.55-6.64-2.28-9.78-.46-.24-.68-.45-.91-.47-2.13-.2-2.93-1.65-3.54-3.45-.68-1.99-.63-4.02-.52-6.03.09-1.49-.1-2.76-1.15-3.83-1.23-1.25-1.51-2.9-1.87-4.51-.22-.98-.28-1.99-.42-3.04-2.65-.98-3.35-2.94-2.95-5.5.25-1.63.37-3.27.59-4.91.14-1.06.06-1.99-.82-2.76-1.19-1.05-1.2-2.42-.95-3.87.2-1.12.35-2.26.46-3.39.19-2.01.62-4.03,0-6.05-1.05-3.43-1.3-6.97-1.35-10.53-.02-1.71-.3-3.3-1.69-4.46-1.31-1.1-1.59-2.59-1.44-4.14.14-1.38.41-2.76.83-4.08.54-1.69,1.32-3.3,1.92-4.97.8-2.24.4-3.47-1.68-5.03-.79-.59-1.26-1.3-1.2-2.23.09-1.26.27-2.52.52-3.76.32-1.62.7-3.23.25-4.85-.19-.23-.3-.49-.51-.61-1.81-1.02-2.28-2.56-1.95-4.52.23-1.37.29-2.78.48-4.16.28-2.05.08-4.02-.49-6.01-.41-1.43-.62-2.97-.65-4.46-.04-2.02.12-4.05.31-6.07.19-2.09-1.36-4.17.03-6.25.03-.05-.04-.2-.11-.28-1.44-1.62-1.05-3.54-.73-5.35.46-2.67.35-5.34-.07-7.95-.57-3.5-.05-6.8.87-10.14.57-2.07,1.2-4.19,1.28-6.31.22-5.95,1.09-11.84,1.2-17.8.11-5.7.66-11.38,1.02-17.08.13-2.02.16-4.06.42-6.07.76-5.65,1.6-11.28,2.43-16.92.61-4.13,1.22-8.27,1.89-12.39.39-2.37,1.01-4.71,1.32-7.1.56-4.3,1.61-8.46,2.95-12.57,1.18-3.61,2.31-7.24,3.33-10.9,1.23-4.38,2.29-8.81,3.48-13.21,1.66-6.14,2.84-12.34,2.57-18.75-.07-1.65.07-3.3.04-4.95-.09-5.44,1.28-10.52,3.49-15.44,1.87-4.15,3.73-8.3,5.13-12.67,1.43-4.45,3.09-8.84,5.38-12.98,1.95-3.54,3.61-7.25,5.19-10.97.79-1.86,1.66-3.65,2.65-5.42,1.28-2.29,2.7-4.54,3.48-7.3-2.72-.95-5.26-2.07-8.04-2.38-.86-.1-1.75.03-2.62.13-1.64.19-3.26.56-4.91.65-3.97.21-7.37,1.7-10.33,4.3-1.04.92-2.22,1.69-3.22,2.65-1.1,1.05-2.25,2.12-3.04,3.39-2.67,4.29-5.28,8.62-7.75,13.03-1.92,3.42-3.63,6.96-5.34,10.5-.77,1.59-1.41,3.26-1.95,4.94-.98,3.01-1.79,6.08-2.77,9.08-.55,1.68-1.29,3.3-1.96,4.94-1.74,4.23-2.21,8.81-3.98,13.07-2.43,5.84-4.15,11.97-6.64,17.78-3.24,7.57-6.52,15.11-8.85,23.03-.43,1.46-.9,2.91-1.21,4.39-1.44,6.95-2.84,13.9-4.24,20.86-.12.62-.24,1.25-.25,1.87-.08,3.3-.16,6.59-.18,9.89-.02,3.17.3,6.37-.04,9.5-.45,4.17-.34,8.34-.49,12.51-.08,2.18.24,4.26,1.17,6.29,1.62,3.54,2.11,7.27,1.28,11.13-.48,2.23-.94,4.47-1.43,6.69-.5,2.26-.75,4.45.31,6.69,1.13,2.4,1.01,4.92.12,7.41-.47,1.31-.96,2.62-1.39,3.94-.52,1.58-.71,3.11.05,4.77.56,1.23.65,2.68.91,4.03.49,2.58-.36,5-.97,7.34,2.44,4.3,2.55,4.59,2.31,9.49-.1,2.02-.41,4.03-.68,6.04-.2,1.51-.53,3,.28,4.46,1.43,2.61,1.24,5.38.75,8.16-.38,2.12-.77,4.24-1.15,6.37-.2,1.15-.17,2.21.55,3.26,1.05,1.52,1.19,3.29,1.07,5.11-.16,2.66-.25,5.32-.36,7.99-.08,2.04,0,4.08.92,5.96.94,1.92.95,3.91.65,5.95-.14.99-.23,1.99-.34,3.01,3.61,3.27,2.35,7.54,2.43,11.53,2.59,1.18,3.46,3.3,3.63,5.88.07,1.13.26,2.29.62,3.36.6,1.8,1.31,3.59,3.38,4.28,1.64.54,2.34,1.92,2.75,3.41.87,3.18,1.68,6.37,2.38,9.58.47,2.13.92,4.2,2.52,5.83.22.22.17.7.3,1.32-.69.02-1.33.23-1.83.04-2.6-1.01-3.84-3.08-4.44-5.73-.81-3.57-1.76-7.11-2.66-10.69-3.8-1.02-4.81-4.03-5.6-7.17-.25-.98-.36-1.99-.51-2.99-.22-1.47-.77-2.62-2.32-3.17-1.78-.63-2.5-2.05-2.44-3.89.05-1.52.09-3.04.25-4.55.16-1.44.16-2.74-1.05-3.83-1.02-.93-1.05-2.28-1.04-3.54,0-.88.18-1.77.36-2.63.39-1.8.2-3.47-.6-5.17-.63-1.34-1.03-2.74-.91-4.37.21-3.02-.03-6.07-.05-9.11,0-1.28.16-2.69-.85-3.6-1.93-1.74-1.73-3.8-1.21-5.96.61-2.59,1.25-5.17,1.88-7.75.4-1.65.53-3.24-.55-4.73-1.02-1.41-1.22-3.02-1.03-4.72.26-2.26.52-4.53.7-6.8.2-2.52.54-5.06-1.5-7.17-.46-.48-.7-1.4-.66-2.1.06-1.24.27-2.52.67-3.7.84-2.53.77-4.98-.32-7.38-1.4-3.07-1.57-5.91.19-9.04,1.34-2.39,1.98-5.11.39-7.98-.81-1.46-1-3.33-.52-5.16.51-1.96.6-4.03,1.17-5.96,1.27-4.32,1.17-8.48-.8-12.58-1.06-2.21-1.41-4.61-1.47-7.03-.06-2.27.05-4.54.13-6.81.16-4.56.58-9.12.47-13.68-.18-7.78.49-15.44,2.35-23,.39-1.6.77-3.21,1.06-4.83,1.14-6.5,2.86-12.86,4.82-19.15.49-1.57,1.16-3.08,1.77-4.61,2.35-5.88,4.79-11.73,7.05-17.65,2.85-7.45,5.54-14.95,7.81-22.61,1.18-4.01,2.77-7.89,4.12-11.85.74-2.15,1.17-4.43,2.08-6.5,1.98-4.52,4.16-8.96,6.29-13.41.82-1.71,1.68-3.37,2.9-4.88,1.1-1.37,2.01-2.94,2.76-4.53,1.69-3.56,3.49-7.01,7.23-9.67Zm19.29,387.58q2.48.19,3.33-.67c-1.07.27-2.23-.25-3.33.67Zm-3.02-.16c-.27-.26-.48-.53-.75-.67-.12-.06-.38.12-.57.19.23.25.44.52.7.72.08.06.34-.12.61-.23Z"/>
    <path class="cls-1" d="m528.99,287.35c1.66-3.95,3.31-7.6,8.5-7.11.39-.79.73-1.6,1.16-2.35.69-1.2,1.26-2.54,2.21-3.51,1.85-1.9,3.89-3.61,5.9-5.36,1.24-1.08,2.53-2.09,3.81-3.12,3.46-2.81,7.32-3.33,11.45-1.85,4.66,1.67,9.13,3.75,13.36,6.35,1.34.82,2.47,1.71,3.03,3.25,1.01,2.79,2.84,5.06,4.76,7.27.66.76,1.15,1.66,1.72,2.49,1.78,2.61,3.48,5.29,5.39,7.81,1.12,1.49,1.77,3.01,1.78,4.88.02,2.68.34,5.35,2.2,7.46.99,1.13,2.19,2.09,3.39,3,2.32,1.76,4.72,3.34,6.66,5.61,2.36,2.77,3.76,5.96,5.14,9.22.69,1.63,1.42,3.25,2.04,4.9.44,1.15.66,2.39,1.12,3.53,1.32,3.27,2.69,6.52,4.08,9.77,1.29,3.02,2.66,5.99,3.57,9.19,1.33,4.64,3.92,8.75,6.23,12.96.66,1.21,1.36,2.43,1.79,3.73,1.9,5.8,3.32,11.7,3.2,17.88-.05,2.65.29,5.25,1.13,7.84.73,2.26.93,4.72,1.16,7.11.26,2.64.14,5.32.45,7.95.34,2.88,1.05,5.71,1.46,8.59.84,5.89,1.67,11.79,2.31,17.7.23,2.12-.04,4.3-.18,6.44-.14,2.06-.76,4-2.15,5.57-.88.99-.79,2.09-.7,3.22.14,1.64.36,3.27.47,4.91.23,3.41-.11,6.81-.33,10.22-.02.37-.19.76-.11,1.1,1.26,5.03-.89,9.75-1.32,14.62-.04.47-.34.97-.65,1.34-2.19,2.56-3.2,5.73-4.61,8.7-.6,1.27-1.24,2.44-2.41,3.34-.78.6-1.33,1.52-1.94,2.32-1.92,2.51-3.63,5.17-5.87,7.45-1.8,1.83-2.73,4.24-3.44,6.7-.35,1.22-.61,2.47-1.05,3.65-1.23,3.36-3.49,5.58-7.19,5.89-3.73.31-6.36,2.18-8.23,5.32-.51.86-1.19,1.63-1.77,2.46-.7,1-1.65,1.53-2.87,1.63-1.94.16-3.72.64-5.21,2.03-.52.48-1.34.77-2.06.88-2.22.35-4.01,1.44-5.71,2.83-1.47,1.2-3.1,2.2-4.62,3.34-1.5,1.12-3.12,1.61-4.99,1.36-1.51-.21-2.95-.2-4.3.89-1.35,1.09-3.1,1.28-4.72.72-3.72-1.28-7.39-1.27-11.14-.18-.7.21-1.52.12-2.27.02-4.64-.61-9.27-1.29-13.91-1.9-2.18-.29-3.78-1.33-4.79-3.3-1.12-2.17-2.79-3.5-5.33-3.71-1.38-.12-2.74-.51-4.11-.76-2.45-.45-4.55-1.36-6.04-3.54-1.59-2.33-3.83-4.11-6.26-5.44-3.18-1.73-5.98-3.78-7.74-6.97-1.35-2.44-3.44-4.07-5.77-5.33-2.47-1.34-3.74-3.41-4.26-5.97-.56-2.78-1.62-5.32-3.15-7.67-2.08-3.2-3.44-6.69-4.63-10.3-.9-2.75-2.21-5.36-3.34-8.04-.3-.7-.75-1.38-.86-2.11-.55-3.69-2.42-6.93-3.49-10.43-1.41-4.59-2.95-9.15-4.26-13.77-.93-3.28-1.5-6.65-2.38-9.94-.55-2.07-1.21-4.15-2.11-6.09-1.17-2.53-1.4-5.07-1.01-7.77.64-4.38,1.26-8.77,1.8-13.16.31-2.51.63-5.04.61-7.57-.03-5.44,1.38-10.53,3.41-15.48.65-1.58.99-3.1.81-4.79-.28-2.7.09-5.27,1.47-7.7,1-1.75,1.71-3.66,2.66-5.44.86-1.62,1.16-3.34,1.31-5.12.2-2.41.68-4.74,1.34-7.08.68-2.4,1.78-4.53,3.44-6.25,2.73-2.83,4.64-6.28,7.15-9.26.55-.65.86-1.54,1.15-2.37,1.31-3.69,2.53-7.42,3.89-11.1.48-1.29,1.29-2.46,1.94-3.69,2.56-4.8,5.1-9.61,7.67-14.4,1.38-2.56,2.81-5.09,4.22-7.63.18-.33.39-.66.64-.94,2.82-3.07,5.3-6.45,8.28-9.38.81-.8,1.56-1.66,2.3-2.51,2.15-2.47,4.73-4.17,8.04-4.62.5-.07.98-.24,1.69-.43Zm-55.99,150.72c-.03.62-.21,1.28-.06,1.86.63,2.56,1.36,5.09,2.05,7.63.49,4.05,1.75,7.9,3.08,11.73,1.45,4.19,2.95,8.36,4.43,12.54.42,1.19.83,2.38,1.29,3.56,1.23,3.18,3.24,6.1,3.84,9.48.55,3.12,2.11,5.7,3.74,8.21,1.27,1.95,2.29,3.88,2.73,6.17.5,2.59,1.79,4.63,4.18,6.03,2.42,1.42,4.43,3.29,5.78,5.89,1.07,2.06,2.87,3.53,4.89,4.68,3.66,2.1,6.86,4.75,9.64,7.93.4.46.91.97,1.46,1.11,2.05.53,4.15.91,6.56,1.41-.36-.66-.45-1.08-.7-1.24-2.56-1.63-5.18-3.17-7.71-4.84-3.16-2.08-6.56-3.9-9.11-6.74-2.77-3.09-6.43-5.45-8.03-9.52-.13-.33-.48-.58-.73-.87-2.2-2.48-3.94-5.25-5.41-8.22-2.37-4.78-4.29-9.71-5.55-14.91-.66-2.7-1.42-5.39-2.84-7.84-.57-.98-.92-2.09-1.27-3.17-2.06-6.53-5.53-12.44-8.3-18.65-.44-1-1.33-1.79-2.01-2.69.47-3.4-.35-6.53-2.02-9.48-.04-1.39-.14-2.79-.12-4.18.07-4.05.17-8.1.29-12.15.06-2.14.18-4.29.27-6.43.12-2.91.01-5.84.4-8.72.61-4.51,1.49-8.99,2.36-13.46.36-1.85.73-3.68,1.39-5.49,1.44-3.92,2.55-7.94,4.51-11.68,2.71-5.19,3.62-11.06,5.85-16.44.77-1.86,1.34-3.81,1.94-5.73.19-.6.2-1.27.39-2.52-1.1,1.26-1.72,2.06-2.42,2.77-3.31,3.38-5.35,7.33-5.67,12.12-.11,1.63-.48,3.25-.74,4.87-.35,2.19-1.57,4-2.62,5.87-1.39,2.47-2.25,5.02-2.27,7.93-.01,3.03-.4,6.08-1.73,8.87-1.72,3.63-2.25,7.47-2.46,11.43-.37,7.22-1.11,14.39-2.65,21.47-.21.96-.32,2.09-.01,2.98.98,2.86,1.67,5.85,3.38,8.42Zm149.92-35.93c.08,0,.16-.02.25-.03-.07-.88-.1-1.76-.22-2.62-.51-3.64-1.04-7.27-1.59-10.9-.38-2.5-.63-5.03-1.22-7.48-.62-2.58-1.52-5.09-2.38-7.6-1.27-3.69-1.81-7.65-4.11-10.97-.42-.6-.48-1.44-.76-2.14-1.12-2.82-1.92-5.83-3.47-8.4-1.95-3.24-2.89-6.75-3.75-10.3-1.12-4.62-3.09-8.84-5.6-12.8-2.29-3.63-4.49-7.35-7.34-10.6-.49-.56-.81-1.28-1.19-1.94-.82-1.43-1.65-2.84-2.43-4.29-2.44-4.58-5.1-9.03-7.07-13.86-1-2.44-1.82-5-3.9-6.88-.72-.65-1.14-1.67-1.59-2.57-.9-1.81-1.56-3.75-2.61-5.47-2.24-3.67-4.61-7.26-8.49-9.52-1.7-.99-3.29-1.22-4.97-.09-.42.28-.86.54-1.27.84-2.07,1.48-3.94,3.12-5.66,5.04-2.18,2.45-4.94,4.39-7.07,6.87-2.93,3.4-6.31,6.18-9.95,8.74-3.21,2.25-6.22,4.79-9.48,6.97-1.06.71-2.05,1.92-3.66,1.66-.4-.06-1.01.28-1.3.63-1.71,2.03-3.6,3.96-4.95,6.21-2.14,3.57-3.91,7.36-5.81,11.07-.58,1.13-1,2.33-1.61,3.44-2.19,4-4.41,7.98-6.66,11.94-1.43,2.52-2.79,5.11-4.43,7.49-1.38,1.99-2.54,4.07-3.54,6.25-2.24,4.84-3.72,9.95-5.15,15.06-1.37,4.88-2.84,9.68-5.21,14.2-2.24,4.27-3.66,8.86-4.53,13.62-.54,2.99-1.21,5.97-1.7,8.97-.49,3-1.12,6.01-1.15,9.03-.05,5.2-.21,10.38-.44,15.57-.13,2.86-.21,5.8.51,8.65.5,1.97,1.05,3.93,1.39,5.92.72,4.31,2.62,8.17,4.5,12.04,1.81,3.75,3.84,7.39,5.08,11.4.6,1.93,1.34,3.84,2.22,5.65,1.4,2.87,2.37,5.86,2.99,8.98.32,1.59.48,3.23,1.56,4.6.37.47.45,1.17.62,1.77,1.08,3.67,2.77,7.07,4.72,10.33,2.68,4.47,5.98,8.5,9.76,12.03,2.38,2.22,4.64,4.65,7.59,6.29,3.64,2.03,7.16,4.29,10.66,6.55,2.6,1.68,5.37,2.83,8.44,3.22,3.14.4,6.29.69,9.4,1.25,1.97.35,3.99.84,5.77,1.71,1.87.92,3.57,1.08,5.47.44,3-1.03,5.98-2.1,8.72-3.72,2.32-1.37,4.73-2.35,7.53-2.3,1.63.03,3.26-.42,4.9-.6,2.01-.23,3.57-1.14,4.76-2.8.5-.7,1.13-1.43,1.87-1.81,3.84-1.94,7.57-4.08,11.34-6.14,4-2.19,6.98-5.4,10.09-8.56.35-.35.68-.77.87-1.23,1.34-3.19,3.52-5.84,5.35-8.73,1.21-1.91,2.21-3.99,2.99-6.11.44-1.19.78-2.37,1.53-3.42.43-.61.66-1.36.94-2.06,1.15-2.84,1.54-5.86,2.18-8.83.42-1.97.98-3.91,1.51-5.85.77-2.81,1.73-5.57,2.3-8.42.57-2.84.61-5.8,1.17-8.64.85-4.38,1.12-8.78,1.15-13.21.01-2.79.09-5.6-.24-8.35-.64-5.4-1.54-10.77-2.32-16.16-.44-3.01-.87-6.02-1.31-9.03Zm-30.92-93.79c1.23,2.22,2.07,3.76,2.92,5.29.43.77.82,1.58,1.33,2.29,2.15,2.97,4.34,5.92,6.53,8.86,3.36,4.53,5.39,9.71,7.16,14.98,1.2,3.57,1.58,7.42,3.95,10.56.22.3.36.67.48,1.03,1.31,4.11,2.98,8.06,5.04,11.85.3.55.46,1.18.61,1.79,1.18,4.79,2.79,9.45,4.32,14.13.5,1.55.71,3.2.94,4.83.64,4.38,1.18,8.78,1.85,13.15.27,1.75.62,3.46.44,5.27-.11,1.11.15,2.27.3,3.4.95,6.9,1.94,13.79,2.86,20.69.15,1.12.1,2.28.09,3.42,0,3.17-.07,6.34-.05,9.51,0,.7-.18,1.56.81,1.99.24-.22.64-.42.74-.72.92-2.91,1.56-5.82,1.08-8.93-.72-4.63-1.24-9.29-1.87-13.93-.26-1.88-.49-3.77-.91-5.62-.77-3.35-1.1-6.73-1.24-10.16-.13-3.03-.36-6.12-1.1-9.03-1.18-4.6-1.74-9.19-1.32-13.92.05-.61.23-1.43-.08-1.82-.88-1.1-.69-2.38-.98-3.59-.66-2.7-1.26-5.49-2.44-7.98-1.39-2.96-3.07-5.8-4.53-8.75-1.3-2.63-2.48-5.27-3.28-8.07-.52-1.83-1.11-3.61-2.09-5.27-1.67-2.83-2.25-6.18-4.22-8.89-.21-.29-.3-.71-.34-1.08-.41-3.87-2.73-7.05-3.88-10.66-.53-1.67-1.47-3.22-2.25-4.81-1.26-2.56-3.1-4.61-5.49-6.18-1.58-1.04-3.13-2.12-5.39-3.66Zm18.46,197.94c-.19-.14-.39-.27-.58-.41-.73.66-1.51,1.27-2.19,1.98-2.64,2.74-5.38,5.33-9,6.79-.69.28-1.27.81-1.93,1.19-1.19.69-2.36,1.44-3.61,2.01-2.31,1.06-4.77,2-6.33,4.03-1.68,2.19-3.95,3.18-6.39,3.78-2.31.57-4.74.86-7.12.94-1.72.06-3.14.49-4.64,1.32-2.76,1.54-5.61,2.93-8.51,4.18-2.92,1.26-5.9,1.13-8.84-.17-1.26-.56-2.58-1.14-3.93-1.35-4.37-.68-8.76-1.2-13.15-1.74-.56-.07-1.15.11-1.86.19.77,2.68,2.24,4.01,4.86,4.27,3.27.33,6.51.96,9.78,1.39,1.63.21,3.23.13,4.89-.18,2.97-.55,5.99-1.06,8.98.17,1.59.65,3.23.44,4.72-.54,1.42-.94,3.01-1.48,4.68-.99,1.51.45,2.7.12,3.88-.82.89-.71,1.93-1.24,2.76-2,2.01-1.83,4.29-3.12,6.9-3.86.6-.17,1.28-.34,1.74-.72,2.21-1.88,4.91-2.55,7.69-3.12.6-1.01,1.21-1.96,1.75-2.95,1.01-1.84,2.45-3.07,4.41-3.95,2.22-1,4.39-1.94,6.84-2.11,1.43-.1,2.32-.94,2.73-2.27.51-1.67.98-3.35,1.47-5.03Zm20.13-57.02c-.17.03-.35.05-.52.08-.09.36-.25.71-.25,1.07.07,4.85-1.06,9.46-2.46,14.07-1.46,4.83-3.14,9.64-3.7,14.71-.08.74-.33,1.49-.64,2.16-1.11,2.39-2.54,4.64-2.82,7.35-.04.35-.31.69-.5,1.01-1.23,2.06-2.47,4.12-3.71,6.17-.25.42-.63.83.33,1.05,1.86-2.5,3.55-5.19,5.68-7.49,1.53-1.65,2.52-3.5,3.21-5.51.59-1.72,1.42-3.21,2.55-4.6.54-.67,1.12-1.45,1.29-2.26.83-3.95,1.58-7.92,1.57-11.98,0-2.91.06-5.81.06-8.72,0-2.37-.05-4.75-.08-7.12Zm-98.7-156.28c-5.11-.66-6.11-.51-9.16,2.68-3.5,3.65-6.78,7.52-10.1,11.33-.57.66-.94,1.5-1.36,2.28-2.35,4.35-4.68,8.71-7.03,13.05-.78,1.45-1.5,2.95-2.43,4.3-2.55,3.7-4.07,7.85-5.45,12.07-.12.38-.02.83-.02,2.15,1.37-2.24,2.32-3.7,3.19-5.2,1.65-2.84,3.1-5.8,4.91-8.53,2.59-3.91,3.87-8.52,6.7-12.29.14-.19.14-.48.21-.73.93-3.13,2.8-5.64,5.07-7.91.71-.71,1.34-1.49,2-2.24.82-.95,1.63-1.91,2.45-2.85.74-.85,1.45-1.74,2.28-2.5,2.2-2.02,4.08-4.57,7.52-4.65.36,0,.7-.55,1.22-.98Zm11.88-14.52c-.64,1.02-1.23,1.83-1.68,2.72-.43.84-.5,1.69.74,2.34,2.43-2.28,5.06-4.46,7.32-6.97,2.21-2.46,4.55-4.67,7.39-6.37.62-.37,1.39-.68,1.36-1.7-2.18-.89-3.88.15-5.5,1.42-1.18.93-2.31,1.94-3.47,2.91-1.26,1.06-2.42,2.16-2.96,3.82-.26.8-.87,1.48-1.3,2.18-.65-.12-1.13-.21-1.89-.35Zm41.5,14.38c.14,1.71.33,3.39,1.74,4.96.89-2.35.16-3.85-1.74-4.96Zm-48.28-8.18c-.41-.1-.53-.15-.64-.15-1.01.02-1.57.41-1.56,1.1,0,.11.06.27.14.31.69.35,1.09-.17,1.51-.55.17-.16.3-.37.55-.7Zm44.46,2.76l.18-.27-.26-.07.09.34Zm-41.98-1.27c-.04.09-.08.17-.12.26.14.02.27.04.41.07,0-.09.02-.21-.03-.27-.04-.05-.17-.04-.26-.05Z"/>
    <path class="cls-1" d="m297.68,394.98c-2.16-.73-4.3-1.53-6.49-2.18-2.3-.69-4.64-1.23-6.97-1.84-6.4-1.69-12.71-3.62-17.91-7.98-2.63-2.21-4.91-4.69-6.35-7.92-.86-1.95-2.11-3.74-3.3-5.53-1.61-2.43-3.25-4.83-4.32-7.57-1.39-3.56-3.36-6.79-5.47-9.97-.9-1.35-1.4-2.96-2.18-4.41-3.01-5.61-4.9-11.67-6.92-17.66-1.74-5.15-3.54-10.34-3.6-15.89,0-.38-.04-.77-.17-1.13-1.86-5.24-.9-10.62-.25-15.83.82-6.53,2.68-12.89,5.95-18.74,2.97-5.31,5.88-10.66,9.87-15.31.67-.79,1.07-1.65,1.33-2.67.35-1.32.85-2.67,1.58-3.82,1.34-2.15,2.67-4.38,4.41-6.18,2.17-2.26,4.25-4.71,7.08-6.23,3.35-1.79,6.36-4.18,10-5.46.7-.24,1.26-.84,1.91-1.24,1.83-1.13,3.66-2.26,5.51-3.36.76-.45,1.65-.72,2.34-1.26,4.33-3.36,9.43-4.88,14.63-6.03,6.43-1.42,12.92-2.57,19.38-3.87,9.41-1.9,18.65-.85,27.81,1.55,1.1.29,2.2.7,3.32.81,6.38.63,12.35,2.71,18.19,5.19,2.9,1.23,5.62,2.85,8.04,4.95,5.09,4.41,9.73,9.25,14.28,14.2,1.54,1.68,3.19,3.25,4.8,4.87.45.45,1.05.79,1.38,1.3,3.16,4.88,6.93,9.35,9.64,14.55,2.9,5.55,4.87,11.39,6.27,17.44.51,2.21.96,4.49.97,6.75.01,4.26,1.12,8.31,2.32,12.28,1.39,4.55,1.8,9.18,2.44,13.83.99,7.17-.07,14.16-1.48,21.13-.43,2.11-1.07,4.17-1.41,6.29-.73,4.49-2.68,8.38-5.2,12.11-2.36,3.5-5.11,6.56-8.25,9.38-2.35,2.11-4.58,4.4-6.53,6.87-3.27,4.12-7.35,7.31-11.35,10.63-3.55,2.95-7.69,4.83-11.81,6.77-2.28,1.07-4.57,2.16-6.77,3.4-3.3,1.85-6.94,2.35-10.57,2.93-1.5.24-3.01.39-4.52.62-5.4.83-10.79,1.05-16.28.69-4.02-.26-8.01-.99-12.07-.88-2.13.06-4.27-.46-6.41-.73-.5-.06-1-.29-1.49-.26-4.61.26-8.69-1.44-12.73-3.35-.91-.43-1.82-.87-2.73-1.31.09-.19.18-.37.23-.46-.04.12-.1.33-.17.54Zm115.2-70.37c-.12-2.28-.2-4.56-.39-6.83-.11-1.25-.34-2.51-.63-3.73-1.02-4.31-2.14-8.6-3.1-12.93-.38-1.72-.38-3.51-.66-5.26-.64-3.98-.8-8.06-2.44-11.86-.65-1.5-1.01-3.13-1.5-4.71-.23-.73-.33-1.52-.69-2.17-2.05-3.76-3.51-7.86-6.58-11.03-.87-.9-1.38-2.12-2.12-3.15-1.18-1.64-2.28-3.37-3.64-4.84-3.52-3.81-7.13-7.56-10.79-11.24-2.59-2.61-5.12-5.35-8.04-7.53-4.79-3.57-10.12-6.22-16.06-7.47-3.33-.7-6.63-1.54-9.95-2.29-5.93-1.34-11.87-2.67-17.99-2.64-2.78.01-5.61-.04-8.34.39-5.24.82-10.44,1.9-15.63,2.98-2.73.57-5.38,1.57-8.12,2.01-2.7.43-5.08,1.56-7.44,2.76-1.46.74-2.81,1.69-4.22,2.52-6.22,3.67-12.47,7.29-18.67,11-2.97,1.78-5.46,4.13-7.25,7.13-2.34,3.91-4.5,7.9-7.1,11.68-2.79,4.05-4.97,8.52-7.48,12.76-3.23,5.45-4.48,11.56-5.64,17.62-.88,4.57-1.19,9.29-.1,13.97.8,3.45,1.28,6.97,2.09,10.41.58,2.46,1.54,4.82,2.21,7.26,1.21,4.41,2.77,8.67,4.78,12.78.33.68.74,1.38.84,2.11.28,2.08,1.24,3.84,2.5,5.41,2.66,3.3,4.46,7.06,6.06,10.94,1.12,2.71,2.61,5.19,4.43,7.51,1.08,1.38,2.12,2.9,2.72,4.53,1.21,3.27,3.79,5.36,6.15,7.6,1.15,1.09,2.61,1.99,4.09,2.59,3.87,1.57,7.82,2.95,11.95,3.75,5.37,1.04,10.46,3.04,15.4,5.31,4.57,2.1,9.29,3.26,14.29,3.5,2.02.1,4.03.42,6.05.57,5.18.38,10.36.91,15.55,1.01,3.4.07,6.82-.48,10.23-.82,1.76-.18,3.52-.49,5.27-.79,2.12-.36,4.4-.38,6.31-1.23,7.27-3.25,14.63-6.42,21.04-11.27,2.52-1.91,4.97-3.95,7.17-6.21,1.94-1.98,3.73-4.11,5.74-6.05,2.09-2.01,3.76-4.51,6-6.33,3.13-2.56,5.05-5.98,7.29-9.16,1.75-2.48,2.55-5.47,3.15-8.46.52-2.61.97-5.24,1.59-7.83,1.12-4.7,1.84-9.43,1.66-14.29Z"/>
    <path class="cls-1" d="m739.17,461.01c2.75-.35,5.26.4,7.82,1.28,2.75.94,5.59,1.65,8.43,2.26,3.87.83,7.58,2.01,11.04,3.99.97.55,2.09.91,3.18,1.15,4.18.94,7.72,3.19,11.18,5.5,3.47,2.32,6.71,4.93,9.26,8.38,1.41,1.91,3.5,3.29,5.1,5.08,2.79,3.12,6.08,5.66,9.2,8.42.47.42.96.88,1.26,1.42,1.87,3.3,4.31,6.24,5.91,9.72,1.32,2.88,2.82,5.66,3.66,8.74.2.72.53,1.45.95,2.07,2.19,3.17,3.02,6.94,4.62,10.37.21.45.35.96.43,1.45.71,3.99,1.32,8,2.12,11.97,1.27,6.34.53,12.59-.47,18.86-.16,1-.2,2.02-.18,3.03.1,4-.98,7.83-2.15,11.54-1.94,6.14-4.07,12.25-7.46,17.82-1.05,1.73-2.05,3.51-2.9,5.34-1.61,3.48-4.26,6.28-6.22,9.52-.25.42-.68.75-1.07,1.06-3.02,2.38-5.34,5.4-7.74,8.35-2.56,3.15-5.01,6.4-8.2,8.96-.98.79-1.93,1.81-3.07,2.19-3.25,1.1-6.21,2.83-9.42,4.02-2.8,1.04-5.62,2.18-8.4,3.34-3.84,1.59-7.87,2.8-11.89,3.9-5,1.37-10.04,2.62-15.12,3.59-2.17.41-4.52.07-6.77-.1-5.17-.4-10.22-1.92-15.47-1.54-.25.02-.52.03-.76-.03-6.28-1.59-12.9-.73-19.14-2.64-.48-.15-.99-.29-1.49-.3-5.01-.12-9.26-2.38-13.51-4.69-2.44-1.33-5.06-2.36-7.46-3.75-3.52-2.03-6.74-4.5-9.61-7.4-3.73-3.78-7.5-7.53-11.27-11.28-3.93-3.92-6.84-8.48-8.51-13.76-2.14-6.76-4.02-13.59-4.47-20.74-.15-2.4-.61-4.78-.83-7.17-.12-1.38-.04-2.78-.04-4.17,0-.89.17-1.8.03-2.66-.71-4.28-.56-8.59-.61-12.89,0-.76-.09-1.55.09-2.27.83-3.31,1.81-6.59,2.61-9.91,1.99-8.21,6.07-15.56,9.6-23.1,2.67-5.72,6.41-10.9,11.14-15.26,2.32-2.14,4.53-4.4,6.42-6.97,1.04-1.42,2.35-2.67,3.68-3.83,4.29-3.74,8.49-7.61,13.45-10.5,3.49-2.03,6.95-4.14,10.49-6.09,7.01-3.86,14.39-6.85,22.04-9.17,1.44-.44,2.97-.6,4.47-.77,3.25-.37,6.46-.92,9.66-1.63,2.08-.46,4.26-.48,6.4-.69Zm30.88,169.12c.64,0,1.31.03,1.51-.8.8-.16,1.81.35,2.31-.74,2.57-.25,4.79-1.52,7.02-2.63,2.75-1.37,4.94-3.49,6.95-5.79,2.5-2.86,4.91-5.79,7.42-8.64,1.42-1.61,3.07-3.03,4.43-4.69,2.24-2.74,4.43-5.5,6-8.74,1.92-3.98,4.36-7.73,6.17-11.76,1.65-3.67,2.7-7.61,4.71-11.14.19-.33.42-.68.45-1.04.28-3.41,1.8-6.55,1.89-10.04.1-4.03.68-8.06,1.04-12.08.21-2.28.1-4.54-.41-6.79-.78-3.45-1.53-6.91-2.23-10.37-.72-3.61-1.81-7.04-3.39-10.41-1.49-3.19-3.49-6.17-4.34-9.66-.19-.79-.78-1.84-1.44-2.1-2.3-.87-2.61-2.93-3.3-4.8-.44-1.17-.76-2.39-1.27-3.53-1.27-2.82-3-5.27-5.83-6.78-.43-.23-.79-.64-1.13-1.01-3.87-4.16-8.58-7.5-11.86-12.24-5.13-4.31-10.1-8.87-16.92-10.45-.97-.22-1.87-.73-2.8-1.12-2.45-1.03-4.82-2.29-7.35-3.04-4.36-1.29-8.88-2-13.17-3.57-.93-.34-1.96-.51-2.96-.56-3.54-.17-7.06-.14-10.54.85-1.56.45-3.24.64-4.87.68-6.37.14-12.05,2.68-17.78,5.03-1.52.62-2.98,1.41-4.42,2.2-1.08.59-2.1,1.29-3.15,1.95-1.25.02-2.38.28-2.98,1.55-.55.25-1.1.51-1.65.76-.49.09-1.06.05-1.46.3-2.47,1.55-5.03,2.93-7.7,4.11-.57.25-1.06.69-1.55,1.09-3.14,2.56-6.28,5.12-9.4,7.71-.48.4-.85.94-1.28,1.4-3.48,3.69-6.96,7.37-10.43,11.07-4.55,4.86-8.06,10.38-10.49,16.59-1.47,3.77-2.78,7.62-4.93,11.1-1.13,1.84-1.87,3.86-2.31,6-.25,1.24-.75,2.42-1.1,3.64-.74,2.55-1.63,5.08-2.13,7.68-.67,3.49-1.12,7.1-.48,10.58.51,2.78.53,5.54.69,8.31.12,2.02.12,4.05.24,6.06.4,6.47,1.19,12.87,3.27,19.05.16.47.22.99.31,1.48,1.02,5.38,3.62,9.97,7.28,13.95,2.48,2.7,5.25,5.14,7.87,7.72,1.44,1.42,2.83,2.89,4.25,4.32,1.07,1.07,2.02,2.33,3.26,3.14,2.54,1.66,5.22,3.11,7.88,4.57,2.67,1.46,5.35,2.9,8.11,4.18,2.29,1.06,4.63,2.08,7.06,2.73,2.56.69,5.23.98,7.86,1.37,3.13.47,6.21,1.27,9.44.88,1.09-.13,2.25.26,3.38.43.87.13,1.75.41,2.62.4,3.57-.05,7.08.45,10.59,1.03,2.5.41,5.04.67,7.57.86,1.37.1,2.79.11,4.13-.15,2.85-.57,5.64-1.5,8.5-1.99,2.39-.41,4.58-1.36,6.88-2.01.28-.08.47-.51.7-.77,3.07.25,5.76-.87,8.37-2.28.58-.14,1.31.03,1.57-.76.99-.51,1.99-1.02,2.99-1.52.75-.34,1.79.21,2.33-.76Z"/>
    <path class="cls-1" d="m761.12,288.67c-2.5-1.5-2.68-3.65-2.16-5.85.6-2.58,1.27-5.18,2.24-7.65,1.87-4.76,2.66-9.77,3.57-14.74.84-4.6,1.37-9.27,1.8-13.93.63-6.83.6-13.64-.51-20.46-.59-3.61-.66-7.31-.84-10.97-.1-2.14-.72-4.27-.1-6.43.17-.6.23-1.25.45-1.83.38-1,1.76-1.24,2.54-.51.89.84,1.21,1.9,1.27,3.08.2,3.54.36,7.08.63,10.61.14,1.88.49,3.75.71,5.63.36,3.01.93,5.99.77,9.07-.14,2.78.05,5.58.04,8.37,0,1.77-.05,3.55-.23,5.31-.14,1.33-.05,2.64.82,3.61,1.63,1.82,1.46,3.94,1.39,6.08-.02.75-.11,1.51-.13,2.26-.04,1.8.37,3.43,1.34,5.04,1.17,1.92,2.38,3.91,2.4,6.54,2.07.66,3.58,2.14,4.92,3.84.54.69,1.24,1.26,1.82,1.91.75.85,1.58,1.66,2.17,2.61.7,1.15.86,2.6-.19,3.53-1.4,1.22-1.22,2.68-1.2,4.18.05,3.67.11,7.35.17,11.02.08,4.99-1.16,9.76-2.39,14.54-.53,2.08-1.13,4.16-1.49,6.27-.87,5.12-1.69,10.25-2.37,15.39-.21,1.61-.08,3.31.16,4.93.4,2.65.32,5.29.38,7.94.06,2.64.4,5.28.62,7.92.02.25.14.5.12.75-.32,4.57.63,9.07.88,13.61.36,6.57.74,13.14,2.1,19.63.81,3.83,1.15,7.76,1.71,11.65.49,3.38,1.29,6.67,2.31,9.96,1.68,5.43,3.29,10.91,3.88,16.63.22,2.12.91,4.19,1.32,6.29.22,1.1.41,2.22.43,3.33.02,1.11-.65,1.91-1.68,2.32-1.1.44-1.99.03-2.69-.83-.88-1.07-1.75-2.17-2.6-3.26-1.24-1.59-2.51-3.15-3.67-4.79-.87-1.23-1.78-2.49-2.35-3.87-.8-1.92-1.91-3.62-3.33-5.05-1.11-1.12-1.76-2.45-2.52-3.76-.82-1.42-1.74-2.78-2.6-4.18-.4-.64-.93-1.26-1.12-1.97-1-3.73-3.34-6.81-4.89-10.26-.26-.57-.76-1.06-.93-1.65-1.21-4.42-3.57-8.37-5.19-12.62-.86-2.24-1.25-4.64-1.92-6.96-.95-3.29-2.08-6.53-2.89-9.85-.86-3.57-1.49-7.19-2.12-10.81-.48-2.75-.89-5.51-1.16-8.28-.69-7.21-.77-14.43.42-21.61,1.25-7.5,2.41-15.01,4.73-22.29,1.34-4.21,2.19-8.59,3.3-12.87.54-2.07,1.18-4.12,1.88-6.57Zm24.69,139.44c-.06-1.29,0-1.91-.14-2.48-1.27-5.02-2.12-10.15-4.04-14.99-.37-.94-.69-1.92-.86-2.91-1.1-6.49-2.1-12.99-3.22-19.48-.99-5.75-1-11.58-1.58-17.37-.18-1.76-.17-3.55-.55-5.27-.55-2.51-.41-5.03-.51-7.54-.02-.63.23-1.29.12-1.89-.7-3.88-.8-7.77-.74-11.71.06-3.78-.92-7.56.08-11.34-.39-5.03,1.21-9.77,2.21-14.59,1.23-5.94,3.11-11.74,3.57-17.84.33-4.43.17-8.83-.62-13.21-.04-.21-.29-.39-.34-.46-1.79-.43-3.47-.82-5.39-1.28-.84.4-1.94,1.23-3.13,1.4-1.29.19-2.67-.24-4.28-.43-.34.67-.88,1.38-1.09,2.18-.51,1.95-.82,3.96-1.31,5.91-1.55,6.13-2.63,12.39-4.95,18.31-.14.35-.17.74-.26,1.11-1.03,4.3-2.44,8.54-2.49,13.03-1.84,7.62-1.39,15.37-.96,23.05.28,5.03,1.26,10.06,2.31,15,.95,4.44,2.42,8.77,3.67,13.15.8,2.79,1.49,5.62,2.43,8.37.65,1.9,1.78,3.64,2.48,5.53,1.62,4.38,3.35,8.68,5.63,12.79,2.19,3.97,4.07,8.13,6.45,12.01.33.53.57,1.16,1,1.58,2.13,2.07,3.64,4.51,4.67,7.29.23.61.91,1.05,1.84,2.06Zm-15.92-145.63c1.23-.95,2.1-1.67,3.01-2.33,2.04-1.47,2.89-1.35,4.38.6.15.2.24.45.39.65.7.91,1.15.9,2.1-.1.32-.34.53-.79.8-1.2-.76-1.01-1.38-1.97-2.13-2.81-.48-.54-1.09-1.14-1.76-1.32-2.16-.62-2.9-2.11-3.22-4.18-.48-3.13-2.18-5.73-4.13-8.74-.31.89-.51,1.31-.6,1.76-.47,2.21-.79,4.45-1.39,6.62-.7,2.55-1.66,5.03-2.46,7.56-.21.66-.7,1.34-.08,2.22,1.9-1.23,3.57-.84,5.08,1.26Z"/>
    <path class="cls-1" d="m703.16,307.45c.23.73.67,1.46.64,2.17-.22,4.7,1.72,8.86,3.13,13.16.75,2.28,1.25,4.64,1.76,6.98,1.35,6.18,2.77,12.35,3.9,18.57.86,4.73,1.26,9.54,1.97,14.29.45,3.02.78,6.04.58,9.08-.53,8.08-.74,16.2-2.48,24.17-.57,2.59-.82,5.25-1.24,7.87-.16,1-.36,2-.64,2.97-1.8,6.33-3.41,12.73-5.5,18.97-1.81,5.39-3.62,10.83-6.65,15.72-.52.84-1.18,1.69-1.98,2.22-1.37.9-2.85,1.67-4.37,2.27-1.41.56-2.47,0-3.13-1.33-.57-1.15-.81-2.34-.82-3.66-.04-5.74.72-11.34,2.23-16.88.93-3.41,1.26-6.93,1.11-10.52-.2-4.68-.05-9.38-.18-14.06-.07-2.36-.12-4.72-1.08-7.02-.56-1.33-.52-2.99-.45-4.49.13-2.83-.48-5.5-1.09-8.23-.86-3.82-1.9-7.6-1.92-11.59-.02-4.57-1.05-9.04-1.99-13.5-1.17-5.58-2.22-11.18-3.34-16.77-.22-1.11-.47-2.23-.84-3.3-1.25-3.59-2.13-7.27-2.59-11.05-.17-1.38-.31-2.83-.86-4.08-1.07-2.43-1.09-4.91-.93-7.46.09-1.39.09-2.79.07-4.18-.02-1.13-.06-2.23-.72-3.28-.44-.71-.65-1.69-.62-2.53.15-4.62.96-9.1,4.15-12.68,1.92-2.16,3.86-4.34,6.76-5.39,2.08-.75,3.61-2.29,4.64-4.29,1.05-2.02,2.14-4.02,3.2-6.04.47-.9.78-1.89,1.34-2.72,2.96-4.41,5.98-8.79,8.98-13.18,1.57-2.29,3.17-4.55,4.73-6.84,1.71-2.5,3.4-5.03,5.11-7.53,1.22-1.77,2.31-3.67,3.73-5.26,2.72-3.03,4.77-6.53,7.18-9.78.87-1.17,2.05-1.87,3.48-2.13.74-.13,1.56.56,1.57,1.29.03,1.19-.41,2.16-1.13,3.13-2.72,3.66-5.36,7.37-8,11.08-3.08,4.33-6.26,8.59-9.17,13.03-3.95,6.02-8.54,11.63-12.03,17.95-1.83,3.31-3.54,6.71-4.7,10.34-.64,2.02-.57,4.06.48,5.9,1.63,2.85,3.35,5.63,6.05,7.72,2.96,2.3,3.74,6.42,2.13,9.86-.16.34-.31.68-.47,1.04Zm-10.69,133.53c1.58-.51,2.17-1.68,2.7-2.76,2.97-6.03,5.75-12.14,6.98-18.82.11-.62.39-1.2.58-1.81,1.15-3.75,2.5-7.45,3.38-11.26,1.19-5.17,2.24-10.4,2.91-15.66.72-5.64,1.05-11.34,1.34-17.03.16-3.02.09-6.09-.23-9.1-.76-7.17-1.77-14.31-3.14-21.39-1.21-6.21-2.61-12.38-4.41-18.46-1.43-4.84-3.22-9.6-3.53-14.71-.02-.33-.34-.64-.32-.61-2.29-.96-4.25-1.78-6.29-2.63-1.5,1.42-3.15,1.5-5.16.68-1.89-.76-3.1-1.98-3.76-3.72-2.65.49-3,.79-2.97,2.78.03,2.02.03,4.07.31,6.06.48,3.38,1.21,6.72,1.74,10.1.52,3.26,1.24,6.44,2.46,9.51.42,1.04.47,2.23.78,3.33,1.06,3.79,1.79,7.65,2.26,11.56.17,1.37.5,2.74.88,4.08,1.16,4.04,1.69,8.17,2.12,12.33.38,3.65.58,7.32,1.2,10.93.81,4.74,1.79,9.45,2.05,14.28.1,1.86.12,3.71.78,5.54.51,1.4.72,2.97.75,4.47.08,3.91.01,7.83-.03,11.75-.03,2.79.11,5.6-.26,8.35-.43,3.25-1.34,6.43-1.99,9.65-.83,4.07-1.26,8.17-1.13,12.58Zm-2.95-154.78c-2.22,1.82-4.16,3.61-6.29,5.11-2.34,1.64-3.03,3.93-3.05,6.54,0,.64.49,1.29.78,2,1.54-.52,2.82-1.06,4.16-1.38,1.62-.39,3,.54,3.43,2.19.21.83.31,1.68.5,2.76,3.04-1.14,5.83-1.33,8.08,1.01,1.43-.29,2.49-.8,3.61-1.74-.87-1.21-1.42-2.43-2.35-3.17-4.06-3.25-7.11-7.09-8.14-12.31-.04-.22-.29-.4-.74-.99Z"/>
    <path class="cls-1" d="m297.89,520.05c.81.24,1.57.32,2.16.68.96.59,1.84,1.33,2.7,2.07.88.75,1.77,1.42,2.98,1.52.25.02.49.11.73.21,1.45.59,2.44,1.98,2.26,3.14-.19,1.2-1.53,2.61-2.77,2.82-2.2.39-4.17-.74-6.27-1.07-.28-.04-.63-.5-.71-.82-.56-2.31-1.1-4.64-1.55-6.97-.08-.41.27-.91.49-1.58Z"/>
    <path class="cls-1" d="m40.66,358.62c-.17-.98-.39-1.94-.5-2.92-.12-1.12.5-1.9,1.42-2.43,1.94-1.12,3.9-.03,3.91,2.2,0,.62-.09,1.25-.22,1.85-.4,1.9-1.23,2.4-3.19,1.98-.24-.05-.47-.15-.7-.24-.11-.05-.21-.12-.73-.44Z"/>
    <path class="cls-1" d="m46.55,428.69c-.03-1.32.31-2.37,1.18-3.2.77-.74,1.88-.87,2.78-.37.86.48,1.31,1.23,1.17,2.17-.15.98-.48,1.94-.81,2.89-.33.95-1.1,1.32-2.07,1.3-1.09-.03-1.85-.69-2.1-1.8-.08-.37-.11-.74-.15-.98Z"/>
    <path class="cls-1" d="m70.11,512c-.5-.33-1.11-.58-1.5-1.03-1.02-1.15-1.07-2.89-.23-4.21.55-.87,1.59-1.28,2.62-1.01.93.24,1.59.84,1.75,1.78.28,1.61-.25,2.99-1.51,4.03-.27.22-.68.27-1.12.44Z"/>
    <path class="cls-1" d="m154.96,504.73c.43.06.72.02.91.14,1.92,1.2,2.66,3.25,1.91,5.22-.53,1.38-2.46,1.7-3.41.56-1.03-1.23-1.24-3.63-.38-4.99.25-.4.69-.68.96-.94Z"/>
    <path class="cls-1" d="m49.52,534.49c-.11,1.27-1.88,3.32-3.06,3.55-.91.18-1.98-.5-2.37-1.49-.35-.89-.17-1.98.51-2.42.84-.54,1.72-1.05,2.63-1.44,1.06-.45,2.39.64,2.28,1.8Z"/>
    <path class="cls-1" d="m94.17,300.73c1.41.63,2.36,1.18,2.54,2.72.25,2.12.83,4.23-1.48,5.71-1.13-.44-.71-1.68-1.12-2.51-.43-.88-.52-1.92-.86-2.85-.4-1.12.23-1.89.93-3.06Z"/>
    <path class="cls-1" d="m152.64,552.98c.31,1.17.65,1.87.63,2.56-.03.87-.32,1.73-.55,2.58-.32,1.14-1.26,1.8-2.2,1.6-.97-.2-1.51-1.01-1.44-2.32.05-1,.22-2,.35-3.13.93-.37,1.83-.74,3.21-1.29Z"/>
    <path class="cls-1" d="m91.25,379.41c.05,1.51-.84,2.44-1.89,2.36-.61-.04-1.27-.17-1.79-.46-.39-.22-.83-.76-.83-1.16,0-1.53.44-2.95,1.68-3.99.48-.4,1.42-.33,1.66.21.5,1.13.9,2.31,1.17,3.04Z"/>
    <path class="cls-1" d="m99.94,586.07c.8.93,1.32,1.61,1.93,2.2.84.81.88,1.73.6,2.77-.34,1.27-.98,1.88-2.02,1.83-1.14-.05-2.31-1-2.27-2.1.05-1.6.18-3.23,1.77-4.7Z"/>
    <path class="cls-1" d="m117.43,445.02c-.39.72-.77,1.78-1.45,2.6-.67.81-2.03.52-2.6-.35-1.35-2.05-.95-3.62,1.26-5.01.91-.57,2.08-.14,2.4.92.14.48.21.97.39,1.84Z"/>
    <path class="cls-1" d="m142.56,585.99c.8.4,1.18.49,1.4.73.42.46.72.95,1.51.7,1.01-.32,1.34.37,1.39,1.2.09,1.56-.79,2.65-2.1,3.21-.52.22-1.46-.14-2.02-.51-.91-.59-1.32-3-.84-4.07.2-.45.47-.88.66-1.25Z"/>
    <path class="cls-1" d="m80.3,444.97c2.15,1.68,3.09,3.28,2.2,5.54-.29.75-1.04,1.19-1.79,1.01-1.96-.46-2.81-1.92-2.04-3.65.4-.9.96-1.72,1.63-2.9Z"/>
    <path class="cls-1" d="m87.8,545.66c1.19.84,1.35,1.68,1.18,2.61-.21,1.11-.28,2.27-1.2,3.13-.9.84-2.29.67-2.92-.41-.65-1.11-.59-2.25.2-3.18.24-.28.56-.51.86-.73.59-.45,1.19-.89,1.89-1.41Z"/>
    <path class="cls-1" d="m71.29,582.34c-.09,2.32-1.54,3.43-3.43,2.65-.9-.37-1.47-1.17-1.26-2.08.2-.83.54-1.67.99-2.4.46-.75,1.56-.99,2.37-.64.75.32,1.2.89,1.27,1.72.02.25.04.5.05.75Z"/>
    <path class="cls-1" d="m119.36,521.59c-.57.87-1.08,1.86-1.8,2.68-.76.86-2.6.43-2.79-.64-.3-1.73-.39-3.49.82-4.98.13-.16.44-.18.67-.27.98,1.01,1.95,2.02,3.1,3.21Z"/>
    <path class="cls-1" d="m138.98,546.2c-.85-.05-1.72-.5-2.33-1.39-.57-.83-.51-2.06.09-2.84.6-.78,1.71-1.06,2.74-.68,1.02.37,2.02,2.36,1.74,3.44-.2.75-1.18,1.46-2.24,1.46Z"/>
    <path class="cls-1" d="m49.11,508.28c-.35.93-.58,1.63-.88,2.31-.33.74-.92,1.2-1.76,1.09-.79-.1-1.69-1.02-1.63-1.81.06-.84.29-1.71.64-2.47.38-.82,1.68-1.43,2.17-1.02.61.51,1,1.28,1.46,1.9Z"/>
    <path class="cls-1" d="m100,271.72c-.16.62-.34,1.61-.67,2.54-.31.87-1.31,1.34-2.12,1.16-.81-.18-1.46-1.13-1.15-2.06.39-1.17.95-2.29,1.58-3.35.19-.31.92-.53,1.31-.43.38.1.69.63.95,1.02.12.18.05.49.1,1.11Z"/>
    <path class="cls-1" d="m82.63,587.9c-.1,1.05.01,1.88-.31,2.49-.31.59-1,1.1-1.64,1.39-.8.36-1.5-.2-1.91-.84-.39-.62-.67-1.36-.78-2.08-.26-1.62.62-2.35,2.2-1.88.71.21,1.4.52,2.43.91Z"/>
    <path class="cls-1" d="m49.02,479.35c1.28-.11,2.19.5,2.79,1.56.57.99.1,2.33-.95,2.91-.69.38-1.64.26-2.03-.38-.46-.74-.88-1.53-1.19-2.34-.34-.9.38-1.74,1.38-1.75Z"/>
    <path class="cls-1" d="m135.97,477.81c.77,1.6,1.43,2.68,1.79,3.85.2.64-.05,1.46-.24,2.15-.08.28-.54.65-.81.64-.45-.02-1.14-.2-1.29-.52-.9-1.87-1.47-3.79.56-6.13Z"/>
    <path class="cls-1" d="m86.24,409c1.03-.05,1.84.73,1.94,1.88.14,1.53-.59,2.81-1.68,2.97-1.24.19-2.31-1.04-2.41-2.77-.07-1.18.79-2.01,2.15-2.08Z"/>
    <path class="cls-1" d="m137.93,568.81c0-1.39.67-2.12,1.98-2.12,1.08,0,1.93,1,1.93,2.28,0,1.23-.92,2.17-2.08,2.12-1.27-.06-1.82-.75-1.83-2.27Z"/>
    <path class="cls-1" d="m145.92,424.37c.03-.51,0-.9.1-1.26.22-.81.8-1.27,1.63-1.34.73-.06,1.49.59,1.47,1.4-.03.99-.15,2.01-.4,2.97-.1.38-.73.94-1.02.89-.54-.11-1.18-.49-1.46-.96-.3-.49-.24-1.21-.32-1.7Z"/>
    <path class="cls-1" d="m61.9,555.24c.05,1.04-.79,2.14-1.68,2.21-1.13.08-2.56-1.26-2.5-2.35.04-.74.94-1.61,1.77-1.72,1.16-.15,2.36.78,2.41,1.86Z"/>
    <path class="cls-1" d="m79.58,537.66c0,1.05.09,2.03-.04,2.99-.05.39-.57.97-.91,1-.54.04-1.34-.15-1.62-.54-.49-.67-.76-1.55-.94-2.38-.21-.93.56-1.65,1.55-1.52.6.08,1.18.27,1.97.45Z"/>
    <path class="cls-1" d="m123.38,584.11c1.44.14,2.21,1.21,2.04,2.49-.18,1.3-1.18,2.18-2.34,1.9-.43-.11-1.1-.55-1.11-.85-.03-.97.11-1.98.39-2.91.1-.33.79-.49,1.02-.62Z"/>
    <path class="cls-1" d="m64.29,312.94c-.09.3-.14.97-.48,1.44-.32.45-.97,1-1.41.95-.41-.05-.92-.79-1.04-1.3-.16-.7-.14-1.52.08-2.2.16-.49.71-.99,1.21-1.19.6-.25,1.44.52,1.55,1.25.04.25.04.5.09,1.06Z"/>
    <path class="cls-1" d="m160.96,351.29c.08,1.03-.68,2.06-1.6,2.17-.94.11-1.9-.79-1.94-1.82-.05-1.31.8-2.49,1.76-2.44.86.04,1.7,1.02,1.78,2.08Z"/>
    <path class="cls-1" d="m110.53,557.03c1.16.56,1.4,1.5,1.07,2.55-.31.99-1.59,1.58-2.79,1.45-.84-.09-1.43-.61-1.66-1.34-.26-.83.26-1.43.98-1.81.44-.23.9-.44,1.37-.62.34-.13.71-.17,1.03-.24Z"/>
    <path class="cls-1" d="m110.77,503.09c-1.35-.08-2.18-1.19-2-2.64.11-.82.78-1.41,1.52-1.35,1.41.13,2.33.93,2.31,2.01-.01,1.08-.89,2.04-1.83,1.98Z"/>
    <path class="cls-1" d="m82.28,486.05c.82,0,1.47.6,1.5,1.38.05,1.16-.73,2.15-1.67,2.13-1.07-.03-1.96-.86-2-1.89-.03-.91.92-1.62,2.16-1.62Z"/>
    <path class="cls-1" d="m44.18,465.32c-.27.32-.46.64-.73.83-.17.12-.54.14-.72.04-1.03-.59-1.85-1.43-1.77-2.67.03-.52.47-1.2.93-1.47.63-.37,1.24.15,1.5.74.35.79.53,1.66.8,2.53Z"/>
    <path class="cls-1" d="m85.51,577.98c-.46-.64-1-1.07-1.08-1.59-.19-1.09.77-2.51,1.68-2.51.52,0,1.2.35,1.52.77.49.64.28,1.49-.24,2.04-.46.5-1.14.8-1.88,1.28Z"/>
    <path class="cls-1" d="m87.19,526.48c-.22.69-.26,1.26-.55,1.6-.37.43-.95.9-1.46.94-.71.05-.95-.67-1.01-1.33-.03-.37-.09-.75-.05-1.11.08-.74.93-1.6,1.47-1.36.6.26,1.07.83,1.6,1.27Z"/>
    <path class="cls-1" d="m142.69,361.33c1.53.06,2.45,1.03,2.31,2.14-.09.69-.86,1.4-1.51,1.38-.91-.03-1.65-1.22-1.47-2.58.05-.38.49-.71.66-.94Z"/>
    <path class="cls-1" d="m122.8,557.9c.33.85.78,1.5.75,2.11-.02.44-.67,1.13-1.1,1.19-.47.06-1.14-.39-1.48-.82-.2-.25-.08-1,.17-1.31.34-.44.93-.68,1.66-1.17Z"/>
    <path class="cls-1" d="m98.72,329.7c1.11-.06,1.98.52,1.94,1.27-.04.78-.64,1.42-1.41,1.49-.97.09-1.83-.51-1.94-1.35-.09-.7.58-1.38,1.41-1.42Z"/>
    <path class="cls-1" d="m105.75,313.9c-.39.13-.92.46-1.43.42-.64-.04-1.22-.52-.99-1.24.11-.36.65-.77,1.04-.83.77-.11,1.52.71,1.38,1.65Z"/>
    <path class="cls-1" d="m48.93,391.03c.48.76.91,1.19,1.04,1.7.18.64-.44,1.3-1.01,1.18-.64-.13-1.22-.53-1.11-1.21.08-.49.57-.92,1.07-1.67Z"/>
    <path class="cls-1" d="m599.07,425.43c0,2.03.09,4.06-.02,6.09-.32,6.26-1.73,12.33-4.09,18.09-1.92,4.68-4.43,9.06-8.48,12.41-1.83,1.52-3.26,3.52-4.93,5.24-.7.72-1.47,1.49-2.37,1.86-2.27.93-4.2,2.35-6.07,3.87-2.27,1.84-5,2.38-7.74,2.91-1.98.39-3.94.91-5.94,1.17-4.38.57-8.75,1.44-13.21.4-3.2-.75-6.46-1.3-9.72-1.8-2.63-.41-4.65-1.97-6.75-3.33-5.23-3.38-8.97-8.22-12.06-13.47-3.01-5.13-5.3-10.6-6.9-16.41-1.89-6.89-1.76-13.79-1.02-20.73.37-3.5,1.04-6.99,1.62-10.47.56-3.37,1.12-6.72,2.16-9.95,1.32-4.09,2.89-8.1,4.35-12.15.04-.12.07-.25.13-.36,3.97-7.03,7.55-14.32,13.44-20.08.81-.79,1.42-1.81,2.24-2.58,1.38-1.29,2.76-2.64,4.34-3.66,1.94-1.25,3.76-2.59,5.25-4.34,1.09-1.27,2.36-2.29,3.88-3,.57-.27,1.19-.53,1.64-.95,2.38-2.25,5.29-2.14,8.23-1.95.37.02.81.06,1.09.27,2.24,1.65,4.91,2.54,7.05,4.43,3.61,3.18,6.65,6.91,10.17,10.16,1.99,1.84,3.19,4.16,4.75,6.25,1.88,2.52,3.57,5.22,5.62,7.57,2.13,2.43,3.32,5.36,5.17,7.91,3.52,4.85,4.7,10.62,6.07,16.25,1.26,5.17,2.03,10.45,2.24,15.79.06,1.52,0,3.04,0,4.56-.06,0-.12,0-.19,0Zm-85.03.85c-.08,11.36,2.08,18.58,5.29,25.56.05.11.13.21.2.32,1.9,3.13,3.83,6.24,5.71,9.38,2.51,4.21,6.59,6.56,10.6,8.98.73.44,1.67.57,2.53.75,2.98.62,5.95,1.26,8.95,1.75,1.49.25,3.03.32,4.54.25,5.08-.24,10.05-1.25,14.98-2.44,1.08-.26,2.29-.62,3.09-1.33,2.03-1.79,4.38-3,6.69-4.3.76-.43,1.46-1.01,2.05-1.65,1.71-1.86,3.29-3.83,5.33-5.38.79-.6,1.5-1.41,2.02-2.26,2.27-3.76,5.45-7.08,5.79-11.79.04-.61.46-1.18.64-1.78.36-1.21.74-2.42.99-3.65.94-4.73,1.3-9.51,1.16-14.35-.19-6.48-.68-12.91-2.3-19.2-.88-3.43-1.97-6.81-3.01-10.2-.18-.59-.48-1.24-.92-1.64-1.59-1.4-2.25-3.36-3.23-5.11-.81-1.43-1.47-2.93-2.76-4.06-.55-.48-.85-1.24-1.3-1.85-1.04-1.43-2.1-2.84-3.14-4.27-.82-1.12-1.78-2.18-2.42-3.4-.78-1.5-1.87-2.69-3.03-3.87-2.31-2.34-4.72-4.61-6.82-7.12-2.35-2.81-5.34-4.61-8.56-6.09-1.25-.57-2.79-1.12-4.05-.43-2.09,1.15-4.45,1.96-6.02,3.9-1.7,2.09-3.71,3.8-6.02,5.17-.65.38-1.24.88-1.8,1.4-3.75,3.43-7.18,7.11-9.87,11.47-3.79,6.14-7.72,12.19-9.53,19.3-.06.24-.14.49-.27.71-1.38,2.33-1.92,5-2.39,7.55-1.43,7.7-3.25,15.36-3.11,19.69Z"/>
    <path class="cls-1" d="m344.98,325.86c-1.36,2.87-2,5.7-2.91,8.45-.59,1.8-1.16,3.62-1.7,5.44-1.87,6.31-3.8,12.57-3.94,19.28-.11,5.43-.79,10.85-1.24,16.27-.04.49-.19,1-.38,1.46-.53,1.21-2.21,1.65-3.21.81-1.09-.91-1.89-2.01-2.08-3.5-.56-4.27-1.12-8.53-1.76-12.79-.93-6.14-1.94-12.26-2.88-18.39-.19-1.24-.29-2.51-.39-3.76-.33-4.15-.64-8.31-.97-12.54-3.17-.99-6.19-.35-9.11.26-5.08,1.07-10.12,2.25-14.98,4.22-4.21,1.71-8.66,2.85-12.99,4.27-3.62,1.19-7.06,2.75-10.43,4.54-2.44,1.3-5.13,2.12-7.69,3.2-1.16.49-2.28,1.09-3.41,1.64-1.18.57-2.33.35-3.08-.56-.71-.85-.64-2.09.27-3.13,3.17-3.64,6.82-6.79,10.58-9.8,5.54-4.44,11.17-8.75,16.78-13.09,2.51-1.94,5.05-3.82,7.63-5.67.82-.59,1.75-1.03,2.68-1.43,4.3-1.86,8.62-3.68,12.93-5.52.79-.34,1.57-.72,2.28-1.06-.05-.45,0-.75-.12-.92-3.98-5.55-7.97-11.1-12-16.62-.82-1.12-1.88-2.07-2.67-3.2-3.42-4.87-6.72-9.83-10.18-14.67-2.28-3.19-4.77-6.22-7.15-9.34-.76-1-1.61-1.97-2.14-3.09-.68-1.41.27-2.52,1.81-2.37,2.04.21,3.94.78,5.71,1.88,2.37,1.46,4.82,2.8,7.25,4.16,2.67,1.48,5.12,3.21,7.39,5.3,2.23,2.05,4.79,3.74,7.22,5.56,2.22,1.66,4.38,3.35,6.41,5.27,4.69,4.42,9.67,8.51,15.07,12.5.42-.63.83-1.07,1.03-1.59,1.31-3.43,2.51-6.91,3.88-10.31,2.58-6.39,4.24-13.02,5.43-19.77.37-2.11.46-4.27.75-6.4.13-1,.36-2,.68-2.95.34-1,1.86-1.34,2.5-.51.6.77,1.12,1.71,1.34,2.65.53,2.34.76,4.76,1.31,7.1,1.38,5.95,1.58,12.05,2.31,18.08.65,5.36-.14,10.62-2.24,15.64-.14.34-.23.71-.32,1.08-.02.1.06.22.16.58.41-.04.92.03,1.31-.14,2.88-1.31,6.09-1.74,8.81-3.49.71-.46,1.67-.68,2.54-.74,2.34-.17,4.29-1.3,6.37-2.19,3.83-1.64,7.75-3.06,11.65-4.52.57-.21,1.25-.19,1.88-.18,1.79.03,2.99,1.04,2.94,2.77-.04,1.36-.3,2.79-.83,4.03-1.04,2.43-2.3,4.78-3.55,7.12-.53,1-1.18,1.98-1.96,2.79-4.34,4.53-9.16,8.37-15.31,10.2-.22.07-.41.25-.62.38-.11,1.03.93,1.05,1.42,1.55.43.44,1.04.7,1.57,1.03,1.28.82,2.83,1.4,3.8,2.5,2.37,2.69,5.9,3.86,8.17,6.66,3.52,4.34,7.73,8,11.89,11.71,1.13,1.01,2.1,2.2,3.19,3.26,4.32,4.19,5.92,9.62,7.03,15.27.24,1.24-.21,2.27-1.28,2.95-1.01.63-2.4.36-3.48-.65-.92-.86-1.72-1.88-2.71-2.66-2.59-2.06-5.67-3.28-8.57-4.82-1-.53-2.05-.95-3.11-1.35-1.89-.7-3.67-1.76-5.79-1.7-.5.01-1.06-.04-1.49-.25-3.98-1.96-8.48-2.62-12.25-5.1-2.01-1.32-4.27-2.27-6.19-3.69-2.33-1.72-4.43-3.76-6.64-5.65-.64-.55-1.32-1.07-2.17-1.74Zm-13.72-23.7c-.27-2.12-.49-4-.75-5.87-.05-.36-.19-.76-.41-1.05-1.37-1.77-2.18-4.03-4.51-4.96-.68-.27-1.28-.82-1.85-1.32-4.09-3.58-8.14-7.21-12.25-10.78-4.29-3.73-8.56-7.49-12.99-11.04-1.86-1.49-4.09-2.51-6.18-3.7-.24-.14-.65.01-1.23.04,2.33,3.3,4.58,6.35,6.7,9.5,2.19,3.25,4.51,6.4,6.71,9.63,4.35,6.37,8.3,13.02,12.4,19.56.27.43.48.89.66,1.36.86,2.21.57,3.21-1.35,4.54-.73.5-1.5.95-2.29,1.34-3.28,1.64-6.56,3.29-9.88,4.87-3.79,1.8-7.07,4.39-10.44,6.83-3.99,2.9-7.89,5.92-11.81,8.91-1.06.81-2.22,1.53-3.42,3.21,1.76-.58,2.93-.95,4.09-1.35,2.63-.9,5.25-1.85,7.9-2.69,2.66-.85,5.44-1.35,7.99-2.43,4.23-1.79,8.68-2.75,13.05-4.03.85-.25,1.71-.56,2.58-.62,3.28-.26,6.56-.47,9.84-.6,1.24-.05,2.09-.47,2.88-1.47,1.62-2.05,1.99-4.54,3.18-7.06-2.24-.1-2.81-1.49-2.93-3.06-.18-2.23.4-4.28,2.12-5.86.65-.6,1.33-1.16,2.19-1.9Zm61.11,42.58c-1.76-3.69-3.58-6.25-5.86-8.47-1.9-1.85-3.94-3.57-5.82-5.44-2.78-2.76-5.48-5.61-8.22-8.42-.26-.27-.57-.5-.87-.73-1.91-1.47-3.8-2.94-5.73-4.39-.91-.68-1.84-1.35-2.82-1.92-2.62-1.51-5.29-2.95-7.93-4.44-1.45-.82-1.78-2.09-.8-3.44,1.23-1.7,2.92-2.76,4.95-3.31,1.45-.4,2.91-.82,4.31-1.39,4.45-1.83,7.84-5.06,10.92-8.62,1.58-1.82,2.64-3.93,2.66-6.57-1.1-.19-1.97.16-2.91.6-2.75,1.26-5.46,2.69-8.34,3.54-5.09,1.5-10.11,3.1-14.98,5.2-1.49.64-3.17.85-4.73,1.34-.71.22-1.48.55-1.13,1.64,1.55,1.01,3.12,2.06,4.71,3.07,1.57.99,2.09,2.43,2.02,4.21-.09,2.53-1.3,4.59-2.67,6.59-1.09,1.59-2.76,2.12-4.55,2.45-.34.06-.65.24-1.17.43.92.87,1.98,1.5,2.48,2.42,1.37,2.51,3.52,4.3,5.45,6.28,2.48,2.54,5.19,4.81,8.48,6.3,1.49.68,2.9,1.56,4.41,2.19,3.15,1.31,6.25,2.87,9.54,3.67,3.72.9,7.23,2.26,10.73,3.69,1.86.76,3.58,1.86,5.38,2.76.52.26,1.12.35,2.5.76Zm-60.37-30.16c.43,3.09-1.01,5.54-2.41,7.9-1.12,1.88-1.33,3.76-1.15,5.82.18,2.02.28,4.04.41,6.06.13,2.02.12,4.06.4,6.06.55,4.01,1.23,8,1.89,11.99.08.5-.19,1.22.86,1.58,1.97-11.67,5.99-22.67,9.46-33.73-1.51-2.91-4.74-3.93-6.62-6.45-1.02.27-1.85.5-2.83.76Zm8.71-15.18c1.95-1.98,2.2-4.37,3.01-6.46,1.98-5.09,3.61-10.32,3.33-15.87-.25-4.8-.8-9.58-1.24-14.37-.04-.46-.27-.9-.61-1.97-.51,2.06-.92,3.5-1.21,4.97-1.11,5.62-2.87,11.02-5.21,16.25-2.02,4.51-3.47,9.22-4.55,14.05-.35,1.55-.25,2.87.23,4.35,2.23-.34,4.22-.64,6.25-.95Zm-.77,4.8c-3.24.12-5.47,1.41-7.53,3.04-.49.38-.71,1.02-.22,1.95,1.92.09,3.99.18,6.19.28.52-1.73.97-3.26,1.57-5.26Zm3.53,2.67c-.31,1.14-.71,2.09-.77,3.06-.03.49.44,1.25.88,1.46.44.2,1.31.06,1.68-.28,1.01-.93,1.72-2.09,1.71-3.76-1.2-.16-2.28-.31-3.51-.48Z"/>
    <path class="cls-1" d="m764.79,632.48c-.66-.05-1.29-.02-1.51.78-2.99.05-5.88.5-8.4,2.27-.99.05-2,.04-2.98.18-3,.42-6,.9-9,1.36-.25.04-.53-.02-.76.06-6.72,2.31-13.47,1.39-20.25.28-3.5-.57-7.04-.87-10.57-1.22-5.36-.53-10.38-2.17-15.27-4.36-.8-.36-1.62-.68-2.46-.96-2.53-.82-5.08-1.57-7.34-3.06-1.05-.69-2.25-1.17-3.41-1.65-6.52-2.67-12.3-6.51-17.5-11.19-2.64-2.37-4.8-5.22-6.57-8.34-.75-1.32-1.41-2.74-2.38-3.88-3.53-4.14-5.28-9.13-7.07-14.12-.81-2.25-1.71-4.47-2.66-6.67-.82-1.88-1.41-3.81-1.42-5.86-.04-5.32-.1-10.64.5-15.94.39-3.4.59-6.82.84-10.23.3-3.97,1.48-7.69,3.02-11.32,1.63-3.85,3.3-7.68,4.93-11.53.59-1.39,1.01-2.86,1.67-4.22,1.76-3.64,3.38-7.37,5.47-10.82,1.69-2.79,3.84-5.36,6.04-7.79,3.32-3.66,6.81-7.16,10.33-10.62,1.43-1.41,3.1-2.6,4.71-3.81,3.85-2.88,8.17-5.12,11.66-8.49.82-.79,1.79-1.46,1.72-2.78.52-.25,1.04-.5,1.56-.75,1.01-.52,2.38-.32,3.03-1.54,3.6-.75,7.03-2.03,10.27-3.73,2.05-1.08,4.07-2,6.42-2.07.88-.03,1.79-.15,2.62-.42,5.5-1.81,11.25-1.57,16.9-2.05.75-.06,1.54-.04,2.27.12,7.29,1.54,14.61,2.96,21.84,4.72,5.19,1.26,9.99,3.4,14.07,7.07,2.62,2.35,5.65,4.25,8.48,6.37.71.53,1.48,1.02,2.04,1.68,4.23,5.02,8.62,9.91,11.8,15.74,1.51,2.76,3.47,5.29,5.28,7.87,1.97,2.8,3.95,5.57,5.16,8.83.52,1.4,1.48,2.63,2.15,3.99,2.55,5.14,4.15,10.57,5.12,16.23.66,3.89,1.08,7.75.75,11.71-.19,2.26.08,4.55.04,6.82-.11,7.94-2.29,15.47-4.74,22.93-.23.71-.6,1.43-1.08,2-1.68,1.97-2.57,4.38-3.5,6.69-1.8,4.44-4.61,8.07-7.88,11.47-3.24,3.37-6.33,6.88-9.47,10.34-2.79,3.09-5.36,6.41-8.41,9.22-2.41,2.22-4.72,4.51-6.94,6.91-.88-.08-1.67.09-2.29.77-.61.05-1.35-.17-1.51.76-.88-.09-1.72-.08-2.29.77-1.25.03-2.44.18-3.05,1.51Zm-115.08-62.69s.05,0,.07,0c0,1.14,0,2.28,0,3.42-.01,2.68.41,5.25,1.51,7.75,1.27,2.89,2.19,5.93,3.45,8.83,1.11,2.54,1.99,5.16,3.68,7.46,2.02,2.73,3.79,5.66,5.48,8.61,1.29,2.25,3.05,4.03,4.9,5.77,1.11,1.04,2.31,1.98,3.52,2.9,6.52,4.91,13.96,8.12,21.32,11.46,2.28,1.04,4.83,1.48,7.13,2.49,2.7,1.19,5.46,1.99,8.36,2.42,2.63.39,5.25.94,7.9,1.2,5.89.59,11.7,2.02,17.72,1.52,1.5-.12,2.99-.14,4.48-.43,2.61-.51,5.25-.82,7.86-1.32,2.73-.52,5.46-1.09,8.16-1.77,5.43-1.37,10.54-3.61,15.57-6.01,1.23-.59,2.36-1.47,3.38-2.39,3.19-2.88,6.16-6,8.85-9.36.87-1.08,1.92-2.02,2.85-3.06,2.81-3.08,5.6-6.18,8.41-9.27.68-.75,1.35-1.52,2.12-2.17,1.77-1.51,3.06-3.36,4.11-5.41,2.07-4.06,4.17-8.11,6.25-12.17.35-.68.67-1.37.95-2.07,1.66-4.27,2.05-8.86,3.25-13.24.07-.24.07-.5.08-.75.15-5.04.56-10.07.3-15.14-.23-4.6-1.2-9.07-2.25-13.48-1.29-5.42-3.92-10.4-6.45-15.35-.75-1.46-1.62-2.87-2.52-4.25-2.36-3.59-4.89-7.08-7.13-10.75-3.12-5.1-7.04-9.55-10.92-14.05-.33-.38-.66-.79-1.06-1.09-4.17-3.09-8.3-6.25-12.56-9.21-3.59-2.49-7.77-3.65-12-4.54-3.34-.7-6.7-1.25-10.05-1.9-2.97-.58-6.03-.74-8.91-1.81-.55-.2-1.26,0-1.89.02-5.83.15-11.54,1.31-17.29,2.17-.99.15-1.97.48-2.91.86-4.22,1.7-8.39,3.52-12.63,5.15-1.71.66-3.2,1.55-4.44,2.84-2.92,3.04-6.3,5.48-9.86,7.71-1.81,1.13-3.74,2.16-5.3,3.59-2.41,2.22-4.55,4.73-6.8,7.12-.78.83-1.48,1.76-2.37,2.46-4.39,3.47-7.3,8.09-9.89,12.88-2.22,4.11-4.09,8.42-6.01,12.69-1.24,2.76-2.18,5.67-3.48,8.4-2.44,5.11-3.73,10.47-4.05,16.1-.29,5.06-.59,10.12-.88,15.18Z"/>
    <path class="cls-1" d="m678.56,524.35c-.46-1-.92-2.01-1.39-3.02.23-1.1.45-2.21.69-3.32.38-1.77,1.16-3.36,2.35-4.71,1.51-1.71,3.06-3.39,4.59-5.08,1.01-1.12,2.33-1.94,2.9-3.47.2-.53.79-.98,1.29-1.34,3.93-2.83,8.14-5.16,12.85-6.4,2.06-.54,4.18-1.11,6.3-.06,1.08-1.18,1.98-2.21,2.93-3.19.93-.97,2.27-1.31,3.18-2.5.93-1.22,2.51-1.95,4.3-2.13,2.11-.21,4.15-1.33,6.3-.2,2.82-.99,5.78-.26,8.66-.74,2.36-.39,4.81-.62,7.2-.46,1.84.12,3.71.78,5.43,1.52.81.35,1.52,1.36,1.88,2.23.57,1.39.8,2.91,1.23,4.59.79-.49,1.62-1,2.44-1.51,1.83-1.13,3.71-2.12,5.87-2.46,2.65-.41,5.09.37,7.24,1.74,3.73,2.37,7.49,4.77,10.92,7.55,2.44,1.97,4.36,4.58,6.5,6.92.68.75,1.17,1.71,1.94,2.33,1.94,1.56,2.22,3.56,1.93,5.81-.13,1-.21,2-.33,3.11.55.23.98.52,1.44.58,2.02.27,3.47,1.5,4.82,2.85,2.98,2.96,4.63,6.64,5.33,10.71.68,3.99,1.26,8,1.66,12.02.24,2.37,0,4.79.08,7.19.03.98.1,2.08.54,2.91,1.38,2.56,1.73,5.35,1.67,8.11-.07,3.52.26,7.1-.73,10.58-1.15,4.02-2.32,8.01-4.68,11.56-1.64,2.46-3.61,4.21-6.67,4.48-.37.03-.73.2-1.09.32-.11.04-.2.15-.29.22-.57,1.81-1.07,3.63-1.74,5.38-.3.8-.8,1.67-1.46,2.16-3.07,2.28-5.26,5.46-8.23,7.85-.57.45-.93,1.19-1.31,1.84-1.92,3.32-4.94,5.44-8.22,7.12-2.24,1.14-4.72,1.89-7.36,1.2-.6-.16-1.25-.09-1.97-.13-.37.31-.8.59-1.12.96-2.16,2.55-5,3.71-8.22,4.33-2.35.45-4.62,1.31-6.95,1.87-4.12.98-8.25,1.45-12.3-.4-3.15.44-4.92-1.96-7.22-3.64-3.11,1.95-6.53,1.63-9.92,1.03-4.36-.77-8.71-1.66-13.04-2.61-1.34-.3-2.62-.92-3.9-1.47-1.04-.45-2-1.11-3.07-1.5-3.68-1.35-6.54-3.82-9.17-6.6-.68-.72-1.22-1.63-1.61-2.54-.7-1.62-1.23-3.3-1.89-5.11-3.35.7-5.73-.73-7.56-3.49-2.61-3.94-4.85-8.05-5.85-12.68-.88-4.08-1.56-8.21-2.07-12.35-.47-3.78-.32-3.8,1.67-7.37-1.54-1.75-2.65-3.82-3.18-6.22-.33-1.51-.44-2.99-.18-4.52.7-4.11,1.11-8.28,2.37-12.27,1.37-4.34,2.72-8.66,5.11-12.62,1.8-2.98,4.14-4.7,7.64-4.82.5-.02,1-.14,1.5-.21.12.17.2.41.36.49.1.05.32-.12.48-.19-.09-.07-.17-.17-.27-.19-.21-.04-.42-.03-.64-.04Zm5.44,73.91c-.4,2.71.49,5.15,2.11,7.09,2.04,2.42,4.66,4.28,7.56,5.65,1.37.65,2.74,1.32,4.15,1.88,1.29.51,2.61.97,3.96,1.27,2.71.6,5.45,1.09,8.19,1.58,1.99.35,4,.7,6.01.91,2.6.28,4.73-1.04,5.64-3.48.4-1.06.65-2.19.83-3.31.64-4,1.27-8.01,1.82-12.03.42-3,.67-6.03,1.09-9.03.56-4,.68-8.06,1.53-12.03.61-2.84.45-5.74.34-8.63-.06-1.55-.65-2.05-2.16-1.93-1.24.1-2.48.24-3.53.34-1.47,1.59-2.73,3.19-4.22,4.54-3.36,3.06-6.77,6.06-10.26,8.97-3.49,2.91-6.6,6.27-10.44,8.78-.82.54-1.34,1.51-2.08,2.2-1.49,1.36-2.92,2.82-4.58,3.95-1.75,1.2-3.73,2.07-5.97,3.28Zm56.05-48.94c1.74.06,3.19-.67,4.65-1.39,2.19-1.07,3.92-2.71,5.72-4.32,2.25-2.01,4.9-3.6,7.03-5.73,3.64-3.63,8.01-6.2,12.26-8.93,1.71-1.1,3.42-2.16,4.92-3.53.56-.51,1.13-1.05,1.79-1.39,2.46-1.26,3.55-3.56,4.56-5.89.76-1.75.58-3.43-.79-4.94-2.05-2.25-4-4.58-6.03-6.84-.67-.75-1.38-1.52-2.21-2.07-3.26-2.17-6.67-4.11-9.84-6.4-3.21-2.32-7.82-.83-9.46,2.31-2.29,4.39-4.27,8.92-5.59,13.68-.91,3.29-1.85,6.57-2.94,9.81-.81,2.39-1.37,4.87-2,7.32-1.16,4.52-1.2,9.24-2.44,13.77-.39,1.41-.39,3,.38,4.53Zm1.88,13.83c-.92.19-1.66.33-2.39.5-1.3.3-1.86,1.14-1.9,2.47-.07,2.31.23,4.54,1.26,6.63,1.86,3.75,3.48,7.6,4.95,11.52.18.47.41.93.64,1.37,2.31,4.35,4.63,8.69,6.94,13.03.36.67.85,1.31,1.03,2.02.77,3.14,2.59,5.76,4.11,8.53.48.88,1.07,1.75,1.8,2.43.51.47,1.34.83,2.02.82,2.74-.04,5.31-.77,7.33-2.7,1.27-1.21,2.31-2.66,3.46-4,.9-1.06,1.69-2.26,2.75-3.13,2.75-2.27,5.06-4.96,7.53-7.49,2.14-2.19,1.74-5.4-.83-7.2-5.81-4.06-11.2-8.73-17.48-12.1-1.1-.59-2.04-1.49-3.16-2.03-3.88-1.84-7.82-3.57-11.72-5.37-.56-.26-1.09-.63-1.55-1.04-1.61-1.4-3.19-2.84-4.77-4.26Zm-23.23-10.47c-.64-.32-1.29-.66-1.96-.97-2.86-1.35-5.82-2.53-8.57-4.07-4.74-2.66-9.37-5.5-13.67-8.85-3.19-2.49-6.72-4.51-9.7-7.29-.95-.89-2.43-1.29-3.72-1.71-1.07-.35-2.24-.38-3.35-.62-1.55-.33-2.75.25-3.68,1.39-.55.68-1.05,1.46-1.37,2.27-1.45,3.59-3.08,7.07-3.99,10.9-.73,3.08-1.51,6.11-1.75,9.26-.2,2.72-.76,5.55,1.73,7.96,1.78.35,3.76,1.05,5.74,1.07,2.51.03,5.03-.43,7.53-.8,5.64-.83,11.23-2.05,16.97-1.93.38,0,.77-.02,1.14-.1,4.34-.96,8.76-1.26,13.17-1.69,3.57-.35,4.25-.88,5.5-4.81Zm5.26-4.09c.44-1.73-.03-3.17-.65-4.53-1.64-3.61-2.64-7.36-2.97-11.32-.18-2.15-.81-4.21-1.8-6.16-.57-1.12-1.26-2.3-1.41-3.51-.36-2.83-1.72-5.28-2.64-7.89-1.09-3.1-2.12-6.22-3.26-9.3-.39-1.06-.92-2.1-1.59-3-1.67-2.26-3.26-2.77-5.96-1.94-1.81.56-3.6,1.2-5.34,1.94-3.07,1.3-5.77,3.18-8.02,5.64-1.88,2.05-3.65,4.2-5.48,6.3-.5.57-1.07,1.09-1.52,1.7-1.35,1.85-1.26,3.14-.13,5.21,1.04,1.91,2.82,2.89,4.52,3.94,3.44,2.13,6.84,4.28,10.11,6.69,7.43,5.47,15.32,10.26,23.23,14.98.85.51,1.84.79,2.91,1.23Zm4.17-55.15c0-.05-.02-.11-.03-.16-1.14-.06-2.27-.16-3.41-.16-4.2.02-7.96,1.15-10.87,4.4-.93,1.05-1.06,1.82-.41,3.06,1.5,2.91,3.03,5.82,4.48,8.76,1,2.04,2.05,4.08,2.76,6.22,1.12,3.35,2.29,6.68,3.48,10,2.01,5.58,3.69,11.28,5.55,16.92.55,1.68,1.16,3.35,1.85,4.97.15.35.77.61,1.22.69.25.04.75-.31.85-.59.81-2.25,1.81-4.48,2.25-6.81,1.22-6.45,1.81-13.01,3.38-19.4.39-1.59.3-3.29.71-4.87.91-3.55,2.06-7.03,2.97-10.57.87-3.41,2.02-6.79,1.61-10.42-.21-1.82-.63-2.61-2.43-2.82-1.99-.23-4.04-.2-6.05-.07-2.64.17-5.27.54-7.9.82Zm-8.31,67.34c-2.05.37-3.54.59-5.01.91-4.7,1.01-9.61.56-14.24,2.11-.81.27-1.76.14-2.65.12-3.82-.06-7.57.5-11.34,1.07-4,.61-8.05.96-12.08,1.35-1.36.13-2.75.02-4.07.02-2.11,1.59-2.63,3.54-2.02,6.07.62,2.57.88,5.22,1.27,7.85.74,4.94,2.74,9.41,5.24,13.67,1.19,2.02,2.37,2.25,4.48,1.22,2.16-1.05,4.36-2.02,6.46-3.17,1.32-.72,2.58-1.6,3.73-2.57,1.74-1.47,3.34-3.1,5.05-4.62,3.03-2.69,6.12-5.32,9.15-8.01.94-.84,1.61-2.07,2.66-2.68,3.11-1.82,5.37-4.6,8.15-6.79,1.78-1.4,3.24-3.2,4.78-4.88.28-.3.25-.89.43-1.65Zm75.02-3.77c-.93,0-1.68-.02-2.42,0-4.68.17-9.31.89-14.01.82-10.25-.16-20.5.2-30.74.77-.69.04-1.37.3-1.99.44,0,.53-.1.9.02,1,1.86,1.5,3.63,3.16,5.67,4.37,2.71,1.61,5.57,3.01,8.48,4.22,4.13,1.71,7.71,4.34,11.5,6.61,1.73,1.04,3.65,2,4.98,3.45,2.46,2.68,5.79,4.08,8.44,6.41,2.01,1.76,6.21.85,7.35-1.36.35-.67.84-1.28,1.11-1.98.96-2.47,1.91-4.95,2.74-7.47.39-1.19.61-2.47.66-3.72.11-2.65.15-5.32.03-7.97-.08-1.89-.42-3.78-1.81-5.6Zm-11.52-32.69c-3.04,2.46-5.66,4.87-8.57,6.86-2.71,1.85-5.62,3.4-8.14,5.55-.19.16-.44.27-.68.33-1.55.41-2.57,1.57-3.71,2.57-1.51,1.33-3.02,2.67-4.57,3.97-1.94,1.62-4,3.11-5.84,4.83-1.88,1.75-3.95,3.12-6.28,4.16-.44.2-.99.38-.8,1.15.46.04.95.13,1.44.12,4.18-.08,8.35-.18,12.53-.26,4.55-.1,9.1-.2,13.66-.28,4.3-.08,8.61.02,12.9-.24,2.99-.18,5.95-.85,9.02-1.31.08-.99.2-1.72.19-2.46-.08-5.46-.89-10.84-2-16.17-.66-3.15-2.15-5.91-4.6-8.12-.82-.74-1.57-1.19-2.7-.93-.73.17-1.5.2-1.84.24Zm-29.66,89.61c-.27-.8-.41-1.43-.69-1.98-1.8-3.47-3.84-6.83-4.99-10.61-.18-.58-.62-1.1-1.03-1.58-1.73-2.05-3.01-4.34-4.05-6.81-.84-1.97-1.92-3.84-2.88-5.76-.34-.67-.74-1.34-.94-2.05-.78-2.81-1.97-5.43-3.42-7.97-.93-1.63-1.46-3.49-2.1-5.27-.38-1.06-.64-2.17-1.06-3.6-.45.65-1.02,1.16-.93,1.38.85,1.91.05,3.76-.12,5.62-.52,5.66-1.09,11.32-1.63,16.98-.4,4.13-1.73,8.16-1.27,12.39.08.71-.33,1.47-.47,2.22-.56,2.98-1.14,5.95-1.62,8.94-.25,1.55.35,2.52,1.77,2.92,4.35,1.21,8.75,1.3,13.13.24,2.57-.63,5.09-1.5,7.65-2.15,1.78-.45,3.26-1.27,4.65-2.89Zm-18.14-60.97c-.94.29-1.91.5-2.8.89-1.06.46-1.02,1.24-.2,2.25,1.6-.2,3.3-.39,4.99-.64.17-.02.3-.32.53-.59-.43-1.12-1.63-1.29-2.51-1.92Zm-9.18,1.28c-1.15-.14-2.23-.28-3.52-.44v2.79c1.15.65,2.24.45,3.29-.08.88-.45.81-1.16.24-2.27Zm9.45,5.93c-.81-.59-1.46.05-2.14.22-.16.04-.25.61-.23.92.01.15.4.39.59.37.93-.08,1.67-.44,1.78-1.51Zm-8.25.82c-1.67-.89-1.67-.91-3.9-.23,1.41.2,2.54.37,3.67.51.06,0,.15-.18.22-.28Z"/>
    <path class="cls-1" d="m716.28,592.23c1.26.33,1.55,1.06,1.6,1.79.16,2.36.26,4.73.29,7.1,0,.39-.52,1.13-.77,1.11-.54-.03-1.36-.31-1.53-.71-1.29-3.1-1.77-6.21.4-9.29Z"/>
    <path class="cls-1" d="m712.58,582.52c.38,3.7-1.39,6.73-4.32,7.6-.39.12-1.06-.06-1.32-.35-.27-.3-.38-.97-.23-1.36.78-2.05,3.41-4.69,5.86-5.89Z"/>
    <path class="cls-1" d="m700.36,598.87c-.11,2.28-1.14,3.65-2.98,4.25-1,.32-2.12-.07-2.6-.96-.42-.79-.1-1.47.46-2.04.79-.81,1.56-1.67,2.47-2.32.41-.29,1.25-.32,1.73-.1.47.22.72.9.93,1.17Z"/>
    <path class="cls-1" d="m710.99,609.72c-.34.5-.54,1.14-.88,1.22-.53.12-1.31.04-1.7-.29-1.1-.94-1.57-2.24-1.4-3.7.09-.77.35-1.6,1.22-1.62.52-.01,1.31.41,1.53.85.54,1.1.83,2.32,1.23,3.54Z"/>
    <path class="cls-1" d="m747.99,538.23c-.22-.31-.53-.58-.59-.89-.07-.34.01-.78.19-1.09.5-.87.97-1.8,1.65-2.53,1.74-1.89,3.96-3.12,6.27-4.17.28-.13.86-.06,1.01.13.27.36.49.9.43,1.33-.06.46-.36.98-.72,1.28-2.33,1.94-4.7,3.84-7.08,5.71-.25.2-.71.14-1.15.22Z"/>
    <path class="cls-1" d="m757.8,504.79c.96.85,1.7,1.2,1.94,1.77.83,1.98.1,4.81-1.49,6.21-.26.23-.71.48-1,.41-.41-.1-.8-.44-1.11-.77-.12-.13-.06-.49,0-.72.49-2.06.99-4.12,1.67-6.91Z"/>
    <path class="cls-1" d="m764.36,519.83c-.71-1.04-.28-1.76.46-2.32,1.23-.94,2.68-1.19,4.48-1.41-.06.74.07,1.38-.18,1.77-1.14,1.74-2.85,2.19-4.77,1.96Z"/>
    <path class="cls-1" d="m758.23,597.66c1.43-.65,2.6-.24,3.66.48,1.67,1.14,2.48,2.83,2.67,4.79.09.93-.32,1.72-1.18,2.21-.69.39-1.83.23-2.31-.67-1.15-2.14-2.94-4.07-2.84-6.82Z"/>
    <path class="cls-1" d="m762.22,589.02c-3.47-.49-5.02-2.93-6.52-5.41-.12-.19-.06-.49-.08-.74-.06-.99.93-1.73,1.76-1.24.86.51,1.67,1.12,2.41,1.79.75.67,1.32,1.53,2.08,2.19,1.07.93.89,1.97.35,3.41Z"/>
    <path class="cls-1" d="m742.78,573.22c2.18-.62,3.52.39,4.65,1.85,1.01,1.3,1.3,2.72.51,4.25-.28.53-1.34.71-1.6.19-1.06-2.1-2.94-3.74-3.56-6.28Z"/>
    <path class="cls-1" d="m773.25,596.11c-1.78-.76-3.44-1.77-4.86-3.54.58-.35,1.04-.87,1.38-.8,1.59.33,3.18.82,4.21,2.21.67.89.44,1.64-.73,2.13Z"/>
    <path class="cls-1" d="m685.47,551.26c-1.21,1.58-2.84,1.32-4.31,1.3-2.06-.02-4.29,1.05-6.29-.82.6-2.3,2.52-2.67,4.38-2.61,2.21.07,4.87-.62,6.22,2.13Z"/>
    <path class="cls-1" d="m705.02,553.16c-.47.56-.75,1.24-1.2,1.38-2.17.67-4.21.06-6.12-1-.31-.17-.63-.51-.71-.83-.18-.69-.38-1.46-.24-2.12.16-.71,1.38-1.08,2.25-.86.36.09.72.23,1.06.38,1.73.73,3.3,1.71,4.96,3.05Z"/>
    <path class="cls-1" d="m678.44,537.39c1.59,0,2.45-.14,3.25.03,2.72.58,4.89,2.03,6.31,4.46.15.25.11.79-.07.99-.2.23-.65.29-1,.31-.22.02-.49-.13-.69-.26-2.02-1.3-4.04-2.59-6.04-3.92-.4-.27-.73-.66-1.75-1.62Z"/>
    <path class="cls-1" d="m693.2,515.9c.57.22.99.26,1.25.49,1.6,1.39,3.19,2.79,4.71,4.28.27.26.26.93.17,1.37-.06.27-.48.59-.79.67-1.16.29-2.26.01-3.18-.72-1.52-1.21-2.45-2.84-2.96-4.68-.1-.37.52-.93.8-1.41Z"/>
    <path class="cls-1" d="m714.34,535.82c-.42-.12-1.04-.1-1.24-.39-1.53-2.11-2.97-4.27-4.43-6.43-.05-.07.03-.24.08-.5,1.21-.75,2.35-.35,3.31.53,1.9,1.76,3.28,3.76,2.29,6.78Z"/>
    <path class="cls-1" d="m702.78,510.98c.47,0,.75-.08.95.01,1.78.89,2.81,2.41,3.26,4.29.09.38-.16,1.05-.48,1.27-.31.22-1.06.22-1.34-.02-1.36-1.14-2.33-2.59-2.69-4.34-.08-.39.21-.86.3-1.21Z"/>
    <path class="cls-1" d="m722.43,500.6c.59-.39.98-.86,1.37-.86.72,0,1.54.11,2.11.49.58.39,1.1,1.09,1.33,1.76.72,2.18.92,4.43.2,6.66-.09.29-.47.64-.75.69-.29.05-.8-.18-.92-.42-.47-1.01-1.08-2.06-1.16-3.13-.14-1.94-.81-3.6-2.18-5.19Z"/>
    <path class="cls-1" d="m733.38,527.04c-1.91-.24-1.91-.28-2.43-2.26-.43-1.62-.54-3.19.15-4.77.41-.95.9-1.75,1.98-1.96.23.17.55.3.58.47.47,2.86-.25,5.66-.29,8.51Z"/>
    <path class="cls-1" d="m693.01,578.5c-1.84-.01-2.51-1.09-1.95-2.09.24-.43.51-.94.91-1.18,2.15-1.32,4.31-2.61,6.54-3.79.43-.23,1.32-.12,1.71.2.74.58.39,1.52-.12,2.02-1.44,1.4-2.94,2.77-4.57,3.93-.87.62-2.07.77-2.52.93Z"/>
    <path class="cls-1" d="m685.7,572.66c-2.72,3.41-5.82,3.25-9.02,2.54-.41-.09-.92-.59-1.01-.98-.17-.69.39-1.15,1-1.39.46-.18.97-.3,1.47-.36,1.75-.22,3.51-.5,5.27-.57.67-.03,1.35.44,2.3.78Z"/>
    <path class="cls-1" d="m680.24,589.63c-.27-.09-.63-.19-.97-.33-.63-.24-.85-1.09-.4-1.56.26-.27.5-.61.83-.75,1.97-.84,3.95-1.65,5.94-2.41.27-.1.88.07.99.29.19.38.32,1.01.12,1.33-1.44,2.4-3.79,3.18-6.51,3.42Z"/>
    <path class="cls-1" d="m770.05,567.67c-2.43-.45-4.89-1.42-7.19-2.76-.75-.44-.57-1.83.2-2.25.95-.51,1.98-.64,2.93-.18,1.82.88,3.6,1.85,5.34,2.87.36.21.71.84.67,1.24-.07.67-.66,1.02-1.37,1.04-.13,0-.25.01-.59.03Z"/>
    <path class="cls-1" d="m786.56,579.68c-.5-.1-1.04-.05-1.17-.26-1.33-2.08-3.1-3.93-3.81-6.36,1.26-1.03,2.02-.14,2.74.49,1.82,1.59,2.65,3.58,2.24,6.14Z"/>
    <path class="cls-1" d="m787.39,567.04c-.82-.36-1.8-.63-2.6-1.17-.87-.58-.51-2.13.5-2.46,1.81-.6,3.49-.33,5.01.82.59.45.5,1.65-.18,1.93-.8.33-1.66.55-2.73.89Z"/>
    <path class="cls-1" d="m774.14,544.91c-.65.86-.88,1.5-1.22,1.57-2.95.65-5.91,1.21-8.88,1.78-.23.04-.5-.04-.75-.08-.58-.1-1.03-1.05-.66-1.48.4-.47.82-1.02,1.36-1.28,3.08-1.49,6.25-1.72,10.15-.5Z"/>
    <path class="cls-1" d="m789.23,545.24c-1.35,1.52-3.21,1.53-5.07,1.47-.17,0-.4-.32-.47-.54-.06-.2-.02-.58.11-.66,1.63-.98,3.3-1.78,5.23-.8.08.04.09.23.2.53Z"/>
    <path class="cls-1" d="m780.52,536.85c.02-.53-.15-1.18.09-1.58.66-1.1,1.79-1.27,2.96-.96.29.08.65.43.71.71.06.29-.11.79-.35.96-.92.67-1.95,1.05-3.4.87Z"/>
    <path class="cls-1" d="m734.77,589.96c.71.32,1.02.36,1.14.53,1.76,2.41,1.8,5.85.1,8.1-.39.52-.97.95-1.61.5-.35-.25-.69-.79-.69-1.21-.03-1.76-.02-3.53.15-5.29.08-.82.54-1.61.91-2.64Z"/>
    <path class="cls-1" d="m733.26,609.29c1.17.26,1.73,1.16,1.76,2.19.04,1.37-.16,2.75-.37,4.11-.12.75-1.34,1.05-1.82.5-1.05-1.2-1.47-2.62-1.4-4.19.06-1.23.61-2.16,1.83-2.6Z"/>
    <path class="cls-1" d="m742.46,605.65q2.24.91,2.2,3.75c-.9.49-1.36-.2-1.8-.74-.72-.9-1.16-1.89-.4-3.01Z"/>
  </g>
</svg>