<?xml version="1.0" encoding="UTF-8"?>
<svg id="Laag_1" data-name="Laag 1" xmlns="http://www.w3.org/2000/svg" viewBox="0 0 850.39 850.39">
  <defs>
    <style>
      .cls-1 {
        fill: #131f48;
      }

      .cls-1, .cls-2 {
        stroke-width: 0px;
      }

      .cls-2 {
        fill: #a5d6af;
      }
    </style>
  </defs>
  <path class="cls-2" d="m502.47,169.88s-224.64,6.08-224.64,174.56-28.86,179.67,81.89,290.42,327.34.04,327.34-108.7,12.88-356.28-184.58-356.28Z"/>
  <g>
    <path class="cls-1" d="m632.65,384.48c6.52,2.64,12.98,5.26,19.44,7.87.89.36,1.8.66,2.71.95,4.43,1.4,8.88,2.77,13.3,4.21,1.68.55,3.39,1.04,4.73,2.35.58.56,1.37.9,2.08,1.31,5.52,3.2,9.86,7.7,13.9,12.54.61.74,1.24,1.47,1.93,2.14,1.33,1.3,2,2.88,2.4,4.67,1.12,4.93,1.99,9.89,2.39,14.95.33,4.21.89,8.4,1.28,12.61.1,1.08.17,2.24-.11,3.27-1.35,4.88-1.25,10.06-3.05,14.84-1.11,2.94-1.98,5.99-3.3,8.83-2.29,4.93-6.34,8.13-11.19,10.37-1.61.74-3.13,1.56-4.59,2.6-2.49,1.76-5.37,2.7-8.42,3.04-.94.1-1.89.22-2.77.32-1.14,1.22-.93,2.66-.98,3.98-.22,5.47-.47,10.93-1.34,16.35-.17,1.08-.35,2.15-.54,3.23-.63,3.5-1.46,6.97-1.85,10.49-.79,7.22-1.89,14.36-4.04,21.32-1.01,3.26-1.81,6.54-3.42,9.62-1.18,2.26-1.72,4.89-2.32,7.4-.82,3.45-2.66,6.62-2.74,10.28-.02.75-.49,1.56-.92,2.23-1.1,1.73-2.14,3.54-3.48,5.07-3.52,3.99-7.1,7.93-10.82,11.73-2.85,2.92-6.3,4.69-10.52,4.91-2.16.11-4.31.68-6.43,1.21-.72.18-1.54.73-1.94,1.35-2.23,3.43-4.29,6.97-6.51,10.4-2.45,3.78-5.14,7.41-7.49,11.25-2.02,3.31-4.81,5.93-7.32,8.8-2.17,2.49-4.63,4.66-7.42,6.45-1.15.74-2.27,1.53-3.4,2.3-4.32,2.91-8.9,5.3-13.83,7.04-1.47.52-2.89.76-4.4.75-2.59,0-5.17.06-7.76.43-1.87.27-3.92.29-5.72-.21-3.08-.86-6.19-1.12-9.33-1.18-2.85-.05-5.36-.93-7.73-2.39-.46-.28-.95-.51-1.49-.8-4,2.29-6.97,5.71-10.17,8.86-.58.58-1.14,1.19-1.67,1.81-3.13,3.7-7.29,5.3-11.97,5.45-4.1.13-8.21-.07-12.32-.18-2.66-.07-5.07-1.01-7.43-2.18-5.03-2.5-9.95-5.17-14.43-8.59-.75-.57-1.55-1.09-2.24-1.57-3.15,2.66-6.01,5.39-9.19,7.68-4.04,2.91-8.47,4.34-13.45,2.11-3.27-1.46-6.42-3.04-9.28-5.22-3.14-2.39-6.39-4.62-9.63-6.94-1.74,2.02-3.5,3.92-5.1,5.94-1.36,1.71-3.15,2.67-5.17,3.12-2.24.5-4.4,1.6-6.84,1.04-.54-.13-1.24.39-1.86.61-1.42.49-2.81,1.13-4.27,1.45-3.86.86-7.61.67-11.06-1.59-2.97-1.94-6-3.81-8.99-5.73-1.15-.73-2.27-1.51-3.44-2.29-2.75,1.24-4.72,3.35-6.82,5.24-3.39,3.05-7.16,4.85-11.84,4.87-2.71,0-5.41.67-8.13.85-4.64.3-9.29.41-13.93.66-2.17.12-4.01-.64-5.76-1.82-2.94-2-5.92-3.93-8.87-5.92-2.49-1.68-4.96-3.41-7.46-5.13-3.3,1.68-6.66,3.22-9.84,5.05-2.46,1.42-4.95,1.42-7.49.75-3.95-1.04-7.86-2.25-11.78-3.39-.53-.15-1.07-.28-1.56-.51-4.96-2.31-10.29-3.63-15.36-5.64-1.23-.49-2.39-1.34-3.35-2.27-2.05-2-3.98-4.12-5.91-6.25-1.73-1.91-3.83-3.52-5-5.92-.22-.46-.68-.86-1.12-1.15-4.83-3.18-7.91-7.85-10.74-12.7-1.85-3.18-3.47-6.49-5.24-9.71-.65-1.19-1.43-2.32-2.27-3.67-1.52,0-3.04-.17-4.49.04-2.17.32-4.02-.59-5.96-1.19-.63-.2-1.37-.52-1.74-1.03-2.19-3.03-5.71-4.51-8.21-7.19-2.42-2.6-5.28-4.8-7.61-7.46-2.16-2.47-4.58-4.67-6.79-7.07-2.13-2.32-3.58-5.13-5.19-7.84-2.35-3.97-3.69-8.22-4.56-12.66-.34-1.74-.54-3.5-.71-5.27-.77-8.18-.95-16.37-.24-24.56.05-.54.27-1.14.13-1.62-.87-2.87-.39-5.69.15-8.52.1-.53.14-1.1.07-1.64-.67-5.32-.32-10.62.17-15.93.18-1.89.03-3.81.03-5.96-2.15-.51-4.11-1.07-6.1-1.42-3.24-.57-6.51-.96-9.75-1.5-8.43-1.41-14.62-6.12-19.69-12.83-3.99-5.28-4.76-11.28-4.68-17.44.07-5.04.8-10.06,1.81-15.06,1.21-6.02,2.59-12.02,3.03-18.19.28-3.82,1.01-7.56,3.18-10.89,1.81-2.79,3.78-5.37,6.64-7.17,1.04-.66,1.96-1.5,2.98-2.18,1.02-.67,2.06-1.34,3.17-1.81,3.03-1.27,6.05-2.58,9.17-3.58,3.25-1.05,6.59-1.84,9.93-2.6,5.2-1.17,10.44-2.12,15.55-3.68,1.3-.4,2.7-.48,4.03-.79,2.24-.52,2.74-1.11,3-3.29.79-6.77,1.52-13.55,2.4-20.31.94-7.2,2.38-14.29,4.81-21.16.14-.39.24-.79.31-1.19,1.19-6.66,3.89-12.77,6.69-18.86.63-1.36,1.04-2.82,1.61-4.21.62-1.51,1.3-3,1.95-4.49.27-.62.52-1.25.77-1.88.71-1.77,1.18-3.68,2.17-5.28,2.02-3.28,3.08-6.98,4.94-10.32,2.59-4.66,4.97-9.43,7.62-14.05,1.22-2.12,2.87-3.98,4.32-5.97.81-1.1,1.6-2.22,2.42-3.31,1.8-2.41,3.61-4.81,5.43-7.2.41-.54.99-.99,1.3-1.57,2.37-4.41,5.97-7.84,9.33-11.41,6.09-6.48,12.37-12.79,18.7-19.03,2.72-2.68,5.83-4.96,8.64-7.54,4.06-3.72,8.9-6.27,13.44-9.27,2.51-1.66,4.98-3.38,7.42-5.14,2.34-1.69,4.8-3.07,7.56-4.02,3.48-1.2,6.9-2.62,10.21-4.23,2.74-1.34,5.52-2.41,8.51-2.89,2.72-.43,5.28-1.34,7.89-2.2,4.66-1.53,9.38-3.01,14.17-4.03,11.51-2.43,23.06-4.69,34.73-6.25,6.23-.83,12.48-1.45,18.75-1.88,4.23-.29,8.45-.75,12.66-1.22,4.12-.46,8.2-.27,12.3.22.68.08,1.36.15,2.05.16,8.92.15,17.69,1.38,26.36,3.48,2.39.58,4.8,1.11,7.22,1.58,5.91,1.15,11.68,2.84,17.42,4.66.91.29,1.78.69,2.65,1.08.75.34,1.44.82,2.2,1.11,6.44,2.42,12.17,6.19,18.16,9.48,6.23,3.42,12.39,6.98,18.54,10.55,3.08,1.79,6.08,3.69,8.66,6.2.68.67,1.46,1.25,2.24,1.8,5.94,4.18,11.6,8.69,16.69,13.89,2.09,2.14,4.43,4.04,6.61,6.11,3.38,3.2,6.76,6.4,9.29,10.37,3.31,2.58,4.78,6.61,7.56,9.64,2.77,3.01,5.02,6.5,7.72,9.59,3.82,4.37,6.8,9.27,9.54,14.32,1.88,3.46,3.32,7.17,4.92,10.78.72,1.63,1.3,3.32,2.04,4.93,2.29,5,3.87,10.23,4.8,15.63.23,1.33,1.19,2.1,1.49,3.29,1.74,6.89,3.97,13.65,5.29,20.64.78,4.15,1.2,8.37,1.9,12.54,1,5.94,1.64,11.91,1.79,17.93.03,1.07.31,2.14.49,3.32Zm-273.2,193.92c.1-.06.19-.15.29-.17.07-.01.15.09.23.14-.18,0-.37-.02-.55-.02.32-.97-.42-1.51-.88-2.16-.64-.45-1.38-.8-1.89-1.37-.67-.74-1.38-.58-2.14-.41q.5-2.07-1.7-2.76c.67,1.06,1.2,1.9,1.73,2.75.65.4,1.34.74,1.92,1.22.67.55,1.37.65,2.14.5-.74,1.14.5,1.56.85,2.29Zm37-12.35c1.01-1.74,2.02-3.48,3.03-5.22.54-1.05,1.2-2.06,1.59-3.16.38-1.06-.07-1.71-1.5-2.68,0,2.03,0,3.98,0,5.92-2.48,1.76-3.04,2.72-3.07,5.18-1.46-.55-2.22.53-3.08,1.34-.39.37-.64.81.06,1.23.99-.87,1.98-1.75,2.96-2.62Zm-77.17-26.18c-.29.03-.58.06-.87.08.3-.02.6-.04.9-.06-.03.38-.25.92-.07,1.1,1.73,1.84,3.54,3.59,6.14,4.17q1.42,2.04,3.91,2.71c-1.67-1.13-2.09-2.87-3.99-2.63-.09-.24-.14-.5-.27-.7-1.42-2.16-3.84-3.1-5.75-4.68Zm89.18,74.33c.05,1.02.59,1.69,2.2,2.44-1.1-1.13-1.7-1.74-2.29-2.35-.26-.9-.4-1.87-.81-2.69-1.46-2.92-2.94-5.84-4.56-8.68-1.1-1.92-1.28-3.83-.77-5.92.81-3.35,2.87-5.5,6.13-6.54,1.21-.39,2.42-.76,4-1.26-3.24-1.06-5.53.42-7.92,1.33-4.93,1.89-7.21,7.42-4.83,12.6,1.99,4.35,5.06,8.07,8.86,11.09Zm-9.4-64.56c-.12.24-.31.47-.34.73-.02.15.21.32.33.49,0-.13-.02-.27-.02-.4,0-.26.01-.52.02-.79-.55-1.1-1.18-2.16-1.64-3.3-1.95-4.83-5.32-8.56-9.09-11.99-1.78-1.61-3.94-2.43-6.25-2.91-4.66-.97-9.25-.46-13.83.57-3.12.7-5.77,2.49-8.69,3.65-5.38,2.14-10.27,5.07-14.81,8.65-1.38,1.09-2.36,2.21-2.39,4.04,0,.68-.26,1.35-.26,2.03.01,1.64-.76,2.78-1.89,3.91-2.64,2.61-5.75,4.6-8.71,6.79-4.4,3.24-8.95,6.28-13.42,9.43-1.67,1.18-3.38,2.33-4.95,3.63-6.32,5.24-13.06,9.92-19.93,14.39-2.61,1.7-5.25,3.46-8.28,4.48-1.15.39-2.15,1.19-3.23,1.78-.72.39-1.43.82-2.19,1.1-3.56,1.33-7.47,1.55-10.85,3.47-.55.31-1.34.32-2.01.3-2.87-.06-5.77.03-8.62-.32-4.41-.54-8.56.69-13.23,1.13,1.1,2,2.09,3.62,2.91,5.31,3.38,6.95,7.36,13.41,13.86,17.95.54.38.93.99,1.32,1.55,2.12,3.02,4.45,5.85,7.34,8.19.74.6,1.55,1.21,2.06,1.99,1.49,2.26,3.71,2.99,6.2,3.51,2.27.47,4.49,1.22,6.68,2,4.25,1.51,8.42,3.22,12.69,4.68,1.8.61,3.74.83,5.63,1.15,1.6.27,2.91-.3,4.05-1.65-2.4-1.04-4.72-1.86-6.85-3.02-2.31-1.27-4.69-2.2-7.27-2.71-.78-.15-1.5-.67-2.2-1.1-3.61-2.24-7.28-4.39-10.75-6.82-1.27-.89-2.41-2.34-2.96-3.78-.65-1.72-.59-3.71.29-5.4,1.56-.35,2.28.5,2.74,1.52.93,2.07,2.38,3.68,4.24,4.91,2.96,1.97,5.96,3.88,8.95,5.8.57.37,1.15.86,1.78.97,2.9.53,5.28,2.23,7.91,3.36,1.08.47,2.2.83,3.91,1.47-.6-.9-.74-1.29-1.02-1.49-5.03-3.56-9.73-7.52-14.05-11.92-1.42-1.45-1.88-2.47-1.16-2.98,1.14-.81,2.13-.05,2.97.56,2.75,2.02,5.44,4.13,8.14,6.23,1.51,1.18,2.91,2.52,4.5,3.58,3.42,2.28,6.94,4.41,11.14,4.91.56.07,1.17-.32,2.12-.6-1.75-2.42-3.11-4.63-4.8-6.57-2.06-2.36-4.16-4.8-6.66-6.64-2.61-1.92-5.72-3.16-8.62-4.68-2.3-1.21-4.63-2.35-6.88-3.64-.45-.26-.62-1.01-.93-1.55,1.45-.78,2.65-.58,3.86-.23,5.43,1.56,10.45,3.99,14.97,7.39,3.41,2.56,6.22,5.74,8.77,9.13,1.22,1.63,2.33,3.35,3.54,5.1,2.01-1.02,3.95-1.98,5.88-2.98,5.25-2.74,10.2-5.87,13.3-11.14.74-1.26,1.76-.87,2.77-.87.11-3.01.21-3.32,1.99-5.48,2.08-2.53,4.16-5.07,6.28-7.58.56-.67,1.03-1.29.41-2.44-2.69-.72-5.57-1.53-8.46-2.27-5.14-1.32-8.93-4.63-12.45-8.34-.73-.77-1.19-1.83-1.68-2.81-.23-.47-.43-1.1-.31-1.57.14-.59.52-1.25,1-1.57.33-.22,1.13-.08,1.5.19.64.48,1.07,1.23,1.66,1.8,2.06,1.98,3.9,4.34,6.29,5.81,4.57,2.83,9.69,4.41,15.12,4.76,1.01.07,1.89-.15,2.66-.82,1.64-1.44,3.36-2.78,4.91-4.31,3.41-3.36,6.74-6.8,10.09-10.23.52-.53.98-1.13,1.38-1.6-3.76-1.07-7.38-.55-11.02-.2-1.3.13-2.81-.14-3.98-.71-2.07-1.01-4.13-2.2-5.88-3.68-2.61-2.19-4.95-4.72-7.43-7.07-1.13-1.06-1.98-2.25-2.3-3.8-.25-1.2-.61-2.39-.86-3.59-.61-2.99.01-5.66,1.93-8.09,1.18-1.49,2.25-3.09,3.18-4.75.49-.88.9-1.62,1.95-1.91.49-.13,1.02-.46,1.33-.86,2.94-3.69,6.96-6.14,10.55-9.06,5.23-4.24,11.37-4.74,17.54-3.03,5.27,1.47,10.19,3.93,14.16,7.96,1.2,1.22,2.39,2.68,4.31,2.89Zm49.73,6.22c.16.46.3.93.49,1.38.03.07.34.12.36.1.09-.18.26-.5.19-.57-.33-.32-.73-.57-1.1-.85.03-.27.15-.57.06-.8-.91-2.39-.15-4.27,1.08-6.49,2.18-3.93,6.31-5.58,9.06-8.76.6-.7,1.48-1.2,2.3-1.67.7-.4,1.48-.68,2.26-.93.91-.3,1.89-.4,2.77-.77,3.56-1.5,6.96-.9,10.31.64.62.29,1.22.63,1.86.87,4.64,1.71,7.66,5.66,11.52,8.45,3.4,2.46,6.26,5.69,9.26,8.69,2.07,2.07,3.45,4.65,4.09,7.48.5,2.2-.26,4.46-1.39,6.28-1.87,3-4.09,5.8-6.32,8.56-1.1,1.36-2.69,2.25-3.46,3.99-.35.79-1.33,1.35-2.11,1.88-3.22,2.14-6.75,1.87-10.3,1.12-1.47-.31-2.89-.91-4.37-1.08-1.73-.2-3.18-.92-4.43-1.99-3.11-2.66-6.52-5.01-8.69-8.62-.1-.16-.47-.17-.82-.27-.2.3-.45.61-.59.96-.09.23-.02.53-.02,1.01,1.8.6,2.98,2.07,4.17,3.57,1.01,1.28,2.14,2.47,3.29,3.63,2.31,2.33,4.71,4.57,7,6.91,3.34,3.42,6.62,6.9,9.93,10.36.37.39.68.92,1.13,1.16,2.75,1.47,5.53,2.87,8.45,4.37.38-.14.94-.25,1.39-.52,5.11-3.14,10.55-5.76,15-9.91.89-.83,1.91-1.55,2.96-2.19,1.59-.97,2.61-.89,4.65.23-1.02,1.12-2.19,2.08-2.96,3.29-2.73,4.33-6.81,6.97-11.17,9.34-2.64,1.44-5.18,3.06-7.73,4.65-.3.18-.4.67-.62,1.06.31.49.54,1,.9,1.39.44.48.98.87,1.41,1.24,3.23-.65,5.84-2,7.94-4.34,1.55-1.73,3.47-3.2,4.73-5.12,1.46-2.21,3.44-3.62,5.73-4.41,3.36-1.16,5.89-2.74,6.06-6.68.01-.25.57-.64.9-.67.34-.04.95.19,1.05.45.41,1.13.83,2.3.97,3.49.31,2.6-.66,4.53-3.23,5.52-1.15.44-2.25.99-3.37,1.52-1.75.82-3.27,1.82-4.42,3.51-1.14,1.68-2.72,3.06-4.06,4.61-2.03,2.36-4.54,3.9-7.58,4.63-.38.09-.71.35-1.33.67,2.43,2.2,4.67,4.37,7.05,6.37,6.3,5.28,13.26,9.64,20.16,14.07.55.35,1.23.61,1.87.66,2.09.18,4.07-.43,6.01-1.12.49-.17.99-.53,1.31-.95,1.97-2.61,3.97-5.21,5.81-7.91,1.46-2.16,3.05-4.14,4.86-6.04,3.41-3.59,7.68-5.12,12.3-6.07,1.96-.4,3.81.14,5.55,1.02,1.23.62,1.23,2.33-.09,2.93-.96.44-2.07.58-3.14.73-4.42.61-8.5,1.81-11.76,5.19-1.7,1.77-3.74,3.2-4.63,5.63-.18.49-.58.93-.94,1.33-.92,1.01-1.91,1.96-2.81,2.99-.9,1.03-1.67,2.18-2.6,3.17-.9.94-1.94,1.75-3.16,2.83,1.86.18,3.38.18,4.82.5,4.84,1.1,9.74,1.53,14.68,1.22,2.84-.18,5.72.05,8.47-1.19,6.9-3.11,13.34-6.97,19.11-11.85,2.07-1.75,4.04-3.75,5.58-5.97,2.57-3.71,5.82-6.94,7.76-11.08.23-.49.67-.87.96-1.33,2.1-3.35,4.2-6.7,6.27-10.07.1-.16-.1-.49-.22-.99-1.15,0-2.39.15-3.58-.03-4.6-.68-9.21-1.33-13.77-2.24-3.21-.64-6.42-1.44-9.48-2.57-4.23-1.56-8.31-3.51-12.47-5.27-.42-.18-.9-.22-1.52-.36.2,1.78.4,3.25.5,4.73.04.67.04,1.43-.25,2-.26.51-.88,1-1.44,1.15-.32.09-1-.43-1.22-.83-.52-.95-.69-2.14-1.32-2.99-1.42-1.9-2.28-3.97-2.88-6.27-.48-1.85-1.74-3.28-3.51-4.34-6.8-4.06-13.55-8.22-20.28-12.39-5-3.09-9.98-6.21-14.92-9.38-5.75-3.69-10.6-8.18-12.92-14.86-.18-.52-.35-1.05-.65-1.5-.44-.67-.88-1.4-1.5-1.87-5.01-3.8-10.04-7.57-15.12-11.28-2.94-2.14-6.29-3.3-9.95-3.28-3.84.02-7.66.54-11.32,1.61-2.71.79-5.52,1.63-7.58,3.87-.54.59-1.35.92-2.03,1.37-1.81,1.21-3.85,2.19-5.37,3.7-1.73,1.71-3.25,3.75-4.38,5.91-1.8,3.44-1.74,7.05.19,10.52.05.09.25.1.38.15Zm103.12-318.59c-5.48-3.71-9.86-8.12-15.33-11.04-1.93-1.03-3.96-1.87-5.86-2.95-5.94-3.36-11.91-6.69-17.73-10.25-3.99-2.44-8.37-3.99-12.47-6.17-.84-.44-1.79-.67-2.7-.98-4.27-1.46-8.63-2.56-13.01-3.61-3.06-.73-6.15-1.28-9.23-1.94-3.34-.72-6.65-1.65-10.02-2.16-7.71-1.17-15.48-1.85-23.29-1.99-2.32-.04-4.64-.14-6.96-.17-3.3-.05-6.51.75-9.77,1.08-6.66.68-13.35,1.09-20,1.85-4.61.52-9.19,1.39-13.77,2.19-3.23.56-6.41,1.4-9.65,1.86-7.05,1.01-14,2.44-20.75,4.68-5.33,1.76-10.62,3.61-16.19,4.51-1.63.27-3.2.74-4.3,2.11.99,2.72,1.48,5.56,3.05,8.03.66,1.04.65,2.3.28,3.57-.95,3.27-1.59,6.65-2.74,9.85-.82,2.27-.94,4.51-.96,6.84,0,1.07-.15,2.15-.32,3.21-.19,1.2-.51,2.38-.7,3.58-.62,3.98-1.57,7.77-4.93,10.48-.62.5-1.01,1.28-1.46,1.96-1.33,2.03-3.17,3.53-5.46,4.13-2.84.74-4.72,2.7-6.71,4.55-1.32,1.22-2.11,2.79-2.41,4.65-.42,2.58-.66,5.14-.38,7.76.35,3.3-.07,6.57-1.05,9.72-.97,3.09-2.83,5.64-5.47,7.51-2.66,1.89-6.8,1.42-8-1.15-1.08-2.3-2.63-4.49-2.65-7.25,0-.86-.59-1.77-1.07-2.56-.55-.92-1.23-1.78-1.93-2.6-2.04-2.42-4.07-4.86-7.63-5.03-.64-.03-1.27-.46-1.9-.73-2.48-1.03-4.3-2.9-6-4.86-3.13-3.63-6.27-7.29-6.59-12.42,0-.1-.14-.19-.38-.49-.62.5-1.34.91-1.84,1.5-2.01,2.4-3.95,4.86-5.91,7.3-.94,1.17-1.84,2.36-2.79,3.52-.78.96-1.77,1.79-2.34,2.85-1.83,3.41-4.55,6.16-6.81,9.24-.32.44-.72.84-1,1.3-3.42,5.91-6.98,11.74-9.76,18.03.35,1.42,1.38,2.3,2.33,3.3,1.03,1.07,2.06,2.26,2.67,3.58,1.86,4.04,2.75,3.84,6.74,3.69.54-.02,1.09-.16,1.6-.35,4.76-1.84,9.22-4.13,12.96-7.72,1.46-1.4,3.23-2.49,4.92-3.65,1.44-.98,3.17-1.22,4.74-.76,2.21.64,4.61,1.31,6.35,2.69,2.53,2,5.44,3.76,6.93,6.89.44.92,1.33,1.32,2.36,1.41,2.59.23,5.18.73,7.76.69,4.89-.07,9.49,1.1,14.05,2.66,1.15.39,2.35.77,3.55.83,3.93.22,7.42,1.7,10.8,3.53,3.4,1.83,4.66,5.19,4.76,8.58.1,3.21-.65,6.58-2.64,9.36-1.83,2.55-3.52,5.24-5.98,7.29-.73.61-1.29,1.49-2.11,1.91-3.65,1.87-7.29,3.77-11.06,5.36-3.06,1.29-5.79,2.91-8.31,5.1-2.86,2.48-6.27,4.31-8.91,7.11-.27.29-.72.39-1.06.62-4.3,2.89-8.73,5.63-12.18,9.58-.86.99-1.86,1.48-3.15,1.72-1.45.28-2.87.79-4.28,1.28-2.19.77-4.35,1.6-6.52,2.41-.99.37-1.96.75-3.3,1.26,1.14,1.14,1.91,2.08,2.84,2.81,2.86,2.23,2.7,7.78.06,10.33-2.73,2.63-5.84,3.91-9.56,4.07-2.73.12-5.45.39-8.16.68-2.21.23-4.09,1.32-4.77,3.4-1.08,3.33-2.24,6.72-1.72,9.83,1.8,1.62,3.19,2.92,4.63,4.16.82.71,1.73,1.31,2.56,2,1.78,1.48,3.57,2.96,5.3,4.5.71.63,1.19,1.52,1.9,2.14,3.66,3.23,5.27,7.59,6.57,12.06.5,1.74,1.07,3.37,2.05,4.87,1.5,2.29,2.92,4.63,4.47,6.88,1.94,2.82,2.7,5.92,2.52,9.29-.03.54-.18,1.09-.17,1.63.03,1.97.55,3.66,2.16,5.06,2.75,2.4,5.8,4.07,9.39,4.77,2.55.49,5.07,1.21,7.64,1.52,5.42.66,10.83,1.39,16.15,2.68.13.03.27.02.41.02,2.93-.1,5.69.77,8.47,1.5,1.85.49,3.68,1.13,5.56,1.37,4.29.55,8.37,2.62,12.84,1.74.13-.03.27.01.41.04,2.98.66,5.08,2.18,5.28,5.39.11,1.76.22,3.47-.17,5.27-.84,3.9-.72,7.85.21,11.79.61,2.6,1.54,4.83,3.5,6.78,2.18,2.17,3.28,4.99,3.3,8.17.02,2.89-.26,5.73-1,8.53-.48,1.8-.85,3.66-.45,5.8,1.33-.43,2.61-.59,3.61-1.21,4-2.47,8.3-4.14,12.77-5.52,5.77-1.77,11.58-1.99,17.4-.64,2.77.64,5.5,1.68,7.69,3.63,1.22,1.09,2.37,2.27,3.43,3.51,2.83,3.34,5.59,6.71,7.04,10.97.65,1.9,1.26,3.91,2.93,5.5,1.41-.42,2.89-.72,4.24-1.31,1.85-.81,3.82-1.03,5.62-.53,3.36.93,6.49.29,9.67-.57,4.43-1.19,8.89-1.35,13.38-.35,1.17.26,2.34.84,3.55.2.63-1.68.96-3.52,1.91-4.94,2.67-3.95,5.35-7.94,9.78-10.27,1.19-.63,2.22-1.59,3.24-2.5,3.47-3.11,7.73-4.49,12.1-5.66,4.44-1.19,8.98-.71,13.48-.82.4,0,.82.08,1.21.21,4.86,1.61,9.14,4.3,13.17,7.37,3.23,2.47,6.35,5.08,9.65,7.73,1.09-1.43,1.63-2.95,1.43-4.35-.34-2.41-1.02-4.81-1.83-7.11-.63-1.79-1.69-3.41-2.53-5.13-2.06-4.22-5.35-7.16-9.44-9.32-.96-.5-2.06-.88-2.81-1.62-1.97-1.95-4.3-3.37-6.61-4.84-1.12-.71-2.24-1.64-2.97-2.73-1.21-1.81-2.23-3.77-3.1-5.77-1.85-4.26-5.28-6.58-9.52-7.71-2.48-.66-5.12-.78-7.7-1.01-3.63-.33-6.22-2.04-7.38-5.53-1.25-3.75-1.36-7.39.69-11.07,1.95-3.5,3.29-7.42,2.35-11.44-.73-3.1-.21-5.99.21-8.94.25-1.74.91-3.44,1.54-5.1.62-1.64,1.14-3.47,2.24-4.77,2.44-2.88,2.78-6.11,2.51-9.51-1.16-1.35-2.44-1.93-4.09-1.59-3.25.66-6.52.52-9.82.46-5.79-.11-11.47-.77-17.01-2.43-1.29-.39-2.62-.88-3.69-1.65-1.27-.9-2.55-1.55-4.09-1.65-2.12-.14-4.12-.84-5.69-2.13-2.59-2.13-5.51-2.92-8.74-3.06-.67-.03-1.34-.24-2.01-.33-3.37-.46-6.74-.98-10.13-1.34-3.4-.36-6.8-.63-10.21-.81-2.77-.14-5.34-.96-7.97-1.75-3.15-.94-5.8-2.26-7.38-5.29-.37-.7-1.14-1.18-1.65-1.82-3.82-4.78-4.79-8.48-1.76-14.35.44-.85,1.07-1.6,1.5-2.45.43-.84.75-1.74,1.05-2.64.59-1.8,1.14-3.62,1.71-5.44.57-1.82,1.18-3.63,1.71-5.46,1.14-3.94,2.42-7.82,4-11.62,1.09-2.63,1.64-5.48,2.43-8.24.6-2.1,1.12-4.22,1.83-6.28.58-1.67,1.37-3.27,2.13-4.87.84-1.74,1.8-3.4,3.89-3.93.74-.19,1.14-.69,1.24-1.44.2-1.39,1.18-2.15,2.32-2.67,1.74-.78,3.49-1.5,5.5-1.44,2.74.09,5.48-.03,8.22,0,3.2.04,6.17-1.06,9.21-1.8.97-.24,1.95-1.07,2.61-1.88,2.49-3.02,5.91-4.37,9.48-5.39,1.15-.33,2.46-.37,3.65-.2,4.2.61,8.37,1.38,12.55,2.08.67.11,1.34.29,2.02.33,4.8.27,9.25,2.36,14.05,2.68,2.43.17,4.82.94,7.25,1.28,4.6.65,9.2,1.13,13.5,3.21,3.11,1.5,6.63,1.6,10.02,1.99.34.04.72-.29,1.26-.52.41-2.56.24-5.09-.27-7.72-2.39-1.17-4.57-2.52-7.1-3.26-1.81-.53-3.87-1.13-5.14-2.38-2.01-1.97-3.95-4.18-4.64-7.14-.31-1.31-.76-2.64-2.12-3.66-.65.24-1.45.41-2.12.8-1.42.82-2.71,1.88-4.17,2.61-.93.47-2.1.83-3.1.72-3.74-.38-6.82-1.88-8.45-5.58-.48-1.1-1.21-2.11-1.92-3.09-.69-.94-.66-2.35-1.84-3.09-1.46.95-2.08,2.31-2.78,3.63-1.94,3.67-4.58,6.75-7.88,9.3-2.02,1.56-4.25,1.63-6.62,1.57-2.11-.05-3.02-1.65-4.24-2.9-.19-.19-.31-.46-.5-.65-3.21-3.39-5.32-3.11-8.35-1.47-3.12,1.69-6.11,3.61-9.23,5.31-7.37,4.02-17.69,2.94-21.67-7.45-.82-2.14-.96-4.19.21-6.31,1.52-2.75,3.07-5.52,4.19-8.44,1-2.61,2.53-4.72,4.25-6.87,4.81-5.99,11.12-9.14,18.52-10.39,1.91-.32,3.75-.78,5.43-1.75,3.67-2.12,7.33-4.25,10.96-6.43.67-.4,1.2-1.04,1.79-1.56-2.76.39-5.34,1-7.63,2.56-.99.68-2.16,1.22-3.33,1.46-1.93.41-3.49-.54-4.62-2.04-.91-1.21-.81-2.64-.14-3.9.77-1.44,1.63-2.88,2.71-4.08.92-1.02,1.83-1.95,2.39-3.25.68-1.56,1.87-2.67,3.6-3.12.79-.21,1.54-.56,2.32-.81,2.97-.98,5.84-.14,7.69,2.24,1.08,1.4,1.54,2.87.67,4.58-.4.79-1.27,1.55-.45,2.55,1.8-.6,3.56-1.6,5.38-1.7,3.4-.2,6.84.13,10.26.23,1.09.03,2.19.21,3.26.07,5.13-.66,10.1-.02,14.99,1.54.9.29,1.88.55,2.8.5,3.21-.17,6.24.7,9.31,1.36.51.11,1.11.39,1.54.23,2.17-.81,4.31-1.68,6.41-2.65.56-.26.94-.9,1.4-1.37-.27-.54-.39-.95-.64-1.24-1.65-2-3.34-3.96-5.01-5.96-.84-1.01-1.92-1.49-3.19-1.68-2.59-.39-5.17-.66-7.77-.19-3.64.66-7.3,1.21-10.9,2-1.87.41-3.57.13-5.2-.58-3.67-1.6-4.72-5.09-2.63-8.47,1.57-2.53,3.82-4.26,6.59-5.29,7.42-2.78,14.87-5.5,22.28-8.31,1.51-.57,2.83-1.75,4.37-2.12,5.31-1.29,10.33-3.54,15.77-4.47,3.68-.63,7.31-1,11.02-.81,4.01.2,6.25,1.95,7.35,5.85.3,1.05.42,2.15.71,3.21.94,3.46,3.7,5.7,7.18,5.57,7.18-.26,13.18-2.97,18.11-9.17Zm-116.97,81.24c1.94,0,3.25-.76,4.24-1.93,2.02-2.4,4.3-4.65,5.41-7.68.75-2.05,2.48-3.22,3.93-4.63.81-.78,1.92-.96,3.08-.84,2.25.23,3.78,1.45,4.85,3.36,1.13,2.02,2.25,4.04,3.37,6.06,1.55,2.8,3.29,3.31,6.09,1.74.59-.33,1.2-.7,1.67-1.18,2.06-2.11,4.61-2.27,7.25-1.76.87.17,1.92.68,2.4,1.37,1.09,1.55,2.26,3.22,2.71,5.01.93,3.74,3.19,5.86,6.73,6.97,2.89.9,5.59,2.24,8.08,3.97,1.8,1.25,2.83,2.95,2.69,5.22-.14,2.32-.2,4.66-.47,6.97-.35,3.05-2.95,5.59-5.8,5.32-4.63-.42-9.3-.92-13.59-2.93-1.88-.88-3.81-1.49-5.87-1.76-2.31-.3-4.61-.63-6.9-1.01-4.18-.69-8.45-1.1-12.52-2.23-6.37-1.76-12.89-2.45-19.34-3.62-4.48-.81-8.08.41-11,3.86-1.75,2.07-3.97,3.16-6.66,3.69-4.68.93-9.3,2.08-14.14,1.55-.94-.1-1.92.18-2.87.11-2.09-.14-3.66.71-5.06,2.22-3.24,3.49-5.42,7.51-6.43,12.17-.95,4.41-2,8.79-3.87,12.94-1.18,2.61-2.16,5.34-2.97,8.09-1.85,6.27-3.31,12.67-6.87,18.31-1.06,1.69-1.49,3.8-.58,5.53,2.34,4.42,5.34,8.3,10.7,9.34,1.74.34,3.51.58,5.27.77,4.07.42,8.17.39,12.23,1.02,4.19.66,8.42,1.02,12.61,1.66,1.59.24,3.34.58,4.64,1.44,3.25,2.12,6.67,3.68,10.44,4.5.39.08.75.32,1.13.5,2.58,1.24,5.22,2.22,8.04,2.91,2.31.56,4.61.57,6.9.86,4.63.57,9.28.59,13.91-.12,6.12-.94,10.5,3.24,9.78,9.32-.13,1.09-.33,2.17-.33,3.26,0,1.88-.67,3.43-1.84,4.87-2.86,3.53-3.94,7.75-4.51,12.14-.2,1.49-.07,2.95.12,4.46.4,3.24.68,6.53-.77,9.68-.91,1.98-1.51,4.11-2.47,6.05-1.01,2.05-.63,4.02-.03,5.98.33,1.06,1.21,1.85,2.4,2.02,2.3.33,4.59.81,6.9.86,1.87.04,3.61.51,5.1,1.35,4.69,2.66,8.97,5.77,10.74,11.32.48,1.51,1.37,3.25,2.61,4.08,3.29,2.2,6.72,4.16,9.58,6.95,2.78.75,4.61,2.88,6.68,4.65,2.87,2.45,4.81,5.56,6.28,8.99.54,1.25,1.26,2.43,1.76,3.7.53,1.35.88,2.76,1.36,4.3.6-.36.96-.52,1.25-.77,2.03-1.7,3.35-3.96,4.74-6.15,1.94-3.07,4.3-5.65,7.82-6.96,4.51-1.69,9.01-3.31,13.84-1.14,1.38.62,2.77.42,3.85-.56,1.82-1.65,3.61-3.35,5.19-5.22.75-.89,1.27-2.18,1.4-3.34.28-2.57.33-5.18.34-7.77,0-2.7-.84-4.85-3.26-6.62-2.6-1.91-4.6-4.54-7.87-5.64-1.88-.63-3.19-2.29-3.15-4.43.08-4.09-.18-8.26,1.82-12.06,1.04-1.99,1.39-4.14,1.62-6.32.14-1.36.17-2.75.48-4.07.76-3.25-.14-5.8-2.53-8.15-3.81-3.75-4.31-8.07-1.79-12.69.52-.96,1.26-1.8,1.79-2.75,1.47-2.63,3.93-4.62,4.87-7.55.56-1.75,1.63-3.11,2.65-4.58,1.24-1.79,2.41-3.68,3.27-5.67,1.79-4.13,3.1-8.48,5.08-12.51,2.09-4.26,2.94-8.81,3.94-13.34.78-3.53-.24-5.52-3.55-6.87-2.01-.82-4.17-1.27-6.23-1.96-3.9-1.31-7.62-2.89-10.85-5.62-2.34-1.97-4.09-4.39-6.19-6.53-2.3-2.34-3.83-4.98-4.7-8.05-.46-1.63-1.24-2.99-2.3-4.29-1.56-1.9-3-3.9-4.48-5.87-1.66-2.21-1.96-4.72-1.77-7.41.25-3.55,1.99-6.47,3.59-9.51,1.33-2.54,3.32-3.55,5.97-3.56,4.37-.01,8.42,1,11.86,3.88,1.15.97,2.34,1.9,3.52,2.84,2.16,1.73,3.93,3.81,5.26,6.23,1.05,1.92,1.97,3.91,2.91,5.89,1.24,2.62,2.14,5.33,2.18,8.27.01.79.3,1.57.47,2.43,1.5.83,2.85,1.83,4.38,2.36,2.71.93,5.42.39,7.9-.9,1.49-.77,3.05-1.11,4.61-1.62,4.77-1.57,9.77-2.31,14.43-4.37,3.01-1.33,4-3.43,4.45-6.25.22-1.35-.19-2.39-1.29-3.23-1.08-.83-2.23-1.62-3.12-2.63-1.64-1.86-3.37-3.59-5.5-4.89-1.25-.76-2.03-1.86-2.28-3.26-.86-4.76-.18-9.26,2.4-13.41,1.66-2.66,4.14-3.95,7.21-4.03,1.5-.04,3.01.23,4.51.27,1.6.04,2.91.64,4.01,1.78,1.14,1.18,2.19,2.49,3.49,3.47,5.11,3.87,8.08,9.27,10.41,14.97,1.18,2.88,2.15,5.87,3.34,8.78.71,1.73,1.56,3.2,3.21,4.08,2.5,1.34,3.7,3.44,4.07,6.22.26,2.01.95,2.49,3.03,2.59.78.04,1.58-.15,2.58-.26,0-.98.1-1.78-.02-2.54-.17-1.07-.59-2.1-.76-3.17-1.16-7.16-2.66-14.23-4.89-21.14-1.13-3.5-2.11-7.05-3.22-10.55-.53-1.66-.52-3.38-1.29-5.07-2.27-4.96-4.01-10.17-6.21-15.17-1.65-3.74-3.54-7.41-5.64-10.92-2.45-4.1-5.5-7.79-8.52-11.5-2.67-3.29-5.32-6.59-7.94-9.92-2.78-3.54-5.41-7.22-8.31-10.66-1.93-2.28-4.2-4.28-6.38-6.36-4.06-3.87-8.13-7.73-12.25-11.54-1.08-1-2.32-1.83-3.67-2.87-2.23,3.68-5.36,5.97-8.81,8.03-3.79,2.27-7.85,3.13-12.12,3.37-4.78.27-8.57-1.62-11.07-5.74-.91-1.5-1.54-3.19-2.19-4.83-.49-1.25-.82-2.57-1.22-3.86-1.01-.19-1.81-.47-2.61-.47-5.23,0-10.35.73-15.32,2.43-2.07.71-4.18,1.31-6.23,2.08-2.17.82-4.28,1.78-6.42,2.68-1.01.43-1.98.93-3.01,1.29-2.44.87-4.98,1.5-7.33,2.56-2.26,1.02-4.56,1.82-6.9,2.58-2.6.85-5.12,1.93-7.62,3.05-1.14.51-2.1,1.37-1.41,3.21.95.06,2.03.28,3.06.15,2.58-.33,5.17-.67,7.69-1.3,3.65-.91,7.33-.69,11.01-.57,3.35.11,6.03,1.48,7.9,4.42.87,1.37,2.05,2.54,3.13,3.77.54.62,1.22,1.12,1.7,1.77,1.8,2.44,1.77,5.5-.11,7.57-3.11,3.45-7.28,5.12-11.67,5.28-4.31.15-8.66-.78-12.99-1.28-.52-.06-.99-.49-1.51-.62-4.79-1.2-9.61-2.14-14.59-1.51-.94.12-1.97.33-2.83.08-3-.86-6.01-.08-9.01-.28-1.75-.12-3.23.61-4.28,2.03-2.78,3.75-6.6,6.07-10.72,8.02-1.48.7-2.9,1.55-4.29,2.41-2.47,1.53-5.03,2.62-8.02,2.74-1.46.06-2.91.67-4.32,1.14-.9.3-1.69.95-2.6,1.2-4.7,1.3-7.63,4.87-10.16,8.54-2.23,3.24-3.67,7.03-5.45,10.57-.72,1.43-.75,2.82-.11,4.34,2.35,5.57,7.52,6.96,12.15,5.01,3.39-1.43,6.56-3.38,9.83-5.1.97-.51,1.9-1.11,2.9-1.54,4.76-2.05,9.6-.97,13.02,2.86.63.71,1.24,1.44,1.98,2.29Zm-192.46-5.1c-1.39,1.82-2.42,3.54-3.11,5.51-1.27,3.61-2.67,7.17-4.05,10.75-.29.76-.58,1.6-1.1,2.19-2.23,2.56-3.05,5.79-4.2,8.84-1.44,3.82-2.7,7.72-3.91,11.63-.97,3.13-1.98,6.28-2.55,9.5-.84,4.71-1.38,9.47-1.91,14.23-.46,4.07-.75,8.17-1.08,12.25-.34,4.22-.9,8.45-.86,12.67.06,6.14-.07,12.32,1.3,18.39.45,1.98.63,4.01.9,5.78.33.3.41.45.53.47,1.87.37,3.76.66,5.61,1.09,3.33.78,6.63,1.65,9.95,2.48,4.27,1.07,8.39,2.51,12.29,4.58,2.7,1.43,5.1,3.16,6.68,5.89.82,1.42,1.78,2.76,2.76,4.08,2.4,3.23,4.13,6.66,4.21,10.83.05,2.73.61,5.43,1.72,7.95.71,1.6.85,3.36.23,4.81-.86,1.99-.55,3.96-.78,5.94-.4,3.53-1.58,6.63-5.27,8.14-.84.34-1.59,1.08-2.21,1.79-2.63,3.02-6.02,4.63-9.82,5.58-1.86.46-3.58,1.28-5.08,2.55,1.15,2.88,2.21,5.68,3.4,8.43.43.98,1.21,1.8,1.79,2.71.8,1.27,1.79,2.47,2.32,3.85,2.69,7.04,6.29,13.6,10.34,19.94.75,1.18,1.82,1.72,3.09,1.42,1.72-.4,3.45-.91,5.06-1.64,7.37-3.33,14.85-6.29,22.7-8.33,4.41-1.14,8.8-2.07,13.35-1.94,1.91.06,3.82.57,5.72.52,5.21-.13,9.87,2.05,14.75,3.31,1.12.29,2.14,1.18,3.06,1.96,1.88,1.59,3.54,3.47,5.52,4.91,3.35,2.45,5.38,5.74,6.84,9.5.43,1.12.97,2.19,1.61,3.62.61-.67,1.17-.99,1.25-1.41,1-5.38,2.16-10.74,2.78-16.17.33-2.94-.16-5.98-2.89-8.15-1.01-.8-1.79-2.12-2.21-3.36-1.25-3.62-2.24-7.29-2.18-11.22.04-2.34.21-4.61.6-6.92.77-4.49.04-5.25-4.33-4.76-1.96.22-3.78.31-5.48-.99-.6-.46-1.53-.51-2.33-.67-6.44-1.27-12.89-2.5-19.33-3.8-3.88-.78-7.68-2.07-11.71-1.98-.67.01-1.34-.25-2.01-.4-2.14-.48-4.27-1.01-6.42-1.43-4.79-.94-9.03-2.86-12.79-6.11-2.4-2.08-3.58-4.37-3.52-7.45.03-1.64-.05-3.29,0-4.93.06-2.14-.64-4-1.84-5.74-1.32-1.91-2.67-3.82-3.83-5.83-.88-1.53-1.91-3.17-2.11-4.85-.31-2.57-1.39-4.66-2.64-6.79-2.59-4.43-6.04-7.98-10.22-10.94-2.67-1.88-5.12-4.07-7.63-6.17-1.47-1.23-2.08-2.87-1.86-4.77.27-2.31.53-4.62.92-6.91.31-1.8,1.27-3.35,2.62-4.53,3.55-3.13,7.39-5.67,12.42-5.58,1.09.02,2.19-.14,3.27-.32,1.34-.23,2.67-.56,4-.85,1.77-.39,2.82-1.52,3.45-3.2-.66-1.63-1.9-2.64-3.23-3.63-1.03.15-1.97.38-2.91.4-1.65.05-2.78-1.49-2.3-3.08.2-.64.45-1.34.89-1.83,2.29-2.58,4.84-4.86,8.17-6.02,3.6-1.26,7.22-2.47,10.86-3.64,1.34-.43,2.38-1.21,3.44-2.13,3.09-2.67,6.28-5.22,9.46-7.78.52-.42,1.14-.8,1.78-.98,1.41-.39,2.31-1.36,3.28-2.36,3.54-3.66,8.11-6.01,11.98-9.25.29-.25.77-.27,1.15-.43,2.4-1.01,4.76-2.11,7.19-3.02,5.33-2.01,9.25-5.74,12.46-10.26,1.43-2.02,2.31-4.42,1.89-6.96-.63-3.86-3.65-5.48-6.89-6.79-8.03-.79-15.53-4.53-23.76-4.29-1.76.05-3.54-.45-5.31-.5-2.87-.07-5.08-1.38-6.51-3.69-1.5-2.44-3.91-3.81-5.92-5.63-2.35-2.13-4.91-1.95-7.45-.05-.98.74-1.98,1.48-2.86,2.34-4.12,4.01-9,6.54-14.52,8.12-2.07.59-4.03.66-6.06.51-2.25-.16-4.22-.84-5.52-2.99-.69-1.14-1.83-1.99-2.24-3.37-.37-1.26-1.34-2.03-2.83-2.62Zm338.78,21.81c1.68,1.61,3.01,2.93,4.39,4.21,1.81,1.67,3.65,3.3,5.48,4.95,2.07,1.87,3.17,4.1,2.48,6.95-.41,1.72-.87,3.43-1.33,5.14-.88,3.26-3.44,4.92-6.28,5.99-3.06,1.15-6.28,1.88-9.44,2.76-4.2,1.18-8.51,1.99-12.49,3.91-.83.4-1.84.42-2.78.57-4.62.76-8.1-1.87-11.74-3.99-.44-.25-.81-.79-.99-1.28-.52-1.4-1.3-2.83-1.31-4.26-.06-5.68-3.11-10.08-5.86-14.64-1.4-2.31-3.82-3.47-5.75-5.18-2.08-1.84-4.48-2.57-7.1-2.87-2.28-.26-2.9.1-3.94,2.09-.38.73-.7,1.48-1.08,2.21-2.25,4.33-2.24,7.29,1.61,11.04,2.75,2.68,4.53,5.81,5.69,9.35.7,2.14,1.83,3.93,3.38,5.51.57.59,1.2,1.14,1.66,1.81,3.02,4.42,7.46,6.71,12.35,8.33,2.33.77,4.75,1.3,7.06,2.13,3.98,1.43,7.89,5.17,7.19,10.66-.58,4.48-1.39,8.92-3.05,13.15-2.34,5.97-4.74,11.92-7.23,17.83-.68,1.61-1.68,3.13-2.72,4.54-1.15,1.55-2.22,3.1-2.82,4.96-.51,1.57-1.47,2.87-2.54,4.16-1.65,1.98-3.1,4.12-4.23,6.5-1.04,2.18-.85,3.93.84,5.58.29.29.61.55.89.85,3.34,3.55,4.65,7.6,3.32,12.43-.43,1.57-.52,3.24-.74,4.86-.28,2.03-.68,4-1.54,5.91-1.36,3.03-1.75,6.26-1.43,9.51,1.85,1.19,3.65,2.19,5.26,3.43,1.84,1.41,3.48,3.06,5.26,4.55,1.07.9,1.99,1.84,2.35,3.26,1.25,4.95,1.89,9.92.8,15-.56,2.59-1.45,4.97-3.35,6.92-1.13,1.16-2.16,2.42-3.36,3.78,3.62,1.24,7.11,2.42,10.59,3.62,3.12,1.07,6.28,1.9,9.61,2.04.81.03,1.62.26,2.41.44,2.93.69,5.87,1.34,8.77,2.12,1.93.51,3.37.06,4.76-1.41,2.18-2.31,3.85-4.94,5.41-7.67.88-1.54,1.58-3.24,2.71-4.57,1.44-1.69,2.49-3.58,3.61-5.46.69-1.16,1.53-2.23,2.28-3.36.45-.67.95-1.33,1.25-2.06,1.42-3.4,2.78-6.83,4.14-10.26.14-.36.09-.79.13-1.23-.36-.25-.65-.58-1.01-.7-3.98-1.28-7.26-3.87-10.59-6.17-3.09-2.14-5.77-5-7.56-8.49-2.22-4.33-3.17-9.01-3.88-13.75-.1-.65.06-1.37.25-2.02.96-3.31,1.34-6.7,1.58-10.11.13-1.8.72-3.43,1.72-4.98,4.23-6.53,9.95-11.18,17.2-13.97.77-.29,1.6-.5,2.28-.93,3.69-2.34,7.82-3.15,12.07-3.67,2.7-.33,5.38-.86,8.07-1.31.97-1.8,1.31-3.68,1.5-5.59.29-3,.69-5.99.79-9,.18-5.33.14-10.67.27-16,.05-1.92.11-3.76-.61-5.64-.47-1.22-.36-2.69-.34-4.05.04-3.96.24-7.92.23-11.88,0-1.59.14-3.3-1.11-4.84-1.28-.09-2.65-.09-3.99-.31-4.04-.68-6.33-2.4-6.57-6.11-.11-1.63-.78-2.76-2.19-3.68-2.35-1.53-4.09-3.6-4.8-6.41-.13-.51-.44-1-.75-1.45-1.26-1.84-1.91-3.92-2.4-6.07-.18-.78-.48-1.56-.82-2.29-2.23-4.74-4.87-9.18-9.09-12.47-.53-.41-.89-1.03-1.36-1.53-3.05-3.21-8.4-2.49-10.34,1.45-1.17,2.39-1.59,4.93-1.1,7.12Zm45.47,236.5c-.31.86-.37,1.62-.78,2.04-1.14,1.17-2.43,2.2-3.67,3.28-1.12.98-2.34,1.87-3.35,2.96-1.57,1.7-2.9,3.64-4.51,5.3-2.39,2.48-3.6,5.34-3.44,9.15,1.65-.15,3.05-.79,4.56-1.42,2.47-1.04,3.83-2.71,4.75-5.2.88-2.41,2.22-4.7,3.64-6.85.71-1.07,1.99-1.85,3.16-2.52,1.45-.83,2.88-.65,3.36.21.66,1.19.04,2.24-.76,2.94-2.36,2.07-3.1,5.1-4.74,7.59-.34.51-.42,1.19-.71,2.05.73-.12,1.22-.05,1.44-.26,4.38-4.33,8.73-8.69,12.45-13.64,1.91-2.54,3.71-5.08,3.88-8.41.02-.4.24-.78.36-1.17,1.2-4.19,3.01-8.2,3.79-12.53.07-.4.14-.83.33-1.18,1.57-2.92,2.28-6.11,3.27-9.23,1.63-5.13,2.69-10.31,3.37-15.6.42-3.26.96-6.5,1.31-9.77.13-1.19.2-2.59-.31-3.59-1.66-3.25-2.51-6.92-5.27-9.64-1.5-1.48-1.76-3.66-1.64-5.77.06-1.03,1.26-1.69,2.12-1.11.77.52,1.56,1.15,2.05,1.91,1.32,2.04,3.09,3.64,4.7,5.65.9-2.93,1.29-8.22,1.11-14.2-.76-.08-1.55-.25-2.34-.22-4.23.17-8.46.41-12.7.59-3.83.16-7.66.37-11.5.39-4.51.02-9.04.23-13.52-.7-2-.42-4.03-.73-6.06-1.02-1.64-.24-2.18.16-2.77,1.7-.82,2.17-1.68,4.33-2.51,6.5-.22.58-.37,1.18-.63,2.05,2.04-.64,3.67-1.29,5.36-1.64,3.43-.69,6.79-.52,9.96,1.2,1.18.64,1.88,1.54,1.92,2.92.05,1.61-1.29,2.63-2.73,1.85-3.92-2.13-7.74-1.62-11.24.64-2.34,1.51-4.79,2.56-6.82,3.08-2.97,2.36-2.92,6.18-5.74,7.6-.16,1.35-.29,2.47-.46,3.89,1.42-.43,2.43-.79,3.47-1.04,2.26-.54,4.51-1.24,6.81-1.46,3.98-.39,7.94-.04,11.76,1.27.8.28,1.67.72,1.53,1.66-.11.73-.58,1.57-1.16,2.02-.59.45-1.5.67-2.27.66-1.22,0-2.45-.26-3.66-.45-3.88-.63-7.63-.11-11.29,1.28-2.43.92-4.03,2.56-4.93,4.91.4.34.57.58.81.67,5.38,1.99,10.66,4.25,16.34,5.34,1.6.31,3.16.86,4.71,1.4,1.03.36,1.73,1.56,1.68,2.59-.05.98-.97,1.95-2.22,2.06-.93.08-1.92.02-2.83-.2-2.79-.66-5.58-1.34-8.33-2.16-1.96-.58-3.85-1.36-5.76-2.09-2.81-1.06-5.56-2.36-8.44-3.19-7.09-2.04-14.23-3.88-21.36-5.75-1.18-.31-2.43-.42-3.65-.49-3.17-.18-6.2-1.03-9.16-2.05-6.46-2.23-12.95-4.34-19.54-6.21-4.38-1.24-8.05-.04-11.82,1.66-2.79,1.25-4.32,3.74-5.69,6.26-1.07,1.96-2.34,3.71-4.15,5-2.83,2.02-4.12,5.03-5.43,8.05-1.11,2.57-.37,4.66,1.72,6.53.38-.48.69-.76.86-1.12,2.02-4.11,4.99-7.49,8.44-10.4,2.35-1.98,5.24-3.06,8.37-2.66,5.81.75,11.05,2.97,15.75,6.53,1.62,1.22,3.4,2.39,5.3,3.06,3.5,1.23,6.06,3.63,8.64,6.07,2.02,1.9,2.6,4.25,1.38,6.72-2.32,4.68-5.23,8.96-9.42,12.23-.65.5-1.34.94-2,1.43-.55.41-1.07.86-1.62,1.26-.59.42-1.2.81-2.06,1.38,2.44,1.65,4.7,2.95,6.67,4.59,2.36,1.96,5.08,1.76,7.79,1.76.93,0,2.03-.44,2.23-1.51.36-1.97,1.77-2.76,3.4-3.11,2.43-.52,4.02-2.01,5.5-3.84,1.72-2.12,3.56-4.13,5.41-6.14.45-.49,1.08-.84,1.68-1.15.76-.39,1.57-.47,2.3.15.73.62.99,1.64.43,2.61-.89,1.53-1.75,3.15-2.94,4.43-3.14,3.36-5.93,7.19-10.68,8.6-1.42.42-2.14,1.95-3.56,2.5-.47.18-.66,1.05-1.12,1.84.72.25,1.43.78,1.87.61.99-.38,1.87-1.08,2.76-1.7,1.46-1.01,2.84-2.13,4.34-3.07.66-.41,1.52-.58,2.31-.69.85-.12,1.7.11,2.02,1.03.3.86,0,1.72-.8,2.09-2.39,1.12-4.15,3.01-6.05,4.74,6.14,4.89,29.88,10.45,35.68,8.73.46-1.34.92-2.77,1.45-4.17.63-1.66,1.23-3.33,2.01-4.92,2.27-4.65,5.77-8.32,9.81-11.41,1.69-1.29,3.86-1.98,5.87-2.8.52-.21,1.25.13,2.17.25Zm-383.89,22.72c-3.06-1.97-5.25-3.36-7.41-4.78-6.53-4.31-9.7-7.67-13.73-14.38-1.57-2.62-2.6-5.41-3-8.43-.16-1.22.2-2.23.97-2.43,1.22-.31,1.65.68,2.18,1.46.15.23.29.46.41.71.78,1.6,1.51,3.22,2.33,4.8,1.89,3.67,4.06,7.18,7.27,9.84,4,3.32,8.32,6.21,12.79,8.87,2.86,1.7,5.96,2.74,9.14,3.58,2,.53,4.04.72,6.1.31,3.63-.73,7.29-1.18,11.01-1.17.93,0,1.88-.26,2.79-.51,2.91-.78,5.6-2.06,8.34-3.3,3.28-1.49,6.08-3.65,9.2-5.34,1.25-.68,2.23-1.87,3.66-3.1-1.35-.54-2.31-1.17-3.33-1.29-4.57-.52-8.65-2.53-12.9-4.01-2.98-1.04-5.71-2.54-8.38-4.25-2.73-1.75-3.92-4.47-5.28-7.13-.17-.34-.19-.82-.11-1.2.07-.36.28-.82.56-.97.29-.15.79-.07,1.12.08.36.16.67.48.92.8,2.54,3.16,5.83,5.3,9.46,7,2.85,1.33,5.69,2.7,8.54,4.03.73.34,1.46.78,2.24.95,2.4.53,4.81,1.04,7.25,1.38,3.85.54,7.7.76,10.78-2.32.41-.41.63-1.02,1.11-1.82-6.93-.63-12.43-3.65-17.38-7.65-2.31-1.87-4.33-4.18-6.11-6.57-2.16-2.91-1.73-5.11,1.03-7.54,1.13-.99,2.42-1.8,3.59-2.73,3.42-2.73,7.74-4.05,11-7.08,2.41-2.25,5.33-3.74,8.22-5.32,3.95-2.17,7.81-2.06,11.81-.45,2.95,1.19,5.53,2.94,7.86,5.12,2,1.87,4.03,3.69,6.14,5.44,1.41,1.17,2.72,2.54,4.53,3.38.27-.57.6-.93.57-1.26-.14-1.91-.2-3.85-.62-5.7-.36-1.57-.96-3.17-1.81-4.54-1.87-2.98-3.75-6-6.26-8.51-1.72-1.72-3.31-3.68-5.74-4.49-5.47-1.83-11.08-2.99-16.86-3.14-3-.08-6,.06-9.01.47-4.53.63-8.64,2.54-12.97,3.74-2.5.69-4.93,1.64-7.34,2.6-2.67,1.06-5.27,2.27-7.92,3.38-2.9,1.21-5.82,2.37-8.74,3.55-3.16,1.28-6.15,3.04-9.63,3.38-4.67.45-9.09,1.82-13.48,3.36-1.11.39-2.41.34-3.61.32-.4,0-.79-.57-1.34-1,1.59-2.17,3.19-4.06,5.64-4.78,2.99-.89,5.88-2.17,9.12-2.23,1.59-.03,3.19-.68,4.75-1.16.84-.26.96-1.56.19-1.98-.83-.45-1.72-.86-2.62-1.12-3.28-.96-6.57-1.91-9.88-2.73-1.84-.45-3.76-.93-5.62-.85-3.05.12-5.97-.47-8.91-.98-.93-.16-1.87-.42-2.73-.81-.4-.18-.85-.78-.86-1.19,0-.42.42-1.09.82-1.24,2.58-.98,5.22-1.59,8.03-1.11,5.79,1,11.69,1.41,17.34,3.21.59.19,1.27.08,1.85.1.14-.53.3-.81.26-1.04-.73-3.34-2.06-6.49-3.09-9.73-.31-.98-1.04-1.58-1.96-1.97-2.19-.92-4.48-1.19-6.83-1.14-2.6.06-5.22.23-7.8.03-3.11-.25-6.2-.77-9.26-1.34-.66-.12-1.32-.86-1.75-1.48-.35-.51.55-1.15,2.07-1.43,3.92-.73,7.88-.83,11.86-.72,2.44.07,4.89.01,7.79.01-1.65-4.48-4.06-8.29-5.19-12.76-4.42-.11-8.65-.36-12.88-.28-7.8.13-15.6.44-23.4.72-.62.02-1.23.36-1.82.54.18,5.92.07,11.66.59,17.35.52,5.75-.91,11.43-.12,17.15.05.39-.14.81-.17,1.22-.41,5.19-.39,10.38,0,15.57.11,1.5.21,3,.24,4.5.07,4.13.68,8.24,2.17,12.04,2.1,5.35,4.9,10.39,9.02,14.55,5,5.04,9.95,10.13,15.08,15.04,1.84,1.76,3.92,3.58,6.62,3.87,3.51.38,7.05.41,11.57.08Zm-79.04-119.42c-.15-.93-.24-1.44-.31-1.95-.54-3.65-1.2-7.3-1.58-10.97-.18-1.73.18-3.52.27-5.28.13-2.59.22-5.18.38-7.77.03-.53.16-1.13.47-1.53.28-.36.84-.63,1.31-.69.25-.03.78.46.82.76.14,1.21.1,2.44.2,3.66.52,6.82,1.01,13.65,1.59,20.47.24,2.78,1.2,5.32,3.12,7.43.74.81,1.42,1.67,2.11,2.52,1.52,1.89,3.47,3.12,5.84,3.56,5.65,1.06,11.31,2.03,16.97,3.04.27.05.55.04.82.04,4.52-.04,9.04-.07,13.56-.12.68,0,1.36-.11,2.05-.14,4.77-.24,9.54-.61,14.31-.67,3.68-.05,7.37.56,11.01-.51.38-.11.84-.1,1.22.02,1.56.49,2.94-.02,4.38-.55,2.17-.81,4.41-1.43,6.6-2.2,3.85-1.35,6.77-3.9,9.52-6.86,2.55-2.75,1.91-6.14,2.63-9.27.45-1.94.48-3.89-.36-5.64-1.1-2.31-1.55-4.81-1.44-7.18.14-2.87-1.16-4.98-2.39-7.22-.72-1.32-1.67-2.5-2.37-3.83-1.97-3.68-5.1-5.94-8.8-7.66-3.62-1.68-7.43-2.73-11.16-4.06-5.5-1.96-11.15-2.77-16.9-3.2-5.22-.39-10.37.37-15.51,1.09-1.21.17-2.45.25-3.67.23-2.32-.05-4.65-.21-6.97-.33-.5-.03-1.15.21-1.27-.73,1.22-1.2,2.88-1.53,4.47-1.54,6.21-.03,12.16-1.89,18.19-2.27,1.84-2.33,1.88-2.33,1.79-4.43-.05-1.22-.37-2.43-.39-3.64-.02-1.65-.89-2.51-2.33-2.96-2.87-.89-5.75-1.78-8.63-2.63-2.35-.69-4.73-1.31-7.08-2-.31-.09-.53-.48-1.04-.97.76-.23,1.25-.52,1.71-.48,4.49.36,9.01.53,13.39,1.79.97.28,2.02.76,3.29.14,0-2.25.04-4.43-.01-6.61-.05-2.15,1.39-4.22.25-6.67-1.14.31-2.35.52-3.46.97-3.69,1.5-7.51,2.42-11.42,3.21-3.43.7-6.96,1.14-10.26,2.52-3.4,1.42-6.81,2.9-10.36,3.85-3.16.85-5.69,2.43-8.13,4.49-4.2,3.55-6.52,7.94-7.03,13.4-.24,2.58-.49,5.2-1.15,7.69-1.72,6.51-2.77,13.12-3.67,19.77-.61,4.53-.5,9.01.61,13.44.43,1.71.93,3.42,1.57,5.06.54,1.38,1.5,2.48,3.24,3.39Zm467.75-50.79c2.14.06,3.9.12,5.67.17,2.59.07,5.22-.11,7.76.28,2.19.34,4.34.7,6.51.3,2.27-.41,4.37.1,6.41.91.53.21,1.2.92,1.19,1.4,0,.54-.6,1.32-1.13,1.53-.85.35-1.85.37-2.79.45-.94.08-2.02-.22-2.82.13-2.02.89-4.09.67-6.08.39-5.58-.78-11.19-.15-16.78-.64-5.91-.51-11.76.58-17.46,2.02-4.76,1.21-9.25,3.31-13.61,5.6-.6.31-1.13.78-1.64,1.23-1.74,1.54-3.35,3.25-5.21,4.63-2.74,2.04-3.95,4.74-4.21,8.02-.13,1.64.02,3.36-.46,4.89-1.13,3.65-.89,7.16-.24,10.9.67,3.89,2.43,6.78,5.14,9.45,2.25,2.21,4.76,3.99,7.29,5.84,2.27,1.66,4.68,2.85,7.29,3.62,3,.88,6.09,1.52,9.16,2.12,3.21.63,6.46.99,9.76.89,6.83-.2,13.66-.24,20.49-.44,3-.09,6-.36,8.99-.65,3.68-.36,7.36-.71,11.01-1.29,1.72-.27,3.45-.88,5.03-1.65,2.94-1.44,5.75-3.17,8.66-4.68,2.55-1.33,4.25-3.41,5.58-5.85.25-.46.52-1.03.48-1.53-.29-4.04.24-8.16-1.55-12.04-.81-1.75-.86-3.71-.58-5.65.12-.79.21-1.63.09-2.41-.31-2.02-.76-4.02-1.11-6.03-1.19-6.73-1.27-6.91-5.72-12.35-.09-.11-.21-.19-.26-.31-.18-.44-.33-.89-.48-1.29.34-.21.46-.35.57-.34,2.68.2,4.88,1.66,7.18,2.84.54.28.93.99,1.22,1.59.35.73.58,1.54.76,2.34.68,3.06,1.37,6.11,1.83,9.23.46,3.12,1.06,6.18.82,9.35-.1,1.35.18,2.69,1.03,3.88.2-.22.47-.37.5-.56.57-3.36,1.14-6.73,1.65-10.1.14-.94.25-1.94.09-2.86-.62-3.49-.55-7.03-.95-10.53-.15-1.35-.32-2.7-.52-4.04-.32-2.15-.68-4.29-.99-6.44-.21-1.45-.98-2.5-2.16-3.34-1.78-1.26-3.53-2.56-5.26-3.89-.49-.38-.88-.89-1.34-1.37q1.6-1.16,3.94-1.6c-2.37-3.68-6.09-5.95-8.78-9.17-4.75-3.01-9.68-5.74-15.13-7.2-5.17-1.38-10.03-3.44-14.91-5.55-3.87-1.68-7.78-3.25-11.97-4.32-.56,1.66-.29,3.09-.07,4.59.61,4.17,1.45,8.34.79,12.61-.22,1.46-.16,2.97-.23,4.44.41.06.69.16.95.11.4-.07.82-.18,1.16-.39,4.06-2.52,8.62-3.32,13.25-3.97,1.57-.22,3,.02,4.4.62,1.37.59,1.59,2.12.39,2.9-.78.5-1.72,1.05-2.59,1.05-4.97,0-9.24,2.33-13.7,3.99-2.58.97-5.32,4.64-6.32,8.17Zm-164.21,163.51c-.34.68-.53.91-.58,1.16-.82,4.48-3.48,7.58-7.19,10.04-1.93,1.28-3.7,2.82-5.41,4.39-1.66,1.53-3.63,2.45-5.65,3.27-2.37.96-4.66.92-7.09-.35-2.49-1.3-4.63-2.84-6.45-4.95-3.83-4.45-7.36-9.16-11.57-13.3-1.05-1.04-1.77-2.42-2.6-3.67-.82-1.24-1.48-2.6-2.38-3.78-3.02-3.95-3.46-9.65-.94-13.88.7-1.17,1.54-2.27,2.22-3.45,1.44-2.51,3.66-3.99,6.3-4.98,1.01-.38,2.02-.81,2.96-1.33,3.8-2.1,7.69-3.52,12.09-2.02.17.06.42-.16.71-.28-1.2-1.29-2.66-1.66-4.34-1.99-3.42-.67-6.79-.36-10.18-.13-2.24.15-4.32.76-5.98,2.38-4.58,4.45-7.47,9.72-7.63,16.23-.11,4.77,1.67,9.07,3.55,13.33.16.37.36.86.67,1.01,2.15,1,2.98,3.12,4.21,4.89,2.9,4.16,6.63,7.61,10.29,11.02,4.61,4.3,9.07,8.71,13.28,13.39,1.64,1.82,3.59,3.35,4.67,5.67.32.68,1.09,1.37,1.81,1.6,2.99.97,6.06,1.94,9.23,1.06,2.48-.69,4.97-1.39,7.16-2.96,2.23-1.59,4.8-2.64,7.53-3.09.41-.07,1,.32,1.31.67.19.21.18.89-.02,1.12-1.13,1.36-2.16,2.88-3.55,3.91-3.06,2.28-8.73,4.65-12.21,5.54-.84.21-1.88-.28-2.72.73,1.04,1.21,2,2.34,2.96,3.47,3.11,3.65,6.37,7.16,10.11,10.17,2.02,1.63,4.13,3.16,6.33,4.52,2.08,1.29,4.32,2.33,6.51,3.44,1.14.57,2.37.87,3.54.17,2.66-1.6,5.7-1.97,8.62-2.55,2.34-.46,3.66-1.52,4.41-3.67.93-2.67,2.85-4.68,4.96-6.43.88-.73,2.16-1.1,3.32-1.35,1.09-.24,2.1,1.18,1.62,2.2-.39.84-.94,1.67-1.59,2.33-1.83,1.86-3.57,3.76-4.78,6.11-1.43,2.76-3.68,4.29-6.88,4.37-1.08.02-2.17.32-3.22.62-1.06.3-2.32.09-3.3.98,1.26,1.19,2.73,1.39,3.99,1.03,2.22-.65,4.33-.14,6.5-.04,4.96.23,9.56-.66,12.93-4.75,2.71-3.29,6.02-5.93,9.11-8.81.15-.14.09-.49.16-.9-.36-.26-.77-.56-1.25-.91-2.7,1.83-5.16,3.77-7.17,6.2-1.33,1.61-2.91,2.67-5.18,3.31,0-.87-.2-1.5.03-1.9,2.19-3.84,5.29-6.91,8.8-9.8-.82-.71-1.48-1.41-2.26-1.92-3.79-2.46-7.44-5.11-10.89-8.03-4.59-3.9-9.33-7.63-13.41-12.09-3.7-4.03-7.38-8.08-11.17-12.02-4.36-4.54-8.89-8.91-12.86-13.82-.32-.4-.8-.66-1.46-1.2Zm-131.99-371.59c-4.06,1.75-8.1,2.89-11.51,5.6-2.66,2.12-5.6,3.9-8.5,5.7-5.33,3.31-10.61,6.71-15.34,10.83-5.66,4.93-11.06,10.13-16.2,15.62-2.07,2.21-3.63,4.42-2.69,7.62.07.25.05.55,0,.82-.33,2.17.43,4.05,1.62,5.78,1.24,1.8,2.45,3.64,3.9,5.26,1.65,1.85,3.7,3.24,6.17,3.81,2.6.6,4.95,1.53,6.43,3.95.2.34.58.57.9.83,3.14,2.62,5.34,5.79,5.91,9.96.22,1.64,1.02,3.04,2.3,4.42,2.24-2.3,4.27-4.46,4.37-7.73.08-2.73.17-5.45.18-8.18,0-3.01-.35-6.21,1.1-8.84,2.88-5.24,6.75-9.58,12.94-10.63,1.47-1.68,2.85-3.18,4.14-4.76.68-.83,1.45-1.73,1.73-2.73.93-3.28,2.19-6.6,2.33-9.94.23-5.68,1.51-11.07,3.19-16.4.66-2.08.88-3.91-.48-5.81-.53-.74-.53-1.84-.93-2.7-.38-.82-.97-1.54-1.57-2.46Zm34.98,426.94c-.25-.58-.27-.78-.35-.81-3.66-1-6.98-3.1-10.87-3.37-.53-.04-1.08-.2-1.57-.42-.76-.33-1.48-.8-1.44-1.77.03-.81,1.04-1.71,1.97-1.82.54-.07,1.09-.05,1.64-.05,2.38-.02,4.61.66,6.76,1.59,3.01,1.31,5.95,2.77,8.99,4.02,2.47,1.01,3.1.74,4.86-1.33.62-.73,1.31-1.4,1.95-2.11,3-3.35,5.99-6.7,9-10.08-3.2-.99-6.31-1.96-9.42-2.91-2-.61-3.75-1.63-5.35-2.96-.69-.57-1.07-1.25-.85-2.14.2-.81,1.14-1.34,2.37-1.12,1.33.24,2.66.63,3.93,1.09,1.02.37,1.94,1.04,2.95,1.43,3.1,1.21,6.28,1.95,9.62,1.11,3.3-.83,5.19-3.3,7.01-6.06-.56-.84-1.09-1.62-1.62-2.4-1.07-1.58-2.29-3.08-3.19-4.75-1.51-2.79-3.27-5.31-5.98-7.07-.68-.44-1.28-1.03-1.85-1.62-1.36-1.41-2.42-3.03-2.62-5-.33-3.14-.47-6.29.92-9.28.57-1.21,1.02-2.46.96-3.83-.22,0-.41-.06-.48,0-7.3,6.97-14.68,13.87-21.86,20.97-3.29,3.25-6.34,6.78-9.28,10.36-3.98,4.84-7.76,9.86-11.62,14.8-.65.84-1.2,1.76-1.86,2.58-2.37,2.94-5.7,4.67-8.78,6.64-3.31,2.13-6.95,3.75-10.44,5.62-.4.22-.69.63-1.08.99,1.28,1.01,2.24,2.1,3.45,2.64,3.65,1.63,6.97,3.74,10.17,6.09,1.96,1.44,4.19,2.08,6.56,1.93,4.5-.29,8.99-.72,13.48-1.14,2.59-.25,5.16-.66,7.74-.89,1.97-.17,3.72-.92,5.37-1.89.6-.36.95-1.14,1.64-2.02-1.61-.22-2.82-.52-4.03-.52-5.37,0-10.54-1.29-15.74-2.37-1.16-.24-2.22-1.01-3.27-1.63-.26-.15-.5-.86-.38-1,.3-.35.84-.76,1.23-.71,3.66.41,7.35.78,10.97,1.44,3.44.63,6.78.31,10.38-.26Zm72.63-41.73c3.17,1.37,5.15.42,6.94-.92,2.95-2.2,5.81-4.53,8.71-6.82,3.51-2.77,4.16-5.77,2.08-9.75-.32-.6-.74-1.15-1.15-1.7-1.79-2.42-3.73-4.74-5.34-7.27-2.37-3.72-5.23-7.02-8.23-10.22-.75-.8-1.69-1.47-2.26-2.37-2.05-3.24-5.2-3.08-8.39-2.92-3.53,1.79-7.05,3.59-10.58,5.38-2.3,2.78-4.23,5.77-4.55,9.46-.09,1.01.19,2.27.76,3.09,2.1,3.02,4.05,6.15,6.73,8.74,1.66,1.6,3.06,3.48,4.59,5.22,1.36,1.53,2.75,3.04,4.12,4.56.78.87,1.79,1.12,2.92,1.28,4.02.58,7.13-1.3,10.02-3.65,2.73-2.22,5.31-4.63,8.14-7.12.33.68.76,1.15.75,1.61-.04,2.28-.8,4.3-2.5,5.88-1.2,1.11-2.44,2.2-3.68,3.27-1.04.89-2.19,1.56-3.54,1.98-1.66.51-3.22,1.3-5.53,2.27Zm-89.89-43.32c.07,1.09.15,1.77.15,2.46-.01,3.3,1.44,5.73,4.22,7.47.67.42,1.19,1.09,1.76,1.65.77.76,1.48,1.57,2.29,2.28,1.13.99,2.39,1.83,3.47,2.86,2.58,2.48,5.75,3.1,9.1,2.79,2.18-.2,4.09-1.11,5.82-2.68,4.38-3.96,8.21-8.4,12.04-12.86.53-.62,1.17-1.2,1.55-1.9.43-.82.75-1.74.9-2.65.48-2.99-.79-5.21-2.98-7.21-3.84-3.51-8.69-5.09-13.22-7.28-.34-.16-.79-.13-1.19-.12-.95.01-1.91.14-2.86.08-2.88-.2-5.35.71-7.51,2.58-1.45,1.25-2.78,2.7-4.39,3.69-3.7,2.28-6.23,5.68-9.15,8.86Zm116.68,16.62c1.22-.3,2.23-1.09,3.59-.43,1.95.95,4.09,1.52,6.07,2.43,4.59,2.11,8.4.8,12.07-2.24,2.52-2.08,4.08-4.79,5.6-7.51,1.77-3.18,1.3-5.47-1.21-8.2-.46-.5-.99-.94-1.5-1.4-1.94-1.73-3.88-3.45-5.82-5.17-1.94-1.72-3.97-3.34-5.78-5.19-1.57-1.6-3.25-2.91-5.67-3.7-1.29.57-2.95.99-4.21,1.94-1.35,1.02-2.79,1.75-4.34,2.24-2.32.73-4.13,2.23-5.53,4.02-1.92,2.45-3.46,5.2-5.31,8.04.99,1.55,1.8,3.36,3.09,4.69,1.83,1.88,3.27,4,4.77,6.11,1.1,1.56,2.09,3.23,4.19,4.38Zm-54.37,47.98c.8.99,1.19,1.54,1.64,2.03,2.66,2.92,5.28,5.88,8,8.74,2.99,3.15,6.08,6.21,9.13,9.31.1.1.2.2.31.26,1.96.96,3.79,1.87,6.13.68,2.89-1.47,6.18-2.07,8.76-4.29.68-.58,2.07-.39,3.15-.44.6-.03,1.15,1.02.82,1.57-.34.56-.78,1.09-1.3,1.49-.52.4-1.41.48-1.73.96-1.4,2.15-3.62,2.76-5.84,3.5-.84.28-1.56.89-2.4,1.39,2.64,2.56,4.56,3.45,8.36,4.41,1.43.36,2.72.26,4-.26,1.26-.51,2.55-1.04,3.67-1.8,2.6-1.75,5.11-3.64,7.63-5.49.16-.12.15-.47.25-.79-1.15-1.96-2.74-3.55-4.55-5.05-1.43.92-1.67,2.3-2.15,3.55-1.29,3.36-4.31,4.32-7.39,5.09-.29.07-.9-.24-1.02-.52-.19-.45-.3-1.13-.08-1.51.39-.69,1.01-1.27,1.58-1.84,1.26-1.25,2.64-2.4,3.81-3.73,1.34-1.54,2.65-3.17,2.36-5.58-4.38-4.35-8.7-8.89-13.28-13.15-4.53-4.22-8.11-9.42-13.42-13.2-.09.58-.26.95-.19,1.27.45,1.96-.39,3.45-1.68,4.79-.57.59-1.15,1.16-1.75,1.72-1.4,1.3-2.83,2.57-4.22,3.88-2.9,2.77-4.03,3.21-8.59,2.99Zm-101.54-55.27c5.64-4.65,11.92-8.15,17.65-12.77-.9-.71-1.5-1.27-2.19-1.7-4.07-2.52-7.73-5.58-11.58-8.41-2.93-2.15-5.9-4.43-9.9-5.03-1.28.85-2.7,1.67-3.99,2.66-3.89,2.96-7.5,6.28-12.02,8.42-1.68.8-3.33,2.23-4.36,3.99,2.68,3.96,6.15,6.68,10.02,9.13,2.77,1.75,5.78,2.43,8.79,3.11,2.36.53,4.87.41,7.57.6Zm91.8,52.43c-.6.19-1.11.19-1.34.44-2.02,2.21-3.96,4.5-5.98,6.71-1.65,1.81-3.27,3.68-5.11,5.29-3.54,3.09-6.22,6.88-9.07,10.53-.15.19-.14.51-.26.99.69.49,1.42,1.07,2.21,1.55,2.9,1.78,5.97,3.32,8.69,5.35,2.57,1.91,5.07,2.28,8.05,1.4,2.84-.84,5.78-1.36,8.67-2.06,1.72-.41,3.45-.8,5.11-1.38,2.16-.74,3.59-2.31,4.85-4.79-1.64.26-2.81.42-3.98.65-4.36.84-8.13-.25-11.23-3.44-.32-.33-.6-.97-.52-1.39.17-.83.97-.84,1.66-.75,2.16.28,4.35.46,6.48.94,2.84.64,5.38-.06,7.97-1.19-.15-.46-.17-.93-.41-1.21-5.26-5.9-10.54-11.78-15.8-17.63Zm135.45-50.42c1.01-.9,1.33-2.46,2.92-2.64,2.91-.33,4.8-2.4,6.75-4.25,2.7-2.56,4.76-5.58,5.97-9.36-.4-.55-.73-1.4-1.36-1.8-2.06-1.32-4.22-2.48-6.35-3.69-1.78-1.01-3.6-1.95-5.35-3.01-1.87-1.13-3.68-2.36-5.5-3.57-1.86-1.24-3.64-1.55-5.72-.26-1.51.94-3.09,1.72-4.32,3.04-2.03,2.2-4.1,4.37-6.11,6.59-.35.38-.65.92-.72,1.43-.22,1.61-.31,3.23-.47,5.02,3.39,2.08,6.75,4.12,10.1,6.19,3.36,2.08,6.71,4.18,10.15,6.32Zm-122.49,48.26c2.38-2.08,4.51-3.99,6.7-5.83,1.2-1.02,1.57-2.32,1.03-3.67-.7-1.75-1.24-3.6-2.65-5.02-.95-.96-1.67-2.14-2.53-3.19-1.89-2.3-3.8-4.59-6.28-6.04-1.83.45-3.42.81-5,1.22-2.99.78-3.86,2.71-2.71,5.49,1.61,3.93,3.89,7.49,6.2,11.01,1.39,2.11,2.55,4.52,5.25,6.03Zm-25.44-20.07c.49-1.46.9-2.47,1.16-3.52.55-2.21,1.91-3.88,3.47-5.43,2.62-2.61,5.96-3.75,9.44-4.59,1.16-.28,2.32-.55,3.34-.8.13-.57.29-.85.23-1.09-.25-1.06-.47-2.13-.86-3.14-1.17-2.97-1.55-6.05-1.37-9.22.07-1.33.21-2.66.35-4.35-.87.42-1.63.64-2.2,1.09-2.99,2.4-5.19,5.6-7.96,8.2-3.73,3.51-5.84,7.85-7.54,12.48-.55,1.51-.91,3.19-.87,4.79.05,2.01.62,4,2.8,5.57Zm12.34-36.03c1.58-.68,2.84-1.4,4.21-1.79,3.17-.91,4.01-3.51,5.09-6.25-3.11-.03-5.96-.39-8.76,1.49,0,.91.06,1.98-.02,3.03-.08,1.05-.3,2.09-.52,3.52Zm66.09-20.71c-.46-.16-.71-.34-.94-.31-5.33.61-9.31,3.74-12.96,7.26-1.61,1.56-3.4,3.1-4.43,5.11.47.95.21,2.19,1.63,2.28.2-.34.39-.7.61-1.03,3.15-4.71,6.57-9.09,12.42-10.72,1.43-.4,2.54-1.46,3.66-2.6Zm-45.25-269.1c1.82-.56,2.91-.98,4.05-1.24,1.45-.33,2.36-1.34,3.2-2.4.26-.33.29-1.12.06-1.46-.23-.35-.98-.65-1.38-.53-.88.26-1.84.63-2.46,1.26-1.12,1.14-2.02,2.51-3.47,4.38Zm91.73,276.87q-1.89,2.41-.68,4.7c.23-1.61.46-3.17.68-4.7Zm-129.97,24.57q2.27-.92,2.65-2.88c-1.09,1.18-1.87,2.03-2.65,2.88Zm-7.31,6.76q2.06-.49,3.48-3.05c-1.55,1.35-2.51,2.2-3.48,3.05Zm-49.25-30.01c-.19-.09-.38-.17-.56-.26.07.1.12.25.22.3.08.04.22-.02.34-.04Zm128.35,20.65l-.16.25.23.06-.07-.31Zm-16.42,47.12c-.04-.09-.08-.19-.12-.28-.06.08-.17.14-.18.23-.01.08.07.18.11.27.06-.07.13-.15.19-.22Zm-224.72-241.21c-.11.08-.31.18-.3.23.06.21.18.4.27.6.11-.19.24-.38.31-.59.01-.04-.19-.16-.29-.24Z"/>
    <path class="cls-1" d="m252.39,589.34c-1.54.91-2.34.02-3.14-.68-3.29-2.89-6.55-5.8-9.83-8.7-.82-.72-1.64-1.45-2.5-2.12-3.12-2.44-6.28-4.84-9.39-7.29-.52-.41-.97-.98-1.31-1.56-.16-.27-.09-.84.11-1.09.22-.27.7-.42,1.08-.43.38-.01.81.15,1.16.34,6.47,3.61,12.84,7.38,17.64,13.2,2.16,2.62,4.84,4.86,6.2,8.33Z"/>
    <path class="cls-1" d="m572.57,619.66c-.47-1.45-.88-2.46-1.1-3.5-.18-.84.02-1.75.97-1.98.58-.14,1.49-.1,1.86.25,1.49,1.41,2.66,3.08,3.31,5.08.39,1.19.16,2.26-.82,2.91-.99.66-2.13,1.12-3.27,1.5-1.28.44-2.66.6-3.93,1.05-1.86.66-3.46,1.55-3.32,4.01.04.72-.38,1.72-.94,2.16-2.64,2.13-5.17,4.44-8.32,5.84-.28.13-.85-.01-1.07-.24-.21-.22-.32-.8-.18-1.07.51-.95,1.07-1.88,1.74-2.72.85-1.06,1.78-2.06,2.76-3,.82-.78,1.25-1.68,1.57-2.77,1.01-3.42,3.59-5.33,6.81-6.48,1.13-.41,2.33-.64,3.91-1.06Z"/>
    <path class="cls-1" d="m349.05,599.42c-.24-.05-.82-.04-1.3-.26-3.98-1.8-7.86-3.75-10.56-7.38-.42-.57-.75-1.17-.28-1.86.53-.79,1.32-.94,2.15-.61.62.25,1.33.51,1.74.99,2.05,2.37,4.86,3.44,7.62,4.59.63.26,1.29.45,1.93.68,1.93.69,2.79,1.43,2.47,2.2-.56,1.35-1.89,1.36-3.06,1.61-.13.03-.27.02-.71.05Z"/>
    <path class="cls-1" d="m228.67,439.17c4.98-.47,9.83.4,14.63,1.47,6.14,1.37,9.94,5.15,11.96,11.17,2.57,7.66,1.56,14.81-2.13,21.75-1.84,3.45-4.52,5.78-8.67,6.02-2.04.12-4.1.79-6.09.61-1.38-.13-2.4-.02-3.7.46-1.75.65-3.75.72-5.66.82-4.65.25-9.3.41-13.95.53-2,.05-3.54-.78-5-2.31-4.44-4.64-6.77-10.28-7.85-16.41-.81-4.6-.21-9.29,1.56-13.64,1.14-2.81,3.22-5.04,5.85-6.71,2.96-1.87,6.2-2.9,9.64-3.22,3.13-.29,6.28-.36,9.43-.53Zm20.05,32.72c.24-.09.58-.12.69-.29,2-3.16,2.89-6.65,2.98-10.36,0-.14-.36-.28-.73-.55-1.25,3.73-2.68,7.33-2.85,11.27-.15.17-.32.33-.45.52-.05.08-.01.23-.01.34.16-.08.43-.14.46-.25.05-.21-.04-.45-.07-.68Zm-20.93-28.97c-2.1.1-4.29.19-6.47.32-3.75.22-7.27,1.15-10.4,3.33-2.35,1.64-4.04,3.62-4.09,6.68-.02,1.22-.28,2.43-.46,3.65-.5,3.41-.68,6.82.64,10.09,1.02,2.52,1.86,5.24,3.42,7.4,2.2,3.03,5.12,5.34,9.35,4.81,2.58-.32,5.18-.48,7.75-.83,1.62-.22,3.28-.46,4.8-1.03,1.96-.73,3.93-1.29,5.99-1.18,2.75.15,4.35-1.28,5.38-3.56.44-.98.76-2.04.98-3.1.63-3.07,1.2-6.14,2.48-9.03.86-1.94.87-3.89.31-5.99-.79-2.94-2.04-5.63-3.51-8.26-.79-1.42-1.9-2.2-3.5-2.53-4.17-.86-8.35-1.36-12.68-.77Zm21.52,5.88c.76,1.97,1.52,3.94,2.28,5.91.16-2.35.08-4.61-2.28-5.91Z"/>
    <path class="cls-1" d="m620.44,438.02c3.89.34,8.28.51,12.59,1.17,3.77.58,7.4,1.78,10.67,3.94,2.48,1.63,3.83,3.91,4.22,6.71.57,4.07.69,8.17.01,12.25-.87,5.29-2.6,10.33-4.77,15.22-1.07,2.4-2.53,4.09-5.51,4.11-1.6.01-3.18.75-4.78,1.07-2.27.44-4.52,1.16-6.89.55-.49-.12-1.06.16-1.6.17-2.18.03-4.38.23-6.53,0-5.29-.57-10.57-1.32-15.84-2.06-2.35-.33-4.39-1.37-6.17-2.98-5.05-4.56-7.4-10.41-7.92-17-.19-2.4.25-4.92.83-7.28.65-2.64,1.73-5.18,2.73-7.72.73-1.85,2.1-3.17,3.98-3.92,3.05-1.23,6.1-2.43,9.47-2.44.81,0,1.69.03,2.43-.24,4.09-1.52,8.38-1.07,13.07-1.54Zm-17.89,39.13c1.93.29,3.4.6,4.88.72,3.55.29,7.1.49,10.65.72.54.04,1.1.15,1.63.07,5.41-.78,10.93-.51,16.28-1.88,1.31-.34,2.27-.85,2.86-2.04.42-.86.93-1.69,1.27-2.58,2.49-6.63,3.44-13.47,2.88-20.54-.23-2.95-1.74-4.83-4.49-5.73-3.11-1.01-6.26-1.67-9.54-2.11-8.82-1.18-17.45-.15-26.08,1.35-.24.04-.44.31-.76.55-1.71,4.48-1.89,9.24-1.62,14.05.08,1.5.39,3.02.25,4.5-.4,4.34,1.12,8.33,1.81,12.91Zm-7.21-26.16c-2.79,4.22-2.39,8.96-1.83,13.62.16,1.35.6,3.12,2.53,4.04.26-6.07-1.57-11.8-.69-17.66Z"/>
  </g>
</svg>