<?xml version="1.0" encoding="UTF-8"?>
<svg id="Laag_1" data-name="Laag 1" xmlns="http://www.w3.org/2000/svg" viewBox="0 0 850.39 850.39">
  <defs>
    <style>
      .cls-1 {
        fill: #131f48;
      }

      .cls-1, .cls-2 {
        stroke-width: 0px;
      }

      .cls-2 {
        fill: #a5d6af;
      }
    </style>
  </defs>
  <path class="cls-2" d="m757.2,564.23s-28.92-120.73-17.63-199.32c11.29-78.6-25.17-180.7-113.3-218.67-88.14-37.97-233.29-27.64-207.39,43.8,36.53,109.97-24.72,206.96-114.61,102.09-70.97-82.8-210.03,17.25-108.39,172.08,54.85,80.41,9.41,231.44,190.92,242.33,181.5,10.88,381.26-46.03,370.41-142.31Z"/>
  <g>
    <path class="cls-1" d="m423.56,617.78c.29.56.57,1.11,1.12,2.19-1.04,3.84-2.09,8.21-3.42,12.49-.73,2.37-1.43,4.72-1.65,7.18-.36,3.94-.63,7.89-.94,11.83-.04.54-.02,1.12-.19,1.62-.68,1.98-.5,3.58,1.2,5.14,1.23,1.13.09,3.81-1.83,4.05-2.16.27-3.8,1.47-5.75,2.3-.62,1.69-.3,3.46-.28,5.24,3.84,3.15,5.64,7.22,5.94,12.12.19,3.07-.89,5.45-3.31,7.06-2.32,1.55-4.29,3.33-5.88,5.6-1.07,1.53-2.65,2.23-4.43,2.75-4.67,1.35-8.89.7-12.72-2.35-.63-.51-1.28-1.06-2.02-1.36-3.53-1.4-5.21-4.27-6.14-7.69-1.06-3.9-1.15-7.82-.08-11.76.56-2.09,1.51-3.77,3.54-4.75.85-.41,1.57-1.07,2.3-1.58.11-.98-.62-1.22-1.19-1.51-5.14-2.65-10.47-4.59-16.25-5.48-4.72-.73-9.33-2.15-14-3.18-4.13-.92-8.27-1.86-12.44-2.55-5.65-.94-11.35-1.63-17.02-2.48-5.41-.81-10.8-1.72-16.2-2.54-6.62-1-13.27-1.85-19.88-2.94-4.31-.71-8.6-1.6-12.85-2.64-3.75-.92-7.56-1.21-11.37-1.63-2.17-.24-4.35-.53-6.49-.94-6.97-1.32-13.95-2.61-20.88-4.1-3.74-.8-7.43-1.89-11.08-3.04-3.01-.95-6.01-1.68-9.2-1.72-2.45-.03-4.91-.34-7.36-.57-2.86-.27-5.72-.53-8.74-.12-.74,2.09-1.21,4.02-.06,6.21,1.13,2.15-.38,4-1.52,5.62-.92,1.32-2.28,2.37-3.56,3.39-.6.48-1.46.8-2.23.88-3,.29-6.02.37-9.01.68-1.83.19-3.51-.23-5.24-.71-1.7-.47-3.04-1.25-3.53-3.05-.28-1.04-1.11-1.43-1.97-1.92-3.29-1.9-5.04-4.94-5.88-8.54-.24-1.04-.34-2.22-.12-3.25.62-2.91.67-6,2.44-8.59.22-.32.24-.78.36-1.2-.16-.36-.22-.87-.5-1.08-2.93-2.21-3.6-5.35-3.67-8.74-.01-.68.09-1.37.12-2.05.17-3.81.56-7.59-.54-11.38-.68-2.33-1.06-4.91.03-7.26,2.09-4.48,1.39-9.07.71-13.65-1.27-8.51-2.67-17.01-3.87-25.53-.68-4.86-1.05-9.76-1.61-14.63-.42-3.67-.91-7.33-1.41-10.98-.41-2.97-.86-5.94-1.32-8.91-.77-4.99-1.5-9.99-2.37-14.97-.85-4.85-1.85-9.67-2.79-14.49-.74-3.76-1.52-7.5-2.24-11.26-.9-4.7-1.64-9.43-2.68-14.09-1-4.52-2.31-8.98-3.45-13.47-1.35-5.3-3.08-10.48-4.8-15.67-1.2-3.62-1.91-7.41-2.87-11.12-.51-1.98-1.09-3.93-1.61-5.91-2.09-7.92-4.12-15.85-6.27-23.76-1.5-5.53-3.16-11.02-4.73-16.53-.3-1.05-.52-2.12-.8-3.17-1.19-4.48-2.4-8.96-3.57-13.45-.65-2.51-1.14-5.06-1.83-7.56-1.1-3.95-2.34-7.86-3.49-11.79-.54-1.84-.99-3.7-1.5-5.55-.51-1.83-.91-3.7-2.33-5.15-.46-.47-.75-1.15-.98-1.79-2.36-6.54-4.63-13.11-7.05-19.62-1.09-2.94-2.18-5.88-2.95-8.92-.47-1.85-1.15-3.68-1.35-5.56-.25-2.47-.72-4.86-1.5-7.21-.21-.64-.38-1.37-.29-2.02.37-2.58-.61-4.85-1.52-7.13-.35-.87-.77-1.76-1.37-2.46-4.33-5.08-4.7-10.86-3.15-17.02,1.34-5.33,3.26-10.49,5.75-15.33,2.3-4.46,4.01-9.27,7.27-13.24,3.24-3.95,6.92-7.23,11.49-9.68,5.96-3.2,12.32-5.15,18.74-7.07,4.05-1.21,8-2.81,11.92-4.41,7.28-2.97,14.85-4.73,22.6-5.85,1.35-.2,2.71-.46,4.02-.84,5.7-1.62,11.47-2.53,17.42-2.13,2.18.15,4.39.29,6.57.14,5.9-.41,11.39,1.47,16.9,3,3.93,1.1,7.52,3.25,10.67,5.98,2.69,2.33,5.4,4.62,8.11,6.93.51.44,1.02.88,1.59,1.38,3.2-1.11,6.45-1.32,9.72-1.34.67,0,1.4-.03,2.01-.27,2.89-1.14,5.92-1.04,8.92-1.09,3.01-.05,6.02.09,8.9,1.23,1.14.45,2.37.66,3.56.98,5.6,1.5,10.78,4.03,15.59,7.16,3.09,2.01,5.31,5.14,7.19,8.33,2.37,4.01,4.26,8.25,5.39,12.8.1.4.24.81.23,1.21-.01,5.76,2.02,11.23,2.35,16.93.1,1.76.31,3.53.22,5.28-.2,3.68-.59,7.35-.86,11.02-.55,7.4-.39,14.78,1.44,21.99.93,3.66,2.2,7.27,3.91,10.7,2.25,4.52,4.26,9.17,6.39,13.75.11.23.35.4.52.58,1.92,0,3.82,0,5.72,0,4.67.01,9.26.87,13.88,1.43,10.47,1.26,20.93,2.73,31.52,1.87,3.54-.29,7.07-.74,10.61-1.13,1.36-.15,2.71-.38,4.08-.5,6.26-.55,12.52-1.29,18.8-1.52,3.99-.15,7.91-.7,11.85-1.14,6.83-.77,13.68-.49,20.52-.26,4.08.14,8.15.75,12.41,1.17.09-.6.34-1.26.27-1.88-.74-6.65-.74-13.4-2.47-19.93-.42-1.58-.88-3.16-1.42-4.7-1.25-3.54-1.76-7.14-1.35-10.9.17-1.6.15-3.28-.12-4.88-1.37-8.25-2.31-16.53-2.31-24.9,0-1.9-.22-3.84-.62-5.69-1.3-6.01-2.69-12-4.13-17.98-.38-1.59-1.14-3.08-1.57-4.66-1.08-3.96-2.14-7.93-3.06-11.93-1.11-4.79-2.07-9.62-3.07-14.43-.19-.93-.35-1.88-.37-2.83-.06-3.36.07-3.58,2.73-5.9-.03-7.99,0-10.6,8.99-16.36.38-.98.61-2.1,1.2-2.97,1.92-2.83,3.96-5.58,5.98-8.33.31-.43.77-.79,1.23-1.07,2.32-1.45,4.55-3.09,7.01-4.24,5.06-2.37,10.1-4.69,15.69-5.87,4.27-.9,8.58-1.74,12.87-2.51,4.15-.74,8.45-.64,12.69-.96,3.14-.23,6.27-.7,9.41-.77,3.95-.1,7.92.01,11.87.19,5.33.24,10.64.68,15.97.93,7.32.33,14.38,2.06,21.29,4.21,3.62,1.13,7.03,3.13,8.94,6.81.31.59,1.04.99,1.27,1.59,1.04,2.76,3.17,3.02,5.69,2.79,2.45-.22,4.91-.3,7.37-.35.95-.02,1.93.12,2.84.37,3.43.94,6.88,1.8,10.22,2.99,2.06.73,4.11,1.37,6.23,1.92,4.15,1.07,7.97,2.94,11.07,6.01.85.84,1.95,1.52,1.84,3.03-.03.37.56.85.95,1.18,1.62,1.37,2.53,3.12,2.93,5.17,1.24,6.31.63,12.53-.91,18.7-.5,1.99-1.04,3.97-1.69,5.91-.78,2.33-1.64,4.63-2.55,6.91-2.01,5-3.01,10.21-3.21,15.57-.13,3.54-.1,7.09-.04,10.64.01.92.24,1.9.61,2.74,1.37,3.13,2.9,6.19,4.25,9.33.45,1.04,1.09,1.81,1.84,2.63,1.88,2.06,4.19,2.93,6.89,3.11,2.32.16,4.63.42,6.94.64.55.05,1.11.03,1.64.14,3.87.87,7.74,1.75,11.59,2.67,5.71,1.37,11.4,2.85,17.13,4.17,1.97.46,4.05.36,5.99,1.14.42.17,1.03-.13,1.5-.21.47-1.44.17-2.82-.63-3.62-1.64-1.65-2.68-3.63-3.86-5.55-.73-1.19-.86-1.87-.06-2.34,1.09-.65,2.37-.44,2.86.56.3.6.44,1.28.6,1.94.38,1.61,1.28,2.65,3.13,2.97.6-2.69-1.48-4.65-1.69-7.04-.22-2.5-1.92-4.4-3.5-6.47,2.78-.33,4.97.7,7.21,3.22,1.92-3.3.41-5.99-1.41-8.85-2.41.02-3.5-1.96-4.87-3.61,1.27-1.45,1.67-1.63,2.67-1.1,1.08.57,2.2,1.11,3.17,1.84.94.7,1.72,1.61,2.8,2.66,1.48-3.25,2.15-6.13-.17-8.99-.17-.21-.39-.44-.43-.69-.07-.51-.21-1.13,0-1.55.31-.63.96-.94,1.73-.68.37.13.75.26,1.23.42,1.63-1.79,1.96-3.79,1.15-6.02-.23-.64-.6-1.27-.67-1.93-.07-.62-.04-1.54.34-1.86.5-.43,1.38-.41,2.37-.65,1.03-2.17,2.11-4.64,1.35-7.53-.14-.54.24-1.21.45-2.15,1.92,1.59,2.61,3.44,3.27,5.26.79.3,1.51.58,2.26.87-.26,1.34-.39,2.56-.75,3.71-.37,1.15-.92,2.26-1.51,3.32-.39.71-1.15,1.23-1.46,1.96-.7,1.61-1.22,3.3-1.92,5.24,1.11.11,2.01.14,2.89.31.88.17,1.26,1.43.57,1.92-1,.7-2.08,1.28-3.16,1.84-1.65.85-2.26,2.2-2.22,4.23.92.04,1.7.13,2.47.08.68-.04,1.54-.26,1.77.51.32,1.07-.73,1.26-1.45,1.58-.62.28-1.33.42-1.88.8-.76.53-1.51,1.18-1.18,2.41,1.92.67,3.26-1.19,5.09-1.2.83,1.05.05,1.78-.67,2.32-1.3.98-2.6,2.04-4.08,2.66-2.01.84-2.43,2.37-2.52,4.22.6.76,1.19.27,1.81.03,1.28-.48,2.56-.97,3.89-1.29.35-.08.94.37,1.23.72.14.17-.05.87-.29,1.04-1.11.78-2.3,1.46-3.45,2.19-1.26.79-2.57,1.53-3.77,2.41-.56.41-.83,1.08-.15,1.8,2.18-1.36,4.36-2.73,6.55-4.08.35-.21.72-.42,1.11-.51.88-.21,1.63.07,2.15.81.54.77.5,1.6-.16,2.24-.58.56-1.25,1.07-1.98,1.41-1.24.58-2.52,1.09-3.83,1.47-2.94.85-4.92,2.87-6.62,5.24-.2.28-.15.75-.26,1.39,1.36.03,3.03-.85,3.77.61.61,1.21,1.57,1.42,2.61,1.67.79.2,1.6.4,2.41.43,1.06.04,2.13-.09,3.1-.14.73-1.71-1.69-2.7-.61-4.46,2.14.84,2.01,3.5,3.72,4.63,1.18-2.77,1.39-3.92,1.39-7.09,0-2.6.01-5.2.06-7.8,0-.2.31-.55.48-.56.36-.02.96.05,1.05.26.37.85.61,1.77.83,2.67.24,1-.65,2.08.13,3.1,1.85-2.29,2.33-3.26,2.53-5.71.15-1.77.1-3.56.22-5.33.04-.6.3-1.18.67-2.58.67,1.61,1.02,2.42,1.36,3.24.26-.06.61-.03.73-.18.24-.31.48-.7.52-1.08.28-2.73,1.64-4.86,3.62-6.67.76-.69,1.11-1.51.8-2.57-.11-.36,0-.81.08-1.2.18-.89,1.1-1.22,1.89-.59.41.32.62.89.84,1.24,2.5-.48,4.08-1.87,5.87-2.8,1.09-.56,2.1-1.29,3.16-1.91.76-.44,1.65-.68,2.21.14.56.81-.03,1.57-.6,2.18-.44.47-.99.85-1.78,1.52,1.25.41,2.17.71,3.39,1.11-.56.5-.8.9-1.11.96-1.34.26-2.74.71-4.04.54-3.1-.39-5.08,1.39-7.37,3.03,1.02,1.31,2.54.23,3.4,1.17-.02.24.05.58-.08.71-1.38,1.32-3.3,1.21-4.95,1.82-1.77.65-1.82.69-1.85,3.47.4-.14.79-.23,1.14-.4.79-.38,1.61-1.55,2.42-.34.5.75-.29,1.53-.94,2.06-1.59,1.29-3.19,2.58-4.82,3.82-1.24.93-2.29,1.93-2.16,3.93.71-.04,1.36.02,1.98-.12,1.2-.26,2.37-.72,3.58-.92,1.2-.2,1.7.53,1.72,1.66-2.44,1.18-4.88,1.9-7.54,1.91-.48,0-.96.67-1.22,1.56.46-.05.99.02,1.38-.18,2.03-1.03,3.96-.59,5.92.23,1.09.46,2.24.79,3.87,1.35.37.55,1.01,1.58,1.75,2.53.11.15.67-.05,1.02-.09,0,0-.02.03-.02.03.23,2.4.46,4.8.73,7.69,1.44-1.07,2.52-1.85,3.58-2.66.96-.73,1.29-1.71,1.16-2.9-.19-1.77-.32-3.54-.48-5.33,1.13-2,2.12-4.02,2.45-6.41.21-1.58.98-3.14,1.76-4.56.94-1.74,1.63-3.44,1.23-5.46-.37-1.86,1.31-3.46,3.06-3.67,1.76-.21,3.5-.58,5.26-.74.37-.03.8.51,1.16.75-1.56,2.99-4.59,1.59-6.91,2.65-.09,2.02-.17,4-.27,6.25,1.98-1.58,4.11-2.82,4.74-5.46,1.31-.39,2.53-.75,4.16-1.24-.81,3.24-4.11,5.36-2.71,9.11.27.04.77.07,1.25.19.47.13.91.35,1.52.6-.34.56-.49,1.11-.75,1.16-1.47.32-2.36,1.25-2.92,2.56-.37.85-.99,1.26-1.9,1.29-1.51.06-2.09,1.1-2.47,2.35-.08.26-.16.53-.2.8-.38,2.82-1.55,5.2-4.04,6.69.37.62.62,1.06.95,1.63-1.37.3-2.69.58-4.07.88-.62.91-1.22,1.8-1.81,2.67.29.27.46.54.68.62,2.03.67,3.73.19,5.17-1.44,1-1.14,2.1-2.06,3.85-1.97,1.68.08,2.68-1.18,3.54-2.46.66-.98.88-2.3,2.16-2.82.17.25.45.48.42.66-.55,3.17-2.09,5.67-5.28,6.62-1.49.44-2.85.79-3.83,2.08-1.4,1.84-3.33,2.26-5.51,1.86-.81-.15-1.63-.25-2.42-.46-.99-.26-1.92-.25-2.72.42-.87.72-1.39,1.62-1.2,3,1.99.18,3.98-1.27,6.13-.07.33.85.72,1.84,1.07,2.74,1.14.49,1.97.17,2.73-.53,1-.93,2.03-1.83,3.02-2.78,2.41-2.31,5.24-3.96,8.33-5.14,2.81-1.07,5.65-2.06,8.53-2.92,1.93-.58,3.86-1.29,6.02-.58.93.31,2.22.02,3.19-.37,2.68-1.08,4.86.03,6.85,1.49,1.78,1.32,3.49,2.54,5.73,3.04,1.28.28,2.65.85,3.01,2.57-.85,1.86-2.74,2.48-4.42,3.31-.39.19-1.03-.19-1.56-.22-.52-.03-1.2-.14-1.53.13-1.81,1.47-3.58.7-5.33.22-.45-1.11.56-1.16.92-1.63,1.32-1.68.59-3.39-.06-5-.34-.84-1.16-1.48-1.95-2.44-1.77.36-3.61.73-5.74,1.16,1.51,3.02,2.94,5.87,4.5,8.98,2.49-.41,4.5,1.21,6.61,2.38,2.39,1.33,2.42,3.85.43,5.79-1.82,1.77-3.86,2.52-6.41,1.67-.59.85-1.12,1.61-1.62,2.32.27.33.39.61.58.67.52.16,1.1.16,1.6.34,1.9.7,3.48.28,4.8-1.24,1.98-2.29,4.92-2.81,7.51-3.94,1.61-.7,2.75-.07,3.84,1.46,1.14,1.6,1.25,2.64-.03,4.08-1.18,1.32-2.62,2.4-3.62,3.28-.19,1.13-.39,1.68-.34,2.2.16,1.65-.51,2.91-1.65,4.02-.59.57-1.13,1.19-1.67,1.81-.82.94-1.79,1.12-2.97.81-1.69-.46-3.2-1.65-5.34-1.22-.07.59-.11,1.23-.23,1.87-.07.39-.12.92-.39,1.13-2.42,1.92-4.4,4.4-7.26,5.75-1.01.48-1.98.18-2.62-.58-.96-1.13-1.73-2.42-2.79-3.94-.72,1.14-1.16,2.26-1.96,2.97-.77.67-1.93.91-2.99,1.36-1.52-.86-1.93-3.25-4.14-2.89-.8,1.88-1.5,3.77-.83,5.88.15.48-.02,1.08-.12,1.62-.38,2.05-1.6,3.06-3.48,2.31-3.08-1.22-5.22.04-7.5,1.98.36,1.53.69,2.97,1,4.29.53.34.89.53,1.2.78,2.76,2.21,5.7,3.21,9.1,1.44.34-.18.91-.29,1.2-.13,2.34,1.33,5.09.79,7.52,1.67,1.45.52,1.9,1.17,1.78,2.76-.3,4.07-3.43,5.99-7.16,4.31-1.26-.57-2.43-1.32-3.87-1.15-1.99.23-3.44-.56-4.54-2.18-.3-.43-.71-.79-.94-1.04-1.2-.24-1.79.28-2.17,1.07-.43.88-.18,1.77.58,2.1.5.22,1.02.47,1.55.53,1.96.23,3.63,1.13,5.31,2.08,1.29.74,2.53,1.63,4.14,1.66.49,0,1.17.28,1.43.66,1,1.42,2.46,2.12,3.91,2.89,1.22.64,1.69,1.67,1.55,3.07-.12,1.21-.09,2.44-.05,3.65.04,1.4-.54,2.42-1.82,2.91-1.5.57-3.05,1.01-4.72,1.54-.3-.62-.73-1.09-.73-1.56-.03-3.98-1.96-7.32-3.55-10.78-.81-1.77-2.07-2.83-4.02-3.05-.53-.06-1.05-.16-1.86-.29-.22,2.93-2.83,4.56-3.42,7.27-.09.44-1.02.88-1.61.97-.38.05-1.03-.46-1.24-.87-.87-1.7-1.62-3.47-2.41-5.21-1.29-2.85-3.89-4.16-6.57-5.2-.73-.28-1.95.1-2.68.58-2.19,1.43-4.48,2.58-7.31,3.04.63,6.89,2.59,13.32,3.3,19.96.7,6.51,1.68,13,2.56,19.7,2.83,1.13,4.51,3.64,6.26,6.08.72,1.01,1.41,1.86,2.75,2.27,2.3.7,3.89,2.47,5.26,4.39.71,1,1.35,2.06,2.05,3.07,2.11,3.03,4.4,5.87,7.22,8.31,1.42,1.23,2.44,2.92,3.64,4.41.17.21.31.45.48.67,1.41,1.75,3.54,2.7,4.56,5.02.84,1.9,2.69,3.44,4.33,4.88,1.61,1.41,3.5,2.49,5.56,3.91-.38,5.29-.69,10.96-1.2,16.61-.53,5.86-1.1,11.72-1.93,17.54-1.08,7.59-1.69,15.22-2.29,22.86-.35,4.49-1.04,8.96-1.34,13.45-.27,4.09-.15,8.21-.31,12.31-.19,5.05-.5,10.1-.75,15.15-.03.54-.07,1.08-.04,1.62.47,8.5-.38,16.97-.73,25.44-.32,7.66-.81,15.3-1.15,22.96-.24,5.19-.22,10.4-.57,15.58-.53,7.91-1.26,15.81-1.95,23.71-.07.77-.43,1.52-.67,2.3-2.24.4-4.28.33-6.07-.86-1.12-.75-2.3-.88-3.52-.83-2.73.11-5.47.32-8.2.51-7.23.5-14.46,1.16-21.7,1.49-9.98.45-19.98.62-29.96,1-6.98.27-13.96.08-20.94.02-5.73-.05-11.47.59-17.21.74-3.53.09-7.08-.15-10.71-.25-.44-.82-1.01-1.49-1.16-2.24-.83-4.23-2.94-7.94-4.63-11.82-1.58-3.64-3.18-7.27-4.81-10.89-.45-.99-1.01-1.94-1.52-2.9-2.17-4.12-4.01-8.35-5.31-12.85-2.06-7.09-4.26-14.14-7.04-20.99-.73-1.81-.89-3.66-.91-5.61-.06-5.74-.37-11.48-.51-17.22-.2-7.91-.34-15.82-.51-23.73-.01-.55.03-1.1,0-1.64-.4-6.02-.07-12.02.11-18.03.18-5.99.13-11.99.02-17.99-.09-4.91-.34-9.86.54-14.75.14-.77-.06-1.6-.11-2.68-2.97.68-5.72,1.36-8.48,1.93-3.21.67-6.44,1.3-9.68,1.85-5.27.89-10.44,2.1-15.5,3.81-1.8.61-3.64,1.3-5.51,1.47-1.9.17-3.07.91-3.77,2.73,1.15,1.91,2.38,3.86,3.52,5.86,1.76,3.08,1.89,6.23.29,9.43-.37.73-.59,1.54-.96,2.27-.54,1.09-.42,2.09.2,3.11.42.7.83,1.43,1.12,2.19.67,1.76.3,3.22-1.26,4.34-6.84,4.94-14.21,6.87-22.45,3.87-3.17-1.15-3.62-2.85-1.32-5.4.27-.3.53-.59.91-1.01-.2-.61-.3-1.32-.64-1.86-1.51-2.41-3.01-4.83-4.69-7.12-.93-1.27-1.06-2.52-.54-3.85.49-1.27,1.12-2.5,1.82-3.67,1.85-3.11,1.88-3.09,1.19-7.06-2.59-.76-3.86-2.77-5.1-5.23-1.58-3.13-3.94-5.89-6.11-8.69-4.7-6.1-10.72-10.88-16.28-16.12-1.77-1.67-3.87-3.01-5.17-5.2-.57-.96-1.71-1.24-3.11-1.26-.06.93-.24,1.83-.17,2.72.64,8.38.11,16.71-1.46,24.93-.82,4.28-2.31,8.43-3.52,12.64-.45,1.58-.93,3.15-1.45,4.7-.61,1.86-.87,3.69.07,5.55.3.59.46,1.32.47,1.99.11,5.52,2.02,10.73,2.64,16.16.17,1.49.54,2.96.91,4.41.4,1.58.1,2.97-.87,4.26-1.23,1.63-2.43,3.28-3.75,5.05,1.42,3.61.69,7.21-.25,10.82-1.4,5.38-5.07,7.85-10.79,7.07-1.26,1.89-1.86,4.13-2.62,6.3-.9,2.58-1.57,5.24-2.58,7.77-2.55,6.33-5.27,12.6-7.85,18.92-.98,2.4-1.76,4.89-2.65,7.32-.33.9-.72,1.77-1.11,2.64-3.29,7.52-6.65,15-9.83,22.56-1.11,2.64-1.76,5.47-2.68,8.19-.66,1.94-1.36,3.87-2.16,5.75-.43,1.02-1.32.71-2.12.39,0-.4-.11-.85.03-1.2,1.15-2.94,1.89-5.97,2.65-9.03.85-3.42,2.3-6.7,3.54-10.02.38-1.01.97-1.94,1.38-2.94,1.1-2.65,2.15-5.32,3.25-7.97,1.31-3.15,2.71-6.26,3.97-9.42,1.11-2.78,2.03-5.64,3.14-8.43,1.42-3.55,3.03-7.03,4.39-10.61,1.4-3.68,3.25-7.15,4.48-10.93,1.26-3.88,2.44-7.78,3.58-11.7.91-3.14,1.5-6.45,3.38-9.21,1.8-2.64,2.8-5.63,3.99-8.53.99-2.38,1.73-4.89,1.6-7.57-.06-1.21.29-2.43.46-3.65.36-2.66.73-5.32,1.09-7.99-.8.44-1.19.99-1.41,1.6-1.57,4.37-3.3,8.69-4.59,13.14-1.94,6.69-3.83,13.39-6.92,19.67-.42.85-.56,1.82-.89,2.71-1.55,4.08-2.87,8.28-4.76,12.21-3.38,7.03-6.11,14.29-8.5,21.7-1.22,3.77-2.45,7.56-4.14,11.13-2.1,4.45-3.65,9.11-5.71,13.57-.23.49-.35,1.03-.52,1.56-1.13,3.5-2.11,7.07-3.44,10.49-2.06,5.34-4.4,10.57-6.53,15.89-.71,1.76-1.41,3.6-1.63,5.46-.33,2.74-.92,5.37-1.84,7.96-.36,1.02-.46,2.13-.7,3.31,1.69,1.97,2.92,4.2,3.1,6.88,0,.08.4.12.85.25,0-6.26,1.52-12.19,3.35-18.07.36-1.17.56-2.39.84-3.59.56-2.39,1.29-4.73,2.6-6.84Zm233.81-266.26c-.08.05-.16.13-.24.13-.05,0-.12-.09-.18-.14.15,0,.3,0,.45-.02-.05-.25-.09-.49-.14-.74.04.25.07.51.11.76Zm-.92-10.02c-.24.19-.49.39-.35.28-.1.14.09-.13.26-.42.19-.67.39-1.34.58-2.01.43-.21,1.04-.3,1.27-.65.96-1.46,1.66-3.11,2.71-4.5,3.31-4.39,5.85-9.08,6.4-14.71-1.47,0-2.17,1.01-2.74,2.09-2.11,3.96-4.28,7.88-6.22,11.92-.87,1.81-1.52,3.8-1.34,5.91-.79.54-.55,1.35-.56,2.1Zm-6.03,16.06c-.83.25-1.45.68-1.27,1.67.03.18.41.48.53.44,1.3-.39,1.05-1.28.65-2.19.36-.03.79,0,.44-.57-.12.22-.24.44-.35.65Zm21.74-33.31c-1.02.49-1.79,1.15-1.58,2.93.64-1.26,1.09-2.14,1.5-3.04.02-.13.06-.25.05-.38,0-.09-.08-.18-.13-.27.05.25.1.51.15.76Zm-18.58,9.53c.28-.67,1.06-1.42.03-1.99-.72-.4-1.18.28-1.52.84-.13.21-.14.49-.27.98.66.03,1.26.05,1.87.08-1.67,2.01-1.7,2.3-.4,5.81,1.23-1.54,1.75-3.13,1.5-4.92-.04-.32-.79-.53-1.21-.8Zm-232.76,255.55c.54-.55,1.27-1,1.59-1.66,1-2.05,1.85-4.16,2.73-6.27.07-.17-.17-.46-.36-.92-.43.37-1.1.66-1.12,1-.14,2.11-1.38,3.77-2.15,5.62-.3.72-.42,1.52-.61,2.29-2.27,1.92-2.68,4.88-4.05,7.3-.13.23.1.65.27,1.54,1.63-3.19,3.41-5.72,3.7-8.9Zm194.29-264.76c.15,1.23.41,2.41,1.36,3.84.52-2.05-.24-3.01-1.43-3.78-.04-.26.02-.6-.13-.76-1.33-1.51-2.98-2.52-5.16-3.28v2.6c1.82.54,3.39,1.65,5.36,1.38Zm-260.46,182.89c1.13-.27,1.36-1.27,1.58-2.15.78-3.13,1.49-6.28,2.2-9.42.24-1.04.87-2.06.22-3.57-1.29,2.99-1.9,5.74-2.5,8.5-.49,2.23-1.01,4.46-1.51,6.72.04.31.08.63.12.94.03,0,.07-.02.1-.02-.08-.33-.15-.66-.23-.99Zm328.84-177.65c-3.46,1.44-4.17,4.64-4.94,7.78-.09.35.12.77.21,1.28,1.11-.11,2.14-.22,3.13-.32.37-1.57.78-2.97,1.02-4.39.25-1.46.35-2.96.5-4.44.09-.1.2-.2.26-.31.04-.07,0-.18,0-.28-.06.23-.12.46-.18.68Zm-83.62-145.39c.1-.25.22-.49.28-.74.02-.07-.13-.18-.2-.28-.01.32-.02.65-.03.97,1.42,2.02,2.42,4.2,2.73,6.68.32,2.55.72,5.09,1.08,7.63.1.67.17,1.35,1.2,1.42,0-2.44.08-4.87-.02-7.29-.12-3.12-1.64-5.69-3.61-7.99-.27-.31-.96-.26-1.43-.41Zm101.87,158.76c-.04.64-.08,1.28-.11,1.84q2.76,1.12,4.55.62c-1.19-1.37-3.4-.84-4.49-2.39.2-1.34.43-2.69.61-4.03.14-1.04-.22-2-1.11-2.47-1.55-.83-3.15-1.7-4.84-2.1-1.55-.37-3.27-.35-4.71.72-1.97,1.46-4,2.85-5.9,4.4-.66.54-.84,1.42.51,1.95.85-.72,1.77-1.5,2.69-2.27.9-.76,1.88-.98,3.04-.62,1.41.44,2.85.76,3.81,1.01,2.46,1.35,1.28,3.53,1.77,5.35.82-.74.93-1.94,2.26-1.67.6.12,1.29-.22,1.92-.33Zm31.74-54.92c-.74.3-1.25.12-1.66-.62-.9-1.63-1.44-3.53-3.12-4.51-2.79.52-9.06,2.62-10.87,3.77-.88.56-1.58,1.39-2.43,2.15.39.45.59.84.9,1.01,1.87,1.04,3.71,1.26,5.82.35,1.91-.83,3.98-.6,5.93.35,1.68.82,1.22,2.6,1.95,3.89,1.47,1.1,2.9.99,4.53-.24-.44-1.23-.78-2.39-1.25-3.49-.41-.97-.19-1.86.11-2.76,1.13,1.25,1.66,2.79,2.16,4.36,1.38,4.32,1.39,4.31.74,7.73.13-.03.29-.01.38-.09,1.56-1.34,2.78-3.75,5.41-1.62.2.16.82-.02,1.13-.22.68-.42,1.3-.95,2.04-1.51-.2-.73-.19-1.57-.6-1.95-.77-.72-1.78-1.17-2.7-1.73-1.84-1.1-3.22.89-4.89.89-1.57-8.35-1.83-8.9-5.12-10.4.53,1.62,1.02,3.13,1.51,4.63Zm-367.26,318.76c-.55,1.03-.56,2.12-.19,3.19.84,2.44,1.59,4.93,2.66,7.27,2.22,4.84,4.62,9.59,6.98,14.37.27.54.68,1.01,1.21,1.77.63-2.18-.48-3.54-1.12-5-1.74-3.99-4.19-7.68-4.95-12.09-.13-.75-.77-1.41-1.12-2.14-1.18-2.44-2.33-4.89-3.49-7.34-1.28-3.3-2.83-6.51-3.79-9.9-2.16-7.61-4.03-15.31-5.99-22.98-.37-1.45-.55-2.95-.91-4.41-2.19-8.79-3.32-17.68-2.99-26.77.17-4.78-.03-9.58-.07-14.36-.47,1.32-.43,2.72-.89,3.94-.6,1.6-.66,3.19-.71,4.83-.04,1.09.08,2.21-.12,3.27-.64,3.55-.35,7.06.13,10.6.4,2.98.66,5.97.98,8.96.54,5.02.94,10.06,2.41,14.94,1.1,3.65,2.09,7.32,3.44,10.9,1.49,3.96,2.61,8.05,3.96,12.06.92,2.71,1.96,5.38,2.98,8.06.27.72.84,1.03,1.61.83Zm240.73-168.01c-.85.62-1.69,1.24-2.34,1.72,0,2.53.02,4.71,0,6.9-.01,1.23.24,2.62-.24,3.64-.64,1.36-1.08,2.51-.31,3.88-.23,5.45-.44,10.91-.68,16.36-.08,1.77-.28,3.54-.38,5.31-.51,9.27-.92,18.55-1.54,27.81-.6,9.14-1.39,18.27-2.13,27.4-.14,1.73.34,3.59-.99,5.12-.18.21-.14.88.06,1.12,1.06,1.23.51,2.68.47,3.96-.31,8.19-.73,16.39-1.24,24.57-.25,3.95-.88,7.87-1.16,11.82-.41,5.58-.35,11.22-1.08,16.76-.44,3.33-.04,6.16,1.63,8.96.63,1.05,1.04,2.23,1.61,3.32.29.55.56,1.25,1.34.98.2-7.3.46-14.54.55-21.78.04-3.13-.23-6.27-.41-9.4-.12-2.04-.37-4.08-.48-6.12-.11-2.05-.59-4.23-.05-6.11.59-2.08-.04-4.02.21-6.02.73-5.97,1.2-11.96,1.92-17.93,1.02-8.43,1.24-16.9,1.74-25.36.23-3.81.58-7.62.85-11.43.05-.66.11-1.39-.1-1.99-.79-2.29-.45-4.59-.31-6.91.29-4.78.55-9.55.74-14.33.16-3.82.12-7.64.31-11.46.21-4.09.6-8.17.9-12.26.31-4.22.4-8.46,1.03-12.63.24-1.59-.33-2.55-.92-3.65.32-.81.62-1.55.91-2.29.32-.39.92-.79.91-1.17-.04-1.41-1.84-3.83-3.54-4.93-.23,2.65,1.66,4.22,2.74,6.15Zm79.34,112.92c.81,1.04,1.62,2.09,2.65,3.42.22-.97.46-1.7.53-2.45.18-2.17.31-4.34.42-6.51.08-1.63.02-3.27.18-4.89.32-3.1-.31-6.3.99-9.3.14-.32.04-.76,0-1.15-.15-1.34-.47-2.67-.45-4,.05-2.72.65-5.48.35-8.14-.47-4.13.18-8.2.06-12.3-.2-6.59.63-13.13,1.52-19.63,1.15-8.42,1.65-16.89,1.96-25.34.23-6.42,1.37-12.68,2.12-19.21-2.87-.44-5.65-.7-8.27.14,0,2.37-.03,4.55,0,6.72.06,3.69.31,7.39.21,11.08-.06,2.2.59,4.38.37,6.48-.72,6.79-.26,13.56-.05,20.34.03.95.05,1.91.01,2.87-.22,5.46-.43,10.91-.7,16.37-.33,6.69-.71,13.37-1.34,20.05-.62,6.54-1.07,13.09-1.99,19.6-.14,1.03.12,2.16.38,3.19.23.92.71,1.77,1.06,2.66h-1.25s0,.09,0,.13c.41-.04.81-.08,1.21-.11ZM120.28,286.37c-2.03-.79-4.1-1.47-6.07-2.38-4.41-2.03-7.57-5.29-9.33-9.85-.18-.45-.49-.86-.8-1.4-.31.43-.56.62-.56.82-.06,3.67,1.25,6.67,4.46,8.61,1.98,1.2,4.01,2.38,6.14,3.27,1.95.81,3.96,2.07,6.24.86.19.47.25,1.19.6,1.38,1.32.71,2.73,1.24,4.11,1.84,2.67,1.15,5.16,2.48,6.64,5.2.44.81,1.36,1.35,1.94,2.1,1.6,2.04,3.46,3.96,4.62,6.23,1.54,3.01,2.65,6.27,3.71,9.5,1.22,3.75,2.05,7.63,3.28,11.39,2.19,6.71,2.65,13.69,3.07,20.63.36,6,.54,12.01,1.17,18,.41,3.94.66,7.91,1.35,11.8.85,4.83,1.98,9.62,3.18,14.39.53,2.1,1.49,4.1,2.32,6.12.62,1.52,1.37,2.99,1.99,4.51,3.2,7.86,7.02,15.4,11.56,22.58,1.31,2.08,2.48,4.25,3.82,6.31,1.19,1.83,2.4,3.68,3.84,5.31,1.02,1.16,1.98,2.56,3.93,3.24.07-.9.26-1.55.12-2.12-.12-.48-.63-.87-.96-1.3-3.21-4.23-7.04-7.99-9.54-12.75-.7-1.33-1.53-2.58-2.3-3.87-3.23-5.41-6.01-11.04-8.21-16.95-1.67-4.48-3.21-9-4.79-13.51-.58-1.66-1.43-3.27-.93-5.14.08-.31-.1-.85-.35-1.06-.95-.82-.95-1.91-1.08-3-.79-6.26-.8-12.53-.12-18.79.74-6.81,1.05-13.63.23-20.45-.56-4.61-1.69-9.12-3.23-13.52-.54-1.54-1.05-3.09-1.57-4.63-.52-1.55-.96-3.14-1.57-4.65-.88-2.15-1.99-4.2-2.82-6.36-2.16-5.61-5.91-10.13-10.01-14.34-2.95-3.03-6.45-5.47-10.64-6.7-1.16-.34-2.27-.88-3.44-1.29Zm62.08,141.83c.05,1.43.56,2.46,2.33,2.67-.44-1.36-1.16-2.22-2.42-2.59-.08-2.11-1.83-3.28-2.79-4.88-3.01-5.05-6.21-9.99-9.25-15.02-1.69-2.8-3.5-5.57-4.74-8.57-1.88-4.53-3.42-9.2-4.32-14.07-1.22-6.6-2.28-13.2-1.77-19.94.45-5.99.98-11.98,1.31-17.98.08-1.47.71-2.57,1.39-3.79-.94-2.16-1.65-4.33.47-6.29-.4-.64-.87-1.15-1.08-1.76-.26-.76-.34-1.6-.44-2.41-.21-1.62-.31-3.26-.57-4.88-.8-5.13-2.03-10.16-3.72-15.08-.79-2.31-1.28-4.78-2.44-6.88-2.65-4.79-6.11-9.04-9.95-12.95-4.36-4.44-9.56-7.68-15.27-10.1-2.63-1.12-5.43-1.93-7.93-3.29-2.65-1.44-5.81-1.64-8.22-3.6-.47-.38-1.29-.36-1.95-.48-.53-.1-1.06-.97-1.7.02,1.13,1.97,2.87,3.28,4.82,4.29,2.92,1.51,5.95,2.72,9.16,3.51,4.6,1.13,8.75,3.27,12.18,6.48,3.49,3.27,6.72,6.84,9.05,11.09,1.37,2.51,2.75,5.02,4.02,7.58.96,1.95,1.8,3.97,2.6,6.01.89,2.29,1.61,4.65,2.51,6.93,1.34,3.43,2.58,6.92,3.03,10.55.69,5.56.95,11.16.38,16.77-.22,2.18-.18,4.39-.55,6.53-.39,2.27-.35,4.58-.92,6.87-.5,2.01.2,4.31.3,6.48.15,3.4.29,6.82,1.14,10.12.89,3.44,1.81,6.89,3.1,10.19,2.18,5.6,4.03,11.35,6.94,16.63,1.85,3.35,3.95,6.56,5.69,9.97,1.95,3.83,4.59,7.11,7.35,10.33.59.69,1.09,1.63,2.26,1.54Zm331.78,29.42c-1.13-1.39-2.27-2.78-3.37-4.13.11,3.84.24,4,3.49,4.04.48.93,1.03,1.83,1.41,2.8.28.72-.78,1.82-1.43,1.5-1.79-.9-3.94-1.28-4.96-3.36-.96-1.95-1.95-3.93-4.44-4.37-3.28-2.69-6.59-5.34-9.82-8.09-2.28-1.94-4.59-3.88-6.64-6.05-1.84-1.95-4.4-3.28-5.43-5.98-.09-.23-.25-.55-.44-.61-3.02-.87-4.83-3.5-7.37-5.06-.4-.24-.87-.35-1.63-.65.4,3.68.98,6.78,4.27,8.66,1.16.67,2.04,1.82,3.1,2.68,6.26,5.07,12.75,9.89,18.37,15.7,2.36,2.45,4.82,4.84,6.52,7.87.64,1.15,1.42,2.31,2.89,3.07.14-.88.16-1.54.36-2.13.1-.3.54-.64.84-.66.33-.02.87.25.98.52.38,1.01.67,2.07.91,3.13.3,1.31.52,2.64.81,4.1,2.69.93,5.2,2.16,7.85,2.64,3.49.63,7.08.92,9.85-2.35,1.01-1.19,2.4-2.18,4.1-2.59,2.92-.72,5.77-1.71,8.69-2.44,8.62-2.14,17.27-4.18,25.9-6.31,2.61-.65,5.18-1.47,7.89-2.25-.14-.67-.24-1.17-.36-1.77-1.81.06-3.3.67-4.84,1.21-3.35,1.17-6.7,2.5-10.16,3.21-5.88,1.2-11.77,2.49-17.81,2.78-3.87.19-7.54,1.15-10.93,3.15-.78.46-1.8.79-2.69.76-3.4-.1-6.8-.34-10.2-.6-.28-.02-.52-.55-.89-.96,1.6-1.29,3.33-1.3,5.07-.91,3.14.71,5.93.02,8.62-1.68,2.45-1.55,5.18-2.65,8.06-2.86,6.84-.5,13.47-2.23,20.24-3.14,3.73-.5,7.19-2.48,11.09-2,1.2-1.74,3.65-1.05,5.12-2.66v-3.65c-1.64-.14-3.06-.22-4.55.22-1.83.54-3.73.87-5.6,1.25-9.5,1.91-19.07,3.54-28.28,6.67-1.72.59-3.47.89-5.25.55-1.69-.32-3.22-.19-4.71.73-.56.35-1.29.58-1.95.59-4.22.08-8.48.75-12.66-.56Zm123.34-149.79c.02.45.04.91.06,1.36.07,0,.14-.02.21-.03-.1-.42-.19-.85-.29-1.27-.07-1.81-.67-3.34-1.66-4.94-1.83-2.97-4.55-5.07-6.76-7.64-1.58-1.84-3.56-3.4-3.82-6.05,1.59-.82,1.89-.87,2.33.16,1.28,2.98,3.54,4.72,6.87,5.64.23-.52.63-1.06.66-1.62.02-.49-.31-1.05-.62-1.48-2.2-3.07-1.61-6.17-.15-9.29.51-1.09,1.34-1.88,2.51-1.82,1.11.06,1.33,1.14,1.6,2.1.48,1.66.79,1.79,2.62,1.41,1.58-.33,3.16-.61,4.94-.69.33,1.65.6,3.1.94,4.54.09.37.39.69.59,1.03.97.17,1.89.33,2.69.47,2.27-2.97,2.46-3.14,1.9-4.44-.95-2.22-1.97-4.43-3.62-6.44-1.28.57-2.59,1.56-3.6-.11-.33-1.35,2.12-1.57,1.36-2.86-4.33-.98-8.47-1.83-12.56-2.85-4.23-1.06-8.61-1.55-12.71-3.18-.49-.19-1.09-.11-1.63-.19-2.97-.46-5.94-.93-8.91-1.4-.78-.12-1.56-.28-2.58-.46-.59,1.39-1.2,2.6-1.61,3.87-.97,2.99-1.82,6.01-2.75,9.02-.52,1.7-1.12,3.38-1.63,5.09-.34,1.14-.25,2.17,1,2.77,1.44.7,2.15,2.06,2.89,3.36.41.71.59,1.61,1.15,2.15,1.27,1.24,2.8,2.21,4.04,3.48,1.31,1.34,2.4,2.88,4.04,4.89.13-3.43,1.78-5.93,1.01-8.85-.22-.82.84-1.58,1.6-1.29,1.21.46,3.11,2.61,3.05,3.58-.09,1.4-1.46,1.45-2.31,2.05-.2.15-.3.44-.64.97.46,2.53.91,5.34,1.51,8.12.35,1.63,1.22,2.63,3.32,4.39,0-1.11-.06-2.18.02-3.24.05-.66.08-1.56.49-1.9,1.02-.82,1.5-1.9,2.08-2.98.14-.26.73-.44,1.07-.39.35.05.74.37.95.69.21.32.25.77.29,1.17.21,2.11-.39,4.03-1.3,5.92-.3.62-.13,1.46-.17,2.28q2.66-.56,5.49.12c.03-.56.1-1.08.06-1.6-.1-1.64-.29-3.27-.36-4.9-.06-1.26,1.11-1.96,2.26-1.37.6.31,1.15.74,1.72,1.1.79.5,1.58.99,2.36,1.51Zm-321.62,331.51c.94.13,1.88.33,2.82.38,2.72.14,5.47.05,8.17.35,5.17.57,10.31,1.36,15.46,2.04,3.8.5,7.63.81,11.4,1.48,5.64,1,11.23,2.26,16.78,3.74,4.89,1.3,9.78,2.55,14.5,4.4,1.52.6,3.14.95,4.71,1.41.64.19,1.31.49,1.95-.42-.27-1.71-.57-3.57-.85-5.29-8.15-4.64-16.79-7.13-25.74-8.66-2.96-.51-5.97-.79-8.95-1.2-2.98-.41-5.96-.89-8.94-1.25-2.94-.36-5.82-1.06-8.77-1.43-4.17-.53-8.25-1.86-12.36-2.87-1.73-.42-3.43-1.25-5.16-1.29-4.03-.1-7.77-1.51-11.63-2.3-5.77-1.18-11.62-1.68-17.4-2.68-3.5-.61-7.02-1.09-10.52-1.74-4.44-.82-8.84-1.85-13.29-2.59-3.37-.57-6.81-.73-10.19-1.26-3.36-.53-6.76-.3-10.11-.87-6.06-1.03-12.17-1.83-18.23-2.87-1.73-.3-3.46-.93-5.02-1.74-2.73-1.42-5.61-1.98-8.63-2.35-6.11-.75-12.22-1.54-18.27-2.63-5.54-1-10.87-2.78-15.51-6.15-1.21-.87-2.3-1.91-3.38-2.95-.98-.95-1.95-1.94-2.76-3.03-.86-1.15-1.55-2.44-2.62-4.17-.2,1.05-.4,1.54-.36,2.01.16,2.05.53,4.08.58,6.13.07,2.96,1.59,4.8,4.09,6.09,6.07,3.15,12.06,6.45,18.59,8.65,5.74,1.94,11.64,2.99,17.6,3.83,1.76.25,3.54.3,5.32.43,1.63.12,3.28.16,4.9.35,1.76.2,3.61.26,5.23.89,1.63.63,3.25.94,4.94,1.24,2.01.36,3.94,1.11,5.94,1.55,1.47.32,2.99.36,4.48.59,7.29,1.16,14.34,3.53,21.74,4.18,3.66.32,7.27,1.27,10.89,1.95,2.41.45,4.82.92,7.22,1.44.26.06.44.48.69.77-.4.2-.65.44-.86.41-3.91-.57-7.82-1.11-11.71-1.78-6.46-1.12-13-1.65-19.42-3.14-9.2-2.15-18.7-2.32-28.05-3.45-5.15-.62-10.35-.74-15.36-2.34-4.56-1.46-9.17-2.73-13.79-3.96-2.92-.78-5.69-1.88-8.39-3.24-3.17-1.6-6.45-3.02-9.69-4.49-1.25-.56-2.52-1.12-3.93-.32-.6.99-.74,2.06-.19,3.09.69,1.28.97,2.82,2.6,3.48,1.12.46,2.17,1.15,3.17,1.87,5.33,3.85,11.47,5.66,17.74,7.19,4.7,1.14,9.52,1,14.27,1.5,2.85.3,5.74.25,8.61.33,3.02.09,5.91.61,8.84,1.54,6.22,1.99,12.44,4.2,19.09,4.45.81.03,1.61.32,2.41.49,4.28.91,8.54,1.91,12.84,2.69,2.69.49,5.43.82,8.15.89,2.91.08,5.7.68,8.5,1.32,1.33.3,2.64.76,3.98.97,5.94.92,11.74,2.64,17.79,2.93,1.6.08,3.21,1.01,4.77.89,2.95-.23,5.7.5,8.52.97,4.58.76,9.16,1.49,13.76,2.17,5.68.84,11.42,1.35,17.03,2.5,7.09,1.46,14.33,2.15,21.32,4.21,3.79,1.12,7.78,1.53,11.63,2.46,2.11.51,4.15,1.35,6.17,2.17,2.26.92,4.45,1.99,6.81,3.05.69-2.07.4-3.72-.49-5.5-1-.3-2.03-.64-3.07-.92-.92-.24-1.95-.23-2.79-.63-4.23-1.98-8.71-3.14-13.15-4.5-6.56-2-13.26-3.25-19.94-4.55-6.71-1.31-13.49-2.2-20.26-3.18-3.92-.57-7.73-1.8-11.74-1.86-1.69-.02-3.21-.64-4.39-1.94l-.09.06ZM99.72,270.75c3.36-5.66,8.14-8.88,13.84-10.89.64-.23,1.22-.65,1.87-.84,1.7-.5,3.39-1.15,5.13-1.33,3.26-.34,6.57-.66,9.84-.48,3.53.19,7.16.51,10.51,1.56,7.74,2.43,15.04,5.89,21.03,11.58,2.57,2.45,5.07,4.97,7.5,7.56,1.21,1.29,2.17,2.8,3.25,4.21.58.75,1.27,1.44,1.72,2.27,2.05,3.7,4.17,7.37,6,11.18,3.78,7.89,7.14,15.97,10.8,23.92,2.91,6.31,5.01,12.99,7.6,19.45,1.68,4.18,3.6,8.26,5.42,12.38.66,1.5,1.42,2.96,2.03,4.48,1.13,2.79,2.12,5.63,3.27,8.41,1.89,4.53,3.83,9.05,5.82,13.54,2.88,6.5,5.81,12.99,8.75,19.46,1.01,2.23,2.2,4.37,3.2,6.61,2.85,6.36,5.64,12.74,8.44,19.13.33.75.63,1.54.75,2.34.38,2.53,1.84,4.49,3.19,6.71,2.77,0,5.49-.08,8.21.02,4.79.16,9.6.19,14.35.71,7.52.82,15.01.74,22.31.3,2.89-2.84,5.19-6.89,6.96-10.39,1.29-2.54,1.87-5.1,1.55-7.91-.2-1.76-.8-3.7-.28-5.25.68-2.05-.1-3.77-.31-5.57-.76-6.51-1.75-13-2.77-19.48-.93-5.91-2.93-11.64-2.84-17.72,0-.38-.23-.77-.35-1.16-.5-1.57-.46-3.2-.63-4.8-.18-1.64-1.57-3.1-2.06-4.75-1.48-4.98-2.93-9.97-4.12-15.03-1.09-4.67-2.18-9.32-3.7-13.88-.6-1.81-.93-3.71-1.53-5.51-1.3-3.88-2.82-7.69-4.05-11.59-1.89-5.99-3.66-12.02-5.4-18.06-2.01-6.96-4.01-13.93-5.86-20.93-1.15-4.36-2.18-8.74-4.03-12.89-2.45-5.49-4.79-11.03-7.19-16.55-1.16-2.66-2.82-4.95-5.02-6.87-.92-.8-2.11-1.65-2.43-2.71-.75-2.47-2.41-4.3-3.83-6.27-1.98-2.77-3.66-5.75-6.24-8.1-3.26-2.97-6.85-5.41-10.5-7.84-2.44-1.63-4.95-2.86-7.85-3.34-2.02-.33-4.03-.8-6.05-1.13-1.61-.26-3.24-.48-4.87-.58-2.73-.17-5.48-.35-8.21-.29-3.27.07-6.57.15-9.79.65-5.11.79-10.06,2.34-15.26,2.92-6.26.71-12.17,3-18.02,5.37-4.31,1.75-8.66,3.51-13.15,4.65-5.63,1.43-10.82,3.81-16.01,6.25-3.54,1.66-6.57,4.11-8.81,7.24-5.13,7.16-8.74,15.15-11.77,23.37-1.37,3.71-2.11,7.63-1.83,11.67.1,1.39.12,2.73,1.4,4.22Zm103.98,193.76c-.05.62-.17,1.03-.11,1.4.67,3.77,1.34,7.54,2.07,11.3,1.18,6.03,2.55,12.03,3.58,18.08,1.49,8.77,2.78,17.57,4.11,26.37.65,4.32,1.19,8.65,1.82,12.98.75,5.14,1.36,10.32,2.37,15.41.93,4.72,1.53,9.45,1.69,14.25.13,3.83.07,7.68.51,11.48.69,5.98,1.19,11.96,1.32,17.98.06,2.99.28,5.98.49,8.97.06.81.3,1.61.48,2.41.91,4.11,3.49,6.34,7.64,6.88,2.7.35,5.38.85,8.09,1.2,4.21.55,8.41,1.13,12.64,1.53,3.95.38,7.92.45,11.87.83,3.67.35,7.41.54,10.95,1.48,6.63,1.76,13.33,2.87,20.12,3.67,3.12.37,6.31.48,9.35,1.2,5.17,1.24,10.57,1.33,15.6,3.27.87.34,1.88.3,2.83.46.94.16,1.89.29,2.82.52,2.78.71,5.54,1.51,8.33,2.18,3.18.76,6.38,1.5,9.6,2.08,5.25.96,10.52,1.78,15.78,2.66,1.08.18,2.14.43,3.23.55,2.72.28,5.43.6,8.07,1.35,1.43.41,2.87.7,4.46.11-.2-.67-.29-1.2-.51-1.69-2.55-5.9-5.14-11.77-7.67-17.68-1.29-3.02-2.5-6.07-3.7-9.12-1.05-2.66-2.09-5.33-3.05-8.03-1.41-3.99-2.57-8.08-4.16-12-2.85-7.04-4.72-14.27-5.39-21.83-.33-3.68-.73-7.36-1.06-11.04-.4-4.49-.8-8.98-.26-13.49.33-2.71.61-5.42.91-8.13.59-5.29,1.14-10.59,1.76-15.88.43-3.67.71-7.38,1.5-10.97,1.2-5.47,2.77-10.87,5.01-16.03.36-.84.48-1.79.79-3.01-5.99-1.98-11.38-5.03-17.47-6.25-1.62-.33-3.22-.53-4.89-.2-.93.19-1.91.12-2.87.11-4.09-.06-8.19-.15-12.28-.21-1.37-.02-2.75-.07-4.11.04-4.37.36-8.74.7-13.09,1.22-4.33.52-8.65,1.21-12.96,1.9-5.67.9-11.35,1.63-17.11,1.4-3.7-.15-7.43-.01-11.08-.51-6.5-.89-12.97-2.07-19.41-3.32-5.65-1.09-11.19-2.62-16.29-5.42-.6-.33-1.25-.56-1.89-.81-6.5-2.54-12.79-5.51-18.84-8.98-.44-.26-.95-.4-1.56-.65Zm360.27-257.76c-2.29-1.51-2.4-3.45-2.47-5.38-.08-2.18.09-4.39-.11-6.56-.4-4.21-.8-8.43-1.54-12.58-.72-4.04-1.79-8.03-3.77-11.68-1.86-3.42-4.23-6.4-7.94-7.96-1.5-.63-3.15-.88-4.69-1.42-2.85-1-5.75-1.64-8.76-2.06-3.66-.52-7.31-.82-10.99-1.12-4.77-.38-9.55-.47-14.32-1.02-7.38-.85-14.74.58-22.11,1.01-4.08.23-8.15.9-12.2,1.53-4.04.63-8.14,1.15-12.06,2.28-4.7,1.35-9.18,3.34-13.56,5.6-2.62,1.35-5.02,2.68-6.49,5.34-.3.54-.89,1.12-1.46,1.28-1.38.4-1.05,1.35-.97,2.52.99.13,2.03.39,3.06.37,3.4-.07,6.07,1.21,8.13,3.93,1.75,2.32,3.13,4.81,4.14,7.52,1.44,3.84,2.73,7.73,4.28,11.52,1.4,3.41,3.1,6.71,4.63,10.07,3.41,7.51,4.52,15.73,7.25,23.45,1.23,3.47,2.05,7.08,3.05,10.63,1.29,4.61,2.58,9.23,3.83,13.85,1.53,5.67,2.99,11.36,4.5,17.04,1.87,7,4.34,13.84,5.31,21.07.23,1.73.85,3.4,1.29,5.13.94.21,1.73.38,2.52.57,3.26.81,6.94.34,9.55,3.16.14.15.54.02.8.09,2.81.79,5.3,2.19,7.59,3.96,1.84,1.42,3.58,3.02,5.56,4.21,3.63,2.16,6.37,5.13,8.72,8.55.53.77,1.17,1.47,1.85,2.31,1.15-.2,2.21-.37,3.27-.56,5.11-.91,10.18-2.1,15.32-2.68,5.84-.65,11.74-.75,17.61-1.08,4.58-.25,5.09-.68,5.9-5.05.05-.27.11-.54.13-.81.55-7.25.45-14.5-.24-21.72-.66-6.92-1.62-13.81-2.42-20.72-.12-1.08-.02-2.19-.08-3.28-.23-4.65-.34-9.3-.74-13.93-.53-5.99-1.19-11.96-1.28-17.98-.09-6.29.09-12.6-.8-18.85-.29-2.03-.57-4.07-.84-6.11-.2-1.52-.14-3.01,1.52-4.46Zm-242.22,204.75c1.34,0,2.55.05,3.75-.02.95-.05,1.9-.38,2.84-.36,2.18.04,4.45.62,6.53.22,2.34-.46,4.62-.35,6.93-.35,9.84,0,19.69.02,29.53.05.96,0,1.91.13,2.87.21,2.73.22,5.45.52,8.18.64,4.91.21,9.82.37,14.74-.04,7.26-.61,14.51.32,21.73.78,7.1.45,14.2.85,21.31,1.03,1.5.04,3.03.26,4.5.07,4.8-.61,9.56-.29,14.32.37,1.03.14,2.1-.05,3.28-.09,0-3.53-.03-6.78,0-10.03.06-4.37.51-8.77.18-13.12-.47-6.27-.15-12.58-1.14-18.84-.58-3.72-1.87-7.13-3.4-10.49-.23-.5-.92-.79-1.92-1.59.5,2.53.91,4.37,1.22,6.23.33,2.02.67,4.05.8,6.09.23,3.52.16,3.53-.87,5.65-.5-.76-1.09-1.34-1.3-2.02-1-3.27-1.98-6.55-2.8-9.87-.83-3.35-2.04-6.51-3.77-9.51-2.34-4.07-1.65-9.53,1.5-12.93,1.36-1.46,2.61-3.02,4.02-4.66-.94-.78-1.59-1.49-2.4-1.96-2.24-1.31-4.61-2.41-6.81-3.79-2.98-1.88-6.23-2.69-9.68-2.9-3.82-.23-7.65-.66-11.47-.69-5.33-.04-10.65-.26-15.99.64-5.25.88-10.6,1.56-15.91,1.62-8.81.1-17.43,1.74-26.17,2.37-4.63.33-9.33.68-13.94.32-9.28-.71-18.47-2.26-27.66-3.72-3.22-.51-6.47-.74-9.98-.23.34,1.23.53,2.3.91,3.29,3.02,7.96,5.08,16.16,6.31,24.57.36,2.43.68,4.89.7,7.34.04,5.18-.35,10.36-.13,15.53.2,4.78-.72,9.51-.35,14.28.08,1.07-.11,2.2-.35,3.26-.79,3.51-.29,7.08-.53,10.61-.04.64.26,1.3.42,2.05Zm-216.6-125.53c0,.94-.09,1.36.01,1.72.95,3.56,1.89,7.13,2.91,10.66,1.29,4.46,2.46,8.97,4.05,13.33,2.38,6.54,5.28,12.89,7.58,19.46,2.62,7.46,5.72,14.77,7.26,22.59.55,2.81,1.4,5.57,2.15,8.34.9,3.3,1.85,6.58,2.75,9.88,1.99,7.25,3.94,14.51,5.95,21.75,2.71,9.73,5.46,19.45,8.19,29.17,1.84,6.57,3.03,13.33,5.74,19.65.27.62.34,1.32.51,1.98.48,1.85.95,3.71,1.45,5.56,1.6,5.94,3.21,11.87,4.01,18,.4,3.11.67,6.32,1.7,9.24,1.25,3.54,1.47,7.21,2.23,10.81.67,3.2,1.01,6.47,1.61,9.69.8,4.29,1.86,8.53,2.56,12.84.77,4.72,1.26,9.48,1.88,14.22.58,4.47,1.19,8.94,1.74,13.41.54,4.34.94,8.7,1.54,13.04,1.05,7.58,2.17,15.15,3.32,22.72.53,3.51,1.06,7.04,1.88,10.49.65,2.77,1.37,5.63,2.71,8.1,2.5,4.58,6.49,7.68,11.35,9.64,6.01,2.42,12.35,3.42,18.73,4.18,1.32.16,2.12-.32,2.49-1.6.22-.77.37-1.62.3-2.41-.38-4.36-.82-8.71-1.26-13.06-.35-3.4-.54-6.83-1.13-10.19-.61-3.45-.87-6.95-1.32-10.41-.4-3.1-.96-6.19-1.28-9.3-.79-7.48-1.5-14.97-2.21-22.46-.15-1.63-.05-3.3-.28-4.92-1.23-8.94-2.53-17.86-3.81-26.79-.47-3.25-.96-6.49-1.44-9.74-.48-3.25-.8-6.53-1.49-9.74-.67-3.16-.48-6.49-1.93-9.5-.28-.59-.18-1.35-.35-2.01-1.04-3.95-1.47-8.08-3.52-11.73-.8-1.43-1.64-2.85-2.3-4.34-.68-1.57-1.62-2.79-3.13-3.65-2.77-1.57-4.44-3.98-5.1-7.1-.37-1.72-.78-3.44-1.13-4.98-3.99-3.02-5.63-4.76-8.3-8.73-.84-1.25-1.67-2.5-2.48-3.77-1.85-2.87-3.45-5.94-5.61-8.55-2.24-2.7-2.95-6.08-4.79-8.97-2.18-3.4-3.49-7.37-5.13-11.11-.71-1.63-1.35-3.29-1.96-4.96-.84-2.3-1.63-4.63-2.41-6.95-.22-.64-.2-1.38-.49-1.98-1.62-3.39-1.95-7.09-2.55-10.7-.69-4.18-.88-8.43-1.44-12.63-.68-5.14-1.18-10.29-1.27-15.47-.08-5.21-.68-10.34-1.49-15.49-1.37-8.71-3.92-17.04-7.06-25.23-1.62-4.22-4.83-7.24-7.7-10.52-.34-.39-.9-.61-1.38-.86-3.14-1.63-6.29-3.25-9.44-4.86-3.64-1.85-7.29-3.69-11.39-5.76Zm94.86,146.75c-1.09.06-2.2.25-3.28.15-3.04-.29-5.6,1.06-8.2,2.25-1.03.47-1.71,1.35-2.06,2.45-.74,2.37-1.24,4.77-.94,7.27.32,2.61,1.45,4.64,3.92,5.83,3.08,1.48,5.7,3.73,8.9,5.07,2.88,1.21,5.6,2.86,8.26,4.52,8.27,5.16,17.28,8.79,26.31,12.27,5.2,2,10.79,3.01,16.25,4.28,2.51.58,5.17.56,7.7,1.07,3.49.71,6.96,1.29,10.54,1.33,5.47.06,10.93.37,16.37-.6,4.57-.82,9.16-1.54,13.78-2.01,8.56-.87,17.1-1.93,25.73-1.93,7.13,0,14.23.27,21.14,2.15,2.75.75,5.37,1.96,8.07,2.92,3.22,1.14,6.46,2.25,9.69,3.36,2.36.81,4.61.51,6.67-.86,1.13-.75,2.26-1.54,3.22-2.49,3.04-3.01,5.64-6.3,6.19-10.77.06-.53.43-1.01.55-1.54.61-2.78,1.52-5.55,1.68-8.36.17-2.98-.33-6-.62-8.99-.31-3.24-2.26-5.22-5.25-6.15-1.42-.45-2.93-.67-4.42-.86-3.79-.48-7.6-.73-11.44-.82-5.33-.12-10.53-1.55-15.88-1.82-4.75-.24-9.49-.93-14.23-1.42-.27-.03-.55.02-.82,0-3.82-.14-7.63-.28-11.45-.44-5.6-.24-11.2-.73-16.8-.7-8.06.04-16.13.48-24.19.69-1.89.05-3.78-.15-5.67-.24-3.96-.19-7.94-.19-11.86-.66-3.14-.38-6.25-.54-9.39-.45-3.01.08-6.05.32-9.01-.03-5.97-.71-11.96-1.49-17.83-2.78-7.17-1.58-14.42-1.12-21.63-1.67Zm222.36,80.07c.6.06,1.06.25,1.39.11,3.08-1.2,6.07-2.56,7.92-5.52,2.39-3.81,5.45-7.16,7.22-11.4.99-2.37,2.43-4.66,4.11-6.6,3.54-4.08,5.9-8.87,8.67-13.42,1.14-1.86,2.16-3.81,3.07-5.79,1.43-3.11,2.75-6.26,4.05-9.42,1.31-3.18,2.19-6.47,2.57-9.91.3-2.71.62-5.44,1.31-8.06,1.44-5.46,1.55-11.08,2.32-16.62.18-1.31-.2-2.72-.44-4.06-.24-1.32-1.05-2.25-2.42-2.47-1.47-.23-2.95-.36-4.43-.51-4.61-.45-9.21-1.38-13.86-.31-.4.09-.82.1-1.23.09-4.1-.07-8.21-.04-12.31-.25-6.29-.32-12.59-.63-18.85-1.3-3.98-.43-7.92-.49-11.89-.4-6.96.15-13.93.46-20.89-.19-2.31-.22-4.62-.67-6.93-.73-7.52-.19-15.05-.49-22.57-.3-9.16.22-18.36.03-27.48,1.18-1.76.22-3.57.17-5.28.57-3.86.91-7.65,2.08-11.5,3.05-3.27.83-6.02,2.62-8.51,4.74-2.25,1.91-4.19,4.16-5.67,7.25,2.58.11,4.76.39,6.91.25,2.06-.14,4.07.09,6.1.14,5.33.13,10.63.21,15.94.85,4.72.57,9.58-.51,14.25,1.02.36.12.81-.05,1.22-.02,4.36.33,8.72.62,13.08,1.03,4.76.45,9.5,1.14,14.26,1.51,4.35.33,8.69.5,12.98,1.51,2.13.5,3.91,1.38,5.32,2.86,1.68,1.78,3.21,3.73,3.69,6.29.3,1.6.76,3.17,1.2,4.95,1.84.82,3.74,1.57,5.56,2.49,3.05,1.53,6.25,2.87,9.01,4.82,4.12,2.93,7.7,6.53,11.28,10.12,3.18,3.18,5.34,6.89,6.65,11.14.57,1.84,1.11,3.62,2.4,5.17.65.78,1,1.95,1.14,2.99.48,3.51.96,7.02.83,10.59-.15,4.08-.13,8.16-.18,12.57ZM108.29,268.16c.8,2.2,2.5,3.83,4.58,4.79,4.72,2.19,9.44,4.49,14.39,5.99,4.23,1.29,8.32,2.65,12.06,5,5.37,3.37,10.27,7.28,13.86,12.59,1.28,1.89,3.02,3.5,3.71,5.77,2.47,2.22,3.4,5.22,4.22,8.28.74,2.77,1.47,5.54,2.22,8.3,2.37,8.62,3.11,17.48,2.46,26.41-.43,5.99-1.08,11.97-1.51,17.97-.49,6.86-.14,13.68,1.44,20.39.91,3.85,1.86,7.71,3.04,11.48.72,2.33,1.74,4.61,2.91,6.75,3.85,7.08,8.37,13.76,12.7,20.55,1.44,2.26,2.85,4.65,5.08,6.38,4.78-1.33,9.54-1.61,14.34-1.34,3,.17,6,.71,8.99.65,6.23-.12,12.15,1.59,18.2,2.56.46.07.96-.13,1.45-.21-.47-3.23-1.39-6.08-2.67-8.82-.81-1.73-1.7-3.42-2.46-5.17-.6-1.38-.93-2.87-1.58-4.22-3.42-7.15-6.93-14.25-10.36-21.39-.95-1.97-1.78-4-2.62-6.02-.52-1.25-.93-2.55-1.45-3.8-1.63-3.91-3.29-7.8-4.93-11.7-2.01-4.78-3.88-9.62-6.06-14.32-2.76-5.96-5.62-11.87-7.85-18.06-2.6-7.21-5.15-14.43-8.72-21.24-.76-1.45-1.38-2.98-1.99-4.5-3.39-8.52-7.41-16.73-11.93-24.7-.34-.59-.76-1.14-1.21-1.65-2.97-3.4-5.9-6.79-9.16-9.96-5.78-5.62-12.69-8.91-20.16-11.42-6.02-2.02-12.19-1.97-18.28-.89-4.27.76-8.37,2.5-12.19,4.68-.21.12-.3.43-.56.83Zm188.53-3.28c-.55-1.91-1.09-3.31-1.34-4.76-.67-4.04-1.2-8.11-1.83-12.16-.21-1.34-.59-2.66-.83-3.99-.63-3.58-2.65-6.6-4.29-9.71-1.37-2.6-3.3-5.06-5.91-6.72-3.11-1.98-6.16-4.09-9.81-5.07-2.77-.75-5.53-1.57-8.24-2.5-4.04-1.38-8.17-.92-12.2-.35-2.43.34-4.85.77-7.31.9-.82.04-1.65.1-2.44.29-.72.17-1.68-.08-2.17,1.21,1.71,2.73,3.4,5.68,5.34,8.47,3.22,4.63,5.75,9.61,8.03,14.74.38.86.83,1.7,1.26,2.53,2.71,5.22,5.43,10.45,7.23,16.06,1.67,5.2,3.14,10.47,4.43,15.77,1.49,6.12,3.21,12.15,5.2,18.12,1.09,3.24,1.98,6.54,2.94,9.82,1.19,4.06,2.13,8.2,3.58,12.16,1.74,4.77,2.69,9.74,4.05,14.59,1.51,5.38,3.05,10.76,4.51,16.15,1.49,5.53,3.58,10.89,4.42,16.62.63,4.31,1.9,8.52,2.62,12.82.79,4.71,1.27,9.48,1.89,14.22.07.53.07,1.09.24,1.6,1.13,3.43,1.29,6.97,1.33,10.53.03,2.87.12,5.75.28,8.62.04.77.41,1.53.67,2.44,5.9-1.8,11.62-3.55,17.52-5.35.12-.51.36-1.16.4-1.82.38-5.31.82-10.63,1.05-15.95.21-4.74.32-9.49.18-14.25-.23-7.91.1-15.8-1.16-23.7-1.16-7.21-3.22-14.11-5.73-20.9-2.22-6.02-4.96-11.85-7.92-17.56-2.53-4.88-4.41-10.03-5.85-15.3-.75-2.73-1.53-5.48-1.75-8.41-.67-9.06.5-18.02.93-27.02.04-.78.47-1.55.67-2.16Zm299.85,61.33c-2.02,0-3.7.24-5.29-.05-3.89-.7-7.77-1.32-11.71-1.78-4.19-.49-8.25-1.25-12.56-.68-5.27.7-10.64.7-15.97,1.02-.96.06-1.91.15-2.86.29-5.27.75-10.55,1.53-15.82,2.28-1.35.19-2.63.48-3.78,1.41.21.68.31,1.22.55,1.68,1.95,3.8,2.78,7.97,3.93,12.03.77,2.74.67,5.7,1.84,8.39.25.59.15,1.35.13,2.03-.09,3.14-.14,6.28-.32,9.41-.25,4.39.79,8.66,1.26,12.97.09.83.8,1.8,1.52,2.29,1.1.75,2.4,1.33,3.69,1.65,3.35.83,6.76.82,10.19.37,2.55-.34,5.15-.46,7.73-.49,3.83-.04,7.67.21,11.5.12,4.9-.11,9.79-.06,14.63-1.45,4.85-1.39,9.86-2.31,14.86-3.06,4.74-.71,9.49-1.27,14.15-2.44,1.31-.33,2.7-.32,4.05-.54.76-.12,1.49-.38,2.21-.58.13-2.7-.05-5.21.44-7.58.48-2.36,1.63-4.57,2.47-6.81-1.86-.66-3.66-1.22-5.39-1.93-1.05-.43-1.77-1.26-1.9-2.48-.34-3.41.69-6.51,2.3-9.41,1-1.81,3.08-2.19,4.89-.95.98.67,1.86.95,3.03.81.62-.08,1.35.19,1.95.48,2.22,1.06,2.76,2.4,1.89,4.67-.32.84-.81,1.63-1.25,2.5q3.78.61,5.53-.27c-3.5-3.37-2.42-2.75-.65-5.03-1.5-1.83-3.03-3.7-4.64-5.65-.68.62-1.15,1.05-1.78,1.62-1.2-.17-2.53-.36-3.66-.52-1.69-2.25-1.65-4.5-.9-6.72-2.32-1.6-4.47-2.59-7.22-1.16.07,2.25-1.21,3.72-3.2,4.71-1,.49-1.87.35-2.59-.45-1.19-1.31-2.33-2.66-3.66-4.2-3.07.77-4.94-1.15-6.69-3.39-.83-1.07-1.85-1.99-2.9-3.1Zm-13.61-41.78c2.17.89,4.46.74,6.75.55,1.49-.12,2.98-.57,4.45-.51,1.55.06,3.08.54,4.95.9.88-6.02,3.02-11.64,4.99-17.3.04-.13.07-.26.11-.39.42-1.29.24-2.44-.79-3.38-1.78-1.62-2.62-3.79-3.56-5.92-.87-2-2-3.9-2.72-5.94-.85-2.44-1.83-4.97-1.95-7.5-.33-6.97.28-13.93,1.21-20.84.78-5.82,1.82-11.6,2.81-17.38.46-2.72.62-5.41.16-8.15-.36-2.16-.5-4.37-1.02-6.48-.45-1.83-.99-3.78-2.02-5.31-1.91-2.83-4.32-5.29-7.05-7.41-2.76-2.14-5.83-3.51-9.31-4-1.61-.23-3.21-.61-4.76-1.09-4.14-1.29-8.33-.91-12.81-.81.23,1.2.36,2.12.59,3.01.48,1.85,1.21,3.65,1.5,5.52.89,5.67,1.77,11.33,1.66,17.11-.06,2.86.22,5.73.48,8.58.4,4.35,1.11,8.67,1.33,13.02.28,5.73.21,11.47.3,17.21.04,2.87-.14,5.76.19,8.6.8,7.07,1.22,14.15,1.31,21.26.03,2.59.22,5.2.5,7.78.78,7.2,1.65,14.4,2.5,21.6.06.52.24,1.03.33,1.42h6.09c1.27-1.13,2.76-2.54,4.33-3.86,2.58-2.16,5.3-3.73,8.95-3.06,1.54.28,3.24-.17,4.84-.42.71-.11.93-1.58.38-2.08-.2-.18-.39-.42-.63-.5-2.82-.97-5.6-.93-8.33.38-1.78.85-3.59,1.65-5.44,2.49q-1-4.91-.33-7.1Zm-96.38,15.4c-.72-3.14-1.28-6.09-2.06-8.99-2.32-8.57-4.71-17.13-7.12-25.68-1.81-6.44-3.58-12.89-5.6-19.26-1.86-5.86-3.32-11.81-4.95-17.73-1.13-4.08-2.1-8.23-3.57-12.19-1.89-5.12-3.99-10.17-6.54-15.04-1.32-2.53-2.26-5.26-3.25-7.95-1.09-2.95-2.25-5.85-3.93-8.54-2.13-3.42-6.94-4.4-9.73-3.42-2.3.81-4.51,1.95-6.65,3.14-1.29.72-2.4,1.78-3.55,2.73-1.24,1.03-1.72,2.4-1.79,3.99-.12,3.02.1,5.98,1.02,8.9,2.46,7.83,4.45,15.78,5.91,23.85.65,3.6,2.17,7.05,2.04,10.79,1.72,3.5,1.8,7.41,2.75,11.11.78,3.04.97,6.24,1.81,9.26,1.63,5.92,3.52,11.77,5.31,17.65.67,2.21,1.38,4.41,2.05,6.54,1.35.47,2.52.84,3.66,1.27,6.74,2.55,7.78,3.29,12.43,8.88.87,1.05,1.72,2.13,2.5,3.24.97,1.38,2.16,2.45,3.67,3.2,4.56,2.29,9.35,3.85,14.41,4.55.24.03.5-.13,1.18-.32Zm-35.22,15.37c.9,4.55,1.86,8.65,2.49,12.81.4,2.62,1.1,4.86,2.87,7.01,3.28,4.01,5.41,8.57,3.83,14.38,1.06.93,2.28,1.84,3.31,2.91,4.12,4.3,7.3,9.25,9.38,14.8,3.05,8.11,3.49,16.52,2.3,25.05-.93,6.63-1.91,13.25-2.83,19.87-.09.65.05,1.34.08,1.91.73.65,1.31,1.25,1.96,1.74,4.91,3.7,9.83,7.36,14.73,11.07.76.57,1.42,1.28,2.1,1.96,2.04,2.03,4.02,4.11,6.1,6.09,3.22,3.06,6.51,6.05,10.21,9.47-.34-3.43-.54-6.27-.9-9.08-1.33-10.42-2.75-20.83-4.07-31.25-.48-3.79-.85-7.6-1.2-11.41-.4-4.34-.64-8.7-1.09-13.04-.63-5.96-1.75-11.89-2-17.86-.33-7.83-2.26-15.39-3.23-23.11-.22-1.72-1.21-2.94-3.09-3.39-1.17-.28-2.37-.77-3.36-1.44-6.12-4.18-13.04-6.83-19.52-10.32-2.43-1.31-5.1-1.88-7.57-3.01-3.47-1.59-6.85-3.36-10.49-5.16Zm-64.31,284.02c0-1.72-.04-2.81,0-3.89.11-2.73-.06-5.52.44-8.18,1.09-5.76,2.53-11.45,3.84-17.16.37-1.6.84-3.18,1.16-4.78,1.88-9.23,3.81-18.46,5.56-27.71.91-4.83,1.99-9.63,2.31-14.56.17-2.72.55-5.45,1.01-8.14.72-4.23.67-8.46.15-12.68-.18-1.46-.57-3.01-1.31-4.26-1.6-2.7-3.45-5.24-5.26-7.81-.37-.53-.95-.95-1.51-1.29-1.04-.63-2.14-1.17-3.22-1.73-1.35-.7-2.24-.59-3.22.68-1.26,1.61-2.44,3.29-3.57,5-3.37,5.13-6.95,10.15-8.79,16.13-.76,2.47-1.71,4.88-2.69,7.27-2.02,4.94-3.77,9.96-4.23,15.32-.33,3.8-.52,7.61-.74,11.42-.02.38.25.77.29,1.17.3,3.39.64,6.78.84,10.17.26,4.26,1.23,8.39,2.42,12.43,1.69,5.75,3.94,11.34,5.69,17.08,1.09,3.58,2.73,6.86,4.69,9.98,1.37,2.18,3.06,4.12,6.14,5.55Zm236.78-208.44c.46-2.58.98-5.11,1.32-7.67.1-.74-.13-1.66-.52-2.31-.97-1.61-2.12-3.1-3.22-4.68-3.11.24-6.23.43-9.34.75-2.44.25-4.93.4-7.27,1.04-3.45.94-6.94,1.47-10.47,1.89-1.07.13-2.23.36-3.12.92-1.47.93-2.98,1.28-4.66,1.27-.82,0-1.66.06-2.44.27-4.82,1.29-9.78.98-14.68,1.31-5.86.39-11.74-.03-17.62.4-4.9.36-9.87.58-14.56-1.52-.17-.08-.49.16-.91.31-.04.59-.13,1.25-.12,1.92.05,4.51.25,9.02.13,13.53-.14,5.46-.57,10.91-.85,16.37-.08,1.64-.1,3.28-.08,4.92.02,1.26.82,2.01,1.93,2.36.63.2,1.36.27,2.02.18,2.3-.32,4.59-.72,6.88-1.13,4.44-.79,8.86-1.72,13.32-2.38,5.94-.87,11.92-1.51,17.88-2.29.64-.08,1.25-.42,2.04-.7.32-3.05.67-6.04.93-9.03.31-3.66.04-7.37.94-11,.46-1.83,1.54-3.03,3.27-3.25,4.73-.61,9.41-1.74,14.25-1.15,3.53.43,7.08.7,10.63,1,3.01.25,6,.25,8.98-.5,1.57-.4,3.21-.51,5.33-.83Zm-193.6,178.49c2.34-3.38,4.45-6.71,6.17-10.26,1.84-3.81,3.6-7.68,5.15-11.62,1.55-3.94,2.81-7.99,4.17-12,.79-2.33,1.26-4.81,2.34-6.99,1.89-3.83,3.12-7.86,4.39-11.9,1.27-4.05,2.22-8.22,3.84-12.12,2.63-6.32,3.89-13.13,7.03-19.24.18-.34.09-.81.2-1.2.66-2.22,1.26-4.47,2.04-6.65,1.19-3.34,2.47-6.66,3.79-9.96,1.35-3.37,1.64-6.9,1.88-10.46.23-3.41.66-6.8.93-10.21.1-1.21.22-2.49-.05-3.65-.66-2.93-1.54-5.81-2.52-9.44-.8,3.97-1.48,7.16-2.09,10.37-.36,1.88-.62,3.78-.96,5.67-.66,3.75-.93,7.59-2.38,11.18-3.54,8.76-7.85,17.14-12.59,25.31-.34.59-.83,1.08-1.23,1.63-1.53,2.1-3.15,4.14-4.54,6.32-1.91,2.99-3.54,6.17-5.5,9.12-2.43,3.64-5.04,7.16-7.65,10.67-1.5,2.01-2.76,4.15-2.93,6.64-.18,2.71-.21,5.48.15,8.17.59,4.37.19,8.72.27,13.08,0,.27,0,.55-.04.82-.09.92-.71,1.64-1.14,1.31-.37-.29-.79-.83-.77-1.24.1-2.63-.27-5.18-.97-7.7-.69-2.5-1.3-5.02-2.03-7.51-.58-1.96-1.23-3.9-1.98-5.8-.35-.88-.98-1.66-2.4-1.31-.8,1.92-1.39,4.04-1.59,6.2-.79,8.31-1.67,16.62-2.13,24.95-.49,8.84-.56,17.71-.81,26.64,1.17.9,2.51.93,3.81.28,1.83-.91,4.06-1.74,4.67-3.76,1.05-3.49,3-6.83,2.36-10.72-.09-.57-.17-1.37.93-1.65,1.57,1.96.6,4.77,2.18,7.02Zm-49.25-92.99c1.87.91,3.4,1.52,4.78,2.37,1.9,1.17,3.89,2.02,6.09,2.32,2.06.28,3.52,1.32,4.65,3.02.83,1.25,1.72,2.48,2.73,3.58,2.62,2.86,4.36,6.26,6.1,9.66.54,1.07.78,2.31,1.01,3.51.92,4.89.91,9.85.29,14.72-.97,7.7-2.37,15.35-3.58,23.01-.28,1.75-.47,3.52-.82,5.25-.89,4.4-1.81,8.79-2.79,13.17-1.24,5.6-2.58,11.18-3.82,16.79-1.06,4.8-2.07,9.61-3.05,14.42-1.12,5.5-.79,11.11-1.29,16.67-.12,1.33.17,2.7.36,4.04.28,1.89.77,3.76.95,5.66.72,7.9,1.4,15.8,1.96,23.7.1,1.37.4,2.35,1.58,3.06.82.49,1.58,1.09,2.39,1.6,3.67,2.3,8.69.44,9.92-3.72.54-1.83.77-3.76,1.4-5.56,1.07-3.03,1.19-6.2,1.3-9.3.18-4.88-.23-9.77-.28-14.66-.03-3.55.29-7.1.15-10.64-.3-7.66-.16-15.3.21-22.95.15-3.14.54-6.27.48-9.4-.09-4.59.08-9.16.27-13.76-.37.73-.67,1.49-.81,2.27-.53,2.82-.85,5.68-1.54,8.46-1.56,6.22-1.62,12.76-4.03,18.8-.14.35.08.83-.01,1.22-1.23,5.18-1.96,10.48-3.61,15.56-2.63,8.09-4.84,16.26-4.5,24.89.01.3-.38.61-.7,1.1-.98-1.28-1.16-2.6-1.4-3.92-1.09-5.9-.73-11.65,1.24-17.38,2.62-7.64,4.18-15.56,5.68-23.49.69-3.61,1.52-7.19,2.28-10.75.38,0,.66-.03.92,0,.69.1,1.51.24,1.74-.58.34-1.21-.8-1.13-1.49-1.43-.21-.09-.31-.4-.54-.71.99-5.41,1.97-10.9,3.02-16.39.87-4.56,1.98-9.08,2.67-13.67.73-4.86,1.52-9.73,1.5-14.68,0-.82.06-1.65.2-2.46.85-5.01,1.3-10.02.03-15.04-.13-.53-.22-1.09-.17-1.63.23-2.42-.67-4.55-1.62-6.68-.5-1.11-1.01-2.23-1.44-3.37-1.12-3.01-2.95-5.51-5.15-7.82-2.56-2.68-6.17-4.02-8.54-6.91-.16-.2-.45-.31-.69-.44-2.5-1.42-5-2.83-7.49-4.25-1.32-.75-2.69-1.26-4.5-1.23-.61,1.19-1.21,2.37-2.03,3.98Zm284.99-114.44c-.47-.02-1.01-.12-1.53-.06-2.72.31-5.45.55-8.14,1.04-5.11.93-10.07.41-14.97-1.15-.72-.23-1.45-.38-2.36-.62-.37,2.15.63,4.13-.59,6.16-.64-.32-1.49-.51-1.91-1.03-.48-.59-.58-1.49-.85-2.25-.37-1.02-.67-2.07-1.14-3.04-.31-.63-.91-1.01-1.77-.59-.12.31-.35.67-.4,1.05-.63,4.48-1.65,8.87-2.94,13.2-.12.39-.23.79-.3,1.19-.3,1.56-.08,2.99,1.01,4.23.54.62,1.13,1.2,1.6,1.87,2.04,2.93,3.84,5.98,4.54,9.54.31,1.55-.93,2.64-2.49,2.27-1.16-.28-1.91-1.03-2.36-2.09-.54-1.26-.99-2.55-1.59-3.78-.19-.4-.72-.65-1.4-1.23-1.04,5.93-1.3,11.5-1.82,17.03-.05.59.3,1.36.72,1.81.73.79,1.6,1.48,2.5,2.08,4.6,3.09,9.81,3.96,15.22,4.09,3.83.09,7.7-.06,11.46.5,3.76.56,7.02-.55,10.35-1.8,2.14-.8,3.31-2.42,3.31-4.71,0-3.14.02-6.3-.25-9.42-.71-8.03-1.58-16.05-2.4-24.07-.32-3.12-.7-6.24-1.07-9.36-.03-.25-.24-.48-.43-.84Zm-162.49-30.41c2.32.55,4.06,1.51,5.55,3.02,1.15,1.17,2.36,2.28,3.59,3.36,5.41,4.81,9.08,10.52,9.48,17.99.09,1.76.53,3.51.93,5.24,1.45,6.13,2.61,12.31,3.06,18.6.17,2.31-.08,4.64.02,6.96.11,2.76-.27,5.43-1.03,8.07-.14.49-.47,1.08-.32,1.48.66,1.71-.1,3.29-.45,4.82-1.88,8.11-3.92,16.19-5.9,24.28-.09.38-.13.79-.14,1.18-.06,1.76-.16,3.53-.13,5.29.03,1.77.09,3.54.32,5.29.25,1.86.71,3.69,1.2,6.14-.89-.69-1.43-.9-1.62-1.29-1.72-3.57-3.49-7.11-2.42-11.32.37-1.44.31-2.99.47-4.49.57-5.42,2.43-10.55,3.6-15.84.71-3.2,1.95-6.28,2.61-9.48,1.71-8.24,1.87-16.56.55-24.88-.07-.42-.08-1.17-1.13-.82-.07.58-.16,1.23-.21,1.88-.19,2.18-.18,4.39-.59,6.52-1,5.24-2.49,10.36-4.34,15.38-.74,2.01-.94,4.24-1.26,6.39-.29,1.88-.27,3.82-.63,5.68-.97,4.96-2.75,9.74-3.16,14.83-.1,1.22-.16,2.49-.53,3.64-.53,1.66-.26,3.26-.05,4.88.33,2.58.68,5.15,1.14,7.71.57,3.22,1.14,6.46,1.93,9.63.74,2.95,1.97,3.91,4.99,3.84,2.44-.06,4.86-.51,7.29-.79,2.44-4.57,3.73-9.26,4.02-14.25.26-4.51.28-9.04.75-13.52.83-8.04,1.2-16.1,1.38-24.17.14-6.3.28-12.6.09-18.89-.3-9.84-.88-19.67-1.35-29.51-.21-4.45-1.25-8.62-3.75-12.41-1.52-2.31-3.21-4.41-5.34-6.17-1.04-.86-1.87-1.98-2.89-2.87-2.27-1.97-4.54-3.93-6.91-5.77-1.44-1.12-3.17-1.58-5.03-1.44-4.22.33-7.62,4.06-7.45,8.22.03.82.15,1.64.19,2.46.12,2.2,1.1,3.93,2.85,5.22.77.57,1.6,1.05,2.42,1.54,4.11,2.46,8.31,4.78,11.71,8.24.11.11.44.01.91.01-.38-1.97-1.01-3.77-2.18-5.25-1.6-2.04-3.26-4.1-5.19-5.81-2.02-1.8-3.26-4.3-5.62-5.79-.82-.52-1.85-1.25-1.39-3.03Zm111.57,113.24c-.02,3.92-.07,7.31-.06,10.7.01,3.51-.73,7-.59,10.62,1.84.5,3.45.41,5.08.3,3.81-.25,7.58-.8,11.43-.85,8.62-.11,17.23-.26,25.84.27,2.72.17,5.47.04,8.2-.03,4.1-.11,8.19-.29,12.29-.45,1.91-.08,3.82-.12,5.73-.3.76-.07,1.5-.45,2.44-.75,0-1.75.02-3.37,0-4.99-.05-3.14-.14-6.27-.17-9.41-.03-2.45,0-4.89,0-7.54-.78-.2-1.65-.73-2.25-.51-2.02.74-4.04.52-6.08.41-.82-.04-1.64-.01-2.46,0-9.3.1-18.59.25-27.89.26-3.83,0-7.63-.1-11.43.6-3.89.71-7.82,1.25-11.76,1.63-2.56.24-5.16.05-8.32.05Zm-89.77-111.95c.2-.11.4-.22.61-.33-.73-1.58-1.44-3.16-2.19-4.73-1.18-2.48-2.65-4.77-4.42-6.88-.37-.44-.12-1.47-.51-1.8-.5-.42-1.49-.22-2.04-.61-2.23-1.58-4.43-3.21-6.54-4.94-3.63-2.99-7.79-5.04-12.04-6.92-.73-.33-1.54-.64-2.33-.67-5.07-.25-10.04-1.16-14.89-2.59-4.46-1.31-8.78-2.87-12.45-5.99-3.04-2.58-5.62-5.58-8.42-8.38-.77-.77-1.47-1.71-2.4-2.2-1.8-.95-3.72-1.7-5.63-2.41-6.06-2.26-10.2,1.68-9.95,7.42.21,4.83,1.81,9.37,5.64,12.76,1.74,1.54,3.51,3.03,5.15,4.67,4.09,4.08,9.11,6.42,14.56,8.03.78.23,1.55.54,2.25.95,4.33,2.56,9.08,4.28,13.5,6.71,3.11,1.71,6.29,3.21,9.01,5.53.48.41,1.21.52,1.9.79,1.65-2.2,3.14-4.3,4.75-6.31,2.84-3.54,6.55-4.52,10.92-3.62,4.51.94,7.8,3.79,11,6.81,1.58,1.49,3.02,3.13,4.52,4.71Zm-135.67,306.29c0-1.64.07-2.57-.01-3.49-.27-3.13-.6-6.26-.9-9.39-.48-5.04-.85-10.09-1.49-15.11-.27-2.15-1.09-4.23-1.71-6.33-.36-1.2-1.01-2.21-2.06-2.98-5.14-3.74-8.53-8.8-10.68-14.68-2.87-7.82-5.87-15.61-7.71-23.77-.69-3.06-1.39-6.11-1.75-9.25-.49-4.23-.51-8.46-.78-12.69-.39-5.94.52-11.72,1.64-17.49.34-1.73.94-3.43,1.58-5.08,1.68-4.32,3.38-8.64,5.21-12.9,1.67-3.88,3.43-7.69,5.96-11.15,2.57-3.52,4.8-7.3,7.15-10.98.19-.3.18-.74.28-1.16-1.62-1.38-3.23-2.57-5.2-3.02-2.09,1.99-3.98,3.95-6.05,5.7-2.24,1.89-4.97,2.82-7.96,3.2-.5,1.18-1.03,2.29-1.41,3.44-.3.9-.4,1.86-.59,2.79-1.05,5.22-1.67,10.54-3.26,15.66-.4,1.29-.55,2.68-.74,4.03-.39,2.83-.74,5.67-1.07,8.5-.17,1.49-.35,2.99-.38,4.48-.13,6.16-.19,12.31-.31,18.47-.07,3.83-.07,7.66.6,11.43.95,5.38,2,10.75,3.2,16.08,1.01,4.49,1.8,9.04,3.36,13.41,1.38,3.85,2.65,7.77,3.55,11.75.92,4.06,2.64,7.78,4.5,11.38,1.45,2.8,2.69,5.6,3.69,8.59,1.08,3.23,2.62,6.31,3.99,9.44,1.95,4.49,2.22,6.01,1.67,10.23,2.25,1.75,4.77-.23,7.67.89Zm220.71-104.16c1.62.84,3.11.52,4.59.41,4.09-.3,8.18-.61,12.27-.87,2.72-.17,5.46-.22,8.18-.4,3.38-.22,6.75-.63,10.12-.94,6.15-.58,12.3-.04,18.44-.5,3.54-.26,7.11-.06,10.66-.22,1.48-.07,2.94-.63,4.43-.8,1.44-.16,2.91-.1,4.49-.14.19-1.09.46-2.01.49-2.94.15-4.36.09-8.73.83-13.07.16-.92.38-2.17-.84-3.08-3.42,1.44-7.11,1.25-10.79,1.29-4.65.05-9.34-.11-13.93.47-6.38.82-12.8.93-19.19,1.5-3.65.32-7.35.01-11.03-.03-1.78-.02-3.55-.02-5.33-.12-3.93-.22-7.87-.5-11.79-.75-1.19,3.34-2.02,13.55-1.61,20.19Zm1.91-23.42c.25.09.52.3.74.25,3.54-.67,7.1-.28,10.65-.27,5.47.02,10.94.06,16.4-.18,7.8-.35,15.58-.97,23.37-1.45,1.5-.09,3.01-.08,4.51-.14,4.51-.2,9.02-.41,13.53-.65,1.22-.06,2.49-.09,3.46-1.53.1-2.47.15-5.2.35-7.91.19-2.68,1.31-5.34.14-8.13-9.69,1.53-19.39,1.6-29.11,1.74-5.74.09-11.47.26-17.2,1.02-4.98.65-10.04,1.3-15.13.17-1.67-.37-3.53.23-5.3.22-1.87-.01-3.74-.23-5.56-.35-.26.64-.53,1.01-.55,1.39-.26,5.04-.48,10.09-.69,15.13,0,.22.24.46.37.69Zm101.73-70.4c.16,1.94.33,3.42.4,4.91.07,1.36.21,2.76-.02,4.08-.19,1.1-.18,2.11-.04,3.2.16,1.21.06,2.46-.02,3.69-.34,4.91-.96,9.81-1.04,14.73-.1,6.4-.71,12.77-.82,19.17-.11,6.14.03,12.31-.88,18.43-.28,1.89-.38,3.81-.51,5.72-.27,4.1-.47,8.2-.75,12.3-.29,4.21-1.02,8.36-1.08,12.61-.08,5.59-.79,11.17-.96,16.76-.25,8.33-.26,16.67-.36,25-.01.82-.13,1.67.04,2.46.42,1.95.17,3.79-.67,5.38,2.28,4.95,3.84,7.31,6.02,9.04.29-2.3.44-4.43.51-6.58.06-2.05-.1-4.14.28-6.14,1.89-9.97,1.67-20.15,3.07-30.17.7-4.98.25-10.1.73-15.12.37-3.92.78-7.82.66-11.77-.06-2.05.25-4.11.15-6.16-.22-4.39.02-8.74.48-13.11.45-4.21.79-8.44,1.07-12.67.31-4.64.45-9.29.74-13.92.06-.91.45-1.8.64-2.71.07-.33.06-.7,0-1.03-.15-.79-.53-1.57-.51-2.35.17-5.6.37-11.2.65-16.8.16-3.14.55-6.27.74-9.41.16-2.73.21-5.47.24-8.2,0-.64-.24-1.28-.39-1.99-2.8-.35-5.28.6-8.38.67Zm-31.64,102.42c.29-2.52.55-4.81.82-7.08-1.59,0-3.03-.09-4.45.02-5.04.39-10.06,1.12-15.1,1.22-8.06.16-16.12.26-24.14,1.06-4.22.42-8.42.71-12.66.24-2.29-.25-4.62-.42-6.92-.34-3.12.11-6.22.49-9.55.77-.17.57-.52,1.2-.53,1.83-.05,4.21-.03,8.42-.03,12.67,1.83,1.68,4.06,1.45,6.22,1.23,3.01-.32,5.99-.26,8.97.25.8.14,1.63.18,2.44.15,6.01-.25,12.02-.43,18.01-.83,4.92-.33,9.81-.58,14.73-.14,1.62.14,3.28-.13,4.92-.07,1.17.04,2.1-.26,3-.99,1.47-1.2,3.04-2.28,4.52-3.46,2.35-1.86,4.81-3.63,6.92-5.73.9-.9,1.71-.49,2.82-.78Zm38.25-118.31c-1.43-.08-2.39-.23-3.33-.18-9.29.46-18.59.83-27.87,1.5-4.44.32-9.05.44-12.83,3.44-.31.25-.73.37-1.12.51-5.98,2.28-12.09,3.41-18.47,2.05-2.26-.48-4.51-.99-6.74-1.59-3.84-1.05-7.68-1.88-11.7-1.92-2.32-.02-4.64-.41-6.96-.6-1.77-.15-3.55-.38-5.32-.34-5.62.1-11.23.3-16.85.47-1.34.04-2.72-.11-4.18.64,1.08,2.98,3.11,5.13,4.91,7.46.95-.06,1.78-.03,2.57-.18,3.38-.63,6.77-1.04,10.22-.7.27.03.57.11.8.02,3.72-1.35,7.6-.52,11.39-.82,2.31-.18,4.65.08,6.98.21.56.03.99.42.8,1.36-9.87,1.95-19.91,1.65-30.1,1.36-.97,1.1-3.67,1.44-2.31,4.25.74.09,1.55.3,2.35.27,6.7-.24,13.43-.27,20.03-1.76,3.09-.7,6.26-.47,9.4-.56,4.78-.13,9.54-.58,14.32-.77,4.37-.18,8.74-.19,13.12-.3,2.05-.05,4.1-.31,6.08.52.32.14.78.08,1.14-.02,2.93-.88,5.96-.57,8.94-.75,4.64-.29,9.29-.21,13.93-.43,6.56-.31,13.09-1.15,19.68-.97.96.03,1.92-.13,2.87-.13,1.91,0,3.82.07,5.73.1.67,0,1.37.07,2.01-.08.26-.06.59-.6.58-.91,0-.31-.4-.86-.63-.86-1.5-.02-2.99.12-4.49.13-9.72.05-19.44.1-29.16.09-3.79,0-7.59-.15-11.38-.24-.84-.02-1.6-.15-1.85-1.44,2.13,0,4.18,0,6.23,0,1.78,0,3.62.27,5.32-.09,4.06-.86,8.18-.48,12.26-.83,1.9-.16,3.84-.14,5.74-.02,1.17.08,2.32.51,3.69.83,2.25-2.44,5.77-.69,8.55-1.81.04-.44.19-.79.07-.95-1.44-1.98-2.91-3.94-4.43-5.99Zm-189.15,28.48c1.47,0,2.45.19,3.32-.04,2.51-.64,4.98-1.44,7.46-2.19,3-.91,5.97-1.96,9-2.71,4.64-1.16,9.32-2.18,14.01-3.16,3.82-.8,7.62-1.88,11.74-1.37.21-1.1.47-2.01.56-2.95.54-5.99,1.05-11.99,1.55-17.99.05-.62-.04-1.24-.08-2.04-3.14.29-5.98.5-8.82.82-5.7.65-11.39,1.35-17.09,2.07-4.18.53-8.35,1.17-12.53,1.66-1.73.2-3.5.12-5.45.17-.17,1.37-.55,2.61-.41,3.78.41,3.58-.31,7.09-.41,10.63-.06,2.03-.57,4.06-1.01,6.06-.49,2.25-1.13,4.48-1.83,7.25Zm81.1,37.76c3.22.53,5.93.12,8.63,0,1.77-.07,3.55-.06,5.33-.14,4.37-.19,8.81,0,13.09-.74,3.39-.58,6.82-.53,10.17-1.2,1.2-.24,2.11.22,2.59,1.46.11.29.62.43,1.09.72.57-.81,1.1-1.55,1.56-2.21,2.1-.56,4.24.26,6.32-.77.49-1.64.73-3.3.57-5.1-.27-2.99-.33-6.01-.38-9.02-.03-1.61.02-3.21-.49-4.67-8.01-.33-15.78-.77-23.57-.93-7.74-.16-15.48-.03-23.5-.03-.71,7.47-1.06,14.82-1.43,22.61Zm5.75,94.53c-.29,4.72,1.39,8.59,1.72,12.64.08,1.03.64,2.01,1.02,3.15,1.14-.27,2.04-.6,2.96-.69,5.72-.51,11.44-1.18,17.18-1.4,9.16-.36,18.33-.39,27.49-.62,2.59-.06,5.18-.38,7.77-.5,4.37-.2,8.74-.32,13.1-.54.6-.03,1.18-.43,1.8-.67-2.57-4.94-5.5-9.32-8.39-13.45-5.55,0-10.74-.01-15.93,0-2.33,0-4.68-.14-6.97.15-8.98,1.13-18,1.1-27.02,1.37-4.77.14-9.54.36-14.72.55Zm-27.42-182.36c-.22.63-.44.99-.47,1.36-.36,4.63-.8,9.26-1.01,13.89-.24,5.45-.11,10.91-.63,16.34-.21,2.17-.72,4.33-.76,6.5-.15,9.58-1.7,19.04-2.24,28.58-.18,3.14-.73,6.28-.6,9.41.31,7.4-.35,14.77-.47,22.15-.11,6.97-.23,13.95-.1,20.93.13,6.69.57,13.38.88,20.08.05,1.03.11,2.05.17,3.08.42-3.13.55-6.26.76-9.39.49-7.37,1-14.75,1.54-22.11.14-1.91.43-3.8.65-5.7.53-4.61,1.36-9.21,1.48-13.84.09-3.27.07-6.56.27-9.82.26-4.36.65-8.72,1.06-13.07.27-2.85.88-5.68.96-8.54.18-6.41.04-12.84.17-19.25.13-6.83.49-13.66.61-20.49.07-3.91,1.01-7.92-1.06-11.66-.21-.38.08-1.08,1.07-1.12.63,1,1.33,2.1,2.03,3.21,3.84-.49,7.57-.34,11.09-1.75.72-.29,1.69-.4,2.41-.17,3.26,1.03,6.53.23,9.8.26.44,0,.88-.29,1.74-.59-1.43-1.48-2.69-2.55-3.64-3.84-.94-1.29-1.58-2.8-2.42-4.36-7.8.17-15.56-.26-23.31-.08Zm113.84,38.26c0,5.15.07,9.93-.02,14.7-.14,7.24-.35,14.48-.61,21.72-.26,7.11-.58,14.21-.94,21.31-.39,7.65-.85,15.29-1.3,22.94-.04.68-.18,1.36-.31,2.03-.35,1.73-.46,3.45-.33,5.24.17,2.31.11,4.66-.13,6.96-.62,5.87-.39,11.75-.47,17.63-.05,3.42.04,6.83-.81,10.2-.46,1.85-.66,3.77-.97,5.66-.34,2.08-.18,4.03.95,5.93,1.18,2,2.12,4.14,3.19,6.2.29.56.47,1.34,1.46,1.11.3-6.54.69-13.07.87-19.61.21-7.37.33-14.74,1-22.09.37-4.08.96-8.17.97-12.26.01-6.85.63-13.66,1.04-20.48.12-2.05.41-4.08.48-6.13.3-9.57.55-19.15.83-28.72.05-1.77-.03-3.58.27-5.32,1.39-8.12,1.6-16.33,1.91-24.53.03-.91-.23-1.84-.36-2.78-2.23-.47-4.22-.25-6.72.27Zm-24.35,137.71c-.48-.99-.68-1.8-1.16-2.35-1.64-1.89-2.91-4-3.63-6.36-.83-2.74-2.63-3.62-5.27-3.38-.54.05-1.12-.06-1.63.08-2.82.81-5.71.46-8.56.61-1.23.06-2.46.03-3.69.12-3.54.24-7.08.71-10.63.75-5.46.06-10.95.1-16.39-.37-3.84-.33-7.61-.44-11.4.13-.76.11-1.49.37-2.49.63,1.08,4.66.32,9.4,2.24,13.57.61.11.88.21,1.14.19,4.75-.41,9.5-.91,14.25-1.25,4.49-.32,9-.46,13.5-.71.95-.05,1.88-.27,2.83-.4,3.11-.42,6.21-1.13,9.33-1.2,6.28-.13,12.57.09,18.85.15.78,0,1.56-.11,2.72-.21Zm30.42,21.46c-1-1.71-1.86-3.25-2.79-4.75-3.68-5.93-7.42-11.82-10.45-18.13-1.24-2.58-2.62-5.12-4.17-7.53-4.22-6.55-8.52-13.04-11.77-20.16-.31-.68-.51-1.58-1.39-1.65-2.88,2.01-5.65,3.94-8.28,5.78-.67,3.17.72,5.59,2.2,7.87,1.88,2.88,3.51,5.86,4.82,9.03.36.88.73,1.82,1.34,2.53,2.15,2.52,3.68,5.41,5.34,8.24,4.98,8.49,10.11,16.89,15.21,25.31.33.54.8,1,1.13,1.42,4.19-1.32,6.46-4.35,8.83-7.97Zm-119.8-9.83c.34-.14.56-.16.58-.24.16-.65.36-1.31.4-1.97.14-2.18.14-4.38.33-6.55.75-8.72,1.96-17.4,2.15-26.17.08-3.83.1-7.66.31-11.48.43-7.79.96-15.57,1.45-23.35.1-1.5.24-2.99.34-4.49.42-6.27.88-12.54,1.24-18.82.38-6.55.59-13.11,1.01-19.65.29-4.5.89-8.97,1.2-13.47.59-8.86,1.22-17.71,1.55-26.58.19-5.17.2-10.44-2.88-15.05-.3-.45-.59-.95-1.49-.49-.12,1.35-.32,2.82-.35,4.31-.1,3.96.19,7.96-.26,11.88-.57,4.92-.17,9.83-.17,14.71,0,6.31-.25,12.57-.76,18.84-.5,6.26-1.31,12.52-1.35,18.78-.05,9.06-1.34,18-1.87,27.01-.25,4.35-.8,8.68-1.05,13.04-.39,6.68-.5,13.38-1.02,20.05-.36,4.64-.81,9.27-.85,13.93-.02,1.64,0,3.28-.08,4.92-.23,4.51-.43,9.03-.79,13.53-.23,2.85.51,5.25,2.36,7.31Zm108.45,21.25c-1.63-4.21-3.86-7.71-6.18-11.36-2.49,1.31-5.08,1.45-7.67,1.61-2.59.16-5.17.48-7.75.53-1.88.04-3.47.42-4.73,1.91-.33.38-.9.64-1.4.77-4.37,1.07-8.49,2.88-12.93,3.84-5.31,1.15-10,.23-14.58-2.22-3.67-1.96-7.44-3.38-11.72-3.12-1.9.12-3.82-.18-5.74-.17-1.71.01-3.5-.39-5.07.5-.18,2.93.38,5.57,1.12,8.21.73,2.62.83,2.77,3.63,2.74,3.82-.04,7.65-.1,11.47-.19,3.27-.08,6.55-.23,9.82-.33.82-.03,1.64.03,2.46,0,5.87-.24,11.74-.37,17.6-.77,6.26-.42,12.48-1.43,18.79-1.39,4.19.02,8.39-.34,12.89-.55Zm-2.94-43.43c-.19-4.98,1.04-9.48.72-14.12-.12-1.77-.14-3.55-.1-5.32.13-5.32.24-10.64.5-15.95.22-4.64.62-9.27.95-13.9.37-5.32.83-10.63,1.11-15.95.49-9.56.86-19.12,1.3-28.69.48-10.62,1.33-21.23.4-31.86-.02-.24-.22-.47-.46-.95-.76.05-1.62.12-2.61.19-.2,2.99-.37,5.7-.56,8.41-.44,6.26-1.05,12.52-1.31,18.79-.35,8.17-.28,16.33-1.23,24.5-.88,7.57-.87,15.25-1.25,22.88-.27,5.46-.54,10.91-.83,16.37-.35,6.54-.71,13.09-1.12,19.63-.15,2.43.4,4.87-.38,7.33-.27.86.31,2.18.86,3.07,1.09,1.79,1.5,4.1,4.01,5.56Zm-87.38-124.73c0,1.08,0,1.6,0,2.13,0,7.1.29,14.21-.38,21.3-.04.41-.02.82-.02,1.23-.06,4.37-.02,8.75-.21,13.12-.44,9.84-1.42,19.64-1.62,29.49-.14,7.24-.58,14.49-1.13,21.71-.47,6.13-1.31,12.24-1.97,18.36-.6,5.57-1.7,11.08-1.34,16.74.2,3.12.21,6.28-.05,9.39-.18,2.21-.06,4.35.1,6.53.33,4.64.67,9.29.65,13.93-.02,6.69.05,13.37.89,20.02.12.93.31,1.91.74,2.72.19.37,1.06.38,1.83.61.08-.84.19-1.37.17-1.89-.24-6.7-.62-13.39-.75-20.09-.32-16.96-.62-33.92.67-50.86.13-1.64.23-3.29.17-4.92-.2-5.91.72-11.73,1.2-17.59.37-4.5.88-8.99,1.12-13.5.28-5.16.44-10.32.24-15.52-.21-5.17.48-10.35.95-15.53.42-4.62.51-9.27.69-13.9.13-3.41.1-6.83.3-10.24.19-3.13.64-6.25.88-9.39.08-1.06-.09-2.13-.15-3.32-.92-.17-1.7-.32-2.98-.55Zm116.64-4.14c0,2.56-.03,4.58,0,6.61.08,4.37.3,8.75.24,13.12-.06,4.24-.34,8.47-.63,12.7-.55,8.18-.5,16.4-1.74,24.53-.08.54-.05,1.09-.06,1.64-.07,2.45-.1,4.91-.23,7.36-.25,4.78-.58,9.55-.83,14.33-.09,1.64.13,3.31-.11,4.91-.43,2.84.38,5.78-.78,8.53.9,2.85.08,5.71-.07,8.54-.36,6.96-.79,13.92-1.95,20.81-.34,2.02-.8,4.06-.77,6.09.07,5.21-.38,10.33-1.23,15.49-.89,5.38-.76,10.87-.79,16.33-.02,3-.22,6-.54,8.98-.3,2.74-.41,5.45.12,8.16.08.39.17.87.44,1.11.21.19.96.19,1.01.08.32-.72.65-1.49.71-2.26.14-2.04.04-4.11.22-6.15.42-4.63,1.02-9.24,1.42-13.88.34-3.94.55-7.9.76-11.85.26-5.05.28-10.12.72-15.15,1.06-11.99,1.49-24,1.68-36.03.03-1.76.13-3.49,1.73-4.79-1.68-.93-1.61-2.26-1.55-3.64.32-7.1.53-14.21.91-21.31.21-3.94.51-7.88,1.04-11.79.64-4.74,1.02-9.5,1.5-14.25.27-2.71.7-5.41,1.13-8.1.3-1.89.76-3.75,1.11-5.63.32-1.74.15-3.74.99-5.18,1.15-1.98-.31-3.66.09-5.45.15-.67.23-1.35.28-2.03.3-3.8-.05-7.55-.42-11.45-1.41-.13-2.59-.24-4.4-.4Zm-128.97-146.1c-1.66.26-2.62,1.18-3.34,2.36-1.43,2.34-2.88,4.66-2.52,7.63.06.45-.64,1.34-1.1,1.43-.51.1-1.37-.35-1.67-.82-.4-.63-.6-1.53-.55-2.29.13-1.92.67-3.75,1.62-5.46.3-.53.79-1.18.15-1.86-1.42-.13-2.7.13-3.76,1.15-2.04,1.96-4.33,3.71-5.31,6.38.72,1.41,1.42,2.58,1.92,3.84.16.39-.06,1.19-.38,1.44-.31.23-1.13.18-1.47-.08-2.44-1.85-4.81-3.78-7.18-5.67-.17.78-.15,1.85-.64,2.57-.5.72-.9.94-.26,1.94.6.93.66,2.33.65,3.51-.02,1.91-.29,3.81-.45,5.72-.09,1.06-.16,2.13-.24,3.25,2.41.96,4.75.53,7.03.7,2.18.17,4.35.41,6.52.7,2.27.31,4.52.71,6.83,1.08,1.31-2.27.62-4.68,1.03-6.92.43-2.28.94-4.55,1.32-6.83.38-2.29.8-4.6.92-6.91.11-2.26,1.45-4.37.89-6.86Zm-82.23,181.57c.1,2.16.23,2.42,1.48,2.7,1.06.24,2.14.4,3.19.66.16.04.35.43.33.64-.02.23-.23.58-.42.63-.52.13-1.1.26-1.6.16-1.02-.21-2-.58-3.14-.93-1.18,2.27-2.23,4.31-3.13,6.06,1.33,4.33,3.46,7.75,5.91,10.73,2.48,0,4.8.15,7.09-.04,2.21-.19,4.31-1.2,6.55-1.39.25,1.66-.71,2.38-1.68,2.78-1.37.57-2.86.95-4.33,1.15-1.62.21-3.28.22-4.92.12-1.96-.12-3.39.55-4.42,2.44,7.49,3.34,13.77.92,19.74-3.5-.09-.56-.03-1.03-.23-1.34-2.11-3.24-1.62-6.49-.11-9.77.23-.49.49-1,.55-1.53.06-.49-.14-1.01-.25-1.73-.85.29-1.48.48-2.09.73-3.37,1.4-6.89,1.78-10.47,1.43-1.46-.14-2.9-.68-4.31-1.17-.36-.12-.54-.74-.99-1.41,1.08-.1,1.79-.35,2.4-.2,2.87.7,5.72.16,8.56-.12,2.11-.21,4.29-.52,6-2.03-.68-2.28-1.49-4.25-3.25-5.58-6.08,2.33-6.9,2.35-16.46.51Zm149.7-5.85c-.14.32-.25.44-.24.56.1,4.76.18,9.53.35,14.29.05,1.44-.07,2.99,1.05,4.43,6.65-.5,13.28-1,19.88-1.5.67-5.86.41-15.69-.52-18.89-6.38-.4-12.75.72-19.15.68-.5,0-1,.3-1.36.42Zm-79.39-69.86c-.3.11-.6.22-.9.34-.09.63-.24,1.26-.25,1.89-.03,1.91.1,3.83,0,5.74-.45,7.64-1.17,15.27-1.4,22.91-.16,5.45-.69,10.87-.74,16.34-.07,8.74-.72,17.48-1.08,26.22-.14,3.42-.25,6.84-.18,10.25.07,3.38-.1,6.77-.13,10.14-.03,3.53-.03,7.08-.12,10.61-.19,8.06-.26,16.12-.37,24.18-.02,1.09.05,2.19.05,3.28,0,1.23-.02,2.46-.03,3.7,0,1.09-.02,2.17.04,3.26.06,1.19,1.01,2.5,0,3.52-1.27,1.28.65,1.73.49,2.81-.32,2.15-.23,4.36-.3,6.55-.07,2.45-.31,4.92-.11,7.36.16,1.98.51,4.04,2.02,6.02.69-1.86.83-3.46.82-5.05-.03-5.05-.05-10.11-.24-15.16-.25-6.83-.8-13.65-.92-20.48-.13-7.38.05-14.76.18-22.14.09-4.78.57-9.57.45-14.35-.31-12.2.92-24.3,1.82-36.43.48-6.54,1-13.07,1.29-19.62.35-8.06.58-16.12,1.83-24.11.23-1.47.53-2.93.67-3.73-1.17-1.62-2.04-2.83-2.9-4.04Zm28.15,157.76c.7,2.64,1.24,4.74,1.83,6.83.65,2.32.65,2.24,3.04,1.86,2.42-.38,4.91-.98,7.31-.78,4.79.38,9.57.09,14.35.18,4.92.09,9.86.28,14.72-.87.79-.19,1.63-.23,2.44-.29,3.27-.24,6.55-.43,9.83-.69,1.43-.12,2.93-.15,4.22-1.26-.66-1.51-1.26-2.86-1.8-4.1-1.98,0-3.75-.05-5.52.02-1.77.07-3.54.46-5.29.36-5.31-.31-10.62-.48-15.94-.24-2.58.12-5.18.13-7.76.03-3.82-.16-7.68-.16-11.43-.79-3.17-.53-6.24-.27-9.99-.24Zm-395.34,49.81c-.26-2.28-.51-4.15-.68-6.03-.39-4.48.2-9.01-.88-13.45-.03-.13,0-.27,0-.41-.52-8.86-.8-17.75-1.63-26.58-.62-6.64-1.96-13.22-2.95-19.83-.79-5.27-1.57-10.54-2.28-15.82-.84-6.23-1.59-12.48-2.42-18.71-.45-3.39-.99-6.77-1.5-10.15-.39-2.57-.76-5.14-1.23-7.69-.58-3.09-1.37-6.15-1.86-9.26-.81-5.14-1.43-10.3-2.18-15.45-.09-.64-.3-1.42-.74-1.82-1.19-1.07-2.52-1.98-4.55-2.31.17.92.23,1.57.41,2.18.59,1.96,1.37,3.88,1.83,5.87,1.91,8.25,3.84,16.51,5.55,24.8.83,4,1.23,8.1,1.74,12.16.66,5.28.96,10.62,1.91,15.85,1.59,8.77,2.54,17.6,3.39,26.45.68,7.08,1.38,14.16,2.16,21.22.74,6.66,1.63,13.3,2.38,19.96.67,5.98,1.24,11.97,1.86,17.96.03.25.16.59.34.69.32.18.73.21,1.31.36Zm234.69-259.31c-.12,1.05-.33,1.99-.32,2.93.03,3.04.46,3.72,3.25,4.3,2.84.59,5.07,2.21,6.4,4.73,1.13,2.16,2.14,4.47,2.7,6.83,1.33,5.6,1.97,11.31,1.53,17.09-.05.67,0,1.36.05,2.04.44,4.92.01,9.83-.25,14.75-.25,4.63-.43,9.27-.63,13.75,1.02.84,1.69,1.82,2.97,1.43.5-1.72,1.04-3.39,1.48-5.08.31-1.19.55-2.4.71-3.62.41-3.25.73-6.52,1.14-9.77,1.1-8.72,1.72-17.38-.86-26.03-1.43-4.81-3.6-9.15-6.43-13.2-1.32-1.88-2.86-3.76-4.7-5.08-1.58-1.14-2.99-2.34-4.21-3.81-.61-.74-1.22-1.5-2.82-1.25Zm217.34,75.2c6.25-.22,11.98.25,17.68-.72,2.55-.43,5.14-.81,7.72-.83,5.33-.06,10.66.15,15.99.22,2,.03,4.01.02,6.08-1.36-2.1-2.11-3.96-4.08-5.95-5.92-.54-.5-1.44-.72-2.2-.84-2.46-.4-4.89.16-7.34.25-5.46.19-10.93.31-16.38-.39-1.87-.24-3.75-.44-5.27-.61-1.82,1.31-3.37,2.42-4.9,3.54-.66.48-1.43.88-1.9,1.51-1.13,1.48-2.11,3.07-3.52,5.17Zm-282.41,251.08c-.27,1.89-.45,3.65-.77,5.39-.36,1.96.04,3.79.65,5.62,1.06,3.19,3.2,4.94,6.64,5.09,2.18.09,4.34.4,6.51.56.52.04,1.06-.13,1.59-.17,3.1-.23,5.68-1.79,8.27-3.29,2.69-1.56,4.38-3.65,3.68-7.03-.16-.78.11-1.65-.04-2.44-.25-1.33-.72-2.6-1.91-3.04-5.49,4-10.93,6.03-17.33,3.12-1.65-.75-2.78-1.63-2.67-3.62.03-.6-.26-1.23-.39-1.8-1.76-.23-2.83.6-4.23,1.62Zm225.74-369.38c-1.47-2.98-3.46-4.76-5.48-6.2-2.35-1.68-4.52-4.02-7.72-4.17-1.16,1.33-.98,2.89-1.1,4.37-.36,4.49-.86,8.98-.97,13.48-.05,2.08-.66,4.24.07,6.49,1.2-.57,2.12-1.2,3.14-1.44,1.17-.28,2.43-.22,3.08-.26,1.7-1.07,2.88-2.01,4.22-2.58,1.22-.53,2.43-.15,3.22,1.06.3.46.47,1.04.86,1.39,1.49,1.37,2.8,3.05,4.89,3.56,1.71.42,3.46.73,5.21.97.72.1,1.49-.12,2.55-.23-.36-.95-.49-1.63-.84-2.16-1.63-2.52-3.25-5.06-5.02-7.49-1.42-1.95-7.88-3.58-10.27-2.72-.37.13-.7.42-.99.69-1.32,1.21-2.68,1-4.32.13-.22-1.54-.59-3.14-.65-4.75-.05-1.32,1.39-2.06,2.24-1.16,1.44,1.53,2.97,1.57,4.8,1.06.74-.21,1.59-.03,3.08-.03Zm-438.79,326.81c-.05.97-.31,1.7-.07,2.21.58,1.23,1.43,2.33,2.09,3.52,1.03,1.86,2.61,2.76,4.68,2.79,2.57.05,5.15.43,7.67-.5.36-.13,1.23.2,1.32.49.13.39-.13,1.1-.47,1.41-.59.53-1.36.89-2.07,1.27-1.17.63-2.35,1.22-3.83,1.97.87.39,1.35.79,1.85.8,3.68.06,7.36.1,11.03-.02.71-.02,1.5-.63,2.08-1.16,1.14-1.05,1.71-2.47,1.85-4,.04-.46-.32-.96-.53-1.54-2.43.43-4.62,1.97-7.28.77.79-1.49,2.64-.84,3.41-2.2.53-.94,2.15-.95,2.86-2.1.7-1.13,1.95-2.02,1.06-3.78-8.31-.33-15.52-4.28-22.98-7.7-.94,1.32-1.78,2.52-1.23,4.17,1.9.98,3.76,1.7,5.88,1.79,1.49.07,2.98.39,4.45.68.43.09.81.46,1.39.81-4.05,1.78-7.64,1.88-13.16.33Zm496.24-329.35c1.11-1.52,2.02-3.03,2.05-4.87.04-2.21.34-4.42-.91-6.54-.81-1.38-1.2-3.03-1.63-4.6-.09-.32.4-1.02.78-1.2.42-.19,1.07-.09,1.53.1.31.13.54.6.68.97.43,1.15.8,2.32,1.21,3.48.22.63.39,1.32,1.41,1.1.21-.6.46-1.23.65-1.88.64-2.1.42-4-1.05-5.77-.75-.89-1.2-2.04-1.83-3.15-1.38.09-2.74.12-4.09.28-.81.09-1.6.36-2.39.58-3.78,1.08-5.15,3.57-4.28,7.87.52-.06,1.04-.16,1.57-.18.95-.04,1.92-.14,2.85,0,.43.07.89.59,1.11,1.02.12.24-.14.82-.41,1.06-.5.45-1.12.76-1.69,1.14-1.37.89-2.8,1.71-4.09,2.71-1.21.93-2.27,2.13-2.33,3.72-.05,1.51-.69,2.5-1.78,3.4-.33.27-.66.9-.06,1.19,1.68-.81,3.23-1.59,4.82-2.27.23-.1.82.23.97.51.16.3.13.86-.06,1.14-.28.42-.74.78-1.19,1.03-1.31.73-2.64,1.46-4.01,2.06-3,1.31-3.36,3.87-3.54,6.96,1.88-.78,2.85-2.15,4.06-3.19,2.16-1.85,4.44-1.23,5.32,1.5.2.63.29,1.3.47,2.13,1.92-1.24,2.22-3.09,1.93-4.79-.55-3.17-.62-6.42-1.8-9.49-.42-1.09-.28-2.41-.33-3.63,0-.15.36-.31.78-.66.49.76.96,1.49,1.46,2.27h1.69c1.18,1.94.46,4.31,2.12,5.99Zm-36.26,120.08c-3.07-2-5.59-3.36-7.78-5.14-2.2-1.79-4.58-2.19-7.24-2.03-3.68.22-7.37.33-11.05.53-.67.04-1.35.21-2,.41-2.12.63-4.24.92-6.48.71-2.25-.21-2.47.2-2.43,3.02,1.19.61,2.59,1,3.52,1.88,1.04.99,1.65,2.43,2.46,3.69,1.01,0,1.95.06,2.89-.01,2.04-.15,4.08-.37,6.12-.54,2.04-.18,4.1-.25,6.13-.52,3.92-.52,7.82-1.16,11.74-1.7,1.19-.17,2.4-.18,4.13-.3Zm-23.25,200c.52.18.78.36,1.01.34,5.3-.49,10.6-1.07,15.91-1.49,3.41-.27,6.83-.35,10.24-.45,2.73-.08,5.47,0,8.2-.11,5.46-.23,10.91-.64,16.37-.82,5.32-.18,10.66-.16,15.98-.22,3.01-.03,6.02-.14,9.03-.02,3.98.15,7.92,0,11.86-.55,3.78-.52,7.56-1.26,11.42-.98.67.05,1.42.03,2.01-.23.4-.17.8-.81.8-1.25,0-.41-.42-.98-.81-1.2-.43-.25-1.06-.3-1.58-.24-2.44.26-4.87.77-7.31.84-2.44.07-4.9-.32-7.35-.44-.95-.04-1.91.12-2.86.19-1.36.1-2.72.19-4.08.28-3.54.25-7.09.45-10.63.76-6.66.58-13.31,1.41-19.98,1.77-6.28.34-12.58.11-18.87.34-5.16.19-10.27-.84-15.46-.18-4.33.55-8.72.54-13.09.8-.25.01-.49.22-.96.45.05.77.1,1.64.15,2.41Zm-226.61-155.25c.43.29.75.67,1.11.71,2.48.33,4.57,1.57,6.82,2.52,5.55,2.34,9.84,6.39,14.42,10,4.26,3.36,6.93,7.94,8.6,13.18.86,2.7,1.41,5.42,1.93,8.21.33-1.61.47-3.2.6-4.8.03-.41.02-.82-.01-1.22-.05-.54-.07-1.1-.23-1.62-1.24-4.17-2.5-8.33-3.77-12.5-.04-.12-.16-.22-.23-.34-1.72-2.93-3.04-6.13-6.06-8.13-1.35-.89-2.57-2.05-3.65-3.26-3.95-4.45-8.73-7.75-14-10.42-1.19-.6-2.37-1.23-3.63-1.88-.85,1.38-.87,2.48-.46,3.12,2.42,1.48,4.37,2.69,6.34,3.87,1.98,1.19,4.43,1.75,5.77,4.18-1.48-.1-2.74.02-3.87-.32-1.29-.38-2.47-1.15-3.68-1.77-1.58-.81-3.14-1.64-4.74-2.43-.17-.09-.48.1-.91.21-.11.86-.23,1.79-.35,2.7Zm225.16,94.74c-.8,2.26-.48,4.25-.56,6.19-.12,2.73-.19,5.45-.28,8.18-.03.95-.12,1.91-.09,2.86.24,6.55.56,13.1.72,19.65.04,1.8.64,3.1,1.94,4.29,2.32,2.11,4.51,4.36,6.79,6.51.37.35.93.49,1.48.77-.11-3.77-8.46-44.41-10-48.46Zm64.02-211.1c-.58.31-1.04.57-1.63.89.32,2.73.65,5.42.94,8.11.36,3.26,1.03,6.53.96,9.78-.11,4.74-.85,9.47-1.17,14.21-.14,2.12-.43,4.34.86,6.26,1.66.08,3.15.19,4.65.2.76,0,1.51-.17,2.34-.28-.11-1.33-.15-2.42-.29-3.51-.33-2.57-.75-5.13-1.04-7.7-.64-5.7-1.2-11.4-1.84-17.1-.2-1.77-.76-3.52-.73-5.27.03-2.19-2.18-3.13-2.43-5.08-.01-.1-.2-.17-.62-.5Zm-162.64,56.23c.64-2.98.61-5.15.56-7.33-.1-4.76.02-9.54-.19-14.3-.16-3.69.11-7.34.27-11.02.11-2.62.41-5.15,1.02-7.66.59-2.39,1.22-4.76,1.75-7.16.3-1.33.52-2.69.62-4.04.05-.64-.06-1.53-.46-1.94-1.67-1.69-3.33-3.44-6.05-4.31,1.34,8-.02,15.62.04,23.24.03,5.03-.42,10.06.24,15.1.48,3.65.62,7.35,1.01,11.01.27,2.54.71,5.06,1.19,8.41Zm171.02,2.87c.93.09,1.59.2,2.25.21,3.28.05,6.61-.23,9.84.2,3.55.47,7.07.5,10.62.56.61,0,1.41.21,1.7-.77-2.24-2.69-4.49-5.4-6.74-8.12-5.73-.32-11.28-.44-16.89.82-.25,2.32-.49,4.46-.77,7.1Zm-210.47,7.76c-1.81,3.61-1.65,4.28,1.5,6.26.35.22.75.34,1.1.56,2.5,1.61,5.14,3.04,7.44,4.89,3.62,2.9,7.02,6.08,10.49,9.17,4.09,3.63,8.18,7.25,12.23,10.92.8.72,1.38,1.67,2.1,2.48.12.14.42.13.84.24.08-1.25.15-2.43.19-3.09-3.81-3.84-7.33-7.28-10.71-10.84-3.58-3.78-7.27-7.43-11.35-10.69-1.17-.93-2.47-1.71-3.55-2.73-2.38-2.24-6.91-5.5-10.27-7.18Zm-46.17-216.51c.16,3.53.66,7.01,1.65,10.43.69,2.36,1.31,4.74,1.87,7.13.63,2.66,1.09,5.35,1.73,8,.7,2.91,1.65,5.77,2.27,8.69,1.02,4.79,1.76,9.65,2.83,14.43,1.16,5.19,2.65,10.3,3.84,15.49,1.1,4.78,2.76,9.45,2.95,14.42,0,.2.32.39.61.72.43-.08.98-.11,1.46-.31.58-.25,1.09-.65,1.59-.97-1.48-5.1-2.55-10.07-4.38-14.75-1.36-3.46-2.43-6.98-3.3-10.54-2.09-8.48-3.83-17.04-5.74-25.57-1.31-5.85-2.57-11.72-4.03-17.53-.82-3.27-1.5-6.62-3.35-9.65Zm279.16,111.68c3.17-1.8,6.32-2.67,8.88-4.71.84-.67,1.48-1.6,2.26-2.36,1.87-1.82,1.76-3.78.66-5.86-1.34-.26-2.57-.37-3.7-.74-2.02-.66-2.54-1.95-1.63-3.8.48-.98,1.1-1.89,1.56-2.87.2-.42.15-.95.25-1.62-1.95.19-2.79,1.28-2.87,2.68-.13,2.29-1.2,3.64-3.12,4.87-2.32,1.48-3.47,3.74-2.57,6.7.31,1.01.24,2.14.27,3.22.04,1.34,0,2.69,0,4.5Zm-204.82,30.4c.21,2.1.32,3.56.51,5.01.1.81.45,1.6.45,2.4-.01,1.2-.44,2.42-.32,3.6.12,1.17.87,2.26,1.03,3.43.78,5.66,1.52,11.34,2.12,17.02.29,2.69,1.35,5.13,1.84,7.74.17-.3.22-.57.23-.84.08-4.63.07-9.26.25-13.89.13-3.26.64-6.51.76-9.77.1-2.72-.08-5.44-.18-8.16-.06-1.61-.76-2.79-2.27-3.58-1.29-.67-2.43-1.61-4.42-2.96Zm87.51,52.22c.21,2.19,1.39,3.68,2.2,5.57,4.34-.56,8.58-.39,12.75-.69,4.2-.3,8.37-.22,12.73-.09.29-1.38.52-2.52.82-3.97-9.66-.24-18.94-1.98-28.5-.82Zm92.84-38.04c.68,3.94,1.33,7.52,1.9,11.12.57,3.63,1.02,7.28,1.59,10.92.56,3.6,1.18,7.19,1.76,10.66,1.45.41,2.59.96,3.86.15.31-3.77-.76-7.29-1.52-10.87-.79-3.73-1.38-7.51-2.03-11.27-.62-3.59-1.52-7.11-2.35-10.71h-3.2Zm4.68-76.92c2.68.57,4.55,1.9,7.01,1.81,1.53-.06,2.77,1,3.05,2.76.07.46.32.88.56,1.51,1.58-2.47,1.63-2.48,1.18-4.72-.62-3.05-1.32-6.07-2.01-9.18-.94-.19-1.86-.38-2.79-.56-3.29-.66-5.4,1.14-7.18,3.52-.24.31-.03.96-.03,1.42,1.02.22,2.14-.31,2.59.92-.69.73-1.37,1.46-2.37,2.53Zm-289.35,385.06c3,.09,5.48-.56,7.4-1.99,1.76-1.31,3.58-2.39,5.78-2.9,1.44-.33,2.82-1.03,4.17-1.66,1.54-.72,1.95-1.75,1.26-2.89-.61-1.01-1.43-1.15-2.8-.48-.73.36-1.43.89-2.2,1.03-3.61.67-7.25,1.23-10.87,1.84-.76.13-1.51.27-2.31.41-.16,2.38-.29,4.51-.43,6.63Zm16.75-19.59c-5.84,2.9-11.75,3.29-17.48,4.42-.31,1.52.04,2.86,1.27,3.68,1.35.9,2.89,1.81,4.57,1.52,4.02-.7,8.14-1.34,10.71-5.15.36-.53.95-.9,1.43-1.34-.15-.98-.28-1.77-.49-3.14Zm307.11-339.22c1.7-.92,3.04-1.56,4.29-2.33,2.09-1.3,4.16-1.82,6.53-.67.91.44,2.05.41,3.29.63,0-1.47-.16-2.66.04-3.79.23-1.27.78-2.49,1.22-3.78-4.09-1.5-7.39-.03-10.39,1.83-1.06-.56-1.85-.98-2.85-1.52-.72,3.26-1.37,6.22-2.13,9.62Zm-323.88,368.6c.88.1,1.42.11,1.93.23,2.34.54,4.57.56,6.58-1.04.3-.24.74-.41,1.12-.45,2.79-.27,3.51-2.19,3.62-4.55.06-1.19-.01-2.4-.03-3.69-2.75-.18-4.34,2-6.6,2.38-2.23.37-4.54.59-6.62,1.84v5.29Zm21.09-62.77c.67-1.07,1.02-1.47,1.2-1.93,1.94-4.95,3.86-9.91,5.76-14.88,1.02-2.67,1.91-5.41,3.02-8.05,1.63-3.89,3.44-7.71,5.09-11.59.36-.85,1.14-1.78.43-3.06-1.8,2.01-3.03,4.11-4,6.37-3.41,7.9-6.74,15.83-10.3,23.66-1.29,2.84-2.02,5.6-1.2,9.47Zm34.9-281.79c-.14-2.03-.06-3.27-.34-4.42-1.14-4.75-2.36-9.48-3.61-14.2-.55-2.06-.94-2.39-3.84-3.96.89,6.58,1.76,13.02,2.68,19.83,1.32.71,2.84,1.53,5.11,2.76Zm244.33,67.55c-.5-.78-.77-1.21-1.05-1.62-1.21-1.82-2.69-2.9-5.09-2.49-1.15.2-2.41-.2-3.61-.33-2.83-.31-5.65-.65-8.49-.91-.57-.05-1.41-.2-1.46.63,1.99,2,3.87,3.89,5.96,5.98,4.25-.27,8.79-.55,13.74-1.26Zm-54.93-84.64h-3.98c-.4.94-.76,1.79-1.2,2.83,3.44,2.16,4.07,5.81,4.87,9.38,1.55-.58,2.09-1.42,2.06-2.85-.04-1.89.18-3.78.3-5.67.11-1.76.29-3.52.32-5.28.05-2.74-1.09-5-3.06-6.86-.5-.47-1.06-.89-1.71-.21-.05,2.9.73,5.59,2.4,8.67Zm26.32,105.18c-3.3,0-6,.08-8.69-.02-2.59-.09-5.18-.28-7.75-.58-5.42-.63-10.91-.62-16.29-1.7-1.62-.32-3.17-1.18-5.09-.92,1.9,1.99,4.05,3.04,6.48,3.66,4,1.02,8.01,1.59,12.16,1.13,3.66-.41,7.34-.45,11.04-.17,2.14.17,4.33-.26,6.5-.49.42-.05.8-.43,1.65-.92Zm-26.91-81.78c-.37-1.29-.5-3.2-1.74-3.74-1.84-.81-2.38-2.51-3.58-3.72-1.03-1.03-1.43-2.34-.53-3.72.42-.64.28-1.21.11-1.91-1.02-4.07-4.03-6.66-6.85-9.4-.13-.12-.47-.02-.94-.02.08.8.02,1.64.28,2.36,1.23,3.46,2.44,6.94,4.51,10.03.68,1.02,1.57,2.08,1.72,3.22.22,1.59,1.53,2.16,2.25,3.25.82,1.24,1.78,2.4,2.78,3.51.43.48,1.06.9,2.01.13Zm43.24-43.79c.25.23.57.46.82.74.73.87,1.55,1.56,2.76,1.11,1.25-.46,2.04-1.38,2.06-2.75.01-1.22,0-2.45-.2-3.65-.46-2.86-2.52-3.67-5.08-2.27-3.11,1.69-3.59,4.74-4.7,8.1,1.75-.52,3-.89,4.35-1.29Zm-25.53,32.72c1.67-1.92,2.64-3.52,3.35-5.3,1.05-2.62.46-5.39.72-8.08.06-.65.07-1.38-.97-1.86-2.07,1.44-4.34,2.81-5.83,4.82.88,3.38,1.7,6.5,2.73,10.41Zm41.48-21.38c.55-2.15.46-4.31.41-6.46-.02-1-.29-1.85-1.14-2.5-1.12-.86-1.24-2.02-.95-3.33.14-.64.23-1.41-1.07-1.62-2.04,3.63-2.79,7.75-4.03,11.88,2.32.8,4.07,2.64,6.78,2.04Zm-25.77,93.76c0,1.48-.13,2.72.03,3.92.32,2.36-.18,4.55-.81,6.8-.41,1.45-1.17,2.4-2.32,3.18-1.05.71-2.12,1.4-3.48,2.29,7.19-.08,9.54-3.68,10.76-7.95.56-1.95-.05-3.73-.89-5.5-.6-1.27-1.19-2.41-3.29-2.74Zm55.79-89.84c-1.12-.66-2-1.34-2.99-1.71-.7-.26-1.68-.37-2.31-.06-2.5,1.22-4.91,2.63-7.58,4.09.62.38.94.74,1.27.74,2.37.04,4.48.78,6.51,1.99.76.45,1.79.54,2.72.62.92.08,1.51-.5,1.68-1.42.24-1.32.45-2.64.72-4.26Zm-93.48-23.01c-.49,1.54-.21,2.88.28,4.14.83,2.15,1.76,4.27,2.72,6.37.27.58.69,1.31,1.21,1.51,1.48.56,1.92,1.84,2.5,3.06.62,1.29,1.27,2.58,1.96,3.98,1.44-1.84,1.88-3.6.62-4.9-1.87-1.92-2.12-4.3-2.52-6.46-2.99-2.17-3.06-2.15-3.69-5.26-.32-1.6-1.09-2.41-3.08-2.44Zm36.75,27.17c.88,1.01-.52,2.04,1.05,2.5,2.93-1.84,4.61-5.14,7.35-7.35.76-.62.83-1.86.13-2.9-2.33.8-4.48,1.62-6.69,2.27-2.95.87-4.34,2.95-5.11,6.12,1.32-.26,2.31-.46,3.27-.65Zm58.97,8.5q3.49-1.51,6.16-5.92c-.69-2.25-2.58-3.69-3.99-5.46-.38-.47-1.46-.22-1.75.34-.18.36-.46.74-.46,1.11,0,2.27-1.27,4.04-2.43,5.86.84,1.39,1.6,2.64,2.47,4.06Zm-80.68-11.28c1.04-2.59,1.92-5.09.53-7.8-.22-.43-.19-1.09-.05-1.59.44-1.53-.03-2.95-.34-4.4-.14-.65-.28-1.34-1.21-1.33-1.79,2.01-3.54,3.97-3.07,7.07.16,1.08.09,2.15.84,3.02,1.29,1.51,1.23,3.9,3.3,5.02Zm-6.92,294.42c4.21,3.17,8.57,4.05,13.35,2.68,2.11-.6,4.16-1.37,6.23-2.09.42-.15.79-.44,2.01-1.14-2.99-.05-5.02-.11-7.05-.11-2.59,0-5.2.19-7.77,0-2.22-.17-4.32.08-6.77.67Zm92.69-297.46c.11,1.81.79,3.13,1.93,4.14,2.31,2.04,5.15,2.88,8.25,3.5.9-1.52,3.34-1.9,2.91-4.55-2.28.03-4.42.92-6.89-.01-.73-2.94-2.54-4.57-6.2-3.08Zm-50.52-9.71c-2.31.19-3.92.27-5.52.47-3.47.44-4.91,2.07-5.53,6.34,1.6-.44,3.1-.65,4.76-.4,1.83.27,3.77-.29,4.52-2.55.37-1.12.98-2.16,1.77-3.86Zm18.74,24.77c-1.12-1.24-2.02-2.23-2.94-3.24-1.33.71-2.51,1.33-3.86,2.05-.25,1.71-.68,3.43-.71,5.16-.02,1.58.79,2.82,2.64,3.1,1.6-2.33,3.14-4.56,4.87-7.07Zm11.02-56.21c-.34-1.56-.53-3.13.08-4.67.1-.24-.22-.83-.5-.98-.28-.15-.86-.08-1.12.12-1.24,1.02-4.11,6.15-4.59,8.01-.44,1.71-.91,3.41-1.33,5.12-.09.38-.18.86-.03,1.18.12.27.75.6.89.51.54-.35,1.21-.77,1.4-1.32.58-1.66.94-3.4,1.41-5.1.35-1.27,1.06-2.18,2.5-2.33.37-.04.72-.3,1.28-.54Zm-254.02,268.33c1.54-.84,2.18-2.1,2.34-3.45.3-2.41,1.68-4.7.91-7.24-.04-.13-.04-.33-.12-.38-.51-.32-1.05-.61-1.91-1.09-1.19,3.89-4.21,6.76-3.62,11.14.86.37,1.7.73,2.4,1.04Zm242.35-204.57c.92-.08,1.58-.04,2.17-.22,1.43-.41,2.8-1.15,4.24-1.34,1.38-.18,2.83.16,4.24.27q.52-2.34-1.31-4.69c-1.18.44-2.4.89-3.55,1.31-.98-.79-1.78-1.43-2.67-2.16-2.11,1.83-2.75,4.04-3.12,6.81Zm-85.98,285.02c-2.31-2.75-4.3-5.15-6.32-7.53-.43-.51-.92-1.04-1.83-.51-.13,2.74-.27,5.55.2,8.44,2.79.1,5.33.71,7.94-.4Zm126.22-306.26c2.02-.53,3.64-.8,5.13-1.4,1.78-.72,3.22-1.99,4.34-3.57.5-.71.35-1.73-.26-2.21-.63-.5-1.34-.41-1.87.03-1.3,1.08-2.81,1.46-4.41,1.88-1.38.36-2.61,1.32-4.03,2.08.37,1.09.67,1.94,1.09,3.19Zm-119.13,101.41c-.31-.75-.35-1.07-.53-1.24-2.19-2.09-2.58-4.55-1.99-7.45.3-1.51.71-3.17.08-4.93-1.89.35-3.06,1.52-3.57,3.06-.64,1.95-.97,4.2.26,5.94,1.33,1.88,2.56,4.17,5.75,4.61Zm42.2,18.45c-3.1-1.19-6.35-.68-9.51-.96-3.25-.28-6.51-.92-10.24-.41,7.96,3.44,12.94,3.9,19.76,1.37Zm-151.63-41.35c1.64-5.67,1.57-11.27,1.85-16.82.05-.99-.49-2.02-1-3.91-1.42,7.1-1.98,13.32-1.72,19.61.01.31.44.6.86,1.12Zm104.6-57.93c2.87,1.01,5.28,1.89,7.72,2.7.53.18,1.15.09,1.9.14-2.85-5.77-4.16-6.57-10.3-6.4.23,1.18.45,2.32.69,3.57Zm95.48-15.26c1.11,1.34,1.78,2.14,2.43,2.95.63.79-.1,2.1,1.3,2.74.84.38,1.32,1.55,1.82,2.19.59,0,.88.07,1.12-.01,2.75-.85,3.33-2.82,1.36-4.76-1.97-1.94-4.25-3.28-8.04-3.11Zm-2.62,290.49c-1.08.88-1.99,1.43-2.63,2.2-1.48,1.78-3.09,3.37-5.05,4.61-.21.13-.15.7-.25,1.22,2.65.19,5.15.3,7.74-.49.39-2.45,1.01-4.73.19-7.53Zm-66.66-273.88c1.6-11.35,2.88-13.03,1.41-16.32-.45.17-1.15.22-1.33.55-.52.93-1.01,1.95-1.17,2.99-.52,3.39-.36,6.8.09,10.18.08.63.46,1.23,1,2.6Zm24.83,6.98c-2.11.15-3.47,1.42-4.14,2.97-1.06,2.43-2.89,4.24-4.24,6.4-.86,1.37-2.08,2.77-2,5.06,5.26-3.85,7.3-9.49,10.38-14.43Zm39.01-22.38c.5,1.23.87,2.16,1.4,3.47-1.17,0-1.98.19-2.63-.06-.57-.21-.93-.95-1.43-1.39-.71-.63-1.54-.49-2,.43-.27.54-.22,1.24-.33,1.97,1.36.42,2.53.78,3.69,1.15,1.97.62,3.77-.06,5.54-.8.72-.3,1-1.16.66-1.72-.62-1.02-1.41-2.02-2.35-2.74-.52-.4-1.49-.21-2.54-.31Zm-246.11,203.63c1.75-.87,3.07-1.05,3.64-2.63.44-1.24,1.37-2.3,2.21-3.64-.3-.85-.64-1.83-1.08-3.06-1.38.71-2.53,1.3-3.61,1.85-.38,2.44-.73,4.66-1.17,7.49Zm135-194.37c1.06.98,1.94,1.79,2.81,2.62.82.78.57,2.31,2.13,3.16.13-.96.48-1.74.23-2.09-.69-.98-1.69-1.74-2.46-2.67-.56-.68-.67-1.46.38-2.25.82.38,1.75.81,2.64,1.22.98-1.07.58-2.01-.22-2.56-1.2-.83-2.53-1.67-4.21-.76-.37.94-.75,1.92-1.31,3.33Zm55.9-37.99c1.4-3.17.31-5.35-.55-7.39-1.12-2.66-2.26-3-6.19-2.65,3.17,2.44,5.18,5.6,6.73,10.04Zm-.01,43.48c-1.26-3.26-.11-6.52-2.19-9.6-1.17,3.37-1.22,6.62-1.88,9.74-.04.2.22.46.42.84.98-.26,1.98-.53,3.65-.97Zm46.96-23.31c-1.75,4.35-3.27,8.14-5.05,12.59,2.87-2.51,4.49-4.98,5.42-7.86.44-1.37.73-2.86-.36-4.73Zm-5.13,24.68c-.5-1.48-.93-2.58-2.18-3.17-1.34,1.04-2.6,2.05-3.9,3.02-1.85,1.38-1.92,1.44-2.89,4.6,2.49-3.11,5.63-3.62,8.96-4.45Zm-2.38-13.91c-1.61,1.46-3.25,2.87-4.81,4.38-1.69,1.63-1.94,2.69-1.34,4.89,3.3-2.23,4.72-5.78,6.15-9.27Zm14.43,23.49c-2.88-1.04-2.83-1.06-3.9-3.69-.59-1.46-1.04-3.06-2.56-4.09-.84.41-1.6.78-2.84,1.38,4.52,1.05,4.2,4.66,5.01,7.65.9.11,1.73.43,2.43.24.66-.18,1.16-.9,1.86-1.49Zm41.6-54.36c-2.2-1.05-4.18-2-6.4-3.06-.16,2.03-.3,3.77-.45,5.69,1.92-.1,1.74-2.19,2.88-2.54,1.35-.32,2.15,2.29,3.97-.09Zm-36.76,57.64c1.17.44,1.55.73,1.89.69,2.04-.23,4.02-.41,5.94.67.51.28,1.35.17,1.96,0,.43-.13.74-.68,1.1-1.04-.37-.32-.77-.94-1.11-.91-2.1.18-3.99-.43-5.79-1.42-1.19.6-2.25,1.14-3.99,2.02Zm-87.97,25.72c2.08-3.52,2.36-6.79,2.81-10.13-1.89.47-1.85,2.01-2.4,3.21-.94,2.04-1.03,4.07-.41,6.92Zm92.43-76.7c-1.34-.1-2.35-.18-3.57-.27-.47,1.37-.87,2.57-1.29,3.79q3.44.86,4.86-3.52Zm-27.53,23.93c1.2-.69,2.22-1.5,1.89-2.6-.55-1.82.28-3.11,1-4.54.18-.35.03-.88.03-1.37-1.39.25-2.31.86-2.67,1.93-.68,2.01-1.45,4.06-.25,6.58Zm33.98,45.17c.11-1.31.25-2.49.29-3.68.03-.83-.49-1.05-2.15-.98-.32,1.45,1.07,3.25-.74,4.46-.06.04.1.41.18.73.76-.17,1.53-.34,2.42-.54Zm-257.69,138.03c.12,2.35-1.56,4.53-.75,6.86,1.34.37,2.29,0,2.21-1.15-.14-1.95-.27-3.96-1.45-5.71Zm204.98-167.78q3.74-1.78,3.83-5.81c-1.42,1.56-2.67,2.86-3.8,4.25-.24.29-.03.94-.03,1.56Zm25.8-19.96c.42-1.47.72-2.33.91-3.22.14-.67.11-1.47-.69-1.63-.59-.12-1.48-.05-1.85.32-.6.59-.88,1.51-1.35,2.4.96.69,1.69,1.21,2.98,2.13Zm-16.93,9.95c1.22.82,2.01.66,2.51-.12.97-1.48.67-2.83-.75-4.05-1.94.83-1.58,2.57-1.77,4.17Zm6.51,23.5c3.83-.31,4.93-.87,6.17-2.97q-3.21-.38-6.17,2.97Zm12.08-52.56c1.16.99,1.86,1.58,2.8,2.39.73-1.57,1.57-2.75,1.2-4.6-.68-.02-1.46-.28-1.91,0-.73.46-1.24,1.27-2.09,2.21Zm-192.65,104.92c-.3-3.18-.59-6.35-.9-9.53,0-.08-.16-.19-.26-.22-.08-.02-.18.08-.43.19.53,3.18-.5,6.59,1.59,9.55Zm167.34-73.91c2.62-1.72,2.98-4.49,3.2-7.32-1.07,2.44-2.13,4.88-3.2,7.32Zm-63.19,10.22c.82-.4,1.35-.99.67-1.85-.77-.97-1.2-1.12-3.58-1.93q.79,2.37,2.9,3.78Zm10.43,10.93c-1.14,1.99-1.7,3.9-1.69,5.96.58.27,1.04.54,1.53.7.2.06.47-.1.99-.22-.59-1.03-1.15-2-1.68-2.92.44-.71.93-1.24,1.09-1.85.13-.5-.14-1.11-.24-1.67Zm27.08,4.27c1.48-.39,1.2-1.42,1.08-2.28-.13-.97-.21-2.07-1.7-2.32-.6,1.76-.25,3.18.62,4.6Zm-232.34,237.37c1.64-1.21,2.09-2.42,1.98-3.92-1.24-.49-2.1-.3-2.25.92-.11.84.14,1.73.27,3Zm227.71-296.09c1.2-2.89,1.17-3.25-.29-5.46-1.28,1.95-.19,3.66.29,5.46Zm-7.37,7.85q-.98-2.09-3.31-2.27,1.04,2.82,3.31,2.27Zm30.61,32.08c-1.05,1.74-1.44,3.18-.87,4.88,2.21-2.31,2.34-2.88.87-4.88Zm-228.06-54.45c-.4,3.75-.38,3.85,1.29,5.75,0-2.08-.42-3.78-1.29-5.75Zm240.25,75.46c.66,1.15.83,2.67,2.85,2.8,0-.65.2-1.35-.04-1.84-.55-1.11-1.58-1.32-2.81-.96Zm-9.69,7.52c-.75,1.82.14,2.91.84,4.34.03-1.57.06-2.84-.84-4.34Zm23.7-72.88c.22-2.41.19-2.45-1.58-2.4.08,1.09.27,2.08,1.58,2.4Zm-14.91,59.34c1.39-.69,2.18-1.06,2.95-1.48.22-.12.39-.34.53-.55.06-.09.01-.26.01-.95-1.5.42-2.47,1.11-3.49,2.97Zm46.12-50.75c0-.77-1.09-1.6-1.99-1.46-.18.03-.44.35-.44.52.03.95,1.02,1.7,1.94,1.47.19-.05.33-.35.49-.53Zm-89.38,15.25c-.43-.71-.88-1.48-1.36-2.24-.05-.08-.31-.13-.37-.08-.17.16-.37.36-.42.58-.26,1.06.35,1.78,1.04,2.45.07.07.29.05.38,0,.2-.14.36-.34.72-.69Zm50.43,7.81c1.6-.89,1.67-1.98,1.32-3.19-.05-.18-.46-.43-.63-.38-.32.09-.84.37-.85.58-.04.9.08,1.8.16,2.99Zm-16.72,3.03c-1.24,1.07-1.8,2.05-1.26,3.78,1.3-1.11,2.01-2.03,1.26-3.78Zm-83.9,251.71c-.27-1.06.75-2.26-.43-3.2-.06-.04-.3.03-.35.11-.66,1.23.14,2.13.78,3.09Zm60.49-260.83q1.42-1.54,0-2.8v2.8Zm1.66-19.99c-.1.31-.28.66-.3,1.01-.03.47-.11,1.18.64,1.04.38-.08.89-.63.93-1.01.03-.33-.51-.72-.83-1.06-.05-.05-.22,0-.44.02Zm46.6,14.93c-.24-.62-.28-1.05-.52-1.24-.47-.39-1-.23-1.21.32-.1.27.04.91.21.96.39.12.86,0,1.51-.04Zm-47.96,32.39c.32-1.16,1.05-2.29-.2-3.47-.87,1.32-.48,2.43.2,3.47Zm61.21-44.28c-.64-.37-1.02-.74-1.22-.66-.4.16-.7.57-1.04.87.28.22.59.64.83.6.41-.07.78-.42,1.43-.81Zm-18.02,4.98c-.21-.02-.42-.04-.63-.05v2.37c.38-.65.65-.94.72-1.28.07-.32-.05-.69-.09-1.04Zm-336.08,219.74c-.23.99-.35,1.28-.36,1.59,0,.23.12.47.18.71.1-.03.2-.06.3-.08-.03-.5-.05-1-.12-2.22Zm284.63-218.97c0,.12-.07.31-.01.36.47.4.95.79,1.47,1.13.05.03.46-.27.46-.43.04-.81-.55-1.13-1.22-1.28-.21-.05-.46.13-.7.21Zm12.19,36.65c-.39.85-1.16,1.41-.18,2.56.7-.74,1.16-1.38.18-2.56Zm-7.6-7.94c-.31-.46-.51-.76-.71-1.05-.29.2-.78.38-.82.62-.04.27.27.72.55.87.17.09.56-.23.98-.43Zm32.08-103.13c-.43.21-.83.35-.82.42.07.48.23.95.37,1.42.33-.15.94-.33.93-.43-.06-.47-.3-.92-.48-1.4Zm-48.53,128.15c.59-.24,1.44-.24,1.04-1.25-.08-.2-.5-.48-.63-.42-.8.34-.79.95-.41,1.67Zm79.88-5.11c-.26.39-.51.62-.47.73.14.34.38.64.59.96.2-.14.6-.37.58-.41-.17-.41-.42-.79-.7-1.27Zm-346.21,140.46c.34-.57,1.4-.86.7-1.83-.84.38-1.14.97-.7,1.83Zm320.9-142.9c.08.13.15.26.23.39.44-.17.88-.33,1.3-.53.08-.04.15-.32.13-.33-.2-.12-.48-.34-.62-.28-.38.18-.7.48-1.04.74Zm-78.83-54.88c.1-.06.2-.11.3-.17-.15-.19-.3-.38-.46-.56-.01-.01-.17.11-.25.17.14.19.28.38.42.56Zm25.64,44.85c-.48-.13-.91-.28-1.35-.33-.07,0-.19.41-.29.63.41.16.83.33,1.25.45.04.01.19-.35.39-.74Zm71.48-57.25c.21-.1.41-.2.61-.29-.1-.16-.18-.34-.3-.48-.02-.02-.27.08-.29.15-.04.2-.01.41-.01.62Zm-290.42,282.86c-.19-.34-.31-.55-.43-.76-.28.18-.59.33-.83.55-.03.03.23.54.32.53.32-.03.62-.2.95-.32Zm266.09-222.23c-.12.05-.28.06-.34.14-.21.29-.37.61-.56.92.2.06.53.23.58.17.22-.28.38-.62.52-.96.02-.05-.13-.19-.2-.28Zm-14.1,5.2c.75-.6,1.06-.77,1.24-1.04.08-.12-.09-.41-.15-.62-.1.08-.24.13-.3.23-.18.28-.33.58-.8,1.43Zm-306.3,170.65c-.02-.24-.03-.48-.05-.72-.13.09-.36.15-.38.26-.05.23,0,.48.01.72.14-.09.28-.17.42-.26Zm155.62-100.54c-.08-.25-.16-.49-.23-.74-.09.09-.26.18-.27.28-.02.26.03.52.05.77.15-.1.3-.21.45-.31Zm.76-3.46c-.06-.11-.13-.22-.19-.32-.11.18-.25.36-.31.56-.03.08.11.21.18.32.11-.19.22-.37.33-.56Zm-54.71-67.49c.18.15.35.3.54.42.02.01.16-.17.24-.26-.18-.15-.36-.3-.55-.43-.01,0-.15.17-.23.27Zm-142.16,304.17c-.04-.11-.08-.22-.12-.32-.11.04-.26.06-.31.14-.04.06.06.2.1.31.11-.04.22-.08.33-.12Zm313.98-302.47c-.23-.09-.46-.18-.69-.27-.07.24-.22.5-.17.71.03.13.37.18.57.27.1-.24.19-.48.29-.72Zm-231.4,299.11c-.34-.26-.63-.5-.95-.71-.04-.02-.28.19-.28.2.17.29.34.59.58.82.05.05.36-.17.65-.31Zm311.5-373.79c.05-.1.1-.2.15-.31-.13-.06-.25-.12-.38-.18,0,.12-.04.24,0,.34.02.07.15.09.23.14Zm-55.06,79.61c.01-.12.03-.23.03-.35,0-.01-.14-.02-.22-.03-.01.12-.03.23-.02.35,0,.02.13.02.21.03Zm67.89,4.13c-.11-.21-.2-.36-.28-.51-.04.11-.14.25-.1.31.05.08.2.11.38.19Zm-84.83-1.14c-.11.03-.23.05-.34.08.14.11.28.23.44.31.03.01.14-.14.21-.22-.1-.06-.21-.11-.31-.17Zm-125.52,96.17l.15-.22-.2-.06.05.27Zm141.44-96.71c-.04.11-.09.23-.13.34.14-.07.27-.15.41-.22-.09-.04-.18-.08-.28-.13Zm-13.28,2.32l-.04.24.29-.08-.25-.17Zm-36.75,227.39l-.2.31.29.05-.09-.36ZM133.74,217.1l-.33.17.33.14v-.3Zm470.22-12.9l.16-.31-.28-.02.12.33Zm48.78,87.03c-.08-.22-.16-.44-.23-.66-.09.08-.27.18-.26.24.03.22.13.43.2.65.1-.08.19-.16.29-.23Zm-40.49,39.87c.21-.09.42-.18.62-.28-.05-.09-.08-.26-.14-.27-.19-.04-.39-.02-.59-.02.04.19.07.38.11.56Zm56.45-15.23c-.1-.03-.2-.06-.3-.09-.01.14-.03.27-.04.41.11-.02.22-.03.31-.08.04-.03.02-.15.03-.23Zm2.62,300.08h.25s-.12-.28-.12-.28l-.14.28Zm31.49-317.77c-.04-.09-.09-.18-.13-.27-.06.08-.16.16-.17.24,0,.09.08.18.12.28.06-.08.12-.16.18-.25Zm-70.75,18.27c-.05-.1-.09-.2-.14-.3-.07.09-.17.17-.18.26,0,.09.08.2.13.3.07-.09.13-.17.2-.26Zm23.31,108.08c-.11-.04-.21-.07-.32-.11-.03.09-.06.19-.08.28.1.03.21.09.31.08.04,0,.06-.16.09-.25Zm65.45,88.68c.03-.1.07-.2.1-.31-.11.07-.22.13-.33.2l.23.11Zm5.31-220.35c.03.1.02.23.09.28.09.06.22.06.34.08-.04-.17-.09-.34-.13-.52-.1.05-.2.1-.29.16Z"/>
    <path class="cls-1" d="m686.64,246.49c-.99,2.15.48,3.73-.77,5.17-1.12-.16-1.26-1.05-1.35-1.76-.1-.88.03-1.81.2-2.7.03-.18.65-.26,1.92-.71Z"/>
    <path class="cls-1" d="m713.46,277.74c.32-.13.63-.25.95-.38.04.11.12.3.1.32-.29.18-.59.34-.89.51-.04-.11-.08-.22-.16-.45Z"/>
    <path class="cls-1" d="m700.09,274.09c.31.04.61.07.92.11-.31-.03-.63-.06-.94-.08,0,0,.02-.02.02-.02Z"/>
    <path class="cls-1" d="m268.33,362.11c-1.15-1.51-2.27-2.79-3.16-4.21-1.05-1.68-2.3-2.95-4.23-3.66-2.47-.92-3.52-3.05-3.55-5.51-.04-3.95.17-7.91.33-11.86.01-.32.41-.63.74-1.1,1.77,1.63.33,3.81,1.38,5.73.5.17,1.28.34,1.96.7,1.64.86,2.75,2.1,3.17,4.03.41,1.91.76,3.84.11,5.66-.64,1.79-.21,3.14.79,4.58,1,1.46,1.83,3.03,2.7,4.57.09.17-.09.49-.22,1.07Zm-7.9-16.34c.11,1.65.08,2.56.25,3.44.13.66.55,1.17,1.53.65-.14-1.23.09-2.55-1.78-4.08Z"/>
    <path class="cls-1" d="m231.98,351.52c.79,1.25,1.32,1.98,1.71,2.77.41.85.68,1.76.98,2.56,1.05.31,2.01.44,2.83.87,1.26.65,2.12,1.7,2.33,3.18.28,2.04.65,4.11-.33,6.03-.77,1.52-.63,2.85.2,4.25.62,1.04,1.2,2.13,1.69,3.24.11.26-.12.89-.37,1.02-.27.14-.97.03-1.09-.19-.67-1.18-1.27-2.4-1.8-3.65-.55-1.29-1.18-2.23-2.65-2.83-2.65-1.09-3.78-3.8-2.65-6.38.7-1.61.46-2.76-.27-4.2-.65-1.31-.96-2.82-1.23-4.28-.1-.56.31-1.22.65-2.4Zm4.66,14.42c.65-1.47.95-2.7.34-4.01-.47-1.02-1.16-1.45-2.39-.48.18,1.51.06,3.22,2.04,4.49Z"/>
    <path class="cls-1" d="m507.95,250.06v5.63c.9.26,1.66.47,2.41.7,1.83.57,3.11,2.15,2.9,3.91-.28,2.3-.53,4.68-2.99,5.93-.21.11-.32.42-.55.75.2,1.85,2.1,3.49,1.09,5.84-.36-.25-.79-.39-.9-.66-.42-1-.84-2.03-1.07-3.09-.32-1.45-1.06-2.32-2.41-3.04-2.59-1.39-3.51-3.85-2.09-6.57,1.19-2.29,1.56-4.56,1.65-7.03.03-.84.09-1.97,1.96-2.36Zm.81,13.78c.55-.87,1.02-1.32,1.13-1.86.15-.67-.07-1.36-.99-1.36-.71,0-1.55.24-1.49.97.05.64.71,1.24,1.35,2.25Z"/>
    <path class="cls-1" d="m541.42,248.34c.14.61.31,1.22.42,1.83.1.52.14,1.04.2,1.53,5.2.68,6.8,5.93,1.75,10.03.51,1.57,1.03,3.19,1.59,4.92-2.15-.32-2.59-.43-2.97-1.67-.7-2.25-1.61-4.31-3.3-6.01-.72-.73-.77-1.74-.51-2.71.7-2.61,1.43-5.22,2.15-7.83.22-.03.44-.07.66-.1Zm2.29,9.09c0-1.37-.7-2.31-1.53-2.13-.38.08-.84.64-.92,1.05-.21,1.07.48,1.87,1.5,1.77.39-.04.73-.52.95-.68Z"/>
    <polygon class="cls-1" points="288.39 634.07 288.73 634.24 288.36 634.35 288.39 634.07"/>
    <path class="cls-1" d="m315.96,639.28c-.31,0-.62,0-.92.01.06-.06.13-.17.17-.16.22.06.43.15.65.22.01-.01.1-.08.1-.08Z"/>
    <path class="cls-1" d="m659.51,408.49c1.44-.98,2.88-1.95,4.66-3.17.29-2.22.22-4.78-.05-7.35-.57-5.3-1.1-10.59-1.7-15.88-.38-3.38-.96-6.75-1.24-10.14-.16-1.97.07-3.97.15-6.71.94,4.3,1.7,7.84,2.49,11.36,1.95,8.69,2.95,17.48,3.02,26.39,0,.68.03,1.37-.02,2.05-.14,1.86-1.14,3.1-2.95,3.45-1.4.27-2.89,1.14-4.29-.09l-.07.09Z"/>
    <path class="cls-1" d="m659.59,408.4c-.34-.02-.69-.05-1.03-.07.09-.17.17-.34.26-.51.23.22.47.44.7.66,0,0,.08-.09.08-.09Z"/>
  </g>
</svg>